<?xml version="1.0" encoding="UTF-8" standalone="no"?>
<!-- Created with Inkscape (http://www.inkscape.org/) -->

<svg
   width="168.35873mm"
   height="172.08934mm"
   viewBox="0 0 168.35873 172.08934"
   version="1.1"
   id="svg81417"
   xmlns:xlink="http://www.w3.org/1999/xlink"
   xmlns="http://www.w3.org/2000/svg"
  >
  <defs
     id="defs81414">
    <linearGradient
       id="linearGradient119604">
      <stop
         style="stop-color:#ffef62;stop-opacity:1;"
         offset="0"
         id="stop119600" />
      <stop
         style="stop-color:#ffef62;stop-opacity:0;"
         offset="1"
         id="stop119602" />
    </linearGradient>
    <clipPath
       clipPathUnits="userSpaceOnUse"
       id="clipPath116995">
      <path
         id="lpe_path-effect116999"
         style="fill:#02ac87;stroke:none;stroke-width:0.264583"
         class="powerclip"
         d="m 980.10522,-533.96252 h 502.88548 v 271.19549 H 980.10522 Z m 107.86288,2.03784 v 270.9333 h 270.9332 v -270.9333 h -270.9332 m 148.4312,35.45414 c -2.0908,-1.25439 -5.0708,-0.85802 -7.4084,-1.13398 -7.7482,-0.91416 -15.9659,-0.12385 -23.5478,1.55096 -24.2835,5.36366 -44.4379,22.09906 -55.7589,44.03302 -4.5394,8.7953 -7.1704,18.31104 -9.8578,27.78125 3.3742,-1.57322 6.0336,-4.72811 9.525,-6.37937 7.4287,-3.51367 15.8938,-4.20714 23.8125,-2.11799 2.6239,0.69241 4.894,2.02618 7.4083,2.94111 3.4483,-23.436 20.4878,-44.86275 39.4229,-57.93685 5.179,-3.57613 10.9006,-5.8071 16.4042,-8.73815 m 29.3686,0.71702 c -6.7175,-0.0976 -9.0826,6.57701 -8.1264,12.24756 1.2219,7.24747 8.1177,14.80902 15.7993,14.80902 6.8369,-5.3e-4 9.1075,-6.60905 8.0794,-12.42777 -1.2896,-7.29877 -8.05,-14.51687 -15.7523,-14.62881 m -15.6104,2.72256 c -7.9751,1.07474 -16.5596,5.65838 -23.2832,9.87401 -1.8547,1.16282 -5.6271,2.80985 -6.455,4.953 -0.6686,1.7317 0.1463,4.34867 0.5418,6.0751 1.2745,5.5626 3.3999,10.95293 6.7479,15.61039 0.8843,1.23005 3.0308,4.97234 4.7215,4.97234 0.8401,0 1.5608,-0.99565 2.1167,-1.50921 1.5568,-1.4388 3.1266,-2.88605 4.7624,-4.23463 5.3271,-4.39158 11.2398,-7.92165 17.4625,-10.87014 -1.2687,-2.99696 -3.8362,-5.42105 -5.2091,-8.46669 -2.5802,-5.72347 -1.8923,-10.44361 -1.4055,-16.40417 m 16.6688,4.38097 c -2.9284,0.76703 -3.6478,3.84863 -2.9737,6.46695 0.9485,3.68432 4.7739,7.25752 8.7945,6.20236 2.712,-0.71173 3.6092,-3.71422 3.035,-6.20236 -0.8202,-3.55362 -4.9842,-7.48136 -8.8558,-6.46695 m -30.9562,8.17827 c -9.4356,1.76795 -7.3657,16.76297 2.1167,15.09898 9.7627,-1.71318 7.636,-16.92643 -2.1167,-15.09898 m -21.6958,7.54912 c -3.3094,1.28217 -8.0857,6.56032 -9.525,9.78956 l 7.6729,3.44434 4.7625,-3.17976 -2.9104,-10.05414 m 71.9665,7.14375 h -0.5291 c -5.0652,6.72068 -13.0342,9.57765 -19.8438,14.11682 -12.4986,8.33175 -26.1987,22.32448 -28.3103,38.00607 5.4556,-5.3e-4 10.5097,-0.34211 15.8749,1.17158 11.9179,3.36258 19.6805,13.94168 21.7977,25.81592 0.8009,4.49183 0.4273,9.212 0.4273,13.75833 v 14.2875 c 0,3.2938 0.1799,6.51113 -1.992,9.25645 -1.5529,1.96295 -3.6904,2.67362 -5.9455,3.44355 5.347,7.68086 14.1145,14.14595 22.225,18.60339 1.496,0.82206 2.7022,2.11799 4.2333,2.82786 0.9086,-3.15383 2.7091,-6.18887 3.9151,-9.26041 2.0942,-5.33374 3.7333,-10.81194 4.9686,-16.40417 8.3341,-37.73329 4.9088,-82.67912 -16.8212,-115.62289 m -66.6748,8.20206 c -2.1185,1.00782 -4.6368,4.63949 -6.8792,4.82785 -2.35,0.19738 -6.5135,-3.1972 -8.7312,-4.14549 -0.8361,-0.35772 -2.1818,-1.21812 -3.1195,-0.85355 -0.8932,0.3474 -1.5007,1.7907 -1.9891,2.55244 -0.4937,0.7702 -0.9274,1.52347 -1.2414,2.38125 l 8.4666,3.13851 8.4667,4.26982 4.2783,-5.82083 2.3474,-3.175 -1.5986,-3.175 m 21.4311,19.31458 c -4.0409,-1.56739 -8.0207,-3.70946 -11.377,-6.47277 -1.0324,-0.8501 -2.9599,-3.81023 -4.3193,-3.89043 -1.1414,-0.0675 -2.2577,1.6555 -2.8752,2.4257 -2.2582,2.81702 -4.7906,6.10764 -6.0346,9.525 l 3.175,1.5875 4.2333,-7.9375 c 2.0418,0.69268 3.6846,2.54955 5.5562,3.64384 3.1282,1.82854 6.536,2.95804 10.0541,3.76449 l 1.5875,-2.64583 m -42.5978,-7.67292 -3.9687,-1.05833 -3.2631,7.9375 -0.7552,2.85406 2.9599,1.90844 5.0271,-11.64167 m 12.7,5.55625 c -1.4338,-0.83685 -5.1562,-3.50308 -6.8305,-2.98767 -1.3642,0.42016 -2.1883,2.86652 -2.6942,4.04601 -1.7455,4.06982 -3.3978,8.27751 -3.969,12.7 l 6.8791,2.38125 2.721,-7.9375 3.8936,-8.20209 m 2.3813,9.26042 -1.5875,3.43958 7.4083,3.175 c -2.2905,9.9912 -3.5655,19.43391 -1.5875,29.63334 2.5781,-0.85328 4.8926,-2.77495 7.4083,-3.887 0.8369,-0.37015 2.3315,-0.56382 2.903,-1.32582 0.8184,-1.09088 0.5206,-4.28705 0.5376,-5.6351 0.041,-3.3528 0.8062,-6.81461 1.6201,-10.05417 0.5588,-2.22514 1.2115,-4.52384 2.1648,-6.61458 0.285,-0.62521 1.1237,-1.78435 0.6768,-2.48629 -0.581,-0.91281 -4.6842,-0.89059 -5.7856,-1.11204 -4.7985,-0.96547 -9.5255,-2.66248 -13.7583,-5.13292 m -36.5123,19.84375 c -1.1499,-3.63326 -4.145,-6.95881 -6.8792,-9.50145 -0.9417,-0.87551 -2.3307,-2.37097 -3.7042,-2.42147 -1.3488,-0.0497 -3.0347,0.87207 -4.2333,1.42134 -4.0024,1.83383 -7.6761,4.65693 -10.4063,8.12033 -4.4834,5.68775 -7.0678,12.63068 -7.5616,19.84375 -0.2468,3.59833 0.2787,7.25726 -0.069,10.84792 -0.3966,4.09998 -2.6217,7.72133 -6.8341,8.73125 0,8.83734 1.8907,17.95647 4.1933,26.45833 2.589,9.5594 6.4768,19.02725 12.4476,26.9875 18.0044,24.00353 52.5799,31.59654 80.9903,27.97016 8.5674,-1.09352 16.7329,-3.52134 24.8707,-6.27433 v -0.26458 c -23.1718,-0.19182 -44.5406,-15.74932 -58.4199,-33.07292 -4.473,-5.5827 -8.931,-11.88296 -11.6945,-18.52083 h -0.2646 c -0.4316,5.46867 -1.0229,10.94608 -1.5425,16.40417 -0.2279,2.39209 0.2002,5.75654 -0.9229,7.9375 -0.9448,1.83515 -2.9652,3.57108 -4.4141,5.02708 -1.6343,1.64227 -3.4697,4.24127 -5.5559,5.28426 -1.6534,0.82682 -6.9969,0.75168 -8.7313,0.11245 -1.2578,-0.46382 -2.2529,-1.8288 -3.175,-2.75088 -2.3503,-2.35029 -5.2829,-4.81224 -7.0181,-7.67291 -1.1332,-1.86796 -1.0035,-4.75589 -1.2962,-6.87917 -0.7516,-5.45915 -1.5012,-10.92306 -2.0492,-16.40417 -1.8547,-18.54888 -4.0491,-43.76446 12.4802,-56.70867 3.0236,-2.36776 6.2852,-3.35254 9.7896,-4.67466 m 25.4002,4.7625 c 0.022,-2.69981 0.286,-5.51894 0.6045,-8.20208 0.1043,-0.87419 0.6438,-2.50349 0.1583,-3.30465 -0.7808,-1.28852 -5.3978,-2.26666 -6.8483,-2.51619 l -0.5291,8.20209 0.4241,3.27078 6.1905,2.55005 m -13.7584,2.91042 c -3.1845,-0.65692 -6.0018,-1.28032 -9.2604,-0.70882 -7.9753,1.39832 -13.1646,9.33609 -15.2328,16.58382 -3.8034,13.32918 -2.0805,28.55224 -0.303,42.06875 0.4845,3.68458 0.244,9.37868 1.8616,12.7 0.5887,1.20861 1.8002,2.16905 2.6739,3.175 0.816,0.93927 2.958,3.96875 4.3857,3.61262 1.3827,-0.34475 2.5445,-2.36167 3.4634,-3.34804 0.9324,-1.00118 2.2545,-1.93675 2.8795,-3.175 0.6977,-1.38192 0.4352,-3.26734 0.6117,-4.7625 0.5075,-4.29763 0.5506,-8.66246 1.0583,-12.96458 1.5275,-12.93681 1.6502,-30.06461 11.0609,-40.21667 3.1769,-3.42715 6.6157,-3.86689 10.295,-6.08542 -1.7611,-1.261 -3.8984,-3.04826 -6.0854,-3.45043 -3.124,-0.57414 -6.9715,1.82933 -9.2605,3.66422 -6.7614,5.41946 -9.7398,15.03574 -10.7722,23.33413 -0.3757,3.01943 0.9821,12.58678 -3.7798,12.64338 -1.5582,0.0185 -2.8501,-1.31789 -3.1491,-2.77813 -0.6988,-3.41233 -0.1561,-8.03327 0.35,-11.45275 1.7246,-11.65066 7.0678,-24.61948 19.2032,-28.575 v -0.26458 m 58.7374,6.87916 c -1.497,1.97353 -0.8483,6.14389 -0.5702,8.46667 0.9277,7.75203 3.6841,15.50061 7.1202,22.48958 1.1282,2.29473 2.3575,6.2574 4.5625,7.67292 0,-13.96339 -0.6816,-27.97836 -11.1125,-38.62917 m -8.4667,0.79375 c -5.894,0.004 -14.6443,2.71807 -18.5207,7.40834 1.1549,0.39079 3.2819,0.83052 3.9613,1.92484 1.0944,1.76318 0.5776,5.51577 1.0354,7.60016 1.3073,5.95418 2.9892,11.95228 5.6549,17.4625 6.6876,13.82289 16.579,25.96515 29.565,34.31434 4.7458,3.05144 10.0539,6.20368 15.6104,7.48982 l 3.4396,-5.82083 c -17.2731,-9.62607 -30.4962,-28.90785 -37.2219,-47.09583 -2.6858,-7.26282 -4.9645,-15.52364 -3.524,-23.28334 m 49.4771,76.36775 c -4.4304,-0.0855 -4.7456,9.12338 -0.2646,9.17998 4.6202,0.0585 4.9274,-9.08998 0.2646,-9.17998 z" />
    </clipPath>
    <linearGradient
       xlink:href="#linearGradient119604"
       id="linearGradient119606"
       x1="801.21295"
       y1="158.17223"
       x2="804.74255"
       y2="120.47481"
       gradientUnits="userSpaceOnUse" />
  </defs>
  <g
     id="layer1"
     transform="translate(-705.11895,-43.882231)">
    <path
       style="fill:#ffffff;fill-opacity:1;stroke-width:0.264583"
       d="m 746.7907,215.83537 c -0.43656,-0.0509 -1.88459,-0.21893 -3.21784,-0.37342 -5.42752,-0.62892 -11.95474,-2.81761 -15.97289,-5.35598 -2.9125,-1.83991 -3.11734,-2.01841 -2.63739,-2.29824 0.21828,-0.12727 0.78577,-0.52148 1.26108,-0.87602 l 0.86421,-0.64462 3.28448,1.40518 c 6.86023,2.93499 11.01011,3.93861 17.47668,4.22662 8.6278,0.38427 17.20697,-1.17646 26.43681,-4.80941 11.83448,-4.65817 22.8706,-12.85706 32.68259,-24.28039 1.40327,-1.63371 6.75407,-8.81065 8.0093,-10.74274 5.41633,-8.3369 10.35723,-19.25715 12.54833,-27.73386 l 0.2271,-0.87867 1.8935,1.33115 1.89338,1.33114 -0.99988,3.11939 c -4.1205,12.85493 -11.44628,25.98778 -20.23673,36.2781 -4.53844,5.31283 -11.08894,11.37423 -17.319,16.02588 -12.2226,9.12595 -28.20407,14.58178 -42.20479,14.40807 -1.75735,-0.0218 -3.55238,-0.0813 -3.98894,-0.13218 z m -34.85827,-12.21266 -6.81243,-2.56448 -5.3e-4,-8.38048 -5.2e-4,-8.3805 3.63802,-0.84072 c 2.00091,-0.46241 5.1786,-1.24218 7.06153,-1.73284 l 3.42351,-0.8921 1.59821,-1.79293 c 3.28597,-3.6863 5.65086,-5.55935 10.15346,-8.04183 10.60744,-5.84834 19.35318,-13.45565 25.97132,-22.59068 1.05426,-1.45521 2.38215,-3.44198 2.95085,-4.41506 l 1.034,-1.76922 1.18871,0.40502 c 1.32553,0.45166 1.36979,0.5542 0.75869,1.7575 -3.8942,7.66785 -13.53101,17.88808 -22.85331,24.23687 -2.0934,1.42568 -4.81541,3.08101 -10.30684,6.26789 -2.42416,1.40683 -5.80423,4.42529 -7.3562,6.56922 -0.53494,0.73898 -1.08995,1.42506 -1.23335,1.52461 -0.1434,0.0996 -1.8142,0.56259 -3.71289,1.02896 -1.8987,0.46637 -3.60082,0.92533 -3.7825,1.0199 -0.18167,0.0946 2.13136,1.17937 5.14009,2.41063 5.13197,2.10019 6.29903,2.73614 5.18146,2.82349 -0.25643,0.0201 -0.79365,0.1616 -1.19383,0.31458 l -0.7276,0.27814 v 6.84616 6.84617 l -1.3405,0.8333 c -0.73727,0.45832 -1.48141,0.82645 -1.65365,0.81809 -0.17223,-0.008 -3.37874,-1.16923 -7.12558,-2.57969 z m 7.43282,-6.25196 c -0.0561,-2.974 -0.17177,-5.4771 -0.25712,-5.56245 -0.20109,-0.20109 -9.44951,-3.75994 -10.37395,-3.99197 l -0.70494,-0.17693 v 5.45832 c 0,5.45314 5.3e-4,5.45858 0.61408,5.73811 1.2734,0.5802 10.11695,3.88961 10.46271,3.91533 0.29733,0.0221 0.34315,-0.92891 0.25922,-5.38041 z m -5.64821,-0.49033 c -0.72802,-0.32158 -1.47216,-0.68101 -1.65365,-0.79874 -0.445,-0.28866 -0.45386,-3.35782 -0.01,-3.35782 0.17616,0 1.0096,0.26728 1.85208,0.59397 l 1.53179,0.59396 v 1.78729 c 0,0.983 -0.0893,1.7825 -0.19843,1.77665 -0.10914,-0.006 -0.79409,-0.27373 -1.52211,-0.59531 z m 124.8754,6.45396 c 0.5678,-1.78889 1.3561,-4.9482 2.2755,-9.11927 3.9791,-18.05196 4.4818,-30.60865 1.5585,-38.93036 -3.5038,-9.97412 -9.9027,-16.30147 -19.16538,-18.95099 -1.1838,-0.33863 -3.0608,-0.58582 -5.1735,-0.68134 -3.59873,-0.16272 -5.90974,0.16433 -9.7268,1.37647 l -1.97779,0.62806 0.89553,-0.93364 c 1.25972,-1.31332 4.52882,-3.9916 6.71063,-5.49781 4.20126,-2.90034 10.43373,-5.4113 14.91113,-6.00742 8.04818,-1.07154 18.69348,4.79371 23.59758,13.00162 1.0535,1.76318 2.9002,6.1395 3.6844,8.73124 l 0.4403,1.45521 1.9286,0.0782 1.9287,0.0782 -0.1896,-1.13658 c -0.2752,-1.64976 -1.7868,-5.9779 -2.8663,-8.20696 -1.5426,-3.18509 -3.576,-6.0173 -6.2428,-8.69505 -3.7997,-3.81533 -7.414,-6.12344 -11.9962,-7.66087 -2.6681,-0.89523 -2.3211,-1.05331 2.7234,-1.24069 6.1562,-0.22866 10.3583,0.60074 15.2136,3.00282 2.4349,1.20463 6.6086,4.11334 8.4197,5.86777 2.0898,2.0245 5.6942,7.68046 5.3005,8.3175 -0.069,0.11157 -0.5431,0.20285 -1.0537,0.20285 -0.7611,0 -0.9029,0.0833 -0.7878,0.46302 1.1262,3.71343 1.1703,10.17098 0.1079,15.77173 l -0.3333,1.75691 h -2.4532 -2.4532 c 0,0 -0.647,-1.52962 -2.0363,-4.51994 0,0 -1.6117,-0.23897 -2.6747,-0.32407 l -1.9329,-0.15471 0.2065,1.90406 0.5344,3.02616 c -0.058,-0.0563 -4.3632,0.0788 -5.7542,0.0282 l -2.5291,-0.092 0.1156,6.67618 c 0.1925,11.11322 -0.5965,16.68256 -4.9887,35.21401 -0.1146,0.48388 -0.4274,1.056 -0.6949,1.27137 -0.4467,0.35963 -0.4345,0.36629 0.1492,0.0816 0.4012,-0.19572 2.9041,-0.36164 6.788,-0.44999 l 6.1525,-0.13996 1.062,-2.27658 c 3.6913,-7.91257 5.8273,-13.61856 7.6019,-20.30661 0.9181,-3.46021 2.4701,-11.34479 2.5172,-12.75203 0.04,-0.74342 -1.3505,-26.5371 -1.3505,-26.5371 l 3.6682,0.75809 c 2.7838,2.81677 3.2604,18.77457 2.3633,28.14713 -0.6875,7.18343 -3.5241,14.38219 -5.8704,20.83764 -1.5551,4.27854 -5.2933,12.72595 -6.5974,14.90842 l -0.836,1.39917 -10.6657,0.0692 c -10.4133,0.0675 -10.6618,0.0572 -10.5044,-0.43885 z m -101.45903,-1.92119 c -0.94589,-0.13149 -3.10112,-0.48288 -4.78941,-0.78085 l -3.06962,-0.54178 -0.17032,-2.95574 c -0.0937,-1.62567 -0.17087,-4.22242 -0.17153,-5.77058 l -0.001,-2.81482 0.85989,-0.15251 c 0.47295,-0.0839 1.51474,-0.22995 2.31511,-0.3246 3.28855,-0.3889 12.8165,-2.62394 17.03836,-3.99682 12.81008,-4.16562 21.11957,-9.19396 30.18831,-18.26795 5.09638,-5.09932 8.56376,-9.58213 10.74805,-13.89566 0.42372,-0.83674 0.87236,-1.52135 0.99699,-1.52135 0.12462,0 1.09337,0.38285 2.15278,0.85078 l 1.92619,0.85078 0.41635,-0.65234 c 0.72659,-1.13842 4.07474,-4.49427 5.72151,-5.73466 1.76229,-1.32741 4.71015,-2.87652 7.16839,-3.76703 l 1.61214,-0.58401 1.59843,1.67396 c 0.87913,0.92068 1.92404,2.06523 2.32202,2.54342 l 0.7236,0.86945 -0.86424,2.04098 c -5.00351,11.81625 -12.17121,22.6675 -20.20735,30.59207 -11.02191,10.86891 -23.18155,17.67204 -36.9405,20.66766 -2.98792,0.65053 -6.56479,1.72635 -9.92873,2.04659 -2.5204,0.23994 -5.06962,0.0821 -7.5947,-0.1022 -0.6877,-0.0502 -1.10463,-0.1413 -2.05052,-0.27279 z m 41.22651,-17.34936 c 5.71338,-4.23591 11.71236,-9.80582 15.7173,-14.59312 1.04867,-1.25354 2.41703,-2.8396 3.0408,-3.52459 1.19003,-1.3068 1.47493,-2.5182 0.86171,-3.66401 -0.34094,-0.63705 -1.60931,-1.30825 -2.47221,-1.30825 -0.91244,0 -2.22262,1.39006 -2.44115,2.58998 -0.46804,2.56987 -12.5774,14.36821 -17.76682,17.31046 -0.76398,0.43316 -1.38918,0.86549 -1.38934,0.96074 -5.2e-4,0.31521 2.77164,2.91649 3.12679,2.93407 0.19161,0.009 0.78692,-0.30789 1.32292,-0.70528 z m -51.40101,-1.33716 c 2.54534,-2.46177 4.59103,-3.9203 10.07038,-7.18 7.69712,-4.57904 12.29018,-8.22553 18.89686,-15.00244 5.91075,-6.06304 10.14848,-11.91987 13.60014,-18.79632 2.3885,-4.7584 4.04509,-9.58374 5.23027,-15.23486 l 0.87372,-4.16603 2.57463,-0.001 2.57463,-10e-4 -0.14351,1.25677 c -0.47557,4.16484 -1.5912,9.30535 -2.72754,12.5677 -0.29145,0.83675 -0.49097,1.52137 -0.44337,1.52137 0.0476,0 0.86209,0.29192 1.80998,0.64869 l 1.72345,0.64871 0.82517,-2.30234 c 1.125,-3.13893 2.0799,-7.49996 2.46076,-11.23834 l 0.31736,-3.11516 4.21745,0.0725 4.21744,0.0724 -0.0451,2.51354 c -0.10103,5.63359 -1.59451,13.47873 -3.45026,18.12397 -1.91627,4.7967 -5.37967,10.60443 -8.98582,15.06819 -2.04125,2.5267 -6.52381,6.9772 -9.69464,9.62532 -8.88891,7.42358 -22.10244,13.03464 -37.16711,15.78286 -1.96453,0.35838 -4.70296,0.89148 -6.08541,1.18465 -1.38245,0.29318 -2.69214,0.5305 -2.91042,0.52737 -0.21828,-0.003 0.79913,-1.16242 2.26092,-2.57621 z m 31.11258,-13.59885 c 2.01947,-1.32703 9.99611,-9.23486 12.49508,-12.3873 2.52098,-3.18021 5.42593,-7.60182 7.12696,-10.84791 2.08727,-3.98317 2.08599,-3.72906 0.0224,-4.44925 -0.96008,-0.33507 -1.77868,-0.5724 -1.8191,-0.52738 -0.0404,0.045 -0.66997,1.27247 -1.39899,2.72767 -1.38903,2.77266 -3.78864,6.57383 -5.84593,9.26041 -2.88817,3.77162 -10.03382,11.11826 -13.52686,13.90736 -0.94588,0.75526 -1.75722,1.4704 -1.80296,1.5892 -0.0756,0.19647 2.50154,1.82533 2.89729,1.83117 0.0926,0.001 0.92599,-0.49542 1.85208,-1.10397 z m -38.53287,-12.63396 c -1.01865,-0.2547 -3.28084,-0.7887 -5.02709,-1.18668 -1.74625,-0.39797 -4.1204,-0.95265 -5.27589,-1.23261 -1.15549,-0.27998 -2.31635,-0.50904 -2.57969,-0.50904 -0.26333,0 -0.47879,-0.12106 -0.47879,-0.26903 0,-0.44559 2.6641,-11.4488 2.96093,-12.22917 0.15152,-0.39833 0.37363,-0.66358 0.49359,-0.58945 0.51236,0.31666 7.77397,2.25184 8.05097,2.14554 0.16752,-0.0643 0.45725,-0.7991 0.64386,-1.63293 0.35647,-1.59292 0.21429,-1.95691 -0.77227,-1.97705 -1.06511,-0.0217 -1.11727,-0.37 -0.41711,-2.78511 0.37231,-1.28422 0.64823,-2.36134 0.61317,-2.39362 -0.13256,-0.12199 -2.95202,-0.90668 -3.2578,-0.90668 -0.17691,0 -0.58174,0.97558 -0.90579,2.18281 -0.32225,1.20055 -0.61847,2.21794 -0.65826,2.26087 -0.0398,0.0429 -0.6226,-0.0605 -1.29515,-0.22984 -0.83394,-0.20999 -1.22281,-0.44638 -1.22281,-0.74334 0,-0.74537 2.25887,-7.74171 3.56482,-11.04123 4.90563,-12.3942 12.53108,-22.78655 20.70164,-28.21328 3.12373,-2.07471 4.9254,-2.99555 8.39813,-4.29232 3.75699,-1.40291 5.88742,-1.89288 9.80104,-2.25412 5.86073,-0.54095 12.34628,0.26696 17.25673,2.14969 5.66765,2.17306 11.65369,6.53671 14.83188,10.81201 0.37862,0.50932 1.14388,1.53488 1.70057,2.279 1.02375,1.36844 3.13847,5.24371 3.51584,6.44284 0.17409,0.55321 -0.007,0.46165 -1.19176,-0.60393 -6.26359,-5.6315 -14.69711,-8.46521 -23.94243,-8.04478 -11.17757,0.50829 -20.87778,5.7493 -27.76234,14.99993 -5.25994,7.06768 -7.80116,12.89581 -12.20475,27.99085 -2.63426,9.02998 -3.07841,10.38414 -3.39727,10.35783 -0.16054,-0.0132 -1.12533,-0.23246 -2.14397,-0.48716 z m 0.39488,-28.39448 c 0.65688,-1.86034 2.98885,-7.05781 3.89996,-8.69221 0.10377,-0.18615 -2.47337,-1.29581 -3.00947,-1.29581 -0.70734,0 -5.49673,10.8158 -5.01145,11.31727 0.15441,0.15959 2.55026,1.00518 3.09456,1.09221 0.0892,0.0143 0.55111,-1.07539 1.0264,-2.42146 z m 7.93938,-14.81666 c 4.31439,-5.80364 10.15234,-10.8524 15.81764,-13.67937 2.14486,-1.07029 7.31299,-2.91993 8.17917,-2.92729 1.1308,-0.01 1.1988,-0.39329 0.32022,-1.80664 -0.46646,-0.75037 -0.97913,-1.364 -1.13928,-1.36364 -0.67614,0.002 -5.39778,1.38925 -7.26456,2.13506 -8.33487,3.32995 -15.67394,9.94487 -21.03696,18.96123 -0.13124,0.22063 0.26206,0.54068 1.20787,0.98293 0.77136,0.36067 1.47012,0.65993 1.55281,0.66503 0.0827,0.005 1.14607,-1.3302 2.36309,-2.96731 z m 72.78598,23.61406 c 0.007,-0.3638 0.10323,-1.29455 0.2133,-2.06834 0.33231,-2.33626 -0.78115,-8.38417 -2.45052,-13.3103 -1.5899,-4.6916 -1.55489,-3.73428 -0.43417,-11.87344 1.71031,-12.42107 1.34743,-23.77027 -1.06858,-33.42018 -1.1115,-4.43955 -0.90023,-4.20725 -3.22476,-3.54564 -1.05835,0.30124 -1.9709,0.58302 -2.0279,0.6262 -0.057,0.0432 0.26467,1.24233 0.71483,2.66479 0.91722,2.89829 1.75159,7.30783 2.1593,11.41171 0.52353,5.26965 0.22022,14.16507 -0.65888,19.32391 -0.34228,2.0086 -0.65641,3.04079 -0.65641,2.15692 0,-0.18773 -0.52016,-1.19811 -1.15592,-2.24529 -1.11237,-1.83222 -1.14695,-1.95314 -0.91765,-3.20851 0.13106,-0.7175 0.30853,-4.45969 0.39439,-8.316 0.17388,-7.81036 -0.0425,-10.1447 -1.49012,-16.07276 -1.22262,-5.00681 -3.4773,-9.836029 -5.79769,-14.419489 l 3.11221,-0.04054 c 1.02129,1.63459 1.70601,2.89376 2.18573,3.87603 0.47972,0.98227 0.95713,1.78594 1.06092,1.78594 0.87249,0 11.33938,-3.20941 11.33938,-3.47694 0,-0.0978 -0.34907,-0.95593 -0.77572,-1.90684 l -0.77572,-1.72895 -3.3835,1.30741 c -1.86092,0.71907 -3.52716,1.3074 -3.70277,1.3074 -0.17561,0 -0.70532,-0.68461 -1.17714,-1.52135 l -1.14815,-1.568935 c 11.58342,-3.38491 18.66226,-10.804047 24.94331,-18.751355 0,0 1.4269,1.043013 3.43139,4.23009 2.69164,3.71735 6.28134,9.7376 9.52834,19.33134 3.34568,9.8852 4.33468,16.5467 4.36018,29.36875 0.017,8.703469 -0.3309,13.053699 -1.5623,19.513019 l -0.69348,3.63802 h -1.5859 c -1.4067,0 -1.5644,-0.0523 -1.3952,-0.46302 0.3621,-0.87884 0.8567,-3.11553 1.1555,-5.22552 0.1648,-1.16417 0.5058,-3.48589 0.7578,-5.15938 2.86958,-19.872829 -1.1529,-18.542269 -1.1529,-18.542269 l -2.7501,0.0215 h -1.8487 v 3.43958 3.43958 l 3.8191,0.0644 c 0.052,0.53383 0.1143,2.607549 0.021,3.923099 l -1.6372,-0.14619 c -0.9729,-0.0869 -1.9128,-0.24548 -2.0923,-0.31437 -0.2333,-0.0895 -0.3765,0.46517 -0.5021,1.94423 -0.097,1.13821 -0.2782,2.9606 -0.4033,4.04974 -0.1252,1.08914 -0.1977,2.0101 -0.1613,2.04656 0.037,0.0365 0.9855,0.20922 2.109,0.38388 1.9875,0.30898 2.0393,0.33591 1.9172,0.99614 -0.069,0.37322 -0.1968,1.22242 -0.2839,1.88712 l -0.1582,1.20855 -2.0416,-0.32241 c -1.1228,-0.17733 -2.0675,-0.29829 -2.0993,-0.26881 -0.1332,0.12355 -1.1141,5.55709 -1.0202,5.65103 0.057,0.0565 0.8878,0.23723 1.8472,0.40157 0.9593,0.16434 1.7443,0.39368 1.7443,0.50964 l 1.323,0.56506 c 1.4151,0.5949 0.846,0.0324 -3.0428,1.35784 -2.0372,0.69437 -4.14585,1.48619 -4.68576,1.7596 l -3.35253,1.82221 c -1.09807,0.70857 -1.62921,0.93536 -1.5192,0.64869 0.3651,-0.95144 1.83126,-8.24129 2.52554,-12.55712 1.07094,-6.65729 1.21143,-8.70682 1.19701,-17.462499 -0.016,-9.7098 -0.29168,-12.61444 -1.87087,-19.71145 -1.01646,-4.56806 -2.92709,-10.62655 -4.42361,-14.02705 -0.51334,-1.16644 -1.05609,-2.44365 -1.20611,-2.83824 l -0.27277,-0.71744 -1.66249,0.97084 c -0.91437,0.53396 -1.70975,1.00515 -1.76751,1.04708 -0.0578,0.0419 0.28089,0.9956 0.75256,2.11925 2.07026,4.93197 3.67874,10.26499 4.73924,15.71328 2.51568,12.92415 1.90196,28.783869 -1.71934,44.431229 -1.45944,6.30613 -1.77296,7.16514 -2.89095,7.92093 -0.52467,0.35469 -1.74745,1.53962 -2.7173,2.63317 -3.78894,4.27225 -4.00157,4.47136 -3.98686,3.7334 z m 4.08368,-16.42197 c 0.16399,-0.64505 0.37378,-1.55312 0.4662,-2.01793 0.19197,-0.96555 0.11987,-1.00729 -2.21164,-1.28026 l -1.47276,-0.17242 -0.5374,2.01388 -0.53739,2.01388 0.55495,0.11869 c 2.0756,0.4439 2.96846,0.59824 3.18803,0.55108 0.13851,-0.0297 0.38602,-0.58186 0.55001,-1.22692 z m 1.18253,-33.00421 0.92605,-0.18319 -0.22709,-1.9496 -0.22708,-1.94959 -1.88959,0.17693 c -2.76862,0.25923 -2.90057,0.32096 -2.71107,1.26842 0.088,0.44011 0.16003,1.26156 0.16003,1.82545 v 1.02526 l 1.52136,-0.0152 c 0.83674,-0.008 1.93807,-0.0977 2.44739,-0.19844 z m 20.33959,-0.7554 0.939,-0.0742 -0.059,-1.99905 c -0.072,-2.4501 -1.0797,-9.4461 -1.3503,-9.72907 -0.1071,-0.11202 -0.9989,0.007 -1.9819,0.26458 -1.7745,0.46491 -1.786,0.4739 -1.6238,1.26199 0.2277,1.10629 1.1177,7.09216 1.3277,8.92969 0.1949,1.70513 0.1088,1.66296 2.7483,1.34602 z m -3.0837,-15.67223 c 0.6868,-0.23337 1.2714,-0.51959 1.2992,-0.63605 0.045,-0.1872 -1.0927,-4.13853 -1.2613,-4.38154 -0.098,-0.14175 -3.79952,1.34358 -3.80313,1.52623 -0.002,0.0862 0.31703,1.08071 0.70833,2.21012 0.7879,2.27462 0.495,2.15184 3.0569,1.28124 z M 765.8407,135.4561 c -0.58208,-0.17978 -1.05786,-0.43518 -1.05729,-0.56757 5.3e-4,-0.13239 0.39654,-1.31227 0.87992,-2.62196 2.12324,-5.75278 3.03516,-11.73161 2.91007,-19.07934 l -0.0869,-5.10228 1.19063,0.15271 c 0.65484,0.084 1.30969,0.26207 1.45521,0.39572 0.14823,0.13614 0.30222,2.12815 0.35018,4.52976 0.0944,4.73027 -0.57469,11.36202 -1.51842,15.04886 -0.76752,2.99845 -2.46617,7.63061 -2.78651,7.5987 -0.15322,-0.0153 -0.75484,-0.17483 -1.33692,-0.3546 z m 10.45104,-19.41933 c 0,-0.99551 -0.1317,-2.78865 -0.29267,-3.98476 -0.16097,-1.19611 -0.2296,-2.23782 -0.15251,-2.31491 0.27492,-0.27492 4.4206,4.13473 5.59726,5.95368 0.65886,1.01848 1.19792,1.92023 1.19792,2.00389 0,0.0837 -1.42875,0.15211 -3.175,0.15211 h -3.175 z"
       id="path81551-7-1" />
    <path
       style="fill:url(#linearGradient119606);fill-opacity:1;stroke-width:0.264583"
       d="m 746.7907,215.83537 c -0.43656,-0.0509 -1.88459,-0.21893 -3.21784,-0.37342 -5.42752,-0.62892 -11.95474,-2.81761 -15.97289,-5.35598 -2.9125,-1.83991 -3.11734,-2.01841 -2.63739,-2.29824 0.21828,-0.12727 0.78577,-0.52148 1.26108,-0.87602 l 0.86421,-0.64462 3.28448,1.40518 c 6.86023,2.93499 11.01011,3.93861 17.47668,4.22662 8.6278,0.38427 17.20697,-1.17646 26.43681,-4.80941 11.83448,-4.65817 22.8706,-12.85706 32.68259,-24.28039 1.40327,-1.63371 6.75407,-8.81065 8.0093,-10.74274 5.41633,-8.3369 10.35723,-19.25715 12.54833,-27.73386 l 0.2271,-0.87867 1.8935,1.33115 1.89338,1.33114 -0.99988,3.11939 c -4.1205,12.85493 -11.44628,25.98778 -20.23673,36.2781 -4.53844,5.31283 -11.08894,11.37423 -17.319,16.02588 -12.2226,9.12595 -28.20407,14.58178 -42.20479,14.40807 -1.75735,-0.0218 -3.55238,-0.0813 -3.98894,-0.13218 z m -34.85827,-12.21266 -6.81243,-2.56448 -5.3e-4,-8.38048 -5.2e-4,-8.3805 3.63802,-0.84072 c 2.00091,-0.46241 5.1786,-1.24218 7.06153,-1.73284 l 3.42351,-0.8921 1.59821,-1.79293 c 3.28597,-3.6863 5.65086,-5.55935 10.15346,-8.04183 10.60744,-5.84834 19.35318,-13.45565 25.97132,-22.59068 1.05426,-1.45521 2.38215,-3.44198 2.95085,-4.41506 l 1.034,-1.76922 1.18871,0.40502 c 1.32553,0.45166 1.36979,0.5542 0.75869,1.7575 -3.8942,7.66785 -13.53101,17.88808 -22.85331,24.23687 -2.0934,1.42568 -4.81541,3.08101 -10.30684,6.26789 -2.42416,1.40683 -5.80423,4.42529 -7.3562,6.56922 -0.53494,0.73898 -1.08995,1.42506 -1.23335,1.52461 -0.1434,0.0996 -1.8142,0.56259 -3.71289,1.02896 -1.8987,0.46637 -3.60082,0.92533 -3.7825,1.0199 -0.18167,0.0946 2.13136,1.17937 5.14009,2.41063 5.13197,2.10019 6.29903,2.73614 5.18146,2.82349 -0.25643,0.0201 -0.79365,0.1616 -1.19383,0.31458 l -0.7276,0.27814 v 6.84616 6.84617 l -1.3405,0.8333 c -0.73727,0.45832 -1.48141,0.82645 -1.65365,0.81809 -0.17223,-0.008 -3.37874,-1.16923 -7.12558,-2.57969 z m 7.43282,-6.25196 c -0.0561,-2.974 -0.17177,-5.4771 -0.25712,-5.56245 -0.20109,-0.20109 -9.44951,-3.75994 -10.37395,-3.99197 l -0.70494,-0.17693 v 5.45832 c 0,5.45314 5.3e-4,5.45858 0.61408,5.73811 1.2734,0.5802 10.11695,3.88961 10.46271,3.91533 0.29733,0.0221 0.34315,-0.92891 0.25922,-5.38041 z m -5.64821,-0.49033 c -0.72802,-0.32158 -1.47216,-0.68101 -1.65365,-0.79874 -0.445,-0.28866 -0.45386,-3.35782 -0.01,-3.35782 0.17616,0 1.0096,0.26728 1.85208,0.59397 l 1.53179,0.59396 v 1.78729 c 0,0.983 -0.0893,1.7825 -0.19843,1.77665 -0.10914,-0.006 -0.79409,-0.27373 -1.52211,-0.59531 z m 124.8754,6.45396 c 0.5678,-1.78889 1.3561,-4.9482 2.2755,-9.11927 3.9791,-18.05196 4.4818,-30.60865 1.5585,-38.93036 -3.5038,-9.97412 -9.9027,-16.30147 -19.16538,-18.95099 -1.1838,-0.33863 -3.0608,-0.58582 -5.1735,-0.68134 -3.59873,-0.16272 -5.90974,0.16433 -9.7268,1.37647 l -1.97779,0.62806 0.89553,-0.93364 c 1.25972,-1.31332 4.52882,-3.9916 6.71063,-5.49781 4.20126,-2.90034 10.43373,-5.4113 14.91113,-6.00742 8.04818,-1.07154 18.69348,4.79371 23.59758,13.00162 1.0535,1.76318 2.9002,6.1395 3.6844,8.73124 l 0.4403,1.45521 1.9286,0.0782 1.9287,0.0782 -0.1896,-1.13658 c -0.2752,-1.64976 -1.7868,-5.9779 -2.8663,-8.20696 -1.5426,-3.18509 -3.576,-6.0173 -6.2428,-8.69505 -3.7997,-3.81533 -7.414,-6.12344 -11.9962,-7.66087 -2.6681,-0.89523 -2.3211,-1.05331 2.7234,-1.24069 6.1562,-0.22866 10.3583,0.60074 15.2136,3.00282 2.4349,1.20463 6.6086,4.11334 8.4197,5.86777 2.0898,2.0245 5.6942,7.68046 5.3005,8.3175 -0.069,0.11157 -0.5431,0.20285 -1.0537,0.20285 -0.7611,0 -0.9029,0.0833 -0.7878,0.46302 1.1262,3.71343 1.1703,10.17098 0.1079,15.77173 l -0.3333,1.75691 h -2.4532 -2.4532 c 0,0 -0.647,-1.52962 -2.0363,-4.51994 0,0 -1.6117,-0.23897 -2.6747,-0.32407 l -1.9329,-0.15471 0.2065,1.90406 0.5344,3.02616 c -0.058,-0.0563 -4.3632,0.0788 -5.7542,0.0282 l -2.5291,-0.092 0.1156,6.67618 c 0.1925,11.11322 -0.5965,16.68256 -4.9887,35.21401 -0.1146,0.48388 -0.4274,1.056 -0.6949,1.27137 -0.4467,0.35963 -0.4345,0.36629 0.1492,0.0816 0.4012,-0.19572 2.9041,-0.36164 6.788,-0.44999 l 6.1525,-0.13996 1.062,-2.27658 c 3.6913,-7.91257 5.8273,-13.61856 7.6019,-20.30661 0.9181,-3.46021 2.4701,-11.34479 2.5172,-12.75203 0.04,-0.74342 -1.3505,-26.5371 -1.3505,-26.5371 l 3.6682,0.75809 c 2.7838,2.81677 3.2604,18.77457 2.3633,28.14713 -0.6875,7.18343 -3.5241,14.38219 -5.8704,20.83764 -1.5551,4.27854 -5.2933,12.72595 -6.5974,14.90842 l -0.836,1.39917 -10.6657,0.0692 c -10.4133,0.0675 -10.6618,0.0572 -10.5044,-0.43885 z m -101.45903,-1.92119 c -0.94589,-0.13149 -3.10112,-0.48288 -4.78941,-0.78085 l -3.06962,-0.54178 -0.17032,-2.95574 c -0.0937,-1.62567 -0.17087,-4.22242 -0.17153,-5.77058 l -0.001,-2.81482 0.85989,-0.15251 c 0.47295,-0.0839 1.51474,-0.22995 2.31511,-0.3246 3.28855,-0.3889 12.8165,-2.62394 17.03836,-3.99682 12.81008,-4.16562 21.11957,-9.19396 30.18831,-18.26795 5.09638,-5.09932 8.56376,-9.58213 10.74805,-13.89566 0.42372,-0.83674 0.87236,-1.52135 0.99699,-1.52135 0.12462,0 1.09337,0.38285 2.15278,0.85078 l 1.92619,0.85078 0.41635,-0.65234 c 0.72659,-1.13842 4.07474,-4.49427 5.72151,-5.73466 1.76229,-1.32741 4.71015,-2.87652 7.16839,-3.76703 l 1.61214,-0.58401 1.59843,1.67396 c 0.87913,0.92068 1.92404,2.06523 2.32202,2.54342 l 0.7236,0.86945 -0.86424,2.04098 c -5.00351,11.81625 -12.17121,22.6675 -20.20735,30.59207 -11.02191,10.86891 -23.18155,17.67204 -36.9405,20.66766 -2.98792,0.65053 -6.56479,1.72635 -9.92873,2.04659 -2.5204,0.23994 -5.06962,0.0821 -7.5947,-0.1022 -0.6877,-0.0502 -1.10463,-0.1413 -2.05052,-0.27279 z m 41.22651,-17.34936 c 5.71338,-4.23591 11.71236,-9.80582 15.7173,-14.59312 1.04867,-1.25354 2.41703,-2.8396 3.0408,-3.52459 1.19003,-1.3068 1.47493,-2.5182 0.86171,-3.66401 -0.34094,-0.63705 -1.60931,-1.30825 -2.47221,-1.30825 -0.91244,0 -2.22262,1.39006 -2.44115,2.58998 -0.46804,2.56987 -12.5774,14.36821 -17.76682,17.31046 -0.76398,0.43316 -1.38918,0.86549 -1.38934,0.96074 -5.2e-4,0.31521 2.77164,2.91649 3.12679,2.93407 0.19161,0.009 0.78692,-0.30789 1.32292,-0.70528 z m -51.40101,-1.33716 c 2.54534,-2.46177 4.59103,-3.9203 10.07038,-7.18 7.69712,-4.57904 12.29018,-8.22553 18.89686,-15.00244 5.91075,-6.06304 10.14848,-11.91987 13.60014,-18.79632 2.3885,-4.7584 4.04509,-9.58374 5.23027,-15.23486 l 0.87372,-4.16603 2.57463,-0.001 2.57463,-10e-4 -0.14351,1.25677 c -0.47557,4.16484 -1.5912,9.30535 -2.72754,12.5677 -0.29145,0.83675 -0.49097,1.52137 -0.44337,1.52137 0.0476,0 0.86209,0.29192 1.80998,0.64869 l 1.72345,0.64871 0.82517,-2.30234 c 1.125,-3.13893 2.0799,-7.49996 2.46076,-11.23834 l 0.31736,-3.11516 4.21745,0.0725 4.21744,0.0724 -0.0451,2.51354 c -0.10103,5.63359 -1.59451,13.47873 -3.45026,18.12397 -1.91627,4.7967 -5.37967,10.60443 -8.98582,15.06819 -2.04125,2.5267 -6.52381,6.9772 -9.69464,9.62532 -8.88891,7.42358 -22.10244,13.03464 -37.16711,15.78286 -1.96453,0.35838 -4.70296,0.89148 -6.08541,1.18465 -1.38245,0.29318 -2.69214,0.5305 -2.91042,0.52737 -0.21828,-0.003 0.79913,-1.16242 2.26092,-2.57621 z m 31.11258,-13.59885 c 2.01947,-1.32703 9.99611,-9.23486 12.49508,-12.3873 2.52098,-3.18021 5.42593,-7.60182 7.12696,-10.84791 2.08727,-3.98317 2.08599,-3.72906 0.0224,-4.44925 -0.96008,-0.33507 -1.77868,-0.5724 -1.8191,-0.52738 -0.0404,0.045 -0.66997,1.27247 -1.39899,2.72767 -1.38903,2.77266 -3.78864,6.57383 -5.84593,9.26041 -2.88817,3.77162 -10.03382,11.11826 -13.52686,13.90736 -0.94588,0.75526 -1.75722,1.4704 -1.80296,1.5892 -0.0756,0.19647 2.50154,1.82533 2.89729,1.83117 0.0926,0.001 0.92599,-0.49542 1.85208,-1.10397 z m -38.53287,-12.63396 c -1.01865,-0.2547 -3.28084,-0.7887 -5.02709,-1.18668 -1.74625,-0.39797 -4.1204,-0.95265 -5.27589,-1.23261 -1.15549,-0.27998 -2.31635,-0.50904 -2.57969,-0.50904 -0.26333,0 -0.47879,-0.12106 -0.47879,-0.26903 0,-0.44559 2.6641,-11.4488 2.96093,-12.22917 0.15152,-0.39833 0.37363,-0.66358 0.49359,-0.58945 0.51236,0.31666 7.77397,2.25184 8.05097,2.14554 0.16752,-0.0643 0.45725,-0.7991 0.64386,-1.63293 0.35647,-1.59292 0.21429,-1.95691 -0.77227,-1.97705 -1.06511,-0.0217 -1.11727,-0.37 -0.41711,-2.78511 0.37231,-1.28422 0.64823,-2.36134 0.61317,-2.39362 -0.13256,-0.12199 -2.95202,-0.90668 -3.2578,-0.90668 -0.17691,0 -0.58174,0.97558 -0.90579,2.18281 -0.32225,1.20055 -0.61847,2.21794 -0.65826,2.26087 -0.0398,0.0429 -0.6226,-0.0605 -1.29515,-0.22984 -0.83394,-0.20999 -1.22281,-0.44638 -1.22281,-0.74334 0,-0.74537 2.25887,-7.74171 3.56482,-11.04123 4.90563,-12.3942 12.53108,-22.78655 20.70164,-28.21328 3.12373,-2.07471 4.9254,-2.99555 8.39813,-4.29232 3.75699,-1.40291 5.88742,-1.89288 9.80104,-2.25412 5.86073,-0.54095 12.34628,0.26696 17.25673,2.14969 5.66765,2.17306 11.65369,6.53671 14.83188,10.81201 0.37862,0.50932 1.14388,1.53488 1.70057,2.279 1.02375,1.36844 3.13847,5.24371 3.51584,6.44284 0.17409,0.55321 -0.007,0.46165 -1.19176,-0.60393 -6.26359,-5.6315 -14.69711,-8.46521 -23.94243,-8.04478 -11.17757,0.50829 -20.87778,5.7493 -27.76234,14.99993 -5.25994,7.06768 -7.80116,12.89581 -12.20475,27.99085 -2.63426,9.02998 -3.07841,10.38414 -3.39727,10.35783 -0.16054,-0.0132 -1.12533,-0.23246 -2.14397,-0.48716 z m 0.39488,-28.39448 c 0.65688,-1.86034 2.98885,-7.05781 3.89996,-8.69221 0.10377,-0.18615 -2.47337,-1.29581 -3.00947,-1.29581 -0.70734,0 -5.49673,10.8158 -5.01145,11.31727 0.15441,0.15959 2.55026,1.00518 3.09456,1.09221 0.0892,0.0143 0.55111,-1.07539 1.0264,-2.42146 z m 7.93938,-14.81666 c 4.31439,-5.80364 10.15234,-10.8524 15.81764,-13.67937 2.14486,-1.07029 7.31299,-2.91993 8.17917,-2.92729 1.1308,-0.01 1.1988,-0.39329 0.32022,-1.80664 -0.46646,-0.75037 -0.97913,-1.364 -1.13928,-1.36364 -0.67614,0.002 -5.39778,1.38925 -7.26456,2.13506 -8.33487,3.32995 -15.67394,9.94487 -21.03696,18.96123 -0.13124,0.22063 0.26206,0.54068 1.20787,0.98293 0.77136,0.36067 1.47012,0.65993 1.55281,0.66503 0.0827,0.005 1.14607,-1.3302 2.36309,-2.96731 z m 72.78598,23.61406 c 0.007,-0.3638 0.10323,-1.29455 0.2133,-2.06834 0.33231,-2.33626 -0.78115,-8.38417 -2.45052,-13.3103 -1.5899,-4.6916 -1.55489,-3.73428 -0.43417,-11.87344 1.71031,-12.42107 1.34743,-23.77027 -1.06858,-33.42018 -1.1115,-4.43955 -0.90023,-4.20725 -3.22476,-3.54564 -1.05835,0.30124 -1.9709,0.58302 -2.0279,0.6262 -0.057,0.0432 0.26467,1.24233 0.71483,2.66479 0.91722,2.89829 1.75159,7.30783 2.1593,11.41171 0.52353,5.26965 0.22022,14.16507 -0.65888,19.32391 -0.34228,2.0086 -0.65641,3.04079 -0.65641,2.15692 0,-0.18773 -0.52016,-1.19811 -1.15592,-2.24529 -1.11237,-1.83222 -1.14695,-1.95314 -0.91765,-3.20851 0.13106,-0.7175 0.30853,-4.45969 0.39439,-8.316 0.17388,-7.81036 -0.0425,-10.1447 -1.49012,-16.07276 -1.22262,-5.00681 -3.4773,-9.836029 -5.79769,-14.419489 l 3.11221,-0.04054 c 1.02129,1.63459 1.70601,2.89376 2.18573,3.87603 0.47972,0.98227 0.95713,1.78594 1.06092,1.78594 0.87249,0 11.33938,-3.20941 11.33938,-3.47694 0,-0.0978 -0.34907,-0.95593 -0.77572,-1.90684 l -0.77572,-1.72895 -3.3835,1.30741 c -1.86092,0.71907 -3.52716,1.3074 -3.70277,1.3074 -0.17561,0 -0.70532,-0.68461 -1.17714,-1.52135 l -1.14815,-1.568935 c 11.58342,-3.38491 18.66226,-10.804047 24.94331,-18.751355 0,0 1.4269,1.043013 3.43139,4.23009 2.69164,3.71735 6.28134,9.7376 9.52834,19.33134 3.34568,9.8852 4.33468,16.5467 4.36018,29.36875 0.017,8.703469 -0.3309,13.053699 -1.5623,19.513019 l -0.69348,3.63802 h -1.5859 c -1.4067,0 -1.5644,-0.0523 -1.3952,-0.46302 0.3621,-0.87884 0.8567,-3.11553 1.1555,-5.22552 0.1648,-1.16417 0.5058,-3.48589 0.7578,-5.15938 2.86958,-19.872829 -1.1529,-18.542269 -1.1529,-18.542269 l -2.7501,0.0215 h -1.8487 v 3.43958 3.43958 l 3.8191,0.0644 c 0.052,0.53383 0.1143,2.607549 0.021,3.923099 l -1.6372,-0.14619 c -0.9729,-0.0869 -1.9128,-0.24548 -2.0923,-0.31437 -0.2333,-0.0895 -0.3765,0.46517 -0.5021,1.94423 -0.097,1.13821 -0.2782,2.9606 -0.4033,4.04974 -0.1252,1.08914 -0.1977,2.0101 -0.1613,2.04656 0.037,0.0365 0.9855,0.20922 2.109,0.38388 1.9875,0.30898 2.0393,0.33591 1.9172,0.99614 -0.069,0.37322 -0.1968,1.22242 -0.2839,1.88712 l -0.1582,1.20855 -2.0416,-0.32241 c -1.1228,-0.17733 -2.0675,-0.29829 -2.0993,-0.26881 -0.1332,0.12355 -1.1141,5.55709 -1.0202,5.65103 0.057,0.0565 0.8878,0.23723 1.8472,0.40157 0.9593,0.16434 1.7443,0.39368 1.7443,0.50964 l 1.323,0.56506 c 1.4151,0.5949 0.846,0.0324 -3.0428,1.35784 -2.0372,0.69437 -4.14585,1.48619 -4.68576,1.7596 l -3.35253,1.82221 c -1.09807,0.70857 -1.62921,0.93536 -1.5192,0.64869 0.3651,-0.95144 1.83126,-8.24129 2.52554,-12.55712 1.07094,-6.65729 1.21143,-8.70682 1.19701,-17.462499 -0.016,-9.7098 -0.29168,-12.61444 -1.87087,-19.71145 -1.01646,-4.56806 -2.92709,-10.62655 -4.42361,-14.02705 -0.51334,-1.16644 -1.05609,-2.44365 -1.20611,-2.83824 l -0.27277,-0.71744 -1.66249,0.97084 c -0.91437,0.53396 -1.70975,1.00515 -1.76751,1.04708 -0.0578,0.0419 0.28089,0.9956 0.75256,2.11925 2.07026,4.93197 3.67874,10.26499 4.73924,15.71328 2.51568,12.92415 1.90196,28.783869 -1.71934,44.431229 -1.45944,6.30613 -1.77296,7.16514 -2.89095,7.92093 -0.52467,0.35469 -1.74745,1.53962 -2.7173,2.63317 -3.78894,4.27225 -4.00157,4.47136 -3.98686,3.7334 z m 4.08368,-16.42197 c 0.16399,-0.64505 0.37378,-1.55312 0.4662,-2.01793 0.19197,-0.96555 0.11987,-1.00729 -2.21164,-1.28026 l -1.47276,-0.17242 -0.5374,2.01388 -0.53739,2.01388 0.55495,0.11869 c 2.0756,0.4439 2.96846,0.59824 3.18803,0.55108 0.13851,-0.0297 0.38602,-0.58186 0.55001,-1.22692 z m 1.18253,-33.00421 0.92605,-0.18319 -0.22709,-1.9496 -0.22708,-1.94959 -1.88959,0.17693 c -2.76862,0.25923 -2.90057,0.32096 -2.71107,1.26842 0.088,0.44011 0.16003,1.26156 0.16003,1.82545 v 1.02526 l 1.52136,-0.0152 c 0.83674,-0.008 1.93807,-0.0977 2.44739,-0.19844 z m 20.33959,-0.7554 0.939,-0.0742 -0.059,-1.99905 c -0.072,-2.4501 -1.0797,-9.4461 -1.3503,-9.72907 -0.1071,-0.11202 -0.9989,0.007 -1.9819,0.26458 -1.7745,0.46491 -1.786,0.4739 -1.6238,1.26199 0.2277,1.10629 1.1177,7.09216 1.3277,8.92969 0.1949,1.70513 0.1088,1.66296 2.7483,1.34602 z m -3.0837,-15.67223 c 0.6868,-0.23337 1.2714,-0.51959 1.2992,-0.63605 0.045,-0.1872 -1.0927,-4.13853 -1.2613,-4.38154 -0.098,-0.14175 -3.79952,1.34358 -3.80313,1.52623 -0.002,0.0862 0.31703,1.08071 0.70833,2.21012 0.7879,2.27462 0.495,2.15184 3.0569,1.28124 z M 765.8407,135.4561 c -0.58208,-0.17978 -1.05786,-0.43518 -1.05729,-0.56757 5.3e-4,-0.13239 0.39654,-1.31227 0.87992,-2.62196 2.12324,-5.75278 3.03516,-11.73161 2.91007,-19.07934 l -0.0869,-5.10228 1.19063,0.15271 c 0.65484,0.084 1.30969,0.26207 1.45521,0.39572 0.14823,0.13614 0.30222,2.12815 0.35018,4.52976 0.0944,4.73027 -0.57469,11.36202 -1.51842,15.04886 -0.76752,2.99845 -2.46617,7.63061 -2.78651,7.5987 -0.15322,-0.0153 -0.75484,-0.17483 -1.33692,-0.3546 z m 10.45104,-19.41933 c 0,-0.99551 -0.1317,-2.78865 -0.29267,-3.98476 -0.16097,-1.19611 -0.2296,-2.23782 -0.15251,-2.31491 0.27492,-0.27492 4.4206,4.13473 5.59726,5.95368 0.65886,1.01848 1.19792,1.92023 1.19792,2.00389 0,0.0837 -1.42875,0.15211 -3.175,0.15211 h -3.175 z"
       id="path81551-7-1-3" />
  </g>
</svg>
