<?xml version="1.0" encoding="UTF-8" standalone="no"?>
<!-- Created with Inkscape (http://www.inkscape.org/) -->

<svg
   width="163.92644mm"
   height="179.0632mm"
   viewBox="0 0 163.92644 179.0632"
   version="1.1"
   id="svg33145"
   xmlns="http://www.w3.org/2000/svg"
    >
  <defs
     id="defs33142" />
  <g
     id="layer1"
     transform="translate(-23.173194,-15.333514)">
    <path
       style="color:#000000;fill:#99194a;fill-opacity:1;stroke-width:0.174126;-inkscape-stroke:none"
       d="M 94.177501,72.539942 128.45891,94.60723 74.578007,169.35008 67.244503,144.60826 40.296591,147.28279 Z"
       id="rect16828-4-7-8-4-4" />
    <path
       style="color:#000000;fill:#99194a;fill-opacity:1;stroke-width:0.174126;-inkscape-stroke:none"
       d="m 118.59243,71.917946 -34.281404,22.067288 53.880904,74.742846 7.3335,-24.74182 26.94791,2.67453 z"
       id="rect16828-4-7-8-4-2-7" />
    <path
       style="color:#000000;fill:#99194a;fill-opacity:1;stroke-width:0.174126;-inkscape-stroke:none"
       d="m 88.119279,96.961199 40.210871,-2.911917 -1.82581,93.422758 -19.83132,-15.63275 -20.379573,18.54467 z"
       id="rect16828-4-7-8-49" />
    <path
       style="color:#000000;fill:#c13c70;fill-opacity:1;stroke-width:0.174126;-inkscape-stroke:none"
       d="M 89.628672,66.146111 123.91008,88.213399 70.029165,162.95624 62.695661,138.21443 35.747762,140.88895 Z"
       id="rect16828-5-4" />
    <path
       style="color:#000000;fill:#c13c70;fill-opacity:1;stroke-width:0.174126;-inkscape-stroke:none"
       d="m 88.4197,90.137064 40.21089,-2.911915 -1.82584,93.422761 -19.8313,-15.63274 -20.379588,18.54466 z"
       id="rect16828-2" />
    <path
       style="color:#000000;fill:#c13c70;fill-opacity:1;stroke-width:0.174126;-inkscape-stroke:none"
       d="m 122.4318,64.469872 -34.28141,22.067302 53.88092,74.742836 7.3335,-24.74181 26.9479,2.67452 z"
       id="rect16828-5-5-4" />
    <path
       style="fill:#99194a;fill-opacity:1"
       id="path16306-1-0-3"
       transform="matrix(0.09067993,0,0,0.10210531,277.53887,109.37085)"
       d="m -1518.2312,6.281801 -11.2855,105.787429 -106.3264,3.60848 -43.4233,97.12243 -102.2375,-29.42482 -71.3104,78.95041 -88.141,-59.57782 -92.2172,53.05018 -65.4165,-83.89892 -104.0972,21.95701 -36.2886,-100.007406 -105.7874,-11.285447 -3.6085,-106.326481 -97.1224,-43.423211 29.4248,-102.237575 -78.9504,-71.31041 59.5778,-88.14094 -53.0501,-92.21725 83.8989,-65.41646 -21.957,-104.09722 100.0074,-36.28856 11.2854,-105.78742 106.3265,-3.60849 43.4232,-97.12243 102.2376,29.42482 71.3104,-78.9504 88.1409,59.57781 92.2173,-53.05017 65.4164,83.89892 104.0973,-21.95702 36.2885,100.00741 105.7874,11.28545 3.6085,106.32648 97.1225,43.42321 -29.4249,102.23757 78.9504,71.31041 -59.5778,88.14095 53.0502,92.21724 -83.8989,65.41646 21.957,104.09722 z" />
    <path
       style="fill:#c13c70;fill-opacity:1"
       id="path16306-3-0"
       transform="matrix(0.09067993,0,0,0.09567194,277.53887,103.69057)"
       d="m -1518.2312,6.281801 -11.2855,105.787429 -106.3264,3.60848 -43.4233,97.12243 -102.2375,-29.42482 -71.3104,78.95041 -88.141,-59.57782 -92.2172,53.05018 -65.4165,-83.89892 -104.0972,21.95701 -36.2886,-100.007406 -105.7874,-11.285447 -3.6085,-106.326481 -97.1224,-43.423211 29.4248,-102.237575 -78.9504,-71.31041 59.5778,-88.14094 -53.0501,-92.21725 83.8989,-65.41646 -21.957,-104.09722 100.0074,-36.28856 11.2854,-105.78742 106.3265,-3.60849 43.4232,-97.12243 102.2376,29.42482 71.3104,-78.9504 88.1409,59.57781 92.2173,-53.05017 65.4164,83.89892 104.0973,-21.95702 36.2885,100.00741 105.7874,11.28545 3.6085,106.32648 97.1225,43.42321 -29.4249,102.23757 78.9504,71.31041 -59.5778,88.14095 53.0502,92.21724 -83.8989,65.41646 21.957,104.09722 z" />
    <ellipse
       style="fill:#99194a;fill-opacity:1;stroke-width:0.188949"
       id="path16679-6-7"
       cx="103.73415"
       cy="73.363953"
       rx="41.74049"
       ry="43.443848" />
    <ellipse
       style="fill:#c13c70;fill-opacity:1;stroke-width:0.15973"
       id="path16679-9-1-8"
       cx="104.58782"
       cy="73.050697"
       rx="35.803242"
       ry="36.194775" />
    <path
       id="path783-1-8"
       style="fill:none;stroke-width:0.196616"
       d="m 46.470369,20.863942 v 59.128866 59.128572 h 34.644489 c -0.155175,-0.10396 -0.312015,-0.20641 -0.457578,-0.32052 -0.166078,0.0175 -0.331949,0.0353 -0.498903,0.0454 -0.389761,0.0236 -0.194384,-0.0926 0.246764,-0.24687 -0.505882,-0.4488 -0.841192,-0.94599 -0.733211,-1.41019 -0.111399,-0.002 -0.222806,-5.6e-4 -0.334199,-0.003 -1.812175,-0.0319 -3.611662,-0.3199 -5.417431,-0.47977 -0.147086,-0.24925 -0.396683,-0.51929 -0.664445,-0.79301 -0.23127,0.0107 -0.462694,0.0173 -0.695002,0.0105 -0.357423,-0.0106 -0.08758,-0.15608 0.369002,-0.34178 -0.107349,-0.10914 -0.211156,-0.21745 -0.308732,-0.3246 -7.928982,0.1166 -15.956501,0.18682 -17.213296,0.0268 -0.263189,-0.0335 -0.433285,-0.20015 -0.554361,-0.43726 -0.05045,0.0122 -0.05806,0.014 -0.1098,0.0265 0.02703,-0.0301 0.05135,-0.0661 0.07697,-0.0993 -0.234398,-0.52403 -0.272826,-1.32907 -0.513611,-1.84396 5.235601,-1.23043 4.392854,-1.14158 9.169508,-1.42824 0.0077,-0.0103 0.01787,-0.0209 0.026,-0.0314 -0.83954,-0.0102 -1.679094,-0.0178 -2.51855,-0.0346 -1.644911,-0.0332 -3.422194,0.34798 -4.924476,-0.34207 -0.300352,-0.13797 -0.651801,-0.39693 -0.970351,-0.70015 -0.111839,0.001 -0.223884,-3e-4 -0.33618,-0.006 -0.263002,-0.0128 -0.185288,-0.1397 0.04328,-0.3016 -0.508037,-0.58681 -0.811182,-1.26258 -0.372685,-1.66375 1.382257,-1.26458 3.600791,-0.81583 5.463548,-0.98427 2.300427,-0.41717 3.538754,-0.63648 4.857412,-0.74382 -0.216362,-0.25181 -0.265588,-0.52385 -0.02748,-0.81048 0.164277,-0.19773 0.353087,-0.34647 0.559166,-0.46055 -0.288218,-0.13963 -0.561869,-0.3075 -0.814704,-0.51179 -0.595053,-0.4808 -0.662104,-1.82205 -0.184785,-2.47394 -0.887561,0.0113 -1.774973,0.0138 -2.662585,0.002 -1.407017,-0.0191 -3.001701,0.31175 -4.198909,-0.44891 -0.555774,-0.35312 -0.247926,-1.78879 0.37891,-1.97787 2.128293,-0.64196 4.434972,-0.0953 6.65237,-0.14294 1.843778,-0.0223 0.389748,-0.004 1.803454,-0.0215 -0.386265,-0.13756 -0.752312,-0.31955 -1.086376,-0.56478 -0.538892,-0.39559 0.05045,-1.712 0.68114,-1.91907 0.815988,-0.26792 1.657277,-0.41338 2.509783,-0.50305 -0.213975,-0.16826 -0.404398,-0.3567 -0.559741,-0.5735 -0.0872,-0.12171 -0.09894,-0.26492 -0.06199,-0.4134 -0.951857,-0.0716 -1.258279,-0.25943 0.40014,-0.70013 -1.789223,-0.0271 -3.272817,-0.19245 -5.070768,-0.81282 -0.618657,0.0388 -1.236997,0.0815 -1.854674,0.13246 -0.409732,0.0338 -1.598303,0.39448 -1.203814,0.27569 0.738966,-0.22251 1.472499,-0.47765 2.206987,-0.72779 -0.786217,-0.31592 -1.639382,-0.71347 -2.609391,-1.22271 -0.45736,-0.24011 0.997657,-0.27382 1.509436,-0.31675 4.969683,-0.41708 8.575726,-0.31818 13.555176,-0.30247 -0.07145,-0.2386 -0.169071,-0.47509 -0.22469,-0.70335 -0.07618,-0.31265 -0.14528,-0.6275 -0.199506,-0.94497 -0.05109,-0.29906 -0.07727,-0.60175 -0.116018,-0.90276 -0.07304,-0.43741 -0.13881,-0.87647 -0.218188,-1.31266 -0.07304,-0.17319 -0.131191,-0.35602 -0.170922,-0.54091 -0.08956,0.0485 -0.156065,0.0783 -0.11687,0.0221 0.03251,-0.0465 0.06335,-0.0977 0.09508,-0.14586 -0.02013,-0.11471 -0.03341,-0.22713 -0.0407,-0.33798 -0.221103,-0.32897 -0.436058,-0.77997 -0.668973,-1.40728 -0.06571,-0.17701 0.08308,-0.24699 0.341573,-0.26056 -0.447722,-2.2805 -0.810744,-4.59035 -0.843863,-6.916147 -0.042,-1.279555 -0.433871,-2.192472 1.054961,-2.738282 0.01168,-0.16747 0.02032,-0.35431 0.0019,-0.434644 -0.118528,-0.51992 -0.310641,-1.034134 -0.241391,-1.581944 -6e-6,-0.71134 -6.5e-5,-1.422572 0,-2.133918 -1.03e-4,-0.582321 -5.48e-4,-1.164689 5.48e-4,-1.747004 2.91e-4,-0.172237 -5.48e-4,-0.344514 -0.0019,-0.516744 -0.198054,-0.38404 -0.173089,-0.751295 0.0045,-1.005243 4.5e-5,-0.0034 2.83e-4,-0.0081 2.83e-4,-0.01222 -0.0032,-0.01282 -0.0088,-0.02491 -0.01187,-0.03787 -0.07688,-0.328421 -0.03561,-0.388579 0.01606,-0.710621 0.02445,-0.0662 0.05045,-0.09282 0.07499,-0.141782 -0.0058,-0.0074 -0.01226,-0.01437 -0.01787,-0.02209 -0.0058,-0.0081 0.0039,0.0034 0.01896,0.01947 0.05387,-0.106714 0.116587,-0.180307 0.183373,-0.215724 0.02226,-0.147992 0.07066,-0.348059 0.145176,-0.620081 0.012,-0.04371 0.08274,-0.01786 0.164691,0.03028 0.02284,-0.004 0.05754,-0.004 0.109225,-0.0034 -0.008,-0.06593 -0.01445,-0.132221 -0.01864,-0.198549 -0.0019,-0.02907 0.05554,-0.01168 0.08376,-0.0145 0.04045,-0.0034 0.09698,-0.0097 0.156208,-0.01021 0.05573,-4.5e-4 0.113619,0.0034 0.162155,0.01779 0.08867,-0.0054 0.169419,-0.002 0.24252,0.0096 0.0013,-2.95e-4 0.0019,-0.0093 0.0032,-0.0093 0.541981,0 2.415401,0.667953 4.296807,1.532172 5.493254,2.523316 20.943434,9.2549 21.936285,9.557478 1.49448,0.455458 4.05871,0.460158 5.69646,0.01047 0.693,-0.190271 2.17586,-0.733966 3.29533,-1.208143 5.31421,-2.250979 16.64537,-7.201524 18.90016,-8.257338 2.33403,-1.092922 4.2745,-1.797017 4.44397,-1.61252 6e-5,7.4e-5 1.4e-4,0.01793 2.8e-4,0.01799 0.13669,-0.07442 0.27332,-0.148939 0.41005,-0.223285 -0.0163,-0.0096 -0.0348,-0.0145 -0.0506,-0.02538 -0.0869,-0.05929 0.0961,-0.09696 0.26288,-0.09024 0.0466,-0.02531 0.0932,-0.05076 0.13979,-0.07598 -0.0928,-0.01524 -0.19049,-0.02283 -0.27336,-0.06023 -0.0224,-0.01014 -0.0102,-0.01504 0.0196,-0.01571 0.0891,-0.0027 0.33464,0.03196 0.26967,0.06725 -0.006,0.0034 -0.0106,0.006 -0.0159,0.0088 0.0871,0.0143 0.16973,0.03538 0.23007,0.09694 0.0774,0.0789 0.13347,0.174808 0.1845,0.274822 0.0318,0.02323 0.0754,0.05197 0.10441,0.07423 0.01,0.0034 0.0197,0.0034 0.0292,0.007 0.002,0.004 0.007,0.01504 0.009,0.02008 0.32941,0.258996 0.46389,0.467771 0.44711,0.822411 0.4662,0.500187 0.41251,0.809674 0.32344,1.402033 0.007,0.0013 0.0164,0.0054 0.0215,0.0034 -0.01,0.03793 -0.0186,0.06885 -0.0301,0.113824 0.0632,0.122237 0.15912,0.235504 0.18592,0.368846 0.0181,0.0421 0.0281,0.0835 0.0413,0.125191 0.26188,0.689123 0.13257,1.662433 0.0569,2.301878 -0.0184,0.118538 -0.0607,0.235565 -0.0552,0.355458 0.008,0.166282 0.12919,0.308064 0.16073,0.471324 0.10182,0.526842 0.1189,0.995487 0.0948,1.525767 -0.0784,0.595991 -0.0366,1.200523 -0.0288,1.799999 0.002,0.375204 0.0114,0.541405 -0.24591,0.713535 0.15198,0.253437 0.30591,0.611655 0.46748,1.093157 0.0579,0.172646 -0.19908,0.303686 -0.31609,0.441049 -0.0368,0.04317 -0.0701,0.07569 -0.10612,0.116739 -0.22073,1.056874 -0.5092,1.764756 -0.97713,2.821536 -0.14568,0.32898 -0.31658,0.64601 -0.4675,0.97234 -0.0679,0.30158 -0.15019,0.6208 -0.23147,0.92723 -0.011,0.17883 -0.0304,0.34286 -0.0639,0.47539 0.25975,-0.10353 0.69306,0.009 1.62772,0.338 0.17898,0.063 0.0839,0.38168 0.092,0.57613 0.0133,0.31907 -0.0236,0.63845 -0.0281,0.95779 -0.007,0.48193 -0.004,0.964 -0.006,1.44599 0.021,0.45319 0.068,1.64461 0.12338,2.0719 0.0155,0.11907 0.10798,0.25997 0.1579,0.38341 5.5e-4,0.002 0.001,0.003 0.002,0.005 0.0349,0.0884 0.0503,0.16898 -0.0181,0.21921 -1.26239,0.92711 -1.58574,1.09043 -1.80317,0.73304 0.0243,0.46906 0.0444,0.93833 0.0595,1.40786 0.54105,-0.0579 0.93363,-0.10297 1.58867,-0.17118 0.95503,-0.0995 2.24319,-0.99357 2.86973,-0.24541 0.11736,0.14013 0.16387,0.30529 0.16244,0.48209 0.90584,-0.188 2.07818,-0.96275 2.56665,-0.23144 0.23349,0.34957 0.12392,0.77767 -0.12706,1.18923 0.28145,0.22456 0.43673,0.49247 0.31044,0.79592 -0.21319,0.51222 -0.81267,0.4802 -1.45426,0.38865 -0.0216,0.0153 -0.0451,0.0348 -0.0662,0.0492 -0.30704,0.20891 -0.65235,0.32352 -1.0145,0.39563 -0.0757,0.0699 -0.15699,0.12881 -0.24337,0.1773 0.2528,-0.0195 0.66288,-0.0507 0.93583,-0.0716 1.72913,-0.17901 3.69886,-0.3811 5.63335,-0.56769 0.7782,-0.20051 1.56135,-0.42242 2.24716,-0.20786 1.91144,-0.1693 3.43172,-0.27979 3.7583,-0.22824 0.17571,0.0277 0.30939,0.11767 0.41797,0.24512 0.006,-0.003 0.007,-0.003 0.0125,-0.005 -0.002,0.004 -0.003,0.009 -0.005,0.0137 0.36043,0.43368 0.42578,1.30592 0.71792,1.84104 -2.7543,1.10988 -3.44457,1.44455 -5.13049,1.86114 -0.006,0.12818 -0.20925,0.14152 -0.48418,0.11266 -0.45136,0.10498 -1.15327,0.25473 -1.79298,0.38952 0.1459,0.30054 0.23422,0.6475 0.2196,0.93857 0.0479,-0.002 0.0882,-0.003 0.13639,-0.005 0.7752,-0.0249 2.90081,-0.48835 2.32612,0.0474 -0.65355,0.60932 -1.33455,1.11183 -2.03747,1.53333 0.58626,0.12796 1.21685,0.27176 1.99729,0.46055 0.10647,0.0257 0.13282,0.0397 0.12479,0.0492 0.0199,0.003 0.0396,0.008 0.0595,0.011 0.24616,-0.0377 0.49204,-0.0773 0.73803,-0.11615 1.05766,-0.25094 2.11607,-0.49882 3.17705,-0.7345 0.56652,-0.12586 -1.09953,0.39649 -1.67159,0.49228 -0.50126,0.0839 -1.00344,0.16297 -1.50546,0.24222 -0.19971,0.0473 -0.39944,0.0944 -0.59909,0.14206 1.45571,0.26071 2.89973,0.56763 4.29994,1.04367 0.63396,0.21553 -1.27215,0.4367 -1.93108,0.54759 -0.004,5.7e-4 -0.008,10e-4 -0.0116,0.002 0.16465,0.0128 0.32926,0.0247 0.4938,0.0416 0.0994,0.0102 0.20456,0.0332 0.31157,0.0635 0.52959,-0.23833 1.01978,-0.38051 1.32436,0.0157 0.0693,0.0902 0.10271,0.18752 0.11008,0.2888 0.36628,-0.0818 0.73222,-0.16578 1.09882,-0.246 0.91902,-0.2011 3.19691,-1.27481 2.79135,-0.40291 -0.31338,0.67374 -0.84498,1.16701 -1.4534,1.5968 0.58894,0.0584 1.16712,0.1639 1.71998,0.37845 0.82416,0.31984 -1.7566,0.18103 -2.61817,0.36972 -0.15456,0.0339 -0.30874,0.0695 -0.46324,0.10364 -0.47042,0.27864 -0.93384,0.56326 -1.34333,0.89229 -0.83277,0.22386 -1.66224,0.46105 -2.49279,0.69431 0.13256,0.008 0.23277,0.0159 0.26997,0.0244 0.15421,0.0353 0.27008,0.11875 0.36221,0.23261 0.1222,-0.0202 0.15124,-0.0251 0.27959,-0.0463 -0.0515,0.0909 -0.0943,0.19502 -0.13413,0.30335 0.20703,0.47906 0.23091,1.18999 0.44032,1.66608 -0.69381,0.11387 -0.97971,0.16098 -1.5134,0.24949 -0.14545,0.51292 -1.15216,0.73619 -2.65268,0.78078 -0.0262,0.38149 -0.0577,0.66127 -0.11885,0.85793 1.45119,-0.17241 2.91008,-0.47341 4.32653,-0.17845 0.1393,0.029 0.29915,0.0649 0.46578,0.1048 0.87979,-0.31738 1.73237,-0.51727 2.41979,-0.0105 0.35293,0.26019 0.18447,0.5511 -0.22271,0.82854 0.48143,0.30953 0.75008,0.68891 0.51305,1.14322 -0.73813,1.41476 -3.08664,0.48008 -4.62988,0.72023 -1.50477,0.16934 -3.00844,0.349 -4.51245,0.52606 0.0919,0.0971 0.17706,0.20335 0.25582,0.31849 0.25913,0.0479 0.52253,0.0984 0.79489,0.15574 0.0908,-0.012 0.18174,-0.0228 0.27252,-0.0349 0.7199,-0.21961 1.27106,-0.38345 0.82942,-0.21717 -0.13717,0.0516 -0.2737,0.10799 -0.41061,0.16128 0.6897,-0.0931 1.37937,-0.18634 2.06946,-0.2757 0.39441,-0.1212 0.78928,-0.23931 1.18655,-0.34731 0.27849,-0.0757 -0.54272,0.19836 -0.81414,0.29753 -0.12423,0.0157 -0.24822,0.0337 -0.37241,0.0498 -0.60651,0.18639 -1.21123,0.38147 -1.81562,0.57729 0.84263,0.19902 1.77333,0.44647 2.80351,0.73857 0.0753,-0.0298 0.14996,-0.0612 0.22526,-0.0908 0.12244,-0.0483 0.0135,0.0213 -0.15678,0.11033 0.24502,0.0697 0.48104,0.13545 0.73916,0.21077 0.39905,0.11645 -0.79138,0.25583 -1.18712,0.3837 -0.43259,0.0545 -0.86469,0.1144 -1.29691,0.17234 0.91009,0.24976 1.80544,0.53802 2.64844,0.96303 0.39335,0.19831 -0.7934,0.40972 -1.22418,0.49141 -1.78148,0.33783 -3.57771,0.59391 -5.37782,0.80553 -0.44295,0.24141 -0.85631,0.45732 -1.2338,0.63959 0.22949,0.11322 0.46431,0.23968 0.70377,0.37846 0.0383,0.001 0.0763,0.006 0.11462,0.007 h 17.47079 V 79.992808 20.863942 H 103.84973 Z M 149.87184,135.06928 c -0.0228,-0.007 -0.0459,-0.0131 -0.0685,-0.0195 -0.25451,0.10094 -0.50779,0.20515 -0.76179,0.30743 0.0785,-0.0142 0.15728,-0.0266 0.23573,-0.041 0.14245,-0.0263 0.40663,-0.14862 0.59455,-0.24687 z M 135.28462,89.113318 c -0.003,-0.0047 -0.003,-0.01041 -0.006,-0.01544 -0.005,0.03176 -0.008,0.05277 -0.0125,0.08617 -0.003,0.02417 0.0114,-0.04284 0.0184,-0.07074 z m -0.006,-0.01544 c 0.006,-0.0374 0.009,-0.06647 0.0144,-0.101604 -0.0268,-0.004 -0.0601,-0.02061 -0.0551,-5.64e-4 0.009,0.03538 0.0244,0.06886 0.0407,0.102189 z m -0.75613,-2.326055 c -0.0102,-0.0081 -0.0276,-0.01893 -0.0382,-0.02706 -0.0254,-0.0072 -0.0515,-0.01235 -0.0773,-0.0186 0.0931,0.194172 0.17054,0.401182 0.311,0.558661 0.12227,0.137068 -0.11963,-0.324459 -0.19554,-0.512951 z M 103.78419,36.89186 c 2.34385,0.02021 4.69436,0.187841 6.07452,0.494031 6.78965,1.506303 12.0493,4.417023 16.78231,9.28761 2.85793,2.941021 4.52449,5.331209 6.06998,8.705954 3.02648,6.608608 3.88077,14.957503 2.24293,21.916118 -0.48101,2.043667 -1.83651,5.389219 -2.1835,5.389219 -0.0998,0 -0.24017,-0.535195 -0.31213,-1.189511 -0.29512,-2.683521 -2.07065,-7.897448 -2.61505,-7.679173 -0.16984,0.06809 -0.38102,0.13966 -0.46918,0.15895 -0.0882,0.01934 -0.31373,-0.464583 -0.50117,-1.07511 -0.57822,-1.883388 -1.29172,-2.778741 -2.21434,-2.778741 -0.13226,0 -0.67332,-0.455673 -1.20239,-1.012809 -2.14386,-2.257552 -4.59828,-3.93664 -6.48795,-4.43813 -1.20847,-0.320706 -1.12954,-0.03572 -0.8665,-3.134487 0.12689,-1.494929 0.0948,-1.821047 -0.25837,-2.642505 -0.22161,-0.515408 -0.83251,-1.40823 -1.35775,-1.983985 -1.10007,-1.205867 -1.3062,-1.589947 -2.16595,-4.038132 -1.01135,-2.879862 -1.84707,-4.350929 -3.22516,-5.677133 -0.67967,-0.654075 -1.23578,-1.216704 -1.23578,-1.250361 0,-0.03364 0.30543,-0.230522 0.67858,-0.437263 0.37317,-0.206741 0.67832,-0.436014 0.67832,-0.50946 0,-0.07345 -0.85054,-0.247616 -1.89005,-0.387189 -1.03951,-0.139573 -1.95197,-0.292816 -2.02785,-0.340613 -0.0759,-0.04774 -0.0563,-0.308131 0.0436,-0.578454 0.0999,-0.27033 0.16211,-0.491278 0.13809,-0.490835 -0.0241,4.5e-4 -1.34933,0.354921 -2.945,0.78778 -1.59568,0.432858 -2.92697,0.760339 -2.9586,0.727795 -0.0316,-0.03256 0.0795,-0.39673 0.24705,-0.809311 0.16757,-0.412582 0.26489,-0.790956 0.2162,-0.84105 -0.0487,-0.05009 -0.94735,0.430636 -1.99702,1.068416 -2.222687,1.350502 -5.107175,4.149251 -5.930473,5.753996 -0.28347,0.552524 -0.787256,2.032971 -1.119482,3.289946 -0.340489,1.288276 -0.789075,2.515709 -1.028073,2.813385 -1.747383,2.176358 -2.081563,2.667844 -2.257916,3.321106 -0.277407,1.027507 -0.246546,2.540095 0.07697,3.790382 l 0.273639,1.05764 -0.504844,0.197381 c -2.20053,0.860695 -5.092869,2.698061 -7.239269,4.598536 -0.950986,0.84201 -1.448844,1.155773 -1.702143,1.073069 -0.302519,-0.09878 -0.487859,0.209614 -1.195892,1.988934 -0.655014,1.646077 -0.904153,2.079258 -1.140983,1.984273 -0.166632,-0.06681 -0.379781,-0.137048 -0.473712,-0.156331 -0.09394,-0.01934 -0.704531,1.909203 -1.356906,4.28587 -0.652382,2.376672 -1.245158,4.381901 -1.317285,4.45589 -0.197853,0.203146 -1.278088,-1.836667 -1.690633,-3.193004 -0.915545,-3.010122 -1.462661,-8.726949 -1.178617,-12.312067 1.172863,-14.803623 11.502603,-26.878682 25.493947,-29.801111 1.352945,-0.282596 3.690202,-0.409755 6.034052,-0.389519 z m -9.753952,20.067502 c 0.752376,0 0.90243,0.06211 0.90243,0.373217 0,0.205224 -0.306822,0.586525 -0.681708,0.847455 -0.374891,0.260923 -0.908635,0.808936 -1.186267,1.217751 -0.815795,1.201274 -0.810318,2.374094 0.0209,4.391845 0.189455,0.459876 -0.413597,0.473781 -1.037989,0.0239 -1.435516,-1.034396 -1.248899,-4.335252 0.342412,-6.056171 0.654807,-0.708144 0.839547,-0.797965 1.640182,-0.797965 z m 14.327432,0.01491 c 0.7153,-0.0013 1.32994,0.09022 1.67583,0.274231 0.29872,0.158916 0.68912,0.517859 0.86733,0.797669 0.31462,0.49397 0.31125,0.508614 -0.11658,0.507425 -0.24235,-5.64e-4 -0.93695,-0.08471 -1.5434,-0.1869 -0.9585,-0.161522 -1.38621,-0.109252 -3.27297,0.399999 -1.19372,0.32219 -2.1805,0.579038 -2.19284,0.570887 -0.0123,-0.0082 -0.76393,-0.228158 -1.67016,-0.489082 -1.20533,-0.347032 -2.159321,-0.477044 -3.553713,-0.483845 -2.124835,-0.01034 -2.30266,-0.182067 -0.986478,-0.953122 0.892818,-0.523042 1.940818,-0.565582 3.764811,-0.152839 1.60776,0.36381 3.27427,0.362313 4.7493,-0.004 0.74766,-0.185712 1.56357,-0.279226 2.27887,-0.280347 z m 5.37187,0.184564 c 0.84145,0 1.04794,0.08769 1.6396,0.696367 0.71253,0.733006 1.27456,2.242599 1.27456,3.423858 0,1.021041 -0.55827,2.238557 -1.1775,2.567978 -0.85706,0.455949 -0.92197,0.369827 -0.64181,-0.855021 0.48647,-2.12666 0.30752,-2.816991 -1.18682,-4.574375 -0.47897,-0.563273 -0.87103,-1.076922 -0.87103,-1.141485 0,-0.06459 0.43346,-0.117322 0.963,-0.117322 z m -12.5687,5.484122 h 2.47271 c 2.31559,0 2.51865,0.03183 3.19544,0.498691 0.89864,0.619913 2.14863,2.498715 2.56723,3.858802 0.17382,0.564784 0.35924,1.851428 0.41202,2.859088 0.078,1.489673 0.0201,2.089075 -0.31015,3.207565 -0.47069,1.594211 -1.55254,3.008779 -2.81285,3.678014 -1.00836,0.53545 -3.51232,0.682785 -4.71874,0.277729 -1.20417,-0.40429 -2.438047,-1.203805 -3.155834,-2.044828 -1.6305,-1.910439 -1.771348,-3.699842 -0.558606,-7.101296 1.014527,-2.84553 1.530653,-3.886834 2.29669,-4.635511 z M 73.845051,87.144225 c -0.0019,0.0027 -0.0039,0.0034 -0.0058,0.006 0.0019,0.0034 0.0026,0.0054 0.0039,0.0081 4.39e-4,-0.004 0.0013,-0.0097 0.0019,-0.0143 z m -0.06283,0.07191 c -0.09803,0.109682 -0.14635,0.156902 -0.144892,0.231731 0.02574,-0.0072 0.04619,-0.03035 0.07556,-0.03035 0.02303,-0.05022 0.0489,-0.101202 0.07697,-0.151961 -0.0019,-0.01638 -0.0052,-0.03297 -0.0076,-0.04941 z m 60.849569,0.206405 c 0.12683,0.13772 0.22764,0.266208 0.30166,0.374963 0.006,-0.08644 -0.005,-0.209635 -0.10867,-0.278313 -0.0604,-0.03988 -0.12588,-0.06986 -0.19299,-0.09665 z m 0.33816,0.183409 c -0.004,0.06305 -0.0138,0.133235 -0.0266,0.206694 0.19877,0.295253 0.20862,0.395098 0.0592,-0.171176 -0.0109,-0.01182 -0.0162,-0.01806 -0.0326,-0.03552 z M 66.604898,123.79628 c -0.56814,0.10751 -1.135835,0.21768 -1.702711,0.33129 -0.433233,0.0869 0.882213,-0.0505 1.323516,-0.0419 0.222426,0.004 0.444671,0.0179 0.666993,0.0262 0.02322,-0.0264 0.04348,-0.0542 0.07244,-0.078 0.05464,-0.0451 0.112477,-0.0824 0.169232,-0.12227 -0.176663,-0.0378 -0.353094,-0.0764 -0.529467,-0.11529 z m 81.515832,3.0623 c -0.11169,0.0298 -0.22295,0.0615 -0.33477,0.0908 0.0301,0.0147 0.0607,0.0284 0.0903,0.0437 0.0988,-0.0532 0.15859,-0.0875 0.24449,-0.13449 z m -4.08288,4.09752 c -0.28568,0.0465 -0.5709,0.0961 -0.85602,0.14613 0.007,0.0179 0.0103,0.04 0.006,0.0722 -0.0154,0.10086 -0.0363,0.20448 -0.0617,0.30888 0.55493,-0.14461 1.25151,-0.35406 1.71432,-0.51761 -0.24522,-0.006 -0.48439,-0.009 -0.80198,-0.01 z m -1.18654,0.20349 c -0.18116,0.0326 -0.3618,0.0684 -0.54277,0.10219 0.0668,0.0277 0.13289,0.0579 0.19724,0.094 0.1163,-0.0668 0.2373,-0.13919 0.34553,-0.19621 z m -77.665285,1.34411 c -0.03484,0.013 -0.0687,0.0243 -0.103575,0.0375 -0.139364,0.0528 -0.06902,0.4639 0.07895,0.45094 0.531209,-0.0465 1.061082,-0.106 1.590362,-0.1703 -0.525261,-0.0923 -1.048425,-0.19338 -1.565739,-0.3182 z m 3.746975,0.64307 c -0.395412,0.0269 -0.790869,0.0532 -1.186262,0.0804 -0.05038,0.003 -0.07875,0.005 -0.128475,0.008 0.764465,0.0137 1.528802,0.0235 2.293016,0.0306 -0.326298,-0.0389 -0.652556,-0.0781 -0.978279,-0.11937 z m 12.50106,1.96303 c -0.918931,0.0171 -2.031317,0.0332 -3.040935,0.0509 0.363409,0.0189 0.726947,0.0339 1.090898,0.0373 0.603375,0.005 1.378665,0.007 2.279147,0.005 -0.01955,-0.005 -0.03935,-0.01 -0.0589,-0.0154 -0.08151,-0.0234 -0.181372,-0.0523 -0.270252,-0.0777 z" />
    <path
       id="path822-5-8"
       style="fill:none;stroke-width:0.196616"
       d="m 46.470369,20.863942 v 59.128866 59.128572 h 34.644489 c -0.155175,-0.10396 -0.312015,-0.20641 -0.457578,-0.32052 -0.166078,0.0175 -0.331949,0.0353 -0.498903,0.0454 -0.389761,0.0236 -0.194384,-0.0926 0.246764,-0.24687 -0.505882,-0.4488 -0.841192,-0.94599 -0.733211,-1.41019 -0.111399,-0.002 -0.222806,-5.6e-4 -0.334199,-0.003 -1.812175,-0.0319 -3.611662,-0.3199 -5.417431,-0.47977 -0.147086,-0.24925 -0.396683,-0.51929 -0.664445,-0.79301 -0.23127,0.0107 -0.462694,0.0173 -0.695002,0.0105 -0.357423,-0.0106 -0.08758,-0.15608 0.369002,-0.34178 -0.107349,-0.10914 -0.211156,-0.21745 -0.308732,-0.3246 -7.928982,0.1166 -15.956501,0.18682 -17.213296,0.0268 -0.263189,-0.0335 -0.433285,-0.20015 -0.554361,-0.43726 -0.05045,0.0122 -0.05806,0.014 -0.1098,0.0265 0.02703,-0.0301 0.05135,-0.0661 0.07697,-0.0993 -0.234398,-0.52403 -0.272826,-1.32907 -0.513611,-1.84396 5.235601,-1.23043 4.392854,-1.14158 9.169508,-1.42824 0.0077,-0.0103 0.01787,-0.0209 0.026,-0.0314 -0.83954,-0.0102 -1.679094,-0.0178 -2.51855,-0.0346 -1.644911,-0.0332 -3.422194,0.34798 -4.924476,-0.34207 -0.300352,-0.13797 -0.651801,-0.39693 -0.970351,-0.70015 -0.111839,0.001 -0.223884,-3e-4 -0.33618,-0.006 -0.263002,-0.0128 -0.185288,-0.1397 0.04328,-0.3016 -0.508037,-0.58681 -0.811182,-1.26258 -0.372685,-1.66375 1.382257,-1.26458 3.600791,-0.81583 5.463548,-0.98427 2.300427,-0.41717 3.538754,-0.63648 4.857412,-0.74382 -0.216362,-0.25181 -0.265588,-0.52385 -0.02748,-0.81048 0.164277,-0.19773 0.353087,-0.34647 0.559166,-0.46055 -0.288218,-0.13963 -0.561869,-0.3075 -0.814704,-0.51179 -0.595053,-0.4808 -0.662104,-1.82205 -0.184785,-2.47394 -0.887561,0.0113 -1.774973,0.0138 -2.662585,0.002 -1.407017,-0.0191 -3.001701,0.31175 -4.198909,-0.44891 -0.555774,-0.35312 -0.247926,-1.78879 0.37891,-1.97787 2.128293,-0.64196 4.434972,-0.0953 6.65237,-0.14294 1.843778,-0.0223 0.389748,-0.004 1.803454,-0.0215 -0.386265,-0.13756 -0.752312,-0.31955 -1.086376,-0.56478 -0.538892,-0.39559 0.05045,-1.712 0.68114,-1.91907 0.815988,-0.26792 1.657277,-0.41338 2.509783,-0.50305 -0.213975,-0.16826 -0.404398,-0.3567 -0.559741,-0.5735 -0.0872,-0.12171 -0.09894,-0.26492 -0.06199,-0.4134 -0.951857,-0.0716 -1.258279,-0.25943 0.40014,-0.70013 -1.789223,-0.0271 -3.272817,-0.19245 -5.070768,-0.81282 -0.618657,0.0388 -1.236997,0.0815 -1.854674,0.13246 -0.409732,0.0338 -1.598303,0.39448 -1.203814,0.27569 0.738966,-0.22251 1.472499,-0.47765 2.206987,-0.72779 -0.786217,-0.31592 -1.639382,-0.71347 -2.609391,-1.22271 -0.45736,-0.24011 0.997657,-0.27382 1.509436,-0.31675 4.969683,-0.41708 8.575726,-0.31818 13.555176,-0.30247 -0.07145,-0.2386 -0.169071,-0.47509 -0.22469,-0.70335 -0.07618,-0.31265 -0.14528,-0.6275 -0.199506,-0.94497 -0.05109,-0.29906 -0.07727,-0.60175 -0.116018,-0.90276 -0.07304,-0.43741 -0.13881,-0.87647 -0.218188,-1.31266 -0.07304,-0.17319 -0.131191,-0.35602 -0.170922,-0.54091 -0.08956,0.0485 -0.156065,0.0783 -0.11687,0.0221 0.03251,-0.0465 0.06335,-0.0977 0.09508,-0.14586 -0.02013,-0.11471 -0.03341,-0.22713 -0.0407,-0.33798 -0.221103,-0.32897 -0.436058,-0.77997 -0.668973,-1.40728 -0.06571,-0.17701 0.08308,-0.24699 0.341573,-0.26056 -0.447722,-2.2805 -0.810744,-4.59035 -0.843863,-6.916147 -0.042,-1.279555 -0.433871,-2.192472 1.054961,-2.738282 0.01168,-0.16747 0.02032,-0.35431 0.0019,-0.434644 -0.118528,-0.51992 -0.310641,-1.034134 -0.241391,-1.581944 -6e-6,-0.71134 -6.5e-5,-1.422572 0,-2.133918 -1.03e-4,-0.582321 -5.48e-4,-1.164689 5.48e-4,-1.747004 2.91e-4,-0.172237 -5.48e-4,-0.344514 -0.0019,-0.516744 -0.198054,-0.38404 -0.173089,-0.751295 0.0045,-1.005243 4.5e-5,-0.0034 2.83e-4,-0.0081 2.83e-4,-0.01222 -0.0032,-0.01282 -0.0088,-0.02491 -0.01187,-0.03787 -0.07688,-0.328421 -0.03561,-0.388579 0.01606,-0.710621 0.02445,-0.0662 0.05045,-0.09282 0.07499,-0.141782 -0.0058,-0.0074 -0.01226,-0.01437 -0.01787,-0.02209 -0.0058,-0.0081 0.0039,0.0034 0.01896,0.01947 0.05387,-0.106714 0.116587,-0.180307 0.183373,-0.215724 0.02226,-0.147992 0.07066,-0.348059 0.145176,-0.620081 0.012,-0.04371 0.08274,-0.01786 0.164691,0.03028 0.02284,-0.004 0.05754,-0.004 0.109225,-0.0034 -0.008,-0.06593 -0.01445,-0.132221 -0.01864,-0.198549 -0.0019,-0.02907 0.05554,-0.01168 0.08376,-0.0145 0.04045,-0.0034 0.09698,-0.0097 0.156208,-0.01021 0.05573,-4.5e-4 0.113619,0.0034 0.162155,0.01779 0.08867,-0.0054 0.169419,-0.002 0.24252,0.0096 0.0013,-2.95e-4 0.0019,-0.0093 0.0032,-0.0093 0.541981,0 2.415401,0.667953 4.296807,1.532172 5.493254,2.523316 20.943434,9.2549 21.936285,9.557478 1.49448,0.455458 4.05871,0.460158 5.69646,0.01047 0.693,-0.190271 2.17586,-0.733966 3.29533,-1.208143 5.31421,-2.250979 16.64537,-7.201524 18.90016,-8.257338 2.33403,-1.092922 4.2745,-1.797017 4.44397,-1.61252 6e-5,7.4e-5 1.4e-4,0.01793 2.8e-4,0.01799 0.13669,-0.07442 0.27332,-0.148939 0.41005,-0.223285 -0.0163,-0.0096 -0.0348,-0.0145 -0.0506,-0.02538 -0.0869,-0.05929 0.0961,-0.09696 0.26288,-0.09024 0.0466,-0.02531 0.0932,-0.05076 0.13979,-0.07598 -0.0928,-0.01524 -0.19049,-0.02283 -0.27336,-0.06023 -0.0224,-0.01014 -0.0102,-0.01504 0.0196,-0.01571 0.0891,-0.0027 0.33464,0.03196 0.26967,0.06725 -0.006,0.0034 -0.0106,0.006 -0.0159,0.0088 0.0871,0.0143 0.16973,0.03538 0.23007,0.09694 0.0774,0.0789 0.13347,0.174808 0.1845,0.274822 0.0318,0.02323 0.0754,0.05197 0.10441,0.07423 0.01,0.0034 0.0197,0.0034 0.0292,0.007 0.002,0.004 0.007,0.01504 0.009,0.02008 0.32941,0.258996 0.46389,0.467771 0.44711,0.822411 0.4662,0.500187 0.41251,0.809674 0.32344,1.402033 0.007,0.0013 0.0164,0.0054 0.0215,0.0034 -0.01,0.03793 -0.0186,0.06885 -0.0301,0.113824 0.0632,0.122237 0.15912,0.235504 0.18592,0.368846 0.0181,0.0421 0.0281,0.0835 0.0413,0.125191 0.26188,0.689123 0.13257,1.662433 0.0569,2.301878 -0.0184,0.118538 -0.0607,0.235565 -0.0552,0.355458 0.008,0.166282 0.12919,0.308064 0.16073,0.471324 0.10182,0.526842 0.1189,0.995487 0.0948,1.525767 -0.0784,0.595991 -0.0366,1.200523 -0.0288,1.799999 0.002,0.375204 0.0114,0.541405 -0.24591,0.713535 0.15198,0.253437 0.30591,0.611655 0.46748,1.093157 0.0579,0.172646 -0.19908,0.303686 -0.31609,0.441049 -0.0368,0.04317 -0.0701,0.07569 -0.10612,0.116739 -0.22073,1.056874 -0.5092,1.764756 -0.97713,2.821536 -0.14568,0.32898 -0.31658,0.64601 -0.4675,0.97234 -0.0679,0.30158 -0.15019,0.6208 -0.23147,0.92723 -0.011,0.17883 -0.0304,0.34286 -0.0639,0.47539 0.25975,-0.10353 0.69306,0.009 1.62772,0.338 0.17898,0.063 0.0839,0.38168 0.092,0.57613 0.0133,0.31907 -0.0236,0.63845 -0.0281,0.95779 -0.007,0.48193 -0.004,0.964 -0.006,1.44599 0.021,0.45319 0.068,1.64461 0.12338,2.0719 0.0155,0.11907 0.10798,0.25997 0.1579,0.38341 5.5e-4,0.002 0.001,0.003 0.002,0.005 0.0349,0.0884 0.0503,0.16898 -0.0181,0.21921 -1.26239,0.92711 -1.58574,1.09043 -1.80317,0.73304 0.0243,0.46906 0.0444,0.93833 0.0595,1.40786 0.54105,-0.0579 0.93363,-0.10297 1.58867,-0.17118 0.95503,-0.0995 2.24319,-0.99357 2.86973,-0.24541 0.11736,0.14013 0.16387,0.30529 0.16244,0.48209 0.90584,-0.188 2.07818,-0.96275 2.56665,-0.23144 0.23349,0.34957 0.12392,0.77767 -0.12706,1.18923 0.28145,0.22456 0.43673,0.49247 0.31044,0.79592 -0.21319,0.51222 -0.81267,0.4802 -1.45426,0.38865 -0.0216,0.0153 -0.0451,0.0348 -0.0662,0.0492 -0.30704,0.20891 -0.65235,0.32352 -1.0145,0.39563 -0.0757,0.0699 -0.15699,0.12881 -0.24337,0.1773 0.2528,-0.0195 0.66288,-0.0507 0.93583,-0.0716 1.72913,-0.17901 3.69886,-0.3811 5.63335,-0.56769 0.7782,-0.20051 1.56135,-0.42242 2.24716,-0.20786 1.91144,-0.1693 3.43172,-0.27979 3.7583,-0.22824 0.17571,0.0277 0.30939,0.11767 0.41797,0.24512 0.006,-0.003 0.007,-0.003 0.0125,-0.005 -0.002,0.004 -0.003,0.009 -0.005,0.0137 0.36043,0.43368 0.42578,1.30592 0.71792,1.84104 -2.7543,1.10988 -3.44457,1.44455 -5.13049,1.86114 -0.006,0.12818 -0.20925,0.14152 -0.48418,0.11266 -0.45136,0.10498 -1.15327,0.25473 -1.79298,0.38952 0.1459,0.30054 0.23422,0.6475 0.2196,0.93857 0.0479,-0.002 0.0882,-0.003 0.13639,-0.005 0.7752,-0.0249 2.90081,-0.48835 2.32612,0.0474 -0.65355,0.60932 -1.33455,1.11183 -2.03747,1.53333 0.58626,0.12796 1.21685,0.27176 1.99729,0.46055 0.10647,0.0257 0.13282,0.0397 0.12479,0.0492 0.0199,0.003 0.0396,0.008 0.0595,0.011 0.24616,-0.0377 0.49204,-0.0773 0.73803,-0.11615 1.05766,-0.25094 2.11607,-0.49882 3.17705,-0.7345 0.56652,-0.12586 -1.09953,0.39649 -1.67159,0.49228 -0.50126,0.0839 -1.00344,0.16297 -1.50546,0.24222 -0.19971,0.0473 -0.39944,0.0944 -0.59909,0.14206 1.45571,0.26071 2.89973,0.56763 4.29994,1.04367 0.63396,0.21553 -1.27215,0.4367 -1.93108,0.54759 -0.004,5.7e-4 -0.008,10e-4 -0.0116,0.002 0.16465,0.0128 0.32926,0.0247 0.4938,0.0416 0.0994,0.0102 0.20456,0.0332 0.31157,0.0635 0.52959,-0.23833 1.01978,-0.38051 1.32436,0.0157 0.0693,0.0902 0.10271,0.18752 0.11008,0.2888 0.36628,-0.0818 0.73222,-0.16578 1.09882,-0.246 0.91902,-0.2011 3.19691,-1.27481 2.79135,-0.40291 -0.31338,0.67374 -0.84498,1.16701 -1.4534,1.5968 0.58894,0.0584 1.16712,0.1639 1.71998,0.37845 0.82416,0.31984 -1.7566,0.18103 -2.61817,0.36972 -0.15456,0.0339 -0.30874,0.0695 -0.46324,0.10364 -0.47042,0.27864 -0.93384,0.56326 -1.34333,0.89229 -0.83277,0.22386 -1.66224,0.46105 -2.49279,0.69431 0.13256,0.008 0.23277,0.0159 0.26997,0.0244 0.15421,0.0353 0.27008,0.11875 0.36221,0.23261 0.1222,-0.0202 0.15124,-0.0251 0.27959,-0.0463 -0.0515,0.0909 -0.0943,0.19502 -0.13413,0.30335 0.20703,0.47906 0.23091,1.18999 0.44032,1.66608 -0.69381,0.11387 -0.97971,0.16098 -1.5134,0.24949 -0.14545,0.51292 -1.15216,0.73619 -2.65268,0.78078 -0.0262,0.38149 -0.0577,0.66127 -0.11885,0.85793 1.45119,-0.17241 2.91008,-0.47341 4.32653,-0.17845 0.1393,0.029 0.29915,0.0649 0.46578,0.1048 0.87979,-0.31738 1.73237,-0.51727 2.41979,-0.0105 0.35293,0.26019 0.18447,0.5511 -0.22271,0.82854 0.48143,0.30953 0.75008,0.68891 0.51305,1.14322 -0.73813,1.41476 -3.08664,0.48008 -4.62988,0.72023 -1.50477,0.16934 -3.00844,0.349 -4.51245,0.52606 0.0919,0.0971 0.17706,0.20335 0.25582,0.31849 0.25913,0.0479 0.52253,0.0984 0.79489,0.15574 0.0908,-0.012 0.18174,-0.0228 0.27252,-0.0349 0.7199,-0.21961 1.27106,-0.38345 0.82942,-0.21717 -0.13717,0.0516 -0.2737,0.10799 -0.41061,0.16128 0.6897,-0.0931 1.37937,-0.18634 2.06946,-0.2757 0.39441,-0.1212 0.78928,-0.23931 1.18655,-0.34731 0.27849,-0.0757 -0.54272,0.19836 -0.81414,0.29753 -0.12423,0.0157 -0.24822,0.0337 -0.37241,0.0498 -0.60651,0.18639 -1.21123,0.38147 -1.81562,0.57729 0.84263,0.19902 1.77333,0.44647 2.80351,0.73857 0.0753,-0.0298 0.14996,-0.0612 0.22526,-0.0908 0.12244,-0.0483 0.0135,0.0213 -0.15678,0.11033 0.24502,0.0697 0.48104,0.13545 0.73916,0.21077 0.39905,0.11645 -0.79138,0.25583 -1.18712,0.3837 -0.43259,0.0545 -0.86469,0.1144 -1.29691,0.17234 0.91009,0.24976 1.80544,0.53802 2.64844,0.96303 0.39335,0.19831 -0.7934,0.40972 -1.22418,0.49141 -1.78148,0.33783 -3.57771,0.59391 -5.37782,0.80553 -0.44295,0.24141 -0.85631,0.45732 -1.2338,0.63959 0.22949,0.11322 0.46431,0.23968 0.70377,0.37846 0.0383,0.001 0.0763,0.006 0.11462,0.007 h 17.47079 V 79.992808 20.863942 H 103.84973 Z M 149.87184,135.06928 c -0.0228,-0.007 -0.0459,-0.0131 -0.0685,-0.0195 -0.25451,0.10094 -0.50779,0.20515 -0.76179,0.30743 0.0785,-0.0142 0.15728,-0.0266 0.23573,-0.041 0.14245,-0.0263 0.40663,-0.14862 0.59455,-0.24687 z M 135.28462,89.113318 c -0.003,-0.0047 -0.003,-0.01041 -0.006,-0.01544 -0.005,0.03176 -0.008,0.05277 -0.0125,0.08617 -0.003,0.02417 0.0114,-0.04284 0.0184,-0.07074 z m -0.006,-0.01544 c 0.006,-0.0374 0.009,-0.06647 0.0144,-0.101604 -0.0268,-0.004 -0.0601,-0.02061 -0.0551,-5.64e-4 0.009,0.03538 0.0244,0.06886 0.0407,0.102189 z m -0.75613,-2.326055 c -0.0102,-0.0081 -0.0276,-0.01893 -0.0382,-0.02706 -0.0254,-0.0072 -0.0515,-0.01235 -0.0773,-0.0186 0.0931,0.194172 0.17054,0.401182 0.311,0.558661 0.12227,0.137068 -0.11963,-0.324459 -0.19554,-0.512951 z M 103.78419,36.89186 c 2.34385,0.02021 4.69436,0.187841 6.07452,0.494031 6.78965,1.506303 12.0493,4.417023 16.78231,9.28761 2.85793,2.941021 4.52449,5.331209 6.06998,8.705954 3.02648,6.608608 3.88077,14.957503 2.24293,21.916118 -0.48101,2.043667 -1.83651,5.389219 -2.1835,5.389219 -0.0998,0 -0.24017,-0.535195 -0.31213,-1.189511 -0.29512,-2.683521 -2.07065,-7.897448 -2.61505,-7.679173 -0.16984,0.06809 -0.38102,0.13966 -0.46918,0.15895 -0.0882,0.01934 -0.31373,-0.464583 -0.50117,-1.07511 -0.57822,-1.883388 -1.29172,-2.778741 -2.21434,-2.778741 -0.13226,0 -0.67332,-0.455673 -1.20239,-1.012809 -2.14386,-2.257552 -4.59828,-3.93664 -6.48795,-4.43813 -1.20847,-0.320706 -1.12954,-0.03572 -0.8665,-3.134487 0.12689,-1.494929 0.0948,-1.821047 -0.25837,-2.642505 -0.22161,-0.515408 -0.83251,-1.40823 -1.35775,-1.983985 -1.10007,-1.205867 -1.3062,-1.589947 -2.16595,-4.038132 -1.01135,-2.879862 -1.84707,-4.350929 -3.22516,-5.677133 -0.67967,-0.654075 -1.23578,-1.216704 -1.23578,-1.250361 0,-0.03364 0.30543,-0.230522 0.67858,-0.437263 0.37317,-0.206741 0.67832,-0.436014 0.67832,-0.50946 0,-0.07345 -0.85054,-0.247616 -1.89005,-0.387189 -1.03951,-0.139573 -1.95197,-0.292816 -2.02785,-0.340613 -0.0759,-0.04774 -0.0563,-0.308131 0.0436,-0.578454 0.0999,-0.27033 0.16211,-0.491278 0.13809,-0.490835 -0.0241,4.5e-4 -1.34933,0.354921 -2.945,0.78778 -1.59568,0.432858 -2.92697,0.760339 -2.9586,0.727795 -0.0316,-0.03256 0.0795,-0.39673 0.24705,-0.809311 0.16757,-0.412582 0.26489,-0.790956 0.2162,-0.84105 -0.0487,-0.05009 -0.94735,0.430636 -1.99702,1.068416 -2.222687,1.350502 -5.107175,4.149251 -5.930473,5.753996 -0.28347,0.552524 -0.787256,2.032971 -1.119482,3.289946 -0.340489,1.288276 -0.789075,2.515709 -1.028073,2.813385 -1.747383,2.176358 -2.081563,2.667844 -2.257916,3.321106 -0.277407,1.027507 -0.246546,2.540095 0.07697,3.790382 l 0.273639,1.05764 -0.504844,0.197381 c -2.20053,0.860695 -5.092869,2.698061 -7.239269,4.598536 -0.950986,0.84201 -1.448844,1.155773 -1.702143,1.073069 -0.302519,-0.09878 -0.487859,0.209614 -1.195892,1.988934 -0.655014,1.646077 -0.904153,2.079258 -1.140983,1.984273 -0.166632,-0.06681 -0.379781,-0.137048 -0.473712,-0.156331 -0.09394,-0.01934 -0.704531,1.909203 -1.356906,4.28587 -0.652382,2.376672 -1.245158,4.381901 -1.317285,4.45589 -0.197853,0.203146 -1.278088,-1.836667 -1.690633,-3.193004 -0.915545,-3.010122 -1.462661,-8.726949 -1.178617,-12.312067 1.172863,-14.803623 11.502603,-26.878682 25.493947,-29.801111 1.352945,-0.282596 3.690202,-0.409755 6.034052,-0.389519 z m -9.753952,20.067502 c 0.752376,0 0.90243,0.06211 0.90243,0.373217 0,0.205224 -0.306822,0.586525 -0.681708,0.847455 -0.374891,0.260923 -0.908635,0.808936 -1.186267,1.217751 -0.815795,1.201274 -0.810318,2.374094 0.0209,4.391845 0.189455,0.459876 -0.413597,0.473781 -1.037989,0.0239 -1.435516,-1.034396 -1.248899,-4.335252 0.342412,-6.056171 0.654807,-0.708144 0.839547,-0.797965 1.640182,-0.797965 z m 14.327432,0.01491 c 0.7153,-0.0013 1.32994,0.09022 1.67583,0.274231 0.29872,0.158916 0.68912,0.517859 0.86733,0.797669 0.31462,0.49397 0.31125,0.508614 -0.11658,0.507425 -0.24235,-5.64e-4 -0.93695,-0.08471 -1.5434,-0.1869 -0.9585,-0.161522 -1.38621,-0.109252 -3.27297,0.399999 -1.19372,0.32219 -2.1805,0.579038 -2.19284,0.570887 -0.0123,-0.0082 -0.76393,-0.228158 -1.67016,-0.489082 -1.20533,-0.347032 -2.159321,-0.477044 -3.553713,-0.483845 -2.124835,-0.01034 -2.30266,-0.182067 -0.986478,-0.953122 0.892818,-0.523042 1.940818,-0.565582 3.764811,-0.152839 1.60776,0.36381 3.27427,0.362313 4.7493,-0.004 0.74766,-0.185712 1.56357,-0.279226 2.27887,-0.280347 z m 5.37187,0.184564 c 0.84145,0 1.04794,0.08769 1.6396,0.696367 0.71253,0.733006 1.27456,2.242599 1.27456,3.423858 0,1.021041 -0.55827,2.238557 -1.1775,2.567978 -0.85706,0.455949 -0.92197,0.369827 -0.64181,-0.855021 0.48647,-2.12666 0.30752,-2.816991 -1.18682,-4.574375 -0.47897,-0.563273 -0.87103,-1.076922 -0.87103,-1.141485 0,-0.06459 0.43346,-0.117322 0.963,-0.117322 z m -12.5687,5.484122 h 2.47271 c 2.31559,0 2.51865,0.03183 3.19544,0.498691 0.89864,0.619913 2.14863,2.498715 2.56723,3.858802 0.17382,0.564784 0.35924,1.851428 0.41202,2.859088 0.078,1.489673 0.0201,2.089075 -0.31015,3.207565 -0.47069,1.594211 -1.55254,3.008779 -2.81285,3.678014 -1.00836,0.53545 -3.51232,0.682785 -4.71874,0.277729 -1.20417,-0.40429 -2.438047,-1.203805 -3.155834,-2.044828 -1.6305,-1.910439 -1.771348,-3.699842 -0.558606,-7.101296 1.014527,-2.84553 1.530653,-3.886834 2.29669,-4.635511 z M 73.845051,87.144225 c -0.0019,0.0027 -0.0039,0.0034 -0.0058,0.006 0.0019,0.0034 0.0026,0.0054 0.0039,0.0081 4.39e-4,-0.004 0.0013,-0.0097 0.0019,-0.0143 z m -0.06283,0.07191 c -0.09803,0.109682 -0.14635,0.156902 -0.144892,0.231731 0.02574,-0.0072 0.04619,-0.03035 0.07556,-0.03035 0.02303,-0.05022 0.0489,-0.101202 0.07697,-0.151961 -0.0019,-0.01638 -0.0052,-0.03297 -0.0076,-0.04941 z m 60.849569,0.206405 c 0.12683,0.13772 0.22764,0.266208 0.30166,0.374963 0.006,-0.08644 -0.005,-0.209635 -0.10867,-0.278313 -0.0604,-0.03988 -0.12588,-0.06986 -0.19299,-0.09665 z m 0.33816,0.183409 c -0.004,0.06305 -0.0138,0.133235 -0.0266,0.206694 0.19877,0.295253 0.20862,0.395098 0.0592,-0.171176 -0.0109,-0.01182 -0.0162,-0.01806 -0.0326,-0.03552 z M 66.604898,123.79628 c -0.56814,0.10751 -1.135835,0.21768 -1.702711,0.33129 -0.433233,0.0869 0.882213,-0.0505 1.323516,-0.0419 0.222426,0.004 0.444671,0.0179 0.666993,0.0262 0.02322,-0.0264 0.04348,-0.0542 0.07244,-0.078 0.05464,-0.0451 0.112477,-0.0824 0.169232,-0.12227 -0.176663,-0.0378 -0.353094,-0.0764 -0.529467,-0.11529 z m 81.515832,3.0623 c -0.11169,0.0298 -0.22295,0.0615 -0.33477,0.0908 0.0301,0.0147 0.0607,0.0284 0.0903,0.0437 0.0988,-0.0532 0.15859,-0.0875 0.24449,-0.13449 z m -4.08288,4.09752 c -0.28568,0.0465 -0.5709,0.0961 -0.85602,0.14613 0.007,0.0179 0.0103,0.04 0.006,0.0722 -0.0154,0.10086 -0.0363,0.20448 -0.0617,0.30888 0.55493,-0.14461 1.25151,-0.35406 1.71432,-0.51761 -0.24522,-0.006 -0.48439,-0.009 -0.80198,-0.01 z m -1.18654,0.20349 c -0.18116,0.0326 -0.3618,0.0684 -0.54277,0.10219 0.0668,0.0277 0.13289,0.0579 0.19724,0.094 0.1163,-0.0668 0.2373,-0.13919 0.34553,-0.19621 z m -77.665285,1.34411 c -0.03484,0.013 -0.0687,0.0243 -0.103575,0.0375 -0.139364,0.0528 -0.06902,0.4639 0.07895,0.45094 0.531209,-0.0465 1.061082,-0.106 1.590362,-0.1703 -0.525261,-0.0923 -1.048425,-0.19338 -1.565739,-0.3182 z m 3.746975,0.64307 c -0.395412,0.0269 -0.790869,0.0532 -1.186262,0.0804 -0.05038,0.003 -0.07875,0.005 -0.128475,0.008 0.764465,0.0137 1.528802,0.0235 2.293016,0.0306 -0.326298,-0.0389 -0.652556,-0.0781 -0.978279,-0.11937 z m 12.50106,1.96303 c -0.918931,0.0171 -2.031317,0.0332 -3.040935,0.0509 0.363409,0.0189 0.726947,0.0339 1.090898,0.0373 0.603375,0.005 1.378665,0.007 2.279147,0.005 -0.01955,-0.005 -0.03935,-0.01 -0.0589,-0.0154 -0.08151,-0.0234 -0.181372,-0.0523 -0.270252,-0.0777 z" />
    <path
       id="path982-3"
       style="fill:none;stroke-width:0.14795"
       d="M 69.896442,43.86096 A 5.40599,15.423747 0 0 1 64.490455,59.284702 5.40599,15.423747 0 0 1 59.084468,43.86096 5.40599,15.423747 0 0 1 64.490455,28.437212 5.40599,15.423747 0 0 1 69.896442,43.86096 Z" />
    <path
       style="fill:#ffffff;stroke:#ffffff;stroke-width:0.14795px;stroke-linecap:butt;stroke-linejoin:miter;stroke-opacity:1"
       d="m 112.56515,45.788927 c 4.15102,-4.464767 4.15102,-4.464767 4.15102,-4.464767 l 0.77229,2.739742 -2.60645,1.826499 v 0 l -1.64111,1.116192 z"
       id="path2955" />
    <path
       id="path916-6"
       style="fill:#ffffff;stroke:none;stroke-width:0.22946"
       d="m 102.86819,40.429107 0.22379,0.23523 z m 0,0.23523 c -3.652352,2.01989 -7.053232,4.129731 -8.880192,8.233979 -0.670077,1.505623 -0.684623,3.215288 -1.306364,4.704922 -0.428601,1.026883 -1.371949,1.68893 -1.980258,2.587835 -1.372853,2.029068 -1.038724,4.141861 -0.366409,6.351834 -3.568415,1.492455 -6.222537,3.247193 -8.95234,6.116596 l -0.671644,-0.470458 -1.7903,4.469985 -0.895431,-0.47076 -2.461667,9.174908 c -0.529422,-0.688828 -0.720122,1.201549 -0.740126,4.17935 0.0065,0.002 0.01284,0.0027 0.0189,0.0047 0.273297,-0.01692 0.47257,0.05472 0.595543,0.166496 2.271921,0.505599 4.504763,1.865944 6.616104,2.798185 4.562356,2.01448 9.10307,4.080135 13.652441,6.12638 2.57157,1.156753 5.192603,2.646392 8.056923,2.719072 3.36407,0.08564 6.37742,-1.600025 9.4002,-2.955791 4.31415,-1.934972 8.6709,-3.765741 12.98079,-5.710126 2.30105,-1.038256 4.70595,-2.54646 7.18432,-3.051495 0.16703,-0.09294 0.33403,-0.18594 0.50112,-0.278776 -0.0163,-0.0098 -0.0347,-0.01477 -0.0505,-0.02578 -0.0865,-0.06029 0.0958,-0.09868 0.26184,-0.09184 0.0464,-0.02572 0.0928,-0.05163 0.13923,-0.07732 -0.0925,-0.01551 -0.18973,-0.02323 -0.27226,-0.0613 -0.0223,-0.01034 -0.0101,-0.01524 0.0195,-0.01598 0.0887,-0.002 0.3333,0.0325 0.2686,0.06844 -0.005,0.0027 -0.0105,0.006 -0.0157,0.0089 0.0422,0.0071 0.0735,0.03364 0.11161,0.04801 -0.0966,-3.356241 -0.44895,-5.220614 -1.20941,-3.850802 h -0.22379 c -0.0656,-3.344142 -1.26771,-6.159878 -2.46194,-9.174901 l -0.89543,0.47076 c -0.29342,-1.332482 -0.87733,-4.117863 -2.46167,-3.99952 h -0.22379 c -2.26607,-2.481944 -5.28261,-5.510377 -8.72883,-5.881376 0.37443,-2.315833 1.12628,-4.147492 -0.21702,-6.35183 -0.62847,-1.031354 -1.81001,-1.735498 -2.2686,-2.863064 -1.56017,-3.835123 -1.73119,-6.773876 -5.34751,-9.370138 l 1.7903,-1.176158 -4.47603,-0.705991 0.44758,-1.176153 -6.04283,1.646913 z m 5.97603,14.642398 c 0.0971,0.0011 0.1939,0.0061 0.29059,0.0145 0.99304,0.0866 1.79546,0.679669 2.23815,1.575513 l -2.90951,-0.438167 -4.25225,1.146823 -3.80495,-1.06624 -3.357094,0.122353 c 2.044277,-2.591331 4.763904,-0.410367 7.385834,-0.559041 1.4528,-0.08227 2.95274,-0.815313 4.40923,-0.795757 z m -14.512643,0.0023 c 0.293359,-0.01811 0.603452,0.03572 0.927001,0.176571 v 0.470461 c -2.713476,1.648667 -3.166288,3.756249 -1.790307,6.587065 -3.245033,-0.154991 -1.972517,-7.059086 0.863306,-7.234097 z m 19.735573,0.199377 c 2.76903,0.02443 4.05343,6.47166 0.88669,7.034715 0.98342,-3.589751 0.6696,-4.101335 -1.79029,-6.822296 0.31494,-0.148565 0.61715,-0.214947 0.9036,-0.212419 z m -9.69502,5.512524 c 1.04092,0.02586 2.06519,0.171875 2.51493,0.487941 4.18188,2.939738 4.68773,12.337603 -0.66177,14.155642 -3.44017,1.169208 -7.77077,-1.198361 -8.366106,-5.122642 -0.238798,-1.574559 0.632532,-3.503515 1.162064,-4.940448 0.514539,-1.395997 1.211492,-3.861902 2.736742,-4.347928 0.51566,-0.164325 1.57323,-0.258438 2.61414,-0.232565 z m -3.29452,3.169104 2.32694,3.303605 1.03044,1.871779 2.90952,-5.175384 c -1.50377,0.0046 -2.29582,0.2732 -3.13331,1.646619 -1.00044,-1.189453 -1.60967,-1.640978 -3.13359,-1.646619 z m 3.17869,6.850137 c -1.42835,0.0054 -2.87173,0.354472 -4.297627,0.913079 0.158467,0.546978 0.294047,0.948442 0.908397,1.03455 0.78715,0.110333 1.66067,-0.25059 2.4487,-0.307526 1.62239,-0.117625 3.97536,0.868456 5.14768,-0.491788 -1.36547,-0.815865 -2.7788,-1.153807 -4.20715,-1.148315 z m 18.65496,99.014833 c -0.1041,0.0129 -0.20819,0.0265 -0.31228,0.0394 0.10754,-0.005 0.21152,-0.0178 0.31228,-0.0394 z" />
    <path
       id="path783-5"
       style="fill:none;stroke-width:0.197946"
       d="M 46.824379,19.710695 V 79.88365 140.0563 h 34.505545 c -0.154557,-0.1058 -0.310764,-0.21006 -0.455747,-0.32618 -0.165407,0.0178 -0.33062,0.0359 -0.496897,0.0462 -0.3882,0.024 -0.193609,-0.0942 0.245771,-0.25123 -0.503857,-0.45673 -0.837811,-0.96269 -0.730269,-1.4351 -0.110955,-0.002 -0.22191,-5.7e-4 -0.332864,-0.003 -1.804905,-0.0324 -3.59718,-0.32554 -5.395698,-0.48823 -0.146493,-0.25366 -0.395096,-0.52847 -0.661787,-0.80702 -0.230341,0.0108 -0.46083,0.0177 -0.692216,0.0107 -0.355984,-0.0108 -0.08723,-0.15883 0.367531,-0.34781 -0.106923,-0.11107 -0.210317,-0.22128 -0.307499,-0.33033 -7.89718,0.11865 -15.892496,0.19012 -17.144259,0.0273 -0.262131,-0.0341 -0.43155,-0.20369 -0.552136,-0.44498 -0.05032,0.0123 -0.0578,0.0143 -0.109355,0.0269 0.02697,-0.0307 0.05116,-0.0673 0.07666,-0.10103 -0.233463,-0.53328 -0.271736,-1.35253 -0.511553,-1.87651 5.214603,-1.25215 4.375236,-1.16175 9.132725,-1.45346 0.0077,-0.0105 0.0178,-0.0214 0.02593,-0.032 -0.836166,-0.0104 -1.672352,-0.0181 -2.508448,-0.0352 -1.638312,-0.0337 -3.408466,0.35413 -4.904717,-0.34811 -0.299152,-0.1404 -0.649188,-0.40394 -0.966461,-0.71251 -0.111387,0.001 -0.222987,-3e-4 -0.334832,-0.006 -0.261943,-0.013 -0.184546,-0.14218 0.04316,-0.30693 -0.505999,-0.59717 -0.807932,-1.28488 -0.371196,-1.69313 1.376723,-1.2869 3.586355,-0.83023 5.441641,-1.00165 2.291197,-0.42453 3.524562,-0.64772 4.837925,-0.75695 -0.215491,-0.25625 -0.264524,-0.5331 -0.02735,-0.8248 0.16362,-0.20121 0.351668,-0.35257 0.556928,-0.46868 -0.287063,-0.14209 -0.559625,-0.31293 -0.81144,-0.52082 -0.59266,-0.48929 -0.659439,-1.85423 -0.184043,-2.51763 -0.884,0.0115 -1.767851,0.014 -2.651909,0.002 -1.401372,-0.0195 -2.989657,0.31726 -4.182066,-0.45683 -0.553542,-0.35935 -0.246926,-1.82039 0.377395,-2.0128 2.119752,-0.65328 4.41718,-0.097 6.625689,-0.14546 1.836379,-0.0227 0.38818,-0.004 1.796216,-0.0219 -0.38471,-0.13998 -0.749287,-0.32519 -1.082016,-0.57474 -0.53673,-0.40257 0.05025,-1.74223 0.678411,-1.95295 0.812705,-0.27266 1.650627,-0.4207 2.499714,-0.51195 -0.213123,-0.17124 -0.402778,-0.363 -0.557496,-0.58363 -0.08686,-0.12385 -0.09854,-0.2696 -0.06173,-0.42069 -0.948038,-0.0728 -1.253241,-0.26401 0.398534,-0.71251 -1.78205,-0.0275 -3.259696,-0.19583 -5.050435,-0.82716 -0.616167,0.0395 -1.232037,0.0829 -1.847236,0.1348 -0.408081,0.0344 -1.591891,0.40145 -1.198982,0.28056 0.736004,-0.22644 1.466596,-0.48609 2.198136,-0.74065 -0.783063,-0.32148 -1.632809,-0.72606 -2.598928,-1.2443 -0.455521,-0.24434 0.993658,-0.27865 1.503379,-0.32233 4.949756,-0.42445 8.541336,-0.32381 13.500814,-0.30781 -0.07116,-0.24283 -0.168393,-0.48348 -0.223787,-0.71577 -0.07588,-0.31818 -0.144699,-0.63859 -0.198705,-0.96167 -0.0509,-0.30433 -0.07696,-0.61238 -0.115555,-0.9187 -0.07275,-0.44513 -0.138248,-0.89194 -0.21731,-1.33584 -0.07275,-0.17624 -0.130668,-0.36231 -0.170238,-0.55045 -0.08921,0.0494 -0.15544,0.0796 -0.116399,0.0226 0.03232,-0.0473 0.06302,-0.0994 0.0947,-0.14843 -0.02,-0.11674 -0.03329,-0.23115 -0.04058,-0.34395 -0.22022,-0.33478 -0.434311,-0.79374 -0.666284,-1.43213 -0.06546,-0.18014 0.08274,-0.25135 0.340193,-0.26516 -0.445922,-2.32076 -0.807493,-4.6714 -0.840476,-7.038272 -0.0418,-1.302147 -0.43213,-2.231178 1.050729,-2.786623 0.01161,-0.170431 0.02019,-0.360581 0.0019,-0.442318 -0.118051,-0.529106 -0.30939,-1.052396 -0.240417,-1.609889 -7e-6,-0.723895 -6.5e-5,-1.447689 0,-2.17159 -1.03e-4,-0.592608 -5.49e-4,-1.185255 5.42e-4,-1.777855 2.9e-4,-0.175286 -5.42e-4,-0.350598 -0.0019,-0.525869 -0.197254,-0.390815 -0.172392,-0.764563 0.0045,-1.022989 5.2e-5,-0.004 2.9e-4,-0.0083 2.9e-4,-0.01242 -0.0032,-0.01302 -0.0088,-0.02538 -0.01187,-0.03854 -0.07658,-0.334221 -0.03548,-0.39544 0.01606,-0.723169 0.02432,-0.06736 0.05025,-0.09445 0.07469,-0.144287 -0.0058,-0.0075 -0.01219,-0.0147 -0.0178,-0.02256 -0.0058,-0.0083 0.0039,0.0027 0.0189,0.01981 0.05361,-0.108594 0.116122,-0.18349 0.182637,-0.219525 0.02213,-0.150611 0.07037,-0.354216 0.14459,-0.631039 0.01193,-0.04445 0.08241,-0.01813 0.164032,0.03082 0.02271,-0.0047 0.05735,-0.0047 0.108794,-0.0027 -0.0079,-0.06707 -0.01439,-0.134551 -0.01858,-0.202055 -0.0019,-0.02961 0.05535,-0.01195 0.08342,-0.01484 0.04025,-0.004 0.09659,-0.0099 0.155582,-0.01034 0.05554,-4.56e-4 0.113161,0.004 0.161497,0.01806 0.08831,-0.0054 0.168741,-0.002 0.241546,0.0098 0.0013,-3.02e-4 0.0019,-0.0095 0.0032,-0.0095 0.539815,0 2.405719,0.679743 4.279577,1.559224 5.471218,2.56787 20.859434,9.41832 21.848314,9.726236 1.48849,0.463502 4.04243,0.468282 5.6736,0.01067 0.69023,-0.193634 2.16714,-0.746924 3.28212,-1.22948 5.29289,-2.290719 16.57861,-7.328683 18.82436,-8.403148 2.32467,-1.112212 4.25736,-1.828741 4.42614,-1.640981 7e-5,6.7e-5 1.4e-4,0.01826 2.9e-4,0.01833 0.13614,-0.07573 0.27222,-0.151577 0.40839,-0.227232 -0.0163,-0.0098 -0.0347,-0.01477 -0.0504,-0.02578 -0.0865,-0.06029 0.0958,-0.09868 0.26183,-0.09184 0.0464,-0.02572 0.0928,-0.05163 0.13924,-0.07732 -0.0924,-0.01551 -0.18973,-0.02323 -0.27227,-0.0613 -0.0223,-0.01034 -0.0101,-0.01524 0.0195,-0.01598 0.0887,-0.002 0.3333,0.0325 0.2686,0.06843 -0.005,0.0027 -0.0105,0.006 -0.0157,0.0089 0.0868,0.01457 0.16904,0.03606 0.22914,0.09866 0.0771,0.08029 0.13295,0.177883 0.18377,0.279669 0.0317,0.02363 0.0751,0.05284 0.10399,0.07555 0.009,0.0027 0.0196,0.004 0.029,0.0071 0.002,0.0047 0.007,0.01531 0.009,0.02048 0.3281,0.263569 0.46204,0.47603 0.44532,0.836934 0.46433,0.509016 0.41086,0.823968 0.32216,1.426788 0.007,0.0013 0.0164,0.0054 0.0214,0.0034 -0.01,0.03861 -0.0186,0.07008 -0.0299,0.115845 0.0629,0.124385 0.15848,0.23966 0.18518,0.375359 0.018,0.04284 0.0279,0.08497 0.0411,0.127393 0.26084,0.701295 0.13204,1.691794 0.0566,2.342532 -0.0183,0.120625 -0.0604,0.239727 -0.055,0.361736 0.008,0.169209 0.12867,0.313495 0.16009,0.479642 0.10141,0.536142 0.11842,1.013058 0.0944,1.552704 -0.0781,0.606519 -0.0365,1.221726 -0.0288,1.831783 0.002,0.381838 0.0114,0.550967 -0.24493,0.726138 0.15137,0.257909 0.30468,0.622458 0.46561,1.11246 0.0577,0.175688 -0.19828,0.309044 -0.31482,0.448831 -0.0366,0.04398 -0.0698,0.07702 -0.10569,0.1188 -0.21984,1.075532 -0.50716,1.795927 -0.97323,2.871357 -0.14508,0.33479 -0.31529,0.65743 -0.46561,0.98952 -0.0676,0.30689 -0.14958,0.63176 -0.23054,0.94359 -0.0109,0.18199 -0.0302,0.34892 -0.0637,0.48379 0.25871,-0.10535 0.69028,0.009 1.62119,0.34396 0.17827,0.0641 0.0835,0.38843 0.0916,0.5863 0.0132,0.32471 -0.0235,0.64974 -0.0279,0.97471 -0.007,0.49044 -0.004,0.98102 -0.006,1.47152 0.021,0.4612 0.0678,1.67366 0.12288,2.10849 0.0153,0.12117 0.10755,0.26455 0.15727,0.39018 5.4e-4,0.002 0.001,0.003 0.002,0.005 0.0348,0.09 0.05,0.17197 -0.0181,0.22309 -1.25733,0.94347 -1.57938,1.10968 -1.79594,0.74599 0.0242,0.47734 0.0442,0.9549 0.0592,1.43271 0.53889,-0.0589 0.92988,-0.10478 1.5823,-0.1742 0.9512,-0.10121 2.23419,-1.01112 2.85822,-0.24975 0.11689,0.14262 0.16322,0.31069 0.16179,0.49061 0.90221,-0.19132 2.06984,-0.97976 2.55635,-0.23553 0.23256,0.35575 0.12343,0.7914 -0.12655,1.21022 0.28032,0.22853 0.43498,0.50118 0.3092,0.80999 -0.21234,0.52127 -0.80941,0.48868 -1.44843,0.39551 -0.0215,0.0156 -0.045,0.0354 -0.0659,0.05 -0.3058,0.2126 -0.64972,0.32923 -1.01042,0.40261 -0.0754,0.0712 -0.15637,0.13109 -0.24239,0.18043 0.25178,-0.0198 0.66021,-0.0516 0.93207,-0.0729 1.7222,-0.18217 3.68402,-0.38782 5.61075,-0.57771 0.77508,-0.20405 1.5551,-0.42988 2.23815,-0.21153 1.90378,-0.17229 3.41797,-0.28473 3.74322,-0.23227 0.17503,0.0282 0.30816,0.11975 0.41632,0.24945 0.005,-0.002 0.007,-0.003 0.0126,-0.005 0,0.005 -0.005,0.01 -0.005,0.014 0.35899,0.44133 0.42405,1.32897 0.71503,1.87355 -2.74326,1.12947 -3.43076,1.47006 -5.10991,1.894 -0.006,0.13043 -0.20841,0.14401 -0.48224,0.11466 -0.44955,0.10682 -1.14864,0.25923 -1.78579,0.39639 0.14531,0.30584 0.23328,0.65893 0.21871,0.95514 0.0477,-0.002 0.0878,-0.003 0.13586,-0.005 0.77208,-0.0253 2.88917,-0.49697 2.31678,0.0483 -0.65093,0.62008 -1.3292,1.13146 -2.0293,1.5604 0.5839,0.13022 1.21197,0.27656 1.98928,0.46869 0.10605,0.0262 0.13229,0.0405 0.1243,0.05 0.0198,0.003 0.0394,0.008 0.0591,0.0112 0.24517,-0.0383 0.49006,-0.0787 0.73506,-0.11821 1.05343,-0.25536 2.1076,-0.50762 3.1643,-0.74747 0.56428,-0.12808 -1.09511,0.4035 -1.66486,0.50098 -0.49926,0.0854 -0.99942,0.16584 -1.49944,0.24649 -0.1989,0.0482 -0.39783,0.096 -0.59667,0.14458 1.44987,0.2653 2.88809,0.57764 4.28271,1.06209 0.63142,0.21934 -1.26707,0.44442 -1.92336,0.55726 -0.004,5.8e-4 -0.008,0.001 -0.0115,0.002 0.16399,0.013 0.32794,0.0251 0.49182,0.0424 0.099,0.0104 0.20374,0.0339 0.31034,0.0646 0.52747,-0.24254 1.01566,-0.38724 1.31902,0.016 0.0691,0.0917 0.10232,0.19083 0.10963,0.29389 0.36483,-0.0833 0.72932,-0.1687 1.09442,-0.25034 0.91536,-0.20465 3.1841,-1.29732 2.78017,-0.41002 -0.31214,0.68563 -0.84162,1.18761 -1.44757,1.62499 0.58659,0.0594 1.16243,0.16679 1.71307,0.38513 0.82084,0.3255 -1.74956,0.18423 -2.60765,0.37626 -0.15397,0.0344 -0.30751,0.0707 -0.46142,0.10547 -0.46851,0.28355 -0.93009,0.5732 -1.33789,0.90803 -0.82946,0.22782 -1.6556,0.46919 -2.48282,0.70659 0.13203,0.008 0.23183,0.0162 0.26888,0.0249 0.1536,0.0359 0.269,0.12085 0.36077,0.23671 0.12171,-0.0206 0.15062,-0.0256 0.27847,-0.0471 -0.0514,0.0925 -0.0939,0.19845 -0.13361,0.3087 0.20622,0.48753 0.23,1.21101 0.43856,1.6955 -0.69102,0.11588 -0.97578,0.16382 -1.50732,0.25389 -0.14488,0.52198 -1.14755,0.7492 -2.64205,0.79458 -0.0261,0.38823 -0.0575,0.67295 -0.11837,0.87308 1.44538,-0.17546 2.89841,-0.48178 4.30917,-0.18161 0.13875,0.0295 0.29796,0.0661 0.46393,0.10665 0.87625,-0.32299 1.7254,-0.5264 2.41011,-0.0107 0.35146,0.26478 0.18369,0.56083 -0.22182,0.84316 0.47947,0.315 0.74705,0.70108 0.51099,1.16342 -0.73521,1.43974 -3.0743,0.48855 -4.61134,0.73294 -1.49874,0.17233 -2.99637,0.35516 -4.49435,0.53534 0.0915,0.0989 0.17636,0.20694 0.25479,0.32411 0.25809,0.0487 0.52043,0.10012 0.79171,0.1585 0.0904,-0.0122 0.181,-0.0232 0.27142,-0.0355 0.71701,-0.22349 1.26596,-0.39022 0.8261,-0.22101 -0.13662,0.0526 -0.27261,0.1099 -0.40897,0.16412 0.68693,-0.0947 1.37384,-0.18962 2.06116,-0.28055 0.39283,-0.12335 0.78612,-0.24354 1.18179,-0.35345 0.27737,-0.077 -0.54054,0.20186 -0.81088,0.30278 -0.12373,0.016 -0.24721,0.0343 -0.37091,0.0507 -0.60408,0.18968 -1.20637,0.38821 -1.80834,0.58749 0.83925,0.20253 1.76622,0.45434 2.79227,0.75161 0.075,-0.0304 0.14936,-0.0622 0.22435,-0.0924 0.12196,-0.0491 0.0135,0.0217 -0.15614,0.11228 0.24404,0.0709 0.47911,0.13785 0.73619,0.2145 0.39743,0.11851 -0.78821,0.26034 -1.18236,0.39047 -0.43084,0.0555 -0.86122,0.11642 -1.29171,0.17539 0.90644,0.25416 1.7982,0.54751 2.63782,0.98003 0.39179,0.20181 -0.79022,0.41695 -1.21927,0.50009 -1.77433,0.34379 -3.56336,0.6044 -5.35625,0.81975 -0.44118,0.24568 -0.85287,0.46541 -1.22886,0.65088 0.22858,0.11522 0.46245,0.24393 0.70096,0.38515 0.0382,0.001 0.076,0.006 0.11415,0.007 h 17.40111 V 79.88365 19.710695 H 103.97361 Z M 149.81114,135.93265 c -0.0226,-0.007 -0.0457,-0.0134 -0.0682,-0.0199 -0.25349,0.10272 -0.50576,0.20877 -0.75874,0.31286 0.0782,-0.0144 0.15666,-0.0271 0.23479,-0.0418 0.14188,-0.0267 0.405,-0.15124 0.59216,-0.25122 z M 135.28243,89.165205 c -0.003,-0.0054 -0.003,-0.01061 -0.006,-0.01571 -0.005,0.03229 -0.008,0.05364 -0.0124,0.08769 -0.003,0.02457 0.0113,-0.04357 0.0183,-0.07199 z m -0.006,-0.01571 c 0.005,-0.038 0.009,-0.06767 0.0143,-0.103391 -0.0267,-0.0047 -0.0599,-0.02095 -0.055,-5.77e-4 0.009,0.03605 0.0243,0.07008 0.0406,0.103988 z m -0.7531,-2.367126 c -0.0101,-0.0082 -0.0275,-0.01927 -0.0381,-0.02759 -0.0252,-0.0073 -0.0513,-0.01262 -0.0769,-0.019 0.0927,0.197603 0.16985,0.408265 0.30975,0.568524 0.12177,0.139492 -0.11915,-0.330186 -0.19476,-0.522009 z m -30.615,-50.760739 c 2.33445,0.02058 4.67553,0.191156 6.05016,0.502756 6.76242,1.5329 12.00098,4.495015 16.715,9.45161 2.84647,2.992945 4.50634,5.425342 6.04565,8.859677 3.01433,6.725299 3.8652,15.221627 2.23392,22.303117 -0.47908,2.079748 -1.82914,5.484378 -2.17474,5.484378 -0.0994,0 -0.23921,-0.544642 -0.31088,-1.21052 -0.29394,-2.730902 -2.06234,-8.036893 -2.60456,-7.81477 -0.16916,0.0693 -0.3795,0.142131 -0.4673,0.161756 -0.0878,0.01967 -0.31247,-0.472781 -0.49915,-1.094091 -0.57591,-1.916643 -1.28655,-2.827807 -2.20547,-2.827807 -0.13172,0 -0.67061,-0.463717 -1.19757,-1.030696 -2.13525,-2.297413 -4.57983,-4.00615 -6.46193,-4.516496 -1.20362,-0.326368 -1.125,-0.03634 -0.86302,-3.18984 0.12638,-1.521325 0.0945,-1.853197 -0.25733,-2.68916 -0.22072,-0.524511 -0.82917,-1.4331 -1.35231,-2.019019 -1.09566,-1.227159 -1.30096,-1.618023 -2.15726,-4.109435 -1.0073,-2.93072 -1.83966,-4.427761 -3.21222,-5.777383 -0.67695,-0.665624 -1.23083,-1.23819 -1.23083,-1.272438 0,-0.03423 0.3042,-0.234595 0.67587,-0.444985 0.37167,-0.210389 0.67558,-0.443711 0.67558,-0.518458 0,-0.07475 -0.84712,-0.251987 -1.88246,-0.394022 -1.03534,-0.142041 -1.94414,-0.29799 -2.01972,-0.346629 -0.0756,-0.04862 -0.0561,-0.313572 0.0434,-0.58867 0.0995,-0.275098 0.16146,-0.499952 0.13754,-0.499499 -0.0239,4.59e-4 -1.34392,0.361185 -2.9332,0.801686 -1.58927,0.440505 -2.91522,0.773765 -2.94672,0.740651 -0.0315,-0.03313 0.0792,-0.403735 0.24605,-0.823602 0.1669,-0.419868 0.26383,-0.804925 0.21534,-0.855902 -0.0485,-0.05097 -0.94355,0.438241 -1.98901,1.087279 -2.213786,1.374355 -5.086695,4.22252 -5.90669,5.855598 -0.282334,0.562281 -0.784102,2.068873 -1.114992,3.348043 -0.339128,1.311022 -0.785914,2.560133 -1.023951,2.863065 -1.740377,2.214788 -2.073216,2.714952 -2.248866,3.379745 -0.27629,1.045653 -0.245552,2.584952 0.07666,3.857316 l 0.272549,1.076313 -0.502819,0.200867 c -2.191711,0.875893 -5.072445,2.745704 -7.21024,4.679738 -0.947167,0.856881 -1.443038,1.176184 -1.695318,1.092016 -0.3013,-0.100517 -0.485898,0.21332 -1.191093,2.024055 -0.652388,1.675143 -0.900533,2.115971 -1.136409,2.019315 -0.165968,-0.06801 -0.378259,-0.139466 -0.471809,-0.159091 -0.09356,-0.01967 -0.701705,1.942908 -1.351468,4.361551 -0.649763,2.418636 -1.240165,4.459274 -1.312001,4.534566 C 75.167458,82.73095 74.091558,80.655116 73.680664,79.27483 72.76879,76.211565 72.223874,70.393784 72.506769,66.745362 73.67493,51.680334 83.963242,39.39206 97.89847,36.418027 c 1.347526,-0.28759 3.67541,-0.41699 6.00985,-0.396397 z m -9.715024,20.421851 c 0.749364,0 0.898818,0.06319 0.898818,0.379811 0,0.208847 -0.30559,0.596879 -0.678979,0.862415 -0.373382,0.265529 -0.904984,0.823218 -1.181507,1.239256 -0.812524,1.222487 -0.807067,2.416017 0.0209,4.469393 0.188694,0.467997 -0.411939,0.482145 -1.033821,0.02431 -1.429768,-1.052659 -1.2439,-4.4118 0.341037,-6.163111 0.652182,-0.720644 0.836174,-0.812056 1.633596,-0.812056 z m 14.269974,0.01513 c 0.71244,-0.0011 1.32462,0.09182 1.66911,0.279077 0.29752,0.161722 0.68636,0.527 0.86386,0.811752 0.31335,0.502693 0.30999,0.517598 -0.11612,0.516383 -0.24138,-5.74e-4 -0.93319,-0.0862 -1.5372,-0.190198 -0.95467,-0.164371 -1.38066,-0.11118 -3.25986,0.40706 -1.18893,0.327882 -2.17176,0.589266 -2.18404,0.58097 -0.0123,-0.0083 -0.76086,-0.232186 -1.66346,-0.497721 -1.20049,-0.353159 -2.15066,-0.485465 -3.539455,-0.492384 -2.11632,-0.01055 -2.293435,-0.185279 -0.982524,-0.969954 0.889232,-0.532275 1.933032,-0.575571 3.749709,-0.155537 1.60131,0.370232 3.26114,0.368712 4.73026,-0.004 0.74465,-0.188994 1.55729,-0.284157 2.26972,-0.285297 z m 5.35033,0.187825 c 0.83807,0 1.04373,0.08923 1.63302,0.708662 0.70967,0.745954 1.26945,2.282202 1.26945,3.48432 0,1.039072 -0.55604,2.278082 -1.17277,2.613319 -0.85363,0.464 -0.91828,0.37636 -0.63924,-0.87012 0.48451,-2.164207 0.30628,-2.866729 -1.18207,-4.655148 -0.47704,-0.57322 -0.86753,-1.095937 -0.86753,-1.161638 0,-0.0657 0.43173,-0.119395 0.95914,-0.119395 z M 101.29532,62.2274 h 2.46279 c 2.30631,0 2.50854,0.03239 3.18263,0.507497 0.89503,0.630859 2.14,2.542831 2.55693,3.926937 0.17312,0.574753 0.3578,1.884125 0.41037,2.909577 0.0777,1.515978 0.02,2.125962 -0.30891,3.264204 -0.4688,1.622364 -1.54632,3.061908 -2.80157,3.742961 -1.00432,0.544903 -3.49823,0.694836 -4.69982,0.28263 -1.19933,-0.411427 -2.428261,-1.225063 -3.143171,-2.080937 -1.623959,-1.94417 -1.764239,-3.765177 -0.556368,-7.226689 1.010463,-2.895779 1.524519,-3.955472 2.287479,-4.717364 z M 74.089267,87.161312 c -0.0019,0.002 -0.0039,0.004 -0.0052,0.006 0.0019,0.0027 0.0026,0.0054 0.0039,0.0083 4.32e-4,-0.0047 0.0013,-0.0099 0.0019,-0.0145 z m -0.06257,0.07318 c -0.09763,0.111622 -0.145764,0.159675 -0.144312,0.235827 0.02561,-0.0073 0.04606,-0.03082 0.07526,-0.03082 0.0229,-0.05116 0.0487,-0.102988 0.07666,-0.154646 -0.0019,-0.01665 -0.0052,-0.0335 -0.0076,-0.05042 z m 60.605523,0.210051 c 0.12633,0.140144 0.22673,0.270908 0.30045,0.381583 0.006,-0.08796 -0.005,-0.213341 -0.10823,-0.283228 -0.0602,-0.04055 -0.12538,-0.0711 -0.19222,-0.09835 z m 0.33681,0.186639 c -0.004,0.06419 -0.0138,0.135591 -0.0265,0.210346 0.19799,0.30047 0.2078,0.402081 0.0589,-0.174197 -0.0108,-0.01202 -0.0161,-0.0184 -0.0324,-0.03619 z M 66.878182,124.46056 c -0.565863,0.1094 -1.131281,0.22152 -1.695879,0.33715 -0.431505,0.0884 0.878671,-0.0514 1.318207,-0.0426 0.221529,0.005 0.442884,0.0182 0.664309,0.0267 0.02309,-0.0269 0.04329,-0.0551 0.07215,-0.0794 0.05438,-0.0459 0.112026,-0.0838 0.168548,-0.12442 -0.175953,-0.0385 -0.351675,-0.0777 -0.527338,-0.11732 z m 81.188898,3.11637 c -0.11124,0.0304 -0.22206,0.0626 -0.33343,0.0924 0.0299,0.015 0.0605,0.0289 0.0899,0.0444 0.0984,-0.0541 0.15796,-0.0891 0.24351,-0.13688 z m -4.0665,4.16987 c -0.28455,0.0473 -0.56862,0.0978 -0.85259,0.14873 0.007,0.0182 0.0103,0.0406 0.005,0.0735 -0.0153,0.10264 -0.0362,0.20809 -0.0614,0.31434 0.5527,-0.14717 1.24648,-0.36033 1.70744,-0.52676 -0.24424,-0.006 -0.48245,-0.009 -0.79877,-0.01 z m -1.18179,0.20709 c -0.18043,0.0332 -0.36034,0.0696 -0.54059,0.10398 0.0665,0.0283 0.13235,0.0589 0.19645,0.0957 0.11583,-0.068 0.23635,-0.14164 0.34414,-0.19967 z m -77.353791,1.36783 c -0.03471,0.0132 -0.06842,0.0248 -0.103162,0.0382 -0.138797,0.0537 -0.06874,0.47209 0.07864,0.45891 0.529074,-0.0473 1.056818,-0.10788 1.583982,-0.17332 -0.523158,-0.0939 -1.044219,-0.19679 -1.559462,-0.32381 z m 3.73195,0.65444 c -0.393831,0.0275 -0.787708,0.0541 -1.181507,0.0818 -0.05025,0.003 -0.07844,0.005 -0.127959,0.009 0.761395,0.0139 1.522667,0.024 2.283817,0.0311 -0.324988,-0.0395 -0.649931,-0.0795 -0.974351,-0.12147 z m 12.450924,1.99769 c -0.915247,0.0175 -2.023176,0.0339 -3.028742,0.0518 0.361951,0.0193 0.724031,0.0345 1.086524,0.0379 0.600956,0.006 1.37313,0.007 2.270006,0.005 -0.01948,-0.006 -0.03916,-0.01 -0.05864,-0.0157 -0.08119,-0.0238 -0.180644,-0.0532 -0.269162,-0.0791 z" />
    <path
       id="path822-6"
       style="fill:none;stroke-width:0.197946"
       d="M 46.824379,19.710695 V 79.88365 140.0563 h 34.505545 c -0.154557,-0.1058 -0.310764,-0.21006 -0.455747,-0.32618 -0.165407,0.0178 -0.33062,0.0359 -0.496897,0.0462 -0.3882,0.024 -0.193609,-0.0942 0.245771,-0.25123 -0.503857,-0.45673 -0.837811,-0.96269 -0.730269,-1.4351 -0.110955,-0.002 -0.22191,-5.7e-4 -0.332864,-0.003 -1.804905,-0.0324 -3.59718,-0.32554 -5.395698,-0.48823 -0.146493,-0.25366 -0.395096,-0.52847 -0.661787,-0.80702 -0.230341,0.0108 -0.46083,0.0177 -0.692216,0.0107 -0.355984,-0.0108 -0.08723,-0.15883 0.367531,-0.34781 -0.106923,-0.11107 -0.210317,-0.22128 -0.307499,-0.33033 -7.89718,0.11865 -15.892496,0.19012 -17.144259,0.0273 -0.262131,-0.0341 -0.43155,-0.20369 -0.552136,-0.44498 -0.05032,0.0123 -0.0578,0.0143 -0.109355,0.0269 0.02697,-0.0307 0.05116,-0.0673 0.07666,-0.10103 -0.233463,-0.53328 -0.271736,-1.35253 -0.511553,-1.87651 5.214603,-1.25215 4.375236,-1.16175 9.132725,-1.45346 0.0077,-0.0105 0.0178,-0.0214 0.02593,-0.032 -0.836166,-0.0104 -1.672352,-0.0181 -2.508448,-0.0352 -1.638312,-0.0337 -3.408466,0.35413 -4.904717,-0.34811 -0.299152,-0.1404 -0.649188,-0.40394 -0.966461,-0.71251 -0.111387,0.001 -0.222987,-3e-4 -0.334832,-0.006 -0.261943,-0.013 -0.184546,-0.14218 0.04316,-0.30693 -0.505999,-0.59717 -0.807932,-1.28488 -0.371196,-1.69313 1.376723,-1.2869 3.586355,-0.83023 5.441641,-1.00165 2.291197,-0.42453 3.524562,-0.64772 4.837925,-0.75695 -0.215491,-0.25625 -0.264524,-0.5331 -0.02735,-0.8248 0.16362,-0.20121 0.351668,-0.35257 0.556928,-0.46868 -0.287063,-0.14209 -0.559625,-0.31293 -0.81144,-0.52082 -0.59266,-0.48929 -0.659439,-1.85423 -0.184043,-2.51763 -0.884,0.0115 -1.767851,0.014 -2.651909,0.002 -1.401372,-0.0195 -2.989657,0.31726 -4.182066,-0.45683 -0.553542,-0.35935 -0.246926,-1.82039 0.377395,-2.0128 2.119752,-0.65328 4.41718,-0.097 6.625689,-0.14546 1.836379,-0.0227 0.38818,-0.004 1.796216,-0.0219 -0.38471,-0.13998 -0.749287,-0.32519 -1.082016,-0.57474 -0.53673,-0.40257 0.05025,-1.74223 0.678411,-1.95295 0.812705,-0.27266 1.650627,-0.4207 2.499714,-0.51195 -0.213123,-0.17124 -0.402778,-0.363 -0.557496,-0.58363 -0.08686,-0.12385 -0.09854,-0.2696 -0.06173,-0.42069 -0.948038,-0.0728 -1.253241,-0.26401 0.398534,-0.71251 -1.78205,-0.0275 -3.259696,-0.19583 -5.050435,-0.82716 -0.616167,0.0395 -1.232037,0.0829 -1.847236,0.1348 -0.408081,0.0344 -1.591891,0.40145 -1.198982,0.28056 0.736004,-0.22644 1.466596,-0.48609 2.198136,-0.74065 -0.783063,-0.32148 -1.632809,-0.72606 -2.598928,-1.2443 -0.455521,-0.24434 0.993658,-0.27865 1.503379,-0.32233 4.949756,-0.42445 8.541336,-0.32381 13.500814,-0.30781 -0.07116,-0.24283 -0.168393,-0.48348 -0.223787,-0.71577 -0.07588,-0.31818 -0.144699,-0.63859 -0.198705,-0.96167 -0.0509,-0.30433 -0.07696,-0.61238 -0.115555,-0.9187 -0.07275,-0.44513 -0.138248,-0.89194 -0.21731,-1.33584 -0.07275,-0.17624 -0.130668,-0.36231 -0.170238,-0.55045 -0.08921,0.0494 -0.15544,0.0796 -0.116399,0.0226 0.03232,-0.0473 0.06302,-0.0994 0.0947,-0.14843 -0.02,-0.11674 -0.03329,-0.23115 -0.04058,-0.34395 -0.22022,-0.33478 -0.434311,-0.79374 -0.666284,-1.43213 -0.06546,-0.18014 0.08274,-0.25135 0.340193,-0.26516 -0.445922,-2.32076 -0.807493,-4.6714 -0.840476,-7.038272 -0.0418,-1.302147 -0.43213,-2.231178 1.050729,-2.786623 0.01161,-0.170431 0.02019,-0.360581 0.0019,-0.442318 -0.118051,-0.529106 -0.30939,-1.052396 -0.240417,-1.609889 -7e-6,-0.723895 -6.5e-5,-1.447689 0,-2.17159 -1.03e-4,-0.592608 -5.49e-4,-1.185255 5.42e-4,-1.777855 2.9e-4,-0.175286 -5.42e-4,-0.350598 -0.0019,-0.525869 -0.197254,-0.390815 -0.172392,-0.764563 0.0045,-1.022989 5.2e-5,-0.004 2.9e-4,-0.0083 2.9e-4,-0.01242 -0.0032,-0.01302 -0.0088,-0.02538 -0.01187,-0.03854 -0.07658,-0.334221 -0.03548,-0.39544 0.01606,-0.723169 0.02432,-0.06736 0.05025,-0.09445 0.07469,-0.144287 -0.0058,-0.0075 -0.01219,-0.0147 -0.0178,-0.02256 -0.0058,-0.0083 0.0039,0.0027 0.0189,0.01981 0.05361,-0.108594 0.116122,-0.18349 0.182637,-0.219525 0.02213,-0.150611 0.07037,-0.354216 0.14459,-0.631039 0.01193,-0.04445 0.08241,-0.01813 0.164032,0.03082 0.02271,-0.0047 0.05735,-0.0047 0.108794,-0.0027 -0.0079,-0.06707 -0.01439,-0.134551 -0.01858,-0.202055 -0.0019,-0.02961 0.05535,-0.01195 0.08342,-0.01484 0.04025,-0.004 0.09659,-0.0099 0.155582,-0.01034 0.05554,-4.56e-4 0.113161,0.004 0.161497,0.01806 0.08831,-0.0054 0.168741,-0.002 0.241546,0.0098 0.0013,-3.02e-4 0.0019,-0.0095 0.0032,-0.0095 0.539815,0 2.405719,0.679743 4.279577,1.559224 5.471218,2.56787 20.859434,9.41832 21.848314,9.726236 1.48849,0.463502 4.04243,0.468282 5.6736,0.01067 0.69023,-0.193634 2.16714,-0.746924 3.28212,-1.22948 5.29289,-2.290719 16.57861,-7.328683 18.82436,-8.403148 2.32467,-1.112212 4.25736,-1.828741 4.42614,-1.640981 7e-5,6.7e-5 1.4e-4,0.01826 2.9e-4,0.01833 0.13614,-0.07573 0.27222,-0.151577 0.40839,-0.227232 -0.0163,-0.0098 -0.0347,-0.01477 -0.0504,-0.02578 -0.0865,-0.06029 0.0958,-0.09868 0.26183,-0.09184 0.0464,-0.02572 0.0928,-0.05163 0.13924,-0.07732 -0.0924,-0.01551 -0.18973,-0.02323 -0.27227,-0.0613 -0.0223,-0.01034 -0.0101,-0.01524 0.0195,-0.01598 0.0887,-0.002 0.3333,0.0325 0.2686,0.06843 -0.005,0.0027 -0.0105,0.006 -0.0157,0.0089 0.0868,0.01457 0.16904,0.03606 0.22914,0.09866 0.0771,0.08029 0.13295,0.177883 0.18377,0.279669 0.0317,0.02363 0.0751,0.05284 0.10399,0.07555 0.009,0.0027 0.0196,0.004 0.029,0.0071 0.002,0.0047 0.007,0.01531 0.009,0.02048 0.3281,0.263569 0.46204,0.47603 0.44532,0.836934 0.46433,0.509016 0.41086,0.823968 0.32216,1.426788 0.007,0.0013 0.0164,0.0054 0.0214,0.0034 -0.01,0.03861 -0.0186,0.07008 -0.0299,0.115845 0.0629,0.124385 0.15848,0.23966 0.18518,0.375359 0.018,0.04284 0.0279,0.08497 0.0411,0.127393 0.26084,0.701295 0.13204,1.691794 0.0566,2.342532 -0.0183,0.120625 -0.0604,0.239727 -0.055,0.361736 0.008,0.169209 0.12867,0.313495 0.16009,0.479642 0.10141,0.536142 0.11842,1.013058 0.0944,1.552704 -0.0781,0.606519 -0.0365,1.221726 -0.0288,1.831783 0.002,0.381838 0.0114,0.550967 -0.24493,0.726138 0.15137,0.257909 0.30468,0.622458 0.46561,1.11246 0.0577,0.175688 -0.19828,0.309044 -0.31482,0.448831 -0.0366,0.04398 -0.0698,0.07702 -0.10569,0.1188 -0.21984,1.075532 -0.50716,1.795927 -0.97323,2.871357 -0.14508,0.33479 -0.31529,0.65743 -0.46561,0.98952 -0.0676,0.30689 -0.14958,0.63176 -0.23054,0.94359 -0.0109,0.18199 -0.0302,0.34892 -0.0637,0.48379 0.25871,-0.10535 0.69028,0.009 1.62119,0.34396 0.17827,0.0641 0.0835,0.38843 0.0916,0.5863 0.0132,0.32471 -0.0235,0.64974 -0.0279,0.97471 -0.007,0.49044 -0.004,0.98102 -0.006,1.47152 0.021,0.4612 0.0678,1.67366 0.12288,2.10849 0.0153,0.12117 0.10755,0.26455 0.15727,0.39018 5.4e-4,0.002 0.001,0.003 0.002,0.005 0.0348,0.09 0.05,0.17197 -0.0181,0.22309 -1.25733,0.94347 -1.57938,1.10968 -1.79594,0.74599 0.0242,0.47734 0.0442,0.9549 0.0592,1.43271 0.53889,-0.0589 0.92988,-0.10478 1.5823,-0.1742 0.9512,-0.10121 2.23419,-1.01112 2.85822,-0.24975 0.11689,0.14262 0.16322,0.31069 0.16179,0.49061 0.90221,-0.19132 2.06984,-0.97976 2.55635,-0.23553 0.23256,0.35575 0.12343,0.7914 -0.12655,1.21022 0.28032,0.22853 0.43498,0.50118 0.3092,0.80999 -0.21234,0.52127 -0.80941,0.48868 -1.44843,0.39551 -0.0215,0.0156 -0.045,0.0354 -0.0659,0.05 -0.3058,0.2126 -0.64972,0.32923 -1.01042,0.40261 -0.0754,0.0712 -0.15637,0.13109 -0.24239,0.18043 0.25178,-0.0198 0.66021,-0.0516 0.93207,-0.0729 1.7222,-0.18217 3.68402,-0.38782 5.61075,-0.57771 0.77508,-0.20405 1.5551,-0.42988 2.23815,-0.21153 1.90378,-0.17229 3.41797,-0.28473 3.74322,-0.23227 0.17503,0.0282 0.30816,0.11975 0.41632,0.24945 0.005,-0.002 0.007,-0.003 0.0126,-0.005 0,0.005 -0.005,0.01 -0.005,0.014 0.35899,0.44133 0.42405,1.32897 0.71503,1.87355 -2.74326,1.12947 -3.43076,1.47006 -5.10991,1.894 -0.006,0.13043 -0.20841,0.14401 -0.48224,0.11466 -0.44955,0.10682 -1.14864,0.25923 -1.78579,0.39639 0.14531,0.30584 0.23328,0.65893 0.21871,0.95514 0.0477,-0.002 0.0878,-0.003 0.13586,-0.005 0.77208,-0.0253 2.88917,-0.49697 2.31678,0.0483 -0.65093,0.62008 -1.3292,1.13146 -2.0293,1.5604 0.5839,0.13022 1.21197,0.27656 1.98928,0.46869 0.10605,0.0262 0.13229,0.0405 0.1243,0.05 0.0198,0.003 0.0394,0.008 0.0591,0.0112 0.24517,-0.0383 0.49006,-0.0787 0.73506,-0.11821 1.05343,-0.25536 2.1076,-0.50762 3.1643,-0.74747 0.56428,-0.12808 -1.09511,0.4035 -1.66486,0.50098 -0.49926,0.0854 -0.99942,0.16584 -1.49944,0.24649 -0.1989,0.0482 -0.39783,0.096 -0.59667,0.14458 1.44987,0.2653 2.88809,0.57764 4.28271,1.06209 0.63142,0.21934 -1.26707,0.44442 -1.92336,0.55726 -0.004,5.8e-4 -0.008,0.001 -0.0115,0.002 0.16399,0.013 0.32794,0.0251 0.49182,0.0424 0.099,0.0104 0.20374,0.0339 0.31034,0.0646 0.52747,-0.24254 1.01566,-0.38724 1.31902,0.016 0.0691,0.0917 0.10232,0.19083 0.10963,0.29389 0.36483,-0.0833 0.72932,-0.1687 1.09442,-0.25034 0.91536,-0.20465 3.1841,-1.29732 2.78017,-0.41002 -0.31214,0.68563 -0.84162,1.18761 -1.44757,1.62499 0.58659,0.0594 1.16243,0.16679 1.71307,0.38513 0.82084,0.3255 -1.74956,0.18423 -2.60765,0.37626 -0.15397,0.0344 -0.30751,0.0707 -0.46142,0.10547 -0.46851,0.28355 -0.93009,0.5732 -1.33789,0.90803 -0.82946,0.22782 -1.6556,0.46919 -2.48282,0.70659 0.13203,0.008 0.23183,0.0162 0.26888,0.0249 0.1536,0.0359 0.269,0.12085 0.36077,0.23671 0.12171,-0.0206 0.15062,-0.0256 0.27847,-0.0471 -0.0514,0.0925 -0.0939,0.19845 -0.13361,0.3087 0.20622,0.48753 0.23,1.21101 0.43856,1.6955 -0.69102,0.11588 -0.97578,0.16382 -1.50732,0.25389 -0.14488,0.52198 -1.14755,0.7492 -2.64205,0.79458 -0.0261,0.38823 -0.0575,0.67295 -0.11837,0.87308 1.44538,-0.17546 2.89841,-0.48178 4.30917,-0.18161 0.13875,0.0295 0.29796,0.0661 0.46393,0.10665 0.87625,-0.32299 1.7254,-0.5264 2.41011,-0.0107 0.35146,0.26478 0.18369,0.56083 -0.22182,0.84316 0.47947,0.315 0.74705,0.70108 0.51099,1.16342 -0.73521,1.43974 -3.0743,0.48855 -4.61134,0.73294 -1.49874,0.17233 -2.99637,0.35516 -4.49435,0.53534 0.0915,0.0989 0.17636,0.20694 0.25479,0.32411 0.25809,0.0487 0.52043,0.10012 0.79171,0.1585 0.0904,-0.0122 0.181,-0.0232 0.27142,-0.0355 0.71701,-0.22349 1.26596,-0.39022 0.8261,-0.22101 -0.13662,0.0526 -0.27261,0.1099 -0.40897,0.16412 0.68693,-0.0947 1.37384,-0.18962 2.06116,-0.28055 0.39283,-0.12335 0.78612,-0.24354 1.18179,-0.35345 0.27737,-0.077 -0.54054,0.20186 -0.81088,0.30278 -0.12373,0.016 -0.24721,0.0343 -0.37091,0.0507 -0.60408,0.18968 -1.20637,0.38821 -1.80834,0.58749 0.83925,0.20253 1.76622,0.45434 2.79227,0.75161 0.075,-0.0304 0.14936,-0.0622 0.22435,-0.0924 0.12196,-0.0491 0.0135,0.0217 -0.15614,0.11228 0.24404,0.0709 0.47911,0.13785 0.73619,0.2145 0.39743,0.11851 -0.78821,0.26034 -1.18236,0.39047 -0.43084,0.0555 -0.86122,0.11642 -1.29171,0.17539 0.90644,0.25416 1.7982,0.54751 2.63782,0.98003 0.39179,0.20181 -0.79022,0.41695 -1.21927,0.50009 -1.77433,0.34379 -3.56336,0.6044 -5.35625,0.81975 -0.44118,0.24568 -0.85287,0.46541 -1.22886,0.65088 0.22858,0.11522 0.46245,0.24393 0.70096,0.38515 0.0382,0.001 0.076,0.006 0.11415,0.007 h 17.40111 V 79.88365 19.710695 H 103.97361 Z M 149.81114,135.93265 c -0.0226,-0.007 -0.0457,-0.0134 -0.0682,-0.0199 -0.25349,0.10272 -0.50576,0.20877 -0.75874,0.31286 0.0782,-0.0144 0.15666,-0.0271 0.23479,-0.0418 0.14188,-0.0267 0.405,-0.15124 0.59216,-0.25122 z M 135.28243,89.165205 c -0.003,-0.0054 -0.003,-0.01061 -0.006,-0.01571 -0.005,0.03229 -0.008,0.05364 -0.0124,0.08769 -0.003,0.02457 0.0113,-0.04357 0.0183,-0.07199 z m -0.006,-0.01571 c 0.005,-0.038 0.009,-0.06767 0.0143,-0.103391 -0.0267,-0.0047 -0.0599,-0.02095 -0.055,-5.77e-4 0.009,0.03605 0.0243,0.07008 0.0406,0.103988 z m -0.7531,-2.367126 c -0.0101,-0.0082 -0.0275,-0.01927 -0.0381,-0.02759 -0.0252,-0.0073 -0.0513,-0.01262 -0.0769,-0.019 0.0927,0.197603 0.16985,0.408265 0.30975,0.568524 0.12177,0.139492 -0.11915,-0.330186 -0.19476,-0.522009 z m -30.615,-50.760739 c 2.33445,0.02058 4.67553,0.191156 6.05016,0.502756 6.76242,1.5329 12.00098,4.495015 16.715,9.45161 2.84647,2.992945 4.50634,5.425342 6.04565,8.859677 3.01433,6.725299 3.8652,15.221627 2.23392,22.303117 -0.47908,2.079748 -1.82914,5.484378 -2.17474,5.484378 -0.0994,0 -0.23921,-0.544642 -0.31088,-1.21052 -0.29394,-2.730902 -2.06234,-8.036893 -2.60456,-7.81477 -0.16916,0.0693 -0.3795,0.142131 -0.4673,0.161756 -0.0878,0.01967 -0.31247,-0.472781 -0.49915,-1.094091 -0.57591,-1.916643 -1.28655,-2.827807 -2.20547,-2.827807 -0.13172,0 -0.67061,-0.463717 -1.19757,-1.030696 -2.13525,-2.297413 -4.57983,-4.00615 -6.46193,-4.516496 -1.20362,-0.326368 -1.125,-0.03634 -0.86302,-3.18984 0.12638,-1.521325 0.0945,-1.853197 -0.25733,-2.68916 -0.22072,-0.524511 -0.82917,-1.4331 -1.35231,-2.019019 -1.09566,-1.227159 -1.30096,-1.618023 -2.15726,-4.109435 -1.0073,-2.93072 -1.83966,-4.427761 -3.21222,-5.777383 -0.67695,-0.665624 -1.23083,-1.23819 -1.23083,-1.272438 0,-0.03423 0.3042,-0.234595 0.67587,-0.444985 0.37167,-0.210389 0.67558,-0.443711 0.67558,-0.518458 0,-0.07475 -0.84712,-0.251987 -1.88246,-0.394022 -1.03534,-0.142041 -1.94414,-0.29799 -2.01972,-0.346629 -0.0756,-0.04862 -0.0561,-0.313572 0.0434,-0.58867 0.0995,-0.275098 0.16146,-0.499952 0.13754,-0.499499 -0.0239,4.59e-4 -1.34392,0.361185 -2.9332,0.801686 -1.58927,0.440505 -2.91522,0.773765 -2.94672,0.740651 -0.0315,-0.03313 0.0792,-0.403735 0.24605,-0.823602 0.1669,-0.419868 0.26383,-0.804925 0.21534,-0.855902 -0.0485,-0.05097 -0.94355,0.438241 -1.98901,1.087279 -2.213786,1.374355 -5.086695,4.22252 -5.90669,5.855598 -0.282334,0.562281 -0.784102,2.068873 -1.114992,3.348043 -0.339128,1.311022 -0.785914,2.560133 -1.023951,2.863065 -1.740377,2.214788 -2.073216,2.714952 -2.248866,3.379745 -0.27629,1.045653 -0.245552,2.584952 0.07666,3.857316 l 0.272549,1.076313 -0.502819,0.200867 c -2.191711,0.875893 -5.072445,2.745704 -7.21024,4.679738 -0.947167,0.856881 -1.443038,1.176184 -1.695318,1.092016 -0.3013,-0.100517 -0.485898,0.21332 -1.191093,2.024055 -0.652388,1.675143 -0.900533,2.115971 -1.136409,2.019315 -0.165968,-0.06801 -0.378259,-0.139466 -0.471809,-0.159091 -0.09356,-0.01967 -0.701705,1.942908 -1.351468,4.361551 -0.649763,2.418636 -1.240165,4.459274 -1.312001,4.534566 C 75.167458,82.73095 74.091558,80.655116 73.680664,79.27483 72.76879,76.211565 72.223874,70.393784 72.506769,66.745362 73.67493,51.680334 83.963242,39.39206 97.89847,36.418027 c 1.347526,-0.28759 3.67541,-0.41699 6.00985,-0.396397 z m -9.715024,20.421851 c 0.749364,0 0.898818,0.06319 0.898818,0.379811 0,0.208847 -0.30559,0.596879 -0.678979,0.862415 -0.373382,0.265529 -0.904984,0.823218 -1.181507,1.239256 -0.812524,1.222487 -0.807067,2.416017 0.0209,4.469393 0.188694,0.467997 -0.411939,0.482145 -1.033821,0.02431 -1.429768,-1.052659 -1.2439,-4.4118 0.341037,-6.163111 0.652182,-0.720644 0.836174,-0.812056 1.633596,-0.812056 z m 14.269974,0.01513 c 0.71244,-0.0011 1.32462,0.09182 1.66911,0.279077 0.29752,0.161722 0.68636,0.527 0.86386,0.811752 0.31335,0.502693 0.30999,0.517598 -0.11612,0.516383 -0.24138,-5.74e-4 -0.93319,-0.0862 -1.5372,-0.190198 -0.95467,-0.164371 -1.38066,-0.11118 -3.25986,0.40706 -1.18893,0.327882 -2.17176,0.589266 -2.18404,0.58097 -0.0123,-0.0083 -0.76086,-0.232186 -1.66346,-0.497721 -1.20049,-0.353159 -2.15066,-0.485465 -3.539455,-0.492384 -2.11632,-0.01055 -2.293435,-0.185279 -0.982524,-0.969954 0.889232,-0.532275 1.933032,-0.575571 3.749709,-0.155537 1.60131,0.370232 3.26114,0.368712 4.73026,-0.004 0.74465,-0.188994 1.55729,-0.284157 2.26972,-0.285297 z m 5.35033,0.187825 c 0.83807,0 1.04373,0.08923 1.63302,0.708662 0.70967,0.745954 1.26945,2.282202 1.26945,3.48432 0,1.039072 -0.55604,2.278082 -1.17277,2.613319 -0.85363,0.464 -0.91828,0.37636 -0.63924,-0.87012 0.48451,-2.164207 0.30628,-2.866729 -1.18207,-4.655148 -0.47704,-0.57322 -0.86753,-1.095937 -0.86753,-1.161638 0,-0.0657 0.43173,-0.119395 0.95914,-0.119395 z M 101.29532,62.2274 h 2.46279 c 2.30631,0 2.50854,0.03239 3.18263,0.507497 0.89503,0.630859 2.14,2.542831 2.55693,3.926937 0.17312,0.574753 0.3578,1.884125 0.41037,2.909577 0.0777,1.515978 0.02,2.125962 -0.30891,3.264204 -0.4688,1.622364 -1.54632,3.061908 -2.80157,3.742961 -1.00432,0.544903 -3.49823,0.694836 -4.69982,0.28263 -1.19933,-0.411427 -2.428261,-1.225063 -3.143171,-2.080937 -1.623959,-1.94417 -1.764239,-3.765177 -0.556368,-7.226689 1.010463,-2.895779 1.524519,-3.955472 2.287479,-4.717364 z M 74.089267,87.161312 c -0.0019,0.002 -0.0039,0.004 -0.0052,0.006 0.0019,0.0027 0.0026,0.0054 0.0039,0.0083 4.32e-4,-0.0047 0.0013,-0.0099 0.0019,-0.0145 z m -0.06257,0.07318 c -0.09763,0.111622 -0.145764,0.159675 -0.144312,0.235827 0.02561,-0.0073 0.04606,-0.03082 0.07526,-0.03082 0.0229,-0.05116 0.0487,-0.102988 0.07666,-0.154646 -0.0019,-0.01665 -0.0052,-0.0335 -0.0076,-0.05042 z m 60.605523,0.210051 c 0.12633,0.140144 0.22673,0.270908 0.30045,0.381583 0.006,-0.08796 -0.005,-0.213341 -0.10823,-0.283228 -0.0602,-0.04055 -0.12538,-0.0711 -0.19222,-0.09835 z m 0.33681,0.186639 c -0.004,0.06419 -0.0138,0.135591 -0.0265,0.210346 0.19799,0.30047 0.2078,0.402081 0.0589,-0.174197 -0.0108,-0.01202 -0.0161,-0.0184 -0.0324,-0.03619 z M 66.878182,124.46056 c -0.565863,0.1094 -1.131281,0.22152 -1.695879,0.33715 -0.431505,0.0884 0.878671,-0.0514 1.318207,-0.0426 0.221529,0.005 0.442884,0.0182 0.664309,0.0267 0.02309,-0.0269 0.04329,-0.0551 0.07215,-0.0794 0.05438,-0.0459 0.112026,-0.0838 0.168548,-0.12442 -0.175953,-0.0385 -0.351675,-0.0777 -0.527338,-0.11732 z m 81.188898,3.11637 c -0.11124,0.0304 -0.22206,0.0626 -0.33343,0.0924 0.0299,0.015 0.0605,0.0289 0.0899,0.0444 0.0984,-0.0541 0.15796,-0.0891 0.24351,-0.13688 z m -4.0665,4.16987 c -0.28455,0.0473 -0.56862,0.0978 -0.85259,0.14873 0.007,0.0182 0.0103,0.0406 0.005,0.0735 -0.0153,0.10264 -0.0362,0.20809 -0.0614,0.31434 0.5527,-0.14717 1.24648,-0.36033 1.70744,-0.52676 -0.24424,-0.006 -0.48245,-0.009 -0.79877,-0.01 z m -1.18179,0.20709 c -0.18043,0.0332 -0.36034,0.0696 -0.54059,0.10398 0.0665,0.0283 0.13235,0.0589 0.19645,0.0957 0.11583,-0.068 0.23635,-0.14164 0.34414,-0.19967 z m -77.353791,1.36783 c -0.03471,0.0132 -0.06842,0.0248 -0.103162,0.0382 -0.138797,0.0537 -0.06874,0.47209 0.07864,0.45891 0.529074,-0.0473 1.056818,-0.10788 1.583982,-0.17332 -0.523158,-0.0939 -1.044219,-0.19679 -1.559462,-0.32381 z m 3.73195,0.65444 c -0.393831,0.0275 -0.787708,0.0541 -1.181507,0.0818 -0.05025,0.003 -0.07844,0.005 -0.127959,0.009 0.761395,0.0139 1.522667,0.024 2.283817,0.0311 -0.324988,-0.0395 -0.649931,-0.0795 -0.974351,-0.12147 z m 12.450924,1.99769 c -0.915247,0.0175 -2.023176,0.0339 -3.028742,0.0518 0.361951,0.0193 0.724031,0.0345 1.086524,0.0379 0.600956,0.006 1.37313,0.007 2.270006,0.005 -0.01948,-0.006 -0.03916,-0.01 -0.05864,-0.0157 -0.08119,-0.0238 -0.180644,-0.0532 -0.269162,-0.0791 z" />
    <path
       style="color:#000000;fill:#c13c70;fill-opacity:1;stroke-width:0.14795;-inkscape-stroke:none"
       d="m 134.16241,52.694695 1.09371,3.97611 -51.100875,45.938865 -3.140749,-2.42378 z"
       id="rect1412-7" />
    <path
       style="color:#000000;display:inline;fill:#c13c70;fill-opacity:1;stroke-width:0.124274;-inkscape-stroke:none"
       d="m 135.87721,60.557731 0.91269,3.361796 -42.642921,38.841313 -2.6209,-2.04931 z"
       id="rect1412-3-4" />
    <path
       style="color:#000000;display:inline;fill:#c13c70;fill-opacity:1;stroke-width:0.124274;-inkscape-stroke:none"
       d="m 138.45541,67.318199 0.91269,3.3618 -41.501137,37.058751 -3.762682,-0.26674 z"
       id="rect1412-3-5-5" />
    <rect
       style="fill:#c13c70;fill-opacity:1;stroke-width:0.14795"
       id="rect2689"
       width="24.520023"
       height="5.2765441"
       x="90.362"
       y="45.890404" />
    <path
       style="fill:#ffffff;fill-opacity:0.994429;stroke:#ffffff;stroke-width:0.14795px;stroke-linecap:butt;stroke-linejoin:miter;stroke-opacity:1"
       d="m 113.2409,47.006593 c 6.27481,-0.304417 6.27481,-0.304417 6.27481,-0.304417 l 1.83417,2.841216 -7.24016,-0.608832 -0.86882,-1.927967"
       id="path2957" />
    <path
       style="fill:#ffffff;stroke:#ffffff;stroke-width:0.14795px;stroke-linecap:butt;stroke-linejoin:miter;stroke-opacity:1"
       d="m 119.51571,46.702176 1.83417,2.841216"
       id="path3156" />
    <path
       style="fill:#c13c70;fill-opacity:1;stroke:#000000;stroke-width:0.14795;stroke-opacity:0"
       id="path10092"
       d="m 102.13952,57.383582 a 2.9350274,2.7135765 0 0 1 -0.84508,3.659385 2.9350274,2.7135765 0 0 1 -3.994849,-0.600114 2.9350274,2.7135765 0 0 1 0.451528,-3.718508" />
    <rect
       style="fill:#c13c70;fill-opacity:1;stroke:#000000;stroke-width:0.112655;stroke-opacity:0"
       id="rect10196"
       width="15.38419"
       height="1.3506252"
       x="61.711689"
       y="90.191406"
       transform="matrix(0.93764833,-0.3475854,0.47779623,0.87847069,0,0)" />
    <path
       style="display:inline;fill:#c13c70;fill-opacity:1;stroke:#000000;stroke-width:0.306549px;stroke-linecap:butt;stroke-linejoin:miter;stroke-opacity:0"
       d="m 101.03202,54.833722 c 3.78716,-0.147716 6.38705,-1.898808 3.78716,-0.147716 -2.59989,1.751093 -3.25073,2.470504 -3.25073,2.470504 l -0.31741,3.420031 -5.198174,4.114251 4.114754,-4.596677 z"
       id="path11186" />
  </g>
</svg>
