<?xml version="1.0" encoding="UTF-8" standalone="no"?>
<!-- Created with Inkscape (http://www.inkscape.org/) -->

<svg
   width="165.33792mm"
   height="178.69119mm"
   viewBox="0 0 165.33793 178.6912"
   version="1.1"
   id="svg32693"
   xmlns="http://www.w3.org/2000/svg"
   >
  <defs
     id="defs32690" />
  <g
     id="layer1"
     transform="translate(34.13773,-1.2403266)">
    <g
       id="g18982"
       transform="matrix(0.64508583,0,0,0.67141067,-2.46469,-7.4995)">
      <path
         style="color:#000000;fill:#291f9b;fill-opacity:1;stroke-width:0.264583;-inkscape-stroke:none"
         d="m 71.161729,126.80665 53.142381,32.86705 -83.525151,111.32209 -11.36826,-36.8505 -41.77415,3.98345 z"
         id="rect16828-4-7-8-4" />
      <path
         style="color:#000000;fill:#291f9b;fill-opacity:1;stroke-width:0.264583;-inkscape-stroke:none"
         d="m 95.672789,127.53962 -53.14239,32.86705 83.525151,111.32209 11.36826,-36.8505 41.77415,3.98345 z"
         id="rect16828-4-7-8-4-2" />
      <path
         style="color:#000000;fill:#463cc1;fill-opacity:1;stroke-width:0.264583;-inkscape-stroke:none"
         d="m 64.110219,117.28367 53.142391,32.86705 -83.525181,111.32208 -11.36826,-36.85049 -41.77413,3.98344 z"
         id="rect16828-5" />
      <path
         style="color:#000000;fill:#463cc1;fill-opacity:1;stroke-width:0.264583;-inkscape-stroke:none"
         d="m 101.6245,116.44645 -53.142391,32.86706 83.525181,111.32208 11.36826,-36.85049 41.77413,3.98344 z"
         id="rect16828-5-5" />
      <path
         style="fill:#291f9b;fill-opacity:1"
         id="path16306-1-0"
         transform="matrix(0.14057033,0,0,0.15207579,348.59123,161.20834)"
         d="m -1518.2312,6.281801 -11.2855,105.787429 -106.3264,3.60848 -43.4233,97.12243 -102.2375,-29.42482 -71.3104,78.95041 -88.141,-59.57782 -92.2172,53.05018 -65.4165,-83.89892 -104.0972,21.95701 -36.2886,-100.007406 -105.7874,-11.285447 -3.6085,-106.326481 -97.1224,-43.423211 29.4248,-102.237575 -78.9504,-71.31041 59.5778,-88.14094 -53.0501,-92.21725 83.8989,-65.41646 -21.957,-104.09722 100.0074,-36.28856 11.2854,-105.78742 106.3265,-3.60849 43.4232,-97.12243 102.2376,29.42482 71.3104,-78.9504 88.1409,59.57781 92.2173,-53.05017 65.4164,83.89892 104.0973,-21.95702 36.2885,100.00741 105.7874,11.28545 3.6085,106.32648 97.1225,43.42321 -29.4249,102.23757 78.9504,71.31041 -59.5778,88.14095 53.0502,92.21724 -83.8989,65.41646 21.957,104.09722 z" />
      <path
         style="fill:#463cc1;fill-opacity:1"
         id="path16306-3"
         transform="matrix(0.14057033,0,0,0.14249392,348.59123,152.74813)"
         d="m -1518.2312,6.281801 -11.2855,105.787429 -106.3264,3.60848 -43.4233,97.12243 -102.2375,-29.42482 -71.3104,78.95041 -88.141,-59.57782 -92.2172,53.05018 -65.4165,-83.89892 -104.0972,21.95701 -36.2886,-100.007406 -105.7874,-11.285447 -3.6085,-106.326481 -97.1224,-43.423211 29.4248,-102.237575 -78.9504,-71.31041 59.5778,-88.14094 -53.0501,-92.21725 83.8989,-65.41646 -21.957,-104.09722 100.0074,-36.28856 11.2854,-105.78742 106.3265,-3.60849 43.4232,-97.12243 102.2376,29.42482 71.3104,-78.9504 88.1409,59.57781 92.2173,-53.05017 65.4164,83.89892 104.0973,-21.95702 36.2885,100.00741 105.7874,11.28545 3.6085,106.32648 97.1225,43.42321 -29.4249,102.23757 78.9504,71.31041 -59.5778,88.14095 53.0502,92.21724 -83.8989,65.41646 21.957,104.09722 z" />
      <circle
         style="fill:#291f9b;fill-opacity:1;stroke-width:0.287106"
         id="path16679-6"
         cx="79.162407"
         cy="107.57961"
         r="64.70533" />
      <ellipse
         style="fill:#463cc1;fill-opacity:1;stroke-width:0.242708"
         id="path16679-9-1"
         cx="80.485741"
         cy="107.11305"
         rx="55.501514"
         ry="53.908546" />
      <path
         id="path916-06"
         style="fill:#ffffff;stroke:none;stroke-width:0.346318"
         d="m 77.621079,59.708645 0.34831,0.344273 z m 0,0.344273 c -5.68461,2.956227 -10.97782,6.044101 -13.82133,12.050907 -1.04294,2.203566 -1.06558,4.705762 -2.03326,6.885927 -0.66708,1.502903 -2.13535,2.471847 -3.08213,3.787447 -2.13674,2.96966 -1.6167,6.061855 -0.57029,9.296281 -5.55396,2.184293 -9.68491,4.752455 -13.93363,8.952 l -1.04536,-0.68855 -2.78647,6.54208 -1.39367,-0.68898 -3.83139,13.42801 c -0.824,-1.00813 -1.12082,1.75854 -1.15195,6.11671 0.01,0.003 0.0201,0.005 0.0293,0.006 0.42537,-0.0247 0.73552,0.08 0.92692,0.24367 3.53608,0.73998 7.01132,2.73092 10.29747,4.09531 7.10096,2.94831 14.16823,5.97151 21.24897,8.96631 4.00246,1.69298 8.08189,3.87316 12.53998,3.97953 5.23594,0.12533 9.92597,-2.34173 14.6307,-4.32597 6.714641,-2.83195 13.495591,-5.51138 20.203601,-8.35711 3.5814,-1.51954 7.32445,-3.72689 11.18184,-4.46603 0.25997,-0.13602 0.51989,-0.27215 0.77996,-0.40801 -0.0253,-0.0143 -0.054,-0.0216 -0.0785,-0.0378 -0.13469,-0.0882 0.14904,-0.14442 0.40754,-0.13442 0.0723,-0.0377 0.14442,-0.0755 0.2167,-0.11316 -0.14389,-0.0227 -0.2953,-0.034 -0.42376,-0.0898 -0.0347,-0.0151 -0.0158,-0.0224 0.0303,-0.0234 0.1381,-0.004 0.51877,0.0476 0.41806,0.10018 -0.009,0.005 -0.0164,0.009 -0.0245,0.013 0.0658,0.0104 0.11444,0.0493 0.17371,0.0703 -0.15027,-4.91204 -0.69876,-7.64067 -1.88236,-5.63587 h -0.3483 c -0.10203,-4.89434 -1.97309,-9.01534 -3.83183,-13.428 l -1.39367,0.68898 c -0.45668,-1.95016 -1.36548,-6.02673 -3.83139,-5.85353 h -0.34831 c -3.52696,-3.632466 -8.22198,-8.064754 -13.58577,-8.607733 0.58279,-3.389356 1.75298,-6.070095 -0.33777,-9.29628 -0.978146,-1.509439 -2.817131,-2.539996 -3.530881,-4.190262 -2.42829,-5.612918 -2.69448,-9.913953 -8.32299,-13.713734 l 2.78647,-1.721377 -6.96661,-1.033258 0.69662,-1.721367 -9.40521,2.410352 z m 9.30123,21.430002 c 0.15113,0.0016 0.30179,0.0089 0.45228,0.02123 1.54559,0.126748 2.7945,0.994736 3.48351,2.305856 l -4.52843,-0.641283 -6.6183,1.678442 -5.92212,-1.560505 -5.22505,0.179073 c 3.18176,-3.792566 7.41465,-0.600599 11.49548,-0.818191 2.26118,-0.120413 4.59572,-1.193257 6.86263,-1.164637 z m -22.58782,0.0034 c 0.45659,-0.02651 0.93922,0.05227 1.4428,0.258422 v 0.688548 c -4.22331,2.412919 -4.92807,5.497488 -2.78646,9.640553 -5.05065,-0.226839 -3.07007,-10.331383 1.34366,-10.587523 z m 30.71691,0.291825 c 4.309785,0.03575 6.308851,9.471651 1.38007,10.295715 1.53061,-5.25381 1.04218,-6.002543 -2.78646,-9.984828 0.49019,-0.217433 0.96056,-0.314588 1.40639,-0.310887 z m -15.08955,8.067899 c 1.6201,0.03784 3.2143,0.25155 3.9143,0.71413 6.50877,4.302478 7.29608,18.056796 -1.03001,20.717606 -5.35435,1.7112 -12.0946,-1.75387 -13.0212,-7.49729 -0.37167,-2.30445 0.98449,-5.127588 1.80866,-7.230635 0.80084,-2.043114 1.8856,-5.65211 4.25953,-6.363439 0.80259,-0.240498 2.44861,-0.378247 4.06872,-0.340372 z m -5.12767,4.638168 3.6217,4.835019 1.6038,2.739459 4.52844,-7.574478 c -2.3405,0.0068 -3.57327,0.399845 -4.87675,2.409924 -1.55711,-1.740834 -2.50532,-2.401667 -4.87719,-2.409924 z m 4.94738,10.025578 c -2.22312,0.008 -4.46963,0.51879 -6.68892,1.33634 0.24663,0.80053 0.45765,1.3881 1.41385,1.51412 1.22513,0.16148 2.5847,-0.36675 3.81121,-0.45007 2.52514,-0.17216 6.18734,1.27103 8.01197,-0.71977 -2.12524,-1.19407 -4.32499,-1.68866 -6.54811,-1.68062 z m 29.035021,144.91362 c -0.16202,0.0189 -0.32404,0.0388 -0.48606,0.0577 0.1674,-0.006 0.32922,-0.026 0.48606,-0.0577 z" />
      <path
         id="path783-1"
         style="fill:none;stroke-width:0.298756"
         d="m -9.6068311,29.386041 v 88.066629 88.06616 H 44.098409 c -0.24055,-0.15484 -0.48368,-0.30743 -0.70933,-0.47738 -0.25745,0.026 -0.51458,0.0526 -0.77339,0.0676 -0.6042,0.0351 -0.30133,-0.13786 0.38253,-0.36769 -0.78421,-0.66845 -1.304,-1.40896 -1.13661,-2.10034 -0.17269,-0.003 -0.34539,-8.4e-4 -0.51807,-0.005 -2.8092,-0.0475 -5.59873,-0.47646 -8.398,-0.71458 -0.22801,-0.37123 -0.61493,-0.77343 -1.03001,-1.1811 -0.35851,0.0159 -0.71726,0.0258 -1.07738,0.0156 -0.55407,-0.0158 -0.13577,-0.23246 0.57202,-0.50905 -0.16641,-0.16254 -0.32733,-0.32387 -0.47859,-0.48345 -12.29136,0.17366 -24.7354701,0.27824 -26.6837301,0.0399 -0.40799,-0.0499 -0.67167,-0.29811 -0.85936,-0.65126 -0.0782,0.0182 -0.09,0.0209 -0.17021,0.0394 0.0419,-0.0449 0.0796,-0.0985 0.11931,-0.14786 -0.36336,-0.78049 -0.42293,-1.97952 -0.79619,-2.74639 8.1161301,-1.8326 6.8097204,-1.70028 14.2144001,-2.12722 0.012,-0.0154 0.0277,-0.0312 0.0403,-0.0468 -1.30144,-0.0152 -2.6029,-0.0265 -3.90421,-0.0516 -2.54991,-0.0494 -5.3050201,0.51829 -7.6338301,-0.50948 -0.4656,-0.20549 -1.01041,-0.59119 -1.50422,-1.0428 -0.17337,0.002 -0.34706,-4.4e-4 -0.52114,-0.009 -0.4077,-0.0191 -0.28723,-0.20807 0.0671,-0.4492 -0.78755,-0.87399 -1.25748,-1.88049 -0.57773,-2.47799 2.14275,-1.88347 5.58188,-1.2151 8.4694901,-1.46598 3.56608,-0.62133 5.48571,-0.94797 7.52987,-1.10784 -0.3354,-0.37504 -0.41171,-0.78022 -0.0426,-1.20713 0.25466,-0.2945 0.54735,-0.51603 0.86681,-0.68595 -0.44679,-0.20796 -0.871,-0.45799 -1.26294,-0.76226 -0.92244,-0.7161 -1.02638,-2.71376 -0.28645,-3.68469 -1.37588,0.0168 -2.75153,0.0205 -4.12749,0.003 -2.18113,-0.0285 -4.6531801,0.46432 -6.5090701,-0.66861 -0.86155,-0.52593 -0.38433,-2.66423 0.58738,-2.94584 3.2992401,-0.95613 6.8750101,-0.14199 10.3123801,-0.21289 2.85819,-0.0332 0.60418,-0.006 2.79568,-0.032 -0.59878,-0.20488 -1.16622,-0.47593 -1.68408,-0.84118 -0.83538,-0.58919 0.0782,-2.54985 1.05589,-2.85826 1.26493,-0.39905 2.56908,-0.6157 3.89062,-0.74925 -0.3317,-0.25061 -0.62689,-0.53127 -0.8677,-0.85417 -0.13518,-0.18128 -0.15338,-0.39458 -0.0961,-0.61572 -1.47555,-0.1066 -1.95056,-0.38639 0.62029,-1.04278 -2.77362,-0.0403 -5.07346,-0.28663 -7.86061,-1.21061 -0.95903,0.0578 -1.91757,0.12136 -2.87508,0.19729 -0.63516,0.0504 -2.47766,0.58753 -1.86613,0.41061 1.14553,-0.33141 2.28264,-0.71142 3.42123,-1.08398 -1.21878,-0.47052 -2.54134,-1.06264 -4.04503,-1.8211 -0.70899,-0.35762 1.54655,-0.40782 2.3399,-0.47176 7.70391,-0.62121 13.29393,-0.4739 21.01298,-0.4505 -0.11076,-0.35538 -0.26209,-0.7076 -0.34831,-1.04757 -0.1181,-0.46567 -0.22521,-0.93461 -0.30927,-1.40744 -0.0792,-0.44542 -0.11978,-0.89626 -0.17985,-1.34458 -0.11323,-0.65148 -0.21518,-1.30541 -0.33823,-1.95508 -0.11323,-0.25794 -0.20337,-0.53026 -0.26496,-0.80563 -0.13884,0.0723 -0.24193,0.11657 -0.18117,0.0329 0.0504,-0.0693 0.0982,-0.14552 0.14739,-0.21724 -0.0312,-0.17085 -0.0518,-0.33829 -0.0631,-0.50339 -0.34275,-0.48997 -0.67597,-1.16169 -1.03703,-2.096 -0.10187,-0.26364 0.12879,-0.36787 0.5295,-0.38808 -0.69405,-3.39657 -1.2568,-6.83686 -1.30814,-10.30091 -0.0651,-1.90577 -0.67258,-3.26547 1.63538,-4.0784 0.0181,-0.24943 0.0315,-0.52771 0.003,-0.64736 -0.18374,-0.77437 -0.48155,-1.54024 -0.3742,-2.35615 -10e-6,-1.05947 -10e-5,-2.11878 0,-3.17826 -1.6e-4,-0.86731 -8.5e-4,-1.73469 8.5e-4,-2.60199 4.5e-4,-0.25653 -8.5e-4,-0.51312 -0.003,-0.76964 -0.30702,-0.57199 -0.26832,-1.11898 0.007,-1.49721 7e-5,-0.005 4.4e-4,-0.0121 4.4e-4,-0.0182 -0.005,-0.0191 -0.0137,-0.0371 -0.0184,-0.0564 -0.11918,-0.48915 -0.0552,-0.57875 0.0249,-1.0584 0.0379,-0.0986 0.0782,-0.13824 0.11625,-0.21117 -0.009,-0.011 -0.019,-0.0214 -0.0277,-0.0329 -0.009,-0.0121 0.006,0.005 0.0294,0.029 0.0835,-0.15894 0.18073,-0.26855 0.28426,-0.3213 0.0345,-0.22042 0.10953,-0.5184 0.22505,-0.92355 0.0186,-0.0651 0.12826,-0.0266 0.2553,0.0451 0.0354,-0.006 0.0892,-0.006 0.16932,-0.005 -0.0124,-0.0982 -0.0224,-0.19693 -0.0289,-0.29572 -0.003,-0.0433 0.0861,-0.0174 0.12984,-0.0216 0.0627,-0.005 0.15033,-0.0145 0.24215,-0.0152 0.0864,-6.7e-4 0.17613,0.005 0.25137,0.0265 0.13745,-0.008 0.26263,-0.003 0.37595,0.0143 0.002,-4.4e-4 0.003,-0.0139 0.005,-0.0139 0.84017,0 3.74431,0.99485 6.66083,2.28202 8.51554,3.75823 32.46612,13.78426 34.00522,14.23492 2.31672,0.67836 6.29174,0.68536 8.83054,0.0156 1.07428,-0.28339 3.37298,-1.09317 5.10837,-1.79941 8.23798,-3.35261 25.803321,-10.72596 29.298661,-12.29849 3.61817,-1.6278 6.62625,-2.67648 6.88896,-2.40169 9e-5,1.1e-4 2.1e-4,0.0267 4.3e-4,0.0268 0.2119,-0.11084 0.4237,-0.22183 0.63565,-0.33256 -0.0253,-0.0143 -0.054,-0.0216 -0.0785,-0.0378 -0.1347,-0.0883 0.14902,-0.14442 0.40752,-0.13441 0.0723,-0.0377 0.14442,-0.0756 0.2167,-0.11317 -0.14388,-0.0227 -0.29529,-0.034 -0.42376,-0.0897 -0.0347,-0.0151 -0.0158,-0.0224 0.0303,-0.0234 0.1381,-0.004 0.51875,0.0476 0.41805,0.10016 -0.009,0.005 -0.0164,0.009 -0.0246,0.0131 0.13504,0.0213 0.26312,0.0527 0.35665,0.14438 0.11996,0.11751 0.20691,0.26036 0.28601,0.40932 0.0493,0.0346 0.11694,0.0774 0.16186,0.11056 0.0148,0.005 0.0305,0.005 0.0452,0.0104 0.003,0.006 0.0108,0.0224 0.014,0.0299 0.51065,0.38575 0.71912,0.6967 0.6931,1.2249 0.7227,0.74498 0.63947,1.20593 0.5014,2.08819 0.0116,0.002 0.0254,0.008 0.0334,0.005 -0.0154,0.0565 -0.0289,0.10255 -0.0466,0.16953 0.0979,0.18206 0.24666,0.35076 0.28821,0.54936 0.0281,0.0627 0.0435,0.12437 0.0641,0.18646 0.40597,1.02638 0.20551,2.47603 0.0882,3.42842 -0.0285,0.17655 -0.0941,0.35085 -0.0855,0.52942 0.0119,0.24766 0.20026,0.45883 0.24916,0.70199 0.15784,0.78468 0.18431,1.48268 0.14696,2.27248 -0.12157,0.88767 -0.0568,1.78806 -0.0447,2.68092 0.003,0.55883 0.0177,0.80637 -0.3812,1.06274 0.23559,0.37747 0.47421,0.911 0.72468,1.62815 0.0898,0.25714 -0.30861,0.45231 -0.49,0.6569 -0.057,0.0643 -0.1087,0.11273 -0.1645,0.17387 -0.34217,1.57411 -0.78935,2.62843 -1.51474,4.2024 -0.22583,0.48998 -0.49075,0.96217 -0.7247,1.4482 -0.10521,0.44917 -0.23282,0.92462 -0.35883,1.38101 -0.017,0.26635 -0.0471,0.51066 -0.0991,0.70806 0.40267,-0.1542 1.07437,0.0134 2.52326,0.5034 0.27746,0.0938 0.13,0.56848 0.14256,0.85809 0.0206,0.47522 -0.0366,0.95091 -0.0435,1.42653 -0.0103,0.71779 -0.006,1.43578 -0.009,2.15366 0.0326,0.67498 0.10546,2.44949 0.19126,3.0859 0.024,0.17734 0.16739,0.38719 0.24477,0.57104 8.5e-4,0.003 0.002,0.005 0.003,0.007 0.0541,0.13169 0.0779,0.25168 -0.0281,0.32649 -1.95693,1.38084 -2.45818,1.62409 -2.79524,1.09179 0.0377,0.69862 0.0688,1.39755 0.0922,2.09687 0.83874,-0.0862 1.4473,-0.15336 2.46273,-0.25495 1.48048,-0.14813 3.47736,-1.47983 4.44861,-0.36552 0.18193,0.20872 0.25403,0.45471 0.2518,0.71803 1.40422,-0.28001 3.22156,-1.43392 3.97878,-0.3447 0.36195,0.52064 0.1921,1.15826 -0.19697,1.77123 0.4363,0.33446 0.67701,0.73349 0.48124,1.18545 -0.33048,0.7629 -1.25978,0.71521 -2.25436,0.57885 -0.0335,0.0228 -0.07,0.0518 -0.10265,0.0733 -0.47596,0.31115 -1.01125,0.48185 -1.57265,0.58925 -0.11741,0.10415 -0.24337,0.19185 -0.37727,0.26407 0.39189,-0.029 1.02759,-0.0755 1.45071,-0.10667 2.68046,-0.26662 5.7339,-0.56761 8.73271,-0.84552 1.20635,-0.29864 2.42038,-0.62915 3.48351,-0.30959 2.96307,-0.25215 5.31979,-0.41672 5.82604,-0.33993 0.27239,0.0412 0.47961,0.17525 0.64793,0.36508 0.009,-0.004 0.0107,-0.005 0.0193,-0.007 -0.003,0.006 -0.005,0.0141 -0.008,0.0204 0.55873,0.64592 0.66004,1.94504 1.11291,2.74205 -4.26967,1.65306 -5.33971,2.15151 -7.95319,2.77198 -0.01,0.19091 -0.32437,0.21078 -0.75056,0.1678 -0.6997,0.15636 -1.78778,0.3794 -2.77945,0.58015 0.22617,0.44762 0.36308,0.96439 0.34042,1.39791 0.0742,-0.003 0.1367,-0.005 0.21143,-0.007 1.2017,-0.0371 4.49678,-0.72735 3.60591,0.0706 -1.01313,0.90752 -2.0688,1.65596 -3.15845,2.28374 0.9088,0.19058 1.88634,0.40476 3.09616,0.68595 0.16505,0.0383 0.20589,0.0592 0.19345,0.0733 0.0308,0.005 0.0614,0.0112 0.0922,0.0164 0.38159,-0.0561 0.76275,-0.11517 1.14408,-0.173 1.63957,-0.37374 3.2803,-0.74293 4.925,-1.09396 0.87821,-0.18745 -1.70447,0.59054 -2.59126,0.7332 -0.77704,0.12502 -1.55551,0.24273 -2.33374,0.36076 -0.30959,0.0705 -0.61921,0.14059 -0.92869,0.21159 2.25661,0.3883 4.4951,0.84543 6.66568,1.55444 0.98276,0.32102 -1.97206,0.65043 -2.99352,0.81559 -0.006,8.4e-4 -0.0121,0.002 -0.018,0.003 0.25523,0.0191 0.51041,0.0368 0.76548,0.062 0.15406,0.0152 0.31711,0.0495 0.48299,0.0945 0.82096,-0.35497 1.58084,-0.56674 2.05299,0.0234 0.10744,0.13429 0.15922,0.27929 0.17065,0.43013 0.5678,-0.12186 1.13508,-0.24691 1.70337,-0.36639 1.42464,-0.29952 4.95579,-1.89871 4.3271,-0.60009 -0.4858,1.00346 -1.30988,1.73814 -2.25304,2.37827 0.91297,0.087 1.80926,0.24411 2.66628,0.56367 1.27761,0.47637 -2.72305,0.26962 -4.05863,0.55066 -0.2396,0.0505 -0.4786,0.10353 -0.71811,0.15436 -0.72924,0.41501 -1.44762,0.83892 -2.0824,1.32897 -1.29094,0.33342 -2.57678,0.68669 -3.86428,1.03412 0.2055,0.0116 0.36083,0.0237 0.4185,0.0364 0.23905,0.0526 0.41868,0.17686 0.56149,0.34644 0.18944,-0.0301 0.23445,-0.0374 0.43342,-0.069 -0.0799,0.13533 -0.14614,0.29046 -0.20793,0.45181 0.32094,0.71352 0.35796,1.77238 0.68258,2.48146 -1.07553,0.1696 -1.51873,0.23977 -2.34604,0.37159 -0.22548,0.76394 -1.78606,1.09649 -4.11214,1.1629 -0.0406,0.56819 -0.0895,0.9849 -0.18424,1.2778 2.24961,-0.25679 4.51116,-0.7051 6.7069,-0.26578 0.21595,0.0432 0.46375,0.0967 0.72205,0.15608 1.36383,-0.4727 2.68549,-0.77041 3.75112,-0.0156 0.5471,0.38753 0.28595,0.82081 -0.34524,1.23402 0.74629,0.46102 1.16276,1.02607 0.79532,1.70272 -1.14425,2.10715 -4.78486,0.71503 -7.17716,1.07271 -2.33266,0.25222 -4.66363,0.5198 -6.99512,0.78352 0.14243,0.14465 0.27448,0.30286 0.39657,0.47435 0.4017,0.0713 0.81002,0.14652 1.23223,0.23197 0.14076,-0.0179 0.28172,-0.034 0.42245,-0.052 1.11597,-0.32709 1.97037,-0.57111 1.28575,-0.32346 -0.21263,0.0769 -0.42429,0.16084 -0.63652,0.24021 1.06916,-0.13859 2.13828,-0.27753 3.20804,-0.41062 0.61141,-0.18052 1.22353,-0.35643 1.83937,-0.51728 0.4317,-0.11276 -0.84131,0.29543 -1.26207,0.44314 -0.19258,0.0234 -0.38479,0.0502 -0.5773,0.0742 -0.9402,0.27761 -1.87763,0.56816 -2.81454,0.85981 1.30623,0.29643 2.74898,0.66498 4.34595,1.10003 0.11665,-0.0444 0.23246,-0.0911 0.34919,-0.13527 0.18981,-0.0719 0.0209,0.0317 -0.24303,0.16433 0.37982,0.10375 0.7457,0.20174 1.14582,0.31392 0.6186,0.17344 -1.22678,0.38103 -1.84025,0.57148 -0.67058,0.0811 -1.34042,0.17039 -2.01044,0.25669 1.41081,0.37199 2.79876,0.80132 4.10556,1.43433 0.60976,0.29537 -1.22991,0.61024 -1.8977,0.73191 -2.76161,0.50316 -5.5461,0.88457 -8.33659,1.19976 -0.68666,0.35956 -1.32744,0.68114 -1.91262,0.9526 0.35576,0.16864 0.71976,0.35699 1.09098,0.56368 0.0594,0.002 0.1183,0.009 0.17767,0.0109 h 27.0829 V 117.45267 29.386041 H 79.341579 Z M 150.68418,199.48363 c -0.0353,-0.01 -0.0711,-0.0195 -0.10616,-0.029 -0.39454,0.15033 -0.78717,0.30554 -1.18092,0.45788 0.12167,-0.0212 0.24382,-0.0396 0.36543,-0.0611 0.22082,-0.0391 0.63035,-0.22135 0.92165,-0.36768 z m -22.61283,-68.44687 c -0.004,-0.007 -0.005,-0.0155 -0.009,-0.023 -0.007,0.0473 -0.0123,0.0786 -0.0193,0.12834 -0.005,0.036 0.0176,-0.0638 0.0285,-0.10536 z m -0.009,-0.023 c 0.009,-0.0557 0.0141,-0.099 0.0223,-0.15133 -0.0416,-0.006 -0.0932,-0.0307 -0.0855,-8.4e-4 0.0135,0.0527 0.0379,0.10256 0.0631,0.1522 z m -1.17214,-3.46443 c -0.0158,-0.012 -0.0428,-0.0282 -0.0592,-0.0403 -0.0393,-0.0107 -0.0799,-0.0184 -0.11977,-0.0277 0.14429,0.2892 0.26436,0.59752 0.4821,0.83207 0.18954,0.20415 -0.18545,-0.48325 -0.30312,-0.76399 z M 79.240269,53.258046 c 3.6334,0.03012 7.27711,0.279766 9.41661,0.735811 10.52519,2.243489 18.678601,6.578715 26.015611,13.83298 4.43032,4.380351 7.01378,7.940304 9.40958,12.966654 4.69159,9.842867 6.0159,22.277739 3.47694,32.641909 -0.74565,3.04384 -2.84692,8.02671 -3.38482,8.02671 -0.15464,0 -0.37231,-0.79712 -0.48385,-1.77166 -0.45749,-3.99684 -3.20988,-11.76247 -4.0538,-11.43738 -0.26329,0.10142 -0.59066,0.20802 -0.72732,0.23674 -0.13666,0.0288 -0.48634,-0.69195 -0.7769,-1.60127 -0.89635,-2.80512 -2.00241,-4.13866 -3.43264,-4.13866 -0.20502,0 -1.04376,-0.67868 -1.86392,-1.50848 -3.32336,-3.362398 -7.12816,-5.863233 -10.0575,-6.610155 -1.87335,-0.477658 -1.75098,-0.05319 -1.34323,-4.668516 0.19671,-2.226548 0.14703,-2.712262 -0.40051,-3.935742 -0.34355,-0.767654 -1.290546,-2.097426 -2.104751,-2.954951 -1.70532,-1.79602 -2.02485,-2.368073 -3.35762,-6.014399 -1.56778,-4.289279 -2.86329,-6.480285 -4.99958,-8.455535 -1.05361,-0.97418 -1.91569,-1.812164 -1.91569,-1.862289 0,-0.05009 0.47348,-0.343342 1.05193,-0.65126 0.57847,-0.307917 1.05151,-0.649396 1.05151,-0.758793 0,-0.109397 -1.31848,-0.3688 -2.92991,-0.576676 -1.61143,-0.207885 -3.02591,-0.436125 -3.14354,-0.507311 -0.11764,-0.07115 -0.0873,-0.458931 0.0676,-0.861552 0.15487,-0.402623 0.2513,-0.731709 0.21407,-0.731047 -0.0373,6.72e-4 -2.09171,0.528615 -4.56529,1.173314 -2.47359,0.644707 -4.53733,1.13245 -4.58636,1.083987 -0.049,-0.04849 0.12321,-0.59089 0.38297,-1.205391 0.25977,-0.6145 0.41062,-1.178053 0.33515,-1.252662 -0.0755,-0.07459 -1.46856,0.641392 -3.09574,1.591297 -3.44557,2.011448 -7.91705,6.179904 -9.19331,8.570009 -0.43943,0.822931 -1.22039,3.027916 -1.7354,4.900055 -0.52782,1.918756 -1.22321,3.746903 -1.5937,4.190262 -2.70876,3.241472 -3.2268,3.973492 -3.50018,4.946454 -0.43003,1.530374 -0.38219,3.783227 0.11932,5.645406 l 0.42419,1.575246 -0.7826,0.293981 c -3.41122,1.281921 -7.89487,4.018499 -11.22218,6.849068 -1.4742,1.2541 -2.24597,1.72141 -2.63863,1.59823 -0.46896,-0.14711 -0.75627,0.3122 -1.85385,2.96232 -1.01539,2.45167 -1.4016,3.09685 -1.76873,2.95538 -0.25831,-0.0995 -0.58873,-0.20411 -0.73434,-0.23283 -0.14562,-0.0288 -1.09215,2.84357 -2.10345,6.38338 -1.01131,3.53982 -1.93022,6.52641 -2.04203,6.63661 -0.30702,0.30257 -1.98158,-2.73553 -2.6211,-4.75566 -1.41926,-4.48328 -2.26739,-12.99794 -1.82707,-18.337615 1.81815,-22.048546 17.83112,-40.03315 39.52024,-44.38582 2.09731,-0.420905 5.72048,-0.610289 9.35387,-0.580149 z m -15.12068,29.888565 c 1.16632,0 1.39893,0.09247 1.39893,0.555875 0,0.305661 -0.47563,0.873569 -1.05677,1.262195 -0.58115,0.388618 -1.40855,1.204828 -1.83893,1.813724 -1.26463,1.789181 -1.25614,3.535981 0.0324,6.541218 0.29369,0.684939 -0.64115,0.705647 -1.60907,0.03557 -2.22531,-1.540627 -1.93602,-6.456926 0.5308,-9.020071 1.01507,-1.054704 1.30145,-1.188491 2.54258,-1.188491 z m 22.21011,0.02215 c 1.10885,-0.0016 2.06166,0.134383 2.59784,0.408444 0.46308,0.23669 1.06827,0.771296 1.34453,1.188047 0.48771,0.735719 0.48248,0.757535 -0.18072,0.755757 -0.37569,-8.4e-4 -1.45245,-0.126161 -2.39255,-0.278367 -1.48586,-0.240566 -2.14889,-0.162718 -5.0737,0.595757 -1.85049,0.479873 -3.38018,0.862425 -3.39931,0.850284 -0.0191,-0.01216 -1.18422,-0.339819 -2.58905,-0.728445 -1.86847,-0.516867 -3.34733,-0.710506 -5.50889,-0.720633 -3.29388,-0.01544 -3.56954,-0.271167 -1.52922,-1.419585 1.38403,-0.779014 3.00862,-0.84238 5.83614,-0.227636 2.49231,0.541855 5.07571,0.539632 7.36228,-0.0058 1.159,-0.276604 2.42381,-0.415879 3.53265,-0.417549 z m 8.32737,0.274892 c 1.3044,0 1.6245,0.130599 2.54169,1.037167 1.10454,1.091748 1.97579,3.340137 1.97579,5.099507 0,1.520741 -0.86542,3.334104 -1.82533,3.824744 -1.3286,0.679091 -1.42923,0.550824 -0.99492,-1.273472 0.75411,-3.167442 0.47671,-4.195623 -1.8398,-6.813081 -0.74249,-0.83894 -1.35024,-1.603967 -1.35024,-1.700123 0,-0.09616 0.67194,-0.174742 1.49281,-0.174742 z m -19.48375,8.168064 h 3.83314 c 3.58959,0 3.90436,0.04741 4.95352,0.742751 1.39305,0.923299 3.33076,3.721581 3.97966,5.747301 0.26946,0.841189 0.5569,2.757531 0.63871,4.258331 0.12095,2.21872 0.0312,3.11147 -0.48079,4.77735 -0.72966,2.37443 -2.40672,4.48129 -4.36042,5.47805 -1.56314,0.7975 -5.44474,1.01694 -7.31491,0.41365 -1.86668,-0.60215 -3.77941,-1.79295 -4.89211,-3.04558 -2.52757,-2.8454 -2.74591,-5.51055 -0.86594,-10.57668 1.5727,-4.238139 2.37279,-5.789062 3.56028,-6.904136 z m -42.34443,36.492223 c -0.003,0.004 -0.006,0.005 -0.009,0.009 0.003,0.005 0.004,0.008 0.006,0.0121 6.8e-4,-0.006 0.002,-0.0144 0.003,-0.0213 z m -0.0974,0.1071 c -0.15196,0.16336 -0.22687,0.23369 -0.22461,0.34514 0.0399,-0.0107 0.0716,-0.0452 0.11713,-0.0452 0.0357,-0.0748 0.0758,-0.15073 0.11931,-0.22633 -0.003,-0.0244 -0.008,-0.0491 -0.0118,-0.0736 z m 94.327861,0.30742 c 0.19661,0.20512 0.35288,0.39649 0.46762,0.55847 0.01,-0.12874 -0.007,-0.31223 -0.16845,-0.41452 -0.0937,-0.0594 -0.19515,-0.10405 -0.29917,-0.14395 z m 0.52421,0.27317 c -0.006,0.0939 -0.0214,0.19844 -0.0412,0.30785 0.30814,0.43975 0.32341,0.58846 0.0917,-0.25495 -0.0169,-0.0176 -0.0251,-0.0269 -0.0505,-0.0529 z M 21.605339,182.69355 c -0.88072,0.16012 -1.76075,0.32422 -2.63951,0.49343 -0.67159,0.12936 1.36759,-0.0752 2.05169,-0.0624 0.3448,0.006 0.68932,0.0266 1.03396,0.0391 0.036,-0.0394 0.0674,-0.0807 0.11229,-0.11619 0.0847,-0.0672 0.17436,-0.12266 0.26234,-0.18211 -0.27386,-0.0563 -0.54736,-0.11379 -0.82077,-0.17171 z m 126.364311,4.56099 c -0.17314,0.0444 -0.34561,0.0916 -0.51896,0.13528 0.0466,0.0219 0.0941,0.0423 0.13995,0.0651 0.1531,-0.0792 0.24585,-0.1304 0.37901,-0.20031 z m -6.32921,6.10285 c -0.44286,0.0693 -0.885,0.14307 -1.32698,0.21766 0.0107,0.0266 0.016,0.0595 0.009,0.10753 -0.0239,0.15022 -0.0563,0.30455 -0.0957,0.46005 0.86024,-0.21539 1.94006,-0.52735 2.6575,-0.77093 -0.38013,-0.009 -0.75089,-0.0135 -1.24322,-0.0143 z m -1.83935,0.30309 c -0.28083,0.0486 -0.56085,0.10189 -0.84139,0.15219 0.1035,0.0413 0.206,0.0862 0.30576,0.14004 0.18028,-0.0995 0.36785,-0.20731 0.53563,-0.29223 z m -120.395261,2.00191 c -0.054,0.0193 -0.10649,0.0362 -0.16056,0.0559 -0.21604,0.0786 -0.10699,0.69093 0.12239,0.67163 0.82347,-0.0693 1.64487,-0.15788 2.46535,-0.25365 -0.81425,-0.13746 -1.62525,-0.28801 -2.42718,-0.47392 z m 5.80849,0.9578 c -0.61296,0.0401 -1.22599,0.0792 -1.83892,0.11968 -0.0781,0.005 -0.12208,0.007 -0.19916,0.0126 1.18506,0.0204 2.36992,0.035 3.55459,0.0455 -0.50582,-0.0579 -1.01158,-0.11639 -1.51651,-0.17778 z m 19.37891,2.92373 c -1.42451,0.0255 -3.14891,0.0495 -4.714,0.0758 0.56335,0.0282 1.1269,0.0505 1.69109,0.0555 0.93534,0.008 2.13718,0.0109 3.53309,0.007 -0.0303,-0.008 -0.061,-0.0146 -0.0913,-0.023 -0.12636,-0.0349 -0.28116,-0.0779 -0.41894,-0.11576 z" />
      <path
         id="path822-5"
         style="fill:none;stroke-width:0.298756"
         d="m -9.6068311,29.386041 v 88.066629 88.06616 H 44.098409 c -0.24055,-0.15484 -0.48368,-0.30743 -0.70933,-0.47738 -0.25745,0.026 -0.51458,0.0526 -0.77339,0.0676 -0.6042,0.0351 -0.30133,-0.13786 0.38253,-0.36769 -0.78421,-0.66845 -1.304,-1.40896 -1.13661,-2.10034 -0.17269,-0.003 -0.34539,-8.4e-4 -0.51807,-0.005 -2.8092,-0.0475 -5.59873,-0.47646 -8.398,-0.71458 -0.22801,-0.37123 -0.61493,-0.77343 -1.03001,-1.1811 -0.35851,0.0159 -0.71726,0.0258 -1.07738,0.0156 -0.55407,-0.0158 -0.13577,-0.23246 0.57202,-0.50905 -0.16641,-0.16254 -0.32733,-0.32387 -0.47859,-0.48345 -12.29136,0.17366 -24.7354701,0.27824 -26.6837301,0.0399 -0.40799,-0.0499 -0.67167,-0.29811 -0.85936,-0.65126 -0.0782,0.0182 -0.09,0.0209 -0.17021,0.0394 0.0419,-0.0449 0.0796,-0.0985 0.11931,-0.14786 -0.36336,-0.78049 -0.42293,-1.97952 -0.79619,-2.74639 8.1161301,-1.8326 6.8097204,-1.70028 14.2144001,-2.12722 0.012,-0.0154 0.0277,-0.0312 0.0403,-0.0468 -1.30144,-0.0152 -2.6029,-0.0265 -3.90421,-0.0516 -2.54991,-0.0494 -5.3050201,0.51829 -7.6338301,-0.50948 -0.4656,-0.20549 -1.01041,-0.59119 -1.50422,-1.0428 -0.17337,0.002 -0.34706,-4.4e-4 -0.52114,-0.009 -0.4077,-0.0191 -0.28723,-0.20807 0.0671,-0.4492 -0.78755,-0.87399 -1.25748,-1.88049 -0.57773,-2.47799 2.14275,-1.88347 5.58188,-1.2151 8.4694901,-1.46598 3.56608,-0.62133 5.48571,-0.94797 7.52987,-1.10784 -0.3354,-0.37504 -0.41171,-0.78022 -0.0426,-1.20713 0.25466,-0.2945 0.54735,-0.51603 0.86681,-0.68595 -0.44679,-0.20796 -0.871,-0.45799 -1.26294,-0.76226 -0.92244,-0.7161 -1.02638,-2.71376 -0.28645,-3.68469 -1.37588,0.0168 -2.75153,0.0205 -4.12749,0.003 -2.18113,-0.0285 -4.6531801,0.46432 -6.5090701,-0.66861 -0.86155,-0.52593 -0.38433,-2.66423 0.58738,-2.94584 3.2992401,-0.95613 6.8750101,-0.14199 10.3123801,-0.21289 2.85819,-0.0332 0.60418,-0.006 2.79568,-0.032 -0.59878,-0.20488 -1.16622,-0.47593 -1.68408,-0.84118 -0.83538,-0.58919 0.0782,-2.54985 1.05589,-2.85826 1.26493,-0.39905 2.56908,-0.6157 3.89062,-0.74925 -0.3317,-0.25061 -0.62689,-0.53127 -0.8677,-0.85417 -0.13518,-0.18128 -0.15338,-0.39458 -0.0961,-0.61572 -1.47555,-0.1066 -1.95056,-0.38639 0.62029,-1.04278 -2.77362,-0.0403 -5.07346,-0.28663 -7.86061,-1.21061 -0.95903,0.0578 -1.91757,0.12136 -2.87508,0.19729 -0.63516,0.0504 -2.47766,0.58753 -1.86613,0.41061 1.14553,-0.33141 2.28264,-0.71142 3.42123,-1.08398 -1.21878,-0.47052 -2.54134,-1.06264 -4.04503,-1.8211 -0.70899,-0.35762 1.54655,-0.40782 2.3399,-0.47176 7.70391,-0.62121 13.29393,-0.4739 21.01298,-0.4505 -0.11076,-0.35538 -0.26209,-0.7076 -0.34831,-1.04757 -0.1181,-0.46567 -0.22521,-0.93461 -0.30927,-1.40744 -0.0792,-0.44542 -0.11978,-0.89626 -0.17985,-1.34458 -0.11323,-0.65148 -0.21518,-1.30541 -0.33823,-1.95508 -0.11323,-0.25794 -0.20337,-0.53026 -0.26496,-0.80563 -0.13884,0.0723 -0.24193,0.11657 -0.18117,0.0329 0.0504,-0.0693 0.0982,-0.14552 0.14739,-0.21724 -0.0312,-0.17085 -0.0518,-0.33829 -0.0631,-0.50339 -0.34275,-0.48997 -0.67597,-1.16169 -1.03703,-2.096 -0.10187,-0.26364 0.12879,-0.36787 0.5295,-0.38808 -0.69405,-3.39657 -1.2568,-6.83686 -1.30814,-10.30091 -0.0651,-1.90577 -0.67258,-3.26547 1.63538,-4.0784 0.0181,-0.24943 0.0315,-0.52771 0.003,-0.64736 -0.18374,-0.77437 -0.48155,-1.54024 -0.3742,-2.35615 -10e-6,-1.05947 -10e-5,-2.11878 0,-3.17826 -1.6e-4,-0.86731 -8.5e-4,-1.73469 8.5e-4,-2.60199 4.5e-4,-0.25653 -8.5e-4,-0.51312 -0.003,-0.76964 -0.30702,-0.57199 -0.26832,-1.11898 0.007,-1.49721 7e-5,-0.005 4.4e-4,-0.0121 4.4e-4,-0.0182 -0.005,-0.0191 -0.0137,-0.0371 -0.0184,-0.0564 -0.11918,-0.48915 -0.0552,-0.57875 0.0249,-1.0584 0.0379,-0.0986 0.0782,-0.13824 0.11625,-0.21117 -0.009,-0.011 -0.019,-0.0214 -0.0277,-0.0329 -0.009,-0.0121 0.006,0.005 0.0294,0.029 0.0835,-0.15894 0.18073,-0.26855 0.28426,-0.3213 0.0345,-0.22042 0.10953,-0.5184 0.22505,-0.92355 0.0186,-0.0651 0.12826,-0.0266 0.2553,0.0451 0.0354,-0.006 0.0892,-0.006 0.16932,-0.005 -0.0124,-0.0982 -0.0224,-0.19693 -0.0289,-0.29572 -0.003,-0.0433 0.0861,-0.0174 0.12984,-0.0216 0.0627,-0.005 0.15033,-0.0145 0.24215,-0.0152 0.0864,-6.7e-4 0.17613,0.005 0.25137,0.0265 0.13745,-0.008 0.26263,-0.003 0.37595,0.0143 0.002,-4.4e-4 0.003,-0.0139 0.005,-0.0139 0.84017,0 3.74431,0.99485 6.66083,2.28202 8.51554,3.75823 32.46612,13.78426 34.00522,14.23492 2.31672,0.67836 6.29174,0.68536 8.83054,0.0156 1.07428,-0.28339 3.37298,-1.09317 5.10837,-1.79941 8.23798,-3.35261 25.803321,-10.72596 29.298661,-12.29849 3.61817,-1.6278 6.62625,-2.67648 6.88896,-2.40169 9e-5,1.1e-4 2.1e-4,0.0267 4.3e-4,0.0268 0.2119,-0.11084 0.4237,-0.22183 0.63565,-0.33256 -0.0253,-0.0143 -0.054,-0.0216 -0.0785,-0.0378 -0.1347,-0.0883 0.14902,-0.14442 0.40752,-0.13441 0.0723,-0.0377 0.14442,-0.0756 0.2167,-0.11317 -0.14388,-0.0227 -0.29529,-0.034 -0.42376,-0.0897 -0.0347,-0.0151 -0.0158,-0.0224 0.0303,-0.0234 0.1381,-0.004 0.51875,0.0476 0.41805,0.10016 -0.009,0.005 -0.0164,0.009 -0.0246,0.0131 0.13504,0.0213 0.26312,0.0527 0.35665,0.14438 0.11996,0.11751 0.20691,0.26036 0.28601,0.40932 0.0493,0.0346 0.11694,0.0774 0.16186,0.11056 0.0148,0.005 0.0305,0.005 0.0452,0.0104 0.003,0.006 0.0108,0.0224 0.014,0.0299 0.51065,0.38575 0.71912,0.6967 0.6931,1.2249 0.7227,0.74498 0.63947,1.20593 0.5014,2.08819 0.0116,0.002 0.0254,0.008 0.0334,0.005 -0.0154,0.0565 -0.0289,0.10255 -0.0466,0.16953 0.0979,0.18206 0.24666,0.35076 0.28821,0.54936 0.0281,0.0627 0.0435,0.12437 0.0641,0.18646 0.40597,1.02638 0.20551,2.47603 0.0882,3.42842 -0.0285,0.17655 -0.0941,0.35085 -0.0855,0.52942 0.0119,0.24766 0.20026,0.45883 0.24916,0.70199 0.15784,0.78468 0.18431,1.48268 0.14696,2.27248 -0.12157,0.88767 -0.0568,1.78806 -0.0447,2.68092 0.003,0.55883 0.0177,0.80637 -0.3812,1.06274 0.23559,0.37747 0.47421,0.911 0.72468,1.62815 0.0898,0.25714 -0.30861,0.45231 -0.49,0.6569 -0.057,0.0643 -0.1087,0.11273 -0.1645,0.17387 -0.34217,1.57411 -0.78935,2.62843 -1.51474,4.2024 -0.22583,0.48998 -0.49075,0.96217 -0.7247,1.4482 -0.10521,0.44917 -0.23282,0.92462 -0.35883,1.38101 -0.017,0.26635 -0.0471,0.51066 -0.0991,0.70806 0.40267,-0.1542 1.07437,0.0134 2.52326,0.5034 0.27746,0.0938 0.13,0.56848 0.14256,0.85809 0.0206,0.47522 -0.0366,0.95091 -0.0435,1.42653 -0.0103,0.71779 -0.006,1.43578 -0.009,2.15366 0.0326,0.67498 0.10546,2.44949 0.19126,3.0859 0.024,0.17734 0.16739,0.38719 0.24477,0.57104 8.5e-4,0.003 0.002,0.005 0.003,0.007 0.0541,0.13169 0.0779,0.25168 -0.0281,0.32649 -1.95693,1.38084 -2.45818,1.62409 -2.79524,1.09179 0.0377,0.69862 0.0688,1.39755 0.0922,2.09687 0.83874,-0.0862 1.4473,-0.15336 2.46273,-0.25495 1.48048,-0.14813 3.47736,-1.47983 4.44861,-0.36552 0.18193,0.20872 0.25403,0.45471 0.2518,0.71803 1.40422,-0.28001 3.22156,-1.43392 3.97878,-0.3447 0.36195,0.52064 0.1921,1.15826 -0.19697,1.77123 0.4363,0.33446 0.67701,0.73349 0.48124,1.18545 -0.33048,0.7629 -1.25978,0.71521 -2.25436,0.57885 -0.0335,0.0228 -0.07,0.0518 -0.10265,0.0733 -0.47596,0.31115 -1.01125,0.48185 -1.57265,0.58925 -0.11741,0.10415 -0.24337,0.19185 -0.37727,0.26407 0.39189,-0.029 1.02759,-0.0755 1.45071,-0.10667 2.68046,-0.26662 5.7339,-0.56761 8.73271,-0.84552 1.20635,-0.29864 2.42038,-0.62915 3.48351,-0.30959 2.96307,-0.25215 5.31979,-0.41672 5.82604,-0.33993 0.27239,0.0412 0.47961,0.17525 0.64793,0.36508 0.009,-0.004 0.0107,-0.005 0.0193,-0.007 -0.003,0.006 -0.005,0.0141 -0.008,0.0204 0.55873,0.64592 0.66004,1.94504 1.11291,2.74205 -4.26967,1.65306 -5.33971,2.15151 -7.95319,2.77198 -0.01,0.19091 -0.32437,0.21078 -0.75056,0.1678 -0.6997,0.15636 -1.78778,0.3794 -2.77945,0.58015 0.22617,0.44762 0.36308,0.96439 0.34042,1.39791 0.0742,-0.003 0.1367,-0.005 0.21143,-0.007 1.2017,-0.0371 4.49678,-0.72735 3.60591,0.0706 -1.01313,0.90752 -2.0688,1.65596 -3.15845,2.28374 0.9088,0.19058 1.88634,0.40476 3.09616,0.68595 0.16505,0.0383 0.20589,0.0592 0.19345,0.0733 0.0308,0.005 0.0614,0.0112 0.0922,0.0164 0.38159,-0.0561 0.76275,-0.11517 1.14408,-0.173 1.63957,-0.37374 3.2803,-0.74293 4.925,-1.09396 0.87821,-0.18745 -1.70447,0.59054 -2.59126,0.7332 -0.77704,0.12502 -1.55551,0.24273 -2.33374,0.36076 -0.30959,0.0705 -0.61921,0.14059 -0.92869,0.21159 2.25661,0.3883 4.4951,0.84543 6.66568,1.55444 0.98276,0.32102 -1.97206,0.65043 -2.99352,0.81559 -0.006,8.4e-4 -0.0121,0.002 -0.018,0.003 0.25523,0.0191 0.51041,0.0368 0.76548,0.062 0.15406,0.0152 0.31711,0.0495 0.48299,0.0945 0.82096,-0.35497 1.58084,-0.56674 2.05299,0.0234 0.10744,0.13429 0.15922,0.27929 0.17065,0.43013 0.5678,-0.12186 1.13508,-0.24691 1.70337,-0.36639 1.42464,-0.29952 4.95579,-1.89871 4.3271,-0.60009 -0.4858,1.00346 -1.30988,1.73814 -2.25304,2.37827 0.91297,0.087 1.80926,0.24411 2.66628,0.56367 1.27761,0.47637 -2.72305,0.26962 -4.05863,0.55066 -0.2396,0.0505 -0.4786,0.10353 -0.71811,0.15436 -0.72924,0.41501 -1.44762,0.83892 -2.0824,1.32897 -1.29094,0.33342 -2.57678,0.68669 -3.86428,1.03412 0.2055,0.0116 0.36083,0.0237 0.4185,0.0364 0.23905,0.0526 0.41868,0.17686 0.56149,0.34644 0.18944,-0.0301 0.23445,-0.0374 0.43342,-0.069 -0.0799,0.13533 -0.14614,0.29046 -0.20793,0.45181 0.32094,0.71352 0.35796,1.77238 0.68258,2.48146 -1.07553,0.1696 -1.51873,0.23977 -2.34604,0.37159 -0.22548,0.76394 -1.78606,1.09649 -4.11214,1.1629 -0.0406,0.56819 -0.0895,0.9849 -0.18424,1.2778 2.24961,-0.25679 4.51116,-0.7051 6.7069,-0.26578 0.21595,0.0432 0.46375,0.0967 0.72205,0.15608 1.36383,-0.4727 2.68549,-0.77041 3.75112,-0.0156 0.5471,0.38753 0.28595,0.82081 -0.34524,1.23402 0.74629,0.46102 1.16276,1.02607 0.79532,1.70272 -1.14425,2.10715 -4.78486,0.71503 -7.17716,1.07271 -2.33266,0.25222 -4.66363,0.5198 -6.99512,0.78352 0.14243,0.14465 0.27448,0.30286 0.39657,0.47435 0.4017,0.0713 0.81002,0.14652 1.23223,0.23197 0.14076,-0.0179 0.28172,-0.034 0.42245,-0.052 1.11597,-0.32709 1.97037,-0.57111 1.28575,-0.32346 -0.21263,0.0769 -0.42429,0.16084 -0.63652,0.24021 1.06916,-0.13859 2.13828,-0.27753 3.20804,-0.41062 0.61141,-0.18052 1.22353,-0.35643 1.83937,-0.51728 0.4317,-0.11276 -0.84131,0.29543 -1.26207,0.44314 -0.19258,0.0234 -0.38479,0.0502 -0.5773,0.0742 -0.9402,0.27761 -1.87763,0.56816 -2.81454,0.85981 1.30623,0.29643 2.74898,0.66498 4.34595,1.10003 0.11665,-0.0444 0.23246,-0.0911 0.34919,-0.13527 0.18981,-0.0719 0.0209,0.0317 -0.24303,0.16433 0.37982,0.10375 0.7457,0.20174 1.14582,0.31392 0.6186,0.17344 -1.22678,0.38103 -1.84025,0.57148 -0.67058,0.0811 -1.34042,0.17039 -2.01044,0.25669 1.41081,0.37199 2.79876,0.80132 4.10556,1.43433 0.60976,0.29537 -1.22991,0.61024 -1.8977,0.73191 -2.76161,0.50316 -5.5461,0.88457 -8.33659,1.19976 -0.68666,0.35956 -1.32744,0.68114 -1.91262,0.9526 0.35576,0.16864 0.71976,0.35699 1.09098,0.56368 0.0594,0.002 0.1183,0.009 0.17767,0.0109 h 27.0829 V 117.45267 29.386041 H 79.341579 Z M 150.68418,199.48363 c -0.0353,-0.01 -0.0711,-0.0195 -0.10616,-0.029 -0.39454,0.15033 -0.78717,0.30554 -1.18092,0.45788 0.12167,-0.0212 0.24382,-0.0396 0.36543,-0.0611 0.22082,-0.0391 0.63035,-0.22135 0.92165,-0.36768 z m -22.61283,-68.44687 c -0.004,-0.007 -0.005,-0.0155 -0.009,-0.023 -0.007,0.0473 -0.0123,0.0786 -0.0193,0.12834 -0.005,0.036 0.0176,-0.0638 0.0285,-0.10536 z m -0.009,-0.023 c 0.009,-0.0557 0.0141,-0.099 0.0223,-0.15133 -0.0416,-0.006 -0.0932,-0.0307 -0.0855,-8.4e-4 0.0135,0.0527 0.0379,0.10256 0.0631,0.1522 z m -1.17214,-3.46443 c -0.0158,-0.012 -0.0428,-0.0282 -0.0592,-0.0403 -0.0393,-0.0107 -0.0799,-0.0184 -0.11977,-0.0277 0.14429,0.2892 0.26436,0.59752 0.4821,0.83207 0.18954,0.20415 -0.18545,-0.48325 -0.30312,-0.76399 z M 79.240269,53.258046 c 3.6334,0.03012 7.27711,0.279766 9.41661,0.735811 10.52519,2.243489 18.678601,6.578715 26.015611,13.83298 4.43032,4.380351 7.01378,7.940304 9.40958,12.966654 4.69159,9.842867 6.0159,22.277739 3.47694,32.641909 -0.74565,3.04384 -2.84692,8.02671 -3.38482,8.02671 -0.15464,0 -0.37231,-0.79712 -0.48385,-1.77166 -0.45749,-3.99684 -3.20988,-11.76247 -4.0538,-11.43738 -0.26329,0.10142 -0.59066,0.20802 -0.72732,0.23674 -0.13666,0.0288 -0.48634,-0.69195 -0.7769,-1.60127 -0.89635,-2.80512 -2.00241,-4.13866 -3.43264,-4.13866 -0.20502,0 -1.04376,-0.67868 -1.86392,-1.50848 -3.32336,-3.362398 -7.12816,-5.863233 -10.0575,-6.610155 -1.87335,-0.477658 -1.75098,-0.05319 -1.34323,-4.668516 0.19671,-2.226548 0.14703,-2.712262 -0.40051,-3.935742 -0.34355,-0.767654 -1.290546,-2.097426 -2.104751,-2.954951 -1.70532,-1.79602 -2.02485,-2.368073 -3.35762,-6.014399 -1.56778,-4.289279 -2.86329,-6.480285 -4.99958,-8.455535 -1.05361,-0.97418 -1.91569,-1.812164 -1.91569,-1.862289 0,-0.05009 0.47348,-0.343342 1.05193,-0.65126 0.57847,-0.307917 1.05151,-0.649396 1.05151,-0.758793 0,-0.109397 -1.31848,-0.3688 -2.92991,-0.576676 -1.61143,-0.207885 -3.02591,-0.436125 -3.14354,-0.507311 -0.11764,-0.07115 -0.0873,-0.458931 0.0676,-0.861552 0.15487,-0.402623 0.2513,-0.731709 0.21407,-0.731047 -0.0373,6.72e-4 -2.09171,0.528615 -4.56529,1.173314 -2.47359,0.644707 -4.53733,1.13245 -4.58636,1.083987 -0.049,-0.04849 0.12321,-0.59089 0.38297,-1.205391 0.25977,-0.6145 0.41062,-1.178053 0.33515,-1.252662 -0.0755,-0.07459 -1.46856,0.641392 -3.09574,1.591297 -3.44557,2.011448 -7.91705,6.179904 -9.19331,8.570009 -0.43943,0.822931 -1.22039,3.027916 -1.7354,4.900055 -0.52782,1.918756 -1.22321,3.746903 -1.5937,4.190262 -2.70876,3.241472 -3.2268,3.973492 -3.50018,4.946454 -0.43003,1.530374 -0.38219,3.783227 0.11932,5.645406 l 0.42419,1.575246 -0.7826,0.293981 c -3.41122,1.281921 -7.89487,4.018499 -11.22218,6.849068 -1.4742,1.2541 -2.24597,1.72141 -2.63863,1.59823 -0.46896,-0.14711 -0.75627,0.3122 -1.85385,2.96232 -1.01539,2.45167 -1.4016,3.09685 -1.76873,2.95538 -0.25831,-0.0995 -0.58873,-0.20411 -0.73434,-0.23283 -0.14562,-0.0288 -1.09215,2.84357 -2.10345,6.38338 -1.01131,3.53982 -1.93022,6.52641 -2.04203,6.63661 -0.30702,0.30257 -1.98158,-2.73553 -2.6211,-4.75566 -1.41926,-4.48328 -2.26739,-12.99794 -1.82707,-18.337615 1.81815,-22.048546 17.83112,-40.03315 39.52024,-44.38582 2.09731,-0.420905 5.72048,-0.610289 9.35387,-0.580149 z m -15.12068,29.888565 c 1.16632,0 1.39893,0.09247 1.39893,0.555875 0,0.305661 -0.47563,0.873569 -1.05677,1.262195 -0.58115,0.388618 -1.40855,1.204828 -1.83893,1.813724 -1.26463,1.789181 -1.25614,3.535981 0.0324,6.541218 0.29369,0.684939 -0.64115,0.705647 -1.60907,0.03557 -2.22531,-1.540627 -1.93602,-6.456926 0.5308,-9.020071 1.01507,-1.054704 1.30145,-1.188491 2.54258,-1.188491 z m 22.21011,0.02215 c 1.10885,-0.0016 2.06166,0.134383 2.59784,0.408444 0.46308,0.23669 1.06827,0.771296 1.34453,1.188047 0.48771,0.735719 0.48248,0.757535 -0.18072,0.755757 -0.37569,-8.4e-4 -1.45245,-0.126161 -2.39255,-0.278367 -1.48586,-0.240566 -2.14889,-0.162718 -5.0737,0.595757 -1.85049,0.479873 -3.38018,0.862425 -3.39931,0.850284 -0.0191,-0.01216 -1.18422,-0.339819 -2.58905,-0.728445 -1.86847,-0.516867 -3.34733,-0.710506 -5.50889,-0.720633 -3.29388,-0.01544 -3.56954,-0.271167 -1.52922,-1.419585 1.38403,-0.779014 3.00862,-0.84238 5.83614,-0.227636 2.49231,0.541855 5.07571,0.539632 7.36228,-0.0058 1.159,-0.276604 2.42381,-0.415879 3.53265,-0.417549 z m 8.32737,0.274892 c 1.3044,0 1.6245,0.130599 2.54169,1.037167 1.10454,1.091748 1.97579,3.340137 1.97579,5.099507 0,1.520741 -0.86542,3.334104 -1.82533,3.824744 -1.3286,0.679091 -1.42923,0.550824 -0.99492,-1.273472 0.75411,-3.167442 0.47671,-4.195623 -1.8398,-6.813081 -0.74249,-0.83894 -1.35024,-1.603967 -1.35024,-1.700123 0,-0.09616 0.67194,-0.174742 1.49281,-0.174742 z m -19.48375,8.168064 h 3.83314 c 3.58959,0 3.90436,0.04741 4.95352,0.742751 1.39305,0.923299 3.33076,3.721581 3.97966,5.747301 0.26946,0.841189 0.5569,2.757531 0.63871,4.258331 0.12095,2.21872 0.0312,3.11147 -0.48079,4.77735 -0.72966,2.37443 -2.40672,4.48129 -4.36042,5.47805 -1.56314,0.7975 -5.44474,1.01694 -7.31491,0.41365 -1.86668,-0.60215 -3.77941,-1.79295 -4.89211,-3.04558 -2.52757,-2.8454 -2.74591,-5.51055 -0.86594,-10.57668 1.5727,-4.238139 2.37279,-5.789062 3.56028,-6.904136 z m -42.34443,36.492223 c -0.003,0.004 -0.006,0.005 -0.009,0.009 0.003,0.005 0.004,0.008 0.006,0.0121 6.8e-4,-0.006 0.002,-0.0144 0.003,-0.0213 z m -0.0974,0.1071 c -0.15196,0.16336 -0.22687,0.23369 -0.22461,0.34514 0.0399,-0.0107 0.0716,-0.0452 0.11713,-0.0452 0.0357,-0.0748 0.0758,-0.15073 0.11931,-0.22633 -0.003,-0.0244 -0.008,-0.0491 -0.0118,-0.0736 z m 94.327861,0.30742 c 0.19661,0.20512 0.35288,0.39649 0.46762,0.55847 0.01,-0.12874 -0.007,-0.31223 -0.16845,-0.41452 -0.0937,-0.0594 -0.19515,-0.10405 -0.29917,-0.14395 z m 0.52421,0.27317 c -0.006,0.0939 -0.0214,0.19844 -0.0412,0.30785 0.30814,0.43975 0.32341,0.58846 0.0917,-0.25495 -0.0169,-0.0176 -0.0251,-0.0269 -0.0505,-0.0529 z M 21.605339,182.69355 c -0.88072,0.16012 -1.76075,0.32422 -2.63951,0.49343 -0.67159,0.12936 1.36759,-0.0752 2.05169,-0.0624 0.3448,0.006 0.68932,0.0266 1.03396,0.0391 0.036,-0.0394 0.0674,-0.0807 0.11229,-0.11619 0.0847,-0.0672 0.17436,-0.12266 0.26234,-0.18211 -0.27386,-0.0563 -0.54736,-0.11379 -0.82077,-0.17171 z m 126.364311,4.56099 c -0.17314,0.0444 -0.34561,0.0916 -0.51896,0.13528 0.0466,0.0219 0.0941,0.0423 0.13995,0.0651 0.1531,-0.0792 0.24585,-0.1304 0.37901,-0.20031 z m -6.32921,6.10285 c -0.44286,0.0693 -0.885,0.14307 -1.32698,0.21766 0.0107,0.0266 0.016,0.0595 0.009,0.10753 -0.0239,0.15022 -0.0563,0.30455 -0.0957,0.46005 0.86024,-0.21539 1.94006,-0.52735 2.6575,-0.77093 -0.38013,-0.009 -0.75089,-0.0135 -1.24322,-0.0143 z m -1.83935,0.30309 c -0.28083,0.0486 -0.56085,0.10189 -0.84139,0.15219 0.1035,0.0413 0.206,0.0862 0.30576,0.14004 0.18028,-0.0995 0.36785,-0.20731 0.53563,-0.29223 z m -120.395261,2.00191 c -0.054,0.0193 -0.10649,0.0362 -0.16056,0.0559 -0.21604,0.0786 -0.10699,0.69093 0.12239,0.67163 0.82347,-0.0693 1.64487,-0.15788 2.46535,-0.25365 -0.81425,-0.13746 -1.62525,-0.28801 -2.42718,-0.47392 z m 5.80849,0.9578 c -0.61296,0.0401 -1.22599,0.0792 -1.83892,0.11968 -0.0781,0.005 -0.12208,0.007 -0.19916,0.0126 1.18506,0.0204 2.36992,0.035 3.55459,0.0455 -0.50582,-0.0579 -1.01158,-0.11639 -1.51651,-0.17778 z m 19.37891,2.92373 c -1.42451,0.0255 -3.14891,0.0495 -4.714,0.0758 0.56335,0.0282 1.1269,0.0505 1.69109,0.0555 0.93534,0.008 2.13718,0.0109 3.53309,0.007 -0.0303,-0.008 -0.061,-0.0146 -0.0913,-0.023 -0.12636,-0.0349 -0.28116,-0.0779 -0.41894,-0.11576 z" />
      <path
         id="path982"
         style="fill:none;stroke-width:0.223297"
         d="M 26.303079,64.731361 A 8.4140104,22.573551 0 0 1 17.889069,87.304905 8.4140104,22.573551 0 0 1 9.4750493,64.731361 8.4140104,22.573551 0 0 1 17.889069,42.157809 8.4140104,22.573551 0 0 1 26.303079,64.731361 Z" />
      <path
         style="color:#000000;fill:#463cc1;fill-opacity:1;stroke-width:0.223297;-inkscape-stroke:none"
         d="m 126.32812,77.660047 1.70229,5.819267 -79.534601,67.234196 -4.88834,-3.54734 z"
         id="rect1412" />
      <path
         style="color:#000000;display:inline;fill:#463cc1;fill-opacity:1;stroke-width:0.187564;-inkscape-stroke:none"
         d="m 128.99708,89.168058 1.42053,4.920183 -66.370431,56.846519 -4.07923,-2.99929 z"
         id="rect1412-3" />
      <path
         style="color:#000000;display:inline;fill:#463cc1;fill-opacity:1;stroke-width:0.187564;-inkscape-stroke:none"
         d="m 133.00985,99.062401 1.42054,4.920179 -63.366691,54.46857 -7.08298,-0.62133 z"
         id="rect1412-3-5" />
    </g>
  </g>
</svg>
