<?xml version="1.0" encoding="UTF-8" standalone="no"?>
<!-- Created with Inkscape (http://www.inkscape.org/) -->

<svg
   width="165.33792mm"
   height="178.69119mm"
   viewBox="0 0 165.33792 178.69119"
   version="1.1"
   id="svg32321"
   xmlns="http://www.w3.org/2000/svg"
   >
  <defs
     id="defs32318" />
  <g
     id="layer1"
     transform="translate(-22.704727,-36.538898)">
    <path
       style="color:#000000;fill:#04643e;fill-opacity:1;stroke-width:0.174126;-inkscape-stroke:none"
       d="m 88.883219,118.16415 40.210881,-2.91192 -1.82582,93.42275 -19.83131,-15.63274 -20.379582,18.54467 z"
       id="rect16828-4-7-8" />
    <path
       style="color:#000000;fill:#3cc18c;stroke-width:0.174126;-inkscape-stroke:none"
       d="m 89.036518,110.82474 40.210882,-2.91192 -1.82584,93.42276 -19.8313,-15.63275 -20.37958,18.54467 z"
       id="rect16828" />
    <path
       style="fill:#04643e;fill-opacity:1"
       id="path16306-1"
       transform="matrix(0.09067993,0,0,0.10210531,280.63654,133.48966)"
       d="m -1518.2312,6.281801 -11.2855,105.787429 -106.3264,3.60848 -43.4233,97.12243 -102.2375,-29.42482 -71.3104,78.95041 -88.141,-59.57782 -92.2172,53.05018 -65.4165,-83.89892 -104.0972,21.95701 -36.2886,-100.007406 -105.7874,-11.285447 -3.6085,-106.326481 -97.1224,-43.423211 29.4248,-102.237575 -78.9504,-71.31041 59.5778,-88.14094 -53.0501,-92.21725 83.8989,-65.41646 -21.957,-104.09722 100.0074,-36.28856 11.2854,-105.78742 106.3265,-3.60849 43.4232,-97.12243 102.2376,29.42482 71.3104,-78.9504 88.1409,59.57781 92.2173,-53.05017 65.4164,83.89892 104.0973,-21.95702 36.2885,100.00741 105.7874,11.28545 3.6085,106.32648 97.1225,43.42321 -29.4249,102.23757 78.9504,71.31041 -59.5778,88.14095 53.0502,92.21724 -83.8989,65.41646 21.957,104.09722 z" />
    <path
       style="fill:#3cc18c;fill-opacity:1"
       id="path16306"
       transform="matrix(0.09067993,0,0,0.09567194,280.63654,127.80939)"
       d="m -1518.2312,6.281801 -11.2855,105.787429 -106.3264,3.60848 -43.4233,97.12243 -102.2375,-29.42482 -71.3104,78.95041 -88.141,-59.57782 -92.2172,53.05018 -65.4165,-83.89892 -104.0972,21.95701 -36.2886,-100.007406 -105.7874,-11.285447 -3.6085,-106.326481 -97.1224,-43.423211 29.4248,-102.237575 -78.9504,-71.31041 59.5778,-88.14094 -53.0501,-92.21725 83.8989,-65.41646 -21.957,-104.09722 100.0074,-36.28856 11.2854,-105.78742 106.3265,-3.60849 43.4232,-97.12243 102.2376,29.42482 71.3104,-78.9504 88.1409,59.57781 92.2173,-53.05017 65.4164,83.89892 104.0973,-21.95702 36.2885,100.00741 105.7874,11.28545 3.6085,106.32648 97.1225,43.42321 -29.4249,102.23757 78.9504,71.31041 -59.5778,88.14095 53.0502,92.21724 -83.8989,65.41646 21.957,104.09722 z" />
    <ellipse
       style="fill:#04643e;fill-opacity:1;stroke-width:0.188949"
       id="path16679"
       cx="106.83182"
       cy="97.482765"
       rx="41.74049"
       ry="43.443848" />
    <ellipse
       style="fill:#3cc18c;fill-opacity:1;stroke-width:0.15973"
       id="path16679-9"
       cx="107.68549"
       cy="97.16951"
       rx="35.803242"
       ry="36.194775" />
    <path
       id="path916"
       style="fill:#ffffff;stroke:none;stroke-width:0.235688"
       d="m 107.11108,62.776089 0.22925,0.242254 z m 0,0.242254 c -3.74159,2.080201 -7.225567,4.253031 -9.097167,8.479819 -0.686455,1.550579 -0.701357,3.311287 -1.338282,4.845393 -0.439078,1.057548 -1.405475,1.73936 -2.028653,2.665103 -1.406391,2.089651 -1.064095,4.265523 -0.375357,6.541477 -3.655604,1.53702 -6.374576,3.344149 -9.171082,6.299222 l -0.688048,-0.484503 -1.83405,4.603434 -0.917312,-0.484812 -2.521808,9.448834 c -0.542363,-0.70939 -0.737721,1.23743 -0.758215,4.30413 0.0066,0.002 0.01322,0.003 0.01935,0.005 0.27998,-0.0174 0.484117,0.0563 0.610096,0.17147 2.327431,0.5207 4.614828,1.92166 6.777756,2.88173 4.673833,2.07464 9.325489,4.20195 13.986022,6.3093 2.63441,1.19128 5.31947,2.72541 8.25377,2.80026 3.44628,0.0882 6.53326,-1.6478 9.62989,-3.04405 4.41957,-1.99274 8.88277,-3.87817 13.29797,-5.88061 2.35726,-1.06925 4.82093,-2.62249 7.35985,-3.14259 0.17111,-0.0957 0.34219,-0.19151 0.51337,-0.28711 -0.0166,-0.0101 -0.0356,-0.0152 -0.0517,-0.0266 -0.0887,-0.0621 0.0981,-0.10163 0.26823,-0.0946 0.0475,-0.0265 0.0951,-0.0531 0.14264,-0.0796 -0.0947,-0.016 -0.19437,-0.0239 -0.27892,-0.0632 -0.0228,-0.0106 -0.0104,-0.0157 0.02,-0.0165 0.0909,-0.003 0.34144,0.0335 0.27516,0.0705 -0.005,0.003 -0.0108,0.006 -0.0161,0.009 0.0433,0.007 0.0753,0.0346 0.11434,0.0494 -0.0989,-3.45644 -0.45992,-5.37648 -1.23896,-3.96577 h -0.22926 c -0.0672,-3.44398 -1.29868,-6.343787 -2.5221,-9.448833 l -0.91731,0.484812 c -0.30058,-1.372263 -0.89876,-4.240799 -2.52181,-4.118931 h -0.22925 c -2.32145,-2.556041 -5.41169,-5.674891 -8.94212,-6.056971 0.38358,-2.384978 1.15381,-4.271322 -0.22233,-6.541475 -0.64381,-1.062146 -1.85422,-1.787313 -2.32402,-2.948546 -1.59829,-3.949626 -1.77349,-6.976117 -5.47816,-9.6499 l 1.83405,-1.211273 -4.58541,-0.727068 0.45852,-1.211271 -6.19048,1.696085 z m 6.12204,15.079573 c 0.0995,0.0014 0.19864,0.0063 0.29769,0.01495 1.01731,0.08919 1.83933,0.699961 2.29284,1.622555 l -2.98061,-0.451253 -4.35614,1.181067 -3.89792,-1.098076 -3.43912,0.126008 c 2.09423,-2.668703 4.8803,-0.422623 7.56629,-0.575736 1.48831,-0.08473 3.02489,-0.839654 4.51697,-0.819515 z m -14.867242,0.0021 c 0.300526,-0.01865 0.618199,0.03679 0.949657,0.181843 v 0.484509 c -2.779778,1.697886 -3.243647,3.868394 -1.83405,6.783726 -3.324321,-0.159621 -2.020712,-7.269841 0.884393,-7.450078 z m 20.217792,0.205347 c 2.83669,0.02516 4.15247,6.664881 0.90836,7.244744 1.00744,-3.696926 0.68595,-4.223781 -1.83405,-7.025984 0.32264,-0.152997 0.63223,-0.221363 0.92569,-0.21876 z m -9.9319,5.677108 c 1.06635,0.02666 2.11564,0.177011 2.57638,0.502511 4.28405,3.027504 4.80226,12.705951 -0.67795,14.578274 -3.52423,1.204114 -7.96064,-1.23414 -8.57052,-5.27559 -0.24463,-1.621558 0.64799,-3.608108 1.19046,-5.087944 0.52711,-1.437678 1.24109,-3.977202 2.80361,-4.477739 0.52826,-0.169235 1.61167,-0.26616 2.67802,-0.239512 z m -3.37502,3.263721 2.38379,3.402239 1.05561,1.927665 2.98061,-5.329904 c -1.54051,0.0047 -2.35191,0.281361 -3.20986,1.695781 -1.02489,-1.224968 -1.649,-1.689967 -3.21015,-1.695781 z m 3.25635,7.05466 c -1.46325,0.0054 -2.9419,0.365053 -4.40263,0.940338 0.16233,0.5633 0.30123,0.976761 0.93059,1.065435 0.80637,0.113623 1.70124,-0.25807 2.50853,-0.316698 1.66204,-0.121149 4.0725,0.894373 5.27345,-0.506479 -1.39883,-0.840223 -2.84669,-1.188256 -4.30994,-1.182596 z m 19.11078,101.971088 c -0.10665,0.0133 -0.21329,0.0273 -0.31993,0.0406 0.11018,-0.005 0.2167,-0.0183 0.31993,-0.0406 z" />
  </g>
</svg>
