<?xml version="1.0" encoding="UTF-8" standalone="no"?>
<!-- Created with Inkscape (http://www.inkscape.org/) -->

<svg
   width="314.37289mm"
   height="267.1987mm"
   viewBox="0 0 314.37289 267.1987"
   version="1.1"
   id="svg120744"
   xmlns:xlink="http://www.w3.org/1999/xlink"
   xmlns="http://www.w3.org/2000/svg"
   >
  <defs
     id="defs120741">
    <linearGradient
       id="linearGradient121739">
      <stop
         style="stop-color:#2966a4;stop-opacity:1;"
         offset="0"
         id="stop121735" />
      <stop
         style="stop-color:#2966a4;stop-opacity:0;"
         offset="1"
         id="stop121737" />
    </linearGradient>
    <clipPath
       clipPathUnits="userSpaceOnUse"
       id="clipPath121134">
      <path
         id="path121136"
         style="fill:#1f8461;fill-opacity:1;stroke-width:0.244869"
         d="M -310.04708,-62.061323 A 138.1767,138.28565 0 0 0 -448.2242,76.224273 138.1767,138.28565 0 0 0 -310.04708,214.50987 138.1767,138.28565 0 0 0 -171.87058,76.224273 138.1767,138.28565 0 0 0 -310.04708,-62.061323 Z m -0.86662,44.6866 3.9992,1.8175 c 2.19972,0.9996 6.20192,2.8012 8.8941,4.0039 6.06222,2.7082003 17.51471,7.8730003 23.15102,10.4402004 2.32831,1.06060004 5.95971,2.7032 8.06979,3.6504 15.93171,7.152 14.63451,6.4692999 14.44721,7.6010996 -0.084,0.5102 -0.155,1.7224 -0.1566,2.6939 v 1.7663 l -1.5213,-0.6057 c -2.2333,-0.8893 -13.1887,-5.4703997 -21.2328,-8.8784997 -3.8563,-1.6338 -10.04761,-4.24889987 -13.75841,-5.81149985 -3.71081,-1.56260005 -9.16271,-3.87620015 -12.11551,-5.14130005 l -5.36869,-2.3000999 -7.19899,3.2157998 c -3.95941,1.7688002 -10.77101,4.76610014 -15.13661,6.6606001 -4.36559,1.8944999 -8.83049,3.8326 -9.92179,4.3067 -1.09141,0.4742 -4.6038,2.0162999 -7.80521,3.4272001 -3.20151,1.4108995 -9.8961,4.3341995 -14.8772,6.4956995 -4.9811,2.1615 -9.2674,4.0501 -9.525,4.1971 -0.41521,0.2369 -0.3783,0.3002 0.32509,0.5597 0.43662,0.1611 2.63922,1.0308 4.89482,1.9322 l 4.10099,1.6386 0.082,0.9964 c 0.068,0.8265 -0.6555,7.8811 -0.82378,8.028899 -0.029,0.025 -3.80262,-1.310399 -8.38652,-2.968299 v 0 c -18.03559,-6.5234 -25.39119,-9.3203 -25.39738,-9.6567 0,-0.2676 2.5863,-1.4315 21.4281,-9.6268 2.11008,-0.9178 6.27719,-2.7664997 9.26039,-4.1077996 2.9832,-1.3412999 7.5076,-3.3605999 10.05419,-4.4876 4.0875,-1.80889996 14.63101,-6.5164999 25.7969,-11.5175999 2.03732,-0.9125 4.53761,-2.0415005 5.5562,-2.5094005 1.0187,-0.4678 4.3983,-1.969 7.5102,-3.3357 z m 0.0249,17.66870043 3.85461,1.52139997 c 6.5006,2.5662999 24.64681,9.8207996 26.602,10.6349996 l 1.84589,0.7689 0.33793,2.495 c 1.0899,8.0418 1.77149,17.444399 1.2645,17.444399 -0.11692,0 -1.59393,-0.4117 -3.28243,-0.915199 -7.22828,-2.155301 -11.93818,-2.875 -18.8128,-2.8737 -9.4112,0 -17.74751,1.771099 -28.70729,6.0921 -4.5607,1.7981 -13.20601,5.9803 -17.4662,8.449595 -4.58071,2.6552 -4.19971,2.677502 -3.9868,-0.230396 0.65699,-8.974098 3.27629,-27.979799 3.95529,-28.700099 0.16491,-0.175 3.1573,-1.5239 6.6498,-2.9978 3.4925,-1.4738 7.8382,-3.3135995 9.65721,-4.0885996 1.81901,-0.775 4.91469,-2.0621 6.87919,-2.8603 1.96451,-0.7982001 5.29072,-2.1914001 7.39082,-3.0959 z m 72.48662,15.66679957 c 0.1905,0 7.2695,3.1294 8.4717,3.745 l 1.2836,0.6568 -1.5482,0.6904 c -0.8513,0.3796 -2.5002,1.0682 -3.6643,1.5301 -1.1642,0.4618 -2.6822,1.0642 -3.3734,1.3384 l -1.2568,0.4982 v -4.2292 c 0,-2.3262 0.039,-4.2297 0.087,-4.2297 z m -3.6763,1.0583 c 0.082,0 0.1494,6.3668 0.1494,14.148501 v 14.148496 l 0.7276,0.379799 c 0.4002,0.208999 1.0775,0.7479 1.5048,1.197401 0.6315,0.664199 0.7971,1.102399 0.8867,2.341898 0.092,1.274501 0.017,1.632702 -0.4552,2.182802 -0.5398,0.627899 -0.5809,0.636 -0.8873,0.167 -0.8064,-1.234501 -1.2969,-1.7208 -2.1399,-2.1209 -1.9474,-0.9241 -4.1941,-0.335 -5.3429,1.401 -0.3928,0.593498 -0.7544,1.079 -0.804,1.079 -0.05,0 -0.2853,-0.3771 -0.5235,-0.8377 -0.9464,-1.830202 0.099,-4.722101 1.9905,-5.505601 l 0.8098,-0.335301 V 32.051276 18.837077 l 1.9673,-0.909 c 1.0819,-0.4999 2.0344,-0.909 2.1167,-0.909 z m -10.4304,3.3094 c 0.1191,0.074 0.2307,2.0973 0.2481,4.4974 l 0.032,4.363999 -0.8692,0.3923 c -1.3435,0.606502 -8.4688,3.486002 -9.1374,3.6928 -0.4268,0.1319 -0.5953,0.076 -0.5953,-0.1964 h -5.3e-4 c 0,-0.209299 -0.1844,-2.136399 -0.4098,-4.2824 -0.2254,-2.145999 -0.3452,-3.966299 -0.2662,-4.045299 0.3359,-0.3359 10.8014,-4.5441 10.9983,-4.4224 z m -48.85317,13.889001 c 7.2449,0 12.78149,0.869198 20.31299,3.188499 5.18101,1.595601 14.5053,5.873599 17.60511,8.077496 2.3387,1.6627 3.3565,3.930899 2.7616,6.155201 -0.8103,3.0295 -3.8349,4.5422 -6.6446,3.323799 -1.72281,-0.747099 -2.91251,-2.280701 -2.91251,-3.7548 0,-0.716399 -0.20558,-0.8615 -3.37338,-2.3792 -4.0304,-1.9309 -5.38332,-2.471999 -9.12921,-3.6499 -6.10902,-1.920897 -9.61271,-2.554095 -14.3722,-2.597696 l -3.19521,-0.029 -0.93581,0.9906 c -1.6769,1.775295 -4.02968,2.266696 -6.179,1.290396 -4.0496,-1.839396 -3.9829,-7.736895 0.11161,-9.875895 1.3889,-0.725602 1.49939,-0.7395 5.95061,-0.7395 z m -19.1647,7.900299 5.30508,4.696897 c 2.91761,2.583299 5.21322,4.779399 5.10151,4.880798 -0.11181,0.101401 -2.457,0.883502 -5.2111,1.737902 l -5.0069,1.553398 -2.17349,2.910401 c -1.19521,1.6007 -3.20752,4.276799 -4.47162,5.9465 -1.264,1.6696 -2.39049,3.201101 -2.5037,3.403301 -0.278,0.496898 -0.6173,0.294899 -4.098,-2.445301 -1.5884,-1.250701 -2.9691,-2.2743 -3.068,-2.2743 -0.099,0 -4.3951,1.199301 -9.5472,2.665 -11.50268,3.2722 -11.90519,3.315401 -18.49549,1.992101 -2.40109,-0.4821 -6.1292,-1.205101 -8.28479,-1.606601 -2.93071,-0.545901 -3.88551,-0.818001 -3.78531,-1.078999 0.074,-0.1919 2.2149,-3.146201 4.7584,-6.565001 3.56171,-4.7874 4.73559,-6.1903 5.1082,-6.106099 1.10739,0.250298 10.39651,1.971598 11.86079,2.197798 1.55142,0.2397 1.67151,0.212101 5.2917,-1.212299 4.4332,-1.744401 8.91561,-3.4323 13.22911,-4.981599 1.7462,-0.6272 5.43719,-1.965301 8.20211,-2.973501 2.7649,-1.0082 5.64859,-2.037096 6.40789,-2.286696 z m 76.5498,11.173995 c 0.8833,-0.015 1.7612,0.2008 2.4893,0.672901 2.0414,1.323499 2.0619,1.4155 2.16,9.6211 0.085,7.0915 -0.089,11.656599 -0.4418,11.627699 -0.096,-0.01 -2.1146,-0.988298 -4.4855,-2.178698 h -5.3e-4 l -4.3103,-2.164202 0.078,-7.412498 c 0.077,-7.342902 0.083,-7.421502 0.7126,-8.3039 0.8381,-1.175102 2.326,-1.837902 3.7982,-1.862402 z m -102.26661,19.289802 h 4.7966 4.79711 v 0.672299 c 0,1.0073 -0.93562,2.643999 -1.90632,3.335199 -1.20978,0.861502 -3.96259,1.002001 -5.1403,0.262501 -1.15269,-0.7239 -2.2098,-2.190001 -2.39308,-3.3192 z m -19.08051,0.723498 c 0.81632,-0.01 1.93112,0 3.14711,0.01701 l 4.42201,0.079 -0.16081,0.8035 c -0.51181,2.559 -3.66559,4.1211 -6.11841,3.0309 v -5.29e-4 c -1.07368,-0.4772 -1.95739,-1.483601 -2.37869,-2.709299 -0.19229,-0.559102 -0.31271,-1.076201 -0.2677,-1.1493 0.023,-0.036 0.5402,-0.062 1.35649,-0.071 z m 42.43261,1.387001 v 4.303099 4.303001 l -5.5408,5.552699 c -3.04761,3.054001 -5.6138,5.530202 -5.70249,5.5025 -0.089,-0.028 -1.6715,-1.3677 -3.51761,-2.9771 -1.8461,-1.609399 -3.44699,-2.9259 -3.5579,-2.9259 -0.11089,0 -0.20209,3.6204 -0.20209,8.045501 v 8.045497 l 4.1538,3.6623 c 2.28428,2.0142 4.31329,3.7834 4.50919,3.9316 0.27559,0.2084 -0.78441,1.4047 -4.688,5.2916 -2.7741,2.7623 -5.19019,5.0527 -5.36921,5.0896 -0.17889,0.037 -0.74229,-0.2544 -1.25159,-0.6475 v 0.01 c -0.5094,-0.3931 -2.17619,-1.7446 -3.70419,-3.0029 -1.52802,-1.2583 -3.35262,-2.7227 -4.055,-3.2546 l -1.27702,-0.9674 h -14.6812 c -10.0108,0 -14.85188,-0.091 -15.21608,-0.2857 -0.7956,-0.4257 -1.2832,-1.8659 -1.2832,-3.7895 0,-2.6162 -0.34602,-2.0138 6.2751,-10.921798 1.642,-2.2093 2.98529,-4.2183 2.98529,-4.464799 0,-0.246599 -0.42029,-1.4997 -0.9343,-2.7843 l -0.93429,-2.3358 1.90738,-2.591599 c 1.0492,-1.425501 2.37381,-3.157601 2.94351,-3.848902 l 1.03611,-1.256699 h 5.36869 5.3681 l 0.92451,-1.023199 0.92448,-1.0227 5.1775,-0.1364 5.17742,-0.136401 0.7116,1.0273 c 0.82518,1.1908 0.55078,1.163 8.39168,0.8537 l 4.39671,-0.173699 2.59099,-3.523801 2.59061,-3.5238 3.2411,-0.01 z m 15.88219,11.203401 c 1.9413,0 3.66911,0.199699 5.18261,0.599498 1.54649,0.399701 3.02681,0.933 4.44161,1.5993 v 9.394801 c -2.8626,-1.599099 -5.8733,-2.398799 -9.032,-2.398799 -3.29031,0 -5.70841,1.066099 -7.25482,3.198198 -1.51358,2.132198 -2.27018,5.485698 -2.27018,10.060898 0,4.3532 0.80568,7.5515 2.41789,9.5948 1.6123,2.0433 4.01421,3.0649 7.2058,3.0649 1.54649,0 3.07689,-0.1774 4.59039,-0.5328 1.5136,-0.3997 2.9777,-0.9993 4.3925,-1.7988 v 9.4609 c -1.38189,0.6219 -2.84599,1.1107 -4.3925,1.4661 -1.54639,0.3553 -3.29039,0.5333 -5.23169,0.5333 -5.56059,0 -9.80519,-1.9103 -12.7336,-5.7304 -2.89549,-3.8646 -4.3434,-9.2173 -4.3434,-16.058 0,-7.1515 1.41499,-12.681797 4.24471,-16.590698 2.86258,-3.908899 7.12338,-5.863198 12.78268,-5.863198 z m 18.6671,0.194799 h 26.60202 v 8.262001 h -9.3282 v 34.647496 h -7.9457 V 94.352274 h -9.32812 z m -62.95639,0.778801 -3.4572,0.01 -3.45761,0.01 -1.0583,1.646499 -1.05839,1.645899 -2.2619,0.076 -2.26181,0.076 -0.7633,-1.5968 -0.7633,-1.5973 h -2.82408 -2.82461 l -0.96901,1.459802 -0.96938,1.459899 1.26248,2.785899 1.26241,2.7858 2.4252,-0.079 2.4252,-0.078 -0.9039,1.257199 c -0.49699,0.691499 -0.90379,1.316699 -0.90379,1.3891 0,0.072 1.4219,0.131799 3.1595,0.131799 h 3.15899 l 1.11569,-1.3292 1.1157,-1.322898 h 2.54971 2.54971 l 2.17149,-2.642701 c 1.19419,-1.4536 2.1709,-2.782599 2.1709,-2.9533 0,-0.1708 -0.20021,-0.946201 -0.445,-1.722901 z m -17.5772,33.867696 13.04359,10e-4 1.88571,1.6526 c 1.7462,1.5304 8.2776,7.3986 13.5925,12.2117 1.2369,1.1202 2.28401,2.1345 2.3264,2.2541 0.042,0.1195 -1.9004,1.5013 -4.3175,3.0706 -4.0409,2.6236 -4.38219,2.9052 -4.23341,3.498 0.089,0.3546 0.99531,2.5417 2.0139,4.8602 1.01841,2.3186 1.78041,4.3311 1.69291,4.4726 -0.092,0.1492 -1.9381,0.2573 -4.3961,0.2573 h -4.23699 l -1.67071,-3.5057 c -0.919,-1.9281 -2.39339,-5.1726 -3.27631,-7.2099 -0.88278,-2.0372 -2.4202,-5.4901 -3.4163,-7.6729 l -1.8107,-3.9688 -11.16579,-0.069 -11.16571,-0.069 v -3.9833 c 0,-2.226 0.12071,-4.2078 0.27292,-4.4922 0.689,-1.2873 0.92779,-1.3086 14.86159,-1.3074 z m -6.14381,14.2864 h 5.0219 l 0.51001,1 c 1.00809,1.9761 7.1732,16.2637 7.1732,16.6238 0,0.3005 -0.8532,0.3679 -4.6446,0.3679 h -4.64471 l -2.60088,-5.3578 c -3.98211,-8.2032 -5.83681,-12.1435 -5.83681,-12.4003 0,-0.1284 2.25999,-0.2336 5.02189,-0.2336 z"
         clip-path="none" />
    </clipPath>
    <linearGradient
       xlink:href="#linearGradient121739"
       id="linearGradient121741"
       x1="204.42583"
       y1="225.3084"
       x2="-49.784088"
       y2="59.240566"
       gradientUnits="userSpaceOnUse"
       gradientTransform="translate(8.0444335e-6,-1.7528044e-5)" />
  </defs>
  <g
     id="layer1"
     transform="translate(97.352636,-26.573514)">
    <rect
       style="fill:#1f8461;fill-opacity:1;stroke-width:0.212378"
       id="rect121358"
       width="313.61035"
       height="267.20117"
       x="-97.662331"
       y="26.573761"
       ry="45.319"
       transform="matrix(1,0,0.00431378,0.9999907,0,0)" />
    <rect
       style="fill:#ffffff;fill-opacity:1;stroke-width:0.137803"
       width="168.82239"
       height="170.07571"
       x="-24.450411"
       y="71.303352"
       ry="1.6832622"
       id="rect122570" />
    <path
       style="fill:#1f8461;fill-opacity:1;stroke-width:0.264583"
       id="rect120926"
       width="194.51773"
       height="183.36665"
       x="-412.70981"
       y="-17.284809"
       ry="2.7873604"
       d="m -409.92245,-17.284809 h 188.94301 c 1.5442,0 2.78736,1.243163 2.78736,2.78736 V 163.29448 c 0,1.5442 -1.24316,2.78736 -2.78736,2.78736 h -188.94301 c -1.5442,0 -2.78736,-1.24316 -2.78736,-2.78736 V -14.497449 c 0,-1.544197 1.24316,-2.78736 2.78736,-2.78736 z"
       clip-path="url(#clipPath121134)"
       transform="translate(372.19422,87.898266)" />
    <rect
       style="fill:url(#linearGradient121741);fill-opacity:1;stroke-width:0.212378"
       id="rect121358-3"
       width="313.61035"
       height="267.20117"
       x="-97.662331"
       y="26.573757"
       ry="45.319"
       transform="matrix(1,0,0.00431378,0.9999907,0,0)" />
  </g>
</svg>
