<?xml version="1.0" encoding="UTF-8" standalone="no"?>
<!-- Created with Inkscape (http://www.inkscape.org/) -->

<svg
   width="677.42664mm"
   height="253.32751mm"
   viewBox="0 0 677.42672 253.32751"
   version="1.1"
   id="svg36976"
   xmlns="http://www.w3.org/2000/svg"
   >
  <defs
     id="defs36973" />
  <g
     id="layer1"
     transform="translate(-20.019024,-363.75805)">
    <path
       style="fill:#000000;stroke-width:0.264583"
       id="path74753"
       d="" />
    <path
       style="fill:#000000;stroke-width:0.264583"
       id="path74733"
       d="" />
    <path
       style="fill:#01abd7;stroke:none;stroke-width:0.264583"
       d="m 439.181,536.90697 c 0.51329,5.88407 3.93964,12.50818 6.54844,17.72708 7.95337,15.90463 19.73527,29.46453 34.19739,39.79889 8.08038,5.77453 16.86719,10.64313 26.19375,14.09171 13.83506,5.11572 28.62792,8.18541 43.39167,8.5471 5.44777,0.13361 10.99079,-0.7329 16.40416,-1.27424 44.06635,-4.4061 84.36769,-28.3583 109.52956,-64.86762 25.36031,-36.79428 30.18631,-90.77114 7.14904,-129.91042 -11.33739,-19.25955 -29.51691,-34.5539 -49.73902,-43.83916 -31.08589,-14.27428 -67.69893,-12.15096 -99.74791,-2.19159 -30.28156,9.41067 -54.36923,28.3079 -73.05675,53.70366 -6.24152,8.48467 -11.4935,17.83187 -15.61835,27.51667 -1.14829,2.69293 -2.20927,5.42581 -3.13531,8.20209 -0.32809,0.98054 -0.55828,2.56407 -1.6219,3.01545 -1.97908,0.83741 -5.49804,0.15955 -7.63852,0.15955 h -17.72708 -56.88542 -16.93333 c -3.08769,0 -6.54844,-0.36724 -9.525,0.62521 -4.191,1.39726 -5.92137,6.06187 -7.73906,9.69354 -4.42913,8.86195 -8.63336,17.8726 -12.52273,26.9875 -1.59544,3.74015 -4.97946,10.06157 -0.11113,12.86748 2.07434,1.19618 4.58259,0.89085 6.87917,0.89085 h 12.7 48.68333 c -7.12787,12.79207 -18.87273,24.0075 -32.27916,29.93443 -17.94404,7.93353 -40.52359,6.29126 -56.35625,-5.56498 -4.79161,-3.58881 -8.77491,-8.02111 -12.08273,-12.99237 -3.76079,-5.65203 -6.31269,-12.13749 -7.64222,-18.78541 -5.97588,-29.88257 9.8507,-59.26905 35.33536,-74.55958 11.79248,-7.07523 25.4,-11.00377 39.15834,-8.97679 9.1096,1.3417 18.82774,4.93369 25.92916,10.89184 3.02948,2.54079 5.49011,5.50598 8.21267,8.35078 1.21179,1.26629 2.6035,2.93714 4.48733,3.04959 1.93146,0.11535 3.98198,-0.74454 5.82083,-1.2282 3.5269,-0.9271 7.06967,-1.79096 10.58334,-2.76754 10.795,-3.00011 21.67466,-5.82427 32.54375,-8.54525 3.70681,-0.92816 7.44008,-1.84838 11.1125,-2.90698 1.41552,-0.40825 3.25172,-1.04563 3.61685,-2.68314 0.32015,-1.44515 -0.83873,-2.97577 -1.38906,-4.23307 -1.65894,-3.8055 -3.59834,-7.51417 -5.66738,-11.1125 -9.0461,-15.73927 -22.06096,-28.26491 -37.57083,-37.57083 -53.51462,-32.10878 -126.86638,-9.90283 -166.08266,34.66041 -13.30298,15.11671 -24.28187,32.41914 -30.6734,51.59376 -13.23129,39.69438 -6.1386,87.20216 24.05882,117.39932 9.74037,9.74064 20.94601,17.24343 33.26183,23.29445 12.86007,6.31851 27.78919,9.74751 42.06875,10.37299 41.148,1.80155 80.84079,-13.96312 108.98451,-44.1751 6.76805,-7.26466 12.73705,-15.20481 18.0975,-23.54791 2.2569,-3.51208 3.86821,-8.74263 6.79715,-11.64167 M 574.64766,427.44514 c 4.78367,-0.56462 10.43781,0.52229 15.08125,1.67772 24.69885,6.14575 41.73273,29.53624 41.15329,54.86744 -0.77787,34.10268 -29.43489,66.08895 -63.64287,69.80608 -29.56983,3.21337 -58.06546,-15.3281 -63.119,-45.46441 -2.05581,-12.24862 0.53181,-24.90576 5.28637,-36.24792 8.31586,-19.83184 24.47925,-34.21062 44.86804,-40.8133 6.74159,-2.18308 13.40115,-3.00302 20.37292,-3.82561 m -495.035398,1.10649 c -3.52319,0.66595 -5.8719,5.44856 -7.9375,8.07826 -0.55271,0.70379 -2.69584,2.82231 -1.49172,3.69676 1.46791,1.06653 5.79252,0.27199 7.57714,0.27199 h 20.10833 c 23.023248,0 46.022948,0.26458 69.056248,0.26458 h 17.99167 c 2.21112,0 5.50465,0.62045 7.40727,-0.70194 2.57307,-1.78832 4.3135,-5.69701 5.99519,-8.29389 0.51277,-0.79163 1.6809,-2.38919 0.53526,-3.1676 -1.68328,-1.14406 -6.36932,-0.27199 -8.38147,-0.27199 H 168.51226 108.45184 89.401842 c -3.14298,0 -6.69792,-0.46064 -9.78958,0.12383 m -50.27083,30.44428 c -3.20352,0.77867 -5.80067,5.85205 -7.70436,8.32564 -0.55824,0.72549 -2.44431,2.52783 -1.20328,3.39223 1.73572,1.20888 6.56195,0.31194 8.64306,0.31194 7.953,0 15.86608,-0.26458 23.8125,-0.26458 h 90.752078 c 8.73812,0 17.4752,-0.0471 26.19375,-0.26062 2.34341,-0.0574 7.62979,1.01045 9.45144,-0.64796 1.76398,-1.60576 2.47941,-6.09838 3.15622,-8.35184 0.29024,-0.96626 0.40402,-2.03279 -0.71702,-2.48629 -2.4765,-1.00198 -6.84081,-0.15954 -9.50939,-0.15954 H 149.72684 67.441432 41.776852 c -3.8671,0 -8.67617,-0.77259 -12.43542,0.14102 m 77.258588,30.47206 c -2.82945,0.96203 -4.43521,5.85523 -5.78405,8.28067 -0.41302,0.74215 -1.627978,2.39236 -0.67019,3.16759 0.96282,0.7792 3.68115,0.26643 4.86648,0.27225 4.04363,0.0193 8.10789,0.26432 12.17083,0.26432 h 41.01042 c 3.63114,0 7.2218,0.26459 10.84792,0.26459 1.44356,0 3.42635,0.34131 4.73471,-0.3855 2.20504,-1.22476 1.88093,-6.91409 1.87987,-9.1395 -5.3e-4,-1.15835 0.0333,-2.46962 -1.32794,-2.82628 -4.41431,-1.15676 -10.50343,-0.0841 -15.07623,-0.0841 h -33.07291 -13.22917 c -1.93305,0 -4.50559,-0.44106 -6.34974,0.186 z"
       id="path75063" />
  </g>
</svg>
