<?xml version="1.0" encoding="UTF-8" standalone="no"?>
<!-- Created with Inkscape (http://www.inkscape.org/) -->

<svg
   version="1.1"
   id="svg2"
   width="339.51999"
   height="300.16"
   viewBox="0 0 339.51999 300.16"
   xmlns="http://www.w3.org/2000/svg"
   >
  <defs
     id="defs6" />
  <g
     id="g8">
    <path
       style="fill:#3d78a9;fill-opacity:1;stroke:none;stroke-width:0.420789"
       d="m 209.60216,163.69989 c 4.27905,10.97852 8.24751,20.6 16.5336,28.5892 32.12637,30.97443 83.05263,13.76226 103.35392,-25.44066 8.55574,-16.52173 10.34255,-36.32199 6.7028,-54.87455 -1.58014,-8.0544 -5.04079,-15.7157 -9.64304,-22.03977 -26.58917,-36.53926 -78.71963,-27.89831 -103.32242,6.74687 -5.2191,7.34958 -11.57707,17.37139 -12.83755,26.98749 h -37.7911 c -4.74395,0 -12.09667,-1.59047 -16.52768,0.40211 -1.95018,0.87709 -2.94259,3.44405 -3.84053,5.44516 -2.22888,4.96796 -4.1948,10.16035 -6.11704,15.29292 -0.84872,2.2665 -2.38201,5.87427 0.16259,7.50342 2.46587,1.57877 7.03741,0.59282 9.78908,0.59282 h 23.61941 c -3.16619,5.31834 -6.6957,10.16573 -11.41605,13.78206 -14.85898,11.38421 -36.77073,4.57933 -41.82765,-16.03101 -5.36516,-21.86661 9.24976,-45.77528 28.44331,-49.65024 6.71422,-1.35566 14.13584,0.6612 19.68285,5.14023 2.32337,1.87608 4.61523,6.53906 7.4854,7.06802 2.58199,0.47588 5.80211,-1.16811 8.2609,-1.94895 5.4919,-1.74383 11.05073,-3.22995 16.53359,-5.00797 1.92027,-0.62251 7.04725,-1.02058 6.87365,-4.18531 -0.22202,-4.05441 -3.92122,-9.40468 -5.9206,-12.58741 -8.13415,-12.9468 -20.72803,-21.29088 -34.41391,-23.87493 -33.5136,-6.32812 -68.83529,19.62709 -79.225478,56.2599 -2.527673,8.91261 -3.14414,17.68536 -3.047301,26.9875 0.07405,7.11479 1.732879,14.55795 4.015304,21.14019 2.386745,6.88406 5.979655,13.19597 10.548835,18.44144 30.23209,34.70816 87.31867,20.5955 103.92511,-24.73853 m 64.55978,-62.84215 c 18.5637,-2.60474 33.03965,15.55109 30.5915,36.30446 -2.06198,17.48384 -15.45499,33.02325 -30.98516,35.00861 -19.49233,2.49185 -35.6303,-16.16234 -31.2308,-38.60694 3.47048,-17.70469 15.86006,-30.49406 31.62446,-32.70613 m -248.397706,7.06802 h 46.451552 c 3.798792,0 11.570771,1.70156 14.886152,-0.46238 1.651393,-1.07771 2.722533,-3.99505 3.615742,-5.83469 -4.801045,-1.6215 -11.136174,-0.4498 -16.139951,-0.4498 H 41.116866 c -6.821293,0 -11.875064,-1.23153 -15.352632,6.74687 M 1.357487,125.46763 h 60.623212 12.990687 l 5.341929,-0.78353 2.13756,-5.96335 c -5.897773,-1.99167 -13.922082,-0.44979 -20.076519,-0.44979 H 19.859377 c -6.548489,0 -16.4930571,-2.46216 -18.50189,7.19667 m 39.365722,16.64227 c 4.361722,1.47308 10.022119,0.4498 14.565318,0.4498 h 10.235086 c 3.250429,0 8.762417,1.21984 11.751456,-0.27123 1.436849,-0.71696 2.086776,-4.90722 0.995952,-6.20442 -1.668712,-1.98358 -8.09871,-0.72101 -10.385464,-0.72101 H 51.351955 c -2.067095,0 -5.177775,-0.6477 -7.044891,0.5303 -1.810036,1.14202 -2.82449,4.14304 -3.583855,6.21656 z"
       id="path1353" />
  </g>
</svg>
