<?xml version="1.0" encoding="UTF-8" standalone="no"?>
<!-- Created with Inkscape (http://www.inkscape.org/) -->

<svg
   width="476.57095mm"
   height="480.78915mm"
   viewBox="0 0 476.57095 480.78915"
   version="1.1"
   id="svg75189"
   xmlns="http://www.w3.org/2000/svg"
   >
  <defs
     id="defs75186" />
  <g
     id="layer1"
     transform="translate(-473.6787,-45.70518)">
    <path
       style="fill:#ffe05d;fill-opacity:1;stroke:none;stroke-width:0.264583"
       d="M 826.56476,418.01386 H 711.47101 V 403.1972 H 843.4981 c 12.15204,0 24.71102,0.89667 36.77708,-0.60458 14.85847,-1.84864 28.97796,-8.24653 39.95208,-18.46897 14.00559,-13.04634 19.91598,-30.5099 23.92479,-48.65978 3.92179,-17.75592 6.76069,-36.28073 5.96272,-54.50417 -0.70454,-16.08958 -3.28238,-31.89552 -6.75647,-47.625 -4.35541,-19.71939 -11.70723,-40.02881 -28.15812,-52.91402 -13.65621,-10.69445 -29.46453,-11.37973 -46.0375,-11.37973 h -28.04584 v 35.71875 c 0,7.72319 0.42572,15.59454 -0.30956,23.28333 -1.42451,14.89869 -8.02402,29.77621 -18.23508,40.74584 -4.31006,4.631 -8.99398,8.90666 -14.26369,12.43515 -6.0743,4.06744 -12.79604,7.40093 -19.84375,9.41229 -14.6087,4.16851 -30.2133,2.75881 -45.24375,2.75881 h -61.11875 c -11.19981,0 -22.71977,-0.75274 -33.86667,0.30956 -27.58281,2.62864 -49.9454,26.0985 -51.83452,53.66544 -0.69321,10.12798 -0.0238,20.53748 -0.0238,30.69166 v 61.91249 c 0,8.69765 -0.78052,17.80302 0.045,26.45834 1.19591,12.55024 6.58018,24.47025 15.31143,33.60208 15.96496,16.69748 37.11311,21.75039 59.25609,24.12097 31.45128,3.36708 63.43941,3.3829 94.72083,-1.83065 17.90542,-2.98421 39.05383,-7.22593 51.16619,-22.02574 9.14638,-11.17547 9.68798,-26.21703 9.68798,-39.95208 v -42.33333 m -47.09583,72.94853 c -3.22395,0.41884 -6.68814,0.095 -9.78959,-0.83317 -21.29049,-6.3717 -18.79785,-39.55441 3.175,-42.67094 3.38958,-0.48101 6.76725,-0.31909 10.05417,0.72575 17.94537,5.70362 20.11839,31.0298 3.96875,40.24259 -2.23837,1.27688 -4.84822,2.20292 -7.40833,2.53577 z"
       id="path75245" />
    <path
       style="fill:#3d79aa;stroke:none;stroke-width:0.264583"
       d="m 597.36361,154.18566 h 115.09375 v 14.81667 H 580.43028 c -12.15205,0 -24.71103,-0.89668 -36.77709,0.60457 -14.85847,1.84864 -28.97796,8.24653 -39.95208,18.46897 -14.00559,13.04634 -19.91598,30.5099 -23.92479,48.65979 -3.92179,17.75592 -6.76069,36.28072 -5.96272,54.50416 0.70454,16.08958 3.28238,31.89552 6.75647,47.625 4.35541,19.71939 11.70723,40.02881 28.15812,52.91402 13.65621,10.69445 29.46453,11.37973 46.0375,11.37973 h 28.04584 v -35.71875 c 0,-7.72319 -0.42572,-15.59454 0.30956,-23.28333 1.42452,-14.89869 8.02402,-29.77621 18.23508,-40.74584 4.31007,-4.631 8.99399,-8.90666 14.26369,-12.43515 6.07431,-4.06744 12.79605,-7.40092 19.84375,-9.41229 14.60871,-4.16851 30.2133,-2.75881 45.24375,-2.75881 h 61.11875 c 11.19981,0 22.71977,0.75274 33.86667,-0.30956 27.58281,-2.62863 49.9454,-26.0985 51.83452,-53.66543 0.69321,-10.12799 0.0238,-20.53749 0.0238,-30.69167 v -61.9125 c 0,-8.69764 0.78052,-17.80301 -0.045,-26.45833 -1.19591,-12.550243 -6.58018,-24.470251 -15.31143,-33.602081 -15.96496,-16.69748 -37.11311,-21.75039 -59.25609,-24.12097 -31.45128,-3.36708 -63.43941,-3.3829 -94.72083,1.83065 -17.90541,2.98421 -39.05382,7.22593 -51.16618,22.02574 -9.14639,11.17547 -9.68799,26.217031 -9.68799,39.952081 v 42.33333 m 47.09584,-72.948531 c 3.22394,-0.41884 6.68813,-0.095 9.78958,0.83317 21.29049,6.3717 18.79785,39.554411 -3.175,42.670941 -3.38958,0.48101 -6.76725,0.31909 -10.05417,-0.72575 -17.94536,-5.70362 -20.11839,-31.029804 -3.96875,-40.242591 2.23838,-1.27688 4.84823,-2.20292 7.40834,-2.53577 z"
       id="path75225" />
  </g>
</svg>
