<?xml version="1.0" encoding="UTF-8" standalone="no"?>
<!-- Created with Inkscape (http://www.inkscape.org/) -->

<svg
   width="55.285702mm"
   height="55.462425mm"
   viewBox="0 0 55.285702 55.462425"
   version="1.1"
   id="svg5"
   xmlns="http://www.w3.org/2000/svg"
>
  <defs
     id="defs2" />
  <g
     id="layer1"
     transform="translate(-339.36161,13.031787)">
    <path
       id="path1312"
       style="fill:#264387;fill-opacity:1.0;stroke-width:0.0787511"
       d="m 339.36161,-13.031787 0.0548,0.536943 c 0.0301,0.295317 1.16241,11.53010019 2.51639,24.966112 1.35398,13.436014 2.47438,24.440199 2.48973,24.453769 0.0153,0.0135 5.09554,1.27028 11.28925,2.79263 8.37936,2.05954 11.31486,2.75337 11.47063,2.71117 0.11513,-0.0313 5.20221,-1.27856 11.30462,-2.77193 6.1024,-1.49337 11.10619,-2.72366 11.11948,-2.73392 0.0244,-0.0187 5.0389,-49.584001 5.0408,-49.825168 9.3e-4,-0.12317 -1.37061,-0.129606 -27.64219,-0.129606 z m 27.65331,4.0733612 h 11.30462 c 10.60829,0 11.30462,0.0079 11.30462,0.126713 0,0.201568 -4.2826,42.5676698 -4.30498,42.5875898 -0.0112,0.008 -4.09768,1.01803 -9.08115,2.24036 -4.98346,1.22231 -9.09734,2.22226 -9.14199,2.22226 -0.0523,0 -0.0811,-8.40825 -0.0811,-23.588461 z m 20.18085,5.702126 -9.14838,0.0188 -9.14837,0.0188 v 9.257637 9.2576408 l 4.71026,0.01922 4.71026,0.0191 -0.004,0.20309 c -0.002,0.11167 -0.18171,1.885494 -0.39922,3.941873 l -0.39547,3.738929 -4.1936,0.673927 c -2.30645,0.370718 -4.25571,0.69525 -4.3318,0.721083 -0.12564,0.04262 -0.13837,0.335366 -0.13837,3.184487 0,1.72566 0.0279,3.16231 0.0622,3.19257 0.0342,0.0302 0.17553,0.0353 0.31402,0.0116 0.94408,-0.16415 14.75008,-2.95928 14.79594,-2.99554 0.0679,-0.0537 1.99143,-18.7571488 1.93742,-18.8384448 -0.0203,-0.03055 -2.22034,-0.05555 -4.88886,-0.05555 h -4.85175 v -3.110559 -3.110566 h 5.18652 5.18669 l 0.0473,-0.314757 c 0.0718,-0.477904 0.54921,-5.353342 0.54921,-5.609116 z m -31.55384,0.225511 h 7.74576 V 14.114355 c 0,13.671232 -0.0212,17.143452 -0.10467,17.136762 -0.0576,-0.004 -3.91056,-0.68112 -8.56221,-1.50336 v -1.3e-4 c -4.65164,-0.82226 -8.50501,-1.50996 -8.56286,-1.52838 -0.0757,-0.0241 -0.23367,-1.29805 -0.56441,-4.551152 -0.25261,-2.484669 -0.45965,-4.642565 -0.46007,-4.795313 l -6.6e-4,-0.277731 h 3.47512 3.47513 l 0.004,0.203669 c 0.009,0.442954 0.46002,4.601148 0.50308,4.639236 0.0545,0.04822 3.3338,0.489492 3.63769,0.489492 h 0.21 l -0.0213,-10.387065 -0.0213,-10.3870708 -3.93977,-0.01924 -3.93993,-0.01924 -0.31222,-3.01726601 c -0.17174,-1.65950499 -0.31109,-3.04226599 -0.30979,-3.07281599 10e-4,-0.03056 3.48788,-0.05555 7.74805,-0.05555 z" />
  </g>
</svg>
