<?xml version="1.0" encoding="UTF-8" standalone="no"?>
<!-- Created with Inkscape (http://www.inkscape.org/) -->

<svg
   width="46.348068mm"
   height="43.839687mm"
   viewBox="0 0 46.348068 43.839687"
   version="1.1"
   id="svg5"
   xmlns="http://www.w3.org/2000/svg"
>
  <defs
     id="defs2" />
  <g
     id="layer1"
     transform="translate(-264.17067,-68.055387)">
    <path
       style="fill:#264387;fill-opacity:1.0;stroke:none;stroke-width:0.360361"
       d="m 275.85588,78.059765 h 11.48708 v 1.05136 h -13.33983 c -2.16825,0 -4.52328,-0.341443 -6.26448,1.131401 -4.77295,4.037301 -4.85672,15.97668 0.35052,19.743827 1.80088,1.302807 4.52039,0.852867 6.65505,0.852867 0,-3.360043 -0.15236,-7.667414 2.99902,-9.935729 5.08845,-3.662546 17.48899,1.681063 20.13694,-4.784662 0.61057,-1.490791 0.80162,-3.317568 0.91668,-4.904986 0.2001,-2.76086 0.90462,-7.592981 -1.16312,-9.77969 -4.27019,-4.515886 -16.885,-4.603081 -20.87609,0.331508 -1.37753,1.703209 -0.90177,4.275215 -0.90177,6.294104 m 4.46806,-6.089925 c 2.38113,-0.807815 3.84362,2.575371 1.42043,3.418525 -2.39634,0.833842 -3.92519,-2.568788 -1.42043,-3.418525 m 19.61773,7.141285 c 0,3.288519 0.0903,7.672401 -2.99927,9.881667 -5.32,3.803995 -17.73063,-1.794669 -20.3051,5.187829 -0.51359,1.392948 -0.64198,3.087946 -0.74826,4.555882 -0.19991,2.760977 -0.90473,7.592917 1.16312,9.779737 4.2702,4.51594 16.88499,4.60321 20.87609,-0.33152 1.37752,-1.70321 0.90177,-4.27517 0.90177,-6.29415 h -11.48706 v -1.05135 h 13.33982 c 2.18809,0 4.51107,0.32785 6.28305,-1.131407 4.80864,-3.960385 4.78493,-16.015211 -0.36906,-19.743826 -1.80089,-1.302811 -4.52035,-0.852862 -6.6551,-0.852862 m -7.00015,25.450955 c 2.39635,-0.83408 3.92521,2.56883 1.42044,3.41833 -2.38113,0.80779 -3.84361,-2.57513 -1.42044,-3.41833 z"
       id="path188" />
  </g>
</svg>
