<?xml version="1.0" encoding="UTF-8" standalone="no"?>
<!-- Created with Inkscape (http://www.inkscape.org/) -->

<svg
   width="98.410019mm"
   height="98.410004mm"
   viewBox="0 0 98.410019 98.410004"
   version="1.1"
   id="svg5"
   xmlns="http://www.w3.org/2000/svg"
  >
  <defs
     id="defs2" />
  <g
     id="layer1"
     transform="translate(-16.637661,-46.373066)">
    <ellipse
       style="fill:#268765;fill-opacity:1;stroke-width:0.27486"
       id="path31"
       cx="65.842682"
       cy="99.648979"
       rx="49.205002"
       ry="45.134087" />
    <ellipse
       style="fill:#70bba1;fill-opacity:1;stroke-width:0.264583"
       id="path31-3"
       cx="65.48867"
       cy="88.498215"
       rx="48.851009"
       ry="42.125149" />
    <path
       style="fill:#268765;fill-opacity:1;stroke:none;stroke-width:0.360361"
       d="m 54.964336,73.811851 h 11.48708 v 1.05136 H 53.111592 c -2.168249,0 -4.523285,-0.341443 -6.264479,1.131401 -4.772953,4.037301 -4.856718,15.97668 0.350519,19.743827 1.800883,1.30281 4.520387,0.85287 6.655053,0.85287 0,-3.360046 -0.152361,-7.667417 2.999016,-9.935732 5.088445,-3.662546 17.48899,1.681063 20.136942,-4.784662 0.610564,-1.490791 0.801622,-3.317568 0.916674,-4.904986 0.200103,-2.76086 0.904628,-7.592981 -1.163121,-9.77969 -4.270186,-4.515886 -16.884995,-4.603081 -20.876088,0.331508 -1.377524,1.703209 -0.901772,4.275215 -0.901772,6.294104 M 59.4324,67.721926 c 2.381126,-0.807815 3.843619,2.575371 1.420435,3.418525 -2.396349,0.833842 -3.925198,-2.568788 -1.420435,-3.418525 m 19.617733,7.141285 c 0,3.288519 0.09033,7.672401 -2.999269,9.881667 -5.320006,3.803995 -17.730635,-1.794669 -20.305102,5.187829 -0.513593,1.392948 -0.641978,3.087946 -0.748262,4.555882 -0.199908,2.76098 -0.904727,7.592921 1.163121,9.779741 4.270199,4.51594 16.884994,4.60321 20.876087,-0.33152 1.377524,-1.70321 0.901773,-4.275171 0.901773,-6.294151 H 66.451416 v -1.05135 h 13.339822 c 2.188095,0 4.511073,0.32785 6.28305,-1.13141 4.808639,-3.960385 4.784928,-16.015211 -0.369062,-19.743826 -1.800882,-1.302811 -4.520345,-0.852862 -6.655093,-0.852862 m -7.000151,25.450959 c 2.396349,-0.834081 3.925213,2.56883 1.420434,3.41833 -2.381126,0.80779 -3.843604,-2.57513 -1.420434,-3.41833 z"
       id="path188" />
  </g>
</svg>
