<?xml version="1.0" encoding="UTF-8" standalone="no"?>
<!-- Created with Inkscape (http://www.inkscape.org/) -->

<svg
   width="98.410019mm"
   height="98.410004mm"
   viewBox="0 0 98.410019 98.410004"
   version="1.1"
   id="svg5"
   xmlns="http://www.w3.org/2000/svg"
 >
  <defs
     id="defs2" />
  <g
     id="layer1"
     transform="translate(-16.637661,-46.373066)">
    <ellipse
       style="fill:#268765;fill-opacity:1;stroke-width:0.27486"
       id="path31"
       cx="65.842682"
       cy="99.648979"
       rx="49.205002"
       ry="45.134087" />
    <ellipse
       style="fill:#70bba1;fill-opacity:1;stroke-width:0.264583"
       id="path31-3"
       cx="65.48867"
       cy="88.498215"
       rx="48.851009"
       ry="42.125149" />
    <path
       style="fill:#268765;fill-opacity:1;stroke:none;stroke-width:0.118726"
       d="m 43.478745,96.644534 h 1.850707 V 69.910753 H 51.992 c 0.666742,0 1.882294,0.216611 2.38704,-0.278073 0.554104,-0.5429 0.327326,-1.666859 0.327326,-2.349606 v -5.940841 h 31.585421 v 35.302301 h 1.850707 V 69.682259 62.713196 c 0,-0.720089 0.287722,-2.123622 -0.197774,-2.725014 -0.651458,-0.806806 -3.489695,-0.359653 -4.490688,-0.359653 H 70.252314 58.531169 c -1.484516,0 -3.793216,-0.406486 -5.181986,0.08483 -1.647006,0.582667 -3.324977,2.879831 -4.565074,4.028124 l -3.578036,3.313161 c -0.535722,0.496057 -1.358673,1.042046 -1.635783,1.713704 -0.305,0.739522 -0.09154,1.843834 -0.09154,2.62768 v 5.712346 19.53621 m 9.253536,-34.04557 v 5.598099 h -5.922267 l 1.974096,-2.056444 3.948171,-3.541655 m 15.916094,9.596742 -4.451695,9.254002 -2.951144,6.28357 1.727329,0.685482 7.402839,-15.537572 -1.727329,-0.685482 m -10.1172,13.823868 h 0.123378 l 1.357183,-1.028222 -2.837744,-3.31315 -1.05392,-1.370964 1.001604,-1.370963 2.89006,-3.198914 c -0.282534,-0.342054 -0.941141,-1.116763 -1.478718,-0.988692 -0.514489,0.122472 -0.967422,0.857072 -1.283644,1.217186 -0.807903,0.920142 -1.62677,1.836176 -2.453548,2.741926 -0.384947,0.421683 -0.977176,0.901407 -1.0417,1.48521 -0.07728,0.700325 0.73744,1.347767 1.182968,1.827951 1.219131,1.31406 2.415175,2.653611 3.594081,3.998632 m 13.078339,-10.39646 v 0.114247 l 2.890061,3.198914 1.001603,1.370963 -1.053919,1.370964 -2.837745,3.31315 1.357183,1.028222 c 1.473659,-1.101105 2.58938,-2.784309 3.824793,-4.112879 0.422215,-0.454135 1.148551,-1.053242 1.075635,-1.713704 -0.06453,-0.583803 -0.656753,-1.063419 -1.041701,-1.48521 -0.826777,-0.90575 -1.645655,-1.821784 -2.453547,-2.741926 -0.316222,-0.360114 -0.769156,-1.094714 -1.283656,-1.217186 -0.503267,-0.119845 -1.138433,0.599225 -1.478707,0.874445 M 44.22089,98.423754 c -1.093159,0.29979 -0.742135,1.867026 -0.742135,2.676466 v 7.5403 c 0,0.70605 -0.301302,2.10351 0.500802,2.51023 0.725597,0.36799 2.142009,0.11744 2.953845,0.11744 h 7.279461 24.059204 6.662548 c 0.753486,0 2.031825,0.22508 2.707088,-0.11744 0.802093,-0.40672 0.500802,-1.80418 0.500802,-2.51023 v -7.5403 c 0,-0.80944 0.351014,-2.376676 -0.742135,-2.676466 -0.916104,-0.25123 -2.132384,-0.0654 -3.082658,-0.0654 H 77.901921 56.927229 48.290596 c -1.239239,0 -2.878099,-0.26139 -4.069706,0.0654 M 86.291798,100.072 v 9.48249 H 45.329462 V 100.072 h 40.962336 m -34.176409,2.28493 v 5.5981 h 1.60395 v -2.17069 h 1.974086 c 0,1.50029 -0.216038,2.17069 1.60395,2.17069 v -5.5981 h -1.60395 v 2.1707 h -1.974086 v -2.1707 h -1.60395 m 7.772974,0 v 1.25672 h 1.110426 v 4.34138 l 1.406166,-0.11744 0.197785,-1.13927 v -3.08467 h 1.110416 v -1.25672 h -3.824793 m 6.045646,0 v 5.5981 h 1.357183 v -3.6559 h 0.123389 c 0.163593,1.02948 0.620471,4.40285 2.415904,3.58701 0.353243,-0.16051 0.412215,-0.64686 0.509323,-0.95933 0.27933,-0.89833 0.62911,-1.81664 0.776187,-2.74193 h 0.123378 v 3.77015 h 1.480562 v -5.5981 l -2.131023,0.11745 -0.425538,1.02502 -0.774708,2.74193 -1.443926,-3.76695 -2.010731,-0.11745 m 9.747059,0 v 5.5981 h 3.824804 v -1.25671 h -2.220853 v -4.34139 h -1.603951 m -12.296964,5.44582 0.04116,0.076 z"
       id="path2677" />
  </g>
</svg>
