<?xml version="1.0" encoding="UTF-8" standalone="no"?>
<!-- Created with Inkscape (http://www.inkscape.org/) -->

<svg
   width="98.410019mm"
   height="98.410004mm"
   viewBox="0 0 98.410019 98.410004"
   version="1.1"
   id="svg5"
   xmlns="http://www.w3.org/2000/svg"
   >
  <defs
     id="defs2" />
  <g
     id="layer1"
     transform="translate(-16.637661,-46.373066)">
    <ellipse
       style="fill:#268765;fill-opacity:1;stroke-width:0.27486"
       id="path31"
       cx="65.842682"
       cy="99.648979"
       rx="49.205002"
       ry="45.134087" />
    <ellipse
       style="fill:#70bba1;fill-opacity:1;stroke-width:0.264583"
       id="path31-3"
       cx="65.48867"
       cy="88.498215"
       rx="48.851009"
       ry="42.125149" />
    <path
       id="path1312"
       style="fill:#268765;fill-opacity:1;stroke-width:0.0787511"
       d="m 37.759704,60.598726 0.05481,0.536943 c 0.03007,0.295317 1.162411,11.5301 2.51639,24.966112 1.353976,13.436014 2.474381,24.440199 2.489732,24.453769 0.01534,0.0135 5.095532,1.27028 11.289247,2.79263 8.379362,2.05954 11.314857,2.75337 11.470624,2.71117 0.115138,-0.0313 5.202218,-1.27856 11.304622,-2.77193 6.102402,-1.49337 11.106192,-2.72366 11.119484,-2.73392 0.02436,-0.0187 5.038895,-49.584001 5.040794,-49.825168 9.34e-4,-0.12317 -1.370608,-0.129606 -27.642187,-0.129606 z m 27.653308,4.073361 h 11.304622 c 10.608291,0 11.304622,0.0079 11.304622,0.126713 0,0.201568 -4.282605,42.56767 -4.304981,42.58759 -0.01117,0.008 -4.097682,1.01803 -9.08115,2.24036 -4.983466,1.22231 -9.097344,2.22226 -9.141993,2.22226 -0.05225,0 -0.08112,-8.40825 -0.08112,-23.588461 z m 20.180846,5.702126 -9.148375,0.0188 -9.148367,0.0188 v 9.257637 9.257641 l 4.71026,0.01922 4.710258,0.0191 -0.0039,0.20309 c -0.0023,0.11167 -0.181716,1.885494 -0.399227,3.941873 l -0.395465,3.738929 -4.193601,0.673927 c -2.306445,0.370718 -4.255709,0.69525 -4.331804,0.721083 -0.125632,0.04262 -0.138366,0.335366 -0.138366,3.184487 0,1.72566 0.02794,3.16231 0.06216,3.19257 0.03421,0.0302 0.175531,0.0353 0.314018,0.0116 0.944087,-0.16415 14.750085,-2.95928 14.79594,-2.99554 0.06789,-0.0537 1.991435,-18.757149 1.937419,-18.838445 -0.02028,-0.03055 -2.220334,-0.05555 -4.888856,-0.05555 H 74.624206 V 79.632876 76.52231 h 5.186519 5.186686 l 0.04726,-0.314757 c 0.07182,-0.477904 0.549206,-5.353342 0.549206,-5.609116 z m -31.553832,0.225511 h 7.745759 v 17.145144 c 0,13.671232 -0.0212,17.143452 -0.104674,17.136762 -0.05757,-0.004 -3.91056,-0.68112 -8.562205,-1.50336 v -1.3e-4 c -4.651642,-0.82226 -8.505011,-1.50996 -8.562861,-1.52838 -0.07574,-0.0241 -0.233671,-1.29805 -0.564413,-4.551152 -0.252613,-2.484669 -0.45965,-4.642565 -0.460068,-4.795313 l -6.65e-4,-0.277731 h 3.475126 3.475124 l 0.0041,0.203669 c 0.0091,0.442954 0.460018,4.601148 0.50308,4.639236 0.05452,0.04822 3.333801,0.489492 3.637697,0.489492 h 0.209997 l -0.02125,-10.387065 -0.02125,-10.387071 -3.939772,-0.01924 -3.939933,-0.01924 -0.312221,-3.017266 c -0.171735,-1.659505 -0.311084,-3.042266 -0.309784,-3.072816 0.0013,-0.03056 3.487882,-0.05555 7.748049,-0.05555 z" />
  </g>
</svg>
