<?xml version="1.0" encoding="UTF-8" standalone="no"?>
<!-- Created with Inkscape (http://www.inkscape.org/) -->

<svg
   width="44.820999mm"
   height="51.880886mm"
   viewBox="0 0 44.820999 51.880886"
   version="1.1"
   id="svg5"
   xmlns="http://www.w3.org/2000/svg"
>
  <defs
     id="defs2" />
  <g
     id="layer1"
     transform="translate(-35.89682,-73.988627)">
    <path
       style="fill:#268765;fill-opacity:1;stroke:none;stroke-width:0.118726"
       d="m 35.969419,111.16256 h 1.85071 V 84.428776 h 6.66255 c 0.66674,0 1.88229,0.216611 2.38704,-0.278073 0.5541,-0.5429 0.32733,-1.666859 0.32733,-2.349606 v -5.940841 h 31.58542 v 35.302304 h 1.8507 V 84.200282 77.231219 c 0,-0.720089 0.28773,-2.123622 -0.19777,-2.725014 -0.65146,-0.806806 -3.4897,-0.359653 -4.49069,-0.359653 h -13.20172 -11.72114 c -1.48452,0 -3.79322,-0.406486 -5.18199,0.08483 -1.647,0.582667 -3.32497,2.879831 -4.56507,4.028124 l -3.57804,3.313161 c -0.53572,0.496057 -1.35867,1.042046 -1.63578,1.713704 -0.305,0.739522 -0.0915,1.843834 -0.0915,2.62768 v 5.712346 19.536213 m 9.25354,-34.045573 v 5.598099 h -5.92227 l 1.97409,-2.056444 3.94818,-3.541655 m 15.91609,9.596742 -4.4517,9.254007 -2.95114,6.283574 1.72733,0.68548 7.40284,-15.537579 -1.72733,-0.685482 m -10.1172,13.823871 h 0.12338 l 1.35718,-1.028224 -2.83774,-3.31315 -1.05392,-1.37096 1.0016,-1.37097 2.89006,-3.198912 c -0.28253,-0.342054 -0.94114,-1.116763 -1.47872,-0.988692 -0.51449,0.122472 -0.96742,0.857072 -1.28364,1.217186 -0.8079,0.920142 -1.62677,1.836178 -2.45355,2.741928 -0.38495,0.42168 -0.97718,0.90141 -1.0417,1.48521 -0.0773,0.70032 0.73744,1.34777 1.18297,1.82795 1.21913,1.31406 2.41517,2.65361 3.59408,3.998634 m 13.0783,-10.396463 v 0.114247 l 2.89006,3.198912 1.0016,1.37097 -1.05392,1.37096 -2.83774,3.31315 1.35718,1.028224 c 1.47366,-1.101104 2.58938,-2.784314 3.82479,-4.112884 0.42222,-0.45413 1.14856,-1.05324 1.07564,-1.7137 -0.0645,-0.5838 -0.65675,-1.06342 -1.0417,-1.48521 -0.82678,-0.90575 -1.64566,-1.821786 -2.45355,-2.741928 -0.31622,-0.360114 -0.76915,-1.094714 -1.28365,-1.217186 -0.50327,-0.119845 -1.13844,0.599225 -1.47871,0.874445 m -27.38863,22.800593 c -1.09316,0.29979 -0.74214,1.86703 -0.74214,2.67647 v 7.5403 c 0,0.70605 -0.3013,2.10351 0.50081,2.51023 0.72559,0.36799 2.14201,0.11744 2.95384,0.11744 h 7.27946 24.05921 6.66254 c 0.75349,0 2.03183,0.22508 2.70709,-0.11744 0.8021,-0.40672 0.5008,-1.80418 0.5008,-2.51023 v -7.5403 c 0,-0.80944 0.35102,-2.37668 -0.74213,-2.67647 -0.9161,-0.25123 -2.13238,-0.0654 -3.08266,-0.0654 h -6.41579 -20.97469 -8.63663 c -1.23924,0 -2.8781,-0.26139 -4.06971,0.0654 m 42.07091,1.64825 v 9.48249 h -40.96234 v -9.48249 h 40.96234 m -34.17641,2.28493 v 5.5981 h 1.60395 v -2.17069 h 1.97408 c 0,1.50029 -0.21603,2.17069 1.60395,2.17069 v -5.5981 h -1.60395 v 2.1707 h -1.97408 v -2.1707 h -1.60395 m 7.77297,0 v 1.25672 h 1.11043 v 4.34138 l 1.40616,-0.11744 0.19779,-1.13927 v -3.08467 h 1.11042 v -1.25672 h -3.8248 m 6.04565,0 v 5.5981 h 1.35718 v -3.6559 h 0.12339 c 0.16359,1.02948 0.62047,4.40285 2.4159,3.58701 0.35325,-0.16051 0.41222,-0.64686 0.50933,-0.95933 0.27933,-0.89833 0.62911,-1.81664 0.77618,-2.74193 h 0.12338 v 3.77015 h 1.48056 v -5.5981 l -2.13102,0.11745 -0.42554,1.02502 -0.7747,2.74193 -1.44393,-3.76695 -2.01073,-0.11745 m 9.74706,0 v 5.5981 h 3.8248 v -1.25671 h -2.22085 v -4.34139 h -1.60395 m -12.29697,5.44582 0.0412,0.076 z"
       id="path2677" />
  </g>
</svg>
