<?xml version="1.0" encoding="UTF-8" standalone="no"?>
<!-- Created with Inkscape (http://www.inkscape.org/) -->

<svg
   width="44.820992mm"
   height="51.880878mm"
   viewBox="0 0 44.820992 51.880879"
   version="1.1"
   id="svg5"
   xmlns="http://www.w3.org/2000/svg"
>
  <defs
     id="defs2" />
  <g
     id="layer1"
     transform="translate(-230.63858,-86.504164)">
    <path
       style="fill:#264387;fill-opacity:1.0;stroke:none;stroke-width:0.118726"
       d="m 230.71118,123.67809 h 1.85071 V 96.944313 h 6.66255 c 0.66674,0 1.88229,0.216611 2.38704,-0.278073 0.5541,-0.5429 0.32732,-1.666859 0.32732,-2.349606 v -5.940841 h 31.58542 v 35.302297 h 1.85071 V 96.715819 89.746756 c 0,-0.720089 0.28772,-2.123622 -0.19777,-2.725014 -0.65146,-0.806806 -3.4897,-0.359653 -4.49069,-0.359653 h -13.20172 -11.72114 c -1.48452,0 -3.79322,-0.406486 -5.18199,0.08483 -1.64701,0.582667 -3.32498,2.879831 -4.56507,4.028124 l -3.57804,3.313161 c -0.53572,0.496057 -1.35867,1.042046 -1.63578,1.713704 -0.305,0.739522 -0.0915,1.843834 -0.0915,2.62768 v 5.712342 19.53621 m 9.25353,-34.045566 v 5.598099 h -5.92226 l 1.97409,-2.056444 3.94817,-3.541655 m 15.9161,9.596742 -4.4517,9.254004 -2.95114,6.28357 1.72733,0.68548 7.40284,-15.537572 -1.72733,-0.685482 m -10.1172,13.823864 h 0.12338 l 1.35718,-1.02822 -2.83775,-3.31315 -1.05392,-1.37096 1.00161,-1.37096 2.89006,-3.19892 c -0.28254,-0.34205 -0.94114,-1.11676 -1.47872,-0.98869 -0.51449,0.12247 -0.96742,0.85707 -1.28364,1.21719 -0.80791,0.92014 -1.62677,1.83617 -2.45355,2.74192 -0.38495,0.42168 -0.97718,0.90141 -1.0417,1.48521 -0.0773,0.70033 0.73744,1.34777 1.18297,1.82795 1.21913,1.31406 2.41517,2.65361 3.59408,3.99863 M 258.842,102.65672 v 0.11425 l 2.89006,3.19892 1.0016,1.37096 -1.05392,1.37096 -2.83774,3.31315 1.35718,1.02822 c 1.47366,-1.1011 2.58938,-2.7843 3.82479,-4.11287 0.42222,-0.45414 1.14855,-1.05325 1.07564,-1.71371 -0.0645,-0.5838 -0.65676,-1.06342 -1.0417,-1.48521 -0.82678,-0.90575 -1.64566,-1.82178 -2.45355,-2.74192 -0.31622,-0.36012 -0.76916,-1.09472 -1.28366,-1.21719 -0.50326,-0.11985 -1.13843,0.59922 -1.4787,0.87444 m -27.38863,22.80059 c -1.09316,0.29979 -0.74214,1.86703 -0.74214,2.67647 v 7.5403 c 0,0.70605 -0.3013,2.10351 0.5008,2.51023 0.7256,0.36799 2.14201,0.11744 2.95385,0.11744 h 7.27946 24.0592 6.66255 c 0.75349,0 2.03183,0.22508 2.70709,-0.11744 0.80209,-0.40672 0.5008,-1.80418 0.5008,-2.51023 v -7.5403 c 0,-0.80944 0.35102,-2.37668 -0.74213,-2.67647 -0.91611,-0.25123 -2.13239,-0.0654 -3.08266,-0.0654 h -6.41579 -20.97469 -8.63664 c -1.23924,0 -2.8781,-0.26139 -4.0697,0.0654 m 42.07091,1.64825 v 9.48249 H 232.5619 v -9.48249 h 40.96234 m -34.17641,2.28493 v 5.5981 h 1.60395 v -2.17069 h 1.97408 c 0,1.50029 -0.21604,2.17069 1.60395,2.17069 v -5.5981 h -1.60395 v 2.1707 h -1.97408 v -2.1707 h -1.60395 m 7.77297,0 v 1.25672 h 1.11043 v 4.34138 l 1.40616,-0.11744 0.19779,-1.13927 v -3.08467 h 1.11041 v -1.25672 h -3.82479 m 6.04565,0 v 5.5981 h 1.35718 v -3.6559 h 0.12339 c 0.16359,1.02948 0.62047,4.40285 2.4159,3.58701 0.35325,-0.16051 0.41222,-0.64686 0.50933,-0.95933 0.27933,-0.89833 0.62911,-1.81664 0.77618,-2.74193 h 0.12338 v 3.77015 h 1.48056 v -5.5981 l -2.13102,0.11745 -0.42554,1.02502 -0.77471,2.74193 -1.44392,-3.76695 -2.01073,-0.11745 m 9.74706,0 v 5.5981 h 3.8248 v -1.25671 h -2.22085 v -4.34139 h -1.60395 m -12.29697,5.44582 0.0412,0.076 z"
       id="path2677" />
  </g>
</svg>
