<?xml version="1.0" encoding="UTF-8" standalone="no"?>
<!-- Created with Inkscape (http://www.inkscape.org/) -->

<svg
   width="49.281223mm"
   height="49.174191mm"
   viewBox="0 0 49.281223 49.174191"
   version="1.1"
   id="svg5"
   xmlns="http://www.w3.org/2000/svg"
>
  <defs
     id="defs2" />
  <g
     id="layer1"
     transform="translate(-210.56083,-28.812029)">
    <path
       style="fill:#264387;fill-opacity:1.0;stroke:none;stroke-width:0.0481953"
       d="m 246.2096,28.83883 c -1.10443,0.158823 -1.81262,0.886538 -2.59764,1.616779 -0.74672,0.694587 -1.49724,1.390993 -2.2609,2.066816 -3.8012,3.3639 -7.57195,6.808076 -11.25641,10.300538 -1.22993,1.165828 -2.51335,2.27463 -3.75214,3.430897 -0.3183,0.297155 -0.63242,0.600683 -0.96208,0.885332 -0.104,0.08981 -0.23562,0.251814 -0.38484,0.253263 -0.22493,0.0022 -0.50408,-0.320767 -0.67346,-0.448823 -0.56229,-0.425162 -1.12049,-0.855684 -1.68365,-1.279639 -1.4489,-1.090743 -2.88049,-2.204615 -4.32939,-3.295358 -0.69804,-0.525549 -1.40339,-1.238498 -2.2128,-1.581428 -1.66838,-0.706867 -3.06869,1.180891 -4.13697,2.174578 -0.46671,0.434145 -0.97753,0.800205 -1.23449,1.404606 -0.50744,1.193545 0.25498,2.099881 1.09018,2.857109 1.58053,1.432997 3.13469,2.895353 4.71422,4.329364 0.49759,0.451768 1.00808,0.892382 1.49124,1.359698 0.11756,0.113763 0.43024,0.300438 0.43024,0.483396 0,0.190683 -0.35313,0.410724 -0.47835,0.529412 -0.50384,0.47765 -1.03727,0.924444 -1.53934,1.403929 -1.47926,1.412668 -3.04253,2.7362 -4.5218,4.148868 -0.71643,0.68422 -1.47552,1.318076 -1.333,2.416207 0.12428,0.957613 0.87736,1.457669 1.52542,2.076315 0.62713,0.598656 1.27326,1.267089 1.97227,1.778922 1.13206,0.828932 2.20804,0.210817 3.17489,-0.517341 1.80329,-1.358201 3.58406,-2.746532 5.38768,-4.104348 0.5952,-0.448098 1.18467,-0.903777 1.77986,-1.352021 0.16346,-0.123131 0.44963,-0.451043 0.67346,-0.352442 0.49543,0.218206 0.94366,0.844674 1.34692,1.201656 1.09048,0.965391 2.14401,1.97284 3.22299,2.951075 3.60393,3.267496 7.24456,6.513509 10.77537,9.860379 1.0404,0.98615 2.11361,1.94015 3.17488,2.90366 1.0138,0.92034 1.93769,1.81219 3.41541,1.61953 1.0518,-0.13714 2.03327,-0.83729 2.98247,-1.27482 2.08368,-0.96041 4.15164,-1.97322 6.20546,-2.9967 1.10495,-0.55066 2.44976,-0.93473 3.13591,-2.04001 0.58929,-0.94983 0.47191,-2.0681 0.47191,-3.138611 v -5.649516 -19.121435 -5.31151 c 0,-0.969495 0.12844,-2.038027 -0.28382,-2.945473 -0.55175,-1.214357 -1.81141,-1.668008 -2.93917,-2.187797 -2.27644,-1.049246 -4.53912,-2.16245 -6.78271,-3.280532 -1.10178,-0.549057 -2.32411,-1.359136 -3.60782,-1.174525 m 1.29881,13.354671 v 22.404911 l -1.44313,-1.056169 -2.93436,-2.23344 -10.34243,-7.864559 v -0.09657 l 4.13697,-3.144221 6.39788,-4.865729 2.79005,-2.124073 z"
       id="path2928" />
  </g>
</svg>
