<?xml version="1.0" encoding="UTF-8" standalone="no"?>
<!-- Created with Inkscape (http://www.inkscape.org/) -->

<svg
   width="51.304382mm"
   height="49.972279mm"
   viewBox="0 0 51.304382 49.972279"
   version="1.1"
   id="svg5"
   xmlns="http://www.w3.org/2000/svg"
>
  <defs
     id="defs2" />
  <g
     id="layer1"
     transform="translate(-38.362774,-69.845991)">
    <path
       style="fill:#268765;fill-opacity:1;stroke:none;stroke-width:0.0251468"
       d="m 41.456375,119.81827 h 3.21397 v -22.691244 -6.92574 c 0,-1.56993 -0.0511,-3.14769 0.10467,-4.70951 0.10812,-1.08389 0.40767,-2.09402 0.6486,-3.14806 -1.17185,-0.521 -2.52593,-0.84568 -3.4898,-1.74202 -1.35549,-1.26051 -1.32795,-3.49304 0.15028,-4.63251 0.95352,-0.73499 2.21249,-0.77637 3.2893,-0.3138 0.47293,0.20316 0.91284,0.53431 1.33078,0.83101 0.3967,0.28164 0.78248,0.5767 1.15502,0.88977 0.0912,0.0766 0.29516,0.33329 0.42686,0.29972 0.18171,-0.0463 0.40739,-0.36031 0.5524,-0.48425 0.41475,-0.35442 0.84932,-0.68544 1.30567,-0.98428 1.26794,-0.83023 2.65803,-1.4116 4.09279,-1.88063 2.72849,-0.89196 5.66359,-1.15612 8.512,-1.22611 3.22024,-0.0791 6.44602,0.1105 9.59169,0.85957 2.52296,0.60075 5.17549,1.67593 7.05566,3.52291 h 0.0251 c 0.47406,-0.45508 1.03701,-0.84448 1.58187,-1.20885 0.51349,-0.34327 1.02596,-0.68104 1.6321,-0.83374 1.85355,-0.46694 3.70786,0.82072 3.83943,2.74776 0.0276,0.40424 -0.0791,0.83225 -0.21619,1.20886 -0.43162,1.18778 -1.49022,1.76148 -2.56866,2.24913 -0.40526,0.18321 -0.82584,0.40335 -1.25546,0.52116 0.0635,0.43091 0.25386,0.85849 0.35454,1.28441 0.17778,0.75249 0.29604,1.52246 0.36936,2.2918 0.10043,1.05364 0.0796,2.11434 0.0796,3.17325 0,1.2762 0.006,2.55388 -0.0249,3.82804 -0.0578,2.37264 -2.8e-4,4.75383 -2.8e-4,7.12722 0,6.648724 0.0251,13.299694 0.0251,19.946134 h 3.21397 v -22.464584 -7.02648 c 0,-1.48277 0.061,-2.9821 -0.0796,-4.45766 -0.10069,-1.05793 -0.36007,-2.06196 -0.57325,-3.0977 0.76483,-0.18218 1.54397,-0.84335 2.08407,-1.38514 2.31732,-2.32438 2.48203,-6.30631 -0.12555,-8.49339 -0.47682,-0.39987 -1.02546,-0.71992 -1.60699,-0.94011 -1.58865,-0.60143 -3.36236,-0.48263 -4.89627,0.22374 -0.51675,0.23799 -0.99081,0.56049 -1.43123,0.91911 -0.11475,0.0934 -0.37036,0.42983 -0.52729,0.40734 -0.22171,-0.0318 -0.53984,-0.35216 -0.72817,-0.47796 -0.52148,-0.3486 -1.07162,-0.6695 -1.63205,-0.95079 -1.70165,-0.85395 -3.49946,-1.46993 -5.37336,-1.80882 -1.42394,-0.25749 -2.85466,-0.30105 -4.29366,-0.36426 -1.68608,-0.0741 -3.38571,-0.0741 -5.07204,0 -1.33872,0.0588 -2.68058,0.0373 -4.01747,0.12917 -1.36927,0.0941 -2.72539,0.35234 -4.04257,0.73878 -1.28332,0.37653 -2.52472,0.91946 -3.69104,1.57242 -0.4025,0.22535 -0.79671,0.46898 -1.18013,0.72549 -0.16439,0.10995 -0.36147,0.31362 -0.5524,0.36797 -0.1738,0.0495 -0.54092,-0.39293 -0.67795,-0.50002 -0.57798,-0.45166 -1.22097,-0.78409 -1.90829,-1.03229 -2.73222,-0.98657 -6.03865,0.18662 -7.2739,2.88527 -0.96353,2.10502 -0.4544,4.64911 1.07621,6.3465 0.45881,0.5088 0.99154,0.92873 1.57761,1.27935 0.12484,0.0747 0.59876,0.22734 0.60681,0.38547 0.0121,0.23777 -0.14264,0.54426 -0.19441,0.77808 -0.13469,0.6083 -0.25316,1.21968 -0.32991,1.83847 -0.18928,1.52583 -0.13271,3.07253 -0.13271,4.60877 v 29.793274 m 41.90715,-41.529264 c 0.2079,-0.066 0.43916,-0.0651 0.65283,-0.0271 0.12429,0.0221 0.24833,0.0954 0.37664,0.0633 0.20815,-0.052 0.32466,-0.30723 0.18807,-0.4872 -0.19184,-0.25225 -0.63225,-0.25302 -0.91623,-0.2329 -0.82986,0.0588 -1.5289,0.36885 -2.20961,0.84365 -0.24983,0.17421 -0.85497,0.52601 -0.7028,0.89788 0.0942,0.22994 0.35554,0.22228 0.52704,0.091 0.28022,-0.21447 0.56043,-0.56287 0.90393,-0.67766 0.37864,-0.12653 1.06613,0.12655 1.381,0.3315 0.26365,0.17174 0.44619,0.71325 0.77838,0.68054 0.33646,-0.0331 0.2875,-0.44249 0.16371,-0.65195 -0.24607,-0.41712 -0.69452,-0.68446 -1.14296,-0.83108 m -38.91916,0.27703 c -0.54565,0.20648 -1.06653,0.32871 -1.43724,0.83109 -0.16251,0.22023 -0.3207,0.77598 0.13157,0.77598 0.29305,0 0.44872,-0.49329 0.67794,-0.65547 0.39962,-0.28275 0.9085,-0.34763 1.38101,-0.39326 0.40812,-0.0394 0.58938,0.32518 0.90393,0.51593 0.1624,0.0985 0.37492,0.059 0.46559,-0.11764 0.17702,-0.34477 -0.37038,-0.66477 -0.59114,-0.83363 -0.72545,-0.55494 -1.69658,-1.03445 -2.63646,-0.9217 -0.20607,0.0247 -0.45109,0.0508 -0.59172,0.22384 -0.15844,0.19485 0.002,0.48986 0.24019,0.49782 0.19123,0.006 0.38214,-0.0912 0.57751,-0.096 0.29529,-0.007 0.60074,0.0839 0.87882,0.17305 m 13.40828,2.62989 c -0.49292,0.0673 -0.96281,0.21705 -1.381,0.49307 -0.36459,0.24063 -0.67424,0.54094 -0.91609,0.90656 -1.1182,1.69052 -0.31808,4.07335 1.59403,4.74237 0.48936,0.17121 1.02047,0.20894 1.53166,0.13623 0.41651,-0.0592 0.82167,-0.21757 1.18013,-0.43642 1.95673,-1.19468 1.95909,-4.22688 -0.0251,-5.39891 -0.29639,-0.17508 -0.61595,-0.31413 -0.95415,-0.38306 -0.33257,-0.0678 -0.69078,-0.10607 -1.02947,-0.0598 m 17.19975,0 c -0.55315,0.0755 -1.07693,0.25165 -1.53166,0.58466 -2.10615,1.54265 -1.47616,4.95858 1.05459,5.62814 0.35077,0.0927 0.74323,0.134 1.1048,0.0906 0.53181,-0.0638 1.0355,-0.23328 1.48144,-0.53474 0.31437,-0.21248 0.5873,-0.47992 0.80274,-0.79284 1.23612,-1.7955 0.31863,-4.35014 -1.8071,-4.89511 -0.35003,-0.0897 -0.74525,-0.1298 -1.10481,-0.0807 m -11.49998,6.62352 c -0.58592,0.0772 -1.13978,0.15438 -1.68231,0.41194 -0.98745,0.46876 -1.758,1.54364 -1.10315,2.59952 0.12447,0.20072 0.29302,0.36941 0.47542,0.51726 0.84994,0.68898 2.09927,0.91285 3.16375,0.78513 0.50821,-0.061 0.98804,-0.18896 1.45633,-0.39582 0.96394,-0.42574 1.71119,-1.4599 1.1505,-2.49319 -0.10948,-0.20188 -0.25486,-0.37052 -0.42234,-0.52664 -0.74599,-0.6958 -2.03459,-1.03035 -3.0382,-0.8982 m -6.0513,5.75658 c -0.0832,0.16621 -0.11017,0.34603 -0.12971,0.52887 -0.13936,1.30557 1.1059,1.8153 2.18866,1.96439 0.28172,0.0388 0.56927,0.075 0.85371,0.0756 0.0827,2.9e-4 0.22073,0.035 0.29079,-0.0174 0.0874,-0.0657 0.11144,-0.23597 0.13958,-0.3352 0.0963,-0.33924 0.0718,-0.68225 0.0718,-1.03257 -0.96525,0 -2.22208,-0.1234 -3.0131,-0.72783 -0.16765,-0.12819 -0.26618,-0.3002 -0.40174,-0.45584 m 12.70522,0 c -0.63752,1.03962 -2.28092,1.18292 -3.38973,1.18367 0,0.34705 -0.0201,0.69182 0.0502,1.03257 0.0193,0.094 0.0183,0.26141 0.0798,0.33747 0.0482,0.0597 0.17727,0.0456 0.24657,0.0549 0.26038,0.0343 0.519,-0.006 0.77838,-0.0144 1.04856,-0.0307 2.30276,-0.55129 2.38763,-1.73799 0.0183,-0.25537 0.0266,-0.65177 -0.15292,-0.85627 m -3.41484,4.33174 c -0.10018,0.43443 -0.44644,0.78022 -0.87882,0.88397 -0.51348,0.12341 -1.10731,0.0479 -1.63209,0.0479 -0.78064,0 -1.61208,0.0803 -2.38537,-0.0327 -0.42005,-0.0614 -0.86476,-0.44374 -0.92904,-0.8739 h -0.0251 c 0,0.56263 -0.10648,1.21717 0.33368,1.65135 0.37277,0.3677 0.83965,0.33823 1.32353,0.33823 h 2.38536 c 0.402,0 0.83488,0.0557 1.20524,-0.13272 0.55115,-0.28056 0.62773,-0.82278 0.62773,-1.37835 0,-0.15488 0.0349,-0.35989 -0.0251,-0.50369 z"
       id="path425" />
  </g>
</svg>
