<?xml version="1.0" encoding="UTF-8" standalone="no"?>
<!-- Created with Inkscape (http://www.inkscape.org/) -->

<svg
   width="51.304382mm"
   height="49.972279mm"
   viewBox="0 0 51.304382 49.972279"
   version="1.1"
   id="svg5"
   xmlns="http://www.w3.org/2000/svg"
   >
  <defs
     id="defs2" />
  <path
     style="fill:#268765;fill-opacity:1;stroke:none;stroke-width:0.0728371"
     d="m 31.61786,30.852249 c 0.64835,2.17099 1.249639,4.07363 2.505121,5.653487 4.867689,6.125166 12.583878,2.721475 15.659867,-5.030867 1.296342,-3.267158 1.567074,-7.182642 1.015588,-10.85139 -0.239417,-1.592753 -0.763762,-3.107768 -1.461081,-4.358347 -4.028711,-7.2256023 -11.927356,-5.516864 -15.655096,1.334188 -0.790784,1.453375 -1.754121,3.435176 -1.945107,5.33675 h -5.72599 c -0.718791,0 -1.832853,-0.314513 -2.504226,0.07952 -0.295485,0.173443 -0.445852,0.681059 -0.581904,1.076779 -0.337714,0.982406 -0.635585,2.009197 -0.926835,3.024158 -0.128596,0.448198 -0.360916,1.161633 0.02464,1.483794 0.37362,0.312201 1.066286,0.117234 1.48321,0.117234 h 3.578744 c -0.47973,1.051695 -1.014515,2.010263 -1.729726,2.725388 -2.251387,2.25122 -5.571389,0.905556 -6.337597,-3.170119 -0.812912,-4.324102 1.401495,-9.052018 4.309642,-9.818285 1.017317,-0.268083 2.141818,0.130757 2.982287,1.016472 0.352029,0.370993 0.699287,1.293094 1.134163,1.397694 0.391217,0.0941 0.879119,-0.230992 1.251666,-0.385401 0.832117,-0.344843 1.674375,-0.63872 2.50512,-0.990323 0.290953,-0.1231 1.067779,-0.201819 1.041476,-0.827642 -0.03364,-0.801757 -0.594132,-1.859768 -0.897073,-2.489149 -1.23246,-2.560217 -3.140647,-4.21025 -5.21429,-4.721243 -5.07788,-1.251379 -10.429712,3.881239 -12.004001,11.125344 -0.382986,1.762462 -0.476391,3.49726 -0.461718,5.336749 0.0112,1.406945 0.26256,2.878822 0.608387,4.180455 0.361633,1.361317 0.906019,2.609494 1.598327,3.64678 4.580672,6.863505 13.230258,4.072741 15.746412,-4.892021 m 9.781902,-12.426978 c 2.812715,-0.515087 5.006068,3.075213 4.63513,7.179173 -0.312424,3.457414 -2.341692,6.530314 -4.694776,6.922922 -2.953418,0.492759 -5.398594,-3.196092 -4.731994,-7.634489 0.525838,-3.501086 2.403068,-6.030172 4.79164,-6.467606 M 3.7633031,19.822965 H 10.8015 c 0.575581,0 1.753167,0.336483 2.255503,-0.09143 0.250214,-0.213113 0.41251,-0.790016 0.547846,-1.153805 -0.72744,-0.32065 -1.687319,-0.08895 -2.445476,-0.08895 H 6.0894863 c -1.0335412,0 -1.7992728,-0.243534 -2.3261832,1.334187 M 0.06526773,23.291855 H 9.2507099 11.21902 l 0.809392,-0.154936 0.323876,-1.179245 c -0.893612,-0.393852 -2.109431,-0.08895 -3.0419318,-0.08895 H 2.8686171 c -0.9922068,0 -2.49897719,-0.486892 -2.80334937,1.423131 m 5.96457317,3.290997 c 0.6608755,0.291297 1.5185202,0.08895 2.2068925,0.08895 h 1.5507881 c 0.4924955,0 1.3276555,0.241221 1.7805455,-0.05363 0.217706,-0.141782 0.316181,-0.970398 0.150903,-1.226918 -0.252838,-0.392252 -1.227092,-0.142577 -1.573573,-0.142577 H 7.6402756 c -0.3131988,0 -0.7845203,-0.128087 -1.0674199,0.104874 -0.2742509,0.225834 -0.4279582,0.819279 -0.5430148,1.229321 z"
     id="path1147" />
  <path
     style="fill:#000000;stroke-width:0.0504944"
     id="path935"
     d="" />
  <path
     style="fill:#000000;stroke-width:0.0504944"
     id="path915"
     d="" />
</svg>
