<?xml version="1.0" encoding="UTF-8" standalone="no"?>
<!-- Created with Inkscape (http://www.inkscape.org/) -->

<svg
   width="55.28569mm"
   height="55.462418mm"
   viewBox="0 0 55.28569 55.462418"
   version="1.1"
   id="svg5"
   xmlns="http://www.w3.org/2000/svg"
>
  <defs
     id="defs2" />
  <g
     id="layer1"
     transform="translate(-38.26033,-68.858983)">
    <path
       id="path1312"
       style="fill:#268765;fill-opacity:1;stroke-width:0.0787511"
       d="m 38.26033,68.858983 0.0548,0.53694 c 0.0301,0.29532 1.16241,11.5301 2.51639,24.96611 1.35397,13.436017 2.47438,24.440197 2.48973,24.453767 0.0153,0.0135 5.09553,1.27028 11.28925,2.79263 8.37936,2.05954 11.31485,2.75337 11.47062,2.71117 0.11514,-0.0313 5.20222,-1.27856 11.30462,-2.77193 6.1024,-1.49337 11.10619,-2.72366 11.11949,-2.73392 0.0244,-0.0187 5.038891,-49.583997 5.040791,-49.825167 9.3e-4,-0.12317 -1.370611,-0.1296 -27.642191,-0.1296 z m 27.6533,4.07336 h 11.30463 c 10.60829,0 11.30462,0.008 11.30462,0.12671 0,0.20157 -4.28261,42.567667 -4.30498,42.587587 -0.0112,0.008 -4.09768,1.01803 -9.08115,2.24036 -4.98347,1.22231 -9.09735,2.22226 -9.142,2.22226 -0.0523,0 -0.0811,-8.40825 -0.0811,-23.588457 z m 20.18085,5.70213 -9.14837,0.0188 -9.14837,0.0188 v 9.25763 9.25764 l 4.71026,0.0192 4.71026,0.0191 -0.004,0.20309 c -0.002,0.11167 -0.18172,1.885502 -0.39923,3.941877 l -0.39547,3.73893 -4.1936,0.67392 c -2.30644,0.37072 -4.25571,0.69525 -4.3318,0.72109 -0.12563,0.0426 -0.13837,0.33536 -0.13837,3.18448 0,1.72566 0.0279,3.16231 0.0622,3.19257 0.0342,0.0302 0.17553,0.0353 0.31402,0.0116 0.94409,-0.16415 14.75009,-2.95928 14.79594,-2.99554 0.0679,-0.0537 1.99144,-18.757147 1.93742,-18.838437 -0.0203,-0.0305 -2.22033,-0.0555 -4.88886,-0.0555 h -4.85174 v -3.11056 -3.11057 h 5.18652 5.18668 l 0.0473,-0.31475 c 0.0718,-0.47791 0.54921,-5.35335 0.54921,-5.60912 z m -31.55383,0.22551 h 7.74576 v 17.14514 c 0,13.671227 -0.0212,17.143447 -0.10468,17.136757 -0.0576,-0.004 -3.91056,-0.68112 -8.5622,-1.50336 v -1.3e-4 c -4.65164,-0.82226 -8.50501,-1.50996 -8.56286,-1.52838 -0.0757,-0.0241 -0.23367,-1.29805 -0.56442,-4.55115 -0.25261,-2.48467 -0.45965,-4.64256 -0.46006,-4.79531 l -6.7e-4,-0.27773 h 3.47513 3.47512 l 0.004,0.20367 c 0.009,0.44295 0.46002,4.60114 0.50308,4.63923 0.0545,0.0482 3.3338,0.48949 3.6377,0.48949 h 0.21 l -0.0212,-10.387057 -0.0213,-10.38707 -3.93978,-0.0192 -3.93993,-0.0192 -0.31222,-3.01727 c -0.17174,-1.6595 -0.31108,-3.04226 -0.30978,-3.07281 10e-4,-0.0306 3.48788,-0.0555 7.74804,-0.0555 z" />
  </g>
</svg>
