<?xml version="1.0" encoding="UTF-8" standalone="no"?>
<!-- Created with Inkscape (http://www.inkscape.org/) -->

<svg
   width="98.410019mm"
   height="98.410004mm"
   viewBox="0 0 98.410019 98.410004"
   version="1.1"
   id="svg5"
   xmlns="http://www.w3.org/2000/svg"
>
  <defs
     id="defs2" />
  <g
     id="layer1"
     transform="translate(-16.637661,-46.373066)">
    <ellipse
       style="fill:#268765;fill-opacity:1;stroke-width:0.27486"
       id="path31"
       cx="65.842682"
       cy="99.648979"
       rx="49.205002"
       ry="45.134087" />
    <ellipse
       style="fill:#70bba1;fill-opacity:1;stroke-width:0.264583"
       id="path31-3"
       cx="65.48867"
       cy="88.498215"
       rx="48.851009"
       ry="42.125149" />
    <path
       style="fill:#268765;fill-opacity:1;stroke:none;stroke-width:0.0481953"
       d="m 74.997049,59.376741 c -1.104428,0.158823 -1.812619,0.886538 -2.597634,1.616779 -0.746724,0.694587 -1.497246,1.390993 -2.260902,2.066816 -3.801205,3.3639 -7.571957,6.808076 -11.256411,10.300538 -1.229932,1.165828 -2.513355,2.27463 -3.752137,3.430897 -0.318307,0.297155 -0.632429,0.600683 -0.962087,0.885332 -0.104002,0.08981 -0.235616,0.251814 -0.384834,0.253263 -0.224937,0.0022 -0.504085,-0.320767 -0.673461,-0.448823 -0.562291,-0.425162 -1.120494,-0.855684 -1.683652,-1.279639 -1.448902,-1.090743 -2.880487,-2.204615 -4.329389,-3.295358 -0.69804,-0.525549 -1.403395,-1.238498 -2.212798,-1.581428 -1.668383,-0.706867 -3.068689,1.180891 -4.136971,2.174578 -0.466713,0.434145 -0.977529,0.800205 -1.234493,1.404606 -0.507438,1.193545 0.25498,2.099881 1.09018,2.857109 1.580535,1.432997 3.134695,2.895353 4.714223,4.329364 0.497591,0.451768 1.008074,0.892382 1.491233,1.359698 0.117569,0.113763 0.430247,0.300438 0.430247,0.483396 0,0.190683 -0.353135,0.410724 -0.47835,0.529412 -0.503844,0.47765 -1.037274,0.924444 -1.539338,1.403929 -1.479261,1.412668 -3.042537,2.7362 -4.521807,4.148868 -0.716432,0.68422 -1.475521,1.318076 -1.333001,2.416207 0.124279,0.957613 0.877363,1.457669 1.525419,2.076315 0.627136,0.598656 1.273269,1.267089 1.972276,1.778922 1.132054,0.828932 2.208037,0.210817 3.174886,-0.517341 1.803288,-1.358201 3.584061,-2.746532 5.387683,-4.104348 0.595195,-0.448098 1.184667,-0.903777 1.779861,-1.352021 0.163458,-0.123131 0.449632,-0.451043 0.67346,-0.352442 0.495427,0.218206 0.943662,0.844674 1.346922,1.201656 1.090475,0.965391 2.144008,1.97284 3.222989,2.951075 3.603928,3.267496 7.244558,6.513509 10.775367,9.860379 1.0404,0.98615 2.113607,1.94015 3.174885,2.90366 1.013797,0.92034 1.93769,1.81219 3.415407,1.61953 1.051801,-0.13714 2.033272,-0.83729 2.982467,-1.27482 2.083686,-0.96041 4.151645,-1.97322 6.205457,-2.9967 1.104957,-0.55066 2.449761,-0.93473 3.135919,-2.04001 0.589283,-0.94983 0.471905,-2.0681 0.471905,-3.138611 v -5.649516 -19.121435 -5.31151 c 0,-0.969495 0.128443,-2.038027 -0.283815,-2.945473 -0.551758,-1.214357 -1.811416,-1.668008 -2.939173,-2.187797 -2.276442,-1.049246 -4.539124,-2.16245 -6.782709,-3.280532 -1.101782,-0.549057 -2.324113,-1.359136 -3.607824,-1.174525 m 1.298816,13.354671 v 22.404911 l -1.44313,-1.056169 -2.934363,-2.23344 -10.34243,-7.864559 v -0.09657 l 4.136973,-3.144221 6.397874,-4.865729 2.79005,-2.124073 z"
       id="path2928" />
  </g>
</svg>
