<?xml version="1.0" encoding="UTF-8" standalone="no"?>
<!-- Created with Inkscape (http://www.inkscape.org/) -->

<svg
   width="98.410019mm"
   height="98.410004mm"
   viewBox="0 0 98.410019 98.410004"
   version="1.1"
   id="svg5"
   xmlns="http://www.w3.org/2000/svg"
>
  <defs
     id="defs2" />
  <g
     id="layer1"
     transform="translate(-16.637661,-46.373066)">
    <ellipse
       style="fill:#268765;fill-opacity:1;stroke-width:0.27486"
       id="path31"
       cx="65.842682"
       cy="99.648979"
       rx="49.205002"
       ry="45.134087" />
    <ellipse
       style="fill:#70bba1;fill-opacity:1;stroke-width:0.264583"
       id="path31-3"
       cx="65.48867"
       cy="88.498215"
       rx="48.851009"
       ry="42.125149" />
    <path
       style="fill:#268765;fill-opacity:1;stroke:none;stroke-width:0.0251468"
       d="m 43.458857,109.80584 h 3.21397 V 87.114597 80.188852 c 0,-1.569925 -0.05113,-3.147685 0.104675,-4.709505 0.108123,-1.083892 0.407673,-2.094018 0.648596,-3.148062 -1.171844,-0.520994 -2.525928,-0.845674 -3.489794,-1.742017 -1.355495,-1.26051 -1.327952,-3.493042 0.150279,-4.632512 0.953519,-0.734988 2.21249,-0.776365 3.289297,-0.313802 0.47293,0.203163 0.912843,0.534314 1.330783,0.831016 0.396699,0.281634 0.782478,0.576699 1.155021,0.889766 0.09117,0.07661 0.295156,0.333294 0.426856,0.299721 0.181713,-0.04631 0.407393,-0.360314 0.552397,-0.484247 0.414755,-0.35442 0.849319,-0.685446 1.305676,-0.984283 1.267936,-0.830235 2.658029,-1.411597 4.09279,-1.880632 2.728484,-0.89196 5.663592,-1.156119 8.511998,-1.22611 3.220242,-0.07911 6.446015,0.110505 9.591685,0.859573 2.522966,0.600751 5.175493,1.675931 7.055665,3.522912 h 0.02511 c 0.474058,-0.455083 1.037007,-0.844485 1.581873,-1.208858 0.513484,-0.343264 1.025959,-0.681039 1.632094,-0.833733 1.853556,-0.466945 3.707867,0.820716 3.839436,2.747759 0.02763,0.404235 -0.07909,0.832248 -0.21619,1.208858 -0.431624,1.187776 -1.490227,1.761481 -2.568663,2.249126 -0.40526,0.183218 -0.825837,0.403355 -1.255457,0.521169 0.06353,0.430906 0.253855,0.858489 0.354541,1.28441 0.177774,0.752488 0.296037,1.522456 0.369355,2.291792 0.10043,1.053647 0.07959,2.11434 0.07959,3.173249 0,1.276202 0.0063,2.553887 -0.02486,3.828049 -0.05775,2.372632 -2.84e-4,4.753829 -2.84e-4,7.127218 0,6.648715 0.02511,13.299691 0.02511,19.946131 h 3.21397 V 87.341258 80.314777 c 0,-1.482767 0.06102,-2.9821 -0.07959,-4.457661 -0.100683,-1.057925 -0.360062,-2.061957 -0.573241,-3.097697 0.764827,-0.182185 1.543962,-0.843352 2.084061,-1.385147 2.317322,-2.32438 2.482039,-6.306305 -0.125546,-8.493381 -0.476822,-0.399879 -1.025458,-0.719925 -1.606986,-0.940113 -1.588655,-0.60143 -3.362362,-0.482636 -4.896278,0.223743 -0.516747,0.237989 -0.990806,0.560481 -1.431221,0.919108 -0.114756,0.09341 -0.370361,0.429826 -0.527295,0.407333 -0.221712,-0.03176 -0.539844,-0.352154 -0.728166,-0.477953 -0.521479,-0.348603 -1.071622,-0.669504 -1.632056,-0.950788 -1.701647,-0.853959 -3.499462,-1.469936 -5.373355,-1.808823 -1.423938,-0.257496 -2.854658,-0.301052 -4.293661,-0.364257 -1.686078,-0.07406 -3.385714,-0.07407 -5.072044,0 -1.33872,0.0588 -2.680579,0.03733 -4.017464,0.129167 -1.369275,0.09406 -2.725392,0.352337 -4.04257,0.738775 -1.283327,0.37653 -2.524724,0.919462 -3.691043,1.57242 -0.402497,0.225351 -0.796711,0.468983 -1.180129,0.72549 -0.164389,0.10995 -0.361468,0.313622 -0.5524,0.36797 -0.173804,0.04948 -0.540925,-0.392927 -0.677947,-0.500014 -0.577987,-0.451659 -1.220979,-0.784094 -1.908292,-1.032288 -2.732226,-0.986577 -6.038651,0.186618 -7.273901,2.885266 -0.963536,2.105022 -0.454404,4.649112 1.076209,6.346501 0.458808,0.508801 0.991538,0.928727 1.577611,1.279349 0.124843,0.0747 0.598754,0.227337 0.606813,0.385473 0.01212,0.237765 -0.142644,0.544261 -0.194419,0.778074 -0.134687,0.608306 -0.253151,1.219686 -0.32991,1.83847 -0.18928,1.525831 -0.132709,3.072536 -0.132709,4.608768 v 29.793278 m 41.90715,-41.529265 c 0.207902,-0.06596 0.43916,-0.06507 0.652836,-0.02711 0.12429,0.02209 0.248332,0.09538 0.376637,0.0633 0.208155,-0.052 0.324662,-0.307227 0.188068,-0.487196 -0.191833,-0.252248 -0.632247,-0.253025 -0.91623,-0.232905 -0.829859,0.0588 -1.528895,0.368853 -2.209606,0.843657 -0.249835,0.174201 -0.854967,0.526004 -0.702803,0.897879 0.09416,0.229933 0.355544,0.222278 0.527039,0.09101 0.280221,-0.214471 0.560436,-0.562872 0.90393,-0.677664 0.378646,-0.126527 1.066134,0.126554 1.381002,0.331503 0.263647,0.171733 0.446188,0.713252 0.778385,0.680539 0.336459,-0.03312 0.287499,-0.442494 0.163709,-0.651954 -0.246069,-0.417122 -0.69452,-0.684457 -1.142967,-0.831081 m -38.919154,0.277031 c -0.545649,0.206486 -1.066534,0.328709 -1.437246,0.831091 -0.162506,0.220236 -0.320695,0.775983 0.13157,0.775983 0.29305,0 0.448728,-0.493289 0.677948,-0.655475 0.399612,-0.282748 0.908498,-0.347625 1.381001,-0.393259 0.408123,-0.03943 0.589386,0.325182 0.903932,0.515931 0.162402,0.09848 0.374926,0.05899 0.465596,-0.117636 0.177019,-0.344777 -0.370385,-0.664772 -0.591145,-0.833632 -0.725451,-0.554942 -1.696574,-1.034455 -2.636458,-0.921705 -0.20607,0.02472 -0.451086,0.05085 -0.591721,0.223842 -0.15844,0.194852 0.0019,0.489866 0.240194,0.497825 0.19123,0.0064 0.382135,-0.09117 0.577509,-0.096 0.295284,-0.0073 0.600734,0.08386 0.87882,0.173043 m 13.408275,2.629898 c -0.492918,0.06729 -0.962808,0.217043 -1.381,0.493062 -0.364587,0.240639 -0.674234,0.540942 -0.916084,0.906569 -1.118207,1.690512 -0.318081,4.073345 1.594031,4.74237 0.489351,0.171205 1.020461,0.208933 1.531655,0.136224 0.41651,-0.05921 0.821673,-0.217569 1.180129,-0.436423 1.95673,-1.194679 1.95909,-4.226872 -0.02511,-5.398908 -0.296389,-0.175081 -0.61595,-0.314124 -0.954146,-0.383055 -0.332571,-0.0678 -0.690779,-0.106076 -1.029477,-0.05984 m 17.199756,0 c -0.553155,0.0755 -1.076933,0.251647 -1.531658,0.584658 -2.106152,1.542654 -1.476167,4.958581 1.054584,5.628139 0.350775,0.09275 0.743231,0.134003 1.104803,0.09061 0.531813,-0.06379 1.0355,-0.233282 1.48144,-0.534742 0.314368,-0.212482 0.587302,-0.479918 0.80274,-0.792835 1.236122,-1.795505 0.318632,-4.350147 -1.807105,-4.895115 -0.350022,-0.08974 -0.745242,-0.129799 -1.104804,-0.08073 m -11.499982,6.62352 c -0.585924,0.07716 -1.139782,0.154381 -1.682312,0.411944 -0.987444,0.468757 -1.757993,1.543634 -1.103144,2.599523 0.124464,0.200718 0.29302,0.369404 0.475417,0.51726 0.849942,0.688975 2.099272,0.912841 3.163748,0.785127 0.508209,-0.06096 0.988046,-0.188957 1.456332,-0.395823 0.963938,-0.425743 1.711185,-1.459897 1.150498,-2.49319 C 68.905955,79.029954 68.760572,78.861318 68.593093,78.705199 67.847101,78.0094 66.558502,77.674848 65.55489,77.806994 m -6.0513,5.756578 c -0.08323,0.166216 -0.110174,0.346033 -0.129712,0.528875 -0.139358,1.305565 1.105903,1.8153 2.18866,1.964393 0.281726,0.0388 0.569273,0.07505 0.853709,0.07556 0.08265,2.84e-4 0.220734,0.03499 0.29079,-0.01739 0.08745,-0.06574 0.11144,-0.235978 0.139583,-0.335207 0.09629,-0.339235 0.0718,-0.682247 0.0718,-1.032565 -0.965245,0 -2.222083,-0.123404 -3.013095,-0.727829 -0.167654,-0.12819 -0.266182,-0.3002 -0.401745,-0.455842 m 12.705218,0 c -0.637521,1.039617 -2.280914,1.182916 -3.389731,1.183671 0,0.347045 -0.02009,0.691821 0.05023,1.032565 0.01933,0.09395 0.01832,0.261418 0.07984,0.337472 0.04821,0.05968 0.177269,0.0456 0.246572,0.05492 0.260383,0.03425 0.519005,-0.0065 0.778386,-0.01435 1.048556,-0.03073 2.302757,-0.551289 2.387623,-1.737984 0.01832,-0.255371 0.0266,-0.651775 -0.152914,-0.856272 m -3.414839,4.331736 c -0.100189,0.434433 -0.446442,0.780217 -0.878824,0.883975 -0.513477,0.123405 -1.107307,0.04785 -1.632092,0.04785 -0.780643,0 -1.612081,0.08035 -2.385367,-0.03274 -0.420051,-0.06145 -0.864759,-0.443748 -0.929038,-0.873899 h -0.02511 c 0,0.562622 -0.106484,1.217166 0.333676,1.65135 0.372769,0.367693 0.839648,0.338226 1.323527,0.338226 h 2.385367 c 0.401998,0 0.834879,0.05566 1.205238,-0.132721 0.551146,-0.280557 0.627728,-0.82278 0.627728,-1.378351 0,-0.154883 0.0349,-0.359887 -0.02511,-0.503688 z"
       id="path425" />
  </g>
</svg>
