<?xml version="1.0" encoding="UTF-8" standalone="no"?>
<!-- Created with Inkscape (http://www.inkscape.org/) -->

<svg
   width="51.304386mm"
   height="49.972248mm"
   viewBox="0 0 51.304386 49.972248"
   version="1.1"
   id="svg5"
   xmlns="http://www.w3.org/2000/svg"
 >
  <defs
     id="defs2" />
  <g
     id="layer1"
     transform="translate(-167.02249,9.2521734)">
    <path
       style="fill:#264387;fill-opacity:1.0;stroke:none;stroke-width:0.0251468"
       d="m 170.11609,40.720074 h 3.21397 V 18.028831 11.103086 c 0,-1.5699246 -0.0511,-3.1476846 0.10468,-4.7095046 0.10812,-1.083892 0.40767,-2.094018 0.64859,-3.148062 -1.17184,-0.520994 -2.52592,-0.845674 -3.48979,-1.742017 -1.35549,-1.26051001 -1.32795,-3.493042 0.15028,-4.632512 0.95352,-0.734988 2.21249,-0.776365 3.2893,-0.313802 0.47293,0.203163 0.91284,0.534314 1.33078,0.831016 0.3967,0.281634 0.78248,0.576699 1.15502,0.889766 0.0912,0.07661 0.29516,0.333294 0.42686,0.299721 0.18171,-0.04631 0.40739,-0.360314 0.55239,-0.484247 0.41476,-0.35442 0.84932,-0.685446 1.30568,-0.984283 1.26794,-0.830235 2.65803,-1.411597 4.09279,-1.880632 2.72848,-0.89196 5.66359,-1.156119 8.512,-1.22611 3.22024,-0.07911 6.44601,0.110505 9.59168,0.859573 2.52297,0.600751 5.1755,1.675931 7.05567,3.522912 h 0.0251 c 0.47406,-0.455083 1.037,-0.844485 1.58187,-1.208858 0.51348,-0.343264 1.02596,-0.681039 1.63209,-0.833733 1.85356,-0.466945 3.70787,0.820716 3.83944,2.74775899 0.0276,0.404235 -0.0791,0.832248 -0.21619,1.208858 -0.43162,1.18777601 -1.49023,1.76148101 -2.56866,2.24912601 -0.40526,0.183218 -0.82584,0.403355 -1.25546,0.521169 0.0635,0.430906 0.25386,0.858489 0.35454,1.28441 0.17778,0.752488 0.29604,1.522456 0.36936,2.291792 0.10043,1.053647 0.0796,2.11434 0.0796,3.173249 0,1.2762016 0.006,2.5538866 -0.0249,3.8280486 -0.0577,2.372632 -2.9e-4,4.753829 -2.9e-4,7.127218 0,6.648715 0.0251,13.299691 0.0251,19.946131 h 3.21397 V 18.255492 11.229011 c 0,-1.4827666 0.061,-2.9820996 -0.0796,-4.4576606 -0.10068,-1.057925 -0.36006,-2.061957 -0.57324,-3.097697 0.76483,-0.182185 1.54396,-0.843352 2.08406,-1.385147 2.31732,-2.32438001 2.48204,-6.306305 -0.12554,-8.493381 -0.47683,-0.399879 -1.02546,-0.719925 -1.60699,-0.940113 -1.58865,-0.60143 -3.36236,-0.482636 -4.89628,0.223743 -0.51674,0.237989 -0.9908,0.560481 -1.43122,0.919108 -0.11475,0.09341 -0.37036,0.429826 -0.52729,0.407333 -0.22172,-0.03176 -0.53985,-0.352154 -0.72817,-0.477953 -0.52148,-0.348603 -1.07162,-0.669504 -1.63206,-0.950788 -1.70164,-0.853959 -3.49946,-1.469936 -5.37335,-1.808823 -1.42394,-0.257496 -2.85466,-0.301052 -4.29366,-0.364257 -1.68608,-0.07406 -3.38572,-0.07407 -5.07205,0 -1.33872,0.0588 -2.68057,0.03733 -4.01746,0.129167 -1.36927,0.09406 -2.72539,0.352337 -4.04257,0.738775 -1.28333,0.37653 -2.52472,0.919462 -3.69104,1.57242 -0.4025,0.225351 -0.79671,0.468983 -1.18013,0.72549 -0.16439,0.10995 -0.36147,0.313622 -0.5524,0.36797 -0.17381,0.04948 -0.54093,-0.392927 -0.67795,-0.500014 -0.57799,-0.451659 -1.22098,-0.784094 -1.90829,-1.032288 -2.73223,-0.986577 -6.03865,0.186618 -7.2739,2.885266 -0.96354,2.105022 -0.45441,4.64911199 1.07621,6.346501 0.45881,0.508801 0.99154,0.928727 1.57761,1.279349 0.12484,0.0747 0.59875,0.227337 0.60681,0.385473 0.0121,0.237765 -0.14264,0.544261 -0.19442,0.778074 -0.13468,0.608306 -0.25315,1.219686 -0.32991,1.83847 -0.18928,1.525831 -0.13271,3.072536 -0.13271,4.6087676 v 29.793278 m 41.90715,-41.52926461 c 0.20791,-0.06596 0.43916,-0.06507 0.65284,-0.02711 0.12429,0.02209 0.24833,0.09538 0.37664,0.0633 0.20815,-0.052 0.32466,-0.30722699 0.18806,-0.48719599 -0.19183,-0.252248 -0.63224,-0.253025 -0.91623,-0.232905 -0.82985,0.0588 -1.52889,0.368853 -2.2096,0.84365699 -0.24984,0.174201 -0.85497,0.526004 -0.7028,0.897879 0.0942,0.229933 0.35554,0.222278 0.52703,0.09101 0.28023,-0.214471 0.56044,-0.562872 0.90393,-0.677664 0.37865,-0.126527 1.06614,0.126554 1.38101,0.331503 0.26364,0.171733 0.44618,0.713252 0.77838,0.680539 0.33646,-0.03312 0.2875,-0.442494 0.16371,-0.651954 -0.24607,-0.417122 -0.69452,-0.684457 -1.14297,-0.831081 m -38.91915,0.277031 c -0.54565,0.206486 -1.06653,0.328709 -1.43725,0.831091 -0.1625,0.220236 -0.32069,0.77598301 0.13157,0.77598301 0.29305,0 0.44873,-0.49328901 0.67795,-0.65547501 0.39961,-0.282748 0.9085,-0.347625 1.381,-0.393259 0.40813,-0.03943 0.58939,0.325182 0.90393,0.515931 0.16241,0.09848 0.37493,0.05899 0.4656,-0.117636 0.17702,-0.344777 -0.37038,-0.664772 -0.59114,-0.833632 -0.72546,-0.554942 -1.69658,-1.03445499 -2.63646,-0.92170499 -0.20607,0.02472 -0.45109,0.05085 -0.59172,0.223842 -0.15844,0.19485199 0.002,0.48986599 0.24019,0.49782499 0.19123,0.0064 0.38214,-0.09117 0.57751,-0.096 0.29528,-0.0073 0.60073,0.08386 0.87882,0.173043 m 13.40827,2.62989801 c -0.49291,0.06729 -0.9628,0.217043 -1.381,0.493062 -0.36458,0.240639 -0.67423,0.540942 -0.91608,0.906569 -1.11821,1.690512 -0.31808,4.073345 1.59403,4.74237 0.48935,0.171205 1.02046,0.208933 1.53166,0.136224 0.41651,-0.05921 0.82167,-0.217569 1.18013,-0.436423 1.95673,-1.194679 1.95909,-4.226872 -0.0251,-5.398908 -0.29639,-0.175081 -0.61595,-0.314124 -0.95415,-0.383055 -0.33257,-0.0678 -0.69078,-0.106076 -1.02948,-0.05984 m 17.19976,0 c -0.55316,0.0755 -1.07693,0.251647 -1.53166,0.584658 -2.10615,1.542654 -1.47617,4.958581 1.05458,5.628139 0.35078,0.09275 0.74324,0.134003 1.10481,0.09061 0.53181,-0.06379 1.0355,-0.233282 1.48144,-0.534742 0.31437,-0.212482 0.5873,-0.479918 0.80274,-0.792835 1.23612,-1.795505 0.31863,-4.350147 -1.80711,-4.895115 -0.35002,-0.08974 -0.74524,-0.129799 -1.1048,-0.08073 m -11.49998,6.62352 c -0.58593,0.07716 -1.13979,0.154381 -1.68232,0.411944 -0.98744,0.468757 -1.75799,1.5436336 -1.10314,2.5995226 0.12446,0.200718 0.29302,0.369404 0.47542,0.51726 0.84994,0.688975 2.09927,0.912841 3.16375,0.785127 0.5082,-0.06096 0.98804,-0.188957 1.45633,-0.395823 0.96394,-0.425743 1.71118,-1.459897 1.1505,-2.49319 -0.10948,-0.2018806 -0.25486,-0.3705166 -0.42234,-0.5266356 -0.74599,-0.695799 -2.03459,-1.030351 -3.0382,-0.898205 m -6.0513,5.7565776 c -0.0832,0.166216 -0.11018,0.346033 -0.12972,0.528875 -0.13935,1.305565 1.10591,1.8153 2.18866,1.964393 0.28173,0.0388 0.56928,0.07505 0.85371,0.07556 0.0827,2.84e-4 0.22074,0.03499 0.29079,-0.01739 0.0874,-0.06574 0.11144,-0.235978 0.13959,-0.335207 0.0963,-0.339235 0.0718,-0.682247 0.0718,-1.032565 -0.96525,0 -2.22209,-0.123404 -3.0131,-0.727829 -0.16765,-0.12819 -0.26618,-0.3002 -0.40174,-0.455842 m 12.70521,0 c -0.63752,1.039617 -2.28091,1.182916 -3.38973,1.183671 0,0.347045 -0.0201,0.691821 0.0502,1.032565 0.0193,0.09395 0.0183,0.261418 0.0798,0.337472 0.0482,0.05968 0.17727,0.0456 0.24658,0.05492 0.26038,0.03425 0.519,-0.0065 0.77838,-0.01435 1.04856,-0.03073 2.30276,-0.551289 2.38762,-1.737984 0.0183,-0.255371 0.0266,-0.651775 -0.15291,-0.856272 m -3.41484,4.331736 c -0.10019,0.434433 -0.44644,0.780217 -0.87882,0.883975 -0.51348,0.123405 -1.10731,0.04785 -1.63209,0.04785 -0.78065,0 -1.61209,0.08035 -2.38537,-0.03274 -0.42005,-0.06145 -0.86476,-0.443748 -0.92904,-0.873899 h -0.0251 c 0,0.562622 -0.10648,1.217166 0.33368,1.65135 0.37277,0.367693 0.83964,0.338226 1.32352,0.338226 h 2.38537 c 0.402,0 0.83488,0.05566 1.20524,-0.132721 0.55114,-0.280557 0.62773,-0.82278 0.62773,-1.378351 0,-0.154883 0.0349,-0.359887 -0.0251,-0.503688 z"
       id="path425" />
  </g>
</svg>
