<?xml version="1.0" encoding="UTF-8" standalone="no"?>
<!-- Created with Inkscape (http://www.inkscape.org/) -->

<svg
   width="167.52831mm"
   height="170.3896mm"
   viewBox="0 0 167.52831 170.3896"
   version="1.1"
   id="svg30801"
   xmlns:xlink="http://www.w3.org/1999/xlink"
   xmlns="http://www.w3.org/2000/svg">
  <defs
     id="defs30798">
    <linearGradient
       id="linearGradient31443">
      <stop
         style="stop-color:#2967a3;stop-opacity:1;"
         offset="0"
         id="stop31439" />
      <stop
         style="stop-color:#2967a3;stop-opacity:0;"
         offset="1"
         id="stop31441" />
    </linearGradient>
    <linearGradient
       xlink:href="#linearGradient31443"
       id="linearGradient31445"
       x1="164.48706"
       y1="211.45938"
       x2="62.183132"
       y2="147.38667"
       gradientUnits="userSpaceOnUse" />
  </defs>
  <g
     id="layer1"
     transform="translate(-21.840018,-66.759877)">
    <path
       id="path31188"
       style="fill:#1f8461;fill-opacity:1;stroke:none;stroke-width:0.999999"
       d="m 518.96875,168.89453 -21.375,9.39258 c -11.76151,5.16548 -24.53456,10.83936 -28.38477,12.60742 -3.84982,1.76844 -13.29996,6.03556 -21,9.48438 -42.20182,18.90179 -82.05118,36.69446 -97.5,43.53125 -9.62494,4.25952 -26.72491,11.89145 -38,16.96093 -11.27508,5.06948 -27.02481,12.05654 -35,15.52539 -71.2131,30.97437 -80.98828,35.37337 -80.98828,36.38477 0.0234,1.27143 27.82419,11.84268 95.99024,36.49805 17.32497,6.26608 31.58766,11.31324 31.69726,11.21875 0.6361,-0.55862 3.37029,-27.22193 3.11328,-30.34571 l -0.31054,-3.76562 -15.5,-6.19336 c -8.5251,-3.40687 -16.84986,-6.69385 -18.5,-7.30274 -2.65852,-0.98078 -2.79778,-1.21986 -1.22852,-2.11523 0.97361,-0.55559 17.1738,-7.69383 36,-15.86328 18.82621,-8.16945 44.12836,-19.21825 56.22852,-24.55078 12.09978,-5.33254 25.37502,-11.16087 29.5,-12.95313 4.1246,-1.79187 21.00009,-9.11703 37.5,-16.27734 16.4999,-7.16032 42.24432,-18.4886 57.20898,-25.17383 l 27.20899,-12.1543 20.29101,8.69336 c 11.16019,4.78148 31.76595,13.52575 45.79102,19.43164 14.02507,5.90589 37.42497,15.78986 52,21.96485 30.4029,12.88101 71.80918,30.1955 80.25,33.55664 l 5.75,2.28906 v -6.67578 c 0.006,-3.67181 0.27431,-8.25333 0.59179,-10.18164 0.70791,-4.27767 5.61079,-1.69734 -54.60351,-28.72852 -7.97518,-3.57996 -21.70013,-9.7883 -30.5,-13.79687 -21.30259,-9.7028 -64.58775,-29.22327 -87.5,-39.45899 -10.17525,-4.54563 -25.30141,-11.35479 -33.61524,-15.13281 z m 0.0937,66.7793 -14.42969,6.21484 c -7.93738,3.41858 -20.50871,8.68435 -27.93359,11.70117 -7.42488,3.01682 -19.12699,7.88142 -26.00195,10.81055 -6.87497,2.92913 -23.29805,9.88286 -36.49805,15.45313 -13.2,5.57064 -24.51152,10.66866 -25.13477,11.33007 -2.5663,2.7224 -12.46411,74.5548 -14.94726,108.47266 -0.80466,10.99049 -2.24648,10.9065 15.0664,0.87109 16.10155,-9.33278 48.77834,-25.13957 66.01563,-31.93554 41.42286,-16.33134 72.93011,-23.02539 108.5,-23.02539 25.98274,-0.005 43.78396,2.71531 71.10351,10.86132 6.38174,1.903 11.96247,3.45899 12.4043,3.45899 1.91622,0 -0.65804,-35.53744 -4.77734,-65.93164 l -1.27735,-9.42969 -6.97656,-2.90625 C 626.786,278.54185 558.20196,251.12323 533.63276,241.42383 Z m 273.96484,59.21289 c -0.18141,0 -0.33007,7.19439 -0.33007,15.98633 v 15.98437 l 4.75195,-1.88281 c 2.61241,-1.03635 8.34792,-3.31321 12.74805,-5.05859 4.39974,-1.74577 10.63209,-4.3485 13.84961,-5.78321 l 5.85156,-2.60937 -4.85156,-2.48242 c -4.54375,-2.32668 -31.29758,-14.1543 -32.01758,-14.1543 z m -13.89257,4 c -0.31106,0 -3.91289,1.54616 -8.00196,3.43555 l -7.43359,3.43554 v 49.94336 49.94336 l -3.0625,1.26758 c -7.14898,2.96126 -11.09843,13.8913 -7.52149,20.80859 0.90029,1.74085 1.78954,3.16602 1.97852,3.16602 0.18746,0 1.55251,-1.83498 3.03711,-4.07813 4.34192,-6.56126 12.83506,-8.78758 20.19531,-5.29492 3.18614,1.51219 5.04008,3.3498 8.08789,8.01563 1.15805,1.7726 1.31333,1.7423 3.35352,-0.63086 1.78469,-2.07912 2.06646,-3.43299 1.71875,-8.25 -0.33865,-4.68473 -0.96284,-6.3412 -3.34961,-8.85156 -1.61499,-1.6989 -4.17493,-3.73547 -5.6875,-4.5254 l -2.75,-1.43554 v -53.47461 c 0,-29.41115 -0.25453,-53.47461 -0.56445,-53.47461 z m -39.42383,12.50781 c -0.74419,-0.45997 -40.29882,15.4453 -41.56836,16.71485 -0.29858,0.29858 0.15591,7.17819 1.00781,15.28906 0.85191,8.11086 1.54883,15.39449 1.54883,16.18554 h 0.002 c 0,1.02955 0.6369,1.24071 2.25,0.74219 2.52699,-0.7816 29.45541,-11.66475 34.53321,-13.95703 l 3.28515,-1.48242 -0.11914,-16.49414 c -0.0658,-9.07125 -0.48931,-16.71836 -0.93945,-16.99805 z m -184.64063,52.49414 c -16.82343,0 -17.2428,0.0525 -22.49219,2.79492 -15.47527,8.08441 -15.72744,30.37411 -0.42187,37.32618 8.12334,3.68995 17.01758,1.83284 23.35547,-4.87696 l 3.53516,-3.74414 12.07812,0.10938 c 17.98866,0.16478 31.22923,2.55826 54.31836,9.81836 14.15773,4.4519 19.27285,6.49703 34.50586,13.79492 11.97279,5.73619 12.74805,6.28453 12.74805,8.99219 0,5.5714 4.49839,11.36772 11.00976,14.1914 10.61934,4.60498 22.05073,-1.11242 25.11328,-12.5625 2.24844,-8.4068 -1.59832,-16.97945 -10.4375,-23.26367 -11.71578,-8.3297 -46.95729,-24.49868 -66.53906,-30.5293 -28.46551,-8.76586 -49.39114,-12.05078 -76.77344,-12.05078 z m -72.43359,29.85938 -5.21875,1.71484 c -2.8698,0.94337 -13.76874,4.83206 -24.21875,8.64258 -10.45002,3.81052 -24.40019,8.86776 -31,11.23828 -16.30299,5.85562 -33.2446,12.23512 -50,18.82813 -13.68265,5.38355 -14.13644,5.48798 -20,4.58203 -5.53436,-0.85493 -40.64268,-7.36063 -44.82813,-8.30664 -1.40825,-0.31824 -5.84509,4.98401 -19.30664,23.07812 -9.61323,12.92145 -17.70664,24.08721 -17.98633,24.8125 -0.3787,0.98646 3.22998,2.01488 14.30665,4.07813 8.14715,1.51748 22.23943,4.25015 31.31445,6.07226 24.90822,5.00145 26.42952,4.83807 69.9043,-7.5293 19.4725,-5.53965 35.70785,-10.07226 36.08203,-10.07226 0.37379,0 5.5923,3.86865 11.5957,8.5957 13.1554,10.35666 14.43953,11.12024 15.49023,9.24219 0.42785,-0.76422 4.68362,-6.55298 9.46094,-12.86328 4.7777,-6.31068 12.38505,-16.42472 16.90235,-22.47461 l 8.21484,-11 18.92187,-5.8711 c 10.4092,-3.22922 19.27472,-6.18511 19.69727,-6.56835 0.42217,-0.38325 -8.2541,-8.68362 -19.28125,-18.44727 z m 289.32226,42.23242 c -5.56422,0.0926 -11.18784,2.59774 -14.35546,7.03906 -2.37959,3.33506 -2.40234,3.63207 -2.69336,31.38477 l -0.29493,28.01562 16.29102,8.17969 h 0.002 c 8.96089,4.49915 16.59029,8.19658 16.95313,8.23437 1.33342,0.10923 1.98923,-17.14474 1.66797,-43.94726 -0.37077,-31.01329 -0.44658,-31.36108 -8.16211,-36.36328 -2.75188,-1.78432 -6.06975,-2.59966 -9.40821,-2.54297 z m -386.51953,72.90625 0.58203,3.59375 c 0.69279,4.26784 4.68631,9.80892 9.04297,12.54492 4.45115,2.79496 14.85722,2.26388 19.42969,-0.99219 3.66879,-2.61241 7.20313,-8.79835 7.20313,-12.60547 v -2.54101 h -18.12891 z m -72.11523,2.73437 c -3.08523,0.034 -5.04003,0.13347 -5.12695,0.26953 -0.17008,0.27629 0.28491,2.23062 1.01171,4.34376 1.59232,4.63256 4.93216,8.43664 8.99024,10.24023 v 0.002 c 9.27042,4.12044 21.18868,-1.78326 23.12305,-11.45508 l 0.60937,-3.0371 -16.71289,-0.29883 c -4.59591,-0.0643 -8.8093,-0.10225 -11.89453,-0.0645 z m 160.375,5.24219 -12.25,0.0527 -12.25,0.0371 -9.79297,13.31836 -9.79102,13.31836 -16.61914,0.65625 c -29.63489,1.16901 -28.59597,1.2741 -31.71484,-3.22656 l -2.69141,-3.88281 -19.5664,0.51562 -19.56836,0.51563 -3.49414,3.86523 -3.49414,3.86719 h -20.28907 -20.29101 l -3.91602,4.75 c -2.15319,2.61279 -7.15952,9.15916 -11.125,14.54688 l -7.21093,9.79492 3.53125,8.82812 c 1.94267,4.85518 3.53125,9.59141 3.53125,10.52344 0,0.93165 -5.07527,8.52489 -11.28125,16.875 -25.02463,33.66803 -23.71875,31.3913 -23.71875,41.2793 0,7.2703 1.84457,12.71332 4.85156,14.32226 1.3765,0.73588 19.67367,1.08008 57.50976,1.08008 h 55.48633 l 4.82813,3.65625 c 2.65474,2.01033 9.5491,7.545 15.32422,12.30078 5.77511,4.75578 12.07666,9.86388 14.00195,11.34961 v -0.0371 c 1.92491,1.48573 4.05431,2.58711 4.73047,2.44727 0.67653,-0.13947 9.80818,-8.79614 20.29297,-19.23633 14.75376,-14.69065 18.75843,-19.21235 17.71679,-20 -0.74041,-0.56013 -8.40744,-7.24665 -17.04101,-14.85938 l -15.70117,-13.84179 v -30.40821 c 0,-16.72478 0.34647,-30.4082 0.76562,-30.4082 0.41915,0 6.46988,4.97582 13.44727,11.0586 6.97738,6.08277 12.95854,11.14612 13.29492,11.25195 0.33524,0.10469 10.03424,-9.2542 21.55273,-20.79688 l 20.94141,-20.98633 v -16.26367 z m 60.02734,42.34375 c -21.38948,0 -37.49322,7.38636 -48.3125,22.16016 -10.69493,14.77379 -16.04297,35.67578 -16.04297,62.70508 0,25.85461 5.4724,46.08504 16.41602,60.6914 11.06797,14.43818 27.11051,21.65821 48.12695,21.65821 7.3372,0 13.92683,-0.67276 19.77149,-2.01563 5.84504,-1.34324 11.37863,-3.19053 16.60156,-5.54102 v -35.75781 c -5.34728,3.02173 -10.88087,5.28815 -16.60156,6.79883 -5.72032,1.34324 -11.50262,2.01367 -17.34766,2.01367 -12.06274,0 -21.1426,-3.86127 -27.23633,-11.58398 -6.09335,-7.72271 -9.13672,-19.81064 -9.13672,-36.26367 0,-17.2921 2.85939,-29.96669 8.58008,-38.02539 5.84466,-8.05834 14.98414,-12.0879 27.41992,-12.0879 11.9384,0 23.31745,3.02257 34.13672,9.06641 v -35.50781 c -5.34727,-2.5183 -10.94402,-4.53425 -16.78906,-6.04492 -5.72031,-1.51106 -12.24874,-2.26563 -19.58594,-2.26563 z m 70.55274,0.73633 v 31.22656 h 35.25586 V 722.12109 H 669.5644 V 591.16992 h 35.25782 v -31.22656 z m -237.94532,2.94336 1.68164,5.33594 c 0.92523,2.93556 1.6836,5.86617 1.6836,6.51172 0,0.64516 -3.69157,5.66818 -8.20508,11.1621 l -8.20898,9.98829 h -9.63477 -9.63672 l -4.21679,5 -4.2168,5.02343 h -11.94141 c -6.56731,0 -11.9414,-0.22592 -11.9414,-0.49804 0,-0.27364 1.53759,-2.63646 3.41601,-5.25 l 3.41797,-4.75196 -9.16602,0.29492 -9.16601,0.29883 -4.77149,-10.52929 -4.77148,-10.5293 3.66211,-5.51758 3.66406,-5.51758 h 10.67383 10.67383 l 2.88672,6.03711 2.88476,6.03516 8.54688,-0.28711 8.55078,-0.28711 4,-6.2207 4,-6.22266 13.0664,-0.0391 z m -66.43359,128.0039 c -52.66318,-0.005 -53.56583,0.076 -56.16992,4.94141 -0.57525,1.0749 -1.03125,8.56529 -1.03125,16.97852 v 15.05468 l 42.19922,0.25977 42.20312,0.26172 6.84375,15 c 3.76479,8.24995 9.57359,21.30035 12.91016,29 3.33694,7.70003 8.90943,19.96269 12.38281,27.25 l 6.31641,13.25 h 16.01367 c 9.29008,0 16.26752,-0.40875 16.61523,-0.97266 0.33071,-0.5348 -2.54936,-8.14108 -6.39843,-16.90429 -3.84983,-8.76284 -7.27691,-17.02892 -7.61328,-18.36915 -0.5624,-2.2405 0.72926,-3.30473 16.00195,-13.2207 9.13549,-5.93121 16.47514,-11.15381 16.3164,-11.60547 -0.16025,-0.45203 -4.11611,-4.2857 -8.79101,-8.51953 -20.08781,-18.19124 -44.77324,-40.37011 -51.37305,-46.1543 l -7.1289,-6.24609 z m -23.2207,53.9961 c -10.43868,0 -18.98047,0.39752 -18.98047,0.88281 0,0.97058 7.01009,15.86297 22.06055,46.86719 l 9.83007,20.25 h 17.55469 c 14.3297,0 17.55274,-0.25488 17.55274,-1.39063 0,-1.361 -23.30119,-55.36135 -27.11133,-62.83007 l -1.92578,-3.7793 z"
       transform="matrix(0.26458333,0,0,0.26458333,-30.209,22.0732)" />
    <path
       id="path31188-5"
       style="fill:url(#linearGradient31445);fill-opacity:1;stroke:none;stroke-width:0.264583"
       d="m 107.10149,66.759877 -5.65547,2.48512 c -3.111899,1.3667 -6.491439,2.867914 -7.510139,3.335713 -1.0186,0.4679 -3.51895,1.596909 -5.55625,2.509409 -11.1659,5.001099 -21.70938,9.708743 -25.79688,11.517643 -2.5466,1.126998 -7.07096,3.14628 -10.05416,4.48758 -2.9832,1.3413 -7.15032,3.189959 -9.26042,4.107759 -18.8418,8.195299 -21.42815,9.359209 -21.42815,9.626809 0.006,0.33639 7.36182,3.13337 25.39742,9.65677 4.5839,1.6579 8.35757,2.9933 8.38656,2.9683 0.16831,-0.14781 0.89173,-7.20247 0.82373,-8.02897 l -0.0822,-0.99632 -4.10104,-1.63866 c -2.2556,-0.90141 -4.4582,-1.77109 -4.8948,-1.93219 -0.7034,-0.2595 -0.74024,-0.32275 -0.32504,-0.55965 0.2576,-0.147 4.5439,-2.03566 9.525,-4.19716 4.9811,-2.161502 11.67563,-5.08483 14.87713,-6.495729 3.2014,-1.410901 6.7138,-2.95298 7.8052,-3.427182 1.09131,-0.474099 5.55628,-2.412214 9.92188,-4.306713 4.3656,-1.894501 11.177139,-4.891775 15.136539,-6.660576 l 7.19905,-3.215825 5.36866,2.300118 c 2.9528,1.2651 8.40474,3.578688 12.11554,5.141288 3.7108,1.5626 9.90202,4.177734 13.75833,5.811533 8.0441,3.408101 18.99952,7.989226 21.23282,8.878528 l 1.52135,0.605647 v -1.7663 c 0.002,-0.9715 0.0726,-2.183694 0.15658,-2.693892 0.1873,-1.131801 1.48452,-0.449088 -14.44718,-7.601088 -2.1101,-0.947198 -5.74149,-2.589821 -8.06979,-3.650422 -5.63631,-2.567199 -17.08884,-7.73199 -23.15104,-10.440191 -2.69221,-1.202698 -6.69434,-3.004288 -8.89404,-4.003889 z m 0.0248,17.66869 -3.81786,1.644343 c -2.1001,0.904499 -5.426259,2.297734 -7.390759,3.095934 -1.9645,0.798201 -5.06069,2.085293 -6.87969,2.860292 -1.819,0.774999 -6.16427,2.61484 -9.65677,4.08864 -3.4925,1.473899 -6.48534,2.82275 -6.65024,2.997748 -0.679,0.720302 -3.2978,19.725956 -3.9548,28.700056 -0.2129,2.9079 -0.59438,2.88568 3.98632,0.23048 4.2602,-2.4693 12.90594,-6.65151 17.46663,-8.44961 10.959809,-4.321 19.296099,-6.09214 28.707299,-6.09214 6.8746,-0.001 11.58451,0.71843 18.8128,2.87373 1.6885,0.5035 3.16507,0.91519 3.28197,0.91519 0.507,0 -0.1741,-9.40262 -1.264,-17.444416 l -0.33797,-2.494939 -1.84588,-0.768945 c -1.9552,-0.8142 -20.10139,-8.06871 -26.60199,-10.635009 z m 72.48653,15.666743 c -0.048,0 -0.0873,1.90352 -0.0873,4.22972 v 4.2292 l 1.25728,-0.49817 c 0.6912,-0.2742 2.20872,-0.87662 3.37292,-1.33841 1.1641,-0.46191 2.81308,-1.15054 3.66438,-1.53014 l 1.54823,-0.6904 -1.28365,-0.65681 c -1.2022,-0.6156 -8.28081,-3.74499 -8.47131,-3.74499 z m -3.67575,1.05833 c -0.0823,0 -1.03528,0.40909 -2.11718,0.90899 l -1.9668,0.90899 v 13.21418 13.21418 l -0.81029,0.33538 c -1.8915,0.7835 -2.93646,3.67541 -1.99006,5.50561 0.2382,0.4606 0.47348,0.83767 0.52348,0.83767 0.0496,0 0.41077,-0.4855 0.80357,-1.079 1.1488,-1.736 3.39594,-2.32505 5.34334,-1.40095 0.843,0.4001 1.33352,0.8863 2.13992,2.1208 0.3064,0.469 0.34749,0.46099 0.88729,-0.16691 0.4722,-0.5501 0.54675,-0.90831 0.45475,-2.18281 -0.0896,-1.23951 -0.25475,-1.67778 -0.88625,-2.34198 -0.4273,-0.4495 -1.10462,-0.98834 -1.50482,-1.19735 l -0.7276,-0.37982 v -14.14849 c 0,-7.7817 -0.0674,-14.14849 -0.14935,-14.14849 z m -10.43088,3.30936 c -0.1969,-0.1217 -10.6624,4.08657 -10.9983,4.42247 -0.079,0.079 0.0412,1.89923 0.26665,4.04523 0.2254,2.146 0.4098,4.07313 0.4098,4.28243 h 5.2e-4 c 0,0.2724 0.16852,0.32827 0.59532,0.19637 0.6686,-0.2068 7.79341,-3.0863 9.13691,-3.6928 l 0.8692,-0.39222 -0.0315,-4.36408 c -0.0174,-2.4001 -0.12946,-4.4234 -0.24856,-4.4974 z m -48.85284,13.88908 c -4.4512,0 -4.56215,0.0139 -5.95105,0.73949 -4.0945,2.139 -4.16122,8.03648 -0.11162,9.87588 2.1493,0.9763 4.50256,0.48494 6.17946,-1.29036 l 0.93535,-0.99064 3.19567,0.0289 c 4.7595,0.0436 8.26273,0.67687 14.37173,2.59778 3.7459,1.17789 5.09927,1.719 9.12968,3.6499 3.1678,1.5177 3.37292,1.66278 3.37292,2.37919 0,1.4741 1.1902,3.0077 2.913,3.7548 2.8097,1.2184 5.83425,-0.29433 6.64455,-3.32382 0.5949,-2.2243 -0.42289,-4.49248 -2.76159,-6.15518 -3.0998,-2.2039 -12.42411,-6.48195 -17.60512,-8.07755 -7.5315,-2.3193 -13.06808,-3.18843 -20.31298,-3.18843 z m -19.164719,7.90029 -1.38079,0.45372 c -0.7593,0.2496 -3.64298,1.27848 -6.40788,2.28668 -2.7649,1.0082 -6.45589,2.34626 -8.20209,2.97346 -4.31349,1.5493 -8.79596,3.23721 -13.22916,4.98161 -3.6202,1.4244 -3.74027,1.45203 -5.29167,1.21233 -1.4643,-0.2262 -10.75337,-1.9475 -11.86077,-2.1978 -0.3726,-0.0842 -1.54652,1.31869 -5.10822,6.10608 -2.5435,3.41881 -4.68488,6.37308 -4.75888,6.56498 -0.1002,0.261 0.8546,0.5331 3.7853,1.079 2.1556,0.4015 5.88418,1.12452 8.28528,1.60662 6.5903,1.3233 6.99281,1.28008 18.49551,-1.99212 5.1521,-1.4657 9.4477,-2.66496 9.54671,-2.66496 0.0989,0 1.47963,1.02358 3.06803,2.27428 3.48069,2.7402 3.82045,2.94223 4.09845,2.44533 0.1132,-0.2022 1.23921,-1.73381 2.50321,-3.40341 1.2641,-1.6697 3.27688,-4.3457 4.47208,-5.9464 l 2.17351,-2.91042 5.006409,-1.55339 c 2.7541,-0.8544 5.09977,-1.63648 5.21157,-1.73788 0.1117,-0.1014 -2.18389,-2.29754 -5.10149,-4.88084 z m 76.549849,11.174 c -1.4722,0.0245 -2.96012,0.68731 -3.79822,1.86241 -0.62959,0.8824 -0.63561,0.96098 -0.71261,8.30389 l -0.078,7.41246 4.31034,2.16421 h 5.2e-4 c 2.37091,1.1904 4.38952,2.16868 4.48552,2.17868 0.3528,0.0289 0.52632,-4.53621 0.44132,-11.62771 -0.0981,-8.2056 -0.11816,-8.29762 -2.15956,-9.62112 -0.7281,-0.4721 -1.60596,-0.68782 -2.48926,-0.67282 z m -102.266629,19.28977 0.154,0.95085 c 0.1833,1.1292 1.23992,2.59527 2.39262,3.31917 1.1777,0.7395 3.93097,0.59899 5.14077,-0.26251 0.9707,-0.6912 1.90583,-2.3279 1.90583,-3.3352 v -0.67231 h -4.79661 z m -19.08049,0.72347 c -0.8163,0.009 -1.3335,0.0353 -1.3565,0.0713 -0.045,0.0731 0.0754,0.59019 0.26768,1.14929 0.4213,1.2257 1.30497,2.23219 2.37867,2.70939 v 5.3e-4 c 2.4528,1.0902 5.60617,-0.47182 6.11797,-3.03082 l 0.16123,-0.80357 -4.42195,-0.0791 c -1.216,-0.017 -2.33079,-0.0271 -3.1471,-0.0171 z m 42.43256,1.38699 -3.24115,0.014 -3.24115,0.01 -2.59105,3.52382 -2.59054,3.52382 -4.39715,0.17363 c -7.8409,0.3093 -7.56602,0.3371 -8.39122,-0.85369 l -0.7121,-1.02733 -5.17694,0.13642 -5.17747,0.13643 -0.92449,1.02268 -0.92449,1.02319 h -5.36815 -5.36866 l -1.03611,1.25677 c -0.5697,0.6913 -1.89429,2.42336 -2.94349,3.84886 l -1.9079,2.59157 0.93431,2.33578 c 0.514,1.2846 0.93431,2.53773 0.93431,2.78432 0,0.2465 -1.34283,2.25555 -2.98483,4.46485 -6.6211,8.908 -6.27558,8.30561 -6.27558,10.92181 0,1.9236 0.48804,3.36374 1.28364,3.78943 0.3642,0.19471 5.20532,0.28578 15.21612,0.28578 h 14.68076 l 1.27744,0.96738 c 0.7024,0.5319 2.52654,1.99628 4.05454,3.25458 1.528,1.2583 3.19528,2.60982 3.70468,3.00292 v -0.01 c 0.5093,0.3931 1.0727,0.68451 1.2516,0.64751 0.179,-0.0369 2.59508,-2.32731 5.36919,-5.08961 3.90359,-3.88691 4.96316,-5.08327 4.68756,-5.29167 -0.1959,-0.1482 -2.22447,-1.91734 -4.50876,-3.93154 l -4.15427,-3.66231 v -8.04551 c 0,-4.4251 0.0917,-8.0455 0.20257,-8.0455 0.1109,0 1.71182,1.31652 3.55792,2.92592 1.8461,1.6094 3.42861,2.94908 3.51762,2.97708 0.0887,0.0277 2.65489,-2.44851 5.70249,-5.50251 l 5.54075,-5.55263 v -4.3031 z m 15.882229,11.20346 c -5.6593,0 -9.92008,1.9543 -12.782679,5.8632 -2.8297,3.9089 -4.2447,9.43922 -4.2447,16.59072 0,6.8407 1.4479,12.19334 4.3434,16.05794 2.928399,3.8201 7.172989,5.7304 12.733589,5.7304 1.9413,0 3.68481,-0.178 5.23121,-0.53331 1.5465,-0.35539 3.0106,-0.84416 4.3925,-1.46606 v -9.46092 c -1.41481,0.7995 -2.8789,1.39916 -4.3925,1.79886 -1.5135,0.3554 -3.0434,0.53278 -4.5899,0.53278 -3.1916,0 -5.59398,-1.02162 -7.20628,-3.06492 -1.6122,-2.0433 -2.41742,-5.24157 -2.41742,-9.59477 0,-4.5752 0.75654,-7.92868 2.27014,-10.06088 1.5464,-2.1321 3.96455,-3.19826 7.25485,-3.19826 3.15871,0 6.16941,0.79972 9.03201,2.39882 v -9.39477 c -1.4148,-0.6663 -2.8956,-1.19969 -4.4421,-1.59939 -1.5135,-0.3998 -3.24082,-0.59944 -5.18212,-0.59944 z m 18.66708,0.19482 v 8.26202 h 9.32812 v 34.6475 h 7.94524 v -34.6475 h 9.32864 v -8.26202 z m -62.956369,0.77876 0.44494,1.4118 c 0.2448,0.7767 0.44545,1.55209 0.44545,1.72289 0,0.1707 -0.97673,1.49971 -2.17093,2.95331 l -2.17196,2.64273 h -2.5492 -2.54971 l -1.11569,1.32292 -1.1157,1.32912 h -3.1595 c -1.7376,0 -3.15949,-0.0598 -3.15949,-0.13178 0,-0.0724 0.40682,-0.69756 0.90382,-1.38906 l 0.90433,-1.25729 -2.42517,0.078 -2.42517,0.0791 -1.26246,-2.78588 -1.26246,-2.78587 0.96894,-1.45986 0.96945,-1.45986 h 2.82411 2.82412 l 0.76378,1.59732 0.76326,1.5968 2.26136,-0.076 2.2624,-0.076 1.05833,-1.64589 1.05833,-1.64642 3.45715,-0.0103 z m -17.57722,33.8677 c -13.9338,-0.001 -14.17262,0.0201 -14.86162,1.30741 -0.1522,0.2844 -0.27285,2.26624 -0.27285,4.49224 v 3.98321 l 11.16521,0.0687 11.16624,0.0692 1.81074,3.96875 c 0.9961,2.1828 2.53301,5.63572 3.41581,7.67292 0.8829,2.0373 2.35729,5.28179 3.27629,7.20989 l 1.67122,3.50573 h 4.23695 c 2.458,0 4.30411,-0.10815 4.39611,-0.25735 0.0875,-0.1415 -0.67452,-2.15399 -1.69292,-4.47259 -1.0186,-2.3185 -1.92535,-4.50557 -2.01435,-4.86017 -0.1488,-0.5928 0.19295,-0.87438 4.23385,-3.49798 2.4171,-1.5693 4.35905,-2.95111 4.31705,-3.07061 -0.0424,-0.1196 -1.08905,-1.13393 -2.32595,-2.25413 -5.3149,-4.8131 -11.84626,-10.68126 -13.59246,-12.21166 l -1.88618,-1.65261 z m -6.14381,14.28647 c -2.7619,0 -5.02191,0.10517 -5.02191,0.23357 0,0.2568 1.85475,4.19708 5.83685,12.40028 l 2.60087,5.35781 h 4.64468 c 3.7914,0 4.64416,-0.0674 4.64416,-0.36794 0,-0.36009 -6.1651,-14.64769 -7.1732,-16.62378 l -0.50953,-0.99994 z" />
  </g>
</svg>
