<?xml version="1.0" encoding="UTF-8" standalone="no"?>
<!-- Created with Inkscape (http://www.inkscape.org/) -->

<svg
   width="276.35364mm"
   height="276.5712mm"
   viewBox="0 0 276.35364 276.5712"
   version="1.1"
   id="svg30801"
   xmlns:xlink="http://www.w3.org/1999/xlink"
   xmlns="http://www.w3.org/2000/svg"
   >
  <defs
     id="defs30798">
    <linearGradient
       xlink:href="#linearGradient42308"
       id="linearGradient42310"
       x1="1093.3574"
       y1="1723.1392"
       x2="907.79388"
       y2="1590.9908"
       gradientUnits="userSpaceOnUse"
       gradientTransform="translate(-860.55657,-1476.5042)" />
    <linearGradient
       id="linearGradient42308">
      <stop
         style="stop-color:#2a63ac;stop-opacity:1;"
         offset="0"
         id="stop42304" />
      <stop
         style="stop-color:#2a63ac;stop-opacity:0;"
         offset="1"
         id="stop42306" />
    </linearGradient>
  </defs>
  <g
     id="layer1"
     transform="translate(30.209,-22.0732)">
    <ellipse
       style="fill:#ffffff;fill-opacity:1;stroke-width:0.236542"
       id="path32879-93-1-72"
       cx="108.62562"
       cy="-159.67146"
       rx="135.16777"
       ry="131.91377"
       transform="scale(1,-1)" />
    <path
       id="path32879-93-1-92-6-7"
       style="fill:#1f8461;fill-opacity:1;stroke-width:0.244869"
       d="M 107.96812,22.0732 A 138.1767,138.28565 0 0 0 -30.20898,160.3588 138.1767,138.28565 0 0 0 107.96812,298.6444 138.1767,138.28565 0 0 0 246.14463,160.3588 138.1767,138.28565 0 0 0 107.96812,22.0732 Z m -0.8666,44.6866 3.9992,1.8175 c 2.1997,0.9996 6.2019,2.8012 8.8941,4.0039 6.0622,2.7082 17.5147,7.873 23.15101,10.4402 2.3283,1.0606 5.9597,2.7032 8.0698,3.6504 15.9317,7.152 14.6345,6.4693 14.4472,7.6011 -0.084,0.5102 -0.155,1.7224 -0.1566,2.6939 v 1.7663 l -1.5213,-0.6057 c -2.2333,-0.8893 -13.1887,-5.4704 -21.2328,-8.8785 -3.85631,-1.6338 -10.04761,-4.2489 -13.75841,-5.8115 -3.7108,-1.5626 -9.1627,-3.8762 -12.1155,-5.1413 l -5.3687,-2.3001 -7.199,3.2158 c -3.9594,1.7688 -10.771,4.7661 -15.1366,6.6606 -4.3656,1.8945 -8.8305,3.8326 -9.9218,4.3067 -1.0914,0.4742 -4.6038,2.0163 -7.8052,3.4272 -3.2015,1.4109 -9.8961,4.3342 -14.8772,6.4957 -4.9811,2.1615 -9.2674,4.0501 -9.525,4.1971 -0.4152,0.2369 -0.3783,0.3002 0.3251,0.5597 0.4366,0.1611 2.6392,1.0308 4.8948,1.9322 l 4.101,1.6386 0.082,0.9964 c 0.068,0.8265 -0.6555,7.8811 -0.8238,8.0289 -0.029,0.025 -3.8026,-1.3104 -8.3865,-2.9683 v 0 c -18.0356,-6.5234 -25.3912,-9.3203 -25.3974,-9.6567 0,-0.2676 2.5863,-1.4315 21.4281,-9.6268 2.1101,-0.9178 6.2772,-2.7665 9.2604,-4.1078 2.9832,-1.3413 7.5076,-3.3606 10.0542,-4.4876 4.0875,-1.8089 14.631,-6.5165 25.7969,-11.5176 2.0373,-0.9125 4.5376,-2.0415 5.5562,-2.5094 1.0187,-0.4678 4.3983,-1.969 7.5102,-3.3357 z m 0.025,17.6687 3.8546,1.5214 c 6.5006,2.5663 24.6468,9.8208 26.602,10.635 l 1.8459,0.7689 0.33791,2.495 c 1.0899,8.0418 1.7715,17.4444 1.2645,17.4444 -0.1169,0 -1.59391,-0.4117 -3.28241,-0.9152 -7.2283,-2.1553 -11.9382,-2.875 -18.8128,-2.8737 -9.4112,0 -17.7475,1.7711 -28.7073,6.0921 -4.5607,1.7981 -13.206,5.9803 -17.4662,8.4496 -4.5807,2.6552 -4.1997,2.6775 -3.9868,-0.2304 0.657,-8.9741 3.2763,-27.9798 3.9553,-28.7001 0.1649,-0.175 3.1573,-1.5239 6.6498,-2.9978 3.4925,-1.4738 7.8382,-3.3136 9.6572,-4.0886 1.819,-0.775 4.9147,-2.0621 6.8792,-2.8603 1.9645,-0.7982 5.2907,-2.1914 7.3908,-3.0959 z m 72.48661,15.6668 c 0.1905,0 7.2695,3.1294 8.4717,3.745 l 1.2836,0.6568 -1.5482,0.6904 c -0.8513,0.3796 -2.5002,1.0682 -3.6643,1.5301 -1.1642,0.4618 -2.6822,1.0642 -3.3734,1.3384 l -1.2568,0.4982 v -4.2292 c 0,-2.3262 0.039,-4.2297 0.087,-4.2297 z m -3.6763,1.0583 c 0.082,0 0.1494,6.3668 0.1494,14.1485 v 14.1485 l 0.7276,0.3798 c 0.4002,0.209 1.0775,0.7479 1.5048,1.1974 0.6315,0.6642 0.7971,1.1024 0.8867,2.3419 0.092,1.2745 0.017,1.6327 -0.4552,2.1828 -0.5398,0.6279 -0.5809,0.636 -0.8873,0.167 -0.8064,-1.2345 -1.2969,-1.7208 -2.1399,-2.1209 -1.9474,-0.9241 -4.1941,-0.335 -5.3429,1.401 -0.3928,0.5935 -0.7544,1.079 -0.804,1.079 -0.05,0 -0.2853,-0.3771 -0.5235,-0.8377 -0.9464,-1.8302 0.099,-4.7221 1.9905,-5.5056 l 0.8098,-0.3353 v -13.2142 -13.2142 l 1.9673,-0.909 c 1.0819,-0.4999 2.0344,-0.909 2.1167,-0.909 z m -10.4304,3.3094 c 0.1191,0.074 0.2307,2.0973 0.2481,4.4974 l 0.032,4.364 -0.8692,0.3923 c -1.3435,0.6065 -8.4688,3.486 -9.1374,3.6928 -0.4268,0.1319 -0.5953,0.076 -0.5953,-0.1964 h -5e-4 c 0,-0.2093 -0.1844,-2.1364 -0.4098,-4.2824 -0.2254,-2.146 -0.3452,-3.9663 -0.2662,-4.0453 0.3359,-0.3359 10.8014,-4.5441 10.9983,-4.4224 z m -48.85331,13.889 c 7.2449,0 12.7815,0.8692 20.313,3.1885 5.18101,1.5956 14.50531,5.8736 17.60511,8.0775 2.3387,1.6627 3.3565,3.9309 2.7616,6.1552 -0.8103,3.0295 -3.8349,4.5422 -6.6446,3.3238 -1.7228,-0.7471 -2.9125,-2.2807 -2.9125,-3.7548 0,-0.7164 -0.2056,-0.8615 -3.3734,-2.3792 -4.0304,-1.9309 -5.38331,-2.472 -9.12921,-3.6499 -6.109,-1.9209 -9.6127,-2.5541 -14.3722,-2.5977 l -3.1952,-0.029 -0.9358,0.9906 c -1.6769,1.7753 -4.0297,2.2667 -6.179,1.2904 -4.0496,-1.8394 -3.9829,-7.7369 0.1116,-9.8759 1.3889,-0.7256 1.4994,-0.7395 5.9506,-0.7395 z m -19.1647,7.9003 5.3051,4.6969 c 2.9176,2.5833 5.2132,4.7794 5.1015,4.8808 -0.1118,0.1014 -2.457,0.8835 -5.2111,1.7379 l -5.0069,1.5534 -2.1735,2.9104 c -1.1952,1.6007 -3.2075,4.2768 -4.4716,5.9465 -1.264,1.6696 -2.3905,3.2011 -2.5037,3.4033 -0.278,0.4969 -0.6173,0.2949 -4.098,-2.4453 -1.5884,-1.2507 -2.9691,-2.2743 -3.068,-2.2743 -0.099,0 -4.3951,1.1993 -9.5472,2.665 -11.5027,3.2722 -11.9052,3.3154 -18.4955,1.9921 -2.4011,-0.4821 -6.1292,-1.2051 -8.2848,-1.6066 -2.9307,-0.5459 -3.8855,-0.818 -3.7853,-1.079 0.074,-0.1919 2.2149,-3.1462 4.7584,-6.565 3.5617,-4.7874 4.7356,-6.1903 5.1082,-6.1061 1.1074,0.2503 10.3965,1.9716 11.8608,2.1978 1.5514,0.2397 1.6715,0.2121 5.2917,-1.2123 4.4332,-1.7444 8.9156,-3.4323 13.2291,-4.9816 1.7462,-0.6272 5.4372,-1.9653 8.2021,-2.9735 2.7649,-1.0082 5.6486,-2.0371 6.4079,-2.2867 z m 76.54981,11.174 c 0.8833,-0.015 1.7612,0.2008 2.4893,0.6729 2.0414,1.3235 2.0619,1.4155 2.16,9.6211 0.085,7.0915 -0.089,11.6566 -0.4418,11.6277 -0.096,-0.01 -2.1146,-0.9883 -4.4855,-2.1787 h -5e-4 l -4.3103,-2.1642 0.078,-7.4125 c 0.077,-7.3429 0.083,-7.4215 0.7126,-8.3039 0.8381,-1.1751 2.326,-1.8379 3.7982,-1.8624 z M 71.77162,156.7161 h 4.7966 4.7971 v 0.6723 c 0,1.0073 -0.9356,2.644 -1.9063,3.3352 -1.2098,0.8615 -3.9626,1.002 -5.1403,0.2625 -1.1527,-0.7239 -2.2098,-2.19 -2.3931,-3.3192 z m -19.0805,0.7235 c 0.8163,-0.01 1.9311,0 3.1471,0.017 l 4.422,0.079 -0.1608,0.8035 c -0.5118,2.559 -3.6656,4.1211 -6.1184,3.0309 v -6e-4 c -1.0737,-0.4772 -1.9574,-1.4836 -2.3787,-2.7093 -0.1923,-0.5591 -0.3127,-1.0762 -0.2677,-1.1493 0.023,-0.036 0.5402,-0.062 1.3565,-0.071 z m 42.4326,1.387 v 4.3031 4.303 l -5.5408,5.5527 c -3.0476,3.054 -5.6138,5.5302 -5.7025,5.5025 -0.089,-0.028 -1.6715,-1.3677 -3.5176,-2.9771 -1.8461,-1.6094 -3.447,-2.9259 -3.5579,-2.9259 -0.1109,0 -0.2021,3.6204 -0.2021,8.0455 v 8.0455 l 4.1538,3.6623 c 2.2843,2.0142 4.3133,3.7834 4.5092,3.9316 0.2756,0.2084 -0.7844,1.4047 -4.688,5.2916 -2.7741,2.7623 -5.1902,5.0527 -5.3692,5.0896 -0.1789,0.037 -0.7423,-0.2544 -1.2516,-0.6475 v 0.01 c -0.5094,-0.3931 -2.1762,-1.7446 -3.7042,-3.0029 -1.528,-1.2583 -3.3526,-2.7227 -4.055,-3.2546 l -1.277,-0.9674 h -14.6812 c -10.0108,0 -14.8519,-0.091 -15.2161,-0.2857 -0.7956,-0.4257 -1.2832,-1.8659 -1.2832,-3.7895 0,-2.6162 -0.346,-2.0138 6.2751,-10.9218 1.642,-2.2093 2.9853,-4.2183 2.9853,-4.4648 0,-0.2466 -0.4203,-1.4997 -0.9343,-2.7843 l -0.9343,-2.3358 1.9074,-2.5916 c 1.0492,-1.4255 2.3738,-3.1576 2.9435,-3.8489 l 1.0361,-1.2567 h 5.3687 5.3681 l 0.9245,-1.0232 0.9245,-1.0227 5.1775,-0.1364 5.1774,-0.1364 0.7116,1.0273 c 0.8252,1.1908 0.5508,1.163 8.3917,0.8537 l 4.3967,-0.1737 2.591,-3.5238 2.5906,-3.5238 3.2411,-0.01 z m 15.8822,11.2034 c 1.9413,0 3.6691,0.1997 5.1826,0.5995 1.5465,0.3997 3.0268,0.933 4.4416,1.5993 v 9.3948 c -2.8626,-1.5991 -5.8733,-2.3988 -9.032,-2.3988 -3.2903,0 -5.7084,1.0661 -7.2548,3.1982 -1.5136,2.1322 -2.2702,5.4857 -2.2702,10.0609 0,4.3532 0.8057,7.5515 2.4179,9.5948 1.6123,2.0433 4.0142,3.0649 7.2058,3.0649 1.5465,0 3.0769,-0.1774 4.5904,-0.5328 1.5136,-0.3997 2.9777,-0.9993 4.3925,-1.7988 v 9.4609 c -1.3819,0.6219 -2.846,1.1107 -4.3925,1.4661 -1.5464,0.3553 -3.2904,0.5333 -5.2317,0.5333 -5.5606,0 -9.8052,-1.9103 -12.7336,-5.7304 -2.8955,-3.8646 -4.3434,-9.2173 -4.3434,-16.058 0,-7.1515 1.415,-12.6818 4.2447,-16.5907 2.8626,-3.9089 7.1234,-5.8632 12.7827,-5.8632 z m 18.6671,0.1948 h 26.60201 v 8.262 h -9.3282 v 34.6475 h -7.94571 v -34.6475 h -9.3281 z m -62.9564,0.7788 -3.4572,0.01 -3.4576,0.01 -1.0583,1.6465 -1.0584,1.6459 -2.2619,0.076 -2.2618,0.076 -0.7633,-1.5968 -0.7633,-1.5973 h -2.8241 -2.8246 l -0.969,1.4598 -0.9694,1.4599 1.2625,2.7859 1.2624,2.7858 2.4252,-0.079 2.4252,-0.078 -0.9039,1.2572 c -0.497,0.6915 -0.9038,1.3167 -0.9038,1.3891 0,0.072 1.4219,0.1318 3.1595,0.1318 h 3.159 l 1.1157,-1.3292 1.1157,-1.3229 h 2.5497 2.5497 l 2.1715,-2.6427 c 1.1942,-1.4536 2.1709,-2.7826 2.1709,-2.9533 0,-0.1708 -0.2002,-0.9462 -0.445,-1.7229 z m -17.5772,33.8677 13.0436,0.001 1.8857,1.6526 c 1.7462,1.5304 8.2776,7.3986 13.5925,12.2117 1.2369,1.1202 2.284,2.1345 2.3264,2.2541 0.042,0.1195 -1.9004,1.5013 -4.3175,3.0706 -4.0409,2.6236 -4.3822,2.9052 -4.2334,3.498 0.089,0.3546 0.9953,2.5417 2.0139,4.8602 1.0184,2.3186 1.7804,4.3311 1.6929,4.4726 -0.092,0.1492 -1.9381,0.2573 -4.3961,0.2573 h -4.237 l -1.6707,-3.5057 c -0.919,-1.9281 -2.3934,-5.1726 -3.2763,-7.2099 -0.8828,-2.0372 -2.4202,-5.4901 -3.4163,-7.6729 l -1.8107,-3.9688 -11.1658,-0.069 -11.1657,-0.069 v -3.9833 c 0,-2.226 0.1207,-4.2078 0.2729,-4.4922 0.689,-1.2873 0.9278,-1.3086 14.8616,-1.3074 z m -6.1438,14.2864 h 5.0219 l 0.51,1 c 1.0081,1.9761 7.1732,16.2637 7.1732,16.6238 0,0.3005 -0.8532,0.3679 -4.6446,0.3679 h -4.6447 l -2.6009,-5.3578 c -3.9821,-8.2032 -5.8368,-12.1435 -5.8368,-12.4003 0,-0.1284 2.26,-0.2336 5.0219,-0.2336 z" />
    <path
       id="path32879-93-1-92-6-7-1"
       style="fill:url(#linearGradient42310);fill-opacity:1;stroke-width:0.244869"
       d="M 107.96813,22.0732 A 138.1767,138.28565 0 0 0 -30.209,160.3588 138.1767,138.28565 0 0 0 107.96813,298.6444 138.1767,138.28565 0 0 0 246.14463,160.3588 138.1767,138.28565 0 0 0 107.96813,22.0732 Z m -0.8666,44.6866 3.9992,1.8175 c 2.1997,0.9996 6.2019,2.8012 8.8941,4.0039 6.0622,2.7082 17.5147,7.873 23.151,10.4402 2.3283,1.0606 5.9597,2.7032 8.0698,3.6504 15.9317,7.152 14.6345,6.4693 14.4472,7.6011 -0.084,0.5102 -0.155,1.7224 -0.1566,2.6939 v 1.7663 l -1.5213,-0.6057 c -2.2333,-0.8893 -13.1887,-5.4704 -21.2328,-8.8785 -3.8563,-1.6338 -10.0476,-4.2489 -13.7584,-5.8115 -3.7108,-1.5626 -9.1627,-3.8762 -12.1155,-5.1413 l -5.3687,-2.3001 -7.199,3.2158 c -3.9594,1.7688 -10.771,4.7661 -15.1366,6.6606 -4.3656,1.8945 -8.8305,3.8326 -9.9218,4.3067 -1.0914,0.4742 -4.6038,2.0163 -7.8052,3.4272 -3.2015,1.4109 -9.8961,4.3342 -14.87723,6.4957 -4.9811,2.1615 -9.2674,4.0501 -9.525,4.1971 -0.4152,0.2369 -0.3783,0.3002 0.3251,0.5597 0.4366,0.1611 2.6392,1.0308 4.8948,1.9322 l 4.101,1.6386 0.082,0.9964 c 0.068,0.8265 -0.6555,7.8811 -0.8238,8.0289 -0.029,0.025 -3.8026,-1.3104 -8.3865,-2.9683 v 0 c -18.0356,-6.5234 -25.3912,-9.3203 -25.3974,-9.6567 0,-0.2676 2.5863,-1.4315 21.4281,-9.6268 2.1101,-0.9178 6.2772,-2.7665 9.2604,-4.1078 2.9832,-1.3413 7.50763,-3.3606 10.05423,-4.4876 4.0875,-1.8089 14.631,-6.5165 25.7969,-11.5176 2.0373,-0.9125 4.5376,-2.0415 5.5562,-2.5094 1.0187,-0.4678 4.3983,-1.969 7.5102,-3.3357 z m 0.025,17.6687 3.8546,1.5214 c 6.5006,2.5663 24.6468,9.8208 26.602,10.635 l 1.8459,0.7689 0.3379,2.495 c 1.0899,8.0418 1.7715,17.4444 1.2645,17.4444 -0.1169,0 -1.5939,-0.4117 -3.2824,-0.9152 -7.2283,-2.1553 -11.9382,-2.875 -18.8128,-2.8737 -9.4112,0 -17.7475,1.7711 -28.7073,6.0921 -4.5607,1.7981 -13.206,5.9803 -17.4662,8.4496 -4.5807,2.6552 -4.1997,2.6775 -3.9868,-0.2304 0.657,-8.9741 3.2763,-27.9798 3.9553,-28.7001 0.1649,-0.175 3.1573,-1.5239 6.6498,-2.9978 3.4925,-1.4738 7.8382,-3.3136 9.6572,-4.0886 1.819,-0.775 4.9147,-2.0621 6.8792,-2.8603 1.9645,-0.7982 5.2907,-2.1914 7.3908,-3.0959 z m 72.4866,15.6668 c 0.1905,0 7.2695,3.1294 8.4717,3.745 l 1.2836,0.6568 -1.5482,0.6904 c -0.8513,0.3796 -2.5002,1.0682 -3.6643,1.5301 -1.1642,0.4618 -2.6822,1.0642 -3.3734,1.3384 l -1.2568,0.4982 v -4.2292 c 0,-2.3262 0.039,-4.2297 0.087,-4.2297 z m -3.6763,1.0583 c 0.082,0 0.1494,6.3668 0.1494,14.1485 v 14.1485 l 0.7276,0.3798 c 0.4002,0.209 1.0775,0.7479 1.5048,1.1974 0.6315,0.6642 0.7971,1.1024 0.8867,2.3419 0.092,1.2745 0.017,1.6327 -0.4552,2.1828 -0.5398,0.6279 -0.5809,0.636 -0.8873,0.167 -0.8064,-1.2345 -1.2969,-1.7208 -2.1399,-2.1209 -1.9474,-0.9241 -4.1941,-0.335 -5.3429,1.401 -0.3928,0.5935 -0.7544,1.079 -0.804,1.079 -0.05,0 -0.2853,-0.3771 -0.5235,-0.8377 -0.9464,-1.8302 0.099,-4.7221 1.9905,-5.5056 l 0.8098,-0.3353 v -13.2142 -13.2142 l 1.9673,-0.909 c 1.0819,-0.4999 2.0344,-0.909 2.1167,-0.909 z m -10.4304,3.3094 c 0.1191,0.074 0.2307,2.0973 0.2481,4.4974 l 0.032,4.364 -0.8692,0.3923 c -1.3435,0.6065 -8.4688,3.486 -9.1374,3.6928 -0.4268,0.1319 -0.5953,0.076 -0.5953,-0.1964 h -5e-4 c 0,-0.2093 -0.1844,-2.1364 -0.4098,-4.2824 -0.2254,-2.146 -0.3452,-3.9663 -0.2662,-4.0453 0.3359,-0.3359 10.8014,-4.5441 10.9983,-4.4224 z m -48.8533,13.889 c 7.2449,0 12.7815,0.8692 20.313,3.1885 5.181,1.5956 14.5053,5.8736 17.6051,8.0775 2.3387,1.6627 3.3565,3.9309 2.7616,6.1552 -0.8103,3.0295 -3.8349,4.5422 -6.6446,3.3238 -1.7228,-0.7471 -2.9125,-2.2807 -2.9125,-3.7548 0,-0.7164 -0.2056,-0.8615 -3.3734,-2.3792 -4.0304,-1.9309 -5.3833,-2.472 -9.1292,-3.6499 -6.109,-1.9209 -9.6127,-2.5541 -14.3722,-2.5977 l -3.1952,-0.029 -0.9358,0.9906 c -1.6769,1.7753 -4.0297,2.2667 -6.179,1.2904 -4.0496,-1.8394 -3.9829,-7.7369 0.1116,-9.8759 1.3889,-0.7256 1.4994,-0.7395 5.9506,-0.7395 z m -19.1647,7.9003 5.3051,4.6969 c 2.9176,2.5833 5.2132,4.7794 5.1015,4.8808 -0.1118,0.1014 -2.457,0.8835 -5.2111,1.7379 l -5.0069,1.5534 -2.1735,2.9104 c -1.1952,1.6007 -3.2075,4.2768 -4.4716,5.9465 -1.264,1.6696 -2.3905,3.2011 -2.5037,3.4033 -0.278,0.4969 -0.6173,0.2949 -4.098,-2.4453 -1.5884,-1.2507 -2.9691,-2.2743 -3.068,-2.2743 -0.099,0 -4.3951,1.1993 -9.5472,2.665 -11.5027,3.2722 -11.9052,3.3154 -18.49553,1.9921 -2.4011,-0.4821 -6.1292,-1.2051 -8.2848,-1.6066 -2.9307,-0.5459 -3.8855,-0.818 -3.7853,-1.079 0.074,-0.1919 2.2149,-3.1462 4.7584,-6.565 3.5617,-4.7874 4.7356,-6.1903 5.1082,-6.1061 1.1074,0.2503 10.39653,1.9716 11.86083,2.1978 1.5514,0.2397 1.6715,0.2121 5.2917,-1.2123 4.4332,-1.7444 8.9156,-3.4323 13.2291,-4.9816 1.7462,-0.6272 5.4372,-1.9653 8.2021,-2.9735 2.7649,-1.0082 5.6486,-2.0371 6.4079,-2.2867 z m 76.5498,11.174 c 0.8833,-0.015 1.7612,0.2008 2.4893,0.6729 2.0414,1.3235 2.0619,1.4155 2.16,9.6211 0.085,7.0915 -0.089,11.6566 -0.4418,11.6277 -0.096,-0.01 -2.1146,-0.9883 -4.4855,-2.1787 h -5e-4 l -4.3103,-2.1642 0.078,-7.4125 c 0.077,-7.3429 0.083,-7.4215 0.7126,-8.3039 0.8381,-1.1751 2.326,-1.8379 3.7982,-1.8624 z m -102.2666,19.2898 h 4.7966 4.7971 v 0.6723 c 0,1.0073 -0.9356,2.644 -1.9063,3.3352 -1.2098,0.8615 -3.9626,1.002 -5.1403,0.2625 -1.1527,-0.7239 -2.2098,-2.19 -2.3931,-3.3192 z m -19.08053,0.7235 c 0.8163,-0.01 1.9311,0 3.1471,0.017 l 4.42203,0.079 -0.1608,0.8035 c -0.5118,2.559 -3.66563,4.1211 -6.11843,3.0309 v -6e-4 c -1.0737,-0.4772 -1.9574,-1.4836 -2.3787,-2.7093 -0.1923,-0.5591 -0.3127,-1.0762 -0.2677,-1.1493 0.023,-0.036 0.5402,-0.062 1.3565,-0.071 z m 42.43263,1.387 v 4.3031 4.303 l -5.5408,5.5527 c -3.0476,3.054 -5.6138,5.5302 -5.7025,5.5025 -0.089,-0.028 -1.6715,-1.3677 -3.5176,-2.9771 -1.8461,-1.6094 -3.447,-2.9259 -3.5579,-2.9259 -0.1109,0 -0.2021,3.6204 -0.2021,8.0455 v 8.0455 l 4.1538,3.6623 c 2.2843,2.0142 4.3133,3.7834 4.5092,3.9316 0.2756,0.2084 -0.7844,1.4047 -4.688,5.2916 -2.7741,2.7623 -5.1902,5.0527 -5.3692,5.0896 -0.1789,0.037 -0.7423,-0.2544 -1.2516,-0.6475 v 0.01 c -0.5094,-0.3931 -2.1762,-1.7446 -3.7042,-3.0029 -1.528,-1.2583 -3.3526,-2.7227 -4.055,-3.2546 l -1.277,-0.9674 H 50.2396 c -10.0108,0 -14.8519,-0.091 -15.2161,-0.2857 -0.7956,-0.4257 -1.2832,-1.8659 -1.2832,-3.7895 0,-2.6162 -0.346,-2.0138 6.2751,-10.9218 1.642,-2.2093 2.9853,-4.2183 2.9853,-4.4648 0,-0.2466 -0.4203,-1.4997 -0.9343,-2.7843 l -0.9343,-2.3358 1.9074,-2.5916 c 1.0492,-1.4255 2.3738,-3.1576 2.9435,-3.8489 l 1.0361,-1.2567 h 5.3687 5.36813 l 0.9245,-1.0232 0.9245,-1.0227 5.1775,-0.1364 5.1774,-0.1364 0.7116,1.0273 c 0.8252,1.1908 0.5508,1.163 8.3917,0.8537 l 4.3967,-0.1737 2.591,-3.5238 2.5906,-3.5238 3.2411,-0.01 z m 15.8822,11.2034 c 1.9413,0 3.6691,0.1997 5.1826,0.5995 1.5465,0.3997 3.0268,0.933 4.4416,1.5993 v 9.3948 c -2.8626,-1.5991 -5.8733,-2.3988 -9.032,-2.3988 -3.2903,0 -5.7084,1.0661 -7.2548,3.1982 -1.5136,2.1322 -2.2702,5.4857 -2.2702,10.0609 0,4.3532 0.8057,7.5515 2.4179,9.5948 1.6123,2.0433 4.0142,3.0649 7.2058,3.0649 1.5465,0 3.0769,-0.1774 4.5904,-0.5328 1.5136,-0.3997 2.9777,-0.9993 4.3925,-1.7988 v 9.4609 c -1.3819,0.6219 -2.846,1.1107 -4.3925,1.4661 -1.5464,0.3553 -3.2904,0.5333 -5.2317,0.5333 -5.5606,0 -9.8052,-1.9103 -12.7336,-5.7304 -2.8955,-3.8646 -4.3434,-9.2173 -4.3434,-16.058 0,-7.1515 1.415,-12.6818 4.2447,-16.5907 2.8626,-3.9089 7.1234,-5.8632 12.7827,-5.8632 z m 18.6671,0.1948 h 26.602 v 8.262 h -9.3282 v 34.6475 h -7.9457 v -34.6475 h -9.3281 z m -62.9564,0.7788 -3.4572,0.01 -3.4576,0.01 -1.0583,1.6465 -1.0584,1.6459 -2.26193,0.076 -2.2618,0.076 -0.7633,-1.5968 -0.7633,-1.5973 h -2.8241 -2.8246 l -0.969,1.4598 -0.9694,1.4599 1.2625,2.7859 1.2624,2.7858 2.4252,-0.079 2.4252,-0.078 -0.9039,1.2572 c -0.497,0.6915 -0.9038,1.3167 -0.9038,1.3891 0,0.072 1.4219,0.1318 3.1595,0.1318 h 3.159 l 1.1157,-1.3292 1.11573,-1.3229 h 2.5497 2.5497 l 2.1715,-2.6427 c 1.1942,-1.4536 2.1709,-2.7826 2.1709,-2.9533 0,-0.1708 -0.2002,-0.9462 -0.445,-1.7229 z m -17.57723,33.8677 13.04363,0.001 1.8857,1.6526 c 1.7462,1.5304 8.2776,7.3986 13.5925,12.2117 1.2369,1.1202 2.284,2.1345 2.3264,2.2541 0.042,0.1195 -1.9004,1.5013 -4.3175,3.0706 -4.0409,2.6236 -4.3822,2.9052 -4.2334,3.498 0.089,0.3546 0.9953,2.5417 2.0139,4.8602 1.0184,2.3186 1.7804,4.3311 1.6929,4.4726 -0.092,0.1492 -1.9381,0.2573 -4.3961,0.2573 h -4.237 l -1.6707,-3.5057 c -0.919,-1.9281 -2.3934,-5.1726 -3.2763,-7.2099 -0.8828,-2.0372 -2.4202,-5.4901 -3.4163,-7.6729 l -1.81073,-3.9688 -11.1658,-0.069 -11.1657,-0.069 v -3.9833 c 0,-2.226 0.1207,-4.2078 0.2729,-4.4922 0.689,-1.2873 0.9278,-1.3086 14.8616,-1.3074 z m -6.1438,14.2864 h 5.0219 l 0.51,1 c 1.0081,1.9761 7.1732,16.2637 7.1732,16.6238 0,0.3005 -0.8532,0.3679 -4.6446,0.3679 h -4.6447 l -2.6009,-5.3578 c -3.9821,-8.2032 -5.8368,-12.1435 -5.8368,-12.4003 0,-0.1284 2.26,-0.2336 5.0219,-0.2336 z" />
  </g>
</svg>
