<svg enable-background="new 0 0 512 512" height="512" viewBox="0 0 512 512" width="512" xmlns="http://www.w3.org/2000/svg"><g id="_x30_5_Exclusive"><g><g><path d="m492.891 222.455c-10.996-9.791-14.561-25.494-8.877-39.078 10.359-24.765-3.257-53.013-29.102-60.37-14.174-4.037-24.226-16.637-25.004-31.406-1.414-26.616-25.749-46.368-52.409-41.747-14.471 2.48-29.001-4.484-36.121-17.435-12.889-23.435-43.424-30.482-65.313-14.83-12.005 8.578-28.128 8.576-40.153-.02-21.739-15.531-52.319-8.738-65.318 14.91-7.09 12.891-21.615 19.863-36.171 17.36-26.317-4.561-50.9 14.902-52.334 41.815-.773 14.717-10.825 27.317-25.055 31.366-25.748 7.335-39.412 35.576-29.046 60.36 5.684 13.582 2.119 29.285-8.993 39.181-19.842 17.673-20.167 48.914.115 66.985 10.996 9.791 14.561 25.494 8.877 39.078-10.359 24.765 3.257 53.013 29.102 60.37 14.174 4.037 24.226 16.637 25.005 31.406 1.412 26.58 25.689 46.35 52.409 41.747 14.476-2.488 29.001 4.486 36.121 17.435 12.886 23.43 43.414 30.482 65.313 14.83 12.01-8.576 28.133-8.571 40.153.02 21.741 15.533 52.319 8.738 65.318-14.91 7.085-12.894 21.6-19.883 36.171-17.36 26.33 4.549 50.9-14.902 52.334-41.815.773-14.717 10.825-27.317 25.055-31.366 25.747-7.335 39.412-35.577 29.046-60.357 0 0 0 0 0-.003-5.684-13.582-2.119-29.285 8.993-39.181 19.842-17.673 20.167-48.914-.116-66.985zm-6.839 59.414c-14.27 12.708-18.904 33.093-11.528 50.725v-.003c7.989 19.087-2.502 40.841-22.424 46.512-18.407 5.242-31.452 21.598-32.466 40.755-1.078 20.498-19.819 35.7-40.389 32.157-18.819-3.251-37.642 5.819-46.876 22.612-9.92 18.021-33.413 23.51-50.325 11.42-15.585-11.137-36.518-11.137-52.113.02-16.682 11.926-40.258 6.809-50.33-11.501-9.184-16.7-27.98-25.8-46.926-22.537-20.317 3.503-39.219-11.512-40.314-32.225-1.009-19.105-14.054-35.461-32.506-40.715-19.844-5.65-30.372-27.404-22.379-46.497 7.376-17.631 2.741-38.016-11.644-50.83-15.238-13.576-15.594-37.63.115-51.631 14.27-12.708 18.904-33.093 11.528-50.722-7.989-19.087 2.502-40.841 22.424-46.512 18.407-5.242 31.452-21.598 32.466-40.755 1.085-20.622 19.931-35.679 40.389-32.157 18.849 3.264 37.647-5.819 46.876-22.612 9.942-18.06 33.446-23.482 50.325-11.42 15.585 11.137 36.518 11.132 52.113-.02 16.714-11.949 40.278-6.772 50.33 11.501 9.203 16.735 28.022 25.778 46.926 22.537 20.381-3.492 39.221 11.552 40.314 32.225 1.009 19.105 14.054 35.461 32.506 40.715 19.844 5.65 30.372 27.404 22.379 46.497-7.376 17.631-2.741 38.016 11.644 50.83 15.239 13.575 15.594 37.63-.115 51.631z"/><path d="m256 83.989c-94.847 0-172.009 77.165-172.009 172.012s77.162 172.011 172.009 172.011 172.009-77.165 172.009-172.012-77.162-172.011-172.009-172.011zm0 333.74c-89.178 0-161.726-72.551-161.726-161.729s72.548-161.728 161.726-161.728 161.726 72.551 161.726 161.729-72.548 161.728-161.726 161.728z"/><path d="m364.847 215.953c-.031-.99-.227-2.033-1.142-3.132l-34.585-41.594c-.012-.014-.031-.018-.043-.032-.898-1.057-2.547-1.823-3.909-1.823-11.116 0-124.42.002-138.339.003-1.353 0-3.006.761-3.905 1.818-.013.015-.034.019-.046.035l-34.585 41.594c-.617.741-1.102 1.861-1.142 3.132-.039 1.262.413 2.472.951 3.202 117.412 159.306 102.252 139.013 104 141.097.997 1.192 2.569 1.886 3.896 1.886 1.604 0 3.376-1.05 4.142-2.094l103.754-140.889c.49-.664.994-1.874.953-3.203zm-136.874 5.295h56.054l-28.027 114.18zm28.027-38.695 23.624 28.411h-47.248zm-34.585 25.512c-2.145-2.579-24.918-29.965-23.623-28.409h47.247c-2.353 2.83-24.204 29.107-23.624 28.409zm103.754-25.512 23.624 28.411h-47.248zm-34.584 25.512c-2.145-2.579-24.918-29.965-23.623-28.409l47.247-.003zm-103.754-25.512 23.624 28.411h-47.248zm30.555 38.695 27.484 111.962-82.451-111.962zm49.744 111.962 27.484-111.962h54.967z"/></g></g></g></svg>