<svg id="Layer_1" height="512" viewBox="0 0 32 32" width="512" xmlns="http://www.w3.org/2000/svg" data-name="Layer 1">
    <path d="m26 18.33v4.35c0 1.58-.93 2.99-2.37 3.65-1.75.8-4.4 1.67-7.63 1.67s-5.88-.87-7.64-1.67c-1.43-.66-2.36-2.07-2.36-3.65v-4.35l7.11 3.25c.91.42 1.89.63 2.89.63s1.98-.21 2.89-.63z"/>
    <path d="m30 16.5v6.5c0 .55-.45 1-1 1s-1-.45-1-1v-5.58z"/>
    <path d="m13.938 19.764c.655.299 1.358.449 2.062.449s1.406-.149 2.062-.449l12.771-5.838c.72-.329 1.167-1.026 1.167-1.819s-.447-1.491-1.167-1.82l-12.771-5.837c-1.311-.599-2.812-.599-4.123 0l-12.772 5.836c-.72.33-1.167 1.027-1.167 1.82s.447 1.49 1.167 1.82l12.771 5.837z"/>
</svg>