<svg id="a2e0f882-a92b-4e4d-b32d-46ad1b536be8" height="512" viewBox="0 0 64 64" width="512" xmlns="http://www.w3.org/2000/svg" data-name="glyph">
    <path d="m37.98077 10.34259s2.96009-3.44891 3.66-4.26c-1.6872-.72992-4.94782-1.434-9.67005-1.51-5.21.09-8.23.88-9.94995 1.65.69336.80786 3.53 4.12 3.53 4.12z"/>
    <path d="m31.7608 17.59253c.9527-1.11127 3.515-4.10095 4.5-5.24994h-8.99c1.05501 1.22907 3.4572 4.05304 4.49 5.24994z"/>
    <path d="m53.40857 16.419c1.42773-1.702-4.36572-4.32508-5.47754-4.87824-.78815 5.5412-8.16681 6.36945-12.38824 8.11011l-.00019 4.451a1.01638 1.01638 0 0 1 -2.03253-.00006v-3.81081a3.85328 3.85328 0 0 1 -3.03857-.00012l-.00006 6.89044a1.01639 1.01639 0 0 1 -2.03254-.00006v-7.54076c-3.19525-1.20129-7.68255-2.139-10.46759-4.44085a6.26236 6.26236 0 0 1 -1.92071-3.59778c-1.2.57367-6.858 3.09979-5.47772 4.80682.04071.0611 4.553 5.89447 3.77044 30.80316v10.20325a2.01 2.01 0 0 0 2.01215 2.01227h31.362a2.0105 2.0105 0 0 0 2.00213-2.01227c-.00006 0 .0055-7.60864-.00006-10.23376-.75201-24.87818 3.65851-30.72175 3.68903-30.76234zm-9.48175 34.97986a2.00387 2.00387 0 0 1 -1.99188 2.00208l-19.868.08124a2.02087 2.02087 0 0 1 -2.01214-2.00208l-.00006-5.46747a1.97045 1.97045 0 0 1 .68091-1.49395 14.76156 14.76156 0 0 0 3.61792-4.7154 2.04242 2.04242 0 0 1 1.83941-1.22967l11.57532-.07117a2.07271 2.07271 0 0 1 1.8597 1.21956 14.71764 14.71764 0 0 0 3.62811 4.70527 2.00149 2.00149 0 0 1 .67072 1.50409z"/>
    <path d="m21.7113 15.06726c2.9328 1.23651 5.95459 2.1875 8.76014 3.08954-.64692-.67975-10.7013-12.43909-10.7013-12.43909-2.70337 3.50824-2.49743 7.93054 1.94116 9.34955z"/>
    <path d="m42.38983 15.06726a5.16429 5.16429 0 0 0 3.54682-3.33326c.55645-2.09955-.21405-4.04572-1.60566-6.0163 0 0-10.05444 11.75934-10.70135 12.43909 2.80554-.90203 5.82736-1.85302 8.76019-3.08953z"/>
    <path d="m37.76825 40.54517-11.56512.061a16.649 16.649 0 0 1 -4.126 5.43695l.01013 5.43707 19.80707-.11175v-5.4371a16.764 16.764 0 0 1 -4.12608-5.38617z"/>
    <path d="m4.27582 50.08789c.11413-.16968 7.74872-.087 8.15484-.10168v-2.77436c.64-18.79077-2.05249-26.40258-3.1781-28.72979-1.69934 4.58331-5.10913 15.7622-4.97674 31.60583z"/>
    <path d="m12.43073 52.01868-7.32728.00006a1.07519 1.07519 0 0 0 -1.10339 1.01626l-.00006 2.368a3.061 3.061 0 0 0 3.178 2.92682c.79321-.04974 4.63885.14124 5.32989-.16266-.09242-.38554-.12148-6.14897-.07716-6.14848z"/>
    <path d="m51.56934 49.98621c.40612.01471 8.04071-.068 8.15484.10168.13239-15.84363-3.2774-27.02252-4.97674-31.60583-1.12561 2.32721-3.81812 9.939-3.1781 28.72979z"/>
    <path d="m59.99994 53.035a1.07519 1.07519 0 0 0 -1.10339-1.01629l-7.32728-.00006c.02448.00067-.0357 5.97656-.07714 6.14843.691.3039 4.53668.11292 5.32989.16266a3.061 3.061 0 0 0 3.17798-2.92674z"/>
</svg>