<?xml version="1.0" encoding="UTF-8" standalone="no"?>
<!-- Created with Inkscape (http://www.inkscape.org/) -->

<svg
   width="47.061474mm"
   height="30.536663mm"
   viewBox="0 0 47.061474 30.536663"
   version="1.1"
   id="svg350"
   xmlns="http://www.w3.org/2000/svg"
   >
  <defs
     id="defs347">
    <filter
       style="color-interpolation-filters:sRGB"
       id="filter8241"
       x="-0.30454674"
       y="-0.50282252"
       width="1.6090935"
       height="2.005645">
      <feGaussianBlur
         stdDeviation="17.5082 13.223"
         result="blur"
         id="feGaussianBlur8239" />
    </filter>
  </defs>
  <g
     id="layer1"
     transform="translate(-164.46687,-64.358263)">
    <g
       id="g1077"
       transform="matrix(1.0230007,0,0,0.85701692,215.61555,28.569613)"
       style="fill:#9dbab0;fill-opacity:1;image-rendering:auto">
      <path
         style="fill:#9dbab0;fill-opacity:1;stroke-width:0.238379"
         d="m -29.907828,77.113948 c -3.15475,-0.90168 -6.37848,-3.50394 -7.69309,-6.20998 -0.62696,-1.29061 -0.69448,-1.66306 -0.69133,-3.81407 0.003,-2.301432 0.0475,-2.499092 1.27643,-5.721102 3.47006,-9.097519 3.91771,-9.532749 9.8046,-9.532749 3.05292,0 3.58884,0.061 4.58983,0.5222 1.69977,0.7832 3.39114,2.69786 4.59047,5.19649 1.27024,2.646339 1.78515,4.900759 1.78515,7.815839 0,5.391892 -2.23679,9.512892 -6.14588,11.323082 -1.15959,0.53696 -1.73672,0.63992 -3.86604,0.68967 -1.58109,0.0369 -2.9255,-0.0623 -3.65014,-0.26938 z m -0.40231,-4.78171 c 1.69674,-0.30056 2.49138,-0.31359 4.88676,-0.0802 3.31015,0.3226 4.87397,0.15615 5.7694,-0.61406 l 0.63529,-0.54646 -0.58018,-0.37397 c -1.86356,-1.20124 -6.07279,-1.93705 -9.11031,-1.59256 -1.84435,0.20916 -5.24925,1.02426 -5.8629,1.40351 -0.72855,0.45026 0.74925,2.14935 1.87815,2.15942 0.19666,0.002 1.26939,-0.15833 2.38379,-0.35573 z m 6.19785,-9.931572 c 1.24553,-2.11665 2.45931,-4.215569 2.69725,-4.664259 l 0.43267,-0.81579 -1.38618,0.16901 c -1.70516,0.20791 -2.87507,0.77682 -3.82699,1.861019 l -0.72705,0.82805 -0.68066,-0.71152 c -0.37436,-0.39133 -1.01751,-0.919999 -1.4292,-1.174819 -0.74438,-0.46074 -3.3597,-1.07642 -3.59081,-0.84532 -0.0666,0.0666 0.90916,1.534949 2.16831,3.263059 1.25912,1.72811 2.63612,3.77279 3.05992,4.54374 0.42384,0.77096 0.82633,1.40028 0.89438,1.39851 0.0681,-0.002 1.14284,-1.73503 2.38836,-3.85168 z"
         id="path799" />
      <path
         style="fill:#9dbab0;fill-opacity:1;stroke-width:0.238379"
         d="m -6.9489985,53.871497 c 0,-0.12471 0.16092,-0.84451 0.35758,-1.59955 0.86953,-3.33841 0.28662,-5.49096 -2.22425,-8.213465 -0.80007,-0.867519 -1.3867595,-1.64523 -1.3037295,-1.728248 0.2948995,-0.294915 2.0384295,-0.14487 2.8629195,0.246377 2.61395,1.240401 4.13494,6.513196 2.72119,9.433596 -0.59978,1.239 -2.41371,2.63777 -2.41371,1.86129 z"
         id="path838" />
      <path
         style="fill:#9dbab0;fill-opacity:1;stroke-width:0.238379"
         d="m -30.617528,44.579309 c -3.13929,-0.860248 -3.41808,-0.896398 -6.19787,-0.803646 l -2.91071,0.09712 0.78314,-0.692346 c 1.57904,-1.39595 3.28462,-1.537124 7.77534,-0.643581 3.7195,0.74009 4.76207,0.742987 7.96345,0.02212 5.0769,-1.143153 6.38082,-1.052157 8.20459,0.572554 0.56013,0.498985 0.96478,0.957587 0.89922,1.019116 -0.0655,0.06153 -1.24553,-0.04752 -2.62216,-0.242326 l -2.50298,-0.354195 -3.76677,0.981228 c -2.07171,0.539676 -3.8953,0.973011 -4.05244,0.962967 -0.15713,-0.01005 -1.7649,-0.423606 -3.57281,-0.919028 z"
         id="path914" />
      <path
         style="fill:#9dbab0;fill-opacity:1;stroke-width:0.238379"
         d="m -47.850428,53.867287 c -1.55651,-0.62967 -2.48095,-3.24884 -2.03675,-5.7706 0.69706,-3.957293 3.20221,-6.746501 5.64741,-6.287777 1.09726,0.205843 1.03796,0.67197 -0.19431,1.528066 -3.39182,2.356369 -4.4492,5.643741 -2.98214,9.271401 0.60697,1.50088 0.55272,1.65817 -0.43421,1.25891 z"
         id="path953" />
    </g>
  </g>
</svg>
