<?xml version="1.0" encoding="UTF-8" standalone="no"?>
<!-- Created with Inkscape (http://www.inkscape.org/) -->

<svg
   width="423.0014mm"
   height="616.69293mm"
   viewBox="0 0 423.0014 616.69294"
   version="1.1"
   id="svg35262"
   xmlns="http://www.w3.org/2000/svg"
>
  <defs
     id="defs35259" />
  <g
     id="layer1"
     transform="translate(136.30647,227.60497)">
    <rect
       style="fill:#c13c70;fill-opacity:1;stroke-width:0.264583"
       id="rect19034-0-4-9"
       width="423.0014"
       height="616.69293"
       x="-136.30647"
       y="-227.60497"
       ry="127.43742" />
    <g
       id="g34168"
       transform="matrix(5.4005831,0,0,5.1445929,-7383.7305,-167.78592)">
      <path
         style="fill:#ffffff;stroke:#ffffff;stroke-width:0.14795px;stroke-linecap:butt;stroke-linejoin:miter;stroke-opacity:1"
         d="m 1391.1897,20.6277 c 4.151,-4.4647 4.151,-4.4647 4.151,-4.4647 l 0.7723,2.7397 -2.6065,1.8265 v 0 l -1.6411,1.1162 z"
         id="path2955-3" />
      <path
         id="path916-6-1"
         style="fill:#ffffff;stroke:none;stroke-width:0.22946"
         d="m 1381.4927,15.2679 0.2238,0.2352 z m 0,0.2352 c -3.6523,2.0199 -7.0532,4.1298 -8.8802,8.234 -0.6701,1.5056 -0.6846,3.2153 -1.3063,4.7049 -0.4286,1.0269 -1.372,1.689 -1.9803,2.5879 -1.3729,2.029 -1.0387,4.1418 -0.3664,6.3518 -3.5684,1.4925 -6.2225,3.2472 -8.9523,6.1166 l -0.6717,-0.4704 -1.7903,4.4699 -0.8954,-0.4707 -2.4617,9.1749 c -0.5294,-0.6888 -0.7201,1.2015 -0.7401,4.1793 h 0.019 c 0.2733,-0.017 0.4725,0.055 0.5955,0.1665 2.272,0.5056 4.5048,1.866 6.6161,2.7982 4.5624,2.0145 9.1031,4.0802 13.6525,6.1264 2.5715,1.1568 5.1926,2.6464 8.0569,2.7191 3.3641,0.086 6.3774,-1.6001 9.4002,-2.9558 4.3141,-1.935 8.6709,-3.7658 12.9808,-5.7101 2.301,-1.0383 4.7059,-2.5465 7.1843,-3.0515 0.167,-0.093 0.334,-0.186 0.5011,-0.2788 -0.016,-0.01 -0.035,-0.015 -0.051,-0.026 -0.087,-0.06 0.096,-0.099 0.2619,-0.092 0.046,-0.026 0.093,-0.052 0.1392,-0.077 -0.092,-0.015 -0.1897,-0.023 -0.2723,-0.061 -0.022,-0.01 -0.01,-0.015 0.02,-0.016 0.089,0 0.3333,0.032 0.2686,0.068 0,0 -0.011,0.01 -0.016,0.01 0.042,0.01 0.073,0.034 0.1116,0.048 -0.097,-3.3563 -0.4489,-5.2207 -1.2094,-3.8508 h -0.2238 c -0.066,-3.3442 -1.2677,-6.1599 -2.4619,-9.1749 l -0.8954,0.4707 c -0.2934,-1.3325 -0.8774,-4.1178 -2.4617,-3.9995 h -0.2238 c -2.2661,-2.4819 -5.2826,-5.5104 -8.7288,-5.8814 0.3744,-2.3158 1.1263,-4.1475 -0.217,-6.3518 -0.6285,-1.0314 -1.8101,-1.7355 -2.2686,-2.8631 -1.5602,-3.8351 -1.7312,-6.7738 -5.3475,-9.3701 l 1.7903,-1.1762 -4.4761,-0.706 0.4476,-1.1761 -6.0428,1.6469 z m 5.976,14.6424 c 0.097,0 0.1939,0.01 0.2906,0.014 0.9931,0.087 1.7955,0.6797 2.2382,1.5756 l -2.9095,-0.4382 -4.2523,1.1468 -3.8049,-1.0662 -3.3571,0.1223 c 2.0442,-2.5913 4.7639,-0.4103 7.3858,-0.559 1.4528,-0.082 2.9527,-0.8153 4.4092,-0.7958 z m -14.5126,0 c 0.2934,-0.018 0.6035,0.036 0.927,0.1766 v 0.4705 c -2.7135,1.6486 -3.1663,3.7562 -1.7903,6.587 -3.245,-0.155 -1.9725,-7.0591 0.8633,-7.2341 z m 19.7356,0.1994 c 2.769,0.024 4.0534,6.4717 0.8867,7.0347 0.9834,-3.5897 0.6696,-4.1013 -1.7903,-6.8223 0.3149,-0.1485 0.6171,-0.2149 0.9036,-0.2124 z m -9.695,5.5125 c 1.0409,0.026 2.0651,0.1719 2.5149,0.488 4.1819,2.9397 4.6877,12.3376 -0.6618,14.1556 -3.4402,1.1692 -7.7708,-1.1983 -8.3661,-5.1226 -0.2388,-1.5746 0.6325,-3.5035 1.1621,-4.9405 0.5145,-1.396 1.2115,-3.8619 2.7367,-4.3479 0.5157,-0.1643 1.5732,-0.2584 2.6142,-0.2326 z m -3.2946,3.1691 2.327,3.3037 1.0304,1.8717 2.9095,-5.1754 c -1.5037,0 -2.2958,0.2732 -3.1333,1.6467 -1.0004,-1.1895 -1.6096,-1.641 -3.1336,-1.6467 z m 3.1787,6.8502 c -1.4283,0.01 -2.8717,0.3545 -4.2976,0.9131 0.1585,0.5469 0.294,0.9484 0.9084,1.0345 0.7871,0.1103 1.6607,-0.2506 2.4487,-0.3075 1.6224,-0.1176 3.9754,0.8684 5.1477,-0.4918 -1.3655,-0.8159 -2.7788,-1.1538 -4.2072,-1.1483 z" />
      <path
         style="color:#000000;fill:#c13c70;fill-opacity:1;stroke-width:0.14795;-inkscape-stroke:none"
         d="m 1412.7869,27.5335 1.0937,3.9761 -51.1008,45.93887 -3.1408,-2.42377 z"
         id="rect1412-7-4" />
      <path
         style="color:#000000;display:inline;fill:#c13c70;fill-opacity:1;stroke-width:0.124274;-inkscape-stroke:none"
         d="m 1414.5017,35.3965 0.9127,3.3618 -42.6429,38.84134 -2.6209,-2.0493 z"
         id="rect1412-3-4-6" />
      <path
         style="color:#000000;display:inline;fill:#c13c70;fill-opacity:1;stroke-width:0.124274;-inkscape-stroke:none"
         d="m 1417.0799,42.157 0.9127,3.3618 -41.5011,37.05875 -3.7627,-0.26674 z"
         id="rect1412-3-5-5-94" />
      <rect
         style="fill:#c13c70;fill-opacity:1;stroke-width:0.14795"
         id="rect2689-2"
         width="24.520023"
         height="5.2765441"
         x="1368.9866"
         y="20.729208" />
      <path
         style="fill:#ffffff;fill-opacity:0.994429;stroke:#ffffff;stroke-width:0.14795px;stroke-linecap:butt;stroke-linejoin:miter;stroke-opacity:1"
         d="m 1391.8654,21.8454 c 6.2748,-0.3044 6.2748,-0.3044 6.2748,-0.3044 l 1.8342,2.8412 -7.2402,-0.6088 -0.8688,-1.928"
         id="path2957-2" />
      <path
         style="fill:#c13c70;fill-opacity:1;stroke:#000000;stroke-width:0.14795;stroke-opacity:0"
         id="path10092-6"
         d="m 1380.764,32.2224 a 2.9350274,2.7135765 0 0 1 -0.845,3.6594 2.9350274,2.7135765 0 0 1 -3.9949,-0.6001 2.9350274,2.7135765 0 0 1 0.4515,-3.7185" />
      <rect
         style="fill:#c13c70;fill-opacity:1;stroke:#000000;stroke-width:0.112655;stroke-opacity:0"
         id="rect10196-4"
         width="15.38419"
         height="1.3506252"
         x="1208.6997"
         y="515.37933"
         transform="matrix(0.93764833,-0.3475854,0.47779623,0.87847069,0,0)" />
      <path
         style="display:inline;fill:#c13c70;fill-opacity:1;stroke:#000000;stroke-width:0.306549px;stroke-linecap:butt;stroke-linejoin:miter;stroke-opacity:0"
         d="m 1379.6565,29.6725 c 3.7872,-0.1477 6.3871,-1.8988 3.7872,-0.1477 -2.5999,1.7511 -3.2507,2.4705 -3.2507,2.4705 l -0.3174,3.42 -5.1982,4.1143 4.1148,-4.5967 z"
         id="path11186-1" />
    </g>
  </g>
</svg>
