<?xml version="1.0" encoding="UTF-8" standalone="no"?>
<!-- Created with Inkscape (http://www.inkscape.org/) -->

<svg
   width="423.0014mm"
   height="616.69293mm"
   viewBox="0 0 423.0014 616.69293"
   version="1.1"
   id="svg34675"
   xmlns="http://www.w3.org/2000/svg"
 >
  <defs
     id="defs34672" />
  <g
     id="layer1"
     transform="translate(126.69261,254.62027)">
    <rect
       style="fill:#3cc18c;fill-opacity:1;stroke-width:0.264583"
       id="rect19034"
       width="423.0014"
       height="616.69293"
       x="-126.69261"
       y="-254.62027"
       ry="127.43742" />
    <path
       id="path916-62"
       style="fill:#ffffff;stroke:none;stroke-width:1.17247"
       d="m 84.96003,-124.2828 1.1777,1.1672 z m 0,1.1672 c -19.22116,10.0211 -37.11893,20.4883 -46.73365,40.8502 -3.5264,7.4698 -3.60295,15.9518 -6.87496,23.3421 -2.25563,5.0943 -7.22013,8.3788 -10.42151,12.8387 -7.22485,10.0663 -5.46645,20.5484 -1.92828,31.5127 -18.77942,7.4043 -32.74726,16.1097 -47.11334,30.3455 l -3.53462,-2.334 -9.42182,22.1762 -4.71237,-2.3355 -12.95495,45.5183 c -2.78619,-3.417 -3.78979,5.9614 -3.89505,20.7348 h 0.0992 c 1.4383,-0.082 2.487,0.2698 3.13418,0.8257 11.95639,2.5084 23.70709,9.2575 34.81841,13.8827 24.01023,9.9941 47.90657,20.242 71.84847,30.3941 13.5334,5.7389 27.32699,13.1292 42.40097,13.4896 17.7041,0.4239 33.56242,-7.9381 49.47032,-14.6641 22.70405,-9.6 45.63224,-18.6826 68.31384,-28.3289 12.10963,-5.1512 24.76591,-12.6335 37.80875,-15.139 0.87902,-0.4625 1.75789,-0.9225 2.63727,-1.3831 -0.0853,-0.048 -0.18288,-0.072 -0.26559,-0.13 -0.45567,-0.2987 0.50395,-0.4895 1.37794,-0.4577 0.24402,-0.1301 0.48854,-0.2553 0.73277,-0.3854 -0.48649,-0.077 -0.99852,-0.1156 -1.43286,-0.3035 -0.11713,-0.053 -0.0534,-0.077 0.10274,-0.077 0.46697,0 1.75403,0.1638 1.41354,0.3373 -0.0257,0 -0.0555,0.048 -0.0827,0.048 0.22244,0.048 0.38683,0.1686 0.58739,0.2361 -0.50807,-16.6512 -2.36269,-25.9005 -6.36474,-19.1047 h -1.17775 C 242.44641,62.1825 236.1201,48.2132 229.83519,33.2553 l -4.71237,2.3355 c -1.54413,-6.6109 -4.61708,-20.4295 -12.95495,-19.8423 h -1.17769 c -11.92567,-12.3136 -27.80074,-27.338 -45.93714,-29.1787 1.97052,-11.4894 5.92731,-20.5763 -1.14214,-31.5127 -3.30736,-5.1165 -9.52543,-8.6101 -11.93887,-14.204 -8.21068,-19.0271 -9.11071,-33.6068 -28.14221,-46.487 l 9.42182,-5.8352 -23.556,-3.5027 2.35549,-5.8353 -31.80151,8.1707 z m 31.44992,72.6438 c 0.51115,0 1.02045,0.048 1.52928,0.072 5.22609,0.4287 9.44894,3.3721 11.7787,7.8166 l -15.31188,-2.174 -22.37821,5.6897 -20.02425,-5.2899 -17.66732,0.607 c 10.7584,-12.8561 25.0709,-2.0358 38.86927,-2.7734 7.64569,-0.4094 15.53935,-4.0451 23.20441,-3.9478 z m -76.37544,0 c 1.54382,-0.091 3.17579,0.1783 4.87851,0.8758 v 2.3345 c -14.28014,8.1789 -16.66311,18.635 -9.42182,32.6795 -17.07757,-0.7688 -10.38071,-35.0217 4.54331,-35.8898 z m 103.86209,0.989 c 14.57254,0.1205 21.33192,32.1072 4.6664,34.9008 5.17538,-17.8093 3.52383,-20.3475 -9.42182,-33.8467 1.65746,-0.7371 3.24787,-1.0666 4.75542,-1.0541 z m -51.02179,27.3491 c 5.47801,0.1301 10.86839,0.8527 13.23528,2.4207 22.00787,14.5846 24.67,61.2089 -3.48274,70.2284 -18.10454,5.8011 -40.8951,-5.9451 -44.02816,-25.4144 -1.2567,-7.8114 3.32883,-17.3815 6.11559,-24.5103 2.70785,-6.9259 6.37568,-19.1595 14.4026,-21.5706 2.71376,-0.8156 8.27941,-1.2824 13.75743,-1.1538 z M 75.53678,-6.4113 87.7827,9.9783 l 5.42284,9.2864 15.31188,-25.676 c -7.91385,0 -12.08215,1.3551 -16.48958,8.1693 -5.26502,-5.9013 -8.47118,-8.1413 -16.49106,-8.1693 z m 16.7284,33.9845 c -7.51695,0.048 -15.11302,1.7588 -22.61703,4.5303 0.83392,2.7136 1.54747,4.7051 4.78059,5.1324 4.14246,0.5472 8.73955,-1.2434 12.88673,-1.5257 8.53817,-0.5834 20.9211,4.3087 27.09058,-2.44 -7.18602,-4.0475 -14.62391,-5.7239 -22.14087,-5.697 z" />
  </g>
</svg>
