<?xml version="1.0" encoding="UTF-8" standalone="no"?>
<!-- Created with Inkscape (http://www.inkscape.org/) -->

<svg
   width="423.0014mm"
   height="616.69293mm"
   viewBox="0 0 423.0014 616.69293"
   version="1.1"
   id="svg34875"
   xmlns="http://www.w3.org/2000/svg"
>
  <defs
     id="defs34872" />
  <g
     id="layer1"
     transform="translate(117.07874,233.4836)">
    <rect
       style="fill:#463cc1;fill-opacity:1;stroke-width:0.264583"
       id="rect19034-0-5-9"
       width="423.0014"
       height="616.69293"
       x="-117.07874"
       y="-233.4836"
       ry="127.43742" />
    <g
       id="g33846"
       transform="matrix(0.87662414,0,0,0.900091,-238.65841,663.19241)">
      <path
         id="path916-06-3"
         style="fill:#ffffff;stroke:none;stroke-width:1.32641"
         d="m 378.2515,-854.94806 1.34936,1.30392 z m 0,1.30392 c -22.02239,11.19368 -42.52852,22.88592 -53.5444,45.63139 -4.04035,8.34398 -4.12809,17.81866 -7.87688,26.07404 -2.58433,5.69049 -8.27247,9.35971 -11.9403,14.34119 -8.27781,11.24506 -6.26316,22.95359 -2.20935,35.20081 -21.51625,8.27118 -37.51973,17.99576 -53.97937,33.89746 l -4.04979,-2.60726 -10.79487,24.77187 -5.39915,-2.609 -14.84298,50.84591 c -3.19221,-3.81695 -4.34207,6.65881 -4.46266,23.16172 h 0.1135 c 1.64791,-0.096 2.84941,0.30448 3.59091,0.92266 13.69894,2.80182 27.1621,10.34092 39.89278,15.50687 27.5094,11.16383 54.8883,22.61189 82.31932,33.95156 15.50569,6.41074 31.3096,14.66612 48.58044,15.06881 20.28421,0.47374 38.45353,-8.86736 56.67976,-16.38058 26.0128,-10.72334 52.2825,-20.86912 78.2696,-31.64491 13.87444,-5.75359 28.37519,-14.11163 43.31889,-16.91064 1.00707,-0.51319 2.01403,-1.03035 3.02163,-1.54471 -0.0983,-0.0562 -0.20905,-0.0795 -0.30397,-0.14105 -0.52179,-0.33269 0.57718,-0.54702 1.57884,-0.50757 0.2799,-0.14095 0.5598,-0.28761 0.83959,-0.42856 -0.55731,-0.0843 -1.1441,-0.12971 -1.6417,-0.33841 -0.13455,-0.0562 -0.0616,-0.0843 0.11706,-0.0902 0.53517,0 2.00981,0.1805 1.61966,0.37787 -0.0356,0 -0.0637,0.0562 -0.095,0.0562 0.25463,0.0562 0.44327,0.18613 0.67296,0.26503 -0.58193,-18.59969 -2.70697,-28.93169 -7.29222,-21.34005 h -1.34938 c -0.39522,-18.53319 -7.64382,-34.1371 -14.84468,-50.84639 l -5.39914,2.6089 c -1.76922,-7.3841 -5.28996,-22.82049 -14.84295,-22.16461 h -1.34938 c -13.66354,-13.7547 -31.85219,-30.53728 -52.63183,-32.59354 2.25774,-12.83428 6.79117,-22.98462 -1.30846,-35.20081 -3.7894,-5.71579 -10.9137,-9.61795 -13.67876,-15.86671 -9.40732,-21.25377 -10.43858,-37.53954 -32.24364,-51.92813 l 10.79492,-6.51776 -26.98888,-3.91283 2.69876,-6.51786 -36.4362,9.12677 z m 36.03327,81.14579 c 0.5856,0 1.16915,0.0562 1.75216,0.0785 5.98777,0.47936 10.82603,3.76616 13.49531,8.73087 l -17.54334,-2.42792 -25.6396,6.35538 -22.94246,-5.90869 -20.24207,0.67789 c 12.32627,-14.36096 28.72466,-2.27456 44.53391,-3.09845 8.75995,-0.45687 17.804,-4.51801 26.58609,-4.40973 z m -87.50602,0 c 1.76884,-0.10159 3.63852,0.19737 5.58946,0.9784 v 2.60726 c -16.36128,9.13694 -19.09155,20.81678 -10.79488,36.50473 -19.56639,-0.85897 -11.89358,-39.12042 5.20542,-40.09039 z m 118.99841,1.10481 c 16.6963,0.13533 24.44076,35.86513 5.34644,38.98558 5.92966,-19.89411 4.03755,-22.72918 -10.79482,-37.80807 1.89902,-0.82339 3.72127,-1.19166 5.44838,-1.17751 z m -58.4574,30.5497 c 6.2763,0.14095 12.45227,0.95252 15.1641,2.7042 25.21522,16.29139 28.26526,68.37298 -3.99026,78.44828 -20.74296,6.47947 -46.85494,-6.64135 -50.44465,-28.38913 -1.43987,-8.72572 3.81395,-19.41582 7.00681,-27.37903 3.10249,-7.73656 7.30487,-21.40218 16.50156,-24.09572 3.10928,-0.91074 9.48605,-1.43188 15.76244,-1.2886 z m -19.86483,17.56255 14.03063,18.3082 6.21312,10.3731 17.54344,-28.6813 c -9.06728,0 -13.84302,1.51427 -18.89282,9.1256 -6.03222,-6.59221 -9.70565,-9.094 -18.89437,-9.1256 z m 19.16627,37.96258 c -8.61238,0.0562 -17.31544,1.96427 -25.91304,5.0599 0.95542,3.03137 1.77294,5.25621 5.47728,5.73334 4.74618,0.61139 10.01321,-1.38845 14.76479,-1.70428 9.7825,-0.65201 23.96998,4.8129 31.03867,-2.72514 -8.2333,-4.52131 -16.75515,-6.39426 -25.3677,-6.36382 z" />
      <path
         style="color:#000000;fill:#463cc1;fill-opacity:1;stroke-width:0.855235;-inkscape-stroke:none"
         d="m 566.9444,-786.97379 6.59475,22.0349 -308.12007,254.58609 -18.93762,-13.43242 z"
         id="rect1412-6" />
      <path
         style="color:#000000;display:inline;fill:#463cc1;fill-opacity:1;stroke-width:0.718379;-inkscape-stroke:none"
         d="m 577.28406,-743.39808 5.50324,18.63023 -257.12161,215.25283 -15.80313,-11.35701 z"
         id="rect1412-3-05" />
      <path
         style="color:#000000;display:inline;fill:#463cc1;fill-opacity:1;stroke-width:0.718379;-inkscape-stroke:none"
         d="m 592.82968,-705.9324 5.50323,18.63023 -245.48494,206.24837 -27.43974,-2.35266 z"
         id="rect1412-3-5-0" />
    </g>
  </g>
</svg>
