<svg xmlns="http://www.w3.org/2000/svg" version="1.1" width="512" height="512" x="0" y="0" viewBox="0 0 512 512"
     style="enable-background:new 0 0 512 512" xml:space="preserve" class=""><g><linearGradient id="GradientFill_1" gradientUnits="userSpaceOnUse" x1="66.376" x2="375.597" y1="-36.573" y2="631.593"><stop stop-opacity="1" stop-color="#00214a" offset="0"></stop><stop
        stop-opacity="1" stop-color="#214f89" offset="0.183"></stop><stop stop-opacity="1" stop-color="#2b61a6"
                                                                          offset="0.548"></stop><stop stop-opacity="1"
                                                                                                      stop-color="#3771bc"
                                                                                                      offset="0.833"></stop><stop
        stop-opacity="1" stop-color="#4486dc" offset="1"></stop></linearGradient><g fill-rule="evenodd"><path d="m450.313 379.782a5 5 0 0 0 0-7.064l-33.97-33.968a5 5 0 0 0 -7.08 0l-33.963 33.968a5 5 0 1 0 7.066 7.066l25.434-25.425v71.521a5 5 0 0 0 10 0v-71.522l25.427 25.427a5.024 5.024 0 0 0 7.082 0zm-437.313-111.707 118.9-100.55 166.1 116.427a5 5 0 1 0 5.737-8.188l-36.037-25.264 114.777-82.74 55.367 55.377v68.047l-3.663-.831a96.105 96.105 0 0 0 -116.861 82.135 95.572 95.572 0 0 0 8.745 53.217l2.074 4.3h-265.207a49.99 49.99 0 0 1 -49.932-49.934v-112zm199.571-129.775a39.676 39.676 0 1 0 39.671-39.671 39.715 39.715 0 0 0 -39.671 39.671zm200.062 159.587c51.6 0 91.978 45.058 85.728 96.58a86.181 86.181 0 1 1 -85.728-96.58z" fill="url(#GradientFill_1)" data-original="url(#GradientFill_1)"></path>
    <path d="m452.432 370.6a8 8 0 0 1 -11.323 11.309l-20.309-20.309v64.28a8 8 0 0 1 -16 0v-64.28l-20.31 20.306a8 8 0 0 1 -11.308-11.306l33.959-33.968a8.013 8.013 0 0 1 11.323 0zm42.951 23.509a83.18 83.18 0 0 0 -72.56-92.6 85.261 85.261 0 0 0 -10.19-.623 83.187 83.187 0 1 0 82.75 93.219zm-432.451 32.9h260.431a99.159 99.159 0 0 1 111.481-139.582v-63.048l-52.683-52.693-109.288 78.782 32.581 22.839a8 8 0 1 1 -9.181 13.1l-164.2-115.1-116.073 98.16v110.6a46.987 46.987 0 0 0 46.928 46.937zm0-382.23h324.98a46.981 46.981 0 0 1 46.932 46.931v110.038l-46.182-46.178a8.009 8.009 0 0 0 -10.342-.84l-119.32 86.02-122.79-86.081a8.009 8.009 0 0 0 -9.761.448l-110.449 93.403v-156.81a46.98 46.98 0 0 1 46.932-46.932zm427.941 278.14a98.523 98.523 0 0 0 -40.031-30.4v-200.809a63 63 0 0 0 -62.93-62.93h-324.98a63 63 0 0 0 -62.932 62.93v288.361a63.011 63.011 0 0 0 62.931 62.94h270.1c.552.75 1.123 1.5 1.7 2.236a99.177 99.177 0 1 0 156.142-122.328zm-238.631-221.292a36.672 36.672 0 1 1 -36.671 36.673 36.722 36.722 0 0 1 36.671-36.671zm0 89.341a52.67 52.67 0 1 1 52.669-52.67 52.731 52.731 0 0 1 -52.669 52.67z"
          fill="#1c1c1a" data-original="#002695" class=""></path></g></g></svg>