<svg xmlns="http://www.w3.org/2000/svg" height="512pt" version="1.1" viewBox="0 -71 512 512" width="512pt">
<g id="surface1">
<path d="M 194.207031 231.28125 L 256 169.488281 L 256 0 L 17.65625 0 C 7.902344 0 0 7.902344 0 17.65625 L 0 266.59375 L 114.757812 151.832031 Z M 194.207031 231.28125 " style=" stroke:none;fill-rule:nonzero;fill:rgb(73.72549%,74.509804%,75.294118%);fill-opacity:1;" />
<path d="M 494.34375 0 L 256 0 L 256 169.488281 L 335.449219 90.042969 L 510.234375 264.828125 L 512 264.828125 L 512 17.65625 C 512 7.902344 504.09375 0 494.34375 0 Z M 494.34375 0 " style=" stroke:none;fill-rule:nonzero;fill:rgb(81.960784%,82.745098%,83.137255%);fill-opacity:1;" />
<path d="M 194.207031 231.28125 L 114.757812 151.832031 L 0 266.59375 L 0 353.101562 C 0 362.851562 7.902344 370.757812 17.65625 370.757812 L 256 370.757812 L 256 169.488281 Z M 194.207031 231.28125 " style=" stroke:none;fill-rule:nonzero;fill:rgb(65.490196%,66.27451%,67.45098%);fill-opacity:1;" />
<path d="M 335.449219 90.042969 L 256 169.488281 L 256 370.757812 L 494.34375 370.757812 C 504.09375 370.757812 512 362.855469 512 353.101562 L 512 264.828125 L 510.234375 264.828125 Z M 335.449219 90.042969 " style=" stroke:none;fill-rule:nonzero;fill:rgb(73.72549%,74.509804%,75.294118%);fill-opacity:1;" />
</g>
</svg>