<svg id="Layer_1" enable-background="new 0 0 512.002 512.002" height="512" viewBox="0 0 512.002 512.002" width="512" xmlns="http://www.w3.org/2000/svg"><g><g><g><g><g><path d="m214.23 129.545c-1.919 0-3.839-.732-5.303-2.197-2.929-2.929-2.929-7.678 0-10.606l67.496-67.496c2.929-2.929 7.678-2.929 10.606 0 2.929 2.929 2.929 7.678 0 10.606l-67.496 67.496c-1.465 1.465-3.384 2.197-5.303 2.197z" fill="#7384b2"/></g><g><path d="m54.55 289.225c-1.919 0-3.839-.732-5.303-2.197-2.929-2.929-2.929-7.678 0-10.606l67.496-67.496c2.929-2.929 7.678-2.929 10.606 0 2.929 2.929 2.929 7.678 0 10.606l-67.496 67.496c-1.464 1.465-3.384 2.197-5.303 2.197z" fill="#7384b2"/></g></g><g><g><path d="m281.725 289.225c-1.919 0-3.839-.732-5.303-2.197l-67.496-67.496c-2.929-2.929-2.929-7.678 0-10.606 2.929-2.929 7.678-2.929 10.606 0l67.496 67.496c2.929 2.929 2.929 7.678 0 10.606-1.464 1.465-3.383 2.197-5.303 2.197z" fill="#7384b2"/></g><g><path d="m122.045 129.545c-1.919 0-3.839-.732-5.303-2.197l-67.495-67.495c-2.929-2.929-2.929-7.678 0-10.606 2.929-2.929 7.678-2.929 10.606 0l67.496 67.496c2.929 2.929 2.929 7.678 0 10.606-1.465 1.464-3.384 2.196-5.304 2.196z" fill="#7384b2"/></g></g></g><g><g><g><path d="m328.774 175.637h-95.453c-4.142 0-7.5-3.358-7.5-7.5s3.358-7.5 7.5-7.5h95.453c4.142 0 7.5 3.358 7.5 7.5s-3.357 7.5-7.5 7.5z" fill="#7384b2"/></g><g><path d="m102.953 175.637h-95.453c-4.142 0-7.5-3.358-7.5-7.5s3.358-7.5 7.5-7.5h95.453c4.142 0 7.5 3.358 7.5 7.5s-3.358 7.5-7.5 7.5z" fill="#7384b2"/></g></g><g><g><path d="m168.137 336.274c-4.142 0-7.5-3.358-7.5-7.5v-95.453c0-4.142 3.358-7.5 7.5-7.5s7.5 3.358 7.5 7.5v95.453c0 4.143-3.358 7.5-7.5 7.5z" fill="#7384b2"/></g><g><path d="m168.137 110.453c-4.142 0-7.5-3.358-7.5-7.5v-95.453c0-4.142 3.358-7.5 7.5-7.5s7.5 3.358 7.5 7.5v95.453c0 4.142-3.358 7.5-7.5 7.5z" fill="#7384b2"/></g></g></g><g><g><path d="m132.234 89.987c-2.943 0-5.735-1.743-6.932-4.632l-11.481-27.716c-1.585-3.827.232-8.214 4.059-9.799 3.828-1.583 8.213.232 9.799 4.059l11.481 27.716c1.585 3.827-.232 8.214-4.059 9.799-.938.389-1.911.573-2.867.573z" fill="#bdedff"/></g><g><path d="m81.822 141.327c-.957 0-1.928-.184-2.867-.573l-27.716-11.48c-3.827-1.585-5.644-5.973-4.059-9.799 1.585-3.827 5.974-5.645 9.799-4.059l27.716 11.48c3.827 1.585 5.644 5.973 4.059 9.799-1.196 2.888-3.989 4.632-6.932 4.632z" fill="#bdedff"/></g><g><path d="m54.772 224.752c-2.943 0-5.735-1.743-6.932-4.632-1.585-3.827.232-8.214 4.059-9.799l27.716-11.481c3.826-1.584 8.214.231 9.799 4.059 1.585 3.827-.232 8.214-4.059 9.799l-27.716 11.481c-.938.389-1.91.573-2.867.573z" fill="#bdedff"/></g><g><path d="m122.341 291.393c-.957 0-1.929-.184-2.867-.573-3.827-1.585-5.644-5.973-4.059-9.799l11.48-27.716c1.585-3.827 5.974-5.643 9.799-4.059 3.827 1.585 5.644 5.973 4.059 9.799l-11.48 27.716c-1.196 2.888-3.989 4.632-6.932 4.632z" fill="#bdedff"/></g><g><path d="m217.253 290.733c-2.943 0-5.735-1.743-6.932-4.632l-11.481-27.716c-1.585-3.827.232-8.214 4.059-9.799 3.826-1.584 8.213.232 9.799 4.059l11.481 27.716c1.585 3.827-.232 8.214-4.059 9.799-.938.389-1.911.573-2.867.573z" fill="#bdedff"/></g><g><path d="m283.888 223.158c-.957 0-1.929-.184-2.867-.573l-27.716-11.48c-3.827-1.585-5.644-5.973-4.059-9.799 1.584-3.827 5.971-5.644 9.799-4.059l27.716 11.48c3.827 1.585 5.644 5.973 4.059 9.799-1.196 2.888-3.989 4.632-6.932 4.632z" fill="#bdedff"/></g><g><path d="m255.518 139.733c-2.943 0-5.735-1.743-6.932-4.632-1.585-3.827.232-8.214 4.059-9.799l27.716-11.481c3.827-1.584 8.214.232 9.799 4.059s-.232 8.214-4.059 9.799l-27.716 11.481c-.939.389-1.911.573-2.867.573z" fill="#bdedff"/></g><g><path d="m204.172 89.327c-.957 0-1.929-.184-2.867-.573-3.827-1.585-5.644-5.973-4.059-9.799l11.48-27.716c1.585-3.828 5.973-5.644 9.799-4.059 3.827 1.585 5.644 5.973 4.059 9.799l-11.48 27.716c-1.196 2.888-3.989 4.632-6.932 4.632z" fill="#bdedff"/></g></g></g><g><g><g><g><path d="m504.497 439.586c-.955 0-1.925-.184-2.863-.571l-73.37-30.339c-3.828-1.583-5.647-5.969-4.064-9.797s5.969-5.646 9.797-4.064l73.37 30.339c3.828 1.583 5.647 5.969 4.064 9.797-1.195 2.89-3.99 4.635-6.934 4.635z" fill="#ffbbdb"/></g><g><path d="m330.92 367.81c-.955 0-1.925-.184-2.863-.571l-73.37-30.339c-3.828-1.583-5.647-5.969-4.064-9.797 1.582-3.827 5.968-5.647 9.797-4.064l73.37 30.339c3.828 1.583 5.647 5.969 4.064 9.797-1.195 2.889-3.99 4.635-6.934 4.635z" fill="#ffbbdb"/></g></g><g><g><path d="m329.966 512.002c-.955 0-1.926-.184-2.863-.571-3.828-1.583-5.647-5.969-4.064-9.797l30.339-73.37c1.583-3.828 5.97-5.646 9.797-4.064 3.828 1.583 5.647 5.969 4.064 9.797l-30.339 73.37c-1.196 2.889-3.989 4.635-6.934 4.635z" fill="#ffbbdb"/></g><g><path d="m401.742 338.425c-.955 0-1.925-.184-2.863-.571-3.828-1.583-5.647-5.969-4.064-9.797l30.339-73.37c1.582-3.828 5.967-5.648 9.797-4.064 3.828 1.583 5.647 5.969 4.064 9.797l-30.339 73.37c-1.195 2.889-3.989 4.635-6.934 4.635z" fill="#ffbbdb"/></g></g></g><g><g><g><path d="m432.235 511.941c-2.941 0-5.733-1.742-6.93-4.628l-30.427-73.333c-1.587-3.826.227-8.214 4.053-9.801 3.827-1.588 8.214.228 9.801 4.053l30.427 73.333c1.587 3.826-.227 8.214-4.053 9.801-.939.39-1.914.575-2.871.575z" fill="#ffbbdb"/></g><g><path d="m360.251 338.45c-2.941 0-5.733-1.741-6.93-4.627l-30.427-73.333c-1.587-3.826.227-8.214 4.053-9.802 3.828-1.588 8.215.228 9.802 4.053l30.427 73.333c1.587 3.826-.227 8.214-4.053 9.802-.94.389-1.915.574-2.872.574z" fill="#ffbbdb"/></g></g><g><g><path d="m257.617 439.734c-2.941 0-5.733-1.742-6.93-4.628-1.587-3.826.227-8.214 4.053-9.801l73.333-30.427c3.826-1.588 8.215.228 9.801 4.053 1.587 3.826-.227 8.214-4.053 9.801l-73.333 30.427c-.939.39-1.913.575-2.871.575z" fill="#ffbbdb"/></g><g><path d="m431.108 367.75c-2.941 0-5.733-1.741-6.93-4.627-1.587-3.826.227-8.214 4.053-9.802l73.333-30.427c3.828-1.588 8.215.228 9.802 4.053 1.587 3.826-.227 8.214-4.053 9.802l-73.333 30.427c-.94.389-1.914.574-2.872.574z" fill="#ffbbdb"/></g></g></g></g><g fill="#ffdb63"><path d="m168.137 140.025 9.134 18.508 20.425 2.968-14.779 14.406 3.489 20.342-18.269-9.604-18.268 9.604 3.489-20.342-14.779-14.406 20.424-2.968z"/><path d="m381.027 358.987 7.161 14.51 16.013 2.327-11.587 11.294 2.735 15.948-14.322-7.529-14.323 7.529 2.736-15.948-11.587-11.294 16.012-2.327z"/><path d="m381.027 45.927 7.161 14.51 16.013 2.327-11.587 11.295 2.735 15.948-14.322-7.53-14.323 7.53 2.736-15.948-11.587-11.295 16.012-2.327z"/><path d="m481.326 182.135 7.161 14.511 16.013 2.326-11.587 11.295 2.735 15.948-14.322-7.53-14.322 7.53 2.735-15.948-11.587-11.295 16.013-2.326z"/><path d="m126.491 433.19 7.161 14.51 16.013 2.327-11.588 11.294 2.736 15.949-14.322-7.53-14.323 7.53 2.735-15.949-11.587-11.294 16.013-2.327z"/><path d="m67.967 338.793 9.134 18.508 20.425 2.967-14.78 14.407 3.489 20.342-18.268-9.604-18.268 9.604 3.489-20.342-14.78-14.407 20.425-2.967z"/></g><g><g><path d="m379.955 309.873c-4.127 0-7.481-3.336-7.5-7.467l-.112-25.103c-.019-4.142 3.325-7.515 7.467-7.533h.034c4.127 0 7.481 3.336 7.5 7.467l.112 25.103c.019 4.142-3.325 7.515-7.467 7.533-.011 0-.023 0-.034 0z" fill="#f54c5a"/></g><g><path d="m324.653 333.667c-1.909 0-3.817-.724-5.28-2.173l-17.83-17.671c-2.942-2.916-2.963-7.665-.047-10.606s7.664-2.962 10.606-.047l17.83 17.671c2.942 2.916 2.963 7.665.047 10.606-1.466 1.479-3.396 2.22-5.326 2.22z" fill="#f54c5a"/></g><g><path d="m277.27 389.709c-4.127 0-7.481-3.335-7.5-7.467-.019-4.142 3.325-7.515 7.467-7.533l25.103-.112h.034c4.127 0 7.481 3.336 7.5 7.467.019 4.142-3.325 7.515-7.467 7.533l-25.103.112c-.012 0-.024 0-.034 0z" fill="#f54c5a"/></g><g><path d="m308.496 462.73c-1.909 0-3.817-.724-5.28-2.173-2.942-2.916-2.963-7.665-.047-10.606l17.671-17.83c2.917-2.941 7.664-2.963 10.606-.047s2.963 7.665.047 10.606l-17.671 17.83c-1.466 1.479-3.396 2.22-5.326 2.22z" fill="#f54c5a"/></g><g><path d="m382.209 492.283c-4.127 0-7.481-3.336-7.5-7.467l-.112-25.103c-.019-4.142 3.325-7.515 7.467-7.533h.034c4.127 0 7.481 3.336 7.5 7.467l.112 25.103c.019 4.142-3.325 7.515-7.467 7.533-.012 0-.023 0-.034 0z" fill="#f54c5a"/></g><g><path d="m455.23 461.057c-1.909 0-3.817-.724-5.28-2.173l-17.83-17.671c-2.942-2.916-2.963-7.665-.047-10.606 2.917-2.941 7.664-2.962 10.606-.047l17.83 17.671c2.942 2.916 2.963 7.665.047 10.606-1.466 1.479-3.396 2.22-5.326 2.22z" fill="#f54c5a"/></g><g><path d="m459.68 387.456c-4.127 0-7.481-3.335-7.5-7.467-.019-4.142 3.325-7.515 7.467-7.533l25.103-.112c4.157-.024 7.515 3.325 7.533 7.467s-3.325 7.515-7.467 7.533l-25.103.112c-.01 0-.023 0-.033 0z" fill="#f54c5a"/></g><g><path d="m435.886 332.153c-1.909 0-3.817-.724-5.28-2.173-2.942-2.916-2.963-7.665-.047-10.606l17.671-17.83c2.916-2.942 7.664-2.963 10.606-.047s2.963 7.665.047 10.606l-17.671 17.83c-1.466 1.479-3.396 2.22-5.326 2.22z" fill="#f54c5a"/></g></g><g fill="#fff3a7"><path d="m487.404 80.797h-7.673v-7.673c0-4.142-3.358-7.5-7.5-7.5s-7.5 3.358-7.5 7.5v7.673h-7.673c-4.142 0-7.5 3.358-7.5 7.5s3.358 7.5 7.5 7.5h7.673v7.673c0 4.142 3.358 7.5 7.5 7.5s7.5-3.358 7.5-7.5v-7.673h7.673c4.142 0 7.5-3.358 7.5-7.5s-3.358-7.5-7.5-7.5z"/><path d="m412.936 163.417h-7.673v-7.673c0-4.142-3.358-7.5-7.5-7.5s-7.5 3.358-7.5 7.5v7.673h-7.673c-4.142 0-7.5 3.358-7.5 7.5s3.358 7.5 7.5 7.5h7.673v7.673c0 4.142 3.358 7.5 7.5 7.5s7.5-3.358 7.5-7.5v-7.673h7.673c4.142 0 7.5-3.358 7.5-7.5s-3.358-7.5-7.5-7.5z"/><path d="m212.869 387.517h-7.673v-7.673c0-4.142-3.358-7.5-7.5-7.5s-7.5 3.358-7.5 7.5v7.673h-7.673c-4.142 0-7.5 3.358-7.5 7.5s3.358 7.5 7.5 7.5h7.673v7.673c0 4.142 3.358 7.5 7.5 7.5s7.5-3.358 7.5-7.5v-7.673h7.673c4.142 0 7.5-3.358 7.5-7.5s-3.358-7.5-7.5-7.5z"/></g></g></svg>