<?xml version="1.0" encoding="UTF-8" standalone="no"?>
<!-- Created with Inkscape (http://www.inkscape.org/) -->

<svg
   width="200mm"
   height="200mm"
   viewBox="0 0 200 200"
   version="1.1"
   id="svg5"
   inkscape:version="1.1.1 (3bf5ae0d25, 2021-09-20)"
   sodipodi:docname="logo-gorilla-trace.svg"
   xmlns:inkscape="http://www.inkscape.org/namespaces/inkscape"
   xmlns:sodipodi="http://sodipodi.sourceforge.net/DTD/sodipodi-0.dtd"
   xmlns="http://www.w3.org/2000/svg"
   xmlns:svg="http://www.w3.org/2000/svg">
  <sodipodi:namedview
     id="namedview7"
     pagecolor="#ffffff"
     bordercolor="#666666"
     borderopacity="1.0"
     inkscape:pageshadow="2"
     inkscape:pageopacity="0.0"
     inkscape:pagecheckerboard="0"
     inkscape:document-units="mm"
     showgrid="false"
     inkscape:zoom="0.74742565"
     inkscape:cx="562.59777"
     inkscape:cy="454.22578"
     inkscape:window-width="1920"
     inkscape:window-height="1026"
     inkscape:window-x="1920"
     inkscape:window-y="32"
     inkscape:window-maximized="1"
     inkscape:current-layer="layer2" />
  <defs
     id="defs2" />
  <g
     inkscape:label="Main"
     inkscape:groupmode="layer"
     id="layer1"
     style="display:none">
    <path
       style="fill:#208562;stroke:none;stroke-width:0.390625"
       d="M 0.21842906,-0.08972963 V 199.91027 H 200.21842 V -0.08972963 H 0.21842906 M 150.60906,104.20715 h -0.39064 c -0.11442,-5.552743 -2.2125,-10.228115 -4.29686,-15.234369 l -1.56252,0.78124 c -0.51211,-2.2125 -1.53164,-6.837107 -4.29687,-6.640615 h -0.39063 c -3.95507,-4.121103 -9.21952,-9.149618 -15.23437,-9.765637 0.65352,-3.8453 1.96563,-6.886713 -0.3789,-10.546876 -1.09688,-1.712496 -3.15937,-2.881639 -3.95977,-4.753893 -2.72304,-6.367973 -3.02149,-11.247669 -9.3332,-15.558604 l 3.12499,-1.953116 -7.81249,-1.171875 0.78124,-1.95313 -10.546874,2.73437 1.56251,-3.515625 c -6.374614,3.353903 -12.310156,6.857038 -15.498823,13.671881 -1.169527,2.499996 -1.194921,5.339056 -2.280074,7.812491 -0.748051,1.705084 -2.394538,2.804307 -3.456256,4.29688 -2.396088,3.36914 -1.813273,6.877355 -0.639848,10.546877 -6.228115,2.478131 -10.860546,5.391792 -15.624996,10.156257 l -1.171875,-0.781256 -3.12499,7.421871 -1.562511,-0.78124 -4.296865,15.234369 C 46.657104,99.79895 46.007882,92.450508 45.464913,87.019651 43.712571,69.493877 50.877419,51.359878 64.280939,39.871205 c 32.422247,-27.789688 84.812881,-8.058898 90.624981,34.25782 1.33047,9.687107 0.73164,21.46094 -4.29686,30.078125 M 97.874676,36.2384 l 0.39062,0.39062 -0.39062,-0.39062 M 84.593432,61.238398 v 0.781255 c -4.735941,2.7375 -5.52657,6.237107 -3.125006,10.937496 -6.249607,-0.283981 -2.89844,-14.213284 3.125006,-11.718751 m 28.124978,2.34375 -5.07811,-0.727736 -7.42186,1.904306 -6.640642,-1.770324 -5.859376,0.203134 c 3.567964,-4.302742 8.314454,-0.68126 12.890628,-0.928125 2.70469,-0.145719 5.50312,-1.521098 8.20312,-1.297663 1.73321,0.1438 3.13359,1.128913 3.90624,2.616408 m 6.25002,9.375001 c 1.71641,-5.960552 1.16836,-6.810148 -3.125,-11.328131 5.86328,-2.631246 9.22383,10.296497 3.125,11.328131 M 95.937166,70.815752 c 1.8,-0.545714 7.382034,-0.625793 8.951964,0.423823 7.29882,4.881246 8.18164,20.485942 -1.15508,23.504692 -6.004284,1.94139 -13.562891,-1.989846 -14.601951,-8.505871 -0.416796,-2.614444 1.103903,-5.817181 2.028115,-8.203126 0.898051,-2.317958 2.114853,-6.412501 4.776952,-7.219518 m -1.187493,4.875768 4.061323,5.485556 1.798054,3.108205 5.07812,-8.593761 c -2.6246,0.0074 -4.00703,0.453912 -5.46873,2.734385 -1.746114,-1.97501 -2.808994,-2.72501 -5.468767,-2.734385 m -1.95313,12.890626 c 0.27657,0.908209 0.513293,1.574616 1.585557,1.717589 1.373836,0.183204 2.898446,-0.416014 4.273826,-0.510546 2.831644,-0.195325 6.938274,1.442185 8.984374,-0.816408 -4.76641,-2.709375 -9.866414,-2.245703 -14.843757,-0.390635 m 58.593747,22.656264 v 27.34373 c 0,4.11211 0.78829,8.90156 -1.60469,12.49844 -3.991,5.99961 -16.13632,8.45781 -22.61405,10.9629 -8.14179,3.14843 -17.70665,9.43906 -26.5625,9.72499 -4.038274,0.13006 -7.687886,-1.71406 -11.328117,-3.18672 -6.269145,-2.53554 -12.469146,-5.22188 -18.749998,-7.73398 -5.914459,-2.36523 -15.807817,-4.35391 -19.609372,-9.76602 -2.60938,-3.71445 -1.875,-8.60352 -1.875,-12.89023 v -26.95311 c 4.29375,0.64296 8.519912,3.1664 12.499991,4.83828 7.96289,3.34491 15.887891,6.7746 23.828118,10.17226 4.488279,1.92071 9.063279,4.39415 14.062504,4.51483 5.871474,0.14219 11.130464,-2.65663 16.406254,-4.90779 7.52968,-3.2129 15.13398,-6.25275 22.65623,-9.48127 4.125,-1.77069 8.44064,-4.36991 12.89063,-5.13631 m -66.015618,33.59372 h -7.42187 c 0.0015,2.70314 0.186334,3.8715 3.125004,3.90627 -0.205083,6.2918 -9.055463,1.31601 -7.250384,-3.90587 1.915615,-5.54258 8.107806,-1.23633 10.375376,-6.64101 -8.658186,-4.85078 -18.756243,2.85547 -14.851548,12.49999 1.934764,4.77891 6.394135,5.49025 10.945302,5.46836 1.356644,-0.006 3.731649,0.14922 4.67656,-1.06524 1.491408,-1.916 0.40156,-7.87422 0.40156,-10.2625 m 20.312498,0 v 3.51564 c 1.3371,0.35313 4.03516,2.20664 1.50429,3.27852 -3.84843,1.62968 -7.12421,-4.12345 -5.37539,-7.18321 2.30001,-4.02422 5.23906,-1.69806 8.41056,-2.98711 1.05273,-0.42773 2.266,-2.3836 1.43281,-3.42501 -1.05899,-1.32304 -4.09336,-1.04373 -5.58164,-1.00547 -6.855084,0.17617 -10.365234,6.11563 -9.246474,12.49415 0.94882,5.41132 5.616004,6.75235 10.418354,6.63477 1.38163,-0.0337 3.78944,-0.0261 4.84258,-1.06523 1.16796,-1.15235 1.32225,-8.80821 0,-9.85549 -1.33165,-1.05467 -4.77736,-0.40156 -6.40509,-0.40156 m 16.01563,-7.60468 c -11.03595,2.62929 -6.72267,21.45391 5.07812,18.72618 11.2957,-2.61134 6.76289,-21.54688 -5.07812,-18.72618 m -33.203123,0.18281 v 18.75001 l 5.078121,-0.39063 -0.39062,-18.35938 h -4.687501 m 34.767183,4.46797 c 5.53125,-1.45624 6.9082,8.16992 1.9457,9.63594 -5.2664,1.55546 -6.93867,-8.32188 -1.9457,-9.63594 z"
       id="path916" />
  </g>
  <g
     inkscape:groupmode="layer"
     id="layer2"
     inkscape:label="Trace"
     style="display:inline">
    <path
       style="display:inline;fill:#000000;stroke-width:0.532537"
       d="m 93.744846,198.86639 c -2.351081,-0.70406 -8.837446,-3.24068 -13.047165,-5.10236 -4.395913,-1.944 -15.409855,-6.48943 -22.723009,-9.37773 -4.164456,-1.64473 -8.30414,-3.31076 -9.199294,-3.7023 -0.895148,-0.39154 -3.305039,-1.35314 -5.355306,-2.1369 -8.009531,-3.0618 -10.95983,-5.32378 -13.105523,-10.04792 -0.911077,-2.00589 -0.984183,-4.01364 -0.99502,-27.32734 l -0.01167,-25.16238 h 1.214376 c 1.000871,0 5.592632,1.71357 11.30025,4.21707 0.58579,0.25694 2.00088,0.87994 3.144647,1.38443 1.143768,0.5045 5.337499,2.29963 9.319402,3.98918 3.981906,1.68956 13.350694,5.6989 20.81953,8.90966 17.806216,7.65464 18.337559,7.82464 24.496723,7.83722 4.927573,0.0101 7.390013,-0.52599 11.982083,-2.60843 0.8787,-0.39848 5.43188,-2.31775 10.11822,-4.26503 12.17195,-5.05778 17.34439,-7.22715 19.17134,-8.04064 11.58498,-5.15857 28.26872,-11.95079 28.82778,-11.73626 0.5913,0.2269 0.69282,4.723 0.5749,25.45656 -0.12882,22.64775 -0.23714,25.39242 -1.07662,27.28248 -2.31694,5.21666 -4.63228,6.91797 -14.85266,10.91366 -3.60273,1.40851 -13.73969,5.48451 -22.52654,9.05779 -26.44367,10.7536 -26.60125,10.80881 -31.41971,11.00415 -2.542469,0.10305 -5.226558,-0.11674 -6.65671,-0.54491 z m 10.139464,-1.07815 c 1.59924,-0.42046 6.14288,-2.07324 10.09696,-3.67282 3.95409,-1.59961 12.94065,-5.23864 19.97014,-8.08679 7.02949,-2.84813 15.75264,-6.36122 19.38479,-7.80685 8.66807,-3.45002 10.22601,-4.28005 12.15304,-6.47482 3.37195,-3.84043 3.38459,-3.96031 3.2232,-30.53476 l -0.14612,-24.05696 -5.59165,2.37539 c -3.07539,1.30647 -6.43038,2.76626 -7.45551,3.24398 -1.02515,0.47772 -4.02067,1.76091 -6.65671,2.85154 -12.38133,5.12257 -18.23603,7.56923 -19.7039,8.23417 -5.32138,2.41058 -19.9676,8.3596 -22.24881,9.03704 -3.49112,1.03675 -10.471788,1.02918 -14.517495,-0.0161 -3.130917,-0.80866 -12.947782,-4.82939 -26.747661,-10.95512 -3.885764,-1.72489 -7.183449,-3.13616 -7.328191,-3.13616 -0.144736,0 -1.279037,-0.46504 -2.520654,-1.03343 -1.241611,-0.56837 -7.409778,-3.19165 -13.707031,-5.82949 l -11.44955,-4.79608 -0.138598,23.63495 c -0.133082,22.69593 -0.09528,23.7507 0.951614,26.54878 1.4688,3.92572 4.484389,6.61949 9.850847,8.79957 2.335947,0.94895 4.726459,1.93072 5.312251,2.18173 0.58579,0.25099 4.060595,1.66246 7.72179,3.13661 3.661193,1.47413 13.726149,5.60792 22.366565,9.18618 19.967279,8.26904 21.479732,8.66797 27.180663,7.1691 z m 0.66072,-19.47335 c -6.750452,-0.9977 -10.445157,-5.61228 -10.445157,-13.04573 0,-6.6349 3.054352,-11.3222 8.668507,-13.303 4.25717,-1.502 12.98447,-0.76572 13.72256,1.15773 0.17631,0.45957 -0.2467,1.87412 -0.94009,3.14345 l -1.26074,2.30789 -4.03748,-0.11453 c -4.38849,-0.12438 -6.11874,0.56075 -7.76676,3.07591 -2.6797,4.08975 0.96988,10.22305 5.80454,9.75481 1.4111,-0.13667 1.69682,-0.38854 1.69682,-1.49571 0,-1.01951 -0.31181,-1.37134 -1.33132,-1.50215 -1.71683,-0.22025 -2.66479,-1.47926 -2.65454,-3.52559 0.0141,-2.8279 0.40588,-3.0172 5.89426,-2.84833 l 5.0146,0.15437 0.14794,7.2957 c 0.17913,8.83162 0.95047,7.98838 -8.4023,9.18562 -0.73226,0.0938 -2.58215,-0.0141 -4.11088,-0.24036 z m 8.29138,-1.62883 c 1.74269,-0.37375 2.69856,-0.86979 2.82204,-1.46447 0.10265,-0.49463 0.1113,-3.47546 0.0201,-6.62409 l -0.16746,-5.72477 h -3.95976 -3.95977 v 1.86388 c 0,1.60751 0.17411,1.86387 1.26614,1.86387 1.77342,0 2.55845,1.18195 2.36285,3.55748 l -0.16746,2.03418 -3.26365,0.15679 c -3.03598,0.14592 -3.37873,0.0419 -4.91298,-1.49243 -3.129391,-3.12938 -3.493958,-7.97125 -0.83788,-11.12783 1.71872,-2.04259 4.37706,-2.88846 8.20698,-2.61143 3.03036,0.21919 3.08724,0.19705 4.0416,-1.57511 1.1942,-2.21747 0.79759,-2.5551 -3.60111,-3.06562 -6.01103,-0.69765 -11.474611,1.77171 -13.854655,6.26187 -0.956675,1.80485 -1.205349,3.14402 -1.212675,6.53072 -0.0081,3.71246 0.18175,4.58518 1.475982,6.78687 2.661264,4.52732 8.379498,6.2091 15.742488,4.63003 z m 16.68655,1.58543 c -5.99333,-1.15819 -9.68737,-6.30241 -9.68081,-13.4812 0.004,-4.01824 0.66672,-6.5001 2.34387,-8.77335 5.58656,-7.57214 17.60181,-6.61557 21.35889,1.70048 5.22561,11.56649 -2.43346,22.79351 -14.02195,20.55407 z m 7.66135,-2.02825 c 2.56826,-1.16647 5.36959,-4.37487 6.09447,-6.98006 1.36816,-4.917 -0.10224,-11.30554 -3.27311,-14.21995 -6.04422,-5.55553 -15.81716,-2.67385 -18.36719,5.41576 -1.87616,5.95187 0.71066,13.10469 5.63959,15.59404 2.93315,1.4814 6.89591,1.55748 9.90624,0.19021 z m -7.1756,-4.45836 c -4.01783,-2.06485 -5.04328,-8.8253 -1.90445,-12.55559 3.75485,-4.46236 10.36677,-1.00279 10.37173,5.42685 0.004,5.83773 -4.15885,9.34293 -8.46728,7.12874 z m 5.14028,-1.74239 c 2.73227,-1.91375 2.60191,-8.11895 -0.21716,-10.33642 -3.85562,-3.03284 -8.26932,1.23216 -7.0503,6.81276 0.82251,3.76545 4.42708,5.51313 7.26746,3.52366 z m -72.20164,6.88743 c -4.637599,-2.31102 -6.946479,-6.34019 -6.98928,-12.19681 -0.04384,-5.99779 1.959114,-9.77665 6.522327,-12.30538 2.492951,-1.38149 3.258834,-1.53508 7.566539,-1.51743 3.504532,0.0141 5.258055,0.26856 6.523581,0.94563 2.021257,1.08138 2.067624,1.34577 0.704595,4.01752 -1.495513,2.93145 -2.060157,3.24979 -4.831758,2.72408 -5.085593,-0.96465 -8.520596,1.33521 -8.520596,5.70481 0,4.41033 2.191789,6.68984 6.517478,6.7783 2.07803,0.0425 2.269386,-0.0658 2.269386,-1.28493 0,-1.11578 -0.301773,-1.37444 -1.86388,-1.59761 -1.859998,-0.26571 -1.864211,-0.27263 -2.023588,-3.32835 l -0.159711,-3.0621 h 5.618222 5.618214 v 7.69677 7.69676 l -1.997014,0.55459 c -1.098358,0.30503 -4.286472,0.55594 -7.084696,0.55757 -4.416795,0.002 -5.45454,-0.17974 -7.869815,-1.38342 z m 13.589952,-0.29192 2.435437,-0.61327 -0.331951,-3.5139 c -0.182575,-1.93265 -0.333656,-4.90194 -0.335739,-6.5984 l -0.0038,-3.0845 -4.127162,0.15558 -4.127165,0.15559 -0.163012,1.67888 c -0.154196,1.58813 -0.04474,1.69888 2.024094,2.04841 l 2.187105,0.36952 -0.160214,2.47816 -0.160275,2.47817 h -3.585949 c -3.421318,0 -3.675839,-0.09 -5.544666,-1.95892 -1.668307,-1.66846 -1.990309,-2.37912 -2.171619,-4.79284 -0.425229,-5.66099 2.802866,-8.68219 8.815676,-8.2507 3.311329,0.23762 3.389552,0.21214 4.391447,-1.43094 0.561033,-0.92008 1.020958,-1.83402 1.022051,-2.03097 0.0038,-0.69002 -3.921366,-1.64412 -6.662616,-1.61949 -6.434324,0.0578 -10.69416,2.97012 -12.269181,8.38801 -1.511883,5.2007 0.489172,11.91775 4.292847,14.41001 3.478123,2.27896 9.459381,2.99453 14.474592,1.7317 z m 6.556797,-11.61178 v -13.33677 h 3.717624 c 3.418518,0 3.739811,0.0964 3.993577,1.19821 0.151761,0.65903 0.216269,6.59014 0.143307,13.18029 l -0.132639,11.9821 -3.860877,0.15639 -3.860911,0.15639 z m 5.192238,11.88937 c 1.197338,-0.32087 1.198224,-0.3298 1.198224,-12.2411 v -11.91996 h -2.662693 -2.662694 v 12.24834 12.24837 l 1.46449,-0.008 c 0.805458,-0.004 2.003662,-0.15176 2.662673,-0.32838 z M 30.371083,107.39477 c -0.0011,-0.0947 -0.740414,-1.96949 -1.643138,-4.16621 C 24.340072,92.55095 22.823566,77.040227 24.953086,64.619616 27.734074,48.399259 34.449327,34.809371 45.097755,23.852144 60.83394,7.6596205 83.348507,-0.94414019 105.06423,0.93644481 c 11.05842,0.95765939 21.32608,3.92268829 30.62234,8.84292839 7.82211,4.1400138 11.83551,7.1095038 17.96873,13.2949058 7.82314,7.889725 13.30777,16.57601 17.29004,27.383131 5.685,15.427971 6.03085,36.06377 0.8438,50.34753 -1.73776,4.78538 -2.60278,6.38622 -3.54929,6.5685 -0.6795,0.13087 -0.98002,-0.67245 -1.4918,-3.98752 -0.81437,-5.275212 -1.90204,-9.203377 -3.61484,-13.055108 -1.1914,-2.67921 -1.47608,-2.980712 -2.36509,-2.50492 -1.32486,0.709039 -2.05372,0.20673 -2.05372,-1.415369 0,-0.721384 -0.70729,-2.871505 -1.57177,-4.77804 -1.4263,-3.145656 -1.69182,-3.4363 -2.86946,-3.140735 -1.06947,0.268419 -1.61256,-0.06757 -3.08794,-1.910381 -0.98463,-1.229849 -3.22809,-3.264326 -4.98546,-4.521066 -3.78117,-2.704013 -11.48157,-6.641879 -12.988,-6.641879 -1.56614,0 -1.7508,-0.71382 -0.77763,-3.005519 1.13294,-2.667826 1.1021,-7.318293 -0.0674,-10.173853 -0.53255,-1.300296 -2.14768,-3.378359 -3.79808,-4.886744 -2.20681,-2.016888 -2.87152,-2.980919 -2.87152,-4.164573 0,-5.888245 -5.46297,-15.733033 -10.43593,-18.806486 -2.15481,-1.331753 -2.28643,-2.197223 -0.48108,-3.16342 0.73225,-0.391885 1.33135,-0.878281 1.33135,-1.080886 0,-0.396278 -4.49161,-1.037064 -7.32239,-1.044636 -1.37418,-0.0038 -1.73073,-0.224054 -1.73073,-1.069703 0,-0.585791 -0.29956,-1.059216 -0.66568,-1.052057 -1.21338,0.02373 -5.40849,1.053633 -9.046842,2.221004 -1.973572,0.633224 -3.743454,0.996201 -3.933034,0.806611 -0.1896,-0.18958 0.0473,-0.942855 0.526231,-1.673935 0.479032,-0.731073 0.870952,-1.460926 0.870952,-1.621895 0,-0.603124 -6.252051,2.89318 -9.385343,5.248524 -6.642908,4.993554 -10.728135,11.888399 -11.917396,20.113581 -0.383805,2.654508 -0.725806,3.274928 -2.920312,5.29775 -2.8729,2.648149 -3.784584,4.211774 -4.557774,7.817041 -0.399388,1.862283 -0.385435,3.260565 0.04941,4.952581 1.195398,4.651249 1.22629,4.594395 -3.546703,6.527149 -5.648362,2.287226 -9.258651,4.614915 -13.620137,8.781417 -1.958836,1.871268 -3.87597,3.295565 -4.260297,3.165103 -1.170247,-0.397234 -3.526307,3.756812 -4.407396,7.770827 -0.263276,1.199407 -0.560352,1.461005 -1.407545,1.239459 -0.79382,-0.207588 -1.346084,0.159751 -2.117879,1.408684 -1.517969,2.456429 -3.205937,8.338324 -3.903544,13.602304 -0.479449,3.61782 -0.801656,4.62429 -1.524997,4.76359 -0.504414,0.0971 -0.917934,0.0991 -0.91894,0.004 z m 2.705715,-12.953068 c 1.338383,-4.46042 4.077947,-9.487519 4.981385,-9.140832 0.385174,0.147795 1.227041,-1.071102 2.09113,-3.027672 1.776965,-4.023595 3.196763,-5.796087 4.469986,-5.580388 0.597735,0.101261 1.759822,-0.710803 3.031542,-2.118445 2.766174,-3.061827 9.015484,-7.092235 13.894791,-8.961253 3.953717,-1.514478 3.980828,-1.538133 3.579909,-3.123647 -0.222186,-0.878685 -0.403051,-3.394924 -0.401922,-5.591641 0.0016,-3.391255 0.2222,-4.369036 1.460727,-6.47887 0.802268,-1.366666 2.418925,-3.30679 3.592567,-4.311384 1.321768,-1.131381 2.133903,-2.284538 2.133903,-3.02993 0,-2.09025 1.626172,-7.626978 3.213964,-10.942799 2.985559,-6.234793 8.014936,-11.037932 16.425717,-15.686839 5.546647,-3.065805 6.854666,-3.022861 4.974767,0.163334 l -1.092575,1.851758 1.713244,-0.715836 c 2.405686,-1.005158 11.404487,-2.67033 11.877037,-2.197773 0.21528,0.215277 0.11936,0.827161 -0.21331,1.359744 -0.56155,0.899166 -0.29382,0.988829 3.7479,1.255223 2.39397,0.157799 4.77205,0.455704 5.28461,0.662034 1.41914,0.571264 1.11584,1.736355 -0.6959,2.673243 l -1.62785,0.841792 3.15312,3.037785 c 4.17883,4.025998 7.23318,10.187167 8.35969,16.862963 0.26377,1.563119 0.90535,2.588185 2.44445,3.905608 4.54632,3.891468 6.46778,10.56351 4.59116,15.94219 -0.75188,2.154998 -0.74035,2.263284 0.24084,2.263284 1.26052,0 8.75421,3.691893 11.79856,5.812767 1.22302,0.852027 3.37728,2.732261 4.78722,4.178292 1.94441,1.994176 2.85918,2.572629 3.78774,2.395124 1.39003,-0.26572 2.92811,1.803736 4.57316,6.15318 0.66247,1.751499 1.28212,2.547073 2.07771,2.667582 2.15436,0.326311 5.61864,9.165844 6.69957,17.094684 l 0.39371,2.88789 0.77702,-1.82282 c 1.13069,-2.65252 3.16499,-9.31804 3.96942,-13.006105 1.10656,-5.073295 0.95364,-22.867586 -0.24485,-28.490743 C 166.46095,31.885575 145.04855,10.40142 114.45016,3.550472 109.75408,2.499019 107.43955,2.312756 99.070232,2.312756 c -9.449288,0 -10.134908,0.073063 -16.774939,1.7875763 C 59.518711,9.9814402 40.096156,26.009672 32.02322,45.586749 23.617913,65.969826 22.956918,83.91916 29.924661,102.57314 l 1.247053,3.3386 0.393274,-3.87114 c 0.216301,-2.129122 0.896617,-5.548629 1.51181,-7.598898 z m 59.741966,-0.563008 c -1.503033,-0.749003 -3.57865,-2.298069 -4.612454,-3.442374 -2.279387,-2.522997 -4.579674,-6.918699 -4.579674,-8.751441 0,-1.867736 2.972623,-10.959771 4.907872,-15.011194 2.680385,-5.611322 3.184717,-5.917808 10.162502,-6.175765 6.93363,-0.256326 7.61106,0.0157 10.36925,4.164553 2.30604,3.468651 5.44905,13.202478 5.44255,16.855354 -0.008,4.61468 -4.14389,10.607934 -8.78186,12.726342 -3.35387,1.53188 -9.446858,1.359364 -12.908186,-0.365475 z m 13.662756,-1.70599 c 2.85946,-1.773348 6.44075,-6.829694 6.78974,-9.586271 0.487,-3.846826 -3.88855,-16.144092 -6.90084,-19.394401 -1.2014,-1.296329 -1.43389,-1.335018 -7.221087,-1.201628 -3.64801,0.08409 -6.277936,0.385311 -6.744468,0.772504 -1.872351,1.553911 -7.180609,15.302661 -7.180609,18.598262 0,4.504573 5.727914,11.02282 10.8415,12.337398 3.014359,0.774917 7.847534,0.06688 10.415764,-1.525864 z M 89.617683,88.240977 c -1.024001,-1.029128 -0.792516,-2.479526 0.532551,-3.33673 0.659011,-0.426332 3.184416,-1.174345 5.612041,-1.662257 4.14737,-0.833554 4.640755,-0.831497 8.172915,0.03408 2.16331,0.530145 4.35883,1.457346 5.17183,2.184142 l 1.41276,1.262928 -1.25397,1.060826 c -1.02509,0.867209 -1.65687,0.988404 -3.46149,0.664047 -2.90664,-0.522441 -9.520262,-0.505682 -12.85827,0.03259 -1.918604,0.309385 -2.848711,0.242413 -3.328367,-0.23964 z m 18.815857,-1.653731 c 0.55614,-0.55615 -6.42479,-2.529142 -8.801049,-2.487406 -2.845208,0.05 -8.654679,1.585081 -8.907741,2.353804 -0.181347,0.55076 17.16078,0.6816 17.70879,0.133606 z M 98.360178,79.974439 c -0.195236,-0.195256 -0.355027,-1.143615 -0.355027,-2.107443 0,-1.392436 -0.401058,-2.057926 -1.952357,-3.239605 -3.570379,-2.719706 -4.438091,-3.778353 -4.438091,-5.41469 0,-1.300429 0.265923,-1.637915 1.505107,-1.910077 2.011612,-0.441827 3.960085,0.366065 5.10791,2.117872 l 0.941237,1.436525 1.706743,-1.654224 c 1.41774,-1.374124 2.13075,-1.654227 4.21092,-1.654227 2.2476,0 2.50223,0.122777 2.48504,1.198208 -0.0223,1.403779 -1.57959,3.316846 -4.37426,5.374031 -1.24796,0.918628 -1.99976,1.909296 -2.00429,2.64113 -0.0141,2.1408 -0.63866,3.567527 -1.563698,3.567527 -0.502823,0 -1.073978,-0.159751 -1.269234,-0.355027 z m 4.177382,-7.104512 c 1.22572,-0.843315 2.65366,-2.182065 3.17321,-2.974992 l 0.94462,-1.441685 -2.03571,0.330349 c -1.39308,0.226067 -2.43439,0.83978 -3.29864,1.944079 -1.624785,2.076083 -2.337637,2.03236 -4.078596,-0.250153 -1.058238,-1.38743 -1.8231,-1.863881 -2.992159,-1.863881 -0.863787,0 -1.5705,0.135578 -1.5705,0.301279 0,0.949332 1.357955,2.471915 3.714752,4.165112 2.044802,1.469046 2.688496,2.267788 2.730059,3.38765 0.05334,1.436375 0.06562,1.430454 0.619361,-0.299546 0.354903,-1.108621 1.393703,-2.335066 2.793603,-3.298212 z M 71.131618,64.155098 c -2.33032,-2.330318 -3.095851,-7.56851 -1.550903,-10.612078 1.409665,-2.777053 4.436644,-6.20465 5.776412,-6.54091 1.630075,-0.409122 3.476675,0.6068 3.476675,1.912714 0,0.596842 -0.640889,1.364078 -1.518564,1.817944 -0.835204,0.431904 -2.273055,1.644604 -3.195224,2.694889 -2.033871,2.316458 -2.246295,5.322885 -0.603731,8.544677 1.714051,3.362016 0.189802,4.75722 -2.384665,2.182764 z m 0.929966,-2.003427 c -0.457973,-0.918024 -0.850819,-2.924422 -0.873,-4.45865 -0.03307,-2.287308 0.2348,-3.150215 1.487835,-4.793029 0.840482,-1.101931 2.20875,-2.390614 3.040596,-2.863734 1.750646,-0.995706 1.954267,-1.659031 0.509265,-1.659031 -1.124389,0 -3.829454,2.840815 -5.165815,5.42505 -1.355429,2.621116 -0.900354,7.110255 0.946356,9.335409 0.923016,1.112161 0.940887,0.79027 0.05477,-0.986015 z m 52.690236,2.819524 c -0.52665,-0.334219 -0.36529,-1.116138 0.71905,-3.484678 2.14031,-4.675038 1.07895,-7.643587 -3.97095,-11.106602 -1.57231,-1.078228 -1.21412,-2.21544 0.93365,-2.964157 1.50116,-0.523308 1.77002,-0.406916 3.84322,1.663875 3.35071,3.346795 3.79712,4.267942 3.85303,7.950868 0.0811,5.345246 -2.78933,9.583546 -5.378,7.940694 z m 3.0646,-3.259319 c 1.29648,-2.541321 1.38359,-5.868551 0.21794,-8.324952 -1.10792,-2.334772 -4.21216,-5.074219 -5.2839,-4.662956 -0.61286,0.235178 -0.27599,0.711588 1.34736,1.905414 1.19052,0.875507 2.51665,2.272709 2.94699,3.104884 1.12816,2.181639 0.99261,6.27381 -0.27681,8.355797 -0.58039,0.951909 -0.82401,1.730747 -0.54136,1.730747 0.28262,0 0.99803,-0.949019 1.58978,-2.108934 z M 97.206335,53.430819 c -0.878682,-0.3948 -3.234754,-1.124867 -5.235699,-1.622374 -3.58481,-0.891318 -3.660529,-0.887975 -5.170667,0.228528 -1.877083,1.387786 -2.745588,1.423333 -3.889601,0.159208 -1.292553,-1.428254 -1.103567,-2.031949 1.106155,-3.533497 2.342898,-1.592031 4.428398,-1.701968 9.562151,-0.504072 3.949116,0.921476 8.077836,0.821501 14.408076,-0.348883 3.66824,-0.678212 3.97599,-0.655589 6.2746,0.461163 2.61746,1.271655 3.3936,2.423119 2.54341,3.773335 -0.82258,1.306379 -2.13388,1.326673 -3.74677,0.05799 -1.74712,-1.374282 -4.18259,-1.162343 -9.75927,0.849274 -4.036835,1.456176 -3.935916,1.448236 -6.092385,0.479325 z m 6.390455,-2.132555 c 4.81044,-1.494155 8.62128,-1.697494 10.14956,-0.541554 1.21569,0.919502 1.83254,1.018472 1.83254,0.294025 0,-0.286942 -0.93235,-0.997351 -2.07186,-1.578684 l -2.07183,-1.056976 -5.91244,1.156576 -5.912449,1.156569 -6.158278,-1.200189 -6.158279,-1.200186 -1.872532,1.157289 c -1.234393,0.762892 -1.693074,1.336771 -1.345906,1.683936 0.347165,0.347167 0.945291,0.233407 1.755096,-0.333795 1.694083,-1.186582 4.836734,-1.03546 9.24578,0.444606 2.050278,0.688251 3.847593,1.271683 3.99404,1.296514 0.146528,0.02482 2.183408,-0.550329 4.526558,-1.278131 z"
       id="path896" />
  </g>
</svg>
