<?xml version="1.0" encoding="UTF-8" standalone="no"?>
<!-- Created with Inkscape (http://www.inkscape.org/) -->

<svg
   width="103.92439mm"
   height="136.6257mm"
   viewBox="0 0 103.92439 136.6257"
   version="1.1"
   id="svg103793"
   xmlns:xlink="http://www.w3.org/1999/xlink"
   xmlns="http://www.w3.org/2000/svg">
  <defs
     id="defs103790">
    <radialGradient
       xlink:href="#linearGradient103384"
       id="radialGradient103386"
       cx="-13.634657"
       cy="-32.887024"
       fx="-13.634657"
       fy="-32.887024"
       r="51.962196"
       gradientTransform="matrix(-1.3022788,0.03062462,-0.03090622,-1.3143012,141.18444,53.77952)"
       gradientUnits="userSpaceOnUse" />
    <linearGradient
       id="linearGradient103384">
      <stop
         style="stop-color:#baeee8;stop-opacity:1;"
         offset="0"
         id="stop103380" />
      <stop
         style="stop-color:#baeee8;stop-opacity:0;"
         offset="1"
         id="stop103382" />
    </linearGradient>
    <radialGradient
       xlink:href="#linearGradient102837"
       id="radialGradient102839"
       cx="-109.64478"
       cy="-32.748268"
       fx="-109.64478"
       fy="-32.748268"
       r="51.962189"
       gradientTransform="matrix(0.80762384,1.5856374,-1.1714641,0.59667003,123.03716,276.96603)"
       gradientUnits="userSpaceOnUse" />
    <linearGradient
       id="linearGradient102837">
      <stop
         style="stop-color:#1ece96;stop-opacity:1;"
         offset="0"
         id="stop102833" />
      <stop
         style="stop-color:#1ece96;stop-opacity:0;"
         offset="1"
         id="stop102835" />
    </linearGradient>
  </defs>
  <g
     id="layer1"
     transform="translate(-63.439473,-47.796798)">
    <path
       d="m 119.67153,183.72377 c 3.39032,-0.85754 7.02411,-2.22801 12.27712,-4.63024 2.7623,-1.2632 5.53688,-2.53058 6.16569,-2.81641 0.62892,-0.2858 2.77201,-1.09323 4.7625,-1.79427 1.99051,-0.70101 5.29661,-1.86902 7.3469,-2.59559 6.84241,-2.42472 11.05659,-5.24851 12.52349,-8.39147 l 0.61741,-1.32289 0.13729,-17.26409 c 0.076,-9.49521 0.09,-17.26314 0.032,-17.26202 -0.5538,0.0106 -4.12199,1.38826 -7.91019,3.05395 -4.8238,2.12106 -9.28291,4.03429 -16.00732,6.868 -2.18278,0.91988 -5.99278,2.52778 -8.46658,3.57315 -9.8012,4.1416 -11.89371,4.75913 -16.1262,4.75913 -4.1724,0 -5.09,-0.28873 -16.8144,-5.29042 -1.09152,-0.46559 -3.94902,-1.68074 -6.35,-2.70034 -6.1592,-2.61545 -10.93909,-4.6714 -15.0813,-6.48681 -4.32271,-1.89458 -8.0723,-3.39188 -9.0747,-3.62384 l -0.74031,-0.17132 0.079,16.87542 0.079,16.87544 0.62471,1.54906 c 1.41388,3.50612 5.20369,6.10055 12.80038,8.76286 4.56711,1.60055 11.64461,4.28932 13.43012,5.10218 1.25389,0.57086 6.189,2.59561 12.17079,4.99345 3.3393,1.33858 6.12589,2.272 7.67291,2.57022 1.05169,0.20269 3.6649,-0.08 5.8516,-0.63315 z M 93.44045,171.15151 c -0.14941,-0.39315 -0.258,-4.50022 -0.258,-9.76127 0,-7.56606 0.062,-9.10649 0.37259,-9.22558 0.20489,-0.0786 2.2805,-0.0479 4.6123,0.0684 3.9256,0.19569 4.3298,0.26411 5.4542,0.92302 3.68311,2.15848 3.87871,8.01553 0.32901,9.85208 -1.18981,0.61556 -3.29639,1.14229 -4.58351,1.14599 -0.60019,0.003 -1.46339,0.0776 -1.91821,0.16852 l -0.82679,0.16533 v 3.3536 c 0,2.25557 -0.10401,3.45755 -0.3175,3.67109 -0.1746,0.17463 -0.83241,0.3175 -1.4618,0.3175 -0.98481,0 -1.1802,-0.0946 -1.40229,-0.67866 z m 7.15709,-9.93085 c 1.6615,-0.35631 2.37201,-1.30804 2.3735,-3.17928 0,-2.24203 -1.3397,-3.14008 -4.69541,-3.14307 h -1.65359 v 3.30729 3.3073 h 1.3099 c 0.7204,0 1.92,-0.13084 2.6656,-0.29078 z m 8.9009,10.43313 c -0.21889,-0.21889 -0.17849,-13.33084 0.052,-16.75696 l 0.16877,-2.51354 4.36563,0.009 c 4.0272,0.008 4.46339,0.0568 5.6265,0.62637 1.42718,0.6989 2.1187,1.53313 2.5441,3.06888 0.6341,2.28936 0.17158,4.32064 -1.30432,5.72852 -0.99589,0.95001 -1.00409,0.97374 -0.49588,1.43367 0.5942,0.53774 2.69568,3.97036 3.92028,6.40344 0.9552,1.89773 0.884,2.00946 -1.29469,2.03229 l -1.19081,0.0124 -1.64589,-3.175 c -0.9053,-1.74625 -1.96012,-3.42794 -2.34389,-3.73705 -0.87331,-0.70329 -2.35702,-1.15774 -3.77992,-1.15774 h -1.09379 v 3.78354 c 0,2.58998 -0.1002,3.88369 -0.3175,4.10104 -0.33271,0.33274 -2.9056,0.44582 -3.21029,0.1411 z m 7.81941,-10.94787 c 1.308,-0.36325 1.7938,-1.12049 1.7938,-2.79593 0,-2.27516 -1.08871,-2.99242 -4.56412,-3.00684 l -1.5213,-0.006 v 3.04271 3.04271 l 1.65362,-0.003 c 0.90951,0 2.09659,-0.12449 2.638,-0.27485 z m 14.13029,9.66446 c -1.63161,-0.4481 -3.52999,-1.73546 -4.45321,-3.01982 -1.62578,-2.26182 -2.41688,-5.97842 -1.84258,-8.65653 0.7715,-3.59707 2.0964,-5.60735 4.7022,-7.13444 1.08278,-0.63455 1.62568,-0.75954 3.69171,-0.8499 3.30348,-0.14448 5.02158,0.36595 6.79868,2.01986 0.79811,0.74284 1.63682,1.8787 2.08851,2.82874 0.7125,1.49836 0.75488,1.78485 0.7551,5.10175 1.8e-4,3.76132 -0.18781,4.56901 -1.50871,6.48168 -2.04039,2.95447 -6.31669,4.30387 -10.2317,3.22866 z m 4.6795,-2.56498 c 1.17221,-0.35121 2.57881,-1.60544 3.2449,-2.89364 0.66569,-1.28728 0.94041,-3.93293 0.63481,-6.11275 -0.32152,-2.29333 -1.17541,-3.65604 -3.0109,-4.80465 -2.85221,-1.78495 -6.59072,-0.43926 -7.97301,2.86997 -0.5928,1.41906 -0.7851,4.45225 -0.39981,6.30626 0.7684,3.69708 3.99082,5.6874 7.50401,4.63481 z M 69.66515,113.09232 c 2.1018,-7.03199 2.066,-6.9447 2.79339,-6.80564 0.76311,0.14587 1.04151,-0.21923 2.07309,-2.71936 1.42282,-3.4485 1.46061,-3.50419 2.26542,-3.34322 0.49059,0.0981 0.84449,0.005 1.08259,-0.284801 0.55491,-0.67519 4.95591,-4.115249 6.6226,-5.176539 1.9359,-1.23272 5.1204,-2.91788 6.26721,-3.31647 l 0.89419,-0.31084 -0.18259,-1.85385 c -0.10052,-1.01963 -0.086,-1.85324 0.032,-1.85245 0.1179,8e-4 1.19499,0.878 2.39361,1.94938 3.52229,3.1486 4.96408,4.16717 6.1178,4.3219 0.90279,0.1211 1.60999,-0.13092 5.26349,-1.87576 4.93112,-2.35499 5.5091,-2.4854 4.31091,-0.97256 -1.80049,2.27338 -4.51011,9.41168 -4.50969,11.8809 1.8e-4,1.64978 0.9443,4.00595 2.20199,5.49579 1.07789,1.27672 3.8485,2.95283 5.44809,3.29589 2.05661,0.44106 5.46081,0.20074 6.77601,-0.47831 1.33249,-0.68802 3.46278,-2.93979 4.0146,-4.24352 2.53299,-5.98467 0.52919,-14.20254 -4.13099,-16.94221 -1.12941,-0.66399 -1.44032,-0.71568 -4.51062,-0.75005 -1.81359,-0.0203 -3.33359,-0.14519 -3.3777,-0.27753 -0.044,-0.13233 0.7584,-0.64634 1.7835,-1.14223 l 1.8637,-0.90162 6.87621,3.49426 c 4.62438,2.34996 7.15639,3.49392 7.7317,3.49326 1.34178,-0.003 3.0869,-1.22368 7.32229,-5.12796 1.08691,-1.00192 2.02272,-1.68199 2.0796,-1.51129 0.057,0.17071 -0.031,1.08422 -0.196,2.03003 -0.1647,0.94582 -0.23699,1.82075 -0.1606,1.94431 0.076,0.12356 0.58661,0.30495 1.1339,0.40309 1.21412,0.2177 4.78991,1.9975 6.43681,3.20378 0.6646,0.48681 2.27189,1.84949 3.5719,3.028209 1.29989,1.17872 2.9633,2.417001 3.69631,2.751691 1.53069,0.69893 2.0724,1.41269 3.02447,3.98497 0.63262,1.70921 0.73883,1.84304 1.46961,1.85209 0.76141,0.009 0.83341,0.12464 2.15601,3.44937 1.2034,3.02482 1.6765,4.61179 2.6821,8.99583 l 0.24278,1.05834 0.8006,-1.7198 c 1.1222,-2.41038 1.82801,-4.83698 2.6139,-8.98697 0.9248,-4.88357 0.96832,-11.692591 0.10731,-16.8099 -1.094,-6.50197 -2.1632,-10.11335 -4.41289,-14.90565 -3.0914,-6.58512 -7.69682,-12.41967 -13.61192,-17.24503 -5.90108,-4.81399 -12.9812,-8.4629 -19.71159,-10.15903 -3.13709,-0.79056 -9.90201,-2.008 -11.1578,-2.008 -0.78398,0 -0.84709,0.0537 -0.602,0.51177 0.4364,0.81547 0.32271,1.50629 -0.3868,2.34946 -0.85201,1.01254 -1.76641,1.23616 -2.8847,0.70548 -1.37879,-0.65429 -1.85851,-2.11726 -1.06539,-3.24948 0.41579,-0.59365 0.41499,-0.5941 -0.72771,-0.43617 -9.82679,1.35818 -13.48521,2.31464 -19.1511,5.0069 -8.50271,4.04017 -16.12951,10.81861 -21.29751,18.92836 -3.8241,6.001 -5.96289,11.48882 -7.55279,19.38001 -1.42939,7.093849 -0.75391,17.55491 1.6152,25.01635 0.3379,1.064 0.89249,2.34275 1.23251,2.84168 l 0.6182,0.9071 0.47368,-1.65106 c 0.26051,-0.90807 0.95411,-3.25837 1.5413,-5.2229 z m 38.46629,-5.80139 c -0.4835,-0.18997 -0.44929,-0.2568 0.3968,-0.77432 2.83112,-1.73168 6.9079,-2.18935 10.07951,-1.13157 2.27169,0.75763 3.63209,1.58638 3.1279,1.90547 -0.45892,0.29051 -12.86502,0.29091 -13.60421,0 z m 5.33702,-8.292351 c -0.99373,-1.48903 -2.2225,-3.233639 -2.73072,-3.876919 -0.8128,-1.02888 -0.8713,-1.19914 -0.4859,-1.4148 0.68979,-0.38605 2.77,0.26812 3.96409,1.24663 l 1.0641,0.87194 0.47242,-0.6263 c 0.62341,-0.82645 1.6229,-1.31177 3.16269,-1.53585 1.0097,-0.14692 1.2899,-0.10189 1.4164,0.22762 0.2473,0.64455 -4.1061,7.82894 -4.7384,7.81965 -0.17489,-0.003 -1.13099,-1.22295 -2.12468,-2.711971 z M 99.79704,91.168 c -1.28069,-0.5434 -4.34851,-2.61095 -5.03611,-3.39407 -0.94599,-1.07746 -0.9851,-0.85121 0.92922,-5.37328 l 1.40009,-3.30729 1.2872,-0.17526 c 1.641,-0.22342 4.69879,-0.26655 5.20222,-0.0734 0.3284,0.12604 0.2889,0.53205 -0.264,2.71198 -0.89702,3.5362 -2.6697,9.36491 -2.91751,9.59226 -0.11229,0.10309 -0.38281,0.11166 -0.60111,0.0191 z M 98.48253,77.72117 c -1.23229,-0.0585 -2.32,-0.23481 -2.41699,-0.3919 -0.20241,-0.32737 0.2146,-2.0422 0.6164,-2.53539 0.21079,-0.25872 4.19971,-0.33073 18.32001,-0.33073 16.86018,0 18.07729,0.0305 18.45588,0.46302 0.54071,0.61766 1.1507,2.38453 0.90721,2.62799 -0.2032,0.20318 -32.00009,0.35118 -35.88251,0.16701 z m -1.86049,-5.46924 c 0,-0.27047 -2.19491,-10.57191 -2.5249,-11.84989 -0.48331,-1.87218 -0.48781,-1.81389 0.1401,-1.81389 0.5461,0 5.06521,1.63482 7.15651,2.58894 2.30349,1.05095 2.2548,1.06068 5.55911,-1.11039 3.65489,-2.40139 3.07577,-1.91376 5.86128,-4.93525 l 2.3014,-2.49642 2.19649,2.22365 c 1.20801,1.22302 3.59971,3.40565 5.31482,4.8503 l 3.1183,2.62664 1.11501,-0.40227 c 0.61327,-0.22125 2.63548,-0.99597 4.49389,-1.72161 4.31178,-1.68363 4.95549,-1.83434 4.95549,-1.16024 0,0.52372 -1.4809,8.01225 -2.24989,11.37675 l -0.43841,1.91823 h -18.49959 c -10.17481,0 -18.49961,-0.0426 -18.49961,-0.0945 z m 20.46549,-3.54347 c -0.1374,-1.17436 -0.093,-1.29632 0.67392,-1.86 0.45159,-0.33178 0.821,-0.70827 0.821,-0.83664 0,-0.12837 -0.47961,-0.31443 -1.06571,-0.41346 -0.9293,-0.157 -1.14369,-0.33342 -1.6745,-1.37798 l -0.6088,-1.19792 -0.35129,0.84809 c -0.51811,1.25079 -0.98171,1.59677 -2.13942,1.59677 -0.57168,0 -1.03949,0.0968 -1.03949,0.21508 0,0.11829 0.36591,0.56478 0.81301,0.99219 0.7343,0.70191 0.79679,0.8859 0.64529,1.90158 -0.092,0.61846 -0.097,1.12448 -0.0111,1.12448 0.086,0 0.5869,-0.17962 1.11231,-0.39916 0.88339,-0.36912 1.01719,-0.36081 1.77739,0.11037 1.1675,0.72358 1.2106,0.69462 1.04711,-0.7034 z M 91.02583,57.8358 c -0.6255,-0.55886 -0.84198,-0.97777 -0.84198,-1.6289 0,-1.13187 1.3085,-2.38125 2.49399,-2.38125 1.1131,0 2.3567,1.25658 2.3567,2.38125 0,0.56952 -0.24559,1.08001 -0.77341,1.60785 -1.0192,1.01919 -2.11018,1.02629 -3.2353,0.0211 z m 45.48881,0.33992 c -0.8764,-0.47562 -1.26341,-1.1472 -1.26341,-2.19249 0,-1.00673 1.2918,-2.15758 2.42192,-2.15758 1.09648,0 2.34058,1.26562 2.34058,2.38125 0,0.56952 -0.24558,1.08001 -0.77338,1.60785 -0.85222,0.85216 -1.6306,0.95525 -2.72571,0.36097 z"
       style="fill:#54cbbd;fill-opacity:1;stroke-width:0.0700042"
       id="path102493" />
    <path
       d="m 119.67153,183.72377 c 3.39032,-0.85754 7.02411,-2.22801 12.27712,-4.63024 2.7623,-1.2632 5.53688,-2.53058 6.16569,-2.81641 0.62892,-0.2858 2.77201,-1.09323 4.7625,-1.79427 1.99051,-0.70101 5.29661,-1.86902 7.3469,-2.59559 6.84241,-2.42472 11.05659,-5.24851 12.52349,-8.39147 l 0.61741,-1.32289 0.13729,-17.26409 c 0.076,-9.49521 0.09,-17.26314 0.032,-17.26202 -0.5538,0.0106 -4.12199,1.38826 -7.91019,3.05395 -4.8238,2.12106 -9.28291,4.03429 -16.00732,6.868 -2.18278,0.91988 -5.99278,2.52778 -8.46658,3.57315 -9.8012,4.1416 -11.89371,4.75913 -16.1262,4.75913 -4.1724,0 -5.09,-0.28873 -16.81441,-5.29042 -1.09151,-0.46559 -3.94901,-1.68074 -6.34999,-2.70034 -6.1592,-2.61545 -10.93909,-4.6714 -15.0813,-6.48681 -4.32271,-1.89458 -8.0723,-3.39188 -9.0747,-3.62384 l -0.74031,-0.17132 0.079,16.87542 0.079,16.87544 0.62471,1.54906 c 1.41388,3.50612 5.20369,6.10055 12.80038,8.76286 4.56711,1.60055 11.64461,4.28932 13.43012,5.10218 1.25389,0.57086 6.189,2.59561 12.17079,4.99345 3.33929,1.33858 6.12589,2.272 7.67291,2.57022 1.05169,0.20269 3.6649,-0.08 5.8516,-0.63315 z M 93.44045,171.15151 c -0.14941,-0.39315 -0.258,-4.50022 -0.258,-9.76127 0,-7.56606 0.062,-9.10649 0.37259,-9.22558 0.20489,-0.0786 2.28049,-0.0479 4.6123,0.0684 3.9256,0.19569 4.3298,0.26411 5.45419,0.92302 3.68311,2.15848 3.87872,8.01553 0.32901,9.85208 -1.1898,0.61556 -3.29638,1.14229 -4.58351,1.14599 -0.60018,0.003 -1.46338,0.0776 -1.9182,0.16852 l -0.82679,0.16533 v 3.3536 c 0,2.25557 -0.10401,3.45755 -0.3175,3.67109 -0.1746,0.17463 -0.83241,0.3175 -1.4618,0.3175 -0.98481,0 -1.1802,-0.0946 -1.40229,-0.67866 z m 7.15709,-9.93085 c 1.6615,-0.35631 2.37201,-1.30804 2.3735,-3.17928 0,-2.24203 -1.3397,-3.14008 -4.69541,-3.14307 h -1.65359 v 3.30729 3.3073 h 1.3099 c 0.7204,0 1.92,-0.13084 2.6656,-0.29078 z m 8.9009,10.43313 c -0.21889,-0.21889 -0.17849,-13.33084 0.052,-16.75696 l 0.16877,-2.51354 4.36563,0.009 c 4.0272,0.008 4.46339,0.0568 5.6265,0.62637 1.42718,0.6989 2.1187,1.53313 2.5441,3.06888 0.6341,2.28936 0.17158,4.32064 -1.30432,5.72852 -0.99589,0.95001 -1.00409,0.97374 -0.49588,1.43367 0.5942,0.53774 2.69568,3.97036 3.92028,6.40344 0.9552,1.89773 0.884,2.00946 -1.29469,2.03229 l -1.19081,0.0124 -1.64589,-3.175 c -0.9053,-1.74625 -1.96012,-3.42794 -2.34389,-3.73705 -0.87331,-0.70329 -2.35702,-1.15774 -3.77992,-1.15774 h -1.0938 v 3.78354 c 0,2.58998 -0.10019,3.88369 -0.31749,4.10104 -0.33271,0.33274 -2.9056,0.44582 -3.21029,0.1411 z m 7.81941,-10.94787 c 1.308,-0.36325 1.7938,-1.12049 1.7938,-2.79593 0,-2.27516 -1.08871,-2.99242 -4.56412,-3.00684 l -1.5213,-0.006 v 3.04271 3.04271 l 1.65362,-0.003 c 0.90951,0 2.09659,-0.12449 2.638,-0.27485 z m 14.13029,9.66446 c -1.63161,-0.4481 -3.52999,-1.73546 -4.45321,-3.01982 -1.62578,-2.26182 -2.41688,-5.97842 -1.84258,-8.65653 0.7715,-3.59707 2.0964,-5.60735 4.7022,-7.13444 1.08278,-0.63455 1.62568,-0.75954 3.69171,-0.8499 3.30348,-0.14448 5.02158,0.36595 6.79868,2.01986 0.79811,0.74284 1.63682,1.8787 2.08851,2.82874 0.7125,1.49836 0.75488,1.78485 0.7551,5.10175 1.8e-4,3.76132 -0.18781,4.56901 -1.50871,6.48168 -2.04039,2.95447 -6.31669,4.30387 -10.2317,3.22866 z m 4.6795,-2.56498 c 1.17221,-0.35121 2.57881,-1.60544 3.2449,-2.89364 0.66569,-1.28728 0.94041,-3.93293 0.63481,-6.11275 -0.32152,-2.29333 -1.17541,-3.65604 -3.0109,-4.80465 -2.85221,-1.78495 -6.59072,-0.43926 -7.97301,2.86997 -0.5928,1.41906 -0.7851,4.45225 -0.39981,6.30626 0.7684,3.69708 3.99082,5.6874 7.50401,4.63481 z M 69.66515,113.09232 c 2.1018,-7.03199 2.06599,-6.9447 2.79339,-6.80564 0.7631,0.14587 1.04151,-0.21923 2.07308,-2.71936 1.42282,-3.4485 1.46061,-3.50419 2.26542,-3.34322 0.49059,0.0981 0.84449,0.005 1.08259,-0.284801 0.55491,-0.67519 4.95591,-4.115249 6.6226,-5.176539 1.9359,-1.23272 5.12041,-2.91788 6.26722,-3.31647 l 0.89419,-0.31084 -0.18259,-1.85385 c -0.10052,-1.01963 -0.086,-1.85324 0.032,-1.85245 0.1179,8e-4 1.19499,0.878 2.39361,1.94938 3.52229,3.1486 4.96408,4.16717 6.1178,4.3219 0.90279,0.1211 1.60999,-0.13092 5.26349,-1.87576 4.93112,-2.35499 5.5091,-2.4854 4.31091,-0.97256 -1.80049,2.27338 -4.51011,9.41168 -4.50969,11.8809 1.8e-4,1.64978 0.9443,4.00595 2.20199,5.49579 1.07789,1.27672 3.8485,2.95283 5.44809,3.29589 2.05661,0.44106 5.46081,0.20074 6.77601,-0.47831 1.33249,-0.68802 3.46278,-2.93979 4.0146,-4.24352 2.53299,-5.98467 0.52919,-14.20254 -4.13099,-16.94221 -1.12941,-0.66399 -1.44032,-0.71568 -4.51062,-0.75005 -1.81359,-0.0203 -3.33359,-0.14519 -3.3777,-0.27753 -0.044,-0.13233 0.7584,-0.64634 1.7835,-1.14223 l 1.8637,-0.90162 6.87621,3.49426 c 4.62438,2.34996 7.15639,3.49392 7.7317,3.49326 1.34178,-0.003 3.0869,-1.22368 7.32229,-5.12796 1.08691,-1.00192 2.02272,-1.68199 2.0796,-1.51129 0.057,0.17071 -0.031,1.08422 -0.196,2.03003 -0.1647,0.94582 -0.23699,1.82075 -0.1606,1.94431 0.076,0.12356 0.58661,0.30495 1.1339,0.40309 1.21412,0.2177 4.78991,1.9975 6.43681,3.20378 0.6646,0.48681 2.27189,1.84949 3.5719,3.028209 1.29989,1.17872 2.9633,2.417001 3.69631,2.751691 1.53069,0.69893 2.0724,1.41269 3.02447,3.98497 0.63262,1.70921 0.73883,1.84304 1.46961,1.85209 0.76141,0.009 0.83341,0.12464 2.15601,3.44937 1.2034,3.02482 1.6765,4.61179 2.6821,8.99583 l 0.24278,1.05834 0.8006,-1.7198 c 1.1222,-2.41038 1.82801,-4.83698 2.6139,-8.98697 0.9248,-4.88357 0.96832,-11.692591 0.10731,-16.8099 -1.094,-6.50197 -2.1632,-10.11335 -4.41289,-14.90565 -3.0914,-6.58512 -7.69682,-12.41967 -13.61192,-17.24503 -5.90108,-4.81399 -12.9812,-8.4629 -19.71159,-10.15903 -3.13709,-0.79056 -9.90201,-2.008 -11.1578,-2.008 -0.78398,0 -0.84709,0.0537 -0.602,0.51177 0.4364,0.81547 0.32271,1.50629 -0.3868,2.34946 -0.85201,1.01254 -1.76641,1.23616 -2.8847,0.70548 -1.37879,-0.65429 -1.85851,-2.11726 -1.06539,-3.24948 0.41579,-0.59365 0.41499,-0.5941 -0.72771,-0.43617 -9.82679,1.35818 -13.48521,2.31464 -19.1511,5.0069 -8.50271,4.04017 -16.12951,10.81861 -21.29751,18.92836 -3.8241,6.001 -5.9629,11.48882 -7.5528,19.38001 -1.42939,7.093849 -0.75391,17.55491 1.61521,25.01635 0.3379,1.064 0.89249,2.34275 1.23251,2.84168 l 0.6182,0.9071 0.47368,-1.65106 c 0.26051,-0.90807 0.95411,-3.25837 1.54129,-5.2229 z m 38.46629,-5.80139 c -0.4835,-0.18997 -0.44929,-0.2568 0.3968,-0.77432 2.83112,-1.73168 6.9079,-2.18935 10.07951,-1.13157 2.27169,0.75763 3.63209,1.58638 3.1279,1.90547 -0.45892,0.29051 -12.86502,0.29091 -13.60421,0 z m 5.33702,-8.292351 c -0.99373,-1.48903 -2.2225,-3.233639 -2.73072,-3.876919 -0.8128,-1.02888 -0.8713,-1.19914 -0.4859,-1.4148 0.68979,-0.38605 2.77,0.26812 3.96409,1.24663 l 1.0641,0.87194 0.47242,-0.6263 c 0.62341,-0.82645 1.6229,-1.31177 3.16269,-1.53585 1.0097,-0.14692 1.2899,-0.10189 1.4164,0.22762 0.2473,0.64455 -4.1061,7.82894 -4.7384,7.81965 -0.17489,-0.003 -1.13099,-1.22295 -2.12468,-2.711971 z M 99.79704,91.168 c -1.28069,-0.5434 -4.34851,-2.61095 -5.03611,-3.39407 -0.94599,-1.07746 -0.9851,-0.85121 0.92922,-5.37328 l 1.40009,-3.30729 1.2872,-0.17526 c 1.641,-0.22342 4.69879,-0.26655 5.20222,-0.0734 0.3284,0.12604 0.2889,0.53205 -0.264,2.71198 -0.89702,3.5362 -2.6697,9.36491 -2.91751,9.59226 -0.11229,0.10309 -0.38281,0.11166 -0.60111,0.0191 z M 98.48253,77.72117 c -1.23229,-0.0585 -2.32,-0.23481 -2.41699,-0.3919 -0.20241,-0.32737 0.2146,-2.0422 0.6164,-2.53539 0.21079,-0.25872 4.19971,-0.33073 18.32001,-0.33073 16.86018,0 18.07729,0.0305 18.45588,0.46302 0.54071,0.61766 1.1507,2.38453 0.90721,2.62799 -0.2032,0.20318 -32.00009,0.35118 -35.88251,0.16701 z m -1.86049,-5.46924 c 0,-0.27047 -2.19491,-10.57191 -2.5249,-11.84989 -0.48331,-1.87218 -0.48781,-1.81389 0.1401,-1.81389 0.5461,0 5.06521,1.63482 7.15651,2.58894 2.30349,1.05095 2.2548,1.06068 5.55911,-1.11039 3.65489,-2.40139 3.07577,-1.91376 5.86128,-4.93525 l 2.3014,-2.49642 2.19649,2.22365 c 1.20801,1.22302 3.59971,3.40565 5.31482,4.8503 l 3.1183,2.62664 1.11501,-0.40227 c 0.61327,-0.22125 2.63548,-0.99597 4.49389,-1.72161 4.31178,-1.68363 4.95549,-1.83434 4.95549,-1.16024 0,0.52372 -1.4809,8.01225 -2.24989,11.37675 l -0.43841,1.91823 h -18.49959 c -10.17481,0 -18.49961,-0.0426 -18.49961,-0.0945 z m 20.46549,-3.54347 c -0.1374,-1.17436 -0.093,-1.29632 0.67392,-1.86 0.45159,-0.33178 0.821,-0.70827 0.821,-0.83664 0,-0.12837 -0.47961,-0.31443 -1.06571,-0.41346 -0.9293,-0.157 -1.14369,-0.33342 -1.6745,-1.37798 l -0.6088,-1.19792 -0.35129,0.84809 c -0.51811,1.25079 -0.98171,1.59677 -2.13942,1.59677 -0.57168,0 -1.03949,0.0968 -1.03949,0.21508 0,0.11829 0.36591,0.56478 0.81301,0.99219 0.7343,0.70191 0.79679,0.8859 0.64529,1.90158 -0.092,0.61846 -0.097,1.12448 -0.0111,1.12448 0.086,0 0.5869,-0.17962 1.11231,-0.39916 0.88339,-0.36912 1.01719,-0.36081 1.77739,0.11037 1.1675,0.72358 1.2106,0.69462 1.04711,-0.7034 z M 91.02583,57.8358 c -0.6255,-0.55886 -0.84198,-0.97777 -0.84198,-1.6289 0,-1.13187 1.3085,-2.38125 2.49399,-2.38125 1.1131,0 2.3567,1.25658 2.3567,2.38125 0,0.56952 -0.24559,1.08001 -0.77341,1.60785 -1.0192,1.01919 -2.11018,1.02629 -3.2353,0.0211 z m 45.48881,0.33992 c -0.8764,-0.47562 -1.26341,-1.1472 -1.26341,-2.19249 0,-1.00673 1.2918,-2.15758 2.42192,-2.15758 1.09648,0 2.34058,1.26562 2.34058,2.38125 0,0.56952 -0.24558,1.08001 -0.77338,1.60785 -0.85222,0.85216 -1.6306,0.95525 -2.72571,0.36097 z"
       style="fill:url(#radialGradient103386);fill-opacity:1;stroke-width:0.0700042"
       id="path102493-0" />
    <path
       d="m 119.67153,183.72377 c 3.39032,-0.85754 7.02411,-2.22801 12.27712,-4.63024 2.7623,-1.2632 5.53688,-2.53058 6.16569,-2.81641 0.62892,-0.2858 2.77201,-1.09323 4.7625,-1.79427 1.99051,-0.70101 5.29661,-1.86902 7.3469,-2.59559 6.84241,-2.42472 11.05659,-5.24851 12.52349,-8.39147 l 0.61741,-1.32289 0.13729,-17.26409 c 0.076,-9.49521 0.09,-17.26314 0.032,-17.26202 -0.5538,0.0106 -4.12199,1.38826 -7.91019,3.05395 -4.8238,2.12106 -9.28291,4.03429 -16.00732,6.868 -2.18278,0.91988 -5.99278,2.52778 -8.46658,3.57315 -9.8012,4.1416 -11.89371,4.75913 -16.1262,4.75913 -4.1724,0 -5.09,-0.28873 -16.8144,-5.29042 -1.09151,-0.46559 -3.94901,-1.68074 -6.35,-2.70034 -6.15919,-2.61545 -10.93909,-4.6714 -15.0813,-6.48681 -4.32271,-1.89458 -8.0723,-3.39188 -9.0747,-3.62384 l -0.74031,-0.17132 0.079,16.87542 0.079,16.87544 0.62471,1.54906 c 1.41388,3.50612 5.20369,6.10055 12.80038,8.76286 4.56712,1.60055 11.64461,4.28932 13.43013,5.10218 1.25388,0.57086 6.189,2.59561 12.17078,4.99345 3.3393,1.33858 6.12589,2.272 7.67291,2.57022 1.05169,0.20269 3.6649,-0.08 5.8516,-0.63315 z M 93.44045,171.15151 c -0.14941,-0.39315 -0.25799,-4.50022 -0.25799,-9.76127 0,-7.56606 0.062,-9.10649 0.37258,-9.22558 0.2049,-0.0786 2.2805,-0.0479 4.6123,0.0684 3.9256,0.19569 4.3298,0.26411 5.4542,0.92302 3.68311,2.15848 3.87871,8.01553 0.32901,9.85208 -1.18981,0.61556 -3.29639,1.14229 -4.58351,1.14599 -0.60018,0.003 -1.46338,0.0776 -1.9182,0.16852 l -0.8268,0.16533 v 3.3536 c 0,2.25557 -0.10401,3.45755 -0.3175,3.67109 -0.1746,0.17463 -0.8324,0.3175 -1.4618,0.3175 -0.9848,0 -1.1802,-0.0946 -1.40229,-0.67866 z m 7.15709,-9.93085 c 1.6615,-0.35631 2.37201,-1.30804 2.3735,-3.17928 0,-2.24203 -1.3397,-3.14008 -4.69541,-3.14307 h -1.65359 v 3.30729 3.3073 h 1.3099 c 0.72041,0 1.92,-0.13084 2.6656,-0.29078 z m 8.9009,10.43313 c -0.21889,-0.21889 -0.17849,-13.33084 0.052,-16.75696 l 0.16877,-2.51354 4.36563,0.009 c 4.0272,0.008 4.46339,0.0568 5.6265,0.62637 1.42718,0.6989 2.1187,1.53313 2.5441,3.06888 0.6341,2.28936 0.17158,4.32064 -1.30432,5.72852 -0.99589,0.95001 -1.00409,0.97374 -0.49588,1.43367 0.5942,0.53774 2.69568,3.97036 3.92028,6.40344 0.9552,1.89773 0.884,2.00946 -1.29469,2.03229 l -1.19081,0.0124 -1.64589,-3.175 c -0.9053,-1.74625 -1.96012,-3.42794 -2.34389,-3.73705 -0.87331,-0.70329 -2.35702,-1.15774 -3.77992,-1.15774 h -1.09379 v 3.78354 c 0,2.58998 -0.1002,3.88369 -0.3175,4.10104 -0.33271,0.33274 -2.9056,0.44582 -3.21029,0.1411 z m 7.81941,-10.94787 c 1.308,-0.36325 1.7938,-1.12049 1.7938,-2.79593 0,-2.27516 -1.08871,-2.99242 -4.56412,-3.00684 l -1.5213,-0.006 v 3.04271 3.04271 l 1.65362,-0.003 c 0.90951,0 2.09659,-0.12449 2.638,-0.27485 z m 14.13029,9.66446 c -1.63161,-0.4481 -3.52999,-1.73546 -4.45321,-3.01982 -1.62578,-2.26182 -2.41688,-5.97842 -1.84258,-8.65653 0.7715,-3.59707 2.0964,-5.60735 4.7022,-7.13444 1.08278,-0.63455 1.62568,-0.75954 3.69171,-0.8499 3.30348,-0.14448 5.02158,0.36595 6.79868,2.01986 0.79811,0.74284 1.63682,1.8787 2.08851,2.82874 0.7125,1.49836 0.75488,1.78485 0.7551,5.10175 1.8e-4,3.76132 -0.18781,4.56901 -1.50871,6.48168 -2.04039,2.95447 -6.31669,4.30387 -10.2317,3.22866 z m 4.6795,-2.56498 c 1.17221,-0.35121 2.57881,-1.60544 3.2449,-2.89364 0.66569,-1.28728 0.94041,-3.93293 0.63481,-6.11275 -0.32152,-2.29333 -1.17541,-3.65604 -3.0109,-4.80465 -2.85221,-1.78495 -6.59072,-0.43926 -7.97301,2.86997 -0.5928,1.41906 -0.7851,4.45225 -0.39981,6.30626 0.7684,3.69708 3.99082,5.6874 7.50401,4.63481 z M 69.66515,113.09232 c 2.1018,-7.03199 2.066,-6.9447 2.79339,-6.80564 0.76311,0.14587 1.04151,-0.21923 2.07309,-2.71936 1.42282,-3.4485 1.46061,-3.50419 2.26542,-3.34322 0.49059,0.0981 0.84449,0.005 1.08259,-0.284801 0.55491,-0.67519 4.95592,-4.115249 6.62261,-5.176539 1.9359,-1.23272 5.1204,-2.91788 6.26721,-3.31647 l 0.89418,-0.31084 -0.18259,-1.85385 c -0.10051,-1.01963 -0.086,-1.85324 0.032,-1.85245 0.1179,8e-4 1.195,0.878 2.39361,1.94938 3.52229,3.1486 4.96409,4.16717 6.1178,4.3219 0.90279,0.1211 1.60999,-0.13092 5.26349,-1.87576 4.93112,-2.35499 5.5091,-2.4854 4.31091,-0.97256 -1.80049,2.27338 -4.51011,9.41168 -4.50969,11.8809 1.8e-4,1.64978 0.9443,4.00595 2.20199,5.49579 1.07789,1.27672 3.8485,2.95283 5.44809,3.29589 2.05661,0.44106 5.46081,0.20074 6.77601,-0.47831 1.33249,-0.68802 3.46278,-2.93979 4.0146,-4.24352 2.53299,-5.98467 0.52919,-14.20254 -4.13099,-16.94221 -1.12941,-0.66399 -1.44032,-0.71568 -4.51062,-0.75005 -1.81359,-0.0203 -3.33359,-0.14519 -3.3777,-0.27753 -0.044,-0.13233 0.7584,-0.64634 1.7835,-1.14223 l 1.8637,-0.90162 6.87621,3.49426 c 4.62438,2.34996 7.15639,3.49392 7.7317,3.49326 1.34178,-0.003 3.0869,-1.22368 7.32229,-5.12796 1.08691,-1.00192 2.02272,-1.68199 2.0796,-1.51129 0.057,0.17071 -0.031,1.08422 -0.196,2.03003 -0.1647,0.94582 -0.23699,1.82075 -0.1606,1.94431 0.076,0.12356 0.58661,0.30495 1.1339,0.40309 1.21412,0.2177 4.78991,1.9975 6.43681,3.20378 0.6646,0.48681 2.27189,1.84949 3.5719,3.028209 1.29989,1.17872 2.9633,2.417001 3.69631,2.751691 1.53069,0.69893 2.0724,1.41269 3.02447,3.98497 0.63262,1.70921 0.73883,1.84304 1.46961,1.85209 0.76141,0.009 0.83341,0.12464 2.15601,3.44937 1.2034,3.02482 1.6765,4.61179 2.6821,8.99583 l 0.24278,1.05834 0.8006,-1.7198 c 1.1222,-2.41038 1.82801,-4.83698 2.6139,-8.98697 0.9248,-4.88357 0.96832,-11.692591 0.10731,-16.8099 -1.094,-6.50198 -2.1632,-10.11336 -4.41289,-14.90566 -3.0914,-6.58512 -7.69682,-12.41967 -13.61192,-17.24503 -5.90108,-4.81399 -12.9812,-8.4629 -19.71159,-10.15903 -3.13709,-0.79056 -9.90201,-2.008 -11.1578,-2.008 -0.78398,0 -0.84709,0.0537 -0.602,0.51177 0.4364,0.81547 0.32271,1.50629 -0.3868,2.34946 -0.85201,1.01254 -1.76641,1.23616 -2.8847,0.70548 -1.37879,-0.65429 -1.85851,-2.11726 -1.06539,-3.24948 0.41579,-0.59365 0.41499,-0.5941 -0.72771,-0.43617 -9.82679,1.35818 -13.48521,2.31464 -19.1511,5.0069 -8.5027,4.04017 -16.12951,10.81861 -21.29751,18.92836 -3.8241,6.001 -5.96289,11.48882 -7.55279,19.38002 -1.42939,7.093849 -0.75391,17.55491 1.6152,25.01635 0.3379,1.064 0.89249,2.34275 1.23251,2.84168 l 0.6182,0.9071 0.47368,-1.65106 c 0.26051,-0.90807 0.95411,-3.25837 1.5413,-5.2229 z m 38.46629,-5.80139 c -0.4835,-0.18997 -0.44929,-0.2568 0.3968,-0.77432 2.83112,-1.73168 6.9079,-2.18935 10.07951,-1.13157 2.27169,0.75763 3.63209,1.58638 3.1279,1.90547 -0.45892,0.29051 -12.86502,0.29091 -13.60421,0 z m 5.33702,-8.292351 c -0.99373,-1.48903 -2.2225,-3.233639 -2.73072,-3.876919 -0.8128,-1.02888 -0.8713,-1.19914 -0.4859,-1.4148 0.68979,-0.38605 2.77,0.26812 3.96409,1.24663 l 1.0641,0.87194 0.47242,-0.6263 c 0.62341,-0.82645 1.6229,-1.31177 3.16269,-1.53585 1.0097,-0.14692 1.2899,-0.10189 1.4164,0.22762 0.2473,0.64455 -4.1061,7.82894 -4.7384,7.81965 -0.17489,-0.003 -1.13099,-1.22295 -2.12468,-2.711971 z M 99.79704,91.168 c -1.28069,-0.5434 -4.34851,-2.61095 -5.0361,-3.39407 -0.946,-1.07746 -0.9851,-0.85121 0.92921,-5.37329 l 1.4001,-3.30729 1.2872,-0.17526 c 1.64099,-0.22342 4.69878,-0.26655 5.20221,-0.0734 0.3284,0.12604 0.2889,0.53205 -0.264,2.71198 -0.89702,3.5362 -2.6697,9.36492 -2.91751,9.59227 -0.11229,0.10309 -0.3828,0.11166 -0.60111,0.0191 z m -1.3145,-13.44684 c -1.2323,-0.0585 -2.32,-0.23481 -2.417,-0.3919 -0.2024,-0.32737 0.21461,-2.0422 0.6164,-2.53539 0.2108,-0.25872 4.19971,-0.33073 18.32001,-0.33073 16.86018,0 18.07729,0.0305 18.45588,0.46302 0.54071,0.61766 1.1507,2.38453 0.90721,2.62799 -0.2032,0.20318 -32.00009,0.35118 -35.8825,0.16701 z m -1.8605,-5.46924 c 0,-0.27047 -2.1949,-10.57191 -2.52489,-11.84989 -0.48332,-1.87218 -0.48781,-1.81389 0.1401,-1.81389 0.5461,0 5.06521,1.63482 7.1565,2.58894 2.30349,1.05095 2.2548,1.06068 5.55911,-1.11039 3.65489,-2.40139 3.07577,-1.91376 5.86128,-4.93525 l 2.3014,-2.49642 2.19649,2.22365 c 1.20801,1.22302 3.59971,3.40565 5.31482,4.8503 l 3.1183,2.62664 1.11501,-0.40227 c 0.61327,-0.22125 2.63548,-0.99597 4.49389,-1.72161 4.31178,-1.68363 4.95549,-1.83434 4.95549,-1.16024 0,0.52372 -1.4809,8.01225 -2.24989,11.37675 l -0.43841,1.91823 h -18.49959 c -10.17481,0 -18.49961,-0.0426 -18.49961,-0.0945 z m 20.46549,-3.54347 c -0.1374,-1.17436 -0.093,-1.29632 0.67392,-1.86 0.45159,-0.33178 0.821,-0.70827 0.821,-0.83664 0,-0.12837 -0.47961,-0.31443 -1.06571,-0.41346 -0.9293,-0.157 -1.14369,-0.33342 -1.6745,-1.37798 l -0.6088,-1.19792 -0.35129,0.84809 c -0.51811,1.25079 -0.98171,1.59677 -2.13942,1.59677 -0.57168,0 -1.03949,0.0968 -1.03949,0.21508 0,0.11829 0.36591,0.56478 0.81301,0.99219 0.7343,0.70191 0.79679,0.8859 0.64529,1.90158 -0.092,0.61846 -0.097,1.12448 -0.0111,1.12448 0.086,0 0.5869,-0.17962 1.11231,-0.39916 0.88339,-0.36912 1.01719,-0.36081 1.77739,0.11037 1.1675,0.72358 1.2106,0.69462 1.04711,-0.7034 z M 91.02584,57.83579 c -0.6255,-0.55886 -0.84198,-0.97777 -0.84198,-1.6289 0,-1.13187 1.30849,-2.38125 2.49398,-2.38125 1.11311,0 2.3567,1.25658 2.3567,2.38125 0,0.56952 -0.24559,1.08001 -0.7734,1.60785 -1.0192,1.01919 -2.11019,1.02629 -3.2353,0.0211 z m 45.4888,0.33992 c -0.8764,-0.47562 -1.26341,-1.1472 -1.26341,-2.19249 0,-1.00673 1.2918,-2.15758 2.42192,-2.15758 1.09648,0 2.34058,1.26562 2.34058,2.38125 0,0.56952 -0.24558,1.08001 -0.77338,1.60785 -0.85222,0.85216 -1.6306,0.95525 -2.72571,0.36097 z"
       style="fill:url(#radialGradient102839);fill-opacity:1;stroke-width:0.0700042"
       id="path102493-9" />
  </g>
</svg>
