<?xml version="1.0" encoding="UTF-8" standalone="no"?>
<!-- Created with Inkscape (http://www.inkscape.org/) -->

<svg
   width="702.87262mm"
   height="462.57428mm"
   viewBox="0 0 702.87262 462.57428"
   version="1.1"
   id="svg3705"
   xmlns="http://www.w3.org/2000/svg">
  <defs
     id="defs3702">
    <filter
       style="color-interpolation-filters:sRGB"
       id="filter44176"
       x="-0.2285879"
       y="-0.66007704"
       width="1.4571759"
       height="2.3201542">
      <feGaussianBlur
         stdDeviation="23.9362 26.4359"
         result="blur"
         id="feGaussianBlur44174" />
    </filter>
    <filter
       style="color-interpolation-filters:sRGB"
       id="filter44176-4"
       x="-0.2285879"
       y="-0.66007704"
       width="1.4571759"
       height="2.3201542">
      <feGaussianBlur
         stdDeviation="23.9362 26.4359"
         result="blur"
         id="feGaussianBlur44174-5" />
    </filter>
    <filter
       style="color-interpolation-filters:sRGB"
       id="filter45672"
       x="-0.15939268"
       y="-0.26566607"
       width="1.3187854"
       height="1.5313321">
      <feGaussianBlur
         stdDeviation="97.1431 100"
         result="blur"
         id="feGaussianBlur45670" />
    </filter>
    <filter
       style="color-interpolation-filters:sRGB"
       id="filter46493"
       x="-1.8909771"
       y="-4.1052971"
       width="4.7819543"
       height="9.2105942">
      <feGaussianBlur
         stdDeviation="97.1431 100"
         result="fbSourceGraphic"
         id="feGaussianBlur46491" />
      <feColorMatrix
         result="fbSourceGraphicAlpha"
         in="fbSourceGraphic"
         values="0 0 0 -1 0 0 0 0 -1 0 0 0 0 -1 0 0 0 0 1 0"
         id="feColorMatrix46647" />
      <feGaussianBlur
         id="feGaussianBlur46649"
         stdDeviation="15.7227 16.794"
         result="fbSourceGraphic"
         in="fbSourceGraphic" />
      <feColorMatrix
         result="fbSourceGraphicAlpha"
         in="fbSourceGraphic"
         values="0 0 0 -1 0 0 0 0 -1 0 0 0 0 -1 0 0 0 0 1 0"
         id="feColorMatrix46673" />
      <feGaussianBlur
         id="feGaussianBlur46675"
         stdDeviation="15.7227 16.794"
         result="blur"
         in="fbSourceGraphic" />
    </filter>
    <filter
       style="color-interpolation-filters:sRGB"
       id="filter46937"
       x="-0.62147786"
       y="-0.79288115"
       width="2.2429557"
       height="2.5857623">
      <feGaussianBlur
         stdDeviation="32.1496 26.793"
         result="blur"
         id="feGaussianBlur46935" />
    </filter>
    <filter
       style="color-interpolation-filters:sRGB"
       id="filter47176"
       x="-0.17440304"
       y="-0.2705603"
       width="1.3488061"
       height="1.5411206">
      <feGaussianBlur
         stdDeviation="51.0763 52.1476"
         result="blur"
         id="feGaussianBlur47174" />
    </filter>
    <filter
       style="color-interpolation-filters:sRGB"
       id="filter47425"
       x="-0.17440304"
       y="-0.2705603"
       width="1.3488061"
       height="1.5411206">
      <feGaussianBlur
         stdDeviation="51.0763 52.1476"
         result="blur"
         id="feGaussianBlur47423" />
    </filter>
  </defs>
  <g
     id="layer1"
     transform="translate(405.95743,-4.661675)">
    <ellipse
       style="opacity:1;fill:#4d4d4d;fill-opacity:1;stroke:none;stroke-width:3.23613;stroke-miterlimit:4;stroke-dasharray:none;stroke-opacity:1"
       id="path43724"
       cx="-58.572693"
       cy="444.80219"
       rx="285.85486"
       ry="19.774548" />
    <path
       style="fill:#56ac88;fill-opacity:1;stroke-width:0.475138;image-rendering:auto"
       d="m 224.3881,177.32507 c -0.32488,-2.66012 -1.2164,-6.98897 -1.98118,-9.61971 -1.42287,-4.89427 -5.84354,-16.68342 -6.52646,-17.40493 -0.20879,-0.22059 -1.03004,-0.0574 -1.82499,0.36265 l -1.44529,0.76376 -0.51472,-2.04371 c -2.01878,-8.01587 -4.64837,-11.89001 -8.07045,-11.89001 -0.74556,0 -2.05061,-0.97009 -3.92264,-2.91583 -8.87058,-9.2196 -17.54099,-15.06117 -25.31743,-17.0573 -3.3733,-0.86587 -3.41278,-0.93001 -2.63758,-4.28233 -14.75502,-9.95807 -11.36434,-32.386524 -12.92502,-37.223752 -1.4852,-4.09461 -3.51892,-9.07164 -4.51937,-11.06007 -1.64701,-3.27361 -6.60164,-10.04705 -7.3816,-10.09144 -0.17431,-0.01 -1.13605,-0.73462 -2.13722,-1.61045 l -1.82027,-1.59243 2.8671,-1.7798 c 1.57692,-0.978877 2.96838,-1.947217 3.09216,-2.151849 0.12378,-0.204632 -3.20271,-0.869583 -7.39217,-1.477674 -4.18943,-0.608091 -7.78058,-1.254298 -7.98044,-1.436021 -0.19982,-0.181722 -0.0381,-1.125145 0.35889,-2.096517 0.45535,-1.113791 0.53643,-1.766104 0.2195,-1.766104 -0.27645,0 -5.05804,1.204543 -10.62586,2.676752 -5.5678,1.472224 -10.18917,2.60693 -10.26976,2.521602 -0.0806,-0.08538 0.47261,-1.545816 1.22936,-3.245514 0.75674,-1.699711 1.31844,-3.259024 1.24811,-3.465132 -0.19403,-0.568556 -12.31186,6.661179 -16.557154,9.878209 -6.921087,5.244748 -8.598307,4.155417 -11.529257,10.725157 -0.63096,1.41428 -11.11117,2.018289 -11.9321,5.452478 -1.82496,7.63439 -0.36647,17.602857 -4.53746,22.439787 -4.4798,5.19505 -5.7045,7.99627 -5.91183,13.521988 -0.14629,3.90099 3.68175,11.19282 4.76582,14.06223 0.19481,0.51559 0.0982,0.84053 -0.24997,0.84053 -1.35406,0 -12.87789,6.10213 -17.61821,9.32924 -4.56455,3.10745 -12.80573,9.94225 -13.62866,11.30292 -0.1891,0.31252 -0.72318,0.2051 -1.47141,-0.29587 -0.67805,-0.454 -1.33483,-0.60405 -1.55345,-0.35491 -0.20832,0.23742 -1.70183,3.6737 -3.31894,7.63624 -1.61709,3.96252 -3.00247,7.27456 -3.07859,7.36007 -0.0761,0.0854 -0.81229,-0.20068 -1.63586,-0.63579 -0.82358,-0.43521 -1.55663,-0.72132 -1.62895,-0.63581 -0.0724,0.0856 -1.7616,6.0993 -3.75393,13.36394 -0.83818,1.49974 -4.2338,19.54798 -5.75975,17.50158 48.20868,25.82084 136.446561,16.13642 136.446561,16.13642 l 59.56109,-7.01559 c 4.19165,-0.49373 12.8586,-7.89044 12.39706,-7.89044 -0.0753,0 -0.4028,-2.17646 -0.72768,-4.83657 z"
       id="path760" />
    <path
       style="color:#000000;fill:#56ac88;fill-opacity:1;stroke-width:0.234537;-inkscape-stroke:none"
       d="M 16.711069,180.93125 224.3881,178.09761 172.16758,259.09635 50.803709,258.6003 Z"
       id="rect4338" />
    <rect
       style="fill:#56ac88;fill-opacity:1;stroke-width:0.322412"
       id="rect4729-3"
       width="120.64977"
       height="105.13814"
       x="50.803684"
       y="227.56178"
       ry="35.81329" />
    <path
       style="color:#000000;fill:#56ac88;stroke-width:0.280776;-inkscape-stroke:none"
       d="m 66.642749,295.82591 c 0,0 60.054251,-19.93531 48.907251,2.72564 -9.72838,19.77697 2.20916,45.97406 2.20916,45.97406 l -8.10026,-6.44213 8.46845,29.62021 -13.53111,-12.82759 10.03328,22.8154 -13.8993,-9.89229 c 0,0 -8.907101,4.0025 -2.358294,17.2267 3.922854,7.92152 4.061174,26.8887 4.061174,26.8887 l -10.562541,-13.79496 -10.18351,31.31893 -35.07925,-1.34229 0.0651,-16.1931 0.0651,-16.19308 0.0651,-16.1931 c 0,0 -5.55285,-9.66188 -5.6419,-15.14477 -0.0999,-6.14965 5.77209,-17.24142 5.77209,-17.24142 l 1.90605,-17.8704 3.37882,-20.38639 z"
       id="rect4860" />
    <path
       style="color:#000000;fill:#56ac88;stroke-width:0.280776;-inkscape-stroke:none"
       d="m 137.46862,293.2207 c 0,0 26.42493,-36.21898 43.59736,-6.47817 11.02084,19.08692 7.51905,55.17787 7.51905,55.17787 l -8.10026,-6.44213 2.7113,20.35871 -7.77396,-3.56609 5.27738,15.05577 -9.1434,-2.13266 c 0,0 -8.9071,4.0025 -2.35829,17.2267 l -6.50137,13.09374 -10.18351,31.31893 -35.07925,-1.34229 0.0651,-16.1931 0.0651,-16.19308 0.0651,-16.1931 c 0.49838,-9.20811 -0.25194,-19.73519 0.13019,-32.38619 l 1.90605,-17.8704 3.37882,-20.38639 z"
       id="rect4860-62" />
    <ellipse
       style="opacity:1;fill:#ffffff;fill-opacity:1;stroke:none;stroke-width:4.265;stroke-miterlimit:4;stroke-dasharray:none;stroke-opacity:1;filter:url(#filter46937)"
       id="path46881"
       cx="-32.039772"
       cy="91.613716"
       rx="62.077065"
       ry="40.550339" />
    <path
       style="color:#000000;fill:#56ac88;stroke-width:0.25984;-inkscape-stroke:none"
       d="m -27.415956,78.337883 5.95249,1.387329 -5.95249,-1.387329 v 0 l 15.364609,22.834657 -7.03723,2.24884 19.9094655,13.53866 -8.0533284,-0.19761 15.8559639,19.62151 -7.2576115,-1.16018 6.8672237,9.07468 c 0,0 20.5711988,-10.79251 25.9401628,-8.00051 17.398811,1.92055 24.219822,25.40028 35.324038,29.47966 9.565135,3.15191 19.483453,-9.43921 19.483453,-9.43921 l -4.553576,53.63392 -27.399331,7.93925 -16.213168,-2.89017 c 0,0 -41.1034348,-1.34182 -56.234787,-17.67675 -9.433455,-10.1838 -17.095293,-45.28224 -17.095293,-45.28224 l -3.80478,4.95709 -6.253207,-35.4349 -3.654647,8.35475 1.741863,-40.974806 z"
       id="rect5010" />
    <path
       style="color:#000000;fill:#56ac88;stroke-width:0.311607;-inkscape-stroke:none"
       d="m 45.016939,424.9974 c 13.34122,-1.73276 37.79651,1.06198 37.79651,1.06198 0,0 5.67244,16.90125 0,17.02113 -28.02674,0.5923 -35.07548,0.53663 -51.27597,-0.177 -10.524,-0.46358 -25.69569,-12.81801 13.47946,-17.90611 z"
       id="rect5149" />
    <path
       style="color:#000000;fill:#56ac88;stroke-width:0.284412;-inkscape-stroke:none"
       d="m 126.53257,421.82151 c 9.15766,-2.10295 25.94424,1.28887 25.94424,1.28887 0,0 3.89366,20.51208 0,20.65757 -19.23809,0.71884 -24.07647,0.65128 -35.1968,-0.21481 -7.22386,-0.56262 -17.638004,-15.55649 9.25256,-21.73163 z"
       id="rect5149-9" />
    <path
       style="fill:#2a664d;fill-opacity:1;stroke-width:0.475138;image-rendering:auto"
       d="m -300.26934,187.2845 c 0.32488,-2.66012 1.2164,-6.98897 1.98118,-9.61971 1.42287,-4.89427 5.84354,-16.68342 6.52646,-17.40493 0.20879,-0.22059 1.03004,-0.0574 1.82499,0.36265 l 1.44529,0.76376 0.51472,-2.04371 c 2.01878,-8.01587 4.64837,-11.89001 8.07045,-11.89001 0.74556,0 2.05061,-0.97009 3.92264,-2.91583 8.87058,-9.2196 17.54099,-15.06117 25.31743,-17.05731 3.3733,-0.86587 3.41278,-0.93001 2.63758,-4.28233 14.75502,-9.95808 11.36434,-32.38653 12.92502,-37.22376 1.4852,-4.09461 3.51892,-9.071637 4.51937,-11.060067 1.64701,-3.27361 6.60164,-10.04705 7.3816,-10.09144 0.17431,-0.01 1.13605,-0.73462 2.13722,-1.61045 l 1.82027,-1.59243 -2.8671,-1.7798 c -1.57692,-0.978877 -2.96838,-1.947217 -3.09216,-2.151849 -0.12378,-0.204632 3.20271,-0.869583 7.39217,-1.477674 4.18943,-0.608091 7.78058,-1.254298 7.98044,-1.436021 0.19982,-0.181722 0.0381,-1.125145 -0.35889,-2.096517 -0.45535,-1.113791 -0.53643,-1.766104 -0.2195,-1.766104 0.27645,0 5.05804,1.204543 10.62586,2.676752 5.5678,1.472224 10.18917,2.60693 10.26976,2.521602 0.0806,-0.08538 -0.47261,-1.545816 -1.22936,-3.245514 -0.75674,-1.699711 -1.31844,-3.259024 -1.24811,-3.465132 0.19403,-0.568556 12.31186,6.661179 16.55715,9.878209 6.92109,5.244748 8.15582,6.190876 11.08677,12.760616 0.63096,1.41428 5.53578,3.611256 6.35671,7.045446 1.82496,7.634393 6.38435,13.974433 10.55534,18.811363 4.47979,5.19504 5.70449,7.99626 5.91182,13.52198 0.14629,3.90099 -3.68175,11.19283 -4.76582,14.06224 -0.19481,0.51559 -0.0982,0.84053 0.24997,0.84053 1.35406,0 12.87789,6.10214 17.61821,9.32925 4.56455,3.10745 12.80573,9.94225 13.62866,11.30292 0.1891,0.31252 0.72318,0.2051 1.47141,-0.29587 0.67805,-0.454 1.33483,-0.60405 1.55345,-0.35491 0.20832,0.23742 1.70183,3.6737 3.31894,7.63624 1.61709,3.96252 3.00247,7.27456 3.07859,7.36007 0.0761,0.0854 0.81229,-0.20068 1.63586,-0.63579 0.82358,-0.43521 1.55663,-0.72132 1.62895,-0.63581 0.0724,0.0856 1.7616,6.0993 3.753934,13.36394 0.83818,1.49974 4.2338,19.54798 5.75975,17.50158 C -140.801,216.71152 -229.03887,207.0271 -229.03887,207.0271 l -59.56109,-7.01559 c -4.19165,-0.49373 -12.8586,-7.89044 -12.39706,-7.89044 0.0753,0 0.4028,-2.17646 0.72768,-4.83657 z"
       id="path760-0" />
    <path
       style="color:#000000;fill:#2a664d;fill-opacity:1;stroke-width:0.234537;-inkscape-stroke:none"
       d="m -92.592316,190.11814 -207.677024,-2.83364 52.22052,80.99874 121.36386,-0.49605 z"
       id="rect4338-9" />
    <rect
       style="fill:#2a664d;fill-opacity:1;stroke-width:0.322412"
       id="rect4729-3-3"
       width="120.64977"
       height="105.13814"
       x="126.68491"
       y="236.74866"
       ry="35.81329"
       transform="scale(-1,1)" />
    <path
       style="color:#000000;fill:#2a664d;fill-opacity:1;stroke-width:0.280776;-inkscape-stroke:none"
       d="m -142.524,305.0128 c 0,0 -60.05424,-19.93531 -48.90724,2.72564 9.72838,19.77697 -2.20916,45.97406 -2.20916,45.97406 l 8.10026,-6.44213 -8.46845,29.62021 13.53111,-12.82759 -10.03328,22.8154 13.8993,-9.89229 c 0,0 8.9071,4.0025 2.35829,17.2267 -3.92285,7.92152 -4.06117,26.8887 -4.06117,26.8887 l 10.56254,-13.79496 10.18351,31.31893 35.07924,-1.34229 -0.0651,-16.1931 -0.0651,-16.19308 -0.0651,-16.1931 c 0,0 5.55285,-9.66188 5.6419,-15.14477 0.0999,-6.14965 -5.77209,-17.24142 -5.77209,-17.24142 l -1.90605,-17.8704 -3.37882,-20.38639 z"
       id="rect4860-60" />
    <path
       style="color:#000000;fill:#2a664d;fill-opacity:1;stroke-width:0.280776;-inkscape-stroke:none"
       d="m -213.34986,302.40759 c 0,0 -60.05425,-19.93531 -48.90725,2.72564 9.72838,19.77697 -2.20916,45.97406 -2.20916,45.97406 l 8.10026,-6.44213 -2.7113,20.35871 7.77396,-3.56609 -5.27738,15.05577 9.1434,-2.13266 c 0,0 8.9071,4.0025 2.35829,17.2267 l 6.50137,13.09374 10.18351,31.31893 35.07925,-1.34229 -0.0651,-16.1931 -0.0651,-16.19308 -0.0651,-16.1931 c -0.49838,-9.20811 0.25194,-19.73519 -0.13019,-32.38619 l -1.90605,-17.8704 -3.37882,-20.38639 z"
       id="rect4860-62-6" />
    <path
       style="color:#000000;fill:#2a664d;fill-opacity:1;stroke-width:0.311607;-inkscape-stroke:none"
       d="m -120.89819,434.18429 c -13.34122,-1.73276 -37.7965,1.06198 -37.7965,1.06198 0,0 -5.67244,16.90125 0,17.02113 28.02673,0.5923 35.07547,0.53663 51.27596,-0.177 10.524004,-0.46358 25.695694,-12.81801 -13.47946,-17.90611 z"
       id="rect5149-1" />
    <path
       style="color:#000000;fill:#2a664d;fill-opacity:1;stroke-width:0.284412;-inkscape-stroke:none"
       d="m -202.41381,431.0084 c -9.15766,-2.10295 -25.94424,1.28887 -25.94424,1.28887 0,0 -3.89366,20.51208 0,20.65757 19.23809,0.71884 24.07647,0.65128 35.1968,-0.21481 7.22386,-0.56262 17.638,-15.55649 -9.25256,-21.73163 z"
       id="rect5149-9-8" />
    <path
       style="color:#000000;fill:#214f3c;fill-opacity:1;stroke-width:0.175116;-inkscape-stroke:none"
       d="m -203.82018,159.98529 c 0,0 -2.33705,1.45693 -0.89234,4.58847 21.63017,46.88553 0.14873,99.36752 -3.23778,105.89329 -1.38891,2.6764 -2.52614,7.0624 4.13012,7.0624 6.65627,0 12.01492,-2.34738 12.01492,-5.26317 V 165.24847 c 0,-2.91579 -5.55394,-6.70124 -12.01492,-5.26318 z"
       id="rect16529-7" />
    <ellipse
       style="fill:#4f9c7c;fill-opacity:1;stroke-width:0.264583"
       id="path18201-9"
       cx="153.09271"
       cy="89.423546"
       rx="3.0037289"
       ry="2.8159959"
       transform="scale(-1,1)" />
    <path
       style="color:#000000;fill:#5ebd95;stroke-width:0.0679142;-inkscape-stroke:none"
       d="m 68.408039,143.17691 17.86838,13.14751 c 5.21524,3.83736 20.074781,6.81285 20.316581,13.6035 l 0.41443,11.63909 c 0.24179,6.79065 2.15176,27.19827 -4.15388,27.64237 l -37.968151,2.67406 c -22.42267,-5.29426 -24.09481,-17.97899 -28.19072,-38.83578 -1.30574,-6.64896 26.49812,-33.7081 31.71336,-29.87075 z"
       id="rect18603-7-3-6" />
    <path
       style="color:#000000;fill:#5ebd95;stroke-width:0.0679142;-inkscape-stroke:none"
       d="m 160.18583,145.27523 -33.40944,11.81047 c -6.00312,2.12214 -16.05579,5.69483 -16.1723,12.48931 l -0.2072,12.08477 c -0.11649,6.79447 -6.50487,27.89397 -0.19763,28.31088 l 40.45473,2.67406 c 22.42266,-5.29426 21.60823,-17.97898 25.70414,-38.83577 1.30574,-6.64896 -10.16918,-30.65586 -16.1723,-28.53372 z"
       id="rect18603-7-3-6-1" />
    <rect
       style="fill:#5ebd95;fill-opacity:1;stroke-width:0.110136"
       id="rect18603"
       width="82.068726"
       height="75.744255"
       x="55.399891"
       y="217.47646"
       ry="26.334927" />
    <ellipse
       style="fill:#397159;fill-opacity:1;stroke-width:0.189851"
       id="path22039"
       cx="86.399216"
       cy="273.19662"
       rx="6.371871"
       ry="4.424911" />
    <path
       style="color:#000000;fill:#2a664d;fill-opacity:1;stroke-width:0.280368;-inkscape-stroke:none"
       d="m -30.035914,84.409704 -7.819889,-1.220517 6.923711,-1.639608 v 0 l -18.651756,23.688511 8.027845,1.99153 -23.518522,14.47613 9.299277,-0.52124 -19.088433,20.46116 8.420248,-1.46218 -8.290569,9.4444 c 0,0 -23.296003,-10.08474 -29.603408,-7.04897 -20.15114,2.63547 -28.97213,26.63472 -41.94857,31.20042 -11.16318,3.56701 -22.09589,-8.76062 -22.09589,-8.76062 l 3.08012,54.01668 31.28936,6.9288 18.82253,-3.56796 c 0,0 47.476126,-2.99715 65.595376,-20.1082 11.29622,-10.66767 21.558121,-46.4415 21.558121,-46.4415 l 4.18876,4.85735 8.650372,-36.05758 3.877864,8.29676 -0.349185,-41.336576 z"
       id="rect5010-78" />
    <path
       style="color:#000000;fill:#56ac88;stroke-width:0.291047;-inkscape-stroke:none"
       d="m 172.55342,349.87507 7.93135,-14.3968 2.92137,7.08891 v 0 l 7.62091,-30.72713 6.51617,5.87021 -2.76399,-29.45484 5.27485,8.50672 4.75935,-29.16412 3.98029,8.3002 2.51533,-13.00321 c 0,0 -22.37012,-14.4364 -23.79188,-21.82496 -10.21987,-19.34255 3.67008,-41.59685 -0.60527,-55.78376 -3.96787,-11.98684 -20.57096,-14.17827 -20.57096,-14.17827 l 45.30529,-29.8855 24.72757,23.3827 8.65684,18.73488 c 0,0 26.65991,43.63265 24.00001,69.92118 -1.65828,16.38927 -24.13056,47.01886 -24.13056,47.01886 l 6.46914,0.75867 -23.68707,29.38116 9.04342,-1.59089 -33.44072,24.63891 z"
       id="rect5010-4" />
    <path
       style="color:#000000;fill:#2a664d;fill-opacity:1;stroke-width:0.291047;-inkscape-stroke:none"
       d="m -232.37093,345.55368 -7.93135,-14.3968 -2.92137,7.08891 v 0 l -7.62091,-30.72713 -6.51617,5.87021 2.76399,-29.45484 -5.27485,8.50672 -4.75935,-29.16412 -3.98029,8.3002 -2.51533,-13.00321 c 0,0 22.37012,-14.4364 23.79188,-21.82496 10.21987,-19.34255 -3.67008,-41.59685 0.60527,-55.78376 3.96787,-11.98684 20.57096,-14.17827 20.57096,-14.17827 l -45.30529,-29.8855 -24.72757,23.3827 -8.65684,18.73488 c 0,0 -26.65991,43.63265 -24.00001,69.92118 1.65828,16.38927 24.13056,47.01886 24.13056,47.01886 l -6.46914,0.75867 23.68707,29.38116 -9.04342,-1.59089 33.44072,24.63891 z"
       id="rect5010-4-5" />
    <g
       id="g35577"
       transform="translate(-25.204861,17.453468)">
      <path
         style="color:#000000;fill:#91caac;fill-opacity:1;stroke-width:0.0307798;-inkscape-stroke:none"
         d="m 136.32887,55.704865 h 30.80558 c 1.25098,0 0,3.752949 0,3.752949 -2.27411,-4.844363 -20.16201,-0.629537 -30.80558,0 z"
         id="rect4729-2" />
      <path
         style="color:#000000;fill:#000000;fill-opacity:1;stroke:#91caac;stroke-width:0.825866;stroke-miterlimit:4;stroke-dasharray:none;stroke-opacity:1"
         d="m 125.75474,53.596554 c -1.76894,-0.133665 -5.25263,0.79157 -5.25263,0.79157 -3.08634,0.318104 -4.85654,3.528071 -4.66945,5.306388 l 0.32932,3.130257 c 0.30061,2.857498 4.46832,5.60702 7.75799,7.230233 5.48515,2.706535 10.46935,1.206175 10.46935,1.206175 2.53903,-1.161838 3.81997,-1.039984 5.35493,-6.910189 0.83219,-3.182589 -0.31962,-5.69891 -0.88027,-6.668648 -2.4472,-4.232881 -8.50228,-3.737673 -13.10924,-4.085786 z"
         id="rect23451-3" />
      <rect
         style="fill:#91caac;fill-opacity:1;stroke:none;stroke-width:1.00829;stroke-miterlimit:4;stroke-dasharray:none;stroke-opacity:1"
         id="rect26071"
         width="17.767385"
         height="0.45673069"
         x="104.42556"
         y="53.862286"
         ry="0" />
      <g
         id="rect26071-1"
         transform="matrix(0.18324058,0,0,0.20462528,123.31756,69.119463)"
         style="fill:#91caac;fill-opacity:1">
        <path
           style="color:#000000;fill:#91caac;fill-opacity:1;-inkscape-stroke:none"
           d="m -66.900154,-51.34569 v 2.035156 6.65625 c 17.019669,-27.661221 20.924117,-13.352426 27.601226,-1.630235 l 1.828462,-7.061171 c 9.040836,-15.344296 -31.518243,-16.143759 -29.429688,0 z"
           id="path26203" />
      </g>
      <path
         style="color:#000000;fill:#000001;fill-opacity:1;stroke:#91caac;stroke-width:0.825866;stroke-miterlimit:4;stroke-dasharray:none;stroke-opacity:1"
         d="m 101.99117,53.292115 c 1.76893,-0.133665 5.25262,0.79157 5.25262,0.79157 3.08634,0.318104 4.85654,3.52807 4.66946,5.306387 l -0.32932,3.130258 c -0.30062,2.857498 -4.46833,5.607018 -7.758,7.230233 -5.48515,2.706536 -10.46935,1.206175 -10.46935,1.206175 -2.53903,-1.161838 -3.81997,-1.039984 -5.35493,-6.910189 -0.83218,-3.182589 0.31963,-5.698911 0.88027,-6.668649 2.44721,-4.23288 8.50228,-3.737672 13.10925,-4.085785 z"
         id="rect23451-3-0" />
      <path
         style="color:#000000;opacity:0.3;fill:#f2f2f2;stroke-width:2.7752;-inkscape-stroke:none"
         d="m 136.32887,55.704863 c 1.1212,0.717102 2.06926,1.614885 2.69048,3.118716 l -15.55972,10.588258 c -2.15371,-1.090385 -4.11311,-2.404969 -5.7255,-4.119959 z"
         id="rect31640" />
      <path
         style="color:#000000;opacity:0.300175;fill:#f2f2f2;stroke-width:2.7752;-inkscape-stroke:none"
         d="m 110.02528,56.356558 c 0.90585,-0.202019 1.29179,2.008364 1.4317,2.234154 L 92.62436,70.204944 c -2.6847,-0.86914 -3.42605,-3.329865 -2.91449,-3.474012 z"
         id="rect31640-6" />
    </g>
    <path
       style="color:#000000;fill:#91caac;fill-opacity:1;stroke-width:0.0307798;-inkscape-stroke:none"
       d="m -158.32572,85.05093 h -30.80558 c -1.25098,0 0,3.75295 0,3.75295 2.27411,-4.84436 20.16201,-0.62953 30.80558,0 z"
       id="rect4729-2-20" />
    <path
       style="color:#000000;fill:#000000;fill-opacity:1;stroke:#91caac;stroke-width:0.542637;stroke-miterlimit:4;stroke-dasharray:none;stroke-opacity:1"
       d="m -152.93916,82.96671 c 0.36742,-0.006 0.91308,0.61772 0.91308,0.61772 0.55806,1.38008 0.88218,3.28156 1.43056,5.48023 l 0.73391,2.94253 c 0.69223,2.77542 -0.86523,5.79475 -2.28544,7.41796 -2.36803,2.70654 -4.5198,1.20618 -4.5198,1.20618 -1.09615,-1.16184 -1.64915,-1.03998 -2.31182,-6.91019 -0.35927,-3.18259 0.13798,-5.69891 0.38003,-6.66865 1.0565,-4.23288 3.33301,-4.0503 5.65948,-4.08578 z"
       id="rect23451-3-6" />
    <path
       style="color:#000000;opacity:0.3;fill:#f2f2f2;stroke-width:1.79981;-inkscape-stroke:none"
       d="m -156.86294,84.15134 c -0.68252,0.58434 -1.50993,2.40299 -1.27504,2.77521 l 6.72237,10.92834 c 0.94982,-1.0399 1.38886,-2.73232 1.44446,-4.38402 z"
       id="rect31640-65" />
    <path
       style="color:#000000;fill:#56ac88;fill-opacity:1;stroke-width:4.265;-inkscape-stroke:none"
       d="m -10.59037,84.823317 -5.226152,-8.98001 -10.152678,7.869607 -4.003293,-8.678541 c 0,0 -3.895424,-6.94048 -7.245438,-6.965086 -1.957271,-0.01438 -2.861682,2.671188 -4.292522,4.006782 l -4.292522,4.006781 -4.292522,4.006782 c 0,0 -3.827823,2.105421 -4.292522,4.006782 -0.571559,2.338593 0.635214,5.182673 2.41127,6.807866 10.137878,9.27652 39.925402,10.26826 39.925402,10.26826 z"
       id="rect36542-9" />
    <path
       style="color:#000000;fill:#2a664d;stroke-width:4.265;-inkscape-stroke:none"
       d="m -40.832547,97.579029 4.776795,-23.849222 c 2.8021,-1.566816 7.69435,-6.617216 8.4063,-4.700449 l 3.42324,1.703749 -3.189744,7.604776 c 0,0 9.015949,-9.079542 12.793993,-6.215008 1.771243,1.342966 14.69444248,7.816322 11.2001712,12.493379 -6.4426623,8.623458 -2.8036618,29.101956 -14.0798802,31.827676 -9.721216,2.34984 -23.330875,-18.864901 -23.330875,-18.864901 z"
       id="rect36542" />
    <path
       style="color:#000000;fill:#56ac88;stroke-width:3.23882;-inkscape-stroke:none"
       d="m -26.335321,71.845354 c 1.369812,-1.63143 4.28012,-1.982192 5.849421,-0.616933 1.093997,0.951755 0.808963,4.681437 0.808963,4.681437 0,0 -4.441301,9.126511 -7.34289,7.439489 -2.949474,-1.714864 -1.621377,-8.757712 0.684506,-11.503993 z"
       id="rect38556" />
    <path
       style="color:#000000;fill:#56ac88;fill-opacity:1;stroke-width:3.97712;-inkscape-stroke:none"
       d="m -25.743195,91.14174 1.795126,-2.908774 0.212575,-2.749734 -7.196598,-3.933653 -5.943435,-9.431918 -1.014335,5.202628 -6.096799,1.88224 -4.400366,3.33905 -4.400364,3.33905 11.922071,10.672752 6.833301,-2.253474 4.626256,-1.190255 z"
       id="rect36542-9-3" />
    <path
       style="color:#000000;fill:#56ac88;fill-opacity:1;stroke-width:6.01572;-inkscape-stroke:none"
       d="m 205.47326,354.34142 3.00934,-3.96982 0.35637,-3.75277 -12.06436,-5.36853 -9.96357,-12.87243 -1.70042,7.1004 -10.22067,2.56883 -7.37676,4.55705 -7.37675,4.55704 19.98613,14.56588 11.45532,-3.07548 7.75546,-1.62443 z"
       id="rect36542-9-3-7" />
  </g>
</svg>
