<?xml version="1.0" encoding="UTF-8" standalone="no"?>
<!-- Created with Inkscape (http://www.inkscape.org/) -->

<svg
   width="536.48376mm"
   height="505.84378mm"
   viewBox="0 0 536.48376 505.84378"
   version="1.1"
   id="svg120864"
   xmlns="http://www.w3.org/2000/svg"
   >
  <defs
     id="defs120861">
    <clipPath
       clipPathUnits="userSpaceOnUse"
       id="clipPath130669">
      <path
         style="display:block;fill:none;stroke:#000000;stroke-width:0.264583px;stroke-linecap:butt;stroke-linejoin:miter;stroke-opacity:1"
         d="m 45.617405,53.146598 -0.04083,-1.861884 4.986189,-2.599275 6.946125,-3.066306 7.133854,-2.628262 4.255284,-1.314133 9.636963,-2.315374 14.768335,-1.971196 9.386655,-0.312888 9.85599,0.625776 6.94612,0.876089 14.14256,3.097593 9.44923,3.160173 7.94736,3.410484 3.03502,1.501865 -0.0317,3.397338 H 45.617405"
         id="path130671" />
    </clipPath>
  </defs>
  <g
     id="layer1"
     transform="translate(-28.140928,125.05916)">
    <g
       id="rect126201"
       transform="matrix(-2.0026736,0.07797106,0.07316428,2.1342459,544.5097,-94.964779)"
       style="mix-blend-mode:multiply;fill:#66e5b2;stroke-opacity:0">
      <path
         style="color:#000000;stroke-width:0.264583;stroke-opacity:1;-inkscape-stroke:none"
         d="m 206.5442,15.002454 47.91902,69.842724 c 11.72385,17.032082 1.61487,32.032522 -3.4997,29.188952 L 206.15608,33.261521 Z"
         id="path126304" />
    </g>
    <g
       id="path124778"
       transform="matrix(-2.0026736,0.07797106,0.07316428,2.1342459,332.87644,-374.77405)">
      <path
         style="color:#000000;fill:#749899;fill-opacity:0.939963;stroke-width:1.321;-inkscape-stroke:none"
         d="M 115.766,258.55188 A 105.15779,93.476013 0 0 1 10.608209,352.02789 105.15779,93.476013 0 0 1 -94.549582,258.55188 105.15779,93.476013 0 0 1 10.608209,165.07587 105.15779,93.476013 0 0 1 115.766,258.55188 Z"
         id="path148245" />
      <path
         style="color:#000000;fill:#ffffff;-inkscape-stroke:none"
         d="m 10.607422,164.41602 c -58.394291,0 -105.818358,42.10982 -105.818359,94.13671 10e-7,52.0269 47.424068,94.13477 105.818359,94.13477 58.394291,0 105.818358,-42.10787 105.818358,-94.13477 0,-52.02689 -47.424067,-94.13671 -105.818358,-94.13671 z m 0,1.32031 c 57.759678,0 104.498048,41.59265 104.498048,92.8164 0,51.22376 -46.73837,92.81446 -104.498048,92.81446 -57.759679,0 -104.496092,-41.5907 -104.496094,-92.81446 2e-6,-51.22375 46.736415,-92.8164 104.496094,-92.8164 z"
         id="path148247" />
    </g>
    <path
       style="color:#000000;fill:#28170b;stroke-width:3.94606;-inkscape-stroke:none"
       d="m 129.22171,154.82465 c -1.82788,76.23332 38.95597,129.09346 100.41742,172.0021 61.46144,42.90865 137.06048,47.23353 196.53156,11.24317 59.47107,-35.99034 93.09463,-106.41383 87.40969,-183.07693 l -190.14896,0.12292 z"
       id="path124778-2" />
    <g
       id="path124672"
       transform="matrix(-2.0776175,-0.05068704,-0.0904765,2.551559,790.97939,-153.23171)">
      <path
         style="color:#000000;fill:#502d16;stroke-width:0.956812;-inkscape-stroke:none"
         d="m 313.32447,126.95683 a 93.062828,27.693077 0 0 1 -93.06283,27.69308 93.062828,27.693077 0 0 1 -93.06283,-27.69308 93.062828,27.693077 0 0 1 93.06283,-27.693074 93.062828,27.693077 0 0 1 93.06283,27.693074 z"
         id="path148259" />
      <path
         style="color:#000000;fill:#ffffff;fill-opacity:0;-inkscape-stroke:none"
         d="m 220.26172,98.785156 c -25.73703,0 -49.03661,3.100434 -65.94141,8.130864 -8.4524,2.51521 -15.30767,5.51074 -20.08398,8.87109 -4.77632,3.36035 -7.51563,7.12909 -7.51563,11.16992 0,4.04083 2.73932,7.80958 7.51563,11.16992 4.77631,3.36035 11.63158,6.35588 20.08398,8.8711 16.9048,5.03043 40.20437,8.13086 65.94141,8.13086 25.73703,0 49.0366,-3.10043 65.9414,-8.13086 8.45241,-2.51522 15.30768,-5.51075 20.08399,-8.8711 4.77631,-3.36034 7.51563,-7.12909 7.51562,-11.16992 0,-4.04083 -2.73931,-7.80957 -7.51562,-11.16992 -4.77631,-3.36035 -11.63158,-6.35588 -20.08399,-8.87109 -16.9048,-5.03043 -40.20437,-8.130864 -65.9414,-8.130864 z m 0,0.957031 c 25.66009,0 48.89068,3.099313 65.66797,8.091793 8.38864,2.49625 15.16449,5.46842 19.80664,8.73438 4.64215,3.26595 7.10937,6.78227 7.10937,10.38867 0,3.6064 -2.46722,7.12272 -7.10937,10.38867 -4.64215,3.26596 -11.418,6.23814 -19.80664,8.73438 -16.77729,4.99248 -40.00787,8.0918 -65.66797,8.09179 -25.6601,10e-6 -48.89264,-3.09931 -65.66992,-8.09179 -8.38865,-2.49624 -15.16254,-5.46842 -19.80469,-8.73438 -4.64215,-3.26595 -7.10938,-6.78227 -7.10938,-10.38867 1e-5,-3.6064 2.46723,-7.12272 7.10938,-10.38867 4.64215,-3.26596 11.41604,-6.23813 19.80469,-8.73438 16.77728,-4.99248 40.00982,-8.091793 65.66992,-8.091793 z"
         id="path148261" />
    </g>
    <path
       style="color:#000000;fill:#66e5b2;stroke-width:0.442738;-inkscape-stroke:none"
       d="m 215.64001,-90.950942 -83.67326,44.10956 -3.79271,41.9338311 c 0,0 59.09023,13.95579 77.9349,-4.8388745 18.84469,-18.7946016 9.53107,-81.2045166 9.53107,-81.2045166 z"
       id="path168905" />
    <g
       id="rect144547-8"
       transform="matrix(-0.83265374,1.9425965,1.8228389,0.88735771,325.99325,-363.79078)">
      <path
         style="color:#000000;fill:#ffffff;fill-opacity:0.69606;stroke-width:0.391514;-inkscape-stroke:none"
         d="m 202.64272,29.779851 c 6.66537,-9.993704 88.97971,-17.536978 109.4975,31.047561 0,0 -2.24627,-8.908274 -23.53869,-9.891704 -12.99354,-29.13346 -68.10181,-24.864445 -85.95881,-21.155857 z"
         id="path144570-4" />
    </g>
    <g
       id="rect125005"
       transform="matrix(-2.0026736,0.07797106,0.07316428,2.1342459,525.37219,-63.671029)"
       style="fill:#3cc18c">
      <path
         style="color:#000000;stroke-width:0.264583;-inkscape-stroke:none"
         d="M 17.699642,-4.2479131 153.98687,-18.407627 c 0,0 18.59288,29.047762 0.24586,47.48205 C 135.8857,47.508711 45.665077,29.027412 45.665077,29.027412 Z"
         id="path125028" />
    </g>
    <g
       id="rect125005-3"
       transform="matrix(-2.0026736,0.07797106,0.07316428,2.1342459,504.37919,-62.569715)"
       style="fill:#04643e">
      <path
         style="color:#000000;stroke-width:0.264583;-inkscape-stroke:none"
         d="M 17.699642,-4.2479131 129.99186,-15.46856 l 5.56568,6.4938245 -91.761746,8.33189209 z"
         id="path125028-6" />
    </g>
  </g>
</svg>
