<?xml version="1.0" encoding="UTF-8" standalone="no"?>
<!-- Created with Inkscape (http://www.inkscape.org/) -->

<svg
   width="363.55847mm"
   height="91.091415mm"
   viewBox="0 0 363.55847 91.091412"
   version="1.1"
   id="svg5"
   xmlns="http://www.w3.org/2000/svg"
   >
  <defs
     id="defs2">
    <clipPath
       clipPathUnits="userSpaceOnUse"
       id="clipPath20555">
      <path
         style="display:none;fill:none;stroke:#000000;stroke-width:0.264583px;stroke-linecap:butt;stroke-linejoin:miter;stroke-opacity:1"
         d="m 132.41545,72.468973 c 5.49795,4.093043 5.49795,4.093043 5.49795,4.093043 l -6.34975,0.165934 z"
         id="path20557" />
      <path
         id="lpe_path-effect20559"
         style="fill:none;stroke:#000000;stroke-width:0.264583px;stroke-linecap:butt;stroke-linejoin:miter;stroke-opacity:1"
         class="powerclip"
         d="m 121.25369,36.869478 h 32.10039 v 56.40447 h -32.10039 z" />
    </clipPath>
    <clipPath
       clipPathUnits="userSpaceOnUse"
       id="clipPath21343">
      <path
         style="fill:none;stroke:#000000;stroke-width:0.264583px;stroke-linecap:butt;stroke-linejoin:miter;stroke-opacity:1"
         d="m 132.41545,72.468973 c 5.49795,4.093043 5.49795,4.093043 5.49795,4.093043 l 11.30309,-17.707702 -5.41297,-12.515538 -9.10505,-4.443016 -3.56693,-0.5632 0.12515,1.501865 1.15769,3.785952 z"
         id="path21345" />
    </clipPath>
    <clipPath
       clipPathUnits="userSpaceOnUse"
       id="clipPath21481">
      <path
         style="fill:none;stroke:#000000;stroke-width:0.264583px;stroke-linecap:butt;stroke-linejoin:miter;stroke-opacity:1"
         d="m 139.48566,77.987438 6.54745,6.450917 12.1007,-4.276341 -4.81848,-32.102351 -2.28409,0.500621 -1.22026,4.881059 -0.90738,6.539368 -9.01119,14.61189 z"
         id="path21483" />
    </clipPath>
    <clipPath
       clipPathUnits="userSpaceOnUse"
       id="clipPath21672">
      <path
         style="fill:none;stroke:#000000;stroke-width:0.264583px;stroke-linecap:butt;stroke-linejoin:miter;stroke-opacity:1"
         d="m 146.53921,86.269163 5.22416,9.032349 c 0,0 14.25927,-5.38733 14.39202,-5.741321 0.13275,-0.353994 -0.57524,-14.557957 -0.57524,-14.557957 l -4.20366,-0.796483 z"
         id="path21674" />
    </clipPath>
    <clipPath
       clipPathUnits="userSpaceOnUse"
       id="clipPath21885">
      <ellipse
         style="display:none;fill:#ff0000;fill-opacity:1;stroke:#000000;stroke-width:0.41207;stroke-opacity:0"
         id="ellipse21887"
         cx="101.501"
         cy="28.034803"
         rx="14.068812"
         ry="1.678431"
         d="M 115.56981,28.034803 A 14.068812,1.678431 0 0 1 101.501,29.713234 14.068812,1.678431 0 0 1 87.432187,28.034803 14.068812,1.678431 0 0 1 101.501,26.356372 a 14.068812,1.678431 0 0 1 14.06881,1.678431 z" />
      <path
         id="lpe_path-effect21889"
         style="fill:#ff0000;fill-opacity:1;stroke:#000000;stroke-width:0.41207;stroke-opacity:0"
         class="powerclip"
         d="M 76.601921,19.531072 H 126.6504 V 36.913996 H 76.601921 Z m 38.967889,8.503731 A 14.068812,1.678431 0 0 0 101.501,26.356372 14.068812,1.678431 0 0 0 87.432187,28.034803 14.068812,1.678431 0 0 0 101.501,29.713234 14.068812,1.678431 0 0 0 115.56981,28.034803 Z" />
    </clipPath>
  </defs>
  <g
     id="layer1"
     style="display:inline"
     transform="translate(68.839944,-42.853171)">
    <path
       style="color:#000000;fill:#7f6716;fill-opacity:1;stroke-width:0.376919;-inkscape-stroke:none"
       d="M 294.71854,99.09256 111.53536,133.94459 -68.839944,99.244951 2.865166,42.947351 227.55667,42.853171 Z"
       id="path746-3" />
    <path
       style="color:#000000;fill:#c1a33c;fill-opacity:1;stroke-width:0.355415;-inkscape-stroke:none"
       d="M 294.82132,92.781708 111.35781,123.72286 -69.293534,92.917001 2.521306,42.936783 227.55666,42.853165 Z"
       id="path746" />
    <path
       id="path916"
       style="fill:#ffffff;stroke:none;stroke-width:0.288878"
       d="m 108.78401,49.050531 0.35053,0.238034 z m 0,0.238034 c -5.72066,2.043962 -11.047434,4.178939 -13.908974,8.332091 -1.04955,1.523566 -1.07233,3.253601 -2.04616,4.760982 -0.67131,1.039124 -2.14888,1.709058 -3.10167,2.618674 -2.1503,2.053247 -1.62695,4.191211 -0.5739,6.427517 -5.58919,1.510243 -9.74632,3.285889 -14.02198,6.189486 l -1.052,-0.476068 -2.80415,4.523246 -1.40248,-0.476368 -3.8557,9.284229 c -0.82924,-0.697033 -1.12793,1.215868 -1.15926,4.22915 0.01,0.0017 0.0201,0.0029 0.0297,0.0046 0.42806,-0.01711 0.74019,0.05534 0.9328,0.168482 3.55849,0.511623 7.05577,1.888175 10.36276,2.831527 7.14598,2.038486 14.25808,4.128747 21.38371,6.199377 4.027854,1.17054 8.133134,2.67793 12.619514,2.75148 5.26913,0.0867 9.98889,-1.6191 14.72345,-2.99102 6.75724,-1.95802 13.58119,-3.810609 20.33174,-5.778164 3.60411,-1.050623 7.37091,-2.576802 11.25273,-3.087852 0.26163,-0.09404 0.5232,-0.188159 0.78492,-0.2821 -0.0253,-0.0099 -0.0543,-0.01497 -0.079,-0.02611 -0.13553,-0.06102 0.14999,-0.09986 0.41013,-0.09294 0.0727,-0.02605 0.14533,-0.05221 0.21806,-0.07824 -0.14479,-0.01572 -0.29717,-0.0235 -0.42645,-0.06206 -0.035,-0.01045 -0.016,-0.01543 0.0306,-0.01619 0.13897,-0.0023 0.52205,0.03289 0.4207,0.06926 -0.008,0.0029 -0.0164,0.006 -0.0248,0.009 0.0662,0.0072 0.11516,0.03405 0.17481,0.04856 -0.15123,-3.396232 -0.70318,-5.282824 -1.89429,-3.896688 h -0.35051 c -0.10266,-3.38399 -1.98562,-6.233275 -3.85612,-9.284227 l -1.40252,0.476369 c -0.45957,-1.348359 -1.37414,-4.166926 -3.85568,-4.047178 h -0.35052 c -3.54934,-2.511514 -8.27411,-5.576032 -13.67192,-5.951451 0.58648,-2.343432 1.76409,-4.196915 -0.33992,-6.427519 -0.98435,-1.043642 -2.83499,-1.756176 -3.55329,-2.89718 -2.44368,-3.880819 -2.71154,-6.854586 -8.37575,-9.481789 l 2.80413,-1.19017 -7.01077,-0.714402 0.70103,-1.19017 -9.46485,1.666538 z m 9.36021,14.816871 c 0.15208,0.0014 0.3037,0.0062 0.45515,0.01469 1.55539,0.08764 2.81221,0.687766 3.50559,1.594288 l -4.55714,-0.443392 -6.66027,1.160491 -5.95966,-1.078946 -5.258204,0.123813 c 3.201934,-2.622211 7.461674,-0.41526 11.568374,-0.565706 2.27554,-0.08326 4.62488,-0.825027 6.90616,-0.805238 z m -22.731064,0.0021 c 0.45949,-0.01832 0.9452,0.03616 1.45196,0.178675 v 0.476068 c -4.25009,1.668308 -4.95933,3.801006 -2.80414,6.665552 -5.08267,-0.15684 -3.08954,-7.143198 1.35218,-7.320295 z m 30.911704,0.201769 c 4.33711,0.02472 6.34886,6.548772 1.38882,7.118536 1.54032,-3.632525 1.04879,-4.150202 -2.80413,-6.903586 0.49329,-0.150333 0.96664,-0.217507 1.41531,-0.21495 z m -15.18523,5.578212 c 1.63037,0.02618 3.23467,0.173923 3.9391,0.493755 6.55006,2.974766 7.34236,12.484608 -1.03653,14.324314 -5.38831,1.183136 -12.17129,-1.212643 -13.10377,-5.183686 -0.37403,-1.593315 0.99074,-3.545255 1.82014,-4.999315 0.80592,-1.412628 1.89755,-3.907915 4.28654,-4.399733 0.80767,-0.166286 2.46413,-0.261521 4.09452,-0.235335 z m -5.1602,3.206865 3.64467,3.342968 1.61396,1.89408 4.55717,-5.237048 c -2.35535,0.0046 -3.59593,0.276454 -4.90768,1.666236 -1.56698,-1.203625 -2.52121,-1.660527 -4.90812,-1.666236 z m 4.97875,6.931765 c -2.23721,0.0055 -4.49796,0.358692 -6.73133,0.923956 0.2482,0.553489 0.46055,0.959739 1.42281,1.046872 1.23291,0.111647 2.60111,-0.253574 3.83539,-0.311184 2.54114,-0.119035 6.22658,0.878796 8.06277,-0.497653 -2.13872,-0.825584 -4.35241,-1.167555 -6.58964,-1.161991 z m 29.21915,100.194643 c -0.16304,0.0131 -0.3261,0.0268 -0.48914,0.0399 0.16845,-0.005 0.33131,-0.018 0.48914,-0.0399 z" />
    <path
       id="path783"
       style="fill:none;stroke-width:0.249205"
       d="m 21.002976,28.085248 v 60.889948 60.889644 h 54.0458 c -0.24209,-0.10706 -0.48676,-0.21256 -0.71385,-0.33006 -0.25907,0.018 -0.51784,0.0363 -0.77828,0.0467 -0.60803,0.0243 -0.30325,-0.0953 0.38495,-0.25423 -0.78918,-0.46217 -1.31226,-0.97416 -1.14381,-1.45218 -0.17378,-0.002 -0.34759,-5.8e-4 -0.52137,-0.003 -2.82701,-0.0328 -5.63422,-0.32942 -8.45125,-0.49405 -0.22944,-0.25668 -0.61882,-0.53477 -1.03654,-0.81664 -0.36079,0.0109 -0.7218,0.0179 -1.08421,0.0108 -0.55759,-0.0109 -0.13663,-0.16072 0.57566,-0.35195 -0.16748,-0.11239 -0.32941,-0.22393 -0.48162,-0.33427 -12.36932,0.12007 -24.89233,0.19238 -26.85295,0.0276 -0.41057,-0.0345 -0.67593,-0.20612 -0.8648,-0.45029 -0.0788,0.0125 -0.0906,0.0144 -0.1713,0.0272 0.0421,-0.0311 0.0801,-0.0681 0.12008,-0.10222 -0.36568,-0.53965 -0.42562,-1.36866 -0.80125,-1.89889 8.1676,-1.26706 6.85291,-1.17558 14.30452,-1.47076 0.012,-0.0107 0.0279,-0.0216 0.0405,-0.0324 -1.30968,-0.0105 -2.6194,-0.0183 -3.92896,-0.0357 -2.56608,-0.0341 -5.33867,0.35836 -7.68224,-0.35225 -0.46855,-0.14208 -1.01681,-0.40876 -1.51374,-0.721 -0.17447,8.3e-4 -0.34928,-3e-4 -0.52445,-0.006 -0.41028,-0.0132 -0.28906,-0.14387 0.0677,-0.31058 -0.79254,-0.60429 -1.26545,-1.30019 -0.5814,-1.71331 2.15635,-1.30224 5.61729,-0.84012 8.52322,-1.01359 3.58868,-0.42959 5.52049,-0.65543 7.57759,-0.76597 -0.33752,-0.2593 -0.41431,-0.53944 -0.0429,-0.83462 0.25627,-0.20362 0.55082,-0.35678 0.87231,-0.47427 -0.44963,-0.14379 -0.87652,-0.31666 -1.27094,-0.52703 -0.9283,-0.49512 -1.0329,-1.87632 -0.28828,-2.54763 -1.3846,0.0116 -2.76897,0.0142 -4.15367,0.002 -2.19494,-0.0196 -4.68266,0.32105 -6.55032,-0.46228 -0.86703,-0.36362 -0.38678,-1.84207 0.59109,-2.03677 3.32017,-0.66107 6.91861,-0.0982 10.37778,-0.1472 2.87631,-0.0229 0.608,-0.004 2.81339,-0.0222 -0.60256,-0.14165 -1.1736,-0.32906 -1.69474,-0.58159 -0.84069,-0.40737 0.0788,-1.76299 1.06258,-1.97622 1.27295,-0.27592 2.58536,-0.42571 3.9153,-0.51805 -0.33381,-0.17327 -0.63087,-0.36732 -0.87323,-0.59058 -0.13603,-0.12533 -0.15433,-0.27281 -0.0967,-0.4257 -1.48492,-0.0737 -1.96294,-0.26716 0.62422,-0.721 -2.79121,-0.0278 -5.10563,-0.19817 -7.91047,-0.83703 -0.96509,0.0399 -1.92972,0.0839 -2.89331,0.13641 -0.63917,0.0348 -2.49337,0.40624 -1.87796,0.28391 1.15281,-0.22915 2.29712,-0.49189 3.44293,-0.74948 -1.2265,-0.32532 -2.55746,-0.73471 -4.07068,-1.25912 -0.71348,-0.24726 1.55635,-0.28197 2.35473,-0.32617 7.75278,-0.42952 13.37825,-0.32767 21.14623,-0.31149 -0.11146,-0.24572 -0.26376,-0.48923 -0.35051,-0.7243 -0.11885,-0.32197 -0.22665,-0.64619 -0.31123,-0.97311 -0.0798,-0.30796 -0.12054,-0.61969 -0.181,-0.92966 -0.114,-0.45043 -0.21654,-0.90257 -0.34037,-1.35176 -0.114,-0.17833 -0.20466,-0.36662 -0.26664,-0.55701 -0.13973,0.0499 -0.24347,0.0806 -0.18232,0.0228 0.0508,-0.0479 0.0988,-0.10061 0.14832,-0.15019 -0.0313,-0.11813 -0.052,-0.23391 -0.0636,-0.34807 -0.34492,-0.33875 -0.68025,-0.80318 -1.0436,-1.44918 -0.10254,-0.18228 0.1296,-0.25435 0.53285,-0.26832 -0.69844,-2.34841 -1.26477,-4.72705 -1.31644,-7.12213 -0.0654,-1.31766 -0.67684,-2.25777 1.64575,-2.81983 0.0183,-0.17246 0.0317,-0.36487 0.003,-0.44759 -0.18492,-0.53541 -0.4846,-1.06493 -0.37658,-1.62907 -1e-5,-0.73252 -9e-5,-1.46494 0,-2.19746 -1.5e-4,-0.59967 -8.5e-4,-1.199385 8.6e-4,-1.799049 4.5e-4,-0.177368 -8.6e-4,-0.354771 -0.002,-0.53213 -0.30897,-0.395474 -0.27003,-0.773675 0.007,-1.035178 9e-5,-0.0041 4.5e-4,-0.0084 4.5e-4,-0.01259 -0.006,-0.01315 -0.0139,-0.02569 -0.0184,-0.03897 -0.11993,-0.338205 -0.0557,-0.400154 0.0251,-0.731791 0.0381,-0.06816 0.0788,-0.09557 0.11699,-0.145998 -0.009,-0.0076 -0.0192,-0.01483 -0.0279,-0.02279 -0.009,-0.0084 0.006,0.0027 0.0295,0.02009 0.084,-0.109892 0.18189,-0.185677 0.28608,-0.222147 0.0347,-0.152397 0.11021,-0.358434 0.22647,-0.638553 0.0187,-0.04499 0.12909,-0.01835 0.25692,0.03118 0.0356,-0.0047 0.0898,-0.0045 0.1704,-0.003 -0.0125,-0.06787 -0.0225,-0.136154 -0.0291,-0.204457 -0.002,-0.02994 0.0867,-0.01209 0.13067,-0.01499 0.0631,-0.0043 0.15129,-0.01002 0.24368,-0.0105 0.087,-4.61e-4 0.17726,0.004 0.25296,0.01829 0.13832,-0.0055 0.26429,-0.0017 0.37833,0.0099 0.001,-3.07e-4 0.002,-0.0096 0.006,-0.0096 0.84551,0 3.76807,0.687844 6.70308,1.577799 8.56953,2.598474 32.671994,9.530554 34.220854,9.842144 2.33142,0.46902 6.33164,0.47386 8.88652,0.0108 1.08111,-0.19595 3.39437,-0.75583 5.14077,-1.24414 8.29022,-2.31801 25.96696,-7.41601 29.48446,-8.50327 3.64111,-1.125466 6.66827,-1.850539 6.93264,-1.660542 1e-4,7.3e-5 2e-4,0.01849 4.4e-4,0.01859 0.21324,-0.07664 0.42638,-0.153381 0.63967,-0.22994 -0.0253,-0.0099 -0.0542,-0.01497 -0.079,-0.02608 -0.13553,-0.06102 0.14998,-0.09986 0.41011,-0.09294 0.0727,-0.02605 0.14534,-0.05223 0.21809,-0.07824 -0.14481,-0.01572 -0.29717,-0.0235 -0.42646,-0.06206 -0.035,-0.01043 -0.016,-0.01542 0.0306,-0.01619 0.13897,-0.0022 0.52205,0.03288 0.4207,0.06925 -0.008,0.003 -0.0164,0.006 -0.0248,0.009 0.13589,0.01475 0.26478,0.03649 0.3589,0.09983 0.12072,0.08124 0.20823,0.180006 0.28783,0.283001 0.0497,0.02392 0.11769,0.05351 0.1629,0.07645 0.0149,0.0028 0.0307,0.0042 0.0454,0.0072 0.002,0.0047 0.01,0.0155 0.014,0.02068 0.51391,0.266712 0.7237,0.481707 0.69751,0.84691 0.72728,0.515084 0.64353,0.83379 0.50459,1.443793 0.0117,0.0014 0.0257,0.0057 0.0337,0.0033 -0.0154,0.03903 -0.0291,0.07091 -0.0468,0.117219 0.0985,0.125874 0.24822,0.242519 0.29004,0.379836 0.0282,0.04334 0.0438,0.08598 0.0644,0.128909 0.40853,0.709655 0.20681,1.711954 0.0888,2.370444 -0.0285,0.12206 -0.0947,0.24258 -0.086,0.36605 0.012,0.17122 0.20155,0.31723 0.25074,0.48536 0.15886,0.54253 0.1855,1.02513 0.14789,1.5712 -0.12233,0.61374 -0.0572,1.23628 -0.0451,1.85361 0.003,0.38639 0.0178,0.55753 -0.38363,0.73479 0.23709,0.26098 0.47722,0.62988 0.72929,1.12571 0.0903,0.17779 -0.31058,0.31273 -0.4931,0.45418 -0.0574,0.0445 -0.10932,0.078 -0.16556,0.12022 -0.34433,1.08835 -0.79436,1.81733 -1.52435,2.90558 -0.22726,0.33878 -0.49385,0.66525 -0.72927,1.0013 -0.10588,0.31055 -0.23431,0.63929 -0.36111,0.95483 -0.0171,0.18416 -0.0474,0.35308 -0.0999,0.48956 0.4052,-0.10661 1.08118,0.009 2.53926,0.34806 0.27921,0.0649 0.13081,0.39305 0.14347,0.59329 0.0207,0.32857 -0.0369,0.65746 -0.0438,0.9863 -0.01,0.49629 -0.006,0.99272 -0.009,1.48907 0.0329,0.46669 0.1061,1.6936 0.19248,2.13361 0.0241,0.12262 0.16846,0.26771 0.24633,0.39482 8.6e-4,0.002 0.001,0.004 0.002,0.005 0.0543,0.091 0.0784,0.17401 -0.0283,0.22574 -1.96934,0.95472 -2.47377,1.12291 -2.81297,0.75488 0.0379,0.48303 0.0692,0.96628 0.0928,1.44979 0.84406,-0.0596 1.45648,-0.10604 2.47834,-0.17628 1.48987,-0.10241 3.49941,-1.02316 4.47681,-0.25272 0.18308,0.14431 0.25565,0.31439 0.2534,0.49645 1.41312,-0.1936 3.24199,-0.99142 4.00401,-0.23833 0.36425,0.35998 0.19331,0.80082 -0.1982,1.22465 0.43905,0.23125 0.68127,0.50714 0.48426,0.81962 -0.33258,0.52748 -1.26776,0.49451 -2.26865,0.40023 -0.0338,0.0158 -0.0703,0.0359 -0.10321,0.0506 -0.47897,0.21513 -1.01767,0.33316 -1.58262,0.40741 -0.11817,0.072 -0.24492,0.13265 -0.37967,0.18257 0.39438,-0.02 1.0341,-0.0522 1.45991,-0.0737 2.69746,-0.18434 5.77026,-0.39244 8.78808,-0.58459 1.21401,-0.2065 2.43573,-0.43501 3.5056,-0.21405 2.98186,-0.17435 5.35353,-0.28813 5.86299,-0.23505 0.27411,0.0286 0.48264,0.12119 0.65204,0.25244 0.008,-0.002 0.01,-0.003 0.0194,-0.005 -0.003,0.005 -0.006,0.01 -0.008,0.0141 0.56228,0.44659 0.66424,1.34481 1.11997,1.89587 -4.29673,1.14294 -5.37356,1.48758 -8.00362,1.91657 -0.009,0.13199 -0.32642,0.14573 -0.75532,0.11602 -0.70412,0.10811 -1.79911,0.26232 -2.79708,0.40112 0.22762,0.30948 0.36538,0.66678 0.34258,0.96653 0.0748,-0.002 0.13757,-0.003 0.21278,-0.005 1.20932,-0.0257 4.5253,-0.5029 3.62877,0.0489 -1.01955,0.62746 -2.08192,1.14494 -3.17848,1.57899 0.91457,0.13177 1.8983,0.27985 3.1158,0.47428 0.16609,0.0265 0.2072,0.0409 0.19468,0.0506 0.0309,0.003 0.0618,0.007 0.0928,0.0113 0.38401,-0.0388 0.76758,-0.0796 1.15133,-0.11962 1.64997,-0.25841 3.3011,-0.51367 4.95623,-0.75637 0.88378,-0.1296 -1.71527,0.40831 -2.60768,0.50694 -0.78198,0.0864 -1.56539,0.16782 -2.34855,0.24943 -0.31155,0.0488 -0.62313,0.0972 -0.93458,0.1463 2.27093,0.26847 4.52361,0.58453 6.70795,1.07475 0.989,0.22195 -1.98455,0.44971 -3.01251,0.5639 -0.006,5.8e-4 -0.0121,8.3e-4 -0.0181,0.002 0.25686,0.0132 0.51367,0.0254 0.77035,0.0429 0.15502,0.0106 0.31911,0.0343 0.48604,0.0653 0.82617,-0.24542 1.59087,-0.39184 2.06602,0.0162 0.1081,0.0928 0.16022,0.1931 0.17173,0.2974 0.5714,-0.0843 1.14227,-0.17071 1.71418,-0.25333 1.43366,-0.20709 4.98721,-1.31278 4.35453,-0.41491 -0.48887,0.6938 -1.31819,1.20177 -2.26733,1.64436 0.91876,0.0601 1.82073,0.16878 2.68319,0.38973 1.28571,0.32936 -2.74032,0.18641 -4.08437,0.38073 -0.24112,0.0349 -0.48162,0.0716 -0.72266,0.10673 -0.73388,0.28693 -1.4568,0.58002 -2.0956,0.91885 -1.29914,0.23053 -2.59312,0.47478 -3.8888,0.715 0.20682,0.008 0.36312,0.0164 0.42116,0.0252 0.24057,0.0363 0.42134,0.12229 0.56505,0.23954 0.19065,-0.0208 0.23594,-0.0258 0.43617,-0.0477 -0.0803,0.0936 -0.14707,0.20083 -0.20925,0.31239 0.32298,0.49333 0.36023,1.22544 0.68691,1.7157 -1.08235,0.11725 -1.52835,0.16577 -2.3609,0.25692 -0.22693,0.52819 -1.79739,0.75811 -4.13823,0.80404 -0.0409,0.39285 -0.09,0.68096 -0.18542,0.88348 2.26389,-0.17755 4.53978,-0.48752 6.74943,-0.18377 0.21735,0.0299 0.46671,0.0669 0.72664,0.10792 1.37248,-0.32682 2.70252,-0.53267 3.7749,-0.0108 0.55058,0.26794 0.28776,0.56752 -0.34743,0.85322 0.75103,0.31875 1.17015,0.70942 0.80038,1.17727 -1.15151,1.4569 -4.81522,0.49438 -7.22268,0.74168 -2.34746,0.17439 -4.69321,0.3594 -7.03947,0.54173 0.14332,0.10002 0.27622,0.2094 0.39908,0.32797 0.40424,0.0493 0.81515,0.1013 1.24004,0.16038 0.14167,-0.0123 0.28351,-0.0235 0.42513,-0.0359 1.12304,-0.22614 1.98285,-0.39486 1.2939,-0.22363 -0.21398,0.0532 -0.42698,0.11121 -0.64054,0.16607 1.07592,-0.0958 2.15183,-0.19187 3.22836,-0.2839 0.6153,-0.12482 1.23129,-0.24643 1.85104,-0.35764 0.43444,-0.078 -0.84663,0.20425 -1.27008,0.30638 -0.1938,0.0161 -0.3872,0.0347 -0.58096,0.0513 -0.94615,0.19195 -1.88952,0.39284 -2.83237,0.59449 1.31451,0.20495 2.76641,0.45976 4.37351,0.76057 0.11737,-0.0307 0.23392,-0.063 0.3514,-0.0935 0.191,-0.0497 0.0211,0.022 -0.24458,0.11362 0.38224,0.0717 0.75044,0.13948 1.15309,0.21704 0.62253,0.11992 -1.23455,0.26345 -1.85192,0.39513 -0.67483,0.0561 -1.34893,0.1178 -2.02318,0.17748 1.41975,0.25719 2.8165,0.55404 4.13158,0.9917 0.61362,0.20422 -1.2377,0.42193 -1.90973,0.50605 -2.77912,0.3479 -5.58127,0.6116 -8.38945,0.82953 -0.69101,0.2486 -1.33586,0.47095 -1.92475,0.65864 0.35801,0.11659 0.72433,0.24681 1.0979,0.38973 0.0599,8.2e-4 0.11905,0.006 0.17879,0.007 h 27.25464 V 88.975196 28.085248 H 110.51541 Z M 182.31042,145.69205 c -0.0354,-0.007 -0.0717,-0.0134 -0.10688,-0.02 -0.39704,0.10393 -0.79217,0.21125 -1.18841,0.31658 0.12245,-0.0147 0.24538,-0.0274 0.36774,-0.0423 0.22223,-0.027 0.63435,-0.15304 0.9275,-0.25422 z M 159.5542,98.36735 c -0.006,-0.0051 -0.006,-0.01073 -0.009,-0.01589 -0.007,0.03264 -0.0123,0.05429 -0.0194,0.08874 -0.006,0.02486 0.0178,-0.0441 0.0287,-0.07285 z m -0.009,-0.01589 c 0.008,-0.03847 0.0143,-0.06847 0.0226,-0.104626 -0.0419,-0.0047 -0.0938,-0.02116 -0.0861,-6.39e-4 0.0137,0.0365 0.0381,0.07091 0.0636,0.105228 z m -1.17972,-2.39533 c -0.016,-0.0083 -0.0431,-0.0195 -0.0597,-0.02788 -0.0396,-0.0074 -0.0803,-0.01276 -0.12052,-0.01918 0.1452,0.199952 0.26603,0.413128 0.48515,0.5753 0.19075,0.141148 -0.18661,-0.334124 -0.30503,-0.528233 z M 110.41342,44.590544 c 3.65642,0.02084 7.32326,0.193434 9.47631,0.508745 10.59193,1.551167 18.79707,4.548579 26.1806,9.564232 4.45842,3.028613 7.05825,5.489992 9.46925,8.965249 4.72133,6.805434 6.05404,15.402999 3.49898,22.568866 -0.75038,2.104533 -2.86496,5.54973 -3.40628,5.54973 -0.15563,0 -0.37466,-0.551134 -0.48692,-1.224945 -0.4604,-2.763441 -3.23023,-8.132658 -4.07951,-7.907888 -0.26495,0.07013 -0.59441,0.143828 -0.73194,0.163687 -0.13752,0.01987 -0.48941,-0.478419 -0.78181,-1.107128 -0.90204,-1.939485 -2.01512,-2.861505 -3.45439,-2.861505 -0.20634,0 -1.0504,-0.469242 -1.87576,-1.042973 -3.34443,-2.324792 -7.17336,-4.053886 -10.12128,-4.570313 -1.88522,-0.330257 -1.76208,-0.03676 -1.35175,-3.22785 0.19796,-1.539452 0.14797,-1.875278 -0.40305,-2.721204 -0.34571,-0.530761 -1.29872,-1.450177 -2.11811,-2.043074 -1.71611,-1.241781 -2.03768,-1.637305 -3.37891,-4.158402 -1.57771,-2.965642 -2.88145,-4.480519 -5.03127,-5.846224 -1.0603,-0.673559 -1.92785,-1.252948 -1.92785,-1.287601 0,-0.03466 0.47649,-0.237393 1.05862,-0.450287 0.58213,-0.212895 1.05815,-0.448996 1.05815,-0.524635 0,-0.07564 -1.32681,-0.25499 -2.94846,-0.398721 -1.62166,-0.143729 -3.0451,-0.30154 -3.1635,-0.350756 -0.11837,-0.04921 -0.0879,-0.31731 0.068,-0.595684 0.15584,-0.278375 0.2529,-0.505908 0.21542,-0.505448 -0.0374,4.61e-4 -2.10496,0.365484 -4.59424,0.811234 -2.48927,0.445753 -4.56609,0.782985 -4.61544,0.749478 -0.0493,-0.03351 0.124,-0.408548 0.3854,-0.833419 0.26142,-0.42487 0.41325,-0.814515 0.33727,-0.866095 -0.076,-0.05158 -1.47786,0.443463 -3.11535,1.100232 -3.46744,1.39073 -7.967254,4.272834 -9.251614,5.925368 -0.44222,0.568983 -1.22813,2.093528 -1.74642,3.387939 -0.53117,1.326645 -1.23095,2.59064 -1.60379,2.89718 -2.72594,2.24118 -3.24727,2.747304 -3.52238,3.420015 -0.43276,1.058117 -0.38461,2.615755 0.12006,3.903278 l 0.42689,1.089142 -0.78755,0.203259 c -3.43286,0.886331 -7.94494,2.778422 -11.29336,4.735497 -1.48353,0.867095 -2.26022,1.190198 -2.65536,1.10503 -0.47192,-0.101717 -0.76106,0.215858 -1.8656,2.048173 -1.02182,1.695104 -1.41048,2.141185 -1.77995,2.043375 -0.25996,-0.06882 -0.59246,-0.14113 -0.73899,-0.160988 -0.14655,-0.01987 -1.09907,1.966065 -2.11678,4.413523 -1.01774,2.447457 -1.94247,4.51241 -2.05499,4.588601 -0.30895,0.209199 -1.99414,-1.89137 -2.63772,-3.288108 -1.42826,-3.099766 -2.28175,-8.986867 -1.83865,-12.678761 1.82967,-15.244535 17.94419,-27.679231 39.770844,-30.688704 2.11062,-0.291012 5.75675,-0.421958 9.41318,-0.40112 z M 95.196856,65.255733 c 1.17372,0 1.40782,0.06394 1.40782,0.384333 0,0.211338 -0.47864,0.603996 -1.06349,0.872692 -0.58482,0.268694 -1.41748,0.833026 -1.85058,1.254025 -1.27266,1.237053 -1.2641,2.444803 0.0328,4.522646 0.29555,0.473575 -0.64521,0.487894 -1.61926,0.02458 -2.23944,-1.065202 -1.94832,-4.464371 0.53416,-6.236552 1.0215,-0.729231 1.30969,-0.821728 2.55869,-0.821728 z m 22.350964,0.01528 c 1.11588,-0.0012 2.07473,0.09292 2.61431,0.282404 0.46602,0.163651 1.07505,0.533281 1.35306,0.821426 0.4908,0.508682 0.48554,0.523764 -0.18188,0.522537 -0.37806,-6.39e-4 -1.46165,-0.08723 -2.40771,-0.192468 -1.49529,-0.166327 -2.16252,-0.112502 -5.10588,0.411912 -1.86221,0.331787 -3.40161,0.596288 -3.42085,0.587892 -0.0192,-0.0084 -1.19174,-0.234955 -2.60548,-0.503649 -1.88031,-0.357367 -3.36855,-0.491253 -5.54382,-0.498253 -3.314764,-0.01068 -3.592184,-0.187488 -1.53891,-0.981515 1.39279,-0.538612 3.02769,-0.582424 5.87314,-0.15739 2.50812,0.374644 5.10791,0.37311 7.40896,-0.0041 1.16634,-0.191249 2.43919,-0.287543 3.55506,-0.288699 z m 8.38017,0.190067 c 1.31267,0 1.63479,0.09029 2.5578,0.717101 1.11154,0.754846 1.98832,2.309401 1.98832,3.525841 0,1.05145 -0.8709,2.305226 -1.8369,2.644456 -1.33703,0.46953 -1.43829,0.380843 -1.00122,-0.880486 0.75888,-2.189998 0.47973,-2.90089 -1.85148,-4.710615 -0.7472,-0.580054 -1.35881,-1.108996 -1.35881,-1.175481 0,-0.06649 0.67621,-0.120816 1.50229,-0.120816 z m -19.60731,5.647463 h 3.85745 c 3.61236,0 3.92912,0.03275 4.98494,0.513542 1.40189,0.638378 3.35189,2.573134 4.00489,3.97373 0.27117,0.581603 0.56043,1.906577 0.64277,2.944247 0.12171,1.534041 0.0313,2.15129 -0.48384,3.303096 -0.73428,1.641692 -2.42199,3.098391 -4.38809,3.78756 -1.57303,0.551395 -5.47925,0.703118 -7.36129,0.286 -1.87851,-0.416336 -3.80336,-1.239659 -4.92311,-2.105731 -2.54361,-1.967335 -2.763334,-3.810042 -0.87145,-7.312802 1.58268,-2.930282 2.38786,-4.0026 3.58286,-4.773572 z M 63.707746,96.339554 c -0.002,0.0022 -0.006,0.0041 -0.008,0.0063 0.002,0.0028 0.006,0.0055 0.006,0.0084 6.8e-4,-0.0049 0.001,-0.01 0.002,-0.01469 z m -0.0979,0.07404 c -0.15292,0.112947 -0.22831,0.161576 -0.22603,0.238634 0.0402,-0.0074 0.072,-0.03119 0.11787,-0.03118 0.036,-0.05175 0.0764,-0.104214 0.12008,-0.156491 -0.006,-0.01686 -0.008,-0.03393 -0.012,-0.05097 z m 94.926014,0.212553 c 0.19787,0.141821 0.35513,0.274136 0.47059,0.386129 0.01,-0.08901 -0.007,-0.215877 -0.16952,-0.2866 -0.0943,-0.0411 -0.19637,-0.07194 -0.30107,-0.09953 z m 0.52755,0.188868 c -0.006,0.06496 -0.0216,0.137205 -0.0417,0.21285 0.31011,0.304051 0.32547,0.406876 0.0923,-0.176276 -0.0169,-0.0122 -0.0252,-0.01863 -0.0508,-0.03657 z M 52.413106,134.08323 c -0.8863,0.11072 -1.77192,0.22417 -2.65625,0.34117 -0.67586,0.0894 1.37625,-0.052 2.06469,-0.0431 0.347,0.005 0.69369,0.0184 1.04053,0.027 0.0362,-0.0273 0.0678,-0.0558 0.11295,-0.0804 0.0851,-0.0464 0.17546,-0.0848 0.264,-0.12592 -0.2756,-0.0389 -0.55083,-0.0787 -0.82596,-0.11871 z m 127.165614,3.1535 c -0.17424,0.0307 -0.34783,0.0634 -0.52225,0.0935 0.0468,0.0152 0.0947,0.0293 0.14083,0.045 0.15407,-0.0547 0.24741,-0.0902 0.38142,-0.13851 z m -6.36934,4.21956 c -0.44569,0.0479 -0.89062,0.0989 -1.3354,0.1505 0.01,0.0184 0.0161,0.0411 0.008,0.0743 -0.024,0.10386 -0.0566,0.21056 -0.0962,0.31808 0.8657,-0.14892 1.95236,-0.36462 2.67434,-0.53302 -0.38254,-0.006 -0.75565,-0.009 -1.25109,-0.01 z m -1.85103,0.20956 c -0.28261,0.0336 -0.5644,0.0705 -0.84673,0.10522 0.10421,0.0286 0.20732,0.0596 0.30771,0.0968 0.18142,-0.0688 0.37018,-0.14335 0.53902,-0.20207 z m -121.158744,1.38414 c -0.0542,0.0134 -0.10721,0.0251 -0.16157,0.0387 -0.2174,0.0543 -0.10766,0.47772 0.12317,0.46437 0.82868,-0.0479 1.6553,-0.10916 2.48098,-0.17538 -0.81942,-0.095 -1.63554,-0.19913 -2.44258,-0.32767 z m 5.84534,0.66223 c -0.61686,0.0277 -1.23378,0.0548 -1.85059,0.0828 -0.0787,0.003 -0.12285,0.005 -0.20043,0.009 1.19257,0.0141 2.38495,0.0243 3.57713,0.0315 -0.50903,-0.04 -1.01798,-0.0804 -1.52611,-0.12291 z m 19.50179,2.02151 c -1.43355,0.0177 -3.16889,0.0344 -4.7439,0.0524 0.56692,0.0195 1.13404,0.0348 1.70182,0.0384 0.94127,0.006 2.15073,0.007 3.55549,0.005 -0.0306,-0.006 -0.0613,-0.0101 -0.0919,-0.0159 -0.12717,-0.0241 -0.28295,-0.0539 -0.42158,-0.08 z" />
    <path
       id="path822"
       style="fill:none;stroke-width:0.249205"
       d="m 21.002976,28.085248 v 60.889948 60.889644 h 54.0458 c -0.24209,-0.10706 -0.48676,-0.21256 -0.71385,-0.33006 -0.25907,0.018 -0.51784,0.0363 -0.77828,0.0467 -0.60803,0.0243 -0.30325,-0.0953 0.38495,-0.25423 -0.78918,-0.46217 -1.31226,-0.97416 -1.14381,-1.45218 -0.17378,-0.002 -0.34759,-5.8e-4 -0.52137,-0.003 -2.82701,-0.0328 -5.63422,-0.32942 -8.45125,-0.49405 -0.22944,-0.25668 -0.61882,-0.53477 -1.03654,-0.81664 -0.36079,0.0109 -0.7218,0.0179 -1.08421,0.0108 -0.55759,-0.0109 -0.13663,-0.16072 0.57566,-0.35195 -0.16748,-0.11239 -0.32941,-0.22393 -0.48162,-0.33427 -12.36932,0.12007 -24.89233,0.19238 -26.85295,0.0276 -0.41057,-0.0345 -0.67593,-0.20612 -0.8648,-0.45029 -0.0788,0.0125 -0.0906,0.0144 -0.1713,0.0272 0.0421,-0.0311 0.0801,-0.0681 0.12008,-0.10222 -0.36568,-0.53965 -0.42562,-1.36866 -0.80125,-1.89889 8.1676,-1.26706 6.85291,-1.17558 14.30452,-1.47076 0.012,-0.0107 0.0279,-0.0216 0.0405,-0.0324 -1.30968,-0.0105 -2.6194,-0.0183 -3.92896,-0.0357 -2.56608,-0.0341 -5.33867,0.35836 -7.68224,-0.35225 -0.46855,-0.14208 -1.01681,-0.40876 -1.51374,-0.721 -0.17447,8.3e-4 -0.34928,-3e-4 -0.52445,-0.006 -0.41028,-0.0132 -0.28906,-0.14387 0.0677,-0.31058 -0.79254,-0.60429 -1.26545,-1.30019 -0.5814,-1.71331 2.15635,-1.30224 5.61729,-0.84012 8.52322,-1.01359 3.58868,-0.42959 5.52049,-0.65543 7.57759,-0.76597 -0.33752,-0.2593 -0.41431,-0.53944 -0.0429,-0.83462 0.25627,-0.20362 0.55082,-0.35678 0.87231,-0.47427 -0.44963,-0.14379 -0.87652,-0.31666 -1.27094,-0.52703 -0.9283,-0.49512 -1.0329,-1.87632 -0.28828,-2.54763 -1.3846,0.0116 -2.76897,0.0142 -4.15367,0.002 -2.19494,-0.0196 -4.68266,0.32105 -6.55032,-0.46228 -0.86703,-0.36362 -0.38678,-1.84207 0.59109,-2.03677 3.32017,-0.66107 6.91861,-0.0982 10.37778,-0.1472 2.87631,-0.0229 0.608,-0.004 2.81339,-0.0222 -0.60256,-0.14165 -1.1736,-0.32906 -1.69474,-0.58159 -0.84069,-0.40737 0.0788,-1.76299 1.06258,-1.97622 1.27295,-0.27592 2.58536,-0.42571 3.9153,-0.51805 -0.33381,-0.17327 -0.63087,-0.36732 -0.87323,-0.59058 -0.13603,-0.12533 -0.15433,-0.27281 -0.0967,-0.4257 -1.48492,-0.0737 -1.96294,-0.26716 0.62422,-0.721 -2.79121,-0.0278 -5.10563,-0.19817 -7.91047,-0.83703 -0.96509,0.0399 -1.92972,0.0839 -2.89331,0.13641 -0.63917,0.0348 -2.49337,0.40624 -1.87796,0.28391 1.15281,-0.22915 2.29712,-0.49189 3.44293,-0.74948 -1.2265,-0.32532 -2.55746,-0.73471 -4.07068,-1.25912 -0.71348,-0.24726 1.55635,-0.28197 2.35473,-0.32617 7.75278,-0.42952 13.37825,-0.32767 21.14623,-0.31149 -0.11146,-0.24572 -0.26376,-0.48923 -0.35051,-0.7243 -0.11885,-0.32197 -0.22665,-0.64619 -0.31123,-0.97311 -0.0798,-0.30796 -0.12054,-0.61969 -0.181,-0.92966 -0.114,-0.45043 -0.21654,-0.90257 -0.34037,-1.35176 -0.114,-0.17833 -0.20466,-0.36662 -0.26664,-0.55701 -0.13973,0.0499 -0.24347,0.0806 -0.18232,0.0228 0.0508,-0.0479 0.0988,-0.10061 0.14832,-0.15019 -0.0313,-0.11813 -0.052,-0.23391 -0.0636,-0.34807 -0.34492,-0.33875 -0.68025,-0.80318 -1.0436,-1.44918 -0.10254,-0.18228 0.1296,-0.25435 0.53285,-0.26832 -0.69844,-2.34841 -1.26477,-4.72705 -1.31644,-7.12213 -0.0654,-1.31766 -0.67684,-2.25777 1.64575,-2.81983 0.0183,-0.17246 0.0317,-0.36487 0.003,-0.44759 -0.18492,-0.53541 -0.4846,-1.06493 -0.37658,-1.62907 -1e-5,-0.73252 -9e-5,-1.46494 0,-2.19746 -1.5e-4,-0.59967 -8.5e-4,-1.199385 8.6e-4,-1.799049 4.5e-4,-0.177368 -8.6e-4,-0.354771 -0.002,-0.53213 -0.30897,-0.395474 -0.27003,-0.773675 0.007,-1.035178 9e-5,-0.0041 4.5e-4,-0.0084 4.5e-4,-0.01259 -0.006,-0.01315 -0.0139,-0.02569 -0.0184,-0.03897 -0.11993,-0.338205 -0.0557,-0.400154 0.0251,-0.731791 0.0381,-0.06816 0.0788,-0.09557 0.11699,-0.145998 -0.009,-0.0076 -0.0192,-0.01483 -0.0279,-0.02279 -0.009,-0.0084 0.006,0.0027 0.0295,0.02009 0.084,-0.109892 0.18189,-0.185677 0.28608,-0.222147 0.0347,-0.152397 0.11021,-0.358434 0.22647,-0.638553 0.0187,-0.04499 0.12909,-0.01835 0.25692,0.03118 0.0356,-0.0047 0.0898,-0.0045 0.1704,-0.003 -0.0125,-0.06787 -0.0225,-0.136154 -0.0291,-0.204457 -0.002,-0.02994 0.0867,-0.01209 0.13067,-0.01499 0.0631,-0.0043 0.15129,-0.01002 0.24368,-0.0105 0.087,-4.61e-4 0.17726,0.004 0.25296,0.01829 0.13832,-0.0055 0.26429,-0.0017 0.37833,0.0099 0.001,-3.07e-4 0.002,-0.0096 0.006,-0.0096 0.84551,0 3.76807,0.687844 6.70308,1.577799 8.56953,2.598474 32.671994,9.530554 34.220854,9.842144 2.33142,0.46902 6.33164,0.47386 8.88652,0.0108 1.08111,-0.19595 3.39437,-0.75583 5.14077,-1.24414 8.29022,-2.31801 25.96696,-7.41601 29.48446,-8.50327 3.64111,-1.125466 6.66827,-1.850539 6.93264,-1.660542 1e-4,7.3e-5 2e-4,0.01849 4.4e-4,0.01859 0.21324,-0.07664 0.42638,-0.153381 0.63967,-0.22994 -0.0253,-0.0099 -0.0542,-0.01497 -0.079,-0.02608 -0.13553,-0.06102 0.14998,-0.09986 0.41011,-0.09294 0.0727,-0.02605 0.14534,-0.05223 0.21809,-0.07824 -0.14481,-0.01572 -0.29717,-0.0235 -0.42646,-0.06206 -0.035,-0.01043 -0.016,-0.01542 0.0306,-0.01619 0.13897,-0.0022 0.52205,0.03288 0.4207,0.06925 -0.008,0.003 -0.0164,0.006 -0.0248,0.009 0.13589,0.01475 0.26478,0.03649 0.3589,0.09983 0.12072,0.08124 0.20823,0.180006 0.28783,0.283001 0.0497,0.02392 0.11769,0.05351 0.1629,0.07645 0.0149,0.0028 0.0307,0.0042 0.0454,0.0072 0.002,0.0047 0.01,0.0155 0.014,0.02068 0.51391,0.266712 0.7237,0.481707 0.69751,0.84691 0.72728,0.515084 0.64353,0.83379 0.50459,1.443793 0.0117,0.0014 0.0257,0.0057 0.0337,0.0033 -0.0154,0.03903 -0.0291,0.07091 -0.0468,0.117219 0.0985,0.125874 0.24822,0.242519 0.29004,0.379836 0.0282,0.04334 0.0438,0.08598 0.0644,0.128909 0.40853,0.709655 0.20681,1.711954 0.0888,2.370444 -0.0285,0.12206 -0.0947,0.24258 -0.086,0.36605 0.012,0.17122 0.20155,0.31723 0.25074,0.48536 0.15886,0.54253 0.1855,1.02513 0.14789,1.5712 -0.12233,0.61374 -0.0572,1.23628 -0.0451,1.85361 0.003,0.38639 0.0178,0.55753 -0.38363,0.73479 0.23709,0.26098 0.47722,0.62988 0.72929,1.12571 0.0903,0.17779 -0.31058,0.31273 -0.4931,0.45418 -0.0574,0.0445 -0.10932,0.078 -0.16556,0.12022 -0.34433,1.08835 -0.79436,1.81733 -1.52435,2.90558 -0.22726,0.33878 -0.49385,0.66525 -0.72927,1.0013 -0.10588,0.31055 -0.23431,0.63929 -0.36111,0.95483 -0.0171,0.18416 -0.0474,0.35308 -0.0999,0.48956 0.4052,-0.10661 1.08118,0.009 2.53926,0.34806 0.27921,0.0649 0.13081,0.39305 0.14347,0.59329 0.0207,0.32857 -0.0369,0.65746 -0.0438,0.9863 -0.01,0.49629 -0.006,0.99272 -0.009,1.48907 0.0329,0.46669 0.1061,1.6936 0.19248,2.13361 0.0241,0.12262 0.16846,0.26771 0.24633,0.39482 8.6e-4,0.002 0.001,0.004 0.002,0.005 0.0543,0.091 0.0784,0.17401 -0.0283,0.22574 -1.96934,0.95472 -2.47377,1.12291 -2.81297,0.75488 0.0379,0.48303 0.0692,0.96628 0.0928,1.44979 0.84406,-0.0596 1.45648,-0.10604 2.47834,-0.17628 1.48987,-0.10241 3.49941,-1.02316 4.47681,-0.25272 0.18308,0.14431 0.25565,0.31439 0.2534,0.49645 1.41312,-0.1936 3.24199,-0.99142 4.00401,-0.23833 0.36425,0.35998 0.19331,0.80082 -0.1982,1.22465 0.43905,0.23125 0.68127,0.50714 0.48426,0.81962 -0.33258,0.52748 -1.26776,0.49451 -2.26865,0.40023 -0.0338,0.0158 -0.0703,0.0359 -0.10321,0.0506 -0.47897,0.21513 -1.01767,0.33316 -1.58262,0.40741 -0.11817,0.072 -0.24492,0.13265 -0.37967,0.18257 0.39438,-0.02 1.0341,-0.0522 1.45991,-0.0737 2.69746,-0.18434 5.77026,-0.39244 8.78808,-0.58459 1.21401,-0.2065 2.43573,-0.43501 3.5056,-0.21405 2.98186,-0.17435 5.35353,-0.28813 5.86299,-0.23505 0.27411,0.0286 0.48264,0.12119 0.65204,0.25244 0.008,-0.002 0.01,-0.003 0.0194,-0.005 -0.003,0.005 -0.006,0.01 -0.008,0.0141 0.56228,0.44659 0.66424,1.34481 1.11997,1.89587 -4.29673,1.14294 -5.37356,1.48758 -8.00362,1.91657 -0.009,0.13199 -0.32642,0.14573 -0.75532,0.11602 -0.70412,0.10811 -1.79911,0.26232 -2.79708,0.40112 0.22762,0.30948 0.36538,0.66678 0.34258,0.96653 0.0748,-0.002 0.13757,-0.003 0.21278,-0.005 1.20932,-0.0257 4.5253,-0.5029 3.62877,0.0489 -1.01955,0.62746 -2.08192,1.14494 -3.17848,1.57899 0.91457,0.13177 1.8983,0.27985 3.1158,0.47428 0.16609,0.0265 0.2072,0.0409 0.19468,0.0506 0.0309,0.003 0.0618,0.007 0.0928,0.0113 0.38401,-0.0388 0.76758,-0.0796 1.15133,-0.11962 1.64997,-0.25841 3.3011,-0.51367 4.95623,-0.75637 0.88378,-0.1296 -1.71527,0.40831 -2.60768,0.50694 -0.78198,0.0864 -1.56539,0.16782 -2.34855,0.24943 -0.31155,0.0488 -0.62313,0.0972 -0.93458,0.1463 2.27093,0.26847 4.52361,0.58453 6.70795,1.07475 0.989,0.22195 -1.98455,0.44971 -3.01251,0.5639 -0.006,5.8e-4 -0.0121,8.3e-4 -0.0181,0.002 0.25686,0.0132 0.51367,0.0254 0.77035,0.0429 0.15502,0.0106 0.31911,0.0343 0.48604,0.0653 0.82617,-0.24542 1.59087,-0.39184 2.06602,0.0162 0.1081,0.0928 0.16022,0.1931 0.17173,0.2974 0.5714,-0.0843 1.14227,-0.17071 1.71418,-0.25333 1.43366,-0.20709 4.98721,-1.31278 4.35453,-0.41491 -0.48887,0.6938 -1.31819,1.20177 -2.26733,1.64436 0.91876,0.0601 1.82073,0.16878 2.68319,0.38973 1.28571,0.32936 -2.74032,0.18641 -4.08437,0.38073 -0.24112,0.0349 -0.48162,0.0716 -0.72266,0.10673 -0.73388,0.28693 -1.4568,0.58002 -2.0956,0.91885 -1.29914,0.23053 -2.59312,0.47478 -3.8888,0.715 0.20682,0.008 0.36312,0.0164 0.42116,0.0252 0.24057,0.0363 0.42134,0.12229 0.56505,0.23954 0.19065,-0.0208 0.23594,-0.0258 0.43617,-0.0477 -0.0803,0.0936 -0.14707,0.20083 -0.20925,0.31239 0.32298,0.49333 0.36023,1.22544 0.68691,1.7157 -1.08235,0.11725 -1.52835,0.16577 -2.3609,0.25692 -0.22693,0.52819 -1.79739,0.75811 -4.13823,0.80404 -0.0409,0.39285 -0.09,0.68096 -0.18542,0.88348 2.26389,-0.17755 4.53978,-0.48752 6.74943,-0.18377 0.21735,0.0299 0.46671,0.0669 0.72664,0.10792 1.37248,-0.32682 2.70252,-0.53267 3.7749,-0.0108 0.55058,0.26794 0.28776,0.56752 -0.34743,0.85322 0.75103,0.31875 1.17015,0.70942 0.80038,1.17727 -1.15151,1.4569 -4.81522,0.49438 -7.22268,0.74168 -2.34746,0.17439 -4.69321,0.3594 -7.03947,0.54173 0.14332,0.10002 0.27622,0.2094 0.39908,0.32797 0.40424,0.0493 0.81515,0.1013 1.24004,0.16038 0.14167,-0.0123 0.28351,-0.0235 0.42513,-0.0359 1.12304,-0.22614 1.98285,-0.39486 1.2939,-0.22363 -0.21398,0.0532 -0.42698,0.11121 -0.64054,0.16607 1.07592,-0.0958 2.15183,-0.19187 3.22836,-0.2839 0.6153,-0.12482 1.23129,-0.24643 1.85104,-0.35764 0.43444,-0.078 -0.84663,0.20425 -1.27008,0.30638 -0.1938,0.0161 -0.3872,0.0347 -0.58096,0.0513 -0.94615,0.19195 -1.88952,0.39284 -2.83237,0.59449 1.31451,0.20495 2.76641,0.45976 4.37351,0.76057 0.11737,-0.0307 0.23392,-0.063 0.3514,-0.0935 0.191,-0.0497 0.0211,0.022 -0.24458,0.11362 0.38224,0.0717 0.75044,0.13948 1.15309,0.21704 0.62253,0.11992 -1.23455,0.26345 -1.85192,0.39513 -0.67483,0.0561 -1.34893,0.1178 -2.02318,0.17748 1.41975,0.25719 2.8165,0.55404 4.13158,0.9917 0.61362,0.20422 -1.2377,0.42193 -1.90973,0.50605 -2.77912,0.3479 -5.58127,0.6116 -8.38945,0.82953 -0.69101,0.2486 -1.33586,0.47095 -1.92475,0.65864 0.35801,0.11659 0.72433,0.24681 1.0979,0.38973 0.0599,8.2e-4 0.11905,0.006 0.17879,0.007 h 27.25464 V 88.975196 28.085248 H 110.51541 Z M 182.31042,145.69205 c -0.0354,-0.007 -0.0717,-0.0134 -0.10688,-0.02 -0.39704,0.10393 -0.79217,0.21125 -1.18841,0.31658 0.12245,-0.0147 0.24538,-0.0274 0.36774,-0.0423 0.22223,-0.027 0.63435,-0.15304 0.9275,-0.25422 z M 159.5542,98.36735 c -0.006,-0.0051 -0.006,-0.01073 -0.009,-0.01589 -0.007,0.03264 -0.0123,0.05429 -0.0194,0.08874 -0.006,0.02486 0.0178,-0.0441 0.0287,-0.07285 z m -0.009,-0.01589 c 0.008,-0.03847 0.0143,-0.06847 0.0226,-0.104626 -0.0419,-0.0047 -0.0938,-0.02116 -0.0861,-6.39e-4 0.0137,0.0365 0.0381,0.07091 0.0636,0.105228 z m -1.17972,-2.39533 c -0.016,-0.0083 -0.0431,-0.0195 -0.0597,-0.02788 -0.0396,-0.0074 -0.0803,-0.01276 -0.12052,-0.01918 0.1452,0.199952 0.26603,0.413128 0.48515,0.5753 0.19075,0.141148 -0.18661,-0.334124 -0.30503,-0.528233 z M 110.41342,44.590544 c 3.65642,0.02084 7.32326,0.193434 9.47631,0.508745 10.59193,1.551167 18.79707,4.548579 26.1806,9.564232 4.45842,3.028613 7.05825,5.489992 9.46925,8.965249 4.72133,6.805434 6.05404,15.402999 3.49898,22.568866 -0.75038,2.104533 -2.86496,5.54973 -3.40628,5.54973 -0.15563,0 -0.37466,-0.551134 -0.48692,-1.224945 -0.4604,-2.763441 -3.23023,-8.132658 -4.07951,-7.907888 -0.26495,0.07013 -0.59441,0.143828 -0.73194,0.163687 -0.13752,0.01987 -0.48941,-0.478419 -0.78181,-1.107128 -0.90204,-1.939485 -2.01512,-2.861505 -3.45439,-2.861505 -0.20634,0 -1.0504,-0.469242 -1.87576,-1.042973 -3.34443,-2.324792 -7.17336,-4.053886 -10.12128,-4.570313 -1.88522,-0.330257 -1.76208,-0.03676 -1.35175,-3.22785 0.19796,-1.539452 0.14797,-1.875278 -0.40305,-2.721204 -0.34571,-0.530761 -1.29872,-1.450177 -2.11811,-2.043074 -1.71611,-1.241781 -2.03768,-1.637305 -3.37891,-4.158402 -1.57771,-2.965642 -2.88145,-4.480519 -5.03127,-5.846224 -1.0603,-0.673559 -1.92785,-1.252948 -1.92785,-1.287601 0,-0.03466 0.47649,-0.237393 1.05862,-0.450287 0.58213,-0.212895 1.05815,-0.448996 1.05815,-0.524635 0,-0.07564 -1.32681,-0.25499 -2.94846,-0.398721 -1.62166,-0.143729 -3.0451,-0.30154 -3.1635,-0.350756 -0.11837,-0.04921 -0.0879,-0.31731 0.068,-0.595684 0.15584,-0.278375 0.2529,-0.505908 0.21542,-0.505448 -0.0374,4.61e-4 -2.10496,0.365484 -4.59424,0.811234 -2.48927,0.445753 -4.56609,0.782985 -4.61544,0.749478 -0.0493,-0.03351 0.124,-0.408548 0.3854,-0.833419 0.26142,-0.42487 0.41325,-0.814515 0.33727,-0.866095 -0.076,-0.05158 -1.47786,0.443463 -3.11535,1.100232 -3.46744,1.39073 -7.967254,4.272834 -9.251614,5.925368 -0.44222,0.568983 -1.22813,2.093528 -1.74642,3.387939 -0.53117,1.326645 -1.23095,2.59064 -1.60379,2.89718 -2.72594,2.24118 -3.24727,2.747304 -3.52238,3.420015 -0.43276,1.058117 -0.38461,2.615755 0.12006,3.903278 l 0.42689,1.089142 -0.78755,0.203259 c -3.43286,0.886331 -7.94494,2.778422 -11.29336,4.735497 -1.48353,0.867095 -2.26022,1.190198 -2.65536,1.10503 -0.47192,-0.101717 -0.76106,0.215858 -1.8656,2.048173 -1.02182,1.695104 -1.41048,2.141185 -1.77995,2.043375 -0.25996,-0.06882 -0.59246,-0.14113 -0.73899,-0.160988 -0.14655,-0.01987 -1.09907,1.966065 -2.11678,4.413523 -1.01774,2.447457 -1.94247,4.51241 -2.05499,4.588601 -0.30895,0.209199 -1.99414,-1.89137 -2.63772,-3.288108 -1.42826,-3.099766 -2.28175,-8.986867 -1.83865,-12.678761 1.82967,-15.244535 17.94419,-27.679231 39.770844,-30.688704 2.11062,-0.291012 5.75675,-0.421958 9.41318,-0.40112 z M 95.196856,65.255733 c 1.17372,0 1.40782,0.06394 1.40782,0.384333 0,0.211338 -0.47864,0.603996 -1.06349,0.872692 -0.58482,0.268694 -1.41748,0.833026 -1.85058,1.254025 -1.27266,1.237053 -1.2641,2.444803 0.0328,4.522646 0.29555,0.473575 -0.64521,0.487894 -1.61926,0.02458 -2.23944,-1.065202 -1.94832,-4.464371 0.53416,-6.236552 1.0215,-0.729231 1.30969,-0.821728 2.55869,-0.821728 z m 22.350964,0.01528 c 1.11588,-0.0012 2.07473,0.09292 2.61431,0.282404 0.46602,0.163651 1.07505,0.533281 1.35306,0.821426 0.4908,0.508682 0.48554,0.523764 -0.18188,0.522537 -0.37806,-6.39e-4 -1.46165,-0.08723 -2.40771,-0.192468 -1.49529,-0.166327 -2.16252,-0.112502 -5.10588,0.411912 -1.86221,0.331787 -3.40161,0.596288 -3.42085,0.587892 -0.0192,-0.0084 -1.19174,-0.234955 -2.60548,-0.503649 -1.88031,-0.357367 -3.36855,-0.491253 -5.54382,-0.498253 -3.314764,-0.01068 -3.592184,-0.187488 -1.53891,-0.981515 1.39279,-0.538612 3.02769,-0.582424 5.87314,-0.15739 2.50812,0.374644 5.10791,0.37311 7.40896,-0.0041 1.16634,-0.191249 2.43919,-0.287543 3.55506,-0.288699 z m 8.38017,0.190067 c 1.31267,0 1.63479,0.09029 2.5578,0.717101 1.11154,0.754846 1.98832,2.309401 1.98832,3.525841 0,1.05145 -0.8709,2.305226 -1.8369,2.644456 -1.33703,0.46953 -1.43829,0.380843 -1.00122,-0.880486 0.75888,-2.189998 0.47973,-2.90089 -1.85148,-4.710615 -0.7472,-0.580054 -1.35881,-1.108996 -1.35881,-1.175481 0,-0.06649 0.67621,-0.120816 1.50229,-0.120816 z m -19.60731,5.647463 h 3.85745 c 3.61236,0 3.92912,0.03275 4.98494,0.513542 1.40189,0.638378 3.35189,2.573134 4.00489,3.97373 0.27117,0.581603 0.56043,1.906577 0.64277,2.944247 0.12171,1.534041 0.0313,2.15129 -0.48384,3.303096 -0.73428,1.641692 -2.42199,3.098391 -4.38809,3.78756 -1.57303,0.551395 -5.47925,0.703118 -7.36129,0.286 -1.87851,-0.416336 -3.80336,-1.239659 -4.92311,-2.105731 -2.54361,-1.967335 -2.763334,-3.810042 -0.87145,-7.312802 1.58268,-2.930282 2.38786,-4.0026 3.58286,-4.773572 z M 63.707746,96.339554 c -0.002,0.0022 -0.006,0.0041 -0.008,0.0063 0.002,0.0028 0.006,0.0055 0.006,0.0084 6.8e-4,-0.0049 0.001,-0.01 0.002,-0.01469 z m -0.0979,0.07404 c -0.15292,0.112947 -0.22831,0.161576 -0.22603,0.238634 0.0402,-0.0074 0.072,-0.03119 0.11787,-0.03118 0.036,-0.05175 0.0764,-0.104214 0.12008,-0.156491 -0.006,-0.01686 -0.008,-0.03393 -0.012,-0.05097 z m 94.926014,0.212553 c 0.19787,0.141821 0.35513,0.274136 0.47059,0.386129 0.01,-0.08901 -0.007,-0.215877 -0.16952,-0.2866 -0.0943,-0.0411 -0.19637,-0.07194 -0.30107,-0.09953 z m 0.52755,0.188868 c -0.006,0.06496 -0.0216,0.137205 -0.0417,0.21285 0.31011,0.304051 0.32547,0.406876 0.0923,-0.176276 -0.0169,-0.0122 -0.0252,-0.01863 -0.0508,-0.03657 z M 52.413106,134.08323 c -0.8863,0.11072 -1.77192,0.22417 -2.65625,0.34117 -0.67586,0.0894 1.37625,-0.052 2.06469,-0.0431 0.347,0.005 0.69369,0.0184 1.04053,0.027 0.0362,-0.0273 0.0678,-0.0558 0.11295,-0.0804 0.0851,-0.0464 0.17546,-0.0848 0.264,-0.12592 -0.2756,-0.0389 -0.55083,-0.0787 -0.82596,-0.11871 z m 127.165614,3.1535 c -0.17424,0.0307 -0.34783,0.0634 -0.52225,0.0935 0.0468,0.0152 0.0947,0.0293 0.14083,0.045 0.15407,-0.0547 0.24741,-0.0902 0.38142,-0.13851 z m -6.36934,4.21956 c -0.44569,0.0479 -0.89062,0.0989 -1.3354,0.1505 0.01,0.0184 0.0161,0.0411 0.008,0.0743 -0.024,0.10386 -0.0566,0.21056 -0.0962,0.31808 0.8657,-0.14892 1.95236,-0.36462 2.67434,-0.53302 -0.38254,-0.006 -0.75565,-0.009 -1.25109,-0.01 z m -1.85103,0.20956 c -0.28261,0.0336 -0.5644,0.0705 -0.84673,0.10522 0.10421,0.0286 0.20732,0.0596 0.30771,0.0968 0.18142,-0.0688 0.37018,-0.14335 0.53902,-0.20207 z m -121.158744,1.38414 c -0.0542,0.0134 -0.10721,0.0251 -0.16157,0.0387 -0.2174,0.0543 -0.10766,0.47772 0.12317,0.46437 0.82868,-0.0479 1.6553,-0.10916 2.48098,-0.17538 -0.81942,-0.095 -1.63554,-0.19913 -2.44258,-0.32767 z m 5.84534,0.66223 c -0.61686,0.0277 -1.23378,0.0548 -1.85059,0.0828 -0.0787,0.003 -0.12285,0.005 -0.20043,0.009 1.19257,0.0141 2.38495,0.0243 3.57713,0.0315 -0.50903,-0.04 -1.01798,-0.0804 -1.52611,-0.12291 z m 19.50179,2.02151 c -1.43355,0.0177 -3.16889,0.0344 -4.7439,0.0524 0.56692,0.0195 1.13404,0.0348 1.70182,0.0384 0.94127,0.006 2.15073,0.007 3.55549,0.005 -0.0306,-0.006 -0.0613,-0.0101 -0.0919,-0.0159 -0.12717,-0.0241 -0.28295,-0.0539 -0.42158,-0.08 z" />
    <g
       id="g15318" />
    <path
       id="path982"
       style="fill:none;stroke-width:0.186262"
       d="m 57.140576,52.523276 a 8.4673643,15.607529 0 0 1 -8.46735,15.607528 8.4673643,15.607529 0 0 1 -8.46737,-15.607528 8.4673643,15.607529 0 0 1 8.46737,-15.60753 8.4673643,15.607529 0 0 1 8.46735,15.60753 z" />
    <path
       style="color:#000000;fill:#c1a33c;fill-opacity:1;stroke-width:0.186262;-inkscape-stroke:none"
       d="m 158.33449,61.389667 1.7131,4.023484 -80.038964,46.486259 -4.91932,-2.45266 z"
       id="rect1412" />
    <path
       style="color:#000000;display:inline;fill:#c1a33c;fill-opacity:1;stroke-width:0.156455;-inkscape-stroke:none"
       d="m 160.48579,69.419001 1.42954,3.401854 -66.791304,39.304125 -4.1051,-2.07372 z"
       id="rect1412-3" />
    <path
       style="color:#000000;display:inline;fill:#c1a33c;fill-opacity:1;stroke-width:0.156455;-inkscape-stroke:none"
       d="m 164.52402,76.260028 1.42953,3.401855 -66.791294,39.304127 -4.1051,-2.07372 z"
       id="rect1412-3-5" />
    <rect
       style="fill:#c1a33c;fill-opacity:1;stroke-width:0.186262"
       id="rect2689"
       width="38.405544"
       height="5.3394175"
       x="89.195618"
       y="54.576897" />
    <path
       style="fill:#ffffff;stroke:#ffffff;stroke-width:0.186262px;stroke-linecap:butt;stroke-linejoin:miter;stroke-opacity:1"
       d="m 123.97229,54.474217 c 6.50171,-4.517968 6.50171,-4.517968 6.50171,-4.517968 l 1.20963,2.77239 -4.08247,1.848259 v 0 l -2.57045,1.129493 z"
       id="path2955" />
    <path
       style="fill:#ffffff;fill-opacity:0.994429;stroke:#ffffff;stroke-width:0.186262px;stroke-linecap:butt;stroke-linejoin:miter;stroke-opacity:1"
       d="m 125.03071,55.706391 c 9.82819,-0.308043 9.82819,-0.308043 9.82819,-0.308043 l 2.87284,2.875071 -11.34022,-0.616087 -1.36081,-1.950941"
       id="path2957" />
    <path
       style="fill:#ffffff;stroke:#ffffff;stroke-width:0.186262px;stroke-linecap:butt;stroke-linejoin:miter;stroke-opacity:1"
       d="m 134.8589,55.398348 2.87284,2.875071"
       id="path3156" />
    <path
       style="fill:#c1a33c;fill-opacity:1;stroke:#000000;stroke-width:0.264583;stroke-opacity:0"
       id="path10092"
       d="m 107.64269,66.207023 a 4.5971127,2.7459104 0 0 1 -1.32364,3.70299 4.5971127,2.7459104 0 0 1 -6.2571,-0.607267 4.5971127,2.7459104 0 0 1 0.70722,-3.762816" />
    <rect
       style="fill:#c1a33c;fill-opacity:1;stroke:#000000;stroke-width:0.149234;stroke-opacity:0"
       id="rect10196"
       width="23.23263"
       height="1.5694398"
       x="42.543045"
       y="100.02238"
       transform="matrix(0.97249908,-0.23290672,0.64402967,0.76500051,0,0)" />
    <path
       style="display:inline;fill:#c1a33c;fill-opacity:1;stroke:#000000;stroke-width:0.385931px;stroke-linecap:butt;stroke-linejoin:miter;stroke-opacity:0"
       d="m 105.90802,63.626787 c 5.93181,-0.149477 10.00399,-1.921437 5.93181,-0.149477 -4.07219,1.77196 -5.09159,2.499942 -5.09159,2.499942 l -0.49717,3.46078 -8.141874,4.163279 6.444924,-4.65145 z"
       id="path11186" />
    <path
       style="fill:#fefffe;fill-opacity:1;stroke:#000000;stroke-width:0.198949px;stroke-linecap:butt;stroke-linejoin:miter;stroke-opacity:0"
       d="m 126.3409,88.211397 c 20.94932,-38.188182 0.38533,-48.317884 6.29604,-45.907609 5.91071,2.410279 17.3183,13.337217 15.40171,17.392379 -1.9166,4.055159 -21.69775,28.51523 -21.69775,28.51523 z"
       id="path16869"
       clip-path="url(#clipPath21343)"
       transform="matrix(0.85427105,0,0,0.58013099,25.085566,30.960244)" />
    <path
       style="display:inline;fill:#fefffe;fill-opacity:1;stroke:#000000;stroke-width:0.195893px;stroke-linecap:butt;stroke-linejoin:miter;stroke-opacity:0"
       d="m 126.3409,88.211397 c 29.80497,-16.510146 23.75364,-45.606059 25.73726,-37.719983 1.98367,7.886096 2.75391,29.076449 -0.2465,31.121071 -3.00039,2.044611 -25.49076,6.598912 -25.49076,6.598912 z"
       id="path16869-8"
       clip-path="url(#clipPath21481)"
       transform="matrix(0.85427105,0,0,0.58013099,24.972166,30.985914)" />
    <path
       style="display:inline;fill:#fefffe;fill-opacity:1;stroke:#000000;stroke-width:0.159825px;stroke-linecap:butt;stroke-linejoin:miter;stroke-opacity:0"
       d="m 126.3409,88.211397 c 37.03032,0.667543 37.00974,-16.717231 37.39814,-11.896461 0.38838,4.820774 -3.64969,16.32956 -7.46585,16.465738 -3.81614,0.136191 -29.93229,-4.569277 -29.93229,-4.569277 z"
       id="path16869-8-7"
       clip-path="url(#clipPath21672)"
       transform="matrix(0.82587555,0,0,0.56323712,29.022766,32.685445)" />
    <path
       style="display:inline;fill:#fefffe;fill-opacity:1;stroke:#000000;stroke-width:0.140057px;stroke-linecap:butt;stroke-linejoin:miter;stroke-opacity:0"
       d="m 89.180166,81.534459 c -17.89639,-22.154147 -0.32917,-28.030701 -5.37852,-26.632426 -5.04935,1.398277 -14.79453,7.737332 -13.15723,10.089858 1.6373,2.352523 18.53575,16.542568 18.53575,16.542568 z"
       id="path16869-9" />
    <path
       style="display:inline;fill:#fefffe;fill-opacity:1;stroke:#000000;stroke-width:0.137905px;stroke-linecap:butt;stroke-linejoin:miter;stroke-opacity:0"
       d="m 89.180166,81.534459 c -25.46151,-9.578047 -20.29205,-26.457487 -21.98659,-21.88253 -1.69459,4.574968 -2.35258,16.868148 0.21058,18.054296 2.56315,1.186143 21.77601,3.828234 21.77601,3.828234 z"
       id="path16869-8-2" />
    <path
       style="display:inline;fill:#fefffe;fill-opacity:1;stroke:#000000;stroke-width:0.112515px;stroke-linecap:butt;stroke-linejoin:miter;stroke-opacity:0"
       d="m 89.180166,81.534459 c -31.63393,0.387262 -31.61634,-9.698184 -31.94814,-6.901506 -0.33179,2.796681 3.11783,9.473284 6.37785,9.552285 3.26003,0.07901 25.57029,-2.650779 25.57029,-2.650779 z"
       id="path16869-8-7-0" />
    <path
       style="fill:#ffffff;fill-opacity:1;stroke:#000000;stroke-opacity:0"
       id="path21753"
       clip-path="url(#clipPath21885)"
       d="m 121.1504,28.222534 a 19.524239,3.191462 0 0 1 -19.52424,3.191462 19.524239,3.191462 0 0 1 -19.524239,-3.191462 19.524239,3.191462 0 0 1 19.524239,-3.191462 19.524239,3.191462 0 0 1 19.52424,3.191462 z"
       transform="matrix(0.85427105,0,0,0.58013099,25.085566,30.960244)" />
    <text
       xml:space="preserve"
       style="font-style:normal;font-variant:normal;font-weight:normal;font-stretch:normal;font-size:13.2889px;line-height:1.25;font-family:Kanit;-inkscape-font-specification:Kanit;display:inline;fill:#000000;fill-opacity:1;stroke:none;stroke-width:0.332224"
       x="103.88462"
       y="92.925064"
       id="text87592-4-7"
       transform="matrix(1.1181334,0.32561324,-0.47702709,0.75543192,0,0)"><tspan
         id="tspan87590-8-1"
         style="font-style:normal;font-variant:normal;font-weight:bold;font-stretch:normal;font-family:Kanit;-inkscape-font-specification:'Kanit Bold';fill:#ffffff;stroke-width:0.332224"
         x="103.88462"
         y="92.925064">V</tspan></text>
    <text
       xml:space="preserve"
       style="font-style:normal;font-variant:normal;font-weight:normal;font-stretch:normal;font-size:13.2889px;line-height:1.25;font-family:Kanit;-inkscape-font-specification:Kanit;display:inline;fill:#000000;fill-opacity:1;stroke:none;stroke-width:0.332224"
       x="117.28831"
       y="88.726974"
       id="text87592-4-7-1"
       transform="matrix(1.1008213,0.35176646,-0.51534188,0.74373561,0,0)"><tspan
         id="tspan87590-8-1-0"
         style="font-style:normal;font-variant:normal;font-weight:bold;font-stretch:normal;font-family:Kanit;-inkscape-font-specification:'Kanit Bold';fill:#ffffff;stroke-width:0.332224"
         x="117.28831"
         y="88.726974">E</tspan></text>
    <text
       xml:space="preserve"
       style="font-style:normal;font-variant:normal;font-weight:normal;font-stretch:normal;font-size:13.2889px;line-height:1.25;font-family:Kanit;-inkscape-font-specification:Kanit;display:inline;fill:#000000;fill-opacity:1;stroke:none;stroke-width:0.332224"
       x="46.393738"
       y="163.85393"
       id="text87592-4-7-1-0"
       transform="matrix(1.1283602,-0.30891562,0.45256488,0.76234136,0,0)"><tspan
         id="tspan87590-8-1-0-91"
         style="font-style:normal;font-variant:normal;font-weight:bold;font-stretch:normal;font-family:Kanit;-inkscape-font-specification:'Kanit Bold';fill:#ffffff;stroke-width:0.332224"
         x="46.393738"
         y="163.85393">A</tspan></text>
    <text
       xml:space="preserve"
       style="font-style:normal;font-variant:normal;font-weight:normal;font-stretch:normal;font-size:13.2889px;line-height:1.25;font-family:Kanit;-inkscape-font-specification:Kanit;display:inline;fill:#000000;fill-opacity:1;stroke:none;stroke-width:0.332224"
       x="51.371922"
       y="165.58446"
       id="text87592-4-7-1-0-7"
       transform="matrix(1.1145864,-0.33117394,0.4851736,0.75303553,0,0)"><tspan
         id="tspan87590-8-1-0-91-7"
         style="font-style:normal;font-variant:normal;font-weight:bold;font-stretch:normal;font-family:Kanit;-inkscape-font-specification:'Kanit Bold';fill:#ffffff;stroke-width:0.332224"
         x="51.371922"
         y="165.58446">N</tspan></text>
    <text
       xml:space="preserve"
       style="font-style:normal;font-variant:normal;font-weight:normal;font-stretch:normal;font-size:13.2889px;line-height:1.25;font-family:Kanit;-inkscape-font-specification:Kanit;display:inline;fill:#000000;fill-opacity:1;stroke:none;stroke-width:0.332224"
       x="88.43364"
       y="136.07623"
       id="text87592-4-7-1-5"
       transform="matrix(1.2164149,0.01455685,-0.02132596,0.82183272,0,0)"><tspan
         id="tspan87590-8-1-0-9"
         style="font-style:normal;font-variant:normal;font-weight:bold;font-stretch:normal;font-family:Kanit;-inkscape-font-specification:'Kanit Bold';fill:#ffffff;stroke-width:0.332224"
         x="88.43364"
         y="136.07623">E</tspan></text>
    <text
       xml:space="preserve"
       style="font-style:normal;font-variant:normal;font-weight:normal;font-stretch:normal;font-size:13.2889px;line-height:1.25;font-family:Kanit;-inkscape-font-specification:Kanit;display:inline;fill:#000000;fill-opacity:1;stroke:none;stroke-width:0.332224"
       x="119.91313"
       y="96.847328"
       id="text87592-4-7-1-6"
       transform="matrix(1.1328511,0.30124024,-0.44132036,0.76537556,0,0)"><tspan
         id="tspan87590-8-1-0-1"
         style="font-style:normal;font-variant:normal;font-weight:bold;font-stretch:normal;font-family:Kanit;-inkscape-font-specification:'Kanit Bold';fill:#ffffff;stroke-width:0.332224"
         x="119.91313"
         y="96.847328">T</tspan></text>
    <text
       xml:space="preserve"
       style="font-style:normal;font-variant:normal;font-weight:normal;font-stretch:normal;font-size:13.2889px;line-height:1.25;font-family:Kanit;-inkscape-font-specification:Kanit;display:inline;fill:#000000;fill-opacity:1;stroke:none;stroke-width:0.332224"
       x="46.732895"
       y="161.25714"
       id="text87592-4-7-1-6-4"
       transform="matrix(1.150188,-0.26924393,0.39444541,0.77708859,0,0)"><tspan
         id="tspan87590-8-1-0-1-9"
         style="font-style:normal;font-variant:normal;font-weight:bold;font-stretch:normal;font-family:Kanit;-inkscape-font-specification:'Kanit Bold';fill:#ffffff;stroke-width:0.332224"
         x="46.732895"
         y="161.25714">R</tspan></text>
  </g>
  <g
     id="layer2"
     style="display:none"
     transform="translate(68.839944,-42.853171)">
    <path
       style="display:inline;fill:#000000;stroke-width:0.532537"
       d="m 93.744846,198.86639 c -2.351081,-0.70406 -8.837446,-3.24068 -13.047165,-5.10236 -4.395913,-1.944 -15.409855,-6.48943 -22.723009,-9.37773 -4.164456,-1.64473 -8.30414,-3.31076 -9.199294,-3.7023 -0.895148,-0.39154 -3.305039,-1.35314 -5.355306,-2.1369 -8.009531,-3.0618 -10.95983,-5.32378 -13.105523,-10.04792 -0.911077,-2.00589 -0.984183,-4.01364 -0.99502,-27.32734 l -0.01167,-25.16238 h 1.214376 c 1.000871,0 5.592632,1.71357 11.30025,4.21707 0.58579,0.25694 2.00088,0.87994 3.144647,1.38443 1.143768,0.5045 5.337499,2.29963 9.319402,3.98918 3.981906,1.68956 13.350694,5.6989 20.81953,8.90966 17.806216,7.65464 18.337559,7.82464 24.496723,7.83722 4.927573,0.0101 7.390013,-0.52599 11.982083,-2.60843 0.8787,-0.39848 5.43188,-2.31775 10.11822,-4.26503 12.17195,-5.05778 17.34439,-7.22715 19.17134,-8.04064 11.58498,-5.15857 28.26872,-11.95079 28.82778,-11.73626 0.5913,0.2269 0.69282,4.723 0.5749,25.45656 -0.12882,22.64775 -0.23714,25.39242 -1.07662,27.28248 -2.31694,5.21666 -4.63228,6.91797 -14.85266,10.91366 -3.60273,1.40851 -13.73969,5.48451 -22.52654,9.05779 -26.44367,10.7536 -26.60125,10.80881 -31.41971,11.00415 -2.542469,0.10305 -5.226558,-0.11674 -6.65671,-0.54491 z m 10.139464,-1.07815 c 1.59924,-0.42046 6.14288,-2.07324 10.09696,-3.67282 3.95409,-1.59961 12.94065,-5.23864 19.97014,-8.08679 7.02949,-2.84813 15.75264,-6.36122 19.38479,-7.80685 8.66807,-3.45002 10.22601,-4.28005 12.15304,-6.47482 3.37195,-3.84043 3.38459,-3.96031 3.2232,-30.53476 l -0.14612,-24.05696 -5.59165,2.37539 c -3.07539,1.30647 -6.43038,2.76626 -7.45551,3.24398 -1.02515,0.47772 -4.02067,1.76091 -6.65671,2.85154 -12.38133,5.12257 -18.23603,7.56923 -19.7039,8.23417 -5.32138,2.41058 -19.9676,8.3596 -22.24881,9.03704 -3.49112,1.03675 -10.471788,1.02918 -14.517495,-0.0161 -3.130917,-0.80866 -12.947782,-4.82939 -26.747661,-10.95512 -3.885764,-1.72489 -7.183449,-3.13616 -7.328191,-3.13616 -0.144736,0 -1.279037,-0.46504 -2.520654,-1.03343 -1.241611,-0.56837 -7.409778,-3.19165 -13.707031,-5.82949 l -11.44955,-4.79608 -0.138598,23.63495 c -0.133082,22.69593 -0.09528,23.7507 0.951614,26.54878 1.4688,3.92572 4.484389,6.61949 9.850847,8.79957 2.335947,0.94895 4.726459,1.93072 5.312251,2.18173 0.58579,0.25099 4.060595,1.66246 7.72179,3.13661 3.661193,1.47413 13.726149,5.60792 22.366565,9.18618 19.967279,8.26904 21.479732,8.66797 27.180663,7.1691 z m 0.66072,-19.47335 c -6.750452,-0.9977 -10.445157,-5.61228 -10.445157,-13.04573 0,-6.6349 3.054352,-11.3222 8.668507,-13.303 4.25717,-1.502 12.98447,-0.76572 13.72256,1.15773 0.17631,0.45957 -0.2467,1.87412 -0.94009,3.14345 l -1.26074,2.30789 -4.03748,-0.11453 c -4.38849,-0.12438 -6.11874,0.56075 -7.76676,3.07591 -2.6797,4.08975 0.96988,10.22305 5.80454,9.75481 1.4111,-0.13667 1.69682,-0.38854 1.69682,-1.49571 0,-1.01951 -0.31181,-1.37134 -1.33132,-1.50215 -1.71683,-0.22025 -2.66479,-1.47926 -2.65454,-3.52559 0.0141,-2.8279 0.40588,-3.0172 5.89426,-2.84833 l 5.0146,0.15437 0.14794,7.2957 c 0.17913,8.83162 0.95047,7.98838 -8.4023,9.18562 -0.73226,0.0938 -2.58215,-0.0141 -4.11088,-0.24036 z m 8.29138,-1.62883 c 1.74269,-0.37375 2.69856,-0.86979 2.82204,-1.46447 0.10265,-0.49463 0.1113,-3.47546 0.0201,-6.62409 l -0.16746,-5.72477 h -3.95976 -3.95977 v 1.86388 c 0,1.60751 0.17411,1.86387 1.26614,1.86387 1.77342,0 2.55845,1.18195 2.36285,3.55748 l -0.16746,2.03418 -3.26365,0.15679 c -3.03598,0.14592 -3.37873,0.0419 -4.91298,-1.49243 -3.129391,-3.12938 -3.493958,-7.97125 -0.83788,-11.12783 1.71872,-2.04259 4.37706,-2.88846 8.20698,-2.61143 3.03036,0.21919 3.08724,0.19705 4.0416,-1.57511 1.1942,-2.21747 0.79759,-2.5551 -3.60111,-3.06562 -6.01103,-0.69765 -11.474611,1.77171 -13.854655,6.26187 -0.956675,1.80485 -1.205349,3.14402 -1.212675,6.53072 -0.0081,3.71246 0.18175,4.58518 1.475982,6.78687 2.661264,4.52732 8.379498,6.2091 15.742488,4.63003 z m 16.68655,1.58543 c -5.99333,-1.15819 -9.68737,-6.30241 -9.68081,-13.4812 0.004,-4.01824 0.66672,-6.5001 2.34387,-8.77335 5.58656,-7.57214 17.60181,-6.61557 21.35889,1.70048 5.22561,11.56649 -2.43346,22.79351 -14.02195,20.55407 z m 7.66135,-2.02825 c 2.56826,-1.16647 5.36959,-4.37487 6.09447,-6.98006 1.36816,-4.917 -0.10224,-11.30554 -3.27311,-14.21995 -6.04422,-5.55553 -15.81716,-2.67385 -18.36719,5.41576 -1.87616,5.95187 0.71066,13.10469 5.63959,15.59404 2.93315,1.4814 6.89591,1.55748 9.90624,0.19021 z m -7.1756,-4.45836 c -4.01783,-2.06485 -5.04328,-8.8253 -1.90445,-12.55559 3.75485,-4.46236 10.36677,-1.00279 10.37173,5.42685 0.004,5.83773 -4.15885,9.34293 -8.46728,7.12874 z m 5.14028,-1.74239 c 2.73227,-1.91375 2.60191,-8.11895 -0.21716,-10.33642 -3.85562,-3.03284 -8.26932,1.23216 -7.0503,6.81276 0.82251,3.76545 4.42708,5.51313 7.26746,3.52366 z m -72.20164,6.88743 c -4.637599,-2.31102 -6.946479,-6.34019 -6.98928,-12.19681 -0.04384,-5.99779 1.959114,-9.77665 6.522327,-12.30538 2.492951,-1.38149 3.258834,-1.53508 7.566539,-1.51743 3.504532,0.0141 5.258055,0.26856 6.523581,0.94563 2.021257,1.08138 2.067624,1.34577 0.704595,4.01752 -1.495513,2.93145 -2.060157,3.24979 -4.831758,2.72408 -5.085593,-0.96465 -8.520596,1.33521 -8.520596,5.70481 0,4.41033 2.191789,6.68984 6.517478,6.7783 2.07803,0.0425 2.269386,-0.0658 2.269386,-1.28493 0,-1.11578 -0.301773,-1.37444 -1.86388,-1.59761 -1.859998,-0.26571 -1.864211,-0.27263 -2.023588,-3.32835 l -0.159711,-3.0621 h 5.618222 5.618214 v 7.69677 7.69676 l -1.997014,0.55459 c -1.098358,0.30503 -4.286472,0.55594 -7.084696,0.55757 -4.416795,0.002 -5.45454,-0.17974 -7.869815,-1.38342 z m 13.589952,-0.29192 2.435437,-0.61327 -0.331951,-3.5139 c -0.182575,-1.93265 -0.333656,-4.90194 -0.335739,-6.5984 l -0.0038,-3.0845 -4.127162,0.15558 -4.127165,0.15559 -0.163012,1.67888 c -0.154196,1.58813 -0.04474,1.69888 2.024094,2.04841 l 2.187105,0.36952 -0.160214,2.47816 -0.160275,2.47817 h -3.585949 c -3.421318,0 -3.675839,-0.09 -5.544666,-1.95892 -1.668307,-1.66846 -1.990309,-2.37912 -2.171619,-4.79284 -0.425229,-5.66099 2.802866,-8.68219 8.815676,-8.2507 3.311329,0.23762 3.389552,0.21214 4.391447,-1.43094 0.561033,-0.92008 1.020958,-1.83402 1.022051,-2.03097 0.0038,-0.69002 -3.921366,-1.64412 -6.662616,-1.61949 -6.434324,0.0578 -10.69416,2.97012 -12.269181,8.38801 -1.511883,5.2007 0.489172,11.91775 4.292847,14.41001 3.478123,2.27896 9.459381,2.99453 14.474592,1.7317 z m 6.556797,-11.61178 v -13.33677 h 3.717624 c 3.418518,0 3.739811,0.0964 3.993577,1.19821 0.151761,0.65903 0.216269,6.59014 0.143307,13.18029 l -0.132639,11.9821 -3.860877,0.15639 -3.860911,0.15639 z m 5.192238,11.88937 c 1.197338,-0.32087 1.198224,-0.3298 1.198224,-12.2411 v -11.91996 h -2.662693 -2.662694 v 12.24834 12.24837 l 1.46449,-0.008 c 0.805458,-0.004 2.003662,-0.15176 2.662673,-0.32838 z M 30.371083,107.39477 c -0.0011,-0.0947 -0.740414,-1.96949 -1.643138,-4.16621 C 24.340072,92.55095 22.823566,77.040227 24.953086,64.619616 27.734074,48.399259 34.449327,34.809371 45.097755,23.852144 60.83394,7.6596205 83.348507,-0.94414019 105.06423,0.93644481 c 11.05842,0.95765939 21.32608,3.92268829 30.62234,8.84292839 7.82211,4.1400138 11.83551,7.1095038 17.96873,13.2949058 7.82314,7.889725 13.30777,16.57601 17.29004,27.383131 5.685,15.427971 6.03085,36.06377 0.8438,50.34753 -1.73776,4.78538 -2.60278,6.38622 -3.54929,6.5685 -0.6795,0.13087 -0.98002,-0.67245 -1.4918,-3.98752 -0.81437,-5.275212 -1.90204,-9.203377 -3.61484,-13.055108 -1.1914,-2.67921 -1.47608,-2.980712 -2.36509,-2.50492 -1.32486,0.709039 -2.05372,0.20673 -2.05372,-1.415369 0,-0.721384 -0.70729,-2.871505 -1.57177,-4.77804 -1.4263,-3.145656 -1.69182,-3.4363 -2.86946,-3.140735 -1.06947,0.268419 -1.61256,-0.06757 -3.08794,-1.910381 -0.98463,-1.229849 -3.22809,-3.264326 -4.98546,-4.521066 -3.78117,-2.704013 -11.48157,-6.641879 -12.988,-6.641879 -1.56614,0 -1.7508,-0.71382 -0.77763,-3.005519 1.13294,-2.667826 1.1021,-7.318293 -0.0674,-10.173853 -0.53255,-1.300296 -2.14768,-3.378359 -3.79808,-4.886744 -2.20681,-2.016888 -2.87152,-2.980919 -2.87152,-4.164573 0,-5.888245 -5.46297,-15.733033 -10.43593,-18.806486 -2.15481,-1.331753 -2.28643,-2.197223 -0.48108,-3.16342 0.73225,-0.391885 1.33135,-0.878281 1.33135,-1.080886 0,-0.396278 -4.49161,-1.037064 -7.32239,-1.044636 -1.37418,-0.0038 -1.73073,-0.224054 -1.73073,-1.069703 0,-0.585791 -0.29956,-1.059216 -0.66568,-1.052057 -1.21338,0.02373 -5.40849,1.053633 -9.046842,2.221004 -1.973572,0.633224 -3.743454,0.996201 -3.933034,0.806611 -0.1896,-0.18958 0.0473,-0.942855 0.526231,-1.673935 0.479032,-0.731073 0.870952,-1.460926 0.870952,-1.621895 0,-0.603124 -6.252051,2.89318 -9.385343,5.248524 -6.642908,4.993554 -10.728135,11.888399 -11.917396,20.113581 -0.383805,2.654508 -0.725806,3.274928 -2.920312,5.29775 -2.8729,2.648149 -3.784584,4.211774 -4.557774,7.817041 -0.399388,1.862283 -0.385435,3.260565 0.04941,4.952581 1.195398,4.651249 1.22629,4.594395 -3.546703,6.527149 -5.648362,2.287226 -9.258651,4.614915 -13.620137,8.781417 -1.958836,1.871268 -3.87597,3.295565 -4.260297,3.165103 -1.170247,-0.397234 -3.526307,3.756812 -4.407396,7.770827 -0.263276,1.199407 -0.560352,1.461005 -1.407545,1.239459 -0.79382,-0.207588 -1.346084,0.159751 -2.117879,1.408684 -1.517969,2.456429 -3.205937,8.338324 -3.903544,13.602304 -0.479449,3.61782 -0.801656,4.62429 -1.524997,4.76359 -0.504414,0.0971 -0.917934,0.0991 -0.91894,0.004 z m 2.705715,-12.953068 c 1.338383,-4.46042 4.077947,-9.487519 4.981385,-9.140832 0.385174,0.147795 1.227041,-1.071102 2.09113,-3.027672 1.776965,-4.023595 3.196763,-5.796087 4.469986,-5.580388 0.597735,0.101261 1.759822,-0.710803 3.031542,-2.118445 2.766174,-3.061827 9.015484,-7.092235 13.894791,-8.961253 3.953717,-1.514478 3.980828,-1.538133 3.579909,-3.123647 -0.222186,-0.878685 -0.403051,-3.394924 -0.401922,-5.591641 0.0016,-3.391255 0.2222,-4.369036 1.460727,-6.47887 0.802268,-1.366666 2.418925,-3.30679 3.592567,-4.311384 1.321768,-1.131381 2.133903,-2.284538 2.133903,-3.02993 0,-2.09025 1.626172,-7.626978 3.213964,-10.942799 2.985559,-6.234793 8.014936,-11.037932 16.425717,-15.686839 5.546647,-3.065805 6.854666,-3.022861 4.974767,0.163334 l -1.092575,1.851758 1.713244,-0.715836 c 2.405686,-1.005158 11.404487,-2.67033 11.877037,-2.197773 0.21528,0.215277 0.11936,0.827161 -0.21331,1.359744 -0.56155,0.899166 -0.29382,0.988829 3.7479,1.255223 2.39397,0.157799 4.77205,0.455704 5.28461,0.662034 1.41914,0.571264 1.11584,1.736355 -0.6959,2.673243 l -1.62785,0.841792 3.15312,3.037785 c 4.17883,4.025998 7.23318,10.187167 8.35969,16.862963 0.26377,1.563119 0.90535,2.588185 2.44445,3.905608 4.54632,3.891468 6.46778,10.56351 4.59116,15.94219 -0.75188,2.154998 -0.74035,2.263284 0.24084,2.263284 1.26052,0 8.75421,3.691893 11.79856,5.812767 1.22302,0.852027 3.37728,2.732261 4.78722,4.178292 1.94441,1.994176 2.85918,2.572629 3.78774,2.395124 1.39003,-0.26572 2.92811,1.803736 4.57316,6.15318 0.66247,1.751499 1.28212,2.547073 2.07771,2.667582 2.15436,0.326311 5.61864,9.165844 6.69957,17.094684 l 0.39371,2.88789 0.77702,-1.82282 c 1.13069,-2.65252 3.16499,-9.31804 3.96942,-13.006105 1.10656,-5.073295 0.95364,-22.867586 -0.24485,-28.490743 C 166.46095,31.885575 145.04855,10.40142 114.45016,3.550472 109.75408,2.499019 107.43955,2.312756 99.070232,2.312756 c -9.449288,0 -10.134908,0.073063 -16.774939,1.7875763 C 59.518711,9.9814402 40.096156,26.009672 32.02322,45.586749 23.617913,65.969826 22.956918,83.91916 29.924661,102.57314 l 1.247053,3.3386 0.393274,-3.87114 c 0.216301,-2.129122 0.896617,-5.548629 1.51181,-7.598898 z m 59.741966,-0.563008 c -1.503033,-0.749003 -3.57865,-2.298069 -4.612454,-3.442374 -2.279387,-2.522997 -4.579674,-6.918699 -4.579674,-8.751441 0,-1.867736 2.972623,-10.959771 4.907872,-15.011194 2.680385,-5.611322 3.184717,-5.917808 10.162502,-6.175765 6.93363,-0.256326 7.61106,0.0157 10.36925,4.164553 2.30604,3.468651 5.44905,13.202478 5.44255,16.855354 -0.008,4.61468 -4.14389,10.607934 -8.78186,12.726342 -3.35387,1.53188 -9.446858,1.359364 -12.908186,-0.365475 z m 13.662756,-1.70599 c 2.85946,-1.773348 6.44075,-6.829694 6.78974,-9.586271 0.487,-3.846826 -3.88855,-16.144092 -6.90084,-19.394401 -1.2014,-1.296329 -1.43389,-1.335018 -7.221087,-1.201628 -3.64801,0.08409 -6.277936,0.385311 -6.744468,0.772504 -1.872351,1.553911 -7.180609,15.302661 -7.180609,18.598262 0,4.504573 5.727914,11.02282 10.8415,12.337398 3.014359,0.774917 7.847534,0.06688 10.415764,-1.525864 z M 89.617683,88.240977 c -1.024001,-1.029128 -0.792516,-2.479526 0.532551,-3.33673 0.659011,-0.426332 3.184416,-1.174345 5.612041,-1.662257 4.14737,-0.833554 4.640755,-0.831497 8.172915,0.03408 2.16331,0.530145 4.35883,1.457346 5.17183,2.184142 l 1.41276,1.262928 -1.25397,1.060826 c -1.02509,0.867209 -1.65687,0.988404 -3.46149,0.664047 -2.90664,-0.522441 -9.520262,-0.505682 -12.85827,0.03259 -1.918604,0.309385 -2.848711,0.242413 -3.328367,-0.23964 z m 18.815857,-1.653731 c 0.55614,-0.55615 -6.42479,-2.529142 -8.801049,-2.487406 -2.845208,0.05 -8.654679,1.585081 -8.907741,2.353804 -0.181347,0.55076 17.16078,0.6816 17.70879,0.133606 z M 98.360178,79.974439 c -0.195236,-0.195256 -0.355027,-1.143615 -0.355027,-2.107443 0,-1.392436 -0.401058,-2.057926 -1.952357,-3.239605 -3.570379,-2.719706 -4.438091,-3.778353 -4.438091,-5.41469 0,-1.300429 0.265923,-1.637915 1.505107,-1.910077 2.011612,-0.441827 3.960085,0.366065 5.10791,2.117872 l 0.941237,1.436525 1.706743,-1.654224 c 1.41774,-1.374124 2.13075,-1.654227 4.21092,-1.654227 2.2476,0 2.50223,0.122777 2.48504,1.198208 -0.0223,1.403779 -1.57959,3.316846 -4.37426,5.374031 -1.24796,0.918628 -1.99976,1.909296 -2.00429,2.64113 -0.0141,2.1408 -0.63866,3.567527 -1.563698,3.567527 -0.502823,0 -1.073978,-0.159751 -1.269234,-0.355027 z m 4.177382,-7.104512 c 1.22572,-0.843315 2.65366,-2.182065 3.17321,-2.974992 l 0.94462,-1.441685 -2.03571,0.330349 c -1.39308,0.226067 -2.43439,0.83978 -3.29864,1.944079 -1.624785,2.076083 -2.337637,2.03236 -4.078596,-0.250153 -1.058238,-1.38743 -1.8231,-1.863881 -2.992159,-1.863881 -0.863787,0 -1.5705,0.135578 -1.5705,0.301279 0,0.949332 1.357955,2.471915 3.714752,4.165112 2.044802,1.469046 2.688496,2.267788 2.730059,3.38765 0.05334,1.436375 0.06562,1.430454 0.619361,-0.299546 0.354903,-1.108621 1.393703,-2.335066 2.793603,-3.298212 z M 71.131618,64.155098 c -2.33032,-2.330318 -3.095851,-7.56851 -1.550903,-10.612078 1.409665,-2.777053 4.436644,-6.20465 5.776412,-6.54091 1.630075,-0.409122 3.476675,0.6068 3.476675,1.912714 0,0.596842 -0.640889,1.364078 -1.518564,1.817944 -0.835204,0.431904 -2.273055,1.644604 -3.195224,2.694889 -2.033871,2.316458 -2.246295,5.322885 -0.603731,8.544677 1.714051,3.362016 0.189802,4.75722 -2.384665,2.182764 z m 0.929966,-2.003427 c -0.457973,-0.918024 -0.850819,-2.924422 -0.873,-4.45865 -0.03307,-2.287308 0.2348,-3.150215 1.487835,-4.793029 0.840482,-1.101931 2.20875,-2.390614 3.040596,-2.863734 1.750646,-0.995706 1.954267,-1.659031 0.509265,-1.659031 -1.124389,0 -3.829454,2.840815 -5.165815,5.42505 -1.355429,2.621116 -0.900354,7.110255 0.946356,9.335409 0.923016,1.112161 0.940887,0.79027 0.05477,-0.986015 z m 52.690236,2.819524 c -0.52665,-0.334219 -0.36529,-1.116138 0.71905,-3.484678 2.14031,-4.675038 1.07895,-7.643587 -3.97095,-11.106602 -1.57231,-1.078228 -1.21412,-2.21544 0.93365,-2.964157 1.50116,-0.523308 1.77002,-0.406916 3.84322,1.663875 3.35071,3.346795 3.79712,4.267942 3.85303,7.950868 0.0811,5.345246 -2.78933,9.583546 -5.378,7.940694 z m 3.0646,-3.259319 c 1.29648,-2.541321 1.38359,-5.868551 0.21794,-8.324952 -1.10792,-2.334772 -4.21216,-5.074219 -5.2839,-4.662956 -0.61286,0.235178 -0.27599,0.711588 1.34736,1.905414 1.19052,0.875507 2.51665,2.272709 2.94699,3.104884 1.12816,2.181639 0.99261,6.27381 -0.27681,8.355797 -0.58039,0.951909 -0.82401,1.730747 -0.54136,1.730747 0.28262,0 0.99803,-0.949019 1.58978,-2.108934 z M 97.206335,53.430819 c -0.878682,-0.3948 -3.234754,-1.124867 -5.235699,-1.622374 -3.58481,-0.891318 -3.660529,-0.887975 -5.170667,0.228528 -1.877083,1.387786 -2.745588,1.423333 -3.889601,0.159208 -1.292553,-1.428254 -1.103567,-2.031949 1.106155,-3.533497 2.342898,-1.592031 4.428398,-1.701968 9.562151,-0.504072 3.949116,0.921476 8.077836,0.821501 14.408076,-0.348883 3.66824,-0.678212 3.97599,-0.655589 6.2746,0.461163 2.61746,1.271655 3.3936,2.423119 2.54341,3.773335 -0.82258,1.306379 -2.13388,1.326673 -3.74677,0.05799 -1.74712,-1.374282 -4.18259,-1.162343 -9.75927,0.849274 -4.036835,1.456176 -3.935916,1.448236 -6.092385,0.479325 z m 6.390455,-2.132555 c 4.81044,-1.494155 8.62128,-1.697494 10.14956,-0.541554 1.21569,0.919502 1.83254,1.018472 1.83254,0.294025 0,-0.286942 -0.93235,-0.997351 -2.07186,-1.578684 l -2.07183,-1.056976 -5.91244,1.156576 -5.912449,1.156569 -6.158278,-1.200189 -6.158279,-1.200186 -1.872532,1.157289 c -1.234393,0.762892 -1.693074,1.336771 -1.345906,1.683936 0.347165,0.347167 0.945291,0.233407 1.755096,-0.333795 1.694083,-1.186582 4.836734,-1.03546 9.24578,0.444606 2.050278,0.688251 3.847593,1.271683 3.99404,1.296514 0.146528,0.02482 2.183408,-0.550329 4.526558,-1.278131 z"
       id="path896" />
  </g>
</svg>
