<?xml version="1.0" encoding="UTF-8" standalone="no"?>
<!-- Created with Inkscape (http://www.inkscape.org/) -->

<svg
   width="149.33368mm"
   height="159.67094mm"
   viewBox="0 0 149.33368 159.67094"
   version="1.1"
   id="svg5"
   xmlns="http://www.w3.org/2000/svg"
   >
  <defs
     id="defs2" />
  <g
     id="layer1"
     style="display:inline"
     transform="translate(-24.622212,-23.243019)">
    <path
       style="color:#000000;fill:#5c1d8f;fill-opacity:1;-inkscape-stroke:none"
       d="M 311.25254,290.4393 5.3604839,289.52247 -88.293401,-1.6814848 159.71737,-180.73859 406.65035,-0.19801814 Z"
       id="path746-3"
       transform="matrix(0.24545462,-0.20053326,0.17548657,0.2733634,46.589313,104.84407)" />
    <path
       style="color:#000000;fill:#863cc1;fill-opacity:1;-inkscape-stroke:none"
       d="M 311.25254,290.4393 5.3604839,289.52247 -88.293401,-1.6814848 159.71737,-180.73859 406.65035,-0.19801814 Z"
       id="path746"
       transform="matrix(0.24583025,-0.17803061,0.17575511,0.24268818,46.253947,95.706434)" />
    <path
       id="path916"
       style="fill:#ffffff;stroke:none;stroke-width:0.41035"
       d="m 97.976439,31.183107 0.41031,0.410311 z m 0,0.410311 c -6.696535,3.523276 -12.932,7.20344 -16.281694,14.362432 -1.228587,2.626244 -1.255252,5.608389 -2.395204,8.206735 -0.785826,1.791189 -2.515452,2.945987 -3.630784,4.513935 -2.517093,3.539283 -1.904476,7.224596 -0.671793,11.079426 -6.542635,2.603278 -11.408931,5.664047 -16.413985,10.669117 l -1.231451,-0.820621 -3.282486,7.79694 -1.641761,-0.82114 -4.513419,16.003678 c -0.97069,-1.20151 -1.320342,2.09585 -1.357024,7.28999 0.01156,0.003 0.02355,0.005 0.03462,0.008 0.501091,-0.0295 0.866452,0.0954 1.091922,0.29042 4.165534,0.88191 8.25941,3.25474 12.130526,4.88084 8.365017,3.51384 16.69034,7.11693 25.031547,10.68617 4.714938,2.01771 9.520544,4.61608 14.772228,4.74286 6.167989,0.14937 11.692909,-2.79092 17.235129,-5.15576 7.90993,-3.37515 15.89797,-6.56854 23.80009,-9.96011 4.21893,-1.81101 8.62829,-4.44176 13.17233,-5.32268 0.30625,-0.16211 0.61244,-0.32434 0.9188,-0.48627 -0.0298,-0.0171 -0.0636,-0.0258 -0.0925,-0.045 -0.15866,-0.10519 0.17557,-0.17213 0.48008,-0.1602 0.0851,-0.0449 0.17013,-0.09 0.25528,-0.13487 -0.1695,-0.0271 -0.34787,-0.0405 -0.4992,-0.10697 -0.0409,-0.018 -0.0186,-0.0266 0.0357,-0.0279 0.16268,-0.004 0.61111,0.0567 0.49248,0.11938 -0.01,0.005 -0.0193,0.0104 -0.0289,0.0155 0.0775,0.0124 0.13481,0.0587 0.20464,0.0837 -0.17702,-5.85425 -0.82315,-9.10626 -2.21744,-6.71691 h -0.41031 c -0.1202,-5.833148 -2.32433,-10.7446 -4.51394,-16.003673 l -1.64176,0.82114 c -0.53797,-2.324232 -1.60855,-7.182734 -4.51342,-6.976319 h -0.41031 c -4.15481,-4.329218 -9.68559,-9.611677 -16.00419,-10.258806 0.68652,-4.039486 2.06502,-7.234425 -0.39791,-11.079427 -1.15227,-1.798976 -3.31861,-3.027206 -4.15943,-4.99401 -2.86055,-6.689556 -3.17411,-11.815582 -9.80457,-16.34422 l 3.28249,-2.051555 -8.20674,-1.23145 0.82062,-2.051553 -11.07943,2.872692 z M 108.93339,57.13398 c 0.17803,0.0024 0.35551,0.01066 0.53279,0.02532 1.82073,0.151061 3.29195,1.185537 4.10362,2.748153 l -5.33455,-0.764297 -7.79643,2.000396 -6.976318,-1.859833 -6.15518,0.213423 c 3.748146,-4.520033 8.734539,-0.715804 13.541808,-0.975135 2.6637,-0.14351 5.41381,-1.422138 8.08426,-1.388027 z m -26.608709,0.0036 c 0.537872,-0.03158 1.106422,0.06232 1.699639,0.307991 v 0.820621 c -4.975106,2.875743 -5.805332,6.55198 -3.282487,11.489737 -5.949725,-0.270353 -3.616585,-12.313078 1.582848,-12.618349 z m 36.184869,0.347799 c 5.07698,0.04261 7.43191,11.288437 1.62574,12.270567 1.80308,-6.26156 1.2277,-7.153904 -3.28248,-11.900048 0.57744,-0.259135 1.13154,-0.374927 1.65674,-0.370519 z m -17.77566,9.615434 c 1.9085,0.04514 3.78648,0.299799 4.61109,0.851109 7.6674,5.127749 8.59487,21.520327 -1.21336,24.691517 -6.307502,2.03943 -14.247584,-2.09029 -15.339117,-8.935371 -0.437846,-2.746475 1.159735,-6.111128 2.130618,-8.617563 0.943403,-2.435014 2.221248,-6.736263 5.017783,-7.584033 0.945449,-0.286636 2.88449,-0.450797 4.792986,-0.405659 z m -6.040457,5.527828 4.266406,5.762438 1.889291,3.264918 5.33456,-9.027356 c -2.75714,0.0078 -4.20935,0.476539 -5.74487,2.872174 -1.834289,-2.074748 -2.951297,-2.862331 -5.745387,-2.872174 z m 5.828067,11.948623 c -2.618861,0.0096 -5.265269,0.618295 -7.879619,1.592668 0.290536,0.954074 0.539117,1.654349 1.66553,1.804543 1.443215,0.192452 3.04481,-0.437097 4.489649,-0.536403 2.97464,-0.205187 7.28876,1.514824 9.43819,-0.85783 -2.50356,-1.423098 -5.09488,-2.012569 -7.71375,-2.002978 z m 34.2036,172.710386 c -0.19086,0.0225 -0.38172,0.0462 -0.57258,0.0687 0.19719,-0.008 0.38783,-0.031 0.57258,-0.0687 z" />
    <path
       id="path783"
       style="fill:none;stroke-width:1.33793"
       transform="scale(0.26458333)"
       d="M -18.0625,-18.730469 V 377.96484 774.6582 h 239.11328 c -1.07104,-0.69754 -2.1535,-1.38482 -3.1582,-2.15039 -1.14625,0.11716 -2.2911,0.23681 -3.44336,0.30469 -2.6901,0.15847 -1.34165,-0.62095 1.70312,-1.65625 -3.49156,-3.01101 -5.80581,-6.3466 -5.06054,-9.46094 -0.76887,-0.0116 -1.53779,-0.004 -2.30664,-0.0176 -12.50746,-0.21399 -24.92741,-2.14619 -37.39063,-3.21875 -1.01513,-1.67223 -2.73789,-3.48394 -4.58594,-5.32031 -1.59622,0.0714 -3.19346,0.11647 -4.79687,0.0703 -2.46688,-0.071 -0.60445,-1.04707 2.54687,-2.29296 -0.74093,-0.7322 -1.45742,-1.45885 -2.13086,-2.17774 -54.72514,0.78227 -110.13035,1.25338 -118.804683,0.17969 -1.81652,-0.22485 -2.990514,-1.34286 -3.826172,-2.93359 -0.348559,0.0818 -0.400575,0.0941 -0.757813,0.17773 0.186546,-0.20232 0.354509,-0.44375 0.53125,-0.66602 -1.61784,-3.5157 -1.883045,-8.9167 -3.544921,-12.37109 36.135664,-8.25491 30.319092,-7.65893 63.287109,-9.58203 0.05314,-0.0696 0.123138,-0.14066 0.179688,-0.21094 -5.794414,-0.0688 -11.588955,-0.11901 -17.382813,-0.23242 -11.353017,-0.22224 -23.619711,2.33466 -33.988281,-2.29492 -2.073035,-0.92562 -4.498707,-2.66304 -6.697266,-4.69727 -0.771919,0.008 -1.545239,-0.002 -2.320312,-0.0391 -1.815205,-0.0857 -1.278844,-0.93729 0.298828,-2.02344 -3.50644,-3.93692 -5.598748,-8.4707 -2.572266,-11.16211 9.540252,-8.48404 24.852395,-5.47338 37.708984,-6.60351 15.877278,-2.79874 24.424179,-4.2701 33.525388,-4.99024 -1.4933,-1.68933 -1.83309,-3.51445 -0.18945,-5.4375 1.13382,-1.32656 2.43697,-2.32443 3.85938,-3.08984 -1.98929,-0.93675 -3.87802,-2.06302 -5.62305,-3.4336 -4.10698,-3.22568 -4.56973,-12.22412 -1.27539,-16.59765 -6.125878,0.0757 -12.250681,0.0924 -18.376956,0.0117 -9.711053,-0.12798 -20.717431,2.09155 -28.980468,-3.01172 -3.835892,-2.36905 -1.711127,-12.00105 2.615234,-13.26953 14.689266,-4.30685 30.609779,-0.63962 45.91406,-0.95899 12.72561,-0.14959 2.69002,-0.0283 12.44727,-0.14453 -2.66592,-0.92286 -5.19234,-2.14382 -7.49805,-3.78906 -3.71938,-2.65398 0.34832,-11.48576 4.70117,-12.875 5.63184,-1.79754 11.43837,-2.77346 17.32227,-3.375 -1.47685,-1.12891 -2.7911,-2.39315 -3.86328,-3.84766 -0.60188,-0.81651 -0.68286,-1.77733 -0.42774,-2.77343 -6.56964,-0.48017 -8.68457,-1.7405 2.76172,-4.69727 -12.34906,-0.18128 -22.58873,-1.29106 -34.998045,-5.45312 -4.269834,0.25989 -8.537607,0.54666 -12.800781,0.88867 -2.827884,0.22684 -11.031328,2.64656 -8.308594,1.84961 5.100278,-1.49285 10.163067,-3.2046 15.232422,-4.88282 -5.426368,-2.11941 -11.314863,-4.7866 -18.009766,-8.20312 -3.15668,-1.61087 6.885743,-1.837 10.417969,-2.125 34.300325,-2.79826 59.188925,-2.13473 93.556645,-2.0293 -0.4931,-1.60083 -1.1669,-3.18735 -1.55079,-4.71875 -0.52581,-2.09764 -1.0027,-4.20996 -1.37695,-6.33984 -0.35254,-2.00633 -0.5333,-4.0372 -0.80078,-6.05664 -0.50415,-2.93456 -0.95799,-5.8802 -1.50586,-8.80664 -0.50415,-1.16189 -0.9055,-2.38854 -1.17969,-3.62891 -0.61821,0.32547 -1.07717,0.52507 -0.80664,0.14844 0.22408,-0.31196 0.43699,-0.65547 0.65625,-0.97852 -0.13852,-0.76958 -0.23044,-1.52387 -0.28125,-2.26758 -1.52607,-2.20701 -3.00967,-5.23274 -4.61719,-9.4414 -0.45357,-1.18757 0.57339,-1.65703 2.35743,-1.74805 -3.09007,-15.29982 -5.59564,-30.7966 -5.82422,-46.40039 -0.28968,-8.58451 -2.99454,-14.70927 7.28125,-18.37109 0.0807,-1.12353 0.14003,-2.37712 0.0137,-2.91602 -0.81807,-3.48816 -2.14398,-6.93799 -1.66602,-10.61328 -4e-5,-4.77237 -4.4e-4,-9.54403 0,-14.31641 -7.4e-4,-3.90682 -0.004,-7.81392 0.004,-11.7207 0.002,-1.15555 -0.004,-2.31132 -0.0117,-3.4668 -1.36692,-2.5765 -1.19465,-5.04046 0.0312,-6.74414 3.5e-4,-0.0274 0.002,-0.0547 0.002,-0.082 -0.0238,-0.0857 -0.0612,-0.1674 -0.082,-0.2539 -0.53062,-2.20339 -0.24606,-2.60698 0.11133,-4.76758 0.16844,-0.44407 0.34827,-0.62267 0.51758,-0.95117 -0.0409,-0.0495 -0.0847,-0.0967 -0.12305,-0.14844 -0.0403,-0.0545 0.0263,0.0173 0.13086,0.13086 0.37146,-0.71594 0.80471,-1.20967 1.26563,-1.44727 0.15341,-0.99286 0.48766,-2.33519 1.00195,-4.16015 0.0826,-0.29308 0.57109,-0.11951 1.13672,0.20312 0.15721,-0.0305 0.39727,-0.0292 0.75391,-0.0195 -0.0551,-0.44217 -0.0997,-0.88703 -0.12891,-1.33203 -0.0128,-0.19503 0.38367,-0.0788 0.57812,-0.0977 0.27888,-0.0279 0.66931,-0.0653 1.07813,-0.0684 0.38465,-0.003 0.78418,0.0259 1.11914,0.11914 0.612,-0.0361 1.16932,-0.0104 1.67383,0.0645 0.009,-0.002 0.0127,-0.0625 0.0215,-0.0625 3.74075,0 16.67094,4.48127 29.65625,10.27929 37.91394,16.92895 144.54977,62.09112 151.40235,64.1211 10.31481,3.05566 28.01286,3.0872 39.3164,0.0703 4.78308,-1.27658 15.01762,-4.92418 22.74414,-8.10547 36.67821,-15.10176 114.88489,-48.31499 130.44727,-55.39844 16.10928,-7.33236 29.50224,-12.05618 30.67187,-10.81836 4.6e-4,4.8e-4 9.6e-4,0.12044 0.002,0.1211 0.94338,-0.49928 1.88639,-0.99927 2.83007,-1.49805 -0.11276,-0.0646 -0.24045,-0.0975 -0.3496,-0.16992 -0.59968,-0.39756 0.66355,-0.65057 1.81445,-0.60547 0.32172,-0.16973 0.64301,-0.34023 0.96484,-0.50977 -0.64061,-0.10242 -1.31476,-0.15307 -1.88672,-0.40429 -0.15465,-0.0679 -0.0702,-0.1005 0.13477,-0.10547 0.61487,-0.0149 2.30971,0.21419 1.86133,0.45117 -0.0366,0.0193 -0.0728,0.0393 -0.10938,0.0586 0.60122,0.0961 1.17148,0.23772 1.58789,0.6504 0.53414,0.52929 0.92125,1.17273 1.27344,1.84374 0.21955,0.15585 0.52067,0.34863 0.7207,0.49805 0.0659,0.0181 0.13579,0.0277 0.20118,0.0469 0.0122,0.031 0.0485,0.10101 0.0625,0.13476 2.27362,1.73762 3.20178,3.1383 3.08593,5.51758 3.21769,3.35575 2.84715,5.43211 2.23243,9.40625 0.0514,0.009 0.11346,0.0371 0.14843,0.0215 -0.0685,0.25428 -0.12894,0.46198 -0.20703,0.76368 0.43585,0.82006 1.0982,1.58 1.2832,2.47461 0.12484,0.28238 0.19335,0.56016 0.28516,0.83984 1.80754,4.62337 0.91503,11.1533 0.39258,15.44336 -0.12696,0.79521 -0.41903,1.58041 -0.38086,2.38477 0.0529,1.1155 0.89167,2.06676 1.10937,3.1621 0.70277,3.53454 0.8206,6.67866 0.6543,10.23633 -0.54123,3.99848 -0.25289,8.0543 -0.19922,12.07617 0.0145,2.51728 0.0791,3.63229 -1.69726,4.78711 1.04892,1.7003 2.11137,4.10364 3.22656,7.33399 0.39987,1.15827 -1.37407,2.03742 -2.18164,2.95898 -0.25402,0.28987 -0.48399,0.5078 -0.73242,0.78321 -1.52347,7.09056 -3.51444,11.83979 -6.74414,18.92968 -1.00546,2.20715 -2.18495,4.33409 -3.22657,6.52344 -0.46841,2.02323 -1.03655,4.16492 -1.59765,6.2207 -0.0757,1.19979 -0.20953,2.30027 -0.44141,3.18946 1.79282,-0.69458 4.78351,0.0604 11.23438,2.26757 1.23537,0.42271 0.57882,2.56074 0.63476,3.86524 0.0915,2.14065 -0.16312,4.28339 -0.19336,6.42578 -0.0461,3.23331 -0.0277,6.46752 -0.0391,9.70117 0.14498,3.04048 0.46957,11.0337 0.85156,13.90039 0.10645,0.79883 0.7453,1.7441 1.08985,2.57227 0.004,0.0118 0.008,0.0235 0.0117,0.0352 0.24062,0.59317 0.34708,1.1337 -0.125,1.47071 -8.71293,6.21993 -10.94467,7.31565 -12.44531,4.91797 0.16763,3.14691 0.30603,6.29525 0.41016,9.44531 3.73429,-0.38852 6.4438,-0.69081 10.96484,-1.14844 6.59157,-0.66724 15.4823,-6.66588 19.80664,-1.64648 0.80999,0.94019 1.13106,2.04825 1.1211,3.23437 6.25205,-1.26129 14.34346,-6.45908 17.71484,-1.55273 1.61154,2.34525 0.85532,5.21737 -0.87695,7.97851 1.9425,1.50659 3.01423,3.304 2.14258,5.33985 -1.47138,3.43652 -5.60893,3.22169 -10.03711,2.60742 -0.14914,0.10291 -0.31134,0.23369 -0.45703,0.33008 -2.1191,1.4016 -4.5024,2.17049 -7.00196,2.65429 -0.52275,0.46914 -1.08359,0.86422 -1.67969,1.18946 1.74476,-0.13097 4.57513,-0.33979 6.45899,-0.48047 11.93431,-1.20097 25.52919,-2.55674 38.88086,-3.80859 5.37109,-1.34527 10.77638,-2.83402 15.50976,-1.39454 13.19254,-1.13584 23.68547,-1.87715 25.93946,-1.53125 1.21274,0.18612 2.1353,0.78945 2.88476,1.64453 0.038,-0.0152 0.0478,-0.0199 0.0859,-0.0352 -0.0134,0.0284 -0.022,0.0631 -0.0352,0.0918 2.4877,2.9095 2.93878,8.76137 4.95508,12.35156 -19.00997,7.44612 -23.77414,9.69147 -35.41015,12.48633 -0.0431,0.85992 -1.44423,0.94942 -3.3418,0.75586 -3.11528,0.70432 -7.95976,1.70903 -12.375,2.61328 1.00699,2.01628 1.61654,4.34407 1.51562,6.29687 0.33062,-0.0105 0.60867,-0.0228 0.94141,-0.0332 5.35034,-0.16721 20.02115,-3.27631 16.05469,0.31836 -4.51081,4.08794 -9.21098,7.45929 -14.0625,10.28711 4.04628,0.85847 8.39863,1.82322 13.78515,3.08984 0.73487,0.17279 0.91673,0.26694 0.86133,0.33008 0.13705,0.0235 0.27314,0.0507 0.41016,0.0742 1.69895,-0.253 3.39598,-0.5188 5.09375,-0.7793 7.29993,-1.68351 14.60501,-3.34651 21.92773,-4.92773 3.91011,-0.84435 -7.58882,2.6601 -11.53711,3.30273 -3.45965,0.56313 -6.9257,1.09335 -10.39062,1.625 -1.37833,0.31787 -2.75688,0.63328 -4.13477,0.95313 10.04718,1.7491 20.01361,3.80821 29.67774,7.00195 4.37559,1.44601 -8.78022,2.92987 -13.32813,3.67383 -0.0266,0.004 -0.0535,0.007 -0.0801,0.0117 1.13636,0.0857 2.27254,0.1656 3.40821,0.27929 0.68585,0.0687 1.41184,0.22341 2.15039,0.42578 3.65518,-1.59894 7.03843,-2.55288 9.14062,0.10547 0.47833,0.60488 0.70887,1.25807 0.75977,1.9375 2.52804,-0.54889 5.05375,-1.11218 7.58398,-1.65039 6.34292,-1.34918 22.06475,-8.5527 19.26563,-2.70312 -2.16291,4.52009 -5.83202,7.82946 -10.03125,10.71289 4.06484,0.39162 8.05541,1.09963 11.87109,2.53906 5.68838,2.14583 -12.1239,1.21452 -18.07031,2.48047 -1.06677,0.22711 -2.13087,0.46636 -3.19727,0.69531 -3.2468,1.86937 -6.44527,3.77891 -9.27148,5.98633 -5.74773,1.50188 -11.47268,3.09315 -17.20508,4.6582 0.91498,0.0521 1.60654,0.10704 1.86328,0.16407 1.06436,0.23641 1.8641,0.79669 2.5,1.56054 0.84341,-0.13569 1.0438,-0.16842 1.92969,-0.31054 -0.35573,0.6096 -0.65069,1.30836 -0.92578,2.03515 1.42897,3.21409 1.59379,7.98371 3.03906,11.17774 -4.78858,0.76396 -6.76185,1.08002 -10.44531,1.67382 -1.00394,3.44116 -7.95215,4.93911 -18.3086,5.23829 -0.18068,2.55942 -0.39868,4.43645 -0.82031,5.75585 10.01603,-1.15674 20.0852,-3.17614 29.86133,-1.19726 0.96152,0.19463 2.06478,0.43561 3.21484,0.70312 6.07216,-2.12929 11.95668,-3.47033 16.70118,-0.0703 2.43588,1.74561 1.27311,3.69736 -1.53711,5.5586 3.32272,2.07668 5.177,4.62193 3.54101,7.66992 -5.09457,9.49164 -21.3038,3.22085 -31.95508,4.83203 -10.38577,1.13613 -20.764,2.34146 -31.14453,3.5293 0.63414,0.65165 1.2221,1.36426 1.76563,2.13671 1.7885,0.32103 3.60647,0.66001 5.48633,1.04493 0.62668,-0.0805 1.25428,-0.15309 1.88085,-0.23438 4.96866,-1.47335 8.77274,-2.57254 5.72461,-1.45703 -0.94669,0.34646 -1.88906,0.72455 -2.83398,1.08203 4.76023,-0.62425 9.52027,-1.2501 14.2832,-1.84961 2.72222,-0.81319 5.4476,-1.60551 8.18946,-2.33008 1.92211,-0.50793 -3.74575,1.33075 -5.61914,1.9961 -0.85745,0.10526 -1.71316,0.22609 -2.57032,0.33398 -4.18611,1.2505 -8.3598,2.5593 -12.53125,3.87305 5.81573,1.33521 12.23936,2.99533 19.34961,4.95508 0.51935,-0.20021 1.03498,-0.4101 1.55469,-0.60938 0.8451,-0.32405 0.0932,0.1429 -1.08203,0.74024 1.69111,0.46735 3.32006,0.90873 5.10156,1.41406 2.75422,0.78126 -5.46204,1.71634 -8.19336,2.57422 -2.98565,0.36564 -5.96803,0.76752 -8.95117,1.15625 6.28138,1.6756 12.46103,3.60954 18.2793,6.46093 2.71483,1.33047 -5.47598,2.74881 -8.44922,3.29688 -12.29556,2.2665 -24.693,3.98456 -37.11719,5.4043 -3.05726,1.61964 -5.91021,3.06822 -8.51562,4.29101 1.58395,0.75962 3.20463,1.60807 4.85742,2.53907 0.26451,0.006 0.52671,0.0402 0.79101,0.0488 H 773.99023 V 377.96484 -18.730469 H 377.96484 Z M 695.60547,747.47266 c -0.15667,-0.0433 -0.31673,-0.0879 -0.47266,-0.13086 -1.75657,0.67715 -3.50476,1.37631 -5.25781,2.0625 0.54169,-0.0953 1.08556,-0.17851 1.62695,-0.27539 0.98322,-0.17596 2.80658,-0.99705 4.10352,-1.65625 z M 594.92578,439.1543 c -0.0177,-0.0334 -0.0241,-0.0699 -0.041,-0.10352 -0.0316,0.21264 -0.0547,0.35367 -0.0859,0.57813 -0.0225,0.16195 0.0785,-0.28728 0.12695,-0.47461 z m -0.041,-0.10352 c 0.0372,-0.25062 0.0632,-0.44609 0.0996,-0.68164 -0.18539,-0.031 -0.41489,-0.13784 -0.38086,-0.004 0.0602,0.23776 0.16861,0.46196 0.28125,0.68555 z m -5.21875,-15.60547 c -0.0705,-0.0539 -0.19057,-0.12703 -0.26368,-0.18164 -0.17465,-0.0481 -0.35568,-0.0831 -0.5332,-0.125 0.64239,1.30268 1.177,2.69151 2.14648,3.74805 0.84386,0.91958 -0.82568,-2.1768 -1.3496,-3.44141 z M 377.51367,88.800781 c 16.17705,0.135758 32.40007,1.260217 41.92578,3.314453 46.86159,10.105786 83.16332,29.633786 115.83008,62.310546 19.72522,19.73128 31.22763,35.76705 41.89453,58.4082 20.88848,44.3371 26.78474,100.34985 15.48047,147.03516 -3.31993,13.71094 -12.6754,36.15625 -15.07031,36.15625 -0.68854,0 -1.65765,-3.59062 -2.1543,-7.98047 -2.03688,-18.00369 -14.2914,-52.9839 -18.04883,-51.51953 -1.17222,0.45685 -2.62982,0.93703 -3.23828,1.06641 -0.60848,0.12944 -2.1653,-3.11688 -3.45898,-7.21289 -3.99085,-12.63566 -8.91538,-18.64258 -15.28321,-18.64258 -0.91285,0 -4.64719,-3.05709 -8.29882,-6.79492 -14.79666,-15.14592 -31.73689,-26.41089 -44.7793,-29.77539 -8.34072,-2.15161 -7.79591,-0.23951 -5.98047,-21.0293 0.8758,-10.02946 0.65465,-12.21735 -1.7832,-17.72852 -1.52959,-3.45788 -5.74595,-9.44784 -9.3711,-13.31054 -7.59261,-8.09015 -9.01527,-10.66697 -14.94921,-27.0918 -6.98028,-19.32103 -12.74831,-29.19039 -22.25977,-38.08789 -4.69101,-4.38821 -8.5293,-8.1629 -8.5293,-8.38867 0,-0.22578 2.1081,-1.5466 4.6836,-2.9336 2.57551,-1.387 4.68164,-2.92519 4.68164,-3.41797 0,-0.49279 -5.8703,-1.66125 -13.04492,-2.59765 -7.17463,-0.93639 -13.47233,-1.96452 -13.9961,-2.28516 -0.52377,-0.32063 -0.38875,-2.06726 0.30078,-3.88086 0.68952,-1.8136 1.11888,-3.29597 0.95313,-3.29297 -0.16576,0.003 -9.31297,2.38111 -20.32617,5.28516 -11.0132,2.90406 -20.20163,5.10111 -20.41993,4.88281 -0.2183,-0.21831 0.54854,-2.66167 1.70508,-5.42968 1.15656,-2.76802 1.82824,-5.30654 1.49219,-5.64258 -0.33604,-0.33603 -6.53849,2.88914 -13.7832,7.16797 -15.34088,9.06054 -35.24932,27.83732 -40.93164,38.60351 -1.95647,3.7069 -5.43361,13.63924 -7.72657,22.07227 -2.35006,8.64303 -5.44615,16.8779 -7.0957,18.875 -12.06027,14.60119 -14.36676,17.89856 -15.58398,22.28125 -1.91459,6.89358 -1.70159,17.04152 0.53125,25.42968 l 1.88867,7.09571 -3.48438,1.32422 c -15.18786,5.77441 -35.15056,18.1013 -49.96484,30.85156 -6.56357,5.64908 -9.99981,7.75408 -11.74805,7.19922 -2.0879,-0.66268 -3.36712,1.4063 -8.2539,13.34375 -4.52084,11.04353 -6.24043,13.94973 -7.875,13.3125 -1.1501,-0.44835 -2.62122,-0.91945 -3.26953,-1.04883 -0.64833,-0.12944 -4.86256,12.80883 -9.36524,28.75391 -4.50268,15.94507 -8.59396,29.39815 -9.0918,29.89453 -1.36692,1.36292 -8.8226,-12.32219 -11.66992,-21.42188 -6.31903,-20.19484 -10.09518,-58.54903 -8.13476,-82.60156 8.09499,-99.31747 79.38998,-180.32897 175.95703,-199.935548 9.33792,-1.895932 25.46944,-2.749038 41.64648,-2.613281 z M 310.19141,223.43359 c 5.19287,0 6.22851,0.41654 6.22851,2.50391 0,1.37686 -2.11763,3.93501 -4.70508,5.68555 -2.58744,1.75053 -6.27128,5.42713 -8.1875,8.16992 -5.63058,8.05934 -5.59274,15.92778 0.14454,29.46484 1.30761,3.08532 -2.85464,3.1786 -7.16407,0.16016 -9.90786,-6.93974 -8.61986,-29.08518 2.36328,-40.63086 4.5194,-4.7509 5.79445,-5.35352 11.32032,-5.35352 z m 98.88671,0.0996 c 4.93695,-0.008 9.17919,0.60536 11.56641,1.83985 2.06175,1.06618 4.75631,3.4743 5.98633,5.35156 2.17145,3.31404 2.14815,3.4123 -0.80469,3.4043 -1.67265,-0.004 -6.46676,-0.56831 -10.65234,-1.25391 -6.6156,-1.08362 -9.56759,-0.73295 -22.58985,2.68359 -8.23893,2.16157 -15.04966,3.88478 -15.13476,3.83008 -0.0851,-0.0548 -5.27255,-1.53072 -11.52734,-3.28125 -8.319,-2.32823 -14.9034,-3.20049 -24.52735,-3.24609 -14.66544,-0.0696 -15.8928,-1.22148 -6.80859,-6.39453 6.16211,-3.50904 13.39537,-3.79447 25.98437,-1.02539 11.09662,2.44078 22.59878,2.43079 32.7793,-0.0273 5.16024,-1.24598 10.79158,-1.87333 15.72851,-1.88086 z m 37.07618,1.23828 c 5.80763,0 7.23277,0.58825 11.3164,4.67188 4.91781,4.9178 8.79688,15.04565 8.79688,22.9707 0,6.85015 -3.85315,15.01845 -8.12696,17.22852 -5.91537,3.05896 -6.36342,2.48117 -4.42968,-5.73633 3.3575,-14.26774 2.12244,-18.89917 -8.19141,-30.68945 -3.3058,-3.77903 -6.01172,-7.22506 -6.01172,-7.65821 0,-0.43317 2.99172,-0.78711 6.64649,-0.78711 z m -86.74805,36.79297 h 17.06641 c 15.98203,0 17.3835,0.21341 22.05468,3.34571 6.20231,4.159 14.82963,16.76385 17.71875,25.88867 1.19972,3.78912 2.4795,12.42127 2.84375,19.18164 0.53847,9.99421 0.13864,14.01556 -2.14062,21.51953 -3.24867,10.69555 -10.71553,20.18587 -19.41406,24.67578 -6.95959,3.59231 -24.24171,4.58078 -32.56836,1.86328 -8.31102,-2.71241 -16.82713,-8.07633 -21.78125,-13.71875 -11.25356,-12.8171 -12.22566,-24.82225 -3.85547,-47.64258 7.00219,-19.09065 10.56447,-26.07676 15.85156,-31.09961 z M 170.875,425.94336 c -0.0125,0.0143 -0.0247,0.027 -0.0371,0.041 0.01,0.018 0.0182,0.0364 0.0273,0.0547 0.003,-0.0318 0.007,-0.065 0.01,-0.0957 z m -0.43359,0.48242 c -0.67651,0.73585 -1.01008,1.05266 -1,1.55469 0.17778,-0.0479 0.31894,-0.2032 0.52148,-0.20313 0.15889,-0.33719 0.33772,-0.67895 0.53125,-1.01953 -0.017,-0.1098 -0.0353,-0.22102 -0.0527,-0.33203 z m 419.97851,1.38477 c 0.87542,0.92396 1.57116,1.78599 2.08203,2.51562 0.0442,-0.57988 -0.0321,-1.40643 -0.75,-1.86719 -0.41717,-0.26776 -0.86884,-0.46871 -1.33203,-0.64843 z m 2.33399,1.23047 c -0.0247,0.42319 -0.0951,0.89389 -0.1836,1.38671 1.37199,1.98088 1.43993,2.65078 0.40821,-1.14843 -0.0748,-0.0795 -0.11177,-0.12135 -0.22461,-0.23828 z M 120.9043,671.8418 c -3.92126,0.72126 -7.83946,1.4604 -11.75196,2.22265 -2.99017,0.58266 6.08892,-0.3387 9.13477,-0.28125 1.53516,0.0289 3.06909,0.1199 4.60351,0.17578 0.15981,-0.1775 0.3001,-0.36311 0.5,-0.52343 0.37696,-0.30228 0.77628,-0.5525 1.16797,-0.82032 -1.21931,-0.25376 -2.43698,-0.51255 -3.65429,-0.77343 z m 562.61523,20.54492 c -0.77088,0.2002 -1.53881,0.41268 -2.31055,0.60937 0.20708,0.0987 0.41883,0.1907 0.62305,0.29297 0.68166,-0.35669 1.09464,-0.58743 1.6875,-0.90234 z m -28.17969,27.49023 c -1.97179,0.31197 -3.94032,0.64445 -5.9082,0.98047 0.0478,0.11996 0.0711,0.26799 0.0371,0.48438 -0.10638,0.67663 -0.2505,1.37182 -0.42578,2.07226 3.83007,-0.97022 8.63773,-2.37548 11.83203,-3.47265 -1.69246,-0.0401 -3.34321,-0.061 -5.53516,-0.0645 z m -8.18945,1.36524 c -1.25031,0.21884 -2.49704,0.45901 -3.74609,0.68554 0.46079,0.18644 0.91714,0.38839 1.36132,0.63086 0.80269,-0.44822 1.63781,-0.93382 2.38477,-1.3164 z m -536.03906,9.01758 c -0.2402,0.0875 -0.47409,0.16331 -0.71485,0.25195 -0.96186,0.3541 -0.47636,3.11232 0.54493,3.02539 3.66634,-0.31184 7.32348,-0.71119 10.97656,-1.14258 -3.62535,-0.6192 -7.23615,-1.29732 -10.80664,-2.13476 z m 25.86133,4.31445 c -2.72913,0.18103 -5.45854,0.35687 -8.1875,0.53906 -0.34788,0.0232 -0.54351,0.0338 -0.88672,0.0566 5.27628,0.092 10.55168,0.15779 15.82617,0.20508 -2.25206,-0.26088 -4.50383,-0.52423 -6.75195,-0.80078 z m 86.28125,13.16992 c -6.34241,0.11518 -14.02,0.22354 -20.98829,0.3418 2.5082,0.12695 5.01731,0.22699 7.5293,0.25 4.16444,0.0382 9.51538,0.0487 15.73047,0.0332 -0.13499,-0.0367 -0.27143,-0.0659 -0.40625,-0.10352 -0.56262,-0.15683 -1.25181,-0.351 -1.86523,-0.52148 z" />
    <path
       id="path822"
       style="fill:none;stroke-width:1.33793"
       transform="scale(0.26458333)"
       d="M -18.0625,-18.730469 V 377.96484 774.6582 h 239.11328 c -1.07104,-0.69754 -2.1535,-1.38482 -3.1582,-2.15039 -1.14625,0.11716 -2.2911,0.23681 -3.44336,0.30469 -2.6901,0.15847 -1.34165,-0.62095 1.70312,-1.65625 -3.49156,-3.01101 -5.80581,-6.3466 -5.06054,-9.46094 -0.76887,-0.0116 -1.53779,-0.004 -2.30664,-0.0176 -12.50746,-0.21399 -24.92741,-2.14619 -37.39063,-3.21875 -1.01513,-1.67223 -2.73789,-3.48394 -4.58594,-5.32031 -1.59622,0.0714 -3.19346,0.11647 -4.79687,0.0703 -2.46688,-0.071 -0.60445,-1.04707 2.54687,-2.29296 -0.74093,-0.7322 -1.45742,-1.45885 -2.13086,-2.17774 -54.72514,0.78227 -110.13035,1.25338 -118.804683,0.17969 -1.81652,-0.22485 -2.990514,-1.34286 -3.826172,-2.93359 -0.348559,0.0818 -0.400575,0.0941 -0.757813,0.17773 0.186546,-0.20232 0.354509,-0.44375 0.53125,-0.66602 -1.61784,-3.5157 -1.883045,-8.9167 -3.544921,-12.37109 36.135664,-8.25491 30.319092,-7.65893 63.287109,-9.58203 0.05314,-0.0696 0.123138,-0.14066 0.179688,-0.21094 -5.794414,-0.0688 -11.588955,-0.11901 -17.382813,-0.23242 -11.353017,-0.22224 -23.619711,2.33466 -33.988281,-2.29492 -2.073035,-0.92562 -4.498707,-2.66304 -6.697266,-4.69727 -0.771919,0.008 -1.545239,-0.002 -2.320312,-0.0391 -1.815205,-0.0857 -1.278844,-0.93729 0.298828,-2.02344 -3.50644,-3.93692 -5.598748,-8.4707 -2.572266,-11.16211 9.540252,-8.48404 24.852395,-5.47338 37.708984,-6.60351 15.877278,-2.79874 24.424179,-4.2701 33.525388,-4.99024 -1.4933,-1.68933 -1.83309,-3.51445 -0.18945,-5.4375 1.13382,-1.32656 2.43697,-2.32443 3.85938,-3.08984 -1.98929,-0.93675 -3.87802,-2.06302 -5.62305,-3.4336 -4.10698,-3.22568 -4.56973,-12.22412 -1.27539,-16.59765 -6.125878,0.0757 -12.250681,0.0924 -18.376956,0.0117 -9.711053,-0.12798 -20.717431,2.09155 -28.980468,-3.01172 -3.835892,-2.36905 -1.711127,-12.00105 2.615234,-13.26953 14.689266,-4.30685 30.609779,-0.63962 45.91406,-0.95899 12.72561,-0.14959 2.69002,-0.0283 12.44727,-0.14453 -2.66592,-0.92286 -5.19234,-2.14382 -7.49805,-3.78906 -3.71938,-2.65398 0.34832,-11.48576 4.70117,-12.875 5.63184,-1.79754 11.43837,-2.77346 17.32227,-3.375 -1.47685,-1.12891 -2.7911,-2.39315 -3.86328,-3.84766 -0.60188,-0.81651 -0.68286,-1.77733 -0.42774,-2.77343 -6.56964,-0.48017 -8.68457,-1.7405 2.76172,-4.69727 -12.34906,-0.18128 -22.58873,-1.29106 -34.998045,-5.45312 -4.269834,0.25989 -8.537607,0.54666 -12.800781,0.88867 -2.827884,0.22684 -11.031328,2.64656 -8.308594,1.84961 5.100278,-1.49285 10.163067,-3.2046 15.232422,-4.88282 -5.426368,-2.11941 -11.314863,-4.7866 -18.009766,-8.20312 -3.15668,-1.61087 6.885743,-1.837 10.417969,-2.125 34.300325,-2.79826 59.188925,-2.13473 93.556645,-2.0293 -0.4931,-1.60083 -1.1669,-3.18735 -1.55079,-4.71875 -0.52581,-2.09764 -1.0027,-4.20996 -1.37695,-6.33984 -0.35254,-2.00633 -0.5333,-4.0372 -0.80078,-6.05664 -0.50415,-2.93456 -0.95799,-5.8802 -1.50586,-8.80664 -0.50415,-1.16189 -0.9055,-2.38854 -1.17969,-3.62891 -0.61821,0.32547 -1.07717,0.52507 -0.80664,0.14844 0.22408,-0.31196 0.43699,-0.65547 0.65625,-0.97852 -0.13852,-0.76958 -0.23044,-1.52387 -0.28125,-2.26758 -1.52607,-2.20701 -3.00967,-5.23274 -4.61719,-9.4414 -0.45357,-1.18757 0.57339,-1.65703 2.35743,-1.74805 -3.09007,-15.29982 -5.59564,-30.7966 -5.82422,-46.40039 -0.28968,-8.58451 -2.99454,-14.70927 7.28125,-18.37109 0.0807,-1.12353 0.14003,-2.37712 0.0137,-2.91602 -0.81807,-3.48816 -2.14398,-6.93799 -1.66602,-10.61328 -4e-5,-4.77237 -4.4e-4,-9.54403 0,-14.31641 -7.4e-4,-3.90682 -0.004,-7.81392 0.004,-11.7207 0.002,-1.15555 -0.004,-2.31132 -0.0117,-3.4668 -1.36692,-2.5765 -1.19465,-5.04046 0.0312,-6.74414 3.5e-4,-0.0274 0.002,-0.0547 0.002,-0.082 -0.0238,-0.0857 -0.0612,-0.1674 -0.082,-0.2539 -0.53062,-2.20339 -0.24606,-2.60698 0.11133,-4.76758 0.16844,-0.44407 0.34827,-0.62267 0.51758,-0.95117 -0.0409,-0.0495 -0.0847,-0.0967 -0.12305,-0.14844 -0.0403,-0.0545 0.0263,0.0173 0.13086,0.13086 0.37146,-0.71594 0.80471,-1.20967 1.26563,-1.44727 0.15341,-0.99286 0.48766,-2.33519 1.00195,-4.16015 0.0826,-0.29308 0.57109,-0.11951 1.13672,0.20312 0.15721,-0.0305 0.39727,-0.0292 0.75391,-0.0195 -0.0551,-0.44217 -0.0997,-0.88703 -0.12891,-1.33203 -0.0128,-0.19503 0.38367,-0.0788 0.57812,-0.0977 0.27888,-0.0279 0.66931,-0.0653 1.07813,-0.0684 0.38465,-0.003 0.78418,0.0259 1.11914,0.11914 0.612,-0.0361 1.16932,-0.0104 1.67383,0.0645 0.009,-0.002 0.0127,-0.0625 0.0215,-0.0625 3.74075,0 16.67094,4.48127 29.65625,10.27929 37.91394,16.92895 144.54977,62.09112 151.40235,64.1211 10.31481,3.05566 28.01286,3.0872 39.3164,0.0703 4.78308,-1.27658 15.01762,-4.92418 22.74414,-8.10547 36.67821,-15.10176 114.88489,-48.31499 130.44727,-55.39844 16.10928,-7.33236 29.50224,-12.05618 30.67187,-10.81836 4.6e-4,4.8e-4 9.6e-4,0.12044 0.002,0.1211 0.94338,-0.49928 1.88639,-0.99927 2.83007,-1.49805 -0.11276,-0.0646 -0.24045,-0.0975 -0.3496,-0.16992 -0.59968,-0.39756 0.66355,-0.65057 1.81445,-0.60547 0.32172,-0.16973 0.64301,-0.34023 0.96484,-0.50977 -0.64061,-0.10242 -1.31476,-0.15307 -1.88672,-0.40429 -0.15465,-0.0679 -0.0702,-0.1005 0.13477,-0.10547 0.61487,-0.0149 2.30971,0.21419 1.86133,0.45117 -0.0366,0.0193 -0.0728,0.0393 -0.10938,0.0586 0.60122,0.0961 1.17148,0.23772 1.58789,0.6504 0.53414,0.52929 0.92125,1.17273 1.27344,1.84374 0.21955,0.15585 0.52067,0.34863 0.7207,0.49805 0.0659,0.0181 0.13579,0.0277 0.20118,0.0469 0.0122,0.031 0.0485,0.10101 0.0625,0.13476 2.27362,1.73762 3.20178,3.1383 3.08593,5.51758 3.21769,3.35575 2.84715,5.43211 2.23243,9.40625 0.0514,0.009 0.11346,0.0371 0.14843,0.0215 -0.0685,0.25428 -0.12894,0.46198 -0.20703,0.76368 0.43585,0.82006 1.0982,1.58 1.2832,2.47461 0.12484,0.28238 0.19335,0.56016 0.28516,0.83984 1.80754,4.62337 0.91503,11.1533 0.39258,15.44336 -0.12696,0.79521 -0.41903,1.58041 -0.38086,2.38477 0.0529,1.1155 0.89167,2.06676 1.10937,3.1621 0.70277,3.53454 0.8206,6.67866 0.6543,10.23633 -0.54123,3.99848 -0.25289,8.0543 -0.19922,12.07617 0.0145,2.51728 0.0791,3.63229 -1.69726,4.78711 1.04892,1.7003 2.11137,4.10364 3.22656,7.33399 0.39987,1.15827 -1.37407,2.03742 -2.18164,2.95898 -0.25402,0.28987 -0.48399,0.5078 -0.73242,0.78321 -1.52347,7.09056 -3.51444,11.83979 -6.74414,18.92968 -1.00546,2.20715 -2.18495,4.33409 -3.22657,6.52344 -0.46841,2.02323 -1.03655,4.16492 -1.59765,6.2207 -0.0757,1.19979 -0.20953,2.30027 -0.44141,3.18946 1.79282,-0.69458 4.78351,0.0604 11.23438,2.26757 1.23537,0.42271 0.57882,2.56074 0.63476,3.86524 0.0915,2.14065 -0.16312,4.28339 -0.19336,6.42578 -0.0461,3.23331 -0.0277,6.46752 -0.0391,9.70117 0.14498,3.04048 0.46957,11.0337 0.85156,13.90039 0.10645,0.79883 0.7453,1.7441 1.08985,2.57227 0.004,0.0118 0.008,0.0235 0.0117,0.0352 0.24062,0.59317 0.34708,1.1337 -0.125,1.47071 -8.71293,6.21993 -10.94467,7.31565 -12.44531,4.91797 0.16763,3.14691 0.30603,6.29525 0.41016,9.44531 3.73429,-0.38852 6.4438,-0.69081 10.96484,-1.14844 6.59157,-0.66724 15.4823,-6.66588 19.80664,-1.64648 0.80999,0.94019 1.13106,2.04825 1.1211,3.23437 6.25205,-1.26129 14.34346,-6.45908 17.71484,-1.55273 1.61154,2.34525 0.85532,5.21737 -0.87695,7.97851 1.9425,1.50659 3.01423,3.304 2.14258,5.33985 -1.47138,3.43652 -5.60893,3.22169 -10.03711,2.60742 -0.14914,0.10291 -0.31134,0.23369 -0.45703,0.33008 -2.1191,1.4016 -4.5024,2.17049 -7.00196,2.65429 -0.52275,0.46914 -1.08359,0.86422 -1.67969,1.18946 1.74476,-0.13097 4.57513,-0.33979 6.45899,-0.48047 11.93431,-1.20097 25.52919,-2.55674 38.88086,-3.80859 5.37109,-1.34527 10.77638,-2.83402 15.50976,-1.39454 13.19254,-1.13584 23.68547,-1.87715 25.93946,-1.53125 1.21274,0.18612 2.1353,0.78945 2.88476,1.64453 0.038,-0.0152 0.0478,-0.0199 0.0859,-0.0352 -0.0134,0.0284 -0.022,0.0631 -0.0352,0.0918 2.4877,2.9095 2.93878,8.76137 4.95508,12.35156 -19.00997,7.44612 -23.77414,9.69147 -35.41015,12.48633 -0.0431,0.85992 -1.44423,0.94942 -3.3418,0.75586 -3.11528,0.70432 -7.95976,1.70903 -12.375,2.61328 1.00699,2.01628 1.61654,4.34407 1.51562,6.29687 0.33062,-0.0105 0.60867,-0.0228 0.94141,-0.0332 5.35034,-0.16721 20.02115,-3.27631 16.05469,0.31836 -4.51081,4.08794 -9.21098,7.45929 -14.0625,10.28711 4.04628,0.85847 8.39863,1.82322 13.78515,3.08984 0.73487,0.17279 0.91673,0.26694 0.86133,0.33008 0.13705,0.0235 0.27314,0.0507 0.41016,0.0742 1.69895,-0.253 3.39598,-0.5188 5.09375,-0.7793 7.29993,-1.68351 14.60501,-3.34651 21.92773,-4.92773 3.91011,-0.84435 -7.58882,2.6601 -11.53711,3.30273 -3.45965,0.56313 -6.9257,1.09335 -10.39062,1.625 -1.37833,0.31787 -2.75688,0.63328 -4.13477,0.95313 10.04718,1.7491 20.01361,3.80821 29.67774,7.00195 4.37559,1.44601 -8.78022,2.92987 -13.32813,3.67383 -0.0266,0.004 -0.0535,0.007 -0.0801,0.0117 1.13636,0.0857 2.27254,0.1656 3.40821,0.27929 0.68585,0.0687 1.41184,0.22341 2.15039,0.42578 3.65518,-1.59894 7.03843,-2.55288 9.14062,0.10547 0.47833,0.60488 0.70887,1.25807 0.75977,1.9375 2.52804,-0.54889 5.05375,-1.11218 7.58398,-1.65039 6.34292,-1.34918 22.06475,-8.5527 19.26563,-2.70312 -2.16291,4.52009 -5.83202,7.82946 -10.03125,10.71289 4.06484,0.39162 8.05541,1.09963 11.87109,2.53906 5.68838,2.14583 -12.1239,1.21452 -18.07031,2.48047 -1.06677,0.22711 -2.13087,0.46636 -3.19727,0.69531 -3.2468,1.86937 -6.44527,3.77891 -9.27148,5.98633 -5.74773,1.50188 -11.47268,3.09315 -17.20508,4.6582 0.91498,0.0521 1.60654,0.10704 1.86328,0.16407 1.06436,0.23641 1.8641,0.79669 2.5,1.56054 0.84341,-0.13569 1.0438,-0.16842 1.92969,-0.31054 -0.35573,0.6096 -0.65069,1.30836 -0.92578,2.03515 1.42897,3.21409 1.59379,7.98371 3.03906,11.17774 -4.78858,0.76396 -6.76185,1.08002 -10.44531,1.67382 -1.00394,3.44116 -7.95215,4.93911 -18.3086,5.23829 -0.18068,2.55942 -0.39868,4.43645 -0.82031,5.75585 10.01603,-1.15674 20.0852,-3.17614 29.86133,-1.19726 0.96152,0.19463 2.06478,0.43561 3.21484,0.70312 6.07216,-2.12929 11.95668,-3.47033 16.70118,-0.0703 2.43588,1.74561 1.27311,3.69736 -1.53711,5.5586 3.32272,2.07668 5.177,4.62193 3.54101,7.66992 -5.09457,9.49164 -21.3038,3.22085 -31.95508,4.83203 -10.38577,1.13613 -20.764,2.34146 -31.14453,3.5293 0.63414,0.65165 1.2221,1.36426 1.76563,2.13671 1.7885,0.32103 3.60647,0.66001 5.48633,1.04493 0.62668,-0.0805 1.25428,-0.15309 1.88085,-0.23438 4.96866,-1.47335 8.77274,-2.57254 5.72461,-1.45703 -0.94669,0.34646 -1.88906,0.72455 -2.83398,1.08203 4.76023,-0.62425 9.52027,-1.2501 14.2832,-1.84961 2.72222,-0.81319 5.4476,-1.60551 8.18946,-2.33008 1.92211,-0.50793 -3.74575,1.33075 -5.61914,1.9961 -0.85745,0.10526 -1.71316,0.22609 -2.57032,0.33398 -4.18611,1.2505 -8.3598,2.5593 -12.53125,3.87305 5.81573,1.33521 12.23936,2.99533 19.34961,4.95508 0.51935,-0.20021 1.03498,-0.4101 1.55469,-0.60938 0.8451,-0.32405 0.0932,0.1429 -1.08203,0.74024 1.69111,0.46735 3.32006,0.90873 5.10156,1.41406 2.75422,0.78126 -5.46204,1.71634 -8.19336,2.57422 -2.98565,0.36564 -5.96803,0.76752 -8.95117,1.15625 6.28138,1.6756 12.46103,3.60954 18.2793,6.46093 2.71483,1.33047 -5.47598,2.74881 -8.44922,3.29688 -12.29556,2.2665 -24.693,3.98456 -37.11719,5.4043 -3.05726,1.61964 -5.91021,3.06822 -8.51562,4.29101 1.58395,0.75962 3.20463,1.60807 4.85742,2.53907 0.26451,0.006 0.52671,0.0402 0.79101,0.0488 H 773.99023 V 377.96484 -18.730469 H 377.96484 Z M 695.60547,747.47266 c -0.15667,-0.0433 -0.31673,-0.0879 -0.47266,-0.13086 -1.75657,0.67715 -3.50476,1.37631 -5.25781,2.0625 0.54169,-0.0953 1.08556,-0.17851 1.62695,-0.27539 0.98322,-0.17596 2.80658,-0.99705 4.10352,-1.65625 z M 594.92578,439.1543 c -0.0177,-0.0334 -0.0241,-0.0699 -0.041,-0.10352 -0.0316,0.21264 -0.0547,0.35367 -0.0859,0.57813 -0.0225,0.16195 0.0785,-0.28728 0.12695,-0.47461 z m -0.041,-0.10352 c 0.0372,-0.25062 0.0632,-0.44609 0.0996,-0.68164 -0.18539,-0.031 -0.41489,-0.13784 -0.38086,-0.004 0.0602,0.23776 0.16861,0.46196 0.28125,0.68555 z m -5.21875,-15.60547 c -0.0705,-0.0539 -0.19057,-0.12703 -0.26368,-0.18164 -0.17465,-0.0481 -0.35568,-0.0831 -0.5332,-0.125 0.64239,1.30268 1.177,2.69151 2.14648,3.74805 0.84386,0.91958 -0.82568,-2.1768 -1.3496,-3.44141 z M 377.51367,88.800781 c 16.17705,0.135758 32.40007,1.260217 41.92578,3.314453 46.86159,10.105786 83.16332,29.633786 115.83008,62.310546 19.72522,19.73128 31.22763,35.76705 41.89453,58.4082 20.88848,44.3371 26.78474,100.34985 15.48047,147.03516 -3.31993,13.71094 -12.6754,36.15625 -15.07031,36.15625 -0.68854,0 -1.65765,-3.59062 -2.1543,-7.98047 -2.03688,-18.00369 -14.2914,-52.9839 -18.04883,-51.51953 -1.17222,0.45685 -2.62982,0.93703 -3.23828,1.06641 -0.60848,0.12944 -2.1653,-3.11688 -3.45898,-7.21289 -3.99085,-12.63566 -8.91538,-18.64258 -15.28321,-18.64258 -0.91285,0 -4.64719,-3.05709 -8.29882,-6.79492 -14.79666,-15.14592 -31.73689,-26.41089 -44.7793,-29.77539 -8.34072,-2.15161 -7.79591,-0.23951 -5.98047,-21.0293 0.8758,-10.02946 0.65465,-12.21735 -1.7832,-17.72852 -1.52959,-3.45788 -5.74595,-9.44784 -9.3711,-13.31054 -7.59261,-8.09015 -9.01527,-10.66697 -14.94921,-27.0918 -6.98028,-19.32103 -12.74831,-29.19039 -22.25977,-38.08789 -4.69101,-4.38821 -8.5293,-8.1629 -8.5293,-8.38867 0,-0.22578 2.1081,-1.5466 4.6836,-2.9336 2.57551,-1.387 4.68164,-2.92519 4.68164,-3.41797 0,-0.49279 -5.8703,-1.66125 -13.04492,-2.59765 -7.17463,-0.93639 -13.47233,-1.96452 -13.9961,-2.28516 -0.52377,-0.32063 -0.38875,-2.06726 0.30078,-3.88086 0.68952,-1.8136 1.11888,-3.29597 0.95313,-3.29297 -0.16576,0.003 -9.31297,2.38111 -20.32617,5.28516 -11.0132,2.90406 -20.20163,5.10111 -20.41993,4.88281 -0.2183,-0.21831 0.54854,-2.66167 1.70508,-5.42968 1.15656,-2.76802 1.82824,-5.30654 1.49219,-5.64258 -0.33604,-0.33603 -6.53849,2.88914 -13.7832,7.16797 -15.34088,9.06054 -35.24932,27.83732 -40.93164,38.60351 -1.95647,3.7069 -5.43361,13.63924 -7.72657,22.07227 -2.35006,8.64303 -5.44615,16.8779 -7.0957,18.875 -12.06027,14.60119 -14.36676,17.89856 -15.58398,22.28125 -1.91459,6.89358 -1.70159,17.04152 0.53125,25.42968 l 1.88867,7.09571 -3.48438,1.32422 c -15.18786,5.77441 -35.15056,18.1013 -49.96484,30.85156 -6.56357,5.64908 -9.99981,7.75408 -11.74805,7.19922 -2.0879,-0.66268 -3.36712,1.4063 -8.2539,13.34375 -4.52084,11.04353 -6.24043,13.94973 -7.875,13.3125 -1.1501,-0.44835 -2.62122,-0.91945 -3.26953,-1.04883 -0.64833,-0.12944 -4.86256,12.80883 -9.36524,28.75391 -4.50268,15.94507 -8.59396,29.39815 -9.0918,29.89453 -1.36692,1.36292 -8.8226,-12.32219 -11.66992,-21.42188 -6.31903,-20.19484 -10.09518,-58.54903 -8.13476,-82.60156 8.09499,-99.31747 79.38998,-180.32897 175.95703,-199.935548 9.33792,-1.895932 25.46944,-2.749038 41.64648,-2.613281 z M 310.19141,223.43359 c 5.19287,0 6.22851,0.41654 6.22851,2.50391 0,1.37686 -2.11763,3.93501 -4.70508,5.68555 -2.58744,1.75053 -6.27128,5.42713 -8.1875,8.16992 -5.63058,8.05934 -5.59274,15.92778 0.14454,29.46484 1.30761,3.08532 -2.85464,3.1786 -7.16407,0.16016 -9.90786,-6.93974 -8.61986,-29.08518 2.36328,-40.63086 4.5194,-4.7509 5.79445,-5.35352 11.32032,-5.35352 z m 98.88671,0.0996 c 4.93695,-0.008 9.17919,0.60536 11.56641,1.83985 2.06175,1.06618 4.75631,3.4743 5.98633,5.35156 2.17145,3.31404 2.14815,3.4123 -0.80469,3.4043 -1.67265,-0.004 -6.46676,-0.56831 -10.65234,-1.25391 -6.6156,-1.08362 -9.56759,-0.73295 -22.58985,2.68359 -8.23893,2.16157 -15.04966,3.88478 -15.13476,3.83008 -0.0851,-0.0548 -5.27255,-1.53072 -11.52734,-3.28125 -8.319,-2.32823 -14.9034,-3.20049 -24.52735,-3.24609 -14.66544,-0.0696 -15.8928,-1.22148 -6.80859,-6.39453 6.16211,-3.50904 13.39537,-3.79447 25.98437,-1.02539 11.09662,2.44078 22.59878,2.43079 32.7793,-0.0273 5.16024,-1.24598 10.79158,-1.87333 15.72851,-1.88086 z m 37.07618,1.23828 c 5.80763,0 7.23277,0.58825 11.3164,4.67188 4.91781,4.9178 8.79688,15.04565 8.79688,22.9707 0,6.85015 -3.85315,15.01845 -8.12696,17.22852 -5.91537,3.05896 -6.36342,2.48117 -4.42968,-5.73633 3.3575,-14.26774 2.12244,-18.89917 -8.19141,-30.68945 -3.3058,-3.77903 -6.01172,-7.22506 -6.01172,-7.65821 0,-0.43317 2.99172,-0.78711 6.64649,-0.78711 z m -86.74805,36.79297 h 17.06641 c 15.98203,0 17.3835,0.21341 22.05468,3.34571 6.20231,4.159 14.82963,16.76385 17.71875,25.88867 1.19972,3.78912 2.4795,12.42127 2.84375,19.18164 0.53847,9.99421 0.13864,14.01556 -2.14062,21.51953 -3.24867,10.69555 -10.71553,20.18587 -19.41406,24.67578 -6.95959,3.59231 -24.24171,4.58078 -32.56836,1.86328 -8.31102,-2.71241 -16.82713,-8.07633 -21.78125,-13.71875 -11.25356,-12.8171 -12.22566,-24.82225 -3.85547,-47.64258 7.00219,-19.09065 10.56447,-26.07676 15.85156,-31.09961 z M 170.875,425.94336 c -0.0125,0.0143 -0.0247,0.027 -0.0371,0.041 0.01,0.018 0.0182,0.0364 0.0273,0.0547 0.003,-0.0318 0.007,-0.065 0.01,-0.0957 z m -0.43359,0.48242 c -0.67651,0.73585 -1.01008,1.05266 -1,1.55469 0.17778,-0.0479 0.31894,-0.2032 0.52148,-0.20313 0.15889,-0.33719 0.33772,-0.67895 0.53125,-1.01953 -0.017,-0.1098 -0.0353,-0.22102 -0.0527,-0.33203 z m 419.97851,1.38477 c 0.87542,0.92396 1.57116,1.78599 2.08203,2.51562 0.0442,-0.57988 -0.0321,-1.40643 -0.75,-1.86719 -0.41717,-0.26776 -0.86884,-0.46871 -1.33203,-0.64843 z m 2.33399,1.23047 c -0.0247,0.42319 -0.0951,0.89389 -0.1836,1.38671 1.37199,1.98088 1.43993,2.65078 0.40821,-1.14843 -0.0748,-0.0795 -0.11177,-0.12135 -0.22461,-0.23828 z M 120.9043,671.8418 c -3.92126,0.72126 -7.83946,1.4604 -11.75196,2.22265 -2.99017,0.58266 6.08892,-0.3387 9.13477,-0.28125 1.53516,0.0289 3.06909,0.1199 4.60351,0.17578 0.15981,-0.1775 0.3001,-0.36311 0.5,-0.52343 0.37696,-0.30228 0.77628,-0.5525 1.16797,-0.82032 -1.21931,-0.25376 -2.43698,-0.51255 -3.65429,-0.77343 z m 562.61523,20.54492 c -0.77088,0.2002 -1.53881,0.41268 -2.31055,0.60937 0.20708,0.0987 0.41883,0.1907 0.62305,0.29297 0.68166,-0.35669 1.09464,-0.58743 1.6875,-0.90234 z m -28.17969,27.49023 c -1.97179,0.31197 -3.94032,0.64445 -5.9082,0.98047 0.0478,0.11996 0.0711,0.26799 0.0371,0.48438 -0.10638,0.67663 -0.2505,1.37182 -0.42578,2.07226 3.83007,-0.97022 8.63773,-2.37548 11.83203,-3.47265 -1.69246,-0.0401 -3.34321,-0.061 -5.53516,-0.0645 z m -8.18945,1.36524 c -1.25031,0.21884 -2.49704,0.45901 -3.74609,0.68554 0.46079,0.18644 0.91714,0.38839 1.36132,0.63086 0.80269,-0.44822 1.63781,-0.93382 2.38477,-1.3164 z m -536.03906,9.01758 c -0.2402,0.0875 -0.47409,0.16331 -0.71485,0.25195 -0.96186,0.3541 -0.47636,3.11232 0.54493,3.02539 3.66634,-0.31184 7.32348,-0.71119 10.97656,-1.14258 -3.62535,-0.6192 -7.23615,-1.29732 -10.80664,-2.13476 z m 25.86133,4.31445 c -2.72913,0.18103 -5.45854,0.35687 -8.1875,0.53906 -0.34788,0.0232 -0.54351,0.0338 -0.88672,0.0566 5.27628,0.092 10.55168,0.15779 15.82617,0.20508 -2.25206,-0.26088 -4.50383,-0.52423 -6.75195,-0.80078 z m 86.28125,13.16992 c -6.34241,0.11518 -14.02,0.22354 -20.98829,0.3418 2.5082,0.12695 5.01731,0.22699 7.5293,0.25 4.16444,0.0382 9.51538,0.0487 15.73047,0.0332 -0.13499,-0.0367 -0.27143,-0.0659 -0.40625,-0.10352 -0.56262,-0.15683 -1.25181,-0.351 -1.86523,-0.52148 z" />
    <g
       id="g15318" />
    <path
       id="path982"
       style="fill:none;stroke-width:0.264583"
       d="m 37.523243,37.169247 a 9.9118004,26.903458 0 0 1 -9.9118,26.903457 9.9118004,26.903458 0 0 1 -9.911801,-26.903457 9.9118004,26.903458 0 0 1 9.911801,-26.903458 9.9118004,26.903458 0 0 1 9.9118,26.903458 z" />
    <path
       style="color:#000000;fill:#863cc1;fill-opacity:1;stroke-width:0.264583;-inkscape-stroke:none"
       d="m 140.68429,-84.304167 6.58285,2.964486 0.36238,123.284646 -6.95096,1.648831 z"
       id="rect1412"
       transform="rotate(49.62971)" />
    <path
       style="color:#000000;display:inline;fill:#863cc1;fill-opacity:1;stroke-width:0.222243;-inkscape-stroke:none"
       d="m 158.49796,66.29323 1.6734,5.863943 -78.185128,67.750437 -4.805392,-3.57458 z"
       id="rect1412-3" />
    <path
       style="color:#000000;display:inline;fill:#863cc1;fill-opacity:1;stroke-width:0.222243;-inkscape-stroke:none"
       d="m 163.22506,78.085441 1.6734,5.863943 -78.185132,67.750436 -4.805392,-3.57458 z"
       id="rect1412-3-5" />
    <rect
       style="fill:#863cc1;fill-opacity:1;stroke-width:0.264583"
       id="rect2689"
       width="44.957092"
       height="9.2038136"
       x="75.046486"
       y="40.709175" />
    <path
       style="fill:#ffffff;stroke:#ffffff;stroke-width:0.264583px;stroke-linecap:butt;stroke-linejoin:miter;stroke-opacity:1"
       d="m 115.75566,40.532179 c 7.61084,-7.787841 7.61084,-7.787841 7.61084,-7.787841 l 1.41598,4.778904 -4.7789,3.185933 v 0 l -3.00895,1.946963 z"
       id="path2955" />
    <path
       style="fill:#ffffff;fill-opacity:0.994429;stroke:#ffffff;stroke-width:0.264583px;stroke-linecap:butt;stroke-linejoin:miter;stroke-opacity:1"
       d="m 116.99463,42.656138 c 11.50477,-0.53099 11.50477,-0.53099 11.50477,-0.53099 l 3.36293,4.9559 -13.27473,-1.061979 -1.59297,-3.362931"
       id="path2957" />
    <path
       style="fill:#ffffff;stroke:#ffffff;stroke-width:0.264583px;stroke-linecap:butt;stroke-linejoin:miter;stroke-opacity:1"
       d="m 128.4994,42.125148 3.36293,4.9559"
       id="path3156" />
  </g>
  <g
     id="layer2"
     style="display:none"
     transform="translate(-24.622212,-23.243019)">
    <path
       style="display:inline;fill:#000000;stroke-width:0.532537"
       d="m 93.744846,198.86639 c -2.351081,-0.70406 -8.837446,-3.24068 -13.047165,-5.10236 -4.395913,-1.944 -15.409855,-6.48943 -22.723009,-9.37773 -4.164456,-1.64473 -8.30414,-3.31076 -9.199294,-3.7023 -0.895148,-0.39154 -3.305039,-1.35314 -5.355306,-2.1369 -8.009531,-3.0618 -10.95983,-5.32378 -13.105523,-10.04792 -0.911077,-2.00589 -0.984183,-4.01364 -0.99502,-27.32734 l -0.01167,-25.16238 h 1.214376 c 1.000871,0 5.592632,1.71357 11.30025,4.21707 0.58579,0.25694 2.00088,0.87994 3.144647,1.38443 1.143768,0.5045 5.337499,2.29963 9.319402,3.98918 3.981906,1.68956 13.350694,5.6989 20.81953,8.90966 17.806216,7.65464 18.337559,7.82464 24.496723,7.83722 4.927573,0.0101 7.390013,-0.52599 11.982083,-2.60843 0.8787,-0.39848 5.43188,-2.31775 10.11822,-4.26503 12.17195,-5.05778 17.34439,-7.22715 19.17134,-8.04064 11.58498,-5.15857 28.26872,-11.95079 28.82778,-11.73626 0.5913,0.2269 0.69282,4.723 0.5749,25.45656 -0.12882,22.64775 -0.23714,25.39242 -1.07662,27.28248 -2.31694,5.21666 -4.63228,6.91797 -14.85266,10.91366 -3.60273,1.40851 -13.73969,5.48451 -22.52654,9.05779 -26.44367,10.7536 -26.60125,10.80881 -31.41971,11.00415 -2.542469,0.10305 -5.226558,-0.11674 -6.65671,-0.54491 z m 10.139464,-1.07815 c 1.59924,-0.42046 6.14288,-2.07324 10.09696,-3.67282 3.95409,-1.59961 12.94065,-5.23864 19.97014,-8.08679 7.02949,-2.84813 15.75264,-6.36122 19.38479,-7.80685 8.66807,-3.45002 10.22601,-4.28005 12.15304,-6.47482 3.37195,-3.84043 3.38459,-3.96031 3.2232,-30.53476 l -0.14612,-24.05696 -5.59165,2.37539 c -3.07539,1.30647 -6.43038,2.76626 -7.45551,3.24398 -1.02515,0.47772 -4.02067,1.76091 -6.65671,2.85154 -12.38133,5.12257 -18.23603,7.56923 -19.7039,8.23417 -5.32138,2.41058 -19.9676,8.3596 -22.24881,9.03704 -3.49112,1.03675 -10.471788,1.02918 -14.517495,-0.0161 -3.130917,-0.80866 -12.947782,-4.82939 -26.747661,-10.95512 -3.885764,-1.72489 -7.183449,-3.13616 -7.328191,-3.13616 -0.144736,0 -1.279037,-0.46504 -2.520654,-1.03343 -1.241611,-0.56837 -7.409778,-3.19165 -13.707031,-5.82949 l -11.44955,-4.79608 -0.138598,23.63495 c -0.133082,22.69593 -0.09528,23.7507 0.951614,26.54878 1.4688,3.92572 4.484389,6.61949 9.850847,8.79957 2.335947,0.94895 4.726459,1.93072 5.312251,2.18173 0.58579,0.25099 4.060595,1.66246 7.72179,3.13661 3.661193,1.47413 13.726149,5.60792 22.366565,9.18618 19.967279,8.26904 21.479732,8.66797 27.180663,7.1691 z m 0.66072,-19.47335 c -6.750452,-0.9977 -10.445157,-5.61228 -10.445157,-13.04573 0,-6.6349 3.054352,-11.3222 8.668507,-13.303 4.25717,-1.502 12.98447,-0.76572 13.72256,1.15773 0.17631,0.45957 -0.2467,1.87412 -0.94009,3.14345 l -1.26074,2.30789 -4.03748,-0.11453 c -4.38849,-0.12438 -6.11874,0.56075 -7.76676,3.07591 -2.6797,4.08975 0.96988,10.22305 5.80454,9.75481 1.4111,-0.13667 1.69682,-0.38854 1.69682,-1.49571 0,-1.01951 -0.31181,-1.37134 -1.33132,-1.50215 -1.71683,-0.22025 -2.66479,-1.47926 -2.65454,-3.52559 0.0141,-2.8279 0.40588,-3.0172 5.89426,-2.84833 l 5.0146,0.15437 0.14794,7.2957 c 0.17913,8.83162 0.95047,7.98838 -8.4023,9.18562 -0.73226,0.0938 -2.58215,-0.0141 -4.11088,-0.24036 z m 8.29138,-1.62883 c 1.74269,-0.37375 2.69856,-0.86979 2.82204,-1.46447 0.10265,-0.49463 0.1113,-3.47546 0.0201,-6.62409 l -0.16746,-5.72477 h -3.95976 -3.95977 v 1.86388 c 0,1.60751 0.17411,1.86387 1.26614,1.86387 1.77342,0 2.55845,1.18195 2.36285,3.55748 l -0.16746,2.03418 -3.26365,0.15679 c -3.03598,0.14592 -3.37873,0.0419 -4.91298,-1.49243 -3.129391,-3.12938 -3.493958,-7.97125 -0.83788,-11.12783 1.71872,-2.04259 4.37706,-2.88846 8.20698,-2.61143 3.03036,0.21919 3.08724,0.19705 4.0416,-1.57511 1.1942,-2.21747 0.79759,-2.5551 -3.60111,-3.06562 -6.01103,-0.69765 -11.474611,1.77171 -13.854655,6.26187 -0.956675,1.80485 -1.205349,3.14402 -1.212675,6.53072 -0.0081,3.71246 0.18175,4.58518 1.475982,6.78687 2.661264,4.52732 8.379498,6.2091 15.742488,4.63003 z m 16.68655,1.58543 c -5.99333,-1.15819 -9.68737,-6.30241 -9.68081,-13.4812 0.004,-4.01824 0.66672,-6.5001 2.34387,-8.77335 5.58656,-7.57214 17.60181,-6.61557 21.35889,1.70048 5.22561,11.56649 -2.43346,22.79351 -14.02195,20.55407 z m 7.66135,-2.02825 c 2.56826,-1.16647 5.36959,-4.37487 6.09447,-6.98006 1.36816,-4.917 -0.10224,-11.30554 -3.27311,-14.21995 -6.04422,-5.55553 -15.81716,-2.67385 -18.36719,5.41576 -1.87616,5.95187 0.71066,13.10469 5.63959,15.59404 2.93315,1.4814 6.89591,1.55748 9.90624,0.19021 z m -7.1756,-4.45836 c -4.01783,-2.06485 -5.04328,-8.8253 -1.90445,-12.55559 3.75485,-4.46236 10.36677,-1.00279 10.37173,5.42685 0.004,5.83773 -4.15885,9.34293 -8.46728,7.12874 z m 5.14028,-1.74239 c 2.73227,-1.91375 2.60191,-8.11895 -0.21716,-10.33642 -3.85562,-3.03284 -8.26932,1.23216 -7.0503,6.81276 0.82251,3.76545 4.42708,5.51313 7.26746,3.52366 z m -72.20164,6.88743 c -4.637599,-2.31102 -6.946479,-6.34019 -6.98928,-12.19681 -0.04384,-5.99779 1.959114,-9.77665 6.522327,-12.30538 2.492951,-1.38149 3.258834,-1.53508 7.566539,-1.51743 3.504532,0.0141 5.258055,0.26856 6.523581,0.94563 2.021257,1.08138 2.067624,1.34577 0.704595,4.01752 -1.495513,2.93145 -2.060157,3.24979 -4.831758,2.72408 -5.085593,-0.96465 -8.520596,1.33521 -8.520596,5.70481 0,4.41033 2.191789,6.68984 6.517478,6.7783 2.07803,0.0425 2.269386,-0.0658 2.269386,-1.28493 0,-1.11578 -0.301773,-1.37444 -1.86388,-1.59761 -1.859998,-0.26571 -1.864211,-0.27263 -2.023588,-3.32835 l -0.159711,-3.0621 h 5.618222 5.618214 v 7.69677 7.69676 l -1.997014,0.55459 c -1.098358,0.30503 -4.286472,0.55594 -7.084696,0.55757 -4.416795,0.002 -5.45454,-0.17974 -7.869815,-1.38342 z m 13.589952,-0.29192 2.435437,-0.61327 -0.331951,-3.5139 c -0.182575,-1.93265 -0.333656,-4.90194 -0.335739,-6.5984 l -0.0038,-3.0845 -4.127162,0.15558 -4.127165,0.15559 -0.163012,1.67888 c -0.154196,1.58813 -0.04474,1.69888 2.024094,2.04841 l 2.187105,0.36952 -0.160214,2.47816 -0.160275,2.47817 h -3.585949 c -3.421318,0 -3.675839,-0.09 -5.544666,-1.95892 -1.668307,-1.66846 -1.990309,-2.37912 -2.171619,-4.79284 -0.425229,-5.66099 2.802866,-8.68219 8.815676,-8.2507 3.311329,0.23762 3.389552,0.21214 4.391447,-1.43094 0.561033,-0.92008 1.020958,-1.83402 1.022051,-2.03097 0.0038,-0.69002 -3.921366,-1.64412 -6.662616,-1.61949 -6.434324,0.0578 -10.69416,2.97012 -12.269181,8.38801 -1.511883,5.2007 0.489172,11.91775 4.292847,14.41001 3.478123,2.27896 9.459381,2.99453 14.474592,1.7317 z m 6.556797,-11.61178 v -13.33677 h 3.717624 c 3.418518,0 3.739811,0.0964 3.993577,1.19821 0.151761,0.65903 0.216269,6.59014 0.143307,13.18029 l -0.132639,11.9821 -3.860877,0.15639 -3.860911,0.15639 z m 5.192238,11.88937 c 1.197338,-0.32087 1.198224,-0.3298 1.198224,-12.2411 v -11.91996 h -2.662693 -2.662694 v 12.24834 12.24837 l 1.46449,-0.008 c 0.805458,-0.004 2.003662,-0.15176 2.662673,-0.32838 z M 30.371083,107.39477 c -0.0011,-0.0947 -0.740414,-1.96949 -1.643138,-4.16621 C 24.340072,92.55095 22.823566,77.040227 24.953086,64.619616 27.734074,48.399259 34.449327,34.809371 45.097755,23.852144 60.83394,7.6596205 83.348507,-0.94414019 105.06423,0.93644481 c 11.05842,0.95765939 21.32608,3.92268829 30.62234,8.84292839 7.82211,4.1400138 11.83551,7.1095038 17.96873,13.2949058 7.82314,7.889725 13.30777,16.57601 17.29004,27.383131 5.685,15.427971 6.03085,36.06377 0.8438,50.34753 -1.73776,4.78538 -2.60278,6.38622 -3.54929,6.5685 -0.6795,0.13087 -0.98002,-0.67245 -1.4918,-3.98752 -0.81437,-5.275212 -1.90204,-9.203377 -3.61484,-13.055108 -1.1914,-2.67921 -1.47608,-2.980712 -2.36509,-2.50492 -1.32486,0.709039 -2.05372,0.20673 -2.05372,-1.415369 0,-0.721384 -0.70729,-2.871505 -1.57177,-4.77804 -1.4263,-3.145656 -1.69182,-3.4363 -2.86946,-3.140735 -1.06947,0.268419 -1.61256,-0.06757 -3.08794,-1.910381 -0.98463,-1.229849 -3.22809,-3.264326 -4.98546,-4.521066 -3.78117,-2.704013 -11.48157,-6.641879 -12.988,-6.641879 -1.56614,0 -1.7508,-0.71382 -0.77763,-3.005519 1.13294,-2.667826 1.1021,-7.318293 -0.0674,-10.173853 -0.53255,-1.300296 -2.14768,-3.378359 -3.79808,-4.886744 -2.20681,-2.016888 -2.87152,-2.980919 -2.87152,-4.164573 0,-5.888245 -5.46297,-15.733033 -10.43593,-18.806486 -2.15481,-1.331753 -2.28643,-2.197223 -0.48108,-3.16342 0.73225,-0.391885 1.33135,-0.878281 1.33135,-1.080886 0,-0.396278 -4.49161,-1.037064 -7.32239,-1.044636 -1.37418,-0.0038 -1.73073,-0.224054 -1.73073,-1.069703 0,-0.585791 -0.29956,-1.059216 -0.66568,-1.052057 -1.21338,0.02373 -5.40849,1.053633 -9.046842,2.221004 -1.973572,0.633224 -3.743454,0.996201 -3.933034,0.806611 -0.1896,-0.18958 0.0473,-0.942855 0.526231,-1.673935 0.479032,-0.731073 0.870952,-1.460926 0.870952,-1.621895 0,-0.603124 -6.252051,2.89318 -9.385343,5.248524 -6.642908,4.993554 -10.728135,11.888399 -11.917396,20.113581 -0.383805,2.654508 -0.725806,3.274928 -2.920312,5.29775 -2.8729,2.648149 -3.784584,4.211774 -4.557774,7.817041 -0.399388,1.862283 -0.385435,3.260565 0.04941,4.952581 1.195398,4.651249 1.22629,4.594395 -3.546703,6.527149 -5.648362,2.287226 -9.258651,4.614915 -13.620137,8.781417 -1.958836,1.871268 -3.87597,3.295565 -4.260297,3.165103 -1.170247,-0.397234 -3.526307,3.756812 -4.407396,7.770827 -0.263276,1.199407 -0.560352,1.461005 -1.407545,1.239459 -0.79382,-0.207588 -1.346084,0.159751 -2.117879,1.408684 -1.517969,2.456429 -3.205937,8.338324 -3.903544,13.602304 -0.479449,3.61782 -0.801656,4.62429 -1.524997,4.76359 -0.504414,0.0971 -0.917934,0.0991 -0.91894,0.004 z m 2.705715,-12.953068 c 1.338383,-4.46042 4.077947,-9.487519 4.981385,-9.140832 0.385174,0.147795 1.227041,-1.071102 2.09113,-3.027672 1.776965,-4.023595 3.196763,-5.796087 4.469986,-5.580388 0.597735,0.101261 1.759822,-0.710803 3.031542,-2.118445 2.766174,-3.061827 9.015484,-7.092235 13.894791,-8.961253 3.953717,-1.514478 3.980828,-1.538133 3.579909,-3.123647 -0.222186,-0.878685 -0.403051,-3.394924 -0.401922,-5.591641 0.0016,-3.391255 0.2222,-4.369036 1.460727,-6.47887 0.802268,-1.366666 2.418925,-3.30679 3.592567,-4.311384 1.321768,-1.131381 2.133903,-2.284538 2.133903,-3.02993 0,-2.09025 1.626172,-7.626978 3.213964,-10.942799 2.985559,-6.234793 8.014936,-11.037932 16.425717,-15.686839 5.546647,-3.065805 6.854666,-3.022861 4.974767,0.163334 l -1.092575,1.851758 1.713244,-0.715836 c 2.405686,-1.005158 11.404487,-2.67033 11.877037,-2.197773 0.21528,0.215277 0.11936,0.827161 -0.21331,1.359744 -0.56155,0.899166 -0.29382,0.988829 3.7479,1.255223 2.39397,0.157799 4.77205,0.455704 5.28461,0.662034 1.41914,0.571264 1.11584,1.736355 -0.6959,2.673243 l -1.62785,0.841792 3.15312,3.037785 c 4.17883,4.025998 7.23318,10.187167 8.35969,16.862963 0.26377,1.563119 0.90535,2.588185 2.44445,3.905608 4.54632,3.891468 6.46778,10.56351 4.59116,15.94219 -0.75188,2.154998 -0.74035,2.263284 0.24084,2.263284 1.26052,0 8.75421,3.691893 11.79856,5.812767 1.22302,0.852027 3.37728,2.732261 4.78722,4.178292 1.94441,1.994176 2.85918,2.572629 3.78774,2.395124 1.39003,-0.26572 2.92811,1.803736 4.57316,6.15318 0.66247,1.751499 1.28212,2.547073 2.07771,2.667582 2.15436,0.326311 5.61864,9.165844 6.69957,17.094684 l 0.39371,2.88789 0.77702,-1.82282 c 1.13069,-2.65252 3.16499,-9.31804 3.96942,-13.006105 1.10656,-5.073295 0.95364,-22.867586 -0.24485,-28.490743 C 166.46095,31.885575 145.04855,10.40142 114.45016,3.550472 109.75408,2.499019 107.43955,2.312756 99.070232,2.312756 c -9.449288,0 -10.134908,0.073063 -16.774939,1.7875763 C 59.518711,9.9814402 40.096156,26.009672 32.02322,45.586749 23.617913,65.969826 22.956918,83.91916 29.924661,102.57314 l 1.247053,3.3386 0.393274,-3.87114 c 0.216301,-2.129122 0.896617,-5.548629 1.51181,-7.598898 z m 59.741966,-0.563008 c -1.503033,-0.749003 -3.57865,-2.298069 -4.612454,-3.442374 -2.279387,-2.522997 -4.579674,-6.918699 -4.579674,-8.751441 0,-1.867736 2.972623,-10.959771 4.907872,-15.011194 2.680385,-5.611322 3.184717,-5.917808 10.162502,-6.175765 6.93363,-0.256326 7.61106,0.0157 10.36925,4.164553 2.30604,3.468651 5.44905,13.202478 5.44255,16.855354 -0.008,4.61468 -4.14389,10.607934 -8.78186,12.726342 -3.35387,1.53188 -9.446858,1.359364 -12.908186,-0.365475 z m 13.662756,-1.70599 c 2.85946,-1.773348 6.44075,-6.829694 6.78974,-9.586271 0.487,-3.846826 -3.88855,-16.144092 -6.90084,-19.394401 -1.2014,-1.296329 -1.43389,-1.335018 -7.221087,-1.201628 -3.64801,0.08409 -6.277936,0.385311 -6.744468,0.772504 -1.872351,1.553911 -7.180609,15.302661 -7.180609,18.598262 0,4.504573 5.727914,11.02282 10.8415,12.337398 3.014359,0.774917 7.847534,0.06688 10.415764,-1.525864 z M 89.617683,88.240977 c -1.024001,-1.029128 -0.792516,-2.479526 0.532551,-3.33673 0.659011,-0.426332 3.184416,-1.174345 5.612041,-1.662257 4.14737,-0.833554 4.640755,-0.831497 8.172915,0.03408 2.16331,0.530145 4.35883,1.457346 5.17183,2.184142 l 1.41276,1.262928 -1.25397,1.060826 c -1.02509,0.867209 -1.65687,0.988404 -3.46149,0.664047 -2.90664,-0.522441 -9.520262,-0.505682 -12.85827,0.03259 -1.918604,0.309385 -2.848711,0.242413 -3.328367,-0.23964 z m 18.815857,-1.653731 c 0.55614,-0.55615 -6.42479,-2.529142 -8.801049,-2.487406 -2.845208,0.05 -8.654679,1.585081 -8.907741,2.353804 -0.181347,0.55076 17.16078,0.6816 17.70879,0.133606 z M 98.360178,79.974439 c -0.195236,-0.195256 -0.355027,-1.143615 -0.355027,-2.107443 0,-1.392436 -0.401058,-2.057926 -1.952357,-3.239605 -3.570379,-2.719706 -4.438091,-3.778353 -4.438091,-5.41469 0,-1.300429 0.265923,-1.637915 1.505107,-1.910077 2.011612,-0.441827 3.960085,0.366065 5.10791,2.117872 l 0.941237,1.436525 1.706743,-1.654224 c 1.41774,-1.374124 2.13075,-1.654227 4.21092,-1.654227 2.2476,0 2.50223,0.122777 2.48504,1.198208 -0.0223,1.403779 -1.57959,3.316846 -4.37426,5.374031 -1.24796,0.918628 -1.99976,1.909296 -2.00429,2.64113 -0.0141,2.1408 -0.63866,3.567527 -1.563698,3.567527 -0.502823,0 -1.073978,-0.159751 -1.269234,-0.355027 z m 4.177382,-7.104512 c 1.22572,-0.843315 2.65366,-2.182065 3.17321,-2.974992 l 0.94462,-1.441685 -2.03571,0.330349 c -1.39308,0.226067 -2.43439,0.83978 -3.29864,1.944079 -1.624785,2.076083 -2.337637,2.03236 -4.078596,-0.250153 -1.058238,-1.38743 -1.8231,-1.863881 -2.992159,-1.863881 -0.863787,0 -1.5705,0.135578 -1.5705,0.301279 0,0.949332 1.357955,2.471915 3.714752,4.165112 2.044802,1.469046 2.688496,2.267788 2.730059,3.38765 0.05334,1.436375 0.06562,1.430454 0.619361,-0.299546 0.354903,-1.108621 1.393703,-2.335066 2.793603,-3.298212 z M 71.131618,64.155098 c -2.33032,-2.330318 -3.095851,-7.56851 -1.550903,-10.612078 1.409665,-2.777053 4.436644,-6.20465 5.776412,-6.54091 1.630075,-0.409122 3.476675,0.6068 3.476675,1.912714 0,0.596842 -0.640889,1.364078 -1.518564,1.817944 -0.835204,0.431904 -2.273055,1.644604 -3.195224,2.694889 -2.033871,2.316458 -2.246295,5.322885 -0.603731,8.544677 1.714051,3.362016 0.189802,4.75722 -2.384665,2.182764 z m 0.929966,-2.003427 c -0.457973,-0.918024 -0.850819,-2.924422 -0.873,-4.45865 -0.03307,-2.287308 0.2348,-3.150215 1.487835,-4.793029 0.840482,-1.101931 2.20875,-2.390614 3.040596,-2.863734 1.750646,-0.995706 1.954267,-1.659031 0.509265,-1.659031 -1.124389,0 -3.829454,2.840815 -5.165815,5.42505 -1.355429,2.621116 -0.900354,7.110255 0.946356,9.335409 0.923016,1.112161 0.940887,0.79027 0.05477,-0.986015 z m 52.690236,2.819524 c -0.52665,-0.334219 -0.36529,-1.116138 0.71905,-3.484678 2.14031,-4.675038 1.07895,-7.643587 -3.97095,-11.106602 -1.57231,-1.078228 -1.21412,-2.21544 0.93365,-2.964157 1.50116,-0.523308 1.77002,-0.406916 3.84322,1.663875 3.35071,3.346795 3.79712,4.267942 3.85303,7.950868 0.0811,5.345246 -2.78933,9.583546 -5.378,7.940694 z m 3.0646,-3.259319 c 1.29648,-2.541321 1.38359,-5.868551 0.21794,-8.324952 -1.10792,-2.334772 -4.21216,-5.074219 -5.2839,-4.662956 -0.61286,0.235178 -0.27599,0.711588 1.34736,1.905414 1.19052,0.875507 2.51665,2.272709 2.94699,3.104884 1.12816,2.181639 0.99261,6.27381 -0.27681,8.355797 -0.58039,0.951909 -0.82401,1.730747 -0.54136,1.730747 0.28262,0 0.99803,-0.949019 1.58978,-2.108934 z M 97.206335,53.430819 c -0.878682,-0.3948 -3.234754,-1.124867 -5.235699,-1.622374 -3.58481,-0.891318 -3.660529,-0.887975 -5.170667,0.228528 -1.877083,1.387786 -2.745588,1.423333 -3.889601,0.159208 -1.292553,-1.428254 -1.103567,-2.031949 1.106155,-3.533497 2.342898,-1.592031 4.428398,-1.701968 9.562151,-0.504072 3.949116,0.921476 8.077836,0.821501 14.408076,-0.348883 3.66824,-0.678212 3.97599,-0.655589 6.2746,0.461163 2.61746,1.271655 3.3936,2.423119 2.54341,3.773335 -0.82258,1.306379 -2.13388,1.326673 -3.74677,0.05799 -1.74712,-1.374282 -4.18259,-1.162343 -9.75927,0.849274 -4.036835,1.456176 -3.935916,1.448236 -6.092385,0.479325 z m 6.390455,-2.132555 c 4.81044,-1.494155 8.62128,-1.697494 10.14956,-0.541554 1.21569,0.919502 1.83254,1.018472 1.83254,0.294025 0,-0.286942 -0.93235,-0.997351 -2.07186,-1.578684 l -2.07183,-1.056976 -5.91244,1.156576 -5.912449,1.156569 -6.158278,-1.200189 -6.158279,-1.200186 -1.872532,1.157289 c -1.234393,0.762892 -1.693074,1.336771 -1.345906,1.683936 0.347165,0.347167 0.945291,0.233407 1.755096,-0.333795 1.694083,-1.186582 4.836734,-1.03546 9.24578,0.444606 2.050278,0.688251 3.847593,1.271683 3.99404,1.296514 0.146528,0.02482 2.183408,-0.550329 4.526558,-1.278131 z"
       id="path896" />
  </g>
</svg>
