<?xml version="1.0" encoding="UTF-8" standalone="no"?>
<!-- Created with Inkscape (http://www.inkscape.org/) -->

<svg
   width="179.86255mm"
   height="192.02745mm"
   viewBox="0 0 179.86255 192.02745"
   version="1.1"
   id="svg24186"
   xmlns="http://www.w3.org/2000/svg"
   >
  <defs
     id="defs24183" />
  <g
     id="layer1"
     transform="translate(-9.3280945,-14.665229)">
    <rect
       style="fill:#559679;fill-opacity:1.0;stroke-width:4.465"
       id="rect24269"
       width="179.83635"
       height="177.22052"
       x="9.3542995"
       y="29.472164"
       ry="50.105721" />
    <rect
       style="fill:#6ec19c;fill-opacity:1;stroke-width:4.465"
       id="rect24269-0"
       width="179.83635"
       height="177.22052"
       x="9.3280945"
       y="14.665229"
       ry="50.105721" />
    <path
       style="color:#000000;fill:#30b576;fill-opacity:1;stroke-width:4.39415;-inkscape-stroke:none"
       d="m 57.678698,76.230851 c 0,0 -11.993838,-15.932368 -19.167074,-16.007082 -7.685037,-0.08005 -13.721164,4.147068 -18.285014,10.145067 -2.749225,3.613152 -4.209627,13.897216 -4.209627,13.897216 0,0 14.637229,-10.469207 22.199833,-10.474337 7.588332,-0.0052 21.17503,10.474337 21.17503,10.474337 z"
       id="rect12937-9" />
    <path
       style="color:#000000;fill:#30b576;fill-opacity:1;stroke-width:3.55736;-inkscape-stroke:none"
       d="m 58.207865,79.405853 c 0,0 -15.779521,1.973718 -20.599721,7.286286 -5.164114,5.691615 -7.125069,12.037075 -7.239332,18.059481 -0.06882,3.62784 3.97978,9.21098 3.97978,9.21098 0,0 4.648384,-15.482956 9.689254,-21.120566 5.058296,-5.65654 19.236714,-11.200767 19.236714,-11.200767 z"
       id="rect12937-9-2" />
    <path
       style="color:#000000;fill:#bee9d5;fill-opacity:1;stroke-width:3.29746;-inkscape-stroke:none"
       d="m 46.08496,151.37409 c 33.913068,-23.74848 46.000864,6.5779 109.06733,4.26369 9.18766,-0.33714 10.66542,18.40663 10.66542,18.40663 l -131.45038,-0.0438 c 0,0 1.598787,-15.54055 11.71763,-22.62652 z"
       id="rect10289" />
    <path
       style="color:#000000;fill:#7dddb0;fill-opacity:1;stroke-width:4.465;-inkscape-stroke:none"
       d="m 58.191841,82.900778 c -4.606409,-3.978534 9.231987,-9.238459 9.231987,-9.238459 l 18.616688,85.137541 c 0,0 -11.545344,5.33805 -13.684294,3.2777 -7.705493,-7.42235 -2.977419,-21.02066 -2.446363,-31.70634 0.663694,-13.35456 0.269493,-37.116885 -11.718018,-47.470442 z"
       id="rect11710" />
    <path
       style="color:#000000;fill:#30b576;fill-opacity:1;stroke-width:4.03319;-inkscape-stroke:none"
       d="m 67.423828,73.662319 c 0,0 12.190444,-13.205903 19.481264,-13.267831 7.81101,-0.06635 13.946078,3.437391 18.584768,8.408967 2.79431,2.994843 4.27866,11.519021 4.27866,11.519021 0,0 -14.877218,-8.677638 -22.563788,-8.68189 -7.71272,-0.0043 -21.522133,8.68189 -21.522133,8.68189 z"
       id="rect12937" />
    <path
       style="color:#000000;fill:#30b576;fill-opacity:1;stroke-width:4.48431;-inkscape-stroke:none"
       d="m 63.818067,71.431919 c 0,0 -5.66165,-19.220985 -13.241887,-24.097282 -8.121072,-5.224218 -16.402858,-6.323856 -23.907651,-5.193494 -4.520832,0.680924 -10.633194,6.899265 -10.633194,6.899265 0,0 20.179847,2.513418 28.208761,7.595661 8.056249,5.099506 17.827552,21.573843 17.827552,21.573843 z"
       id="rect12937-7" />
    <ellipse
       style="fill:#b4f3d6;fill-opacity:1;stroke-width:4.465"
       id="path51614"
       cx="106.6469"
       cy="45.581379"
       rx="12.190866"
       ry="10.315616" />
    <path
       style="color:#000000;fill:#30b576;fill-opacity:1;stroke-width:3.91049;-inkscape-stroke:none"
       d="m 64.694605,67.579935 c 0,0 1.406572,-16.910807 7.057551,-21.005608 6.054166,-4.386965 12.991867,-5.10133 19.662859,-3.85754 4.018556,0.749251 10.408785,6.47287 10.408785,6.47287 0,0 -16.934765,1.59304 -22.935165,5.856694 -6.020834,4.278132 -11.464807,18.615968 -11.464807,18.615968 z"
       id="rect12937-1" />
    <ellipse
       style="fill:#6bf1b2;fill-opacity:1;stroke-width:3.66178"
       id="path14320"
       cx="62.186623"
       cy="75.13343"
       rx="9.244606"
       ry="9.2006865" />
    <rect
       style="fill:#b2d1c2;fill-opacity:1;stroke-width:2.13446"
       id="rect45273"
       width="1.9855342"
       height="10.904686"
       x="11.365191"
       y="206.1015"
       ry="0.54496145"
       transform="matrix(0.69690323,-0.71716518,0.57723408,0.81657873,0,0)" />
    <rect
       style="fill:#b2d1c2;fill-opacity:1;stroke-width:2.13446"
       id="rect45273-6"
       width="1.9855342"
       height="10.904686"
       x="139.11386"
       y="179.81337"
       ry="0.54496145"
       transform="matrix(0.98725702,-0.15913381,-0.02457291,0.99969804,0,0)" />
    <rect
       style="fill:#b2d1c2;fill-opacity:1;stroke-width:1.38886"
       id="rect45273-6-1"
       width="1.8263589"
       height="4.622571"
       x="-42.001713"
       y="193.02785"
       ry="0.52467245"
       transform="matrix(0.50223145,-0.86473324,0.78451718,0.62010708,0,0)" />
    <rect
       style="fill:#b2d1c2;fill-opacity:1;stroke-width:2.13446"
       id="rect45273-3"
       width="1.9855342"
       height="10.904686"
       x="185.79562"
       y="-32.860569"
       ry="0.54496145"
       transform="matrix(0.40890687,0.91257612,-0.97207786,0.23465854,0,0)" />
    <rect
       style="fill:#b2d1c2;fill-opacity:1;stroke-width:2.23303"
       id="rect45273-5"
       width="1.8761526"
       height="12.630925"
       x="149.3391"
       y="111.51965"
       ry="0.63123029"
       transform="matrix(0.95490597,0.29690839,-0.29156112,0.9565522,0,0)" />
    <rect
       style="fill:#b2d1c2;fill-opacity:1;stroke-width:3.04503"
       id="rect45273-4"
       width="2.2930293"
       height="19.217001"
       x="150.58531"
       y="56.8241"
       ry="0.96036935"
       transform="matrix(0.79167304,0.61094501,-0.28992026,0.9570508,0,0)" />
    <rect
       style="fill:#30b576;fill-opacity:1;stroke-width:2.1893"
       id="rect45142"
       width="29.049921"
       height="13.164946"
       x="184.13158"
       y="22.754726"
       ry="2.1698191"
       transform="matrix(0.696215,0.71783332,-0.97223212,0.23401859,0,0)" />
    <path
       style="color:#000000;fill:#39c382;fill-opacity:1;stroke-width:1.30288;-inkscape-stroke:none"
       d="m 122.05979,154.43389 c 1.86239,-0.0902 9.94094,-1.32293 10.17255,0.67099 l -0.11565,4.52089 c 0,0 0.18559,1.2608 -1.03629,1.52745 0,0 -8.76347,-1.2134 -15.23663,-0.11619 -2.34587,0.39763 -4.09215,-1.3687 -4.09215,-1.3687 3.35516,-2.17313 7.42664,-5.29225 10.30817,-5.23444 z"
       id="rect45142-6" />
    <rect
       style="fill:#bee9d5;fill-opacity:1;stroke-width:1.39365"
       id="rect45561"
       width="10.549188"
       height="1.5053792"
       x="0.63186121"
       y="173.05888"
       ry="0.35709098"
       transform="matrix(0.96340434,-0.26805239,0.56033813,0.82826396,0,0)" />
    <rect
       style="fill:#bee9d5;fill-opacity:1;stroke-width:1.39365"
       id="rect45561-1"
       width="10.549188"
       height="1.5053792"
       x="1.2656398"
       y="176.26192"
       ry="0.35709098"
       transform="matrix(0.96340434,-0.26805239,0.56033813,0.82826396,0,0)" />
    <rect
       style="fill:#bee9d5;fill-opacity:1;stroke-width:1.39365"
       id="rect45561-1-2"
       width="10.549188"
       height="1.5053792"
       x="2.0449972"
       y="179.87508"
       ry="0.35709098"
       transform="matrix(0.96340434,-0.26805239,0.56033813,0.82826396,0,0)" />
    <rect
       style="fill:#bee9d5;fill-opacity:1;stroke-width:1.39365"
       id="rect45561-1-2-9"
       width="10.549188"
       height="1.5053792"
       x="2.839694"
       y="183.57278"
       ry="0.35709098"
       transform="matrix(0.96340434,-0.26805239,0.56033813,0.82826396,0,0)" />
    <ellipse
       style="fill:#b4f3d6;fill-opacity:1;stroke-width:4.465"
       id="path51616"
       cx="123.95754"
       cy="43.189793"
       rx="14.291272"
       ry="15.457932" />
    <ellipse
       style="fill:#b4f3d6;fill-opacity:1;stroke-width:4.465"
       id="path51618"
       cx="136.76251"
       cy="41.763401"
       rx="18.531883"
       ry="22.719398" />
    <ellipse
       style="fill:#b4f3d6;fill-opacity:1;stroke-width:5.44474"
       id="path51620"
       cx="155.045"
       cy="46.700108"
       rx="19.478918"
       ry="16.698095" />
  </g>
</svg>
