<?xml version="1.0" encoding="UTF-8" standalone="no"?>
<!-- Created with Inkscape (http://www.inkscape.org/) -->

<svg
   width="179.97531mm"
   height="193.66606mm"
   viewBox="0 0 179.97531 193.66606"
   version="1.1"
   id="svg24186"
   xmlns="http://www.w3.org/2000/svg"
   >
  <defs
     id="defs24183">
    <linearGradient
       id="linearGradient22765">
      <stop
         style="stop-color:#1a1a1a;stop-opacity:1;"
         offset="0"
         id="stop22763" />
    </linearGradient>
    <clipPath
       clipPathUnits="userSpaceOnUse"
       id="clipPath71813">
      <path
         id="path71815"
         style="fill:#ff0000;fill-opacity:1;fill-rule:nonzero;stroke:none;stroke-width:0.264583"
         d="m 215.9217,136.77925 v 140.48548 h 114.8266 c -0.20442,-0.5098 -0.38415,-1.03248 -0.66096,-1.50534 -0.15049,-0.25707 -0.36928,-0.4675 -0.55396,-0.70126 -1.95625,-2.44467 -4.12967,-4.85894 -5.3821,-7.75869 -1.16419,-2.02832 -0.18724,-0.43415 -1.85468,-2.76417 -1.87549,-2.62075 -3.62672,-5.34978 -4.86791,-8.33747 -0.36795,-0.85915 -0.75239,-1.71158 -1.10381,-2.57763 -0.51729,-1.27472 -0.49064,-1.71892 -1.27228,-3.02307 -0.30839,-0.51458 -0.74009,-0.94494 -1.094,-1.42937 -1.57284,-2.15304 -1.24208,-1.6768 -2.34195,-3.51864 -0.41257,-0.72019 -0.83437,-1.43516 -1.23767,-2.1606 -0.68853,-1.23852 -1.04233,-2.09305 -1.86603,-3.30677 -2.83895,-4.18325 1.34139,2.76932 -2.39726,-3.27164 -0.22701,-0.36679 -0.38616,-0.77132 -0.5793,-1.15703 -0.24551,-0.45428 -0.46644,-0.92283 -0.73692,-1.36271 -0.50882,-0.82753 -1.13337,-1.57991 -1.64277,-2.40709 -1.00113,-1.6256 -0.39616,-0.93128 -1.63558,-2.74815 -0.22645,-0.33198 -0.49744,-0.63161 -0.7462,-0.94723 -1.36718,-1.67796 -2.80191,-3.3023 -4.11499,-5.02398 -0.83827,-1.09909 -1.535,-2.30215 -2.43707,-3.35484 -0.29922,-0.38608 -0.62598,-0.74997 -0.93896,-1.12499 -1.48971,-1.86036 -2.90935,-3.76257 -4.36252,-5.65185 -1.60944,-2.09244 -2.17073,-2.69901 -3.7641,-5.10047 -0.36944,-0.55677 -0.66937,-1.15698 -1.00409,-1.73529 -0.50017,-0.81392 -0.98042,-1.64015 -1.50016,-2.44171 -1.92879,-2.97456 -4.28194,-5.64618 -6.29471,-8.5602 -1.37361,-2.17163 -1.30373,-1.89083 -2.24636,-3.88659 -0.34769,-0.73611 -0.69223,-1.47448 -1.00719,-2.22519 -0.68419,-1.63072 1.02923,1.3914 -0.72501,-1.79937 -0.26797,-0.48744 -0.59817,-0.93807 -0.8971,-1.40715 -0.85979,-1.25096 -1.87081,-2.80061 -2.97037,-3.89278 -1.9979,-1.98449 1.10577,1.6904 -1.66553,-1.4733 -0.1914,-0.21849 -0.32609,-0.48013 -0.48937,-0.72037 -1.31485,-2.5866 -2.11184,-5.51063 -4.21267,-7.63261 -1.91151,-2.45679 -3.68785,-5.07587 -5.11752,-7.84138 -0.10368,-0.23529 -0.17156,-0.4896 -0.31057,-0.7059 -0.4147,-0.64527 -1.13847,-0.93107 -1.64331,-1.49396 -1.03034,-1.27544 -1.90196,-2.67798 -2.84996,-4.01475 -0.63691,-1.09878 -1.18894,-2.24856 -1.86242,-3.32589 -0.99499,-1.59163 -2.17189,-3.06981 -3.15794,-4.66845 -0.50136,-0.79273 -1.01724,-1.57656 -1.5043,-2.37815 -1.18911,-1.95687 -0.61475,-1.32408 -2.12287,-3.54139 -2.0008,-2.94167 -0.27894,0.1629 -2.61638,-3.72535 -0.22523,-0.37467 -0.37896,-0.78789 -0.56844,-1.18184 -0.48138,-1.00082 -0.61819,-1.87955 -0.53227,-2.60087 z m 28.71866,0 c 0.0861,0.14819 0.18197,0.26458 0.262,0.43098 0.18949,0.39395 0.3416,0.80815 0.56844,1.18184 1.35065,2.22511 0.79234,0.95535 2.08101,2.85305 0.67623,0.99581 1.30322,2.02446 1.92237,3.05821 0.19092,-0.25361 0.3873,-0.47564 0.57877,-0.60099 0.0766,-0.0502 0.15606,-0.0957 0.23461,-0.14263 -0.60872,-2.31224 0.36377,-3.81279 1.69551,-3.88968 0.73603,-0.0425 1.57599,0.35352 2.30942,1.2764 0.17631,-0.21786 0.34379,-0.44353 0.49712,-0.68161 0.23318,-0.12986 0.47504,-0.2473 0.71779,-0.36328 0.0274,-0.10748 0.0551,-0.21489 0.0946,-0.31988 0.0365,-0.097 0.14045,-0.18924 0.26613,-0.27595 -0.0658,-0.54915 -0.0322,-0.53383 0.91209,-0.7121 2.95335,-0.39183 6.01462,-0.10368 8.89042,0.62993 0.20468,-0.0472 0.43601,-0.0967 0.67437,-0.13849 0.33655,-0.15699 0.69303,-0.26773 1.0785,-0.30644 0.16666,-0.28737 1.89113,-0.25539 3.12951,-0.39533 0.46787,-0.0529 0.87501,-0.19273 1.3157,-0.32763 1.69574,-0.85736 3.60854,-0.92756 5.39398,-0.39222 -0.21728,-0.28653 -0.42254,-0.58718 -0.63098,-0.88418 z m 11.22774,2.52646 c 0.0128,0.10663 0.0285,0.24577 0.0429,0.40101 0.4071,-0.20036 0.80361,-0.41624 1.14877,-0.70642 0.32119,-0.27002 -0.68272,-0.0457 -1.19166,0.30541 z m 0.0429,0.40101 c -0.13395,0.0659 -0.26865,0.13033 -0.40359,0.19482 -0.26459,1.03688 -0.0126,2.17954 -0.0145,3.26181 -7e-5,0.042 0.0938,0.11446 0.10283,0.0734 0.39608,-1.86229 0.373,-2.90665 0.31523,-3.53001 z m 70.8644,-2.92747 c -0.22098,0.69718 -0.44931,1.26071 -0.70072,1.67948 0.12999,0.32795 0.24281,0.61198 0.39791,0.99942 0.11832,0.29559 -0.61286,-0.20894 -0.9312,-0.21394 -0.0371,-5.3e-4 -0.0741,1e-4 -0.1111,-5.3e-4 -1.02698,0.86438 -2.45809,0.60313 -4.88757,0.72192 -6.76177,-0.27699 -3.97846,-0.16229 -4.62555,-0.18552 -0.0167,0.0129 -0.0322,0.0271 -0.0491,0.0398 -0.21344,0.16005 -0.44876,0.26025 -0.69813,0.32195 1.01989,0.0299 2.03983,0.0596 3.05975,0.0889 2.24509,0.0101 4.48998,0.0382 6.73499,0.0878 0.71811,-0.008 1.43611,-0.019 2.1544,-0.0233 0.75173,-0.1344 1.50453,-0.27755 2.11667,0.003 0.18912,-7e-5 0.37827,2.5e-4 0.56739,5.3e-4 0.60696,-0.15787 1.22082,-0.33248 1.5875,0.002 0.40543,0.002 0.81045,-0.002 1.21595,0.002 0,0.01 -1.1e-4,0.0201 -0.003,0.03 0.0446,0.0254 0.0568,0.0716 0.0217,0.14883 -0.013,0.0282 -0.0259,0.058 -0.0388,0.0863 -0.0987,1.2626 0.13973,2.65311 -0.16793,3.83646 0.0307,0.27829 0.0687,0.55333 0.12351,0.82062 0.0367,0.0871 0.0761,0.17676 0.11263,0.26304 0.11771,0.27782 -0.27075,0.22265 -0.8237,0.0584 -0.49567,0.41061 -1.37306,0.121 -2.16474,-0.0176 0.30773,0.12123 0.61007,0.25173 0.91053,0.38654 1.9852,0.0141 3.98262,0.0295 6.08645,0.0398 3.11052,-0.1907 6.02676,-0.36976 9.86039,-0.60358 -0.67924,0.24204 -1.18586,0.43082 -1.59785,0.59118 0.64582,-0.006 1.33279,-0.007 1.94564,-0.0171 0.95769,-0.0153 2.09378,-0.67327 2.92592,-0.34054 2.86737,-0.4483 5.58546,-0.69472 5.12475,0.31212 -0.67789,1.48142 -1.76959,2.79782 -3.04271,3.86075 0.0424,0.073 0.0861,0.14544 0.13435,0.21446 0.2313,0.33076 1.59007,0.20541 1.18753,0.23461 -0.66992,0.0486 -1.34083,0.0723 -2.01229,0.0884 -0.2064,0.15067 -0.41558,0.29619 -0.62785,0.43357 -0.1478,0.0957 -0.30671,0.15932 -0.46974,0.2098 1.63502,0.0995 2.24607,0.1345 3.71242,0.22531 1.16136,-0.27614 2.34833,-0.60894 3.00603,0.18242 0.0193,0.001 0.19685,0.0121 0.20979,0.0129 -0.003,0.11172 0.008,0.2294 0.013,0.34468 0.18272,0.38756 0.2092,0.82256 0.1483,1.28365 0.21071,1.25548 0.46289,2.52806 -0.32039,3.37653 -1.01605,1.1006 -2.99587,0.0282 -4.49379,0.0351 -2.08184,0.01 -4.16374,0.0143 -6.24562,0.0186 0.0266,0.025 0.053,0.0499 0.0796,0.0749 4.63391,0.26757 9.26782,0.54092 13.90353,0.7736 1.32903,0.007 2.65788,0.0241 3.98685,0.0351 v -20.52175 z m -53.00451,7.65121 c -0.59089,0.0713 -1.18247,0.13799 -1.77405,0.20309 0.74509,2.76024 -1.72244,4.80421 -3.88864,6.21977 2.29823,1.33558 -0.042,-0.0599 6.15413,3.64319 -1.58475,0.86382 -0.20685,1.05202 1.21751,1.25574 0.38454,-0.0576 0.78203,-0.0556 0.8909,0.14004 0.74936,0.13853 1.31218,0.33028 1.13999,0.70538 -0.32745,0.71324 -0.83551,1.31754 -1.36375,1.91048 -0.11168,1.0016 -0.2096,1.71067 -0.30334,2.1916 0.5053,-0.15876 1.00174,-0.37058 1.23301,-0.80719 0.45717,-0.86316 0.16354,-1.94637 0.24545,-2.91972 0.33068,0.16005 0.6403,0.37454 0.99219,0.48008 0.0788,0.0236 2.73997,0.53647 2.98276,0.47697 1.03907,-0.25454 1.97919,-0.81211 2.96158,-1.23558 2.04237,-0.8804 3.24996,-1.43889 4.55062,-2.06964 0.0278,-0.1 0.0609,-0.20313 0.10026,-0.31058 -0.69843,0.15088 -1.32152,0.23093 -1.29966,-0.2961 0.0335,-0.80806 0.2522,-1.69374 0.61856,-2.50114 -0.50082,-1.03994 -0.77099,-2.11696 -0.44182,-2.67168 -2.44745,-0.19273 -4.89429,-0.39876 -7.33909,-0.6351 -1.91953,-0.18556 -4.74345,0.92515 -5.73972,-0.72605 -0.32932,-0.54581 -0.55605,-1.03702 -0.71106,-1.4888 -0.53745,-0.20714 -0.92898,-0.49445 -0.69866,-0.8661 0.13991,-0.22579 0.29874,-0.43479 0.47077,-0.63096 0.003,-0.0219 1.1e-4,-0.0456 0.003,-0.0672 z m -6.58254,0.86351 c -0.0366,0.002 -0.0716,0 -0.108,0.001 -0.006,0.0385 -0.007,0.0771 -0.01,0.11576 0.0408,-0.0398 0.0805,-0.0781 0.11782,-0.11679 z m -1.20457,0.96687 c -0.004,0.0262 -0.01,0.0523 -0.0135,0.0786 0.0278,-0.0215 0.0481,-0.0382 0.0775,-0.061 -0.0212,-0.006 -0.0427,-0.0119 -0.0641,-0.0176 z m 24.42795,2.78174 c 0.0164,0.008 0.0305,0.0139 0.047,0.0222 0.0606,0.002 0.12126,0.003 0.1819,0.005 0.008,-0.003 0.0161,-0.005 0.0243,-0.008 -0.0844,-0.006 -0.16881,-0.0129 -0.25324,-0.0191 z m -29.89016,3.38016 c -0.2952,0.087 -0.59261,0.16548 -0.89348,0.22634 -0.4447,0.0897 -0.90778,0.0222 -1.36116,0.005 -0.31659,-0.0121 -0.62724,-0.0301 -0.93586,-0.0527 -0.61645,0.77621 -0.95704,1.03624 -1.8495,1.16375 0.3503,0.63995 0.69502,1.28297 1.06609,1.9141 0.78458,0.96534 1.35714,2.12366 2.15438,3.07784 0.0256,0.009 0.10745,0.0681 0.1385,0.0951 0.31631,0.27524 0.63438,0.54912 0.94103,0.83509 0.85844,0.80055 0.73001,0.87012 1.58905,2.23862 0.18488,0.38319 0.34747,0.7781 0.55448,1.1498 0.49798,0.89401 0.8279,1.28562 1.36478,2.0929 0.57891,0.87049 1.08795,1.78829 1.70325,2.63343 0.34142,0.46893 0.72385,0.9068 1.08572,1.36012 1.76802,1.98682 3.03773,4.423 4.03749,6.8771 0.60293,1.48041 0.0603,0.52539 0.64698,1.47433 0.0534,0.0638 0.0962,0.13912 0.16071,0.19172 0.1538,0.12546 0.36724,0.1713 0.51057,0.31368 1.72587,1.71431 2.76047,3.10126 4.16099,5.10304 1.01021,1.57793 1.13036,1.62918 1.89497,3.41065 0.15629,0.36411 0.22892,0.76021 0.38241,1.12551 0.12425,0.29574 1.30709,2.75188 1.51413,3.10679 0.36682,0.62878 0.7919,1.2212 1.18803,1.83193 1.99869,2.83386 4.28075,5.46785 6.17276,8.37882 0.57536,0.88524 1.11106,1.79552 1.66655,2.69337 0.35825,0.61766 0.68017,1.25811 1.07487,1.85312 1.2319,1.85697 2.08058,2.8443 3.38172,4.53409 1.43973,1.86977 2.84173,3.75638 4.31858,5.59656 0.29181,0.3491 0.59677,0.68785 0.8754,1.04748 0.99793,1.146 1.76089,2.46473 2.67891,3.66902 1.24275,1.63032 2.61509,3.16725 3.91089,4.75527 1.18544,1.30133 1.94273,2.90313 2.85562,4.38785 0.40497,0.65858 0.91432,1.24903 1.31879,1.90789 0.38055,0.61986 0.72011,1.26396 1.08003,1.89601 0.22632,0.44831 0.41513,0.91784 0.67905,1.34514 2.1712,3.51604 0.006,-0.30158 1.80298,2.35541 1.32696,1.96145 2.39082,4.09095 3.56825,6.14174 0.25204,0.42153 0.48302,0.85626 0.75604,1.26452 0.41987,0.62788 0.87215,1.23359 1.32083,1.84123 0.32115,0.4349 0.71072,0.82246 0.98859,1.28623 1.2586,2.1007 2.03845,4.43293 3.00342,6.67143 1.10619,2.67316 2.68697,5.10542 4.37028,7.44347 0.01,0.014 0.0214,0.0273 0.0315,0.0413 0.0235,-0.16682 0.0279,-0.23844 0.0542,-0.42271 0.0629,-0.43873 0.66638,-0.58865 1.0361,-0.83303 0.48829,-0.32268 1.02106,-0.57291 1.52964,-0.86247 2.90716,-1.65518 2.76111,-1.57915 5.59655,-3.22978 0.74215,-0.42926 1.48463,-0.85841 2.22676,-1.28778 -0.30314,-0.16608 -0.60479,-0.33443 -0.89713,-0.51935 -0.12983,-0.0821 0.10322,-0.2895 0.16074,-0.43201 0.19595,-0.48579 0.39568,-0.97004 0.59944,-1.45263 0.90617,-2.14635 1.69992,-4.50349 3.30626,-6.23941 0.51046,-0.45239 0.99007,-0.94228 1.53117,-1.35754 0.1823,-0.13989 0.4097,-0.20939 0.62269,-0.29559 0.70988,-0.28745 1.23222,-0.41201 1.76991,-0.47232 -0.036,-0.0453 -0.0675,-0.0936 -0.10179,-0.14004 -0.84748,0.1758 -1.69328,0.3269 -1.77562,0.22427 -2.86332,-3.57042 -2.80119,-4.21081 -1.42004,-4.91856 -1.45891,-0.0559 -1.59528,-0.70642 -0.0703,-4.33307 -0.0448,-0.22673 -0.0852,-0.45324 -0.11782,-0.67954 -0.0339,-0.23508 0.16589,-0.26773 0.48578,-0.19637 0.003,-0.007 0.005,-0.0122 0.008,-0.0196 0.0254,-0.0585 0.0605,-0.10449 0.0997,-0.14469 -0.50689,-0.0268 -0.9702,-0.15137 -1.32239,-0.49764 -1.34017,-1.31766 -1.30831,-3.52363 -1.96268,-5.28547 0.43868,-0.20455 0.86538,-0.44017 1.29657,-0.66456 -0.0787,-0.0828 -0.15452,-0.16946 -0.23514,-0.2496 1.12419,-0.30811 1.42325,-0.41704 1.89032,-0.44803 5.55905,-1.61379 7.48239,-1.48869 12.79922,-1.72858 0.0217,-0.18164 0.0478,-0.36202 0.0775,-0.54157 -0.47667,-0.0965 -0.96679,-0.19597 -1.51773,-0.30696 -0.0738,0.004 -0.14785,0.005 -0.22169,0.01 -0.58185,0.12185 -1.20412,0.32669 -1.61955,0.10491 -1.27883,0.0844 -2.55854,0.15635 -3.84214,0.11575 -1.00558,0.017 -2.11397,0.42026 -3.01686,-0.0227 -1.17319,-0.57568 -2.14135,-1.47359 -3.10782,-2.37401 -0.58979,0.0323 -1.34562,0.22011 -1.35134,-0.25218 -8e-5,-0.006 8e-5,-0.01 0,-0.0155 -0.83904,-0.4676 -0.81594,-1.75585 0.75653,-4.932 0.21664,-0.43754 0.84344,-0.0963 1.4056,0.13436 0.24368,-0.0365 0.51818,-0.0616 0.80978,-0.0873 -0.12978,-0.0846 -0.24593,-0.19016 -0.34055,-0.32763 -0.0572,-0.0831 -0.0957,-0.15082 -0.14986,-0.23151 -1.35273,-0.0958 -2.32007,-0.46974 -1.16686,-1.98386 -0.0493,-0.10414 -0.0985,-0.20822 -0.14004,-0.30592 -0.0946,-0.005 -0.2176,-0.009 -0.31057,-0.0139 -1.14607,-0.0566 -2.7921,0.68978 -3.44477,-0.23564 -0.97719,-0.24405 -1.5866,-0.77622 -1.23918,-1.91616 -0.77814,-0.0321 -1.47661,-0.0726 -1.94564,-0.13384 -1.08955,-0.14228 -2.7433,-0.11048 -3.08766,-1.15394 -1.68198,-5.09704 1.37054,-4.90738 4.03646,-4.94078 1.56501,-0.0196 3.12978,0.006 4.69479,0.0377 -0.16314,-0.37178 -0.3343,-0.73591 -0.53589,-1.0697 0.44091,0.0413 0.88199,0.0759 1.32292,0.11472 0.15235,-0.19534 0.32401,-0.37596 0.52245,-0.5364 1.23322,-0.99689 3.16518,-0.20476 4.74805,-0.30076 0.27731,-0.0168 0.55465,-0.0329 0.83198,-0.0496 0.005,-0.0253 0.007,-0.0514 0.0124,-0.0765 -1.07141,-0.11451 -2.31603,-0.25016 -3.29541,-0.35553 0,-5.3e-4 10e-5,-10e-4 0.003,-0.002 -0.0318,-0.002 -0.0638,-0.003 -0.0956,-0.005 -2.85594,-0.17851 -4.87971,-0.008 -6.40893,-0.98805 -2.10761,0.59604 -3.62188,0.86164 -3.21632,0.0506 0.48416,-0.96817 0.93292,-1.72282 1.36734,-2.33836 -0.33952,-0.70975 -0.65138,-1.56974 -0.93946,-2.64841 -0.24241,-0.90743 1.25558,-0.35612 3.26956,0.62993 1.60968,-0.57453 3.44483,0.12536 6.40684,0.31006 0.77985,0.0486 1.59099,0.0871 2.38331,0.13178 -0.018,-0.0761 -0.0353,-0.15237 -0.0548,-0.22841 -0.51266,0.0612 -0.98957,0.0443 -1.36684,-0.18914 -0.3148,0.0356 -0.56017,-0.026 -0.64338,-0.31161 -0.0645,-0.22153 -0.1106,-0.45311 -0.14521,-0.68936 -0.1778,-0.36941 -0.29006,-0.77811 -0.35967,-1.20096 -4.83566,-0.25715 -8.99345,-0.49835 -9.33329,-0.61133 -0.35332,-0.11749 -0.66288,-0.30879 -0.93482,-0.55397 -0.0257,0.0224 -0.0343,0.02 -0.0201,-0.0207 -0.62368,-0.57288 -1.04386,-1.43326 -1.32035,-2.35438 -3.61839,-0.12345 -7.22847,-0.23759 -10.90475,-0.29869 -3.0961,-0.0515 -4.58253,0.44861 -5.98257,-0.68574 l -0.50747,0.0496 c -0.10319,0.0854 -0.37584,0.3727 -0.30954,0.25631 0.13285,-0.23343 0.2531,-0.47943 0.36999,-0.72915 -0.69318,-0.74709 -1.40454,-1.95016 -2.32026,-3.8809 -0.48665,-1.02605 2.59249,-0.60558 5.23584,-0.231 1.04278,-0.32202 2.35109,0.19476 3.49023,0.21343 0.0114,1.9e-4 0.0222,2.5e-4 0.0336,5.2e-4 0.0362,-0.16301 -0.44344,-0.49834 -1.70791,-1.10535 2.11862,-0.02 3.70972,-0.0405 5.25393,-0.0563 0.0656,-0.42083 0.15044,-0.77709 0.25427,-1.07642 -0.007,-0.26868 -0.007,-0.55869 0,-0.8692 -2.65219,0.0381 -6.5527,0.0979 -9.32244,0.0863 -1.0533,0.31991 -2.05451,0.52317 -2.63239,-0.22169 -0.23736,-0.30595 -0.36293,-0.68445 -0.40307,-1.09399 -0.19947,-0.40095 -0.33853,-0.84824 -0.41291,-1.30483 -0.84058,-0.0305 -1.50373,-0.0606 -1.95749,-0.0904 -0.90932,0.20718 -1.81459,0.40903 -1.98593,-0.29559 -0.22834,-0.93897 -0.26157,-1.71052 -0.14418,-2.34456 -0.14128,-0.92604 -0.0441,-1.90693 0.28991,-2.65875 0.41801,-0.94097 1.91333,-0.16912 3.0608,0.0496 2.67404,-0.36819 6.10582,0.48197 7.1396,0.5116 2.54736,0.073 5.09759,0.0627 7.64347,0.17673 0.21582,0.01 0.44635,0.0226 0.66302,0.0326 0.32107,-0.26213 0.64611,-0.51847 0.97565,-0.76739 -0.82338,-0.73153 -1.62404,-1.49886 -2.45102,-2.19522 -0.25604,-0.21559 0.65947,0.11647 0.98909,0.17467 1.2773,0.16246 2.5545,0.32483 3.8318,0.4873 0.56015,-0.29742 1.1353,-0.56313 1.73892,-0.76429 0.66882,-0.22288 1.35901,-0.30479 2.05981,-0.31988 -5.42589,-0.51856 -10.84815,-1.07697 -16.276,-1.57974 -2.05243,-0.1901 -4.10686,-0.36229 -6.15932,-0.55191 -0.26418,-0.0244 -0.89365,0.15455 -0.79065,-0.0899 0.36997,-0.8781 0.86066,-1.69547 1.37821,-2.49907 -0.0597,-0.15313 -0.11316,-0.30817 -0.17052,-0.46198 -1.02349,-0.0256 -2.1114,-0.0497 -3.13314,-0.0724 -2.46833,0.0851 -4.92406,0.15945 -7.27761,0.19844 -0.64222,0.0106 -5.83009,-0.11384 -7.35716,-0.18966 -1.12337,0.30703 -2.27613,0.65594 -2.57712,-0.21187 -0.19241,-0.55477 -0.1588,-1.15413 0.0206,-1.74563 -0.91517,-0.0528 -1.83042,-0.1056 -2.74505,-0.16795 -1.72538,-0.11763 -4.40788,0.94376 -5.15163,-0.61753 -0.47315,-0.9932 0.12986,-1.99567 0.87281,-2.9993 -0.0831,-0.12989 -0.15005,-0.25909 -0.21497,-0.38809 -0.92118,0.26653 -1.85063,0.50328 -2.79932,0.66352 -0.6014,0.10158 -1.21473,-0.13162 -1.81179,-0.25631 -2.28632,-0.47751 -2.28954,-0.47011 -3.40082,-1.02991 -0.0217,-0.005 -0.0449,-0.0201 -0.0677,-0.0336 -0.16777,-0.0845 -0.2825,-0.14249 -0.51366,-0.25683 -0.0729,-0.15714 -0.1564,-0.312 -0.24342,-0.46613 -0.0984,-0.0398 -0.15415,-0.0999 -0.10954,-0.18448 0,-5.3e-4 0,-0.001 0,-0.002 -0.0343,-0.0577 -0.0695,-0.1151 -0.10491,-0.1726 -0.10384,-0.0973 -0.2133,-0.1898 -0.33485,-0.26768 -0.77052,-0.49363 -1.56311,-0.95227 -2.34458,-1.42834 -8.25436,-4.93402 -0.0138,-0.0305 -7.26311,-4.28708 -1.0621,-0.62363 -2.12274,-1.24985 -3.17914,-1.88309 -0.0134,-2.1e-4 -0.0231,2.4e-4 -0.0367,0 -0.24236,-0.004 -0.47038,-0.0917 -0.69298,-0.20102 z m 13.95626,8.2398 c 0.0368,0.0619 0.0734,0.12379 0.10851,0.18604 0.0429,0.0173 0.0925,0.0307 0.14832,0.0403 -0.0747,-0.0917 -0.14411,-0.17916 -0.23047,-0.26975 -0.008,0.0149 -0.0185,0.0284 -0.0265,0.0434 z m 19.93419,-3.20135 c -1.88574,0.94126 -3.78712,1.90645 -5.73196,2.78587 2.43149,-0.10873 5.09085,-0.22911 9.06507,-0.39945 -0.24516,-0.4863 -0.46185,-0.9843 -0.61857,-1.50689 -0.1161,-0.38716 0.80312,0.099 1.20666,0.12196 0.51499,0.0292 1.03008,0.055 1.54512,0.0832 0.0298,-0.0427 0.0618,-0.0842 0.091,-0.12713 1.2523,0.002 2.50362,-0.027 3.75428,-0.0677 -0.21495,-0.0204 -0.42995,-0.0389 -0.64492,-0.0594 -2.79287,-0.27159 -5.5861,-0.54181 -8.3788,-0.81494 -0.0821,-0.008 -0.19595,-0.01 -0.28784,-0.0155 z m 69.67998,19.18384 c -1.55573,0.19787 -3.14574,0.39102 -4.72221,0.58446 0.0919,0.35581 0.18209,0.71207 0.27131,1.06867 1.48338,0.15369 2.96725,0.30354 4.4509,0.45423 z m -5.0927,0.95446 c -0.003,0.006 0.003,0.0256 0.0217,0.061 0.10988,0.21287 0.24593,0.41097 0.37518,0.61288 0.0418,0.004 0.0837,0.009 0.12557,0.0129 -0.16666,-0.28499 -0.50585,-0.724 -0.52244,-0.68677 z m 5.0927,8.75141 c -0.48234,0.041 -1.03587,0.0105 -1.44074,0.0729 -0.0251,0.004 -0.0503,0.007 -0.0755,0.0104 0.0335,0.17535 0.0763,0.34855 0.10338,0.52555 0.33057,0.0306 0.3244,0.0301 1.08881,0.10076 0.0777,0.0106 0.24111,0.0326 0.32401,0.0439 z m -7.83569,12.55944 c -2.21615,0.0182 -4.43246,0.0304 -6.64869,0.0388 2.5844,0.12328 5.16763,0.22874 7.77367,0.3297 -0.37637,-0.10204 -0.75099,-0.23088 -1.12498,-0.36845 z m -11.94139,1.22421 c -0.76874,0.14341 -1.76707,0.41686 -2.86702,0.74828 1.06881,0.54736 2.04123,1.01493 2.7709,1.28105 0.40738,-0.34344 0.71316,-0.62959 0.95755,-0.88108 -0.19796,-0.30829 -0.47995,-0.687 -0.86143,-1.14825 z m 19.77708,31.46578 c -0.34102,0.12417 -0.56849,0.20634 -0.91932,0.33383 0.31043,0.0166 0.61224,0.062 0.91932,0.0925 z m 0,10.17251 c -0.006,0.003 -0.0119,0.006 -0.018,0.009 0.006,0.007 0.0124,0.015 0.018,0.0222 z m 0,0.67748 c -0.0749,0.0461 -0.14992,0.0921 -0.22532,0.13745 0,0.0475 0.003,0.0951 0,0.14263 -0.0243,0.54184 -0.94523,0.5326 -1.4061,0.81856 -1.25884,0.78105 -2.50553,1.58158 -3.75431,2.37866 -0.003,0.13629 -0.0116,0.27223 -0.0305,0.40824 0.047,0.11513 0.0946,0.23909 0.14417,0.38241 1.14292,3.29985 -0.64153,4.47028 -3.31142,5.32009 -0.93461,0.21871 -1.85716,0.49897 -2.80344,0.65887 -0.811,0.36212 -1.49794,0.68476 -1.46865,0.77567 -1.44121,0.84006 -2.93508,1.596 -4.32377,2.52026 -0.3765,0.25057 -0.73615,0.5238 -1.09191,0.80305 -0.12253,1.00421 -0.67135,2.22691 -0.9643,2.77399 -0.71834,1.49216 -1.31966,2.99624 -2.46547,4.2385 -2.24348,2.43233 -5.25774,3.51593 -8.53074,3.49696 -0.6671,-0.0626 -2.67415,0.0934 -4.15687,-0.2553 1.10238,1.72228 2.46605,3.28888 3.73933,4.87982 0.93347,1.18131 0.6867,0.78203 1.63967,2.71404 0.21969,0.4454 0.33184,0.94385 0.58963,1.3684 0.18812,0.3098 0.61137,0.77708 1.06455,1.25211 h 27.35596 z" />
    </clipPath>
  </defs>
  <g
     id="layer1"
     transform="translate(-9.2153435,-8.7932873)">
    <rect
       style="fill:#559679;fill-opacity:1.0;stroke-width:4.465"
       id="rect24269"
       width="179.83635"
       height="177.22052"
       x="9.3542995"
       y="25.238827"
       ry="50.105721" />
    <rect
       style="fill:#6ec19c;fill-opacity:1;stroke-width:4.465"
       id="rect24269-0"
       width="179.83635"
       height="177.22052"
       x="9.2153435"
       y="8.7932873"
       ry="50.105721" />
    <path
       style="color:#000000;fill:#9af3c8;fill-opacity:1;stroke-width:4.69808;-inkscape-stroke:none"
       d="M 72.926944,47.025484 C 84.799556,42.205959 102.54,41.789913 117.54778,45.437442 c 12.34109,2.999412 35.74998,16.536876 36.80901,54.177151 0.93445,33.212637 6.08994,23.028857 -21.84888,23.531397 l -67.846354,1.22035 C 36.722742,124.86888 31.866394,116.36003 32.597084,103.65747 33.891569,81.153848 51.600052,55.682846 72.926944,47.025484 Z"
       id="rect80223" />
    <path
       style="color:#000000;fill:#9ef9cd;fill-opacity:1;stroke-width:2.92337;-inkscape-stroke:none"
       d="m 80.686437,125.55273 69.920903,-1.93783 c -11.02871,0.30619 8.32024,0.0787 8.32024,0.0787 -0.24263,6.46241 23.13507,8.23327 11.91442,11.903 l -23.65958,7.73791 c -18.77911,4.38852 -49.388715,-2.1553 -62.883311,-6.24723 -44.801308,-13.58492 -14.714252,-12.15112 -3.612672,-11.53454 z"
       id="rect80365" />
    <path
       style="color:#000000;fill:#8ee5bc;fill-opacity:1;stroke-width:4.465;-inkscape-stroke:none"
       d="m 103.82391,43.50033 c 47.81798,25.24298 33.25263,43.788145 36.93858,82.64355 l -22.92631,1.82652 C 130.50683,87.304282 121.38691,68.60105 93.979596,42.989864 Z"
       id="rect80802" />
    <path
       style="color:#000000;fill:#8ee5bc;fill-opacity:1;stroke-width:4.39866;-inkscape-stroke:none"
       d="m 32.482596,111.78452 c 38.470824,14.11114 122.573634,3.3415 122.573634,3.3415 l 3.87135,8.59069 c 0,0 -89.966146,13.21581 -131.954325,-3.48142 5.679337,-3.02584 6.138236,-3.19619 5.509341,-8.45077 z"
       id="rect81257" />
    <path
       style="color:#000000;fill:#b7fada;fill-opacity:1;stroke-width:4.405;-inkscape-stroke:none"
       d="m 107.913,43.797617 c 38.08598,19.239129 33.77787,42.675501 33.83434,78.829993 l -18.66552,2.09102 C 137.734,84.685487 120.20868,66.722769 98.121482,42.894427 Z"
       id="rect80802-2" />
    <rect
       style="fill:#8ee5bc;fill-opacity:1;stroke:none;stroke-width:4.465;stroke-opacity:1"
       id="rect88292-6"
       width="24.897791"
       height="12.88579"
       x="65.772896"
       y="85.000542"
       ry="6.4428949"
       transform="rotate(11.662168)" />
    <rect
       style="fill:#b7fada;fill-opacity:1;stroke:none;stroke-width:4.465;stroke-opacity:1"
       id="rect88292"
       width="24.897791"
       height="12.88579"
       x="61.602909"
       y="85.440796"
       ry="6.4428949"
       transform="rotate(11.662168)" />
  </g>
</svg>
