<?xml version="1.0" encoding="UTF-8" standalone="no"?>
<!-- Created with Inkscape (http://www.inkscape.org/) -->

<svg
   width="7.9380941mm"
   height="7.9376202mm"
   viewBox="0 0 7.9380945 7.9376204"
   version="1.1"
   id="svg8391"
   xmlns="http://www.w3.org/2000/svg">
  <defs
     id="defs8388" />
  <g
     id="layer1"
     transform="translate(-94.441016,-135.15044)">
    <path
       id="path31188"
       style="fill:#ffffff;fill-opacity:1;stroke:none;stroke-width:0.0124306"
       d="m 98.480893,135.15044 -0.267968,0.11577 c -0.147449,0.0637 -0.307579,0.1336 -0.355847,0.15539 -0.04827,0.0218 -0.166736,0.0744 -0.263268,0.1169 -0.529065,0.23298 -1.028638,0.45228 -1.222313,0.53655 -0.120664,0.0525 -0.335038,0.14656 -0.476389,0.20904 -0.14135,0.0625 -0.338797,0.14861 -0.438779,0.19136 -0.892766,0.38178 -1.015313,0.436 -1.015313,0.44846 2.94e-4,0.0157 0.348819,0.14597 1.203386,0.44986 0.217195,0.0772 0.396,0.13944 0.397374,0.13828 0.008,-0.007 0.04225,-0.33553 0.03903,-0.37403 l -0.0039,-0.0464 -0.194317,-0.0763 c -0.106875,-0.042 -0.211239,-0.0825 -0.231926,-0.09 -0.03333,-0.0121 -0.03507,-0.015 -0.0154,-0.0261 0.0122,-0.007 0.215299,-0.0948 0.451315,-0.19552 0.236015,-0.1007 0.553218,-0.23687 0.704911,-0.3026 0.15169,-0.0657 0.318115,-0.13756 0.369829,-0.15966 0.05171,-0.022 0.263269,-0.11237 0.47012,-0.20062 0.206852,-0.0883 0.529598,-0.22788 0.717203,-0.31028 l 0.341107,-0.14981 0.254379,0.10715 c 0.13991,0.0589 0.398236,0.16671 0.574062,0.23951 0.17583,0.0728 0.469183,0.19462 0.651901,0.27073 0.38115,0.15876 0.90025,0.37217 1.00606,0.41359 l 0.0721,0.0282 v -0.0823 c 1e-4,-0.0452 0.004,-0.10172 0.007,-0.12549 0.009,-0.0527 0.0704,-0.0209 -0.68453,-0.35409 -0.1,-0.0441 -0.27205,-0.12065 -0.38237,-0.17006 -0.267063,-0.11959 -0.809716,-0.36018 -1.096956,-0.48635 -0.127562,-0.056 -0.317193,-0.13995 -0.421419,-0.18652 z m 0.0012,0.82309 -0.180898,0.0766 c -0.09951,0.0421 -0.257108,0.10703 -0.350191,0.14422 -0.09308,0.0372 -0.239786,0.0971 -0.325974,0.13324 -0.08619,0.0361 -0.292077,0.12182 -0.45756,0.19047 -0.165483,0.0687 -0.30729,0.1315 -0.315103,0.13965 -0.03218,0.0335 -0.156257,0.91892 -0.187387,1.33698 -0.01009,0.13546 -0.02816,0.13443 0.18888,0.0107 0.201858,-0.11503 0.611512,-0.30985 0.827608,-0.39361 0.5193,-0.2013 0.914292,-0.2838 1.360215,-0.2838 0.325734,-5e-5 0.5489,0.0334 0.891391,0.13386 0.08001,0.0235 0.149966,0.0427 0.155506,0.0427 0.024,0 -0.008,-0.43802 -0.0598,-0.81264 l -0.016,-0.11623 -0.08746,-0.0359 c -0.09264,-0.0379 -0.952445,-0.37587 -1.260458,-0.49542 z m 3.434577,0.72982 c -0.002,0 -0.004,0.0887 -0.004,0.19704 v 0.19702 l 0.0596,-0.0232 c 0.0328,-0.0128 0.10465,-0.0409 0.15982,-0.0623 0.0551,-0.0215 0.13329,-0.0536 0.17362,-0.0712 l 0.0734,-0.0322 -0.0608,-0.0306 c -0.0569,-0.0286 -0.39236,-0.17445 -0.40139,-0.17445 z m -0.17417,0.0493 c -0.004,0 -0.0491,0.019 -0.10032,0.0424 l -0.0932,0.0424 v 0.61557 0.61557 l -0.0384,0.0156 c -0.0896,0.0365 -0.13914,0.17122 -0.0943,0.25648 0.0112,0.0215 0.0224,0.039 0.0248,0.039 0.002,0 0.0194,-0.0226 0.0381,-0.0503 0.0545,-0.0809 0.16092,-0.10831 0.25319,-0.0652 0.04,0.0186 0.0631,0.0412 0.10139,0.0988 0.0145,0.0218 0.0164,0.0215 0.042,-0.008 0.0224,-0.0256 0.0259,-0.0423 0.0215,-0.10169 -0.004,-0.0577 -0.0121,-0.0781 -0.042,-0.10909 -0.0202,-0.0209 -0.0523,-0.046 -0.0713,-0.0558 l -0.0345,-0.0177 v -0.6591 c 0,-0.36251 -0.003,-0.6591 -0.007,-0.6591 z m -0.49424,0.15416 c -0.009,-0.006 -0.50521,0.19037 -0.52113,0.20602 -0.004,0.004 0.002,0.0885 0.0127,0.18844 0.0106,0.1 0.0194,0.18974 0.0194,0.19949 h 2e-5 c 0,0.0127 0.008,0.0153 0.0282,0.009 0.0316,-0.01 0.36926,-0.14377 0.43293,-0.17202 l 0.0412,-0.0183 -0.002,-0.2033 c -7.5e-4,-0.11181 -0.006,-0.20606 -0.0118,-0.20951 z m -2.314753,0.64702 c -0.210908,0 -0.216165,6.4e-4 -0.281974,0.0344 -0.194006,0.0996 -0.197168,0.37437 -0.0053,0.46006 0.101839,0.0454 0.213342,0.0226 0.292797,-0.0601 l 0.04432,-0.0461 0.151418,0.001 c 0.225516,0.002 0.391507,0.0315 0.680966,0.12101 0.177488,0.0549 0.241616,0.0801 0.432586,0.17003 0.1501,0.0707 0.15982,0.0775 0.15982,0.11084 0,0.0687 0.0564,0.14011 0.13803,0.17491 0.13313,0.0568 0.27644,-0.0137 0.31483,-0.15483 0.0282,-0.10362 -0.02,-0.20928 -0.13085,-0.28674 -0.14688,-0.10267 -0.58869,-0.30196 -0.834177,-0.37629 -0.35686,-0.10804 -0.619195,-0.14853 -0.962475,-0.14853 z m -0.908067,0.36802 -0.06543,0.0212 c -0.03598,0.0116 -0.172613,0.0596 -0.30362,0.10652 -0.131007,0.047 -0.305894,0.1093 -0.388633,0.13852 -0.204383,0.0721 -0.416772,0.1508 -0.626827,0.23207 -0.171533,0.0664 -0.177222,0.0677 -0.250731,0.0565 -0.06938,-0.0105 -0.509519,-0.0907 -0.56199,-0.10238 -0.01766,-0.004 -0.07328,0.0614 -0.242039,0.28444 -0.120516,0.15927 -0.22198,0.29689 -0.225485,0.30583 -0.0047,0.0121 0.04049,0.0248 0.179355,0.0503 0.102138,0.0187 0.278806,0.0524 0.392575,0.0748 0.312263,0.0616 0.331335,0.0596 0.876359,-0.0928 0.244118,-0.0682 0.447653,-0.12414 0.452344,-0.12414 0.0046,0 0.07011,0.0477 0.14537,0.10594 0.164923,0.12765 0.181022,0.13706 0.194194,0.11391 0.0054,-0.009 0.05871,-0.0808 0.118607,-0.15854 0.0599,-0.0778 0.155266,-0.20244 0.211898,-0.27701 l 0.102985,-0.13558 0.237215,-0.0724 c 0.130496,-0.0398 0.241639,-0.0762 0.246936,-0.081 0.0053,-0.005 -0.103478,-0.10703 -0.241721,-0.22737 z m 3.6271,0.52054 c -0.0697,0.001 -0.14026,0.032 -0.17997,0.0868 -0.0299,0.0411 -0.0301,0.0448 -0.0337,0.38683 l -0.004,0.3453 0.20423,0.10082 h 3e-5 c 0.11234,0.0554 0.20799,0.10103 0.21253,0.10149 0.0167,0.001 0.025,-0.21132 0.0209,-0.54167 -0.004,-0.38225 -0.005,-0.38653 -0.10233,-0.44819 -0.0345,-0.022 -0.0761,-0.032 -0.11794,-0.0314 z m -4.845618,0.8986 0.0073,0.0443 c 0.0087,0.0526 0.05875,0.1209 0.113367,0.15462 0.0558,0.0344 0.186259,0.0279 0.243581,-0.0122 0.04599,-0.0322 0.0903,-0.10844 0.0903,-0.15536 v -0.0314 h -0.227274 z m -0.904076,0.0337 c -0.03868,4.2e-4 -0.06318,0.001 -0.06428,0.003 -0.0021,0.004 0.0036,0.0275 0.01268,0.0536 0.01996,0.0571 0.06183,0.10398 0.112707,0.12621 v 3e-5 c 0.116219,0.0508 0.265633,-0.022 0.289883,-0.1412 l 0.0076,-0.0374 -0.209522,-0.004 c -0.05762,-7.5e-4 -0.110438,-0.001 -0.149117,-7.5e-4 z m 2.010549,0.0647 -0.153573,6.5e-4 -0.153573,4.6e-4 -0.12277,0.16416 -0.122746,0.16415 -0.208346,0.008 c -0.371519,0.0144 -0.358494,0.0157 -0.397594,-0.0397 l -0.03374,-0.0478 -0.245295,0.006 -0.24532,0.006 -0.0438,0.0476 -0.0438,0.0477 h -0.254355 -0.254379 l -0.0491,0.0585 c -0.02699,0.0322 -0.08976,0.11289 -0.139469,0.1793 l -0.0904,0.12073 0.04427,0.10881 c 0.02435,0.0599 0.04427,0.11822 0.04427,0.1297 0,0.0115 -0.06363,0.10508 -0.141428,0.20799 -0.313722,0.41498 -0.297351,0.38692 -0.297351,0.50879 0,0.0896 0.02312,0.1567 0.06082,0.17653 0.01726,0.009 0.24664,0.0134 0.720974,0.0134 h 0.695607 l 0.06053,0.0451 c 0.03328,0.0248 0.119713,0.093 0.192113,0.15161 0.0724,0.0587 0.1514,0.12158 0.175536,0.13989 v -4.7e-4 c 0.02413,0.0183 0.05083,0.0319 0.05931,0.0302 0.0085,-0.002 0.122961,-0.10841 0.254404,-0.23709 0.184961,-0.18107 0.235166,-0.2368 0.222108,-0.24651 -0.0093,-0.007 -0.105401,-0.0893 -0.213636,-0.18315 l -0.196839,-0.17061 v -0.37479 c 0,-0.20614 0.0044,-0.37479 0.0096,-0.37479 0.0053,0 0.08111,0.0614 0.168582,0.13629 0.08747,0.075 0.162456,0.13739 0.166673,0.13869 0.0042,0.002 0.125795,-0.11406 0.270196,-0.25633 l 0.262533,-0.25867 v -0.20045 z m -1.345989,0.56728 0.02108,0.0658 c 0.0116,0.0361 0.02111,0.0723 0.02111,0.0803 0,0.008 -0.04628,0.0698 -0.102863,0.13758 l -0.102913,0.12312 h -0.120786 -0.120811 l -0.05286,0.0617 -0.05286,0.0619 h -0.149704 c -0.08233,0 -0.149704,-0.003 -0.149704,-0.006 0,-0.004 0.01928,-0.0325 0.04283,-0.0647 l 0.04285,-0.0586 -0.11491,0.004 -0.11491,0.004 -0.05982,-0.12977 -0.05982,-0.12978 0.04591,-0.068 0.04593,-0.068 h 0.133813 0.133813 l 0.03619,0.0744 0.03617,0.0744 0.107149,-0.004 0.107197,-0.004 0.05015,-0.0767 0.05015,-0.0767 0.163808,-4.9e-4 z m -0.832848,1.57771 c -0.660215,-5e-5 -0.671531,7.5e-4 -0.704178,0.0609 -0.0072,0.0133 -0.01293,0.10557 -0.01293,0.20926 v 0.18556 l 0.529033,0.003 0.529081,0.003 0.0858,0.18488 c 0.0472,0.10169 0.12002,0.26254 0.161849,0.35745 0.04184,0.0949 0.111693,0.24604 0.155238,0.33586 l 0.07918,0.16331 h 0.200757 c 0.116465,0 0.203938,-0.005 0.208297,-0.012 0.0041,-0.007 -0.03196,-0.10034 -0.08021,-0.20835 -0.04827,-0.10801 -0.09123,-0.20989 -0.09544,-0.22641 -0.007,-0.0276 0.0091,-0.0407 0.200609,-0.16295 0.114528,-0.0731 0.206541,-0.13747 0.204551,-0.14305 -0.002,-0.005 -0.0516,-0.0528 -0.110209,-0.105 -0.251831,-0.22422 -0.561302,-0.49758 -0.64404,-0.56887 l -0.08937,-0.077 z m -0.291108,0.66553 c -0.130865,0 -0.237949,0.005 -0.237949,0.0109 0,0.012 0.08788,0.19552 0.276563,0.57766 l 0.123235,0.24959 h 0.220075 c 0.179645,0 0.22005,-0.003 0.22005,-0.0172 0,-0.0168 -0.292115,-0.68235 -0.339881,-0.77441 l -0.02414,-0.0466 z" />
  </g>
</svg>
