<svg xmlns="http://www.w3.org/2000/svg" version="1.1" xmlns:xlink="http://www.w3.org/1999/xlink" width="512" height="512" x="0" y="0" viewBox="0 0 64 64" style="enable-background:new 0 0 512 512" xml:space="preserve" class=""><g><path d="M12 44a2 2 0 0 0 0 4h4a2 2 0 0 0 1.414-.586l1.78-1.78a13.985 13.985 0 0 0 25.613 0l1.78 1.78A2 2 0 0 0 48 48h4a2 2 0 0 0 0-4h-3.172l-2.885-2.885c.029-.369.056-.739.056-1.115v-7.172l.586.586A2 2 0 0 0 48 34h4a2 2 0 0 0 0-4h-3.172l-2.844-2.844c0-.052.016-.1.016-.156a1.978 1.978 0 0 0-.1-.579 13.986 13.986 0 0 0-4.944-9.165l.934-.467A2 2 0 0 0 43 15v-3a2 2 0 0 0-4 0v1.764l-2.2 1.1a13.74 13.74 0 0 0-9.6 0l-2.2-1.1V12a2 2 0 0 0-4 0v3a2 2 0 0 0 1.105 1.789l.934.467a13.986 13.986 0 0 0-4.939 9.165A1.978 1.978 0 0 0 18 27c0 .053.012.1.016.156L15.171 30H12a2 2 0 0 0 0 4h4a2 2 0 0 0 1.414-.586l.586-.586V40c0 .376.027.746.056 1.115L15.171 44Zm30-15v11a10.017 10.017 0 0 1-8 9.8V29ZM32 18a10.017 10.017 0 0 1 9.539 7H22.461A10.017 10.017 0 0 1 32 18ZM22 29h8v20.8a10.017 10.017 0 0 1-8-9.8Z" fill="#000000" opacity="1" data-original="#000000" class=""></path></g></svg>