<?xml version="1.0" encoding="UTF-8" standalone="no"?>
<!-- Created with Inkscape (http://www.inkscape.org/) -->

<svg
   width="550.81287mm"
   height="48.497021mm"
   viewBox="0 0 550.81287 48.497021"
   version="1.1"
   id="svg9244"
   xmlns:xlink="http://www.w3.org/1999/xlink"
   xmlns="http://www.w3.org/2000/svg"
>
  <defs
     id="defs9241">
    <linearGradient
       id="linearGradient33306">
      <stop
         style="stop-color:#fff8df;stop-opacity:1;"
         offset="0"
         id="stop33302" />
      <stop
         style="stop-color:#fff8df;stop-opacity:0;"
         offset="1"
         id="stop33304" />
    </linearGradient>
    <linearGradient
       xlink:href="#linearGradient33306"
       id="linearGradient33308"
       x1="27.546257"
       y1="161.66652"
       x2="27.384241"
       y2="52.27626"
       gradientUnits="userSpaceOnUse" />
  </defs>
  <g
     id="layer1"
     transform="translate(121.05082,-42.32209)">
    <rect
       style="fill:#120d17;fill-opacity:1;stroke-width:0.264583"
       id="rect9270"
       width="550.81287"
       height="48.497021"
       x="-121.05082"
       y="42.32209" />
    <path
       style="color:#000000;fill:#3a3043;stroke-width:0.312257;-inkscape-stroke:none"
       d="M -121.05082,42.32209 H 429.76205 V 79.975437 C 239.57808,66.070943 80.976554,60.122716 -121.67246,80.225748 Z"
       id="rect10690" />
    <path
       style="color:#000000;fill:url(#linearGradient33308);fill-opacity:1;stroke-width:0.312257;-inkscape-stroke:none"
       d="M -121.05082,42.32209 H 429.76205 V 79.975437 C 239.57808,66.070943 80.976554,60.122716 -121.67246,80.225748 Z"
       id="rect10690-4" />
    <ellipse
       style="fill:#fff8df;fill-opacity:1;stroke-width:0.13472"
       id="path32531-2-6"
       cx="418.68338"
       cy="59.498711"
       rx="0.83649087"
       ry="0.5873754" />
    <ellipse
       style="fill:#fff8df;fill-opacity:1;stroke-width:0.0849216"
       id="path32531-2-56"
       cx="385.77661"
       cy="57.12225"
       rx="0.83649087"
       ry="0.23339297" />
    <ellipse
       style="fill:#fff8df;fill-opacity:1;stroke-width:0.179093"
       id="path32531-2-93"
       cx="369.58667"
       cy="56.732513"
       rx="1.2782899"
       ry="0.67926574" />
    <ellipse
       style="fill:#fff8df;fill-opacity:1;stroke-width:0.13472"
       id="path32531-2-74"
       cx="363.26837"
       cy="38.187366"
       rx="0.83649087"
       ry="0.5873754" />
    <ellipse
       style="fill:#fff8df;fill-opacity:1;stroke-width:0.13472"
       id="path32531-2-52"
       cx="426.2175"
       cy="46.458393"
       rx="0.83649087"
       ry="0.5873754" />
    <ellipse
       style="fill:#fff8df;fill-opacity:1;stroke-width:0.13472"
       id="path32531-2-54"
       cx="433.21567"
       cy="57.132183"
       rx="0.83649087"
       ry="0.5873754" />
    <ellipse
       style="fill:#fff8df;fill-opacity:1;stroke-width:0.13472"
       id="path32531-2-744"
       cx="388.74152"
       cy="40.152817"
       rx="0.83649087"
       ry="0.5873754" />
    <ellipse
       style="fill:#fff8df;fill-opacity:1;stroke-width:0.133394"
       id="path32531-2-30"
       cx="383.53165"
       cy="47.363621"
       rx="0.63671738"
       ry="0.75655484" />
    <ellipse
       style="fill:#fff8df;fill-opacity:1;stroke-width:0.13472"
       id="path32531-2-786"
       cx="344.81241"
       cy="44.417831"
       rx="0.83649087"
       ry="0.5873754" />
    <ellipse
       style="fill:#fff8df;fill-opacity:1;stroke-width:0.077097"
       id="path32531-2-88"
       cx="309.31345"
       cy="45.738491"
       rx="0.39537072"
       ry="0.40698943" />
    <ellipse
       style="fill:#fff8df;fill-opacity:1;stroke-width:0.0700219"
       id="path32531-2-32"
       cx="340.28012"
       cy="46.86108"
       rx="0.57371986"
       ry="0.23135613" />
    <ellipse
       style="fill:#fff8df;fill-opacity:1;stroke-width:0.13472"
       id="path32531-2-061"
       cx="305.88519"
       cy="42.703163"
       rx="0.83649087"
       ry="0.5873754" />
    <ellipse
       style="fill:#fff8df;fill-opacity:1;stroke-width:0.13472"
       id="path32531-2-55"
       cx="242.13306"
       cy="46.81609"
       rx="0.83649087"
       ry="0.5873754" />
    <ellipse
       style="fill:#fff8df;fill-opacity:1;stroke-width:0.13472"
       id="path32531-2-47"
       cx="208.54276"
       cy="41.602337"
       rx="0.83649087"
       ry="0.5873754" />
    <ellipse
       style="fill:#fff8df;fill-opacity:1;stroke-width:0.13472"
       id="path32531-2-4"
       cx="259.84576"
       cy="45.181969"
       rx="0.83649087"
       ry="0.5873754" />
    <ellipse
       style="fill:#fff8df;fill-opacity:1;stroke-width:0.13472"
       id="path32531-2-50"
       cx="369.60205"
       cy="43.192005"
       rx="0.83649087"
       ry="0.5873754" />
    <ellipse
       style="fill:#fff8df;fill-opacity:1;stroke-width:0.0600885"
       id="path32531-2-78"
       cx="282.63892"
       cy="50.401386"
       rx="0.30755407"
       ry="0.31781489" />
    <ellipse
       style="fill:#fff8df;fill-opacity:1;stroke-width:0.13472"
       id="path32531-2-94"
       cx="327.78867"
       cy="48.535259"
       rx="0.83649087"
       ry="0.5873754" />
    <ellipse
       style="fill:#fff8df;fill-opacity:1;stroke-width:0.13472"
       id="path32531-2-31"
       cx="145.17719"
       cy="41.470188"
       rx="0.83649087"
       ry="0.5873754" />
    <ellipse
       style="fill:#fff8df;fill-opacity:1;stroke-width:0.13472"
       id="path32531-2-1"
       cx="215.90849"
       cy="50.508926"
       rx="0.83649087"
       ry="0.5873754" />
    <ellipse
       style="fill:#fff8df;fill-opacity:1;stroke-width:0.13472"
       id="path32531-2-29"
       cx="151.49182"
       cy="48.952705"
       rx="0.83649087"
       ry="0.5873754" />
    <ellipse
       style="fill:#fff8df;fill-opacity:1;stroke-width:0.13472"
       id="path32531-2-36"
       cx="183.86418"
       cy="48.220116"
       rx="0.83649087"
       ry="0.5873754" />
    <ellipse
       style="fill:#fff6d5;fill-opacity:1;stroke-width:0.162842"
       id="path9294"
       cx="-105.0117"
       cy="45.311211"
       rx="23.540524"
       ry="20.708582" />
    <text
       xml:space="preserve"
       style="font-size:13.6511px;line-height:1.25;font-family:Z003;-inkscape-font-specification:Z003;fill:#feefc8;fill-opacity:1.0;stroke-width:0.341278"
       x="161.86394"
       y="64.765327"
       id="text6859-5"
       transform="scale(1.0922764,0.91551918)"><tspan
         id="tspan6857-3"
         style="fill:#feefc8;fill-opacity:1.0;stroke-width:0.341278"
         x="161.86394"
         y="64.765327">Happy Halloween</tspan></text>
    <path
       style="color:#000000;fill:#120d17;stroke-width:0.0988821;-inkscape-stroke:none"
       d="m 96.551548,54.106731 h 16.106682 c 0.73542,0 1.32748,0.592053 1.32748,1.327474 v 15.806859 c 0,0.73542 -0.59206,1.327473 -1.32748,1.327473 H 96.551548 c -0.73542,0 -1.400276,-0.595665 -1.327473,-1.327473 0.530778,-5.3353 2.903311,-10.90082 0,-15.806859 -0.37454,-0.632901 0.592053,-1.327474 1.327473,-1.327474 z"
       id="rect11517" />
    <path
       style="color:#000000;fill:#120d17;stroke-width:0.0697093;-inkscape-stroke:none"
       d="m 113.98569,57.742062 h 12.56675 c -2.79593,4.942157 -1.33827,9.884315 0,14.826472 h -12.56675 z"
       id="rect11517-9" />
    <path
       style="color:#000000;fill:#120d17;stroke-width:0.264583;-inkscape-stroke:none"
       d="m 105.13588,41.539983 v 0 c 1.10093,5.23133 3.77118,10.040151 10.97377,13.628725 H 91.507149 c 5.58514,-2.30956 9.666801,-7.84086 13.628731,-13.628725 z"
       id="rect11670" />
    <path
       style="color:#000000;fill:#120d17;stroke-width:0.169682;-inkscape-stroke:none"
       d="m 121.22081,50.886472 v 0 c 0.82036,2.887422 2.81012,5.541642 8.17718,7.522348 h -18.33274 c 4.16181,-1.274757 7.20329,-4.327747 10.15556,-7.522348 z"
       id="rect11670-1" />
    <path
       style="color:#000000;fill:#fff6d5;stroke-width:0.165724;-inkscape-stroke:none"
       d="m 102.86448,47.423439 c 0.27682,-0.632386 1.72259,-0.44275 2.0209,0.179279 0.77266,1.611105 1.23249,5.984813 1.23249,5.984813 l -3.85797,0.112684 c 0,0 -0.19837,-4.442466 0.60458,-6.276776 z"
       id="rect12416" />
    <path
       style="color:#000000;fill:#fff6d5;stroke-width:0.158474;-inkscape-stroke:none"
       d="m 119.08146,58.142064 c 0.26893,-0.595236 1.67348,-0.416741 1.96328,0.168747 0.75063,1.516458 1.19735,5.633229 1.19735,5.633229 l -3.74797,0.106064 c 0,0 -0.19271,-4.181489 0.58734,-5.90804 z"
       id="rect12416-2" />
    <rect
       style="fill:#fff6d5;fill-opacity:1;stroke-width:0.264583"
       id="rect13628"
       width="4.6019068"
       height="7.7878428"
       x="102.83492"
       y="61.240761" />
    <path
       style="color:#000000;fill:#120d17;stroke-width:0.125844;-inkscape-stroke:none"
       d="m 102.83492,61.240761 3.08073,0.688354 -0.0156,7.678333 -3.75095,-0.490347 z"
       id="rect13775" />
    <ellipse
       style="fill:#120d17;fill-opacity:1;stroke-width:0.331672"
       id="path14231"
       cx="106.71778"
       cy="64.360321"
       rx="0.6084252"
       ry="0.53098929" />
    <ellipse
       style="fill:#120d17;fill-opacity:1;stroke-width:0.824596"
       id="path14231-7"
       cx="106.72314"
       cy="66.91571"
       rx="0.9071067"
       ry="2.2013931" />
    <path
       style="color:#000000;fill:#38343b;stroke-width:0.162341;-inkscape-stroke:none"
       d="M -80.520943,90.727155 C -26.847411,78.98375 29.947773,71.751553 97.032889,68.995294 l 10.403941,0.03331 c -62.445167,8.38277 -120.805858,7.695731 -127.786608,22.447598 z"
       id="rect14362" />
    <path
       style="color:#000000;fill:#110d16;fill-opacity:1;stroke-width:0.102243;-inkscape-stroke:none"
       d="m -80.665457,65.110937 6.872725,-8.308769 4.069087,7.616747 -2.382725,-1.624406 1.801133,4.169453 -1.531997,-0.697325 2.752384,4.494514 -2.483248,-1.022386 4.000008,4.502827 -5.413203,-1.679351 -0.165184,2.435254 0.194444,3.266326 -3.696138,0.327994 0.469054,-3.247834 0.510301,-3.096674 -5.491764,0.963141 2.840117,-3.379698 -2.407147,0.728719 3.214385,-4.20588 -2.927068,1.426441 3.734305,-4.903603 z"
       id="rect23137" />
    <path
       style="color:#000000;fill:#110d16;fill-opacity:1;stroke-width:0.073802;-inkscape-stroke:none"
       d="m -56.114841,69.41564 -6.009989,-4.950636 -3.558293,4.538307 2.083621,-0.967874 -1.575036,2.484296 1.339685,-0.415489 -2.406876,2.677977 2.171524,-0.609171 -3.497885,2.682932 4.733681,-1.000613 0.144449,1.451004 -0.170036,1.946184 3.232161,0.19543 -0.410174,-1.935165 -0.446243,-1.8451 4.802381,0.57387 -2.483596,-2.013734 2.104977,0.434195 -2.810882,-2.506001 2.559632,0.84992 -3.265536,-2.921727 z"
       id="rect23137-0" />
    <path
       style="color:#000000;fill:#110d16;fill-opacity:1;stroke-width:0.073802;-inkscape-stroke:none"
       d="m -80.963681,71.620116 -6.009989,-4.950636 -3.558293,4.538307 2.083621,-0.967874 -1.575036,2.484296 1.339685,-0.415488 -2.406876,2.677977 2.171524,-0.609172 -3.497885,2.682932 4.733681,-1.000613 0.144449,1.451004 -0.170036,1.946184 3.232161,0.19543 -0.410174,-1.935165 -0.446243,-1.8451 4.802381,0.57387 -2.483596,-2.013734 2.104977,0.434195 -2.810882,-2.506001 2.559632,0.84992 -3.265536,-2.921727 z"
       id="rect23137-0-9" />
    <path
       style="color:#000000;fill:#110d16;fill-opacity:1;stroke-width:0.105209;-inkscape-stroke:none"
       d="m -57.441239,64.807474 8.922918,-6.776413 5.28291,6.212019 -3.0935,-1.324823 2.33841,3.400496 -1.98899,-0.568719 3.57344,3.665606 -3.22402,-0.833833 5.19324,3.672388 -7.02801,-1.369636 -0.21445,1.986129 0.25244,2.66393 -4.798718,0.267504 0.608971,-2.648847 0.662538,-2.525566 -7.130001,0.785511 3.687342,-2.756392 -3.125213,0.594325 4.173262,-3.430206 -3.800236,1.163368 4.848271,-3.99925 z"
       id="rect23137-0-9-3" />
    <path
       style="color:#000000;fill:#110d16;fill-opacity:1;stroke-width:0.0639976;-inkscape-stroke:none"
       d="m 78.271839,61.147046 4.386552,-5.100412 2.597106,4.675609 -1.520781,-0.997157 1.149574,2.559456 -0.977797,-0.428058 1.756721,2.758996 -1.584944,-0.627602 2.553023,2.764101 -3.455005,-1.030886 -0.105426,1.494903 0.124101,2.005063 -2.359074,0.201343 0.299373,-1.993711 0.325707,-1.900921 -3.505145,0.591231 1.812716,-2.074657 -1.53637,0.447332 2.051597,-2.581818 -1.868216,0.875634 2.383435,-3.010121 z"
       id="rect23137-0-9-3-6" />
    <path
       style="color:#000000;fill:#110d16;fill-opacity:1;stroke-width:0.0639976;-inkscape-stroke:none"
       d="m 73.809252,61.252521 -4.386552,-5.100412 -2.597106,4.675609 1.520781,-0.997157 -1.149574,2.559456 0.977797,-0.428058 -1.756721,2.758996 1.584944,-0.627602 -2.553023,2.764101 3.455005,-1.030886 0.105426,1.494903 -0.124101,2.005063 2.359074,0.201343 -0.299373,-1.993711 -0.325707,-1.900921 3.505145,0.591231 -1.812716,-2.074657 1.53637,0.447332 -2.051597,-2.581818 1.868216,0.875634 -2.383435,-3.010121 z"
       id="rect23137-0-9-3-6-0" />
    <path
       style="color:#000000;fill:#110d16;fill-opacity:1;stroke-width:0.0639976;-inkscape-stroke:none"
       d="m 143.54923,61.079569 -4.38656,-5.100412 -2.5971,4.675609 1.52078,-0.997157 -1.14957,2.559456 0.97779,-0.428058 -1.75672,2.758996 1.58495,-0.627602 -2.55303,2.764101 3.45501,-1.030886 0.10542,1.494903 -0.1241,2.005063 2.35908,0.201343 -0.29938,-1.993711 -0.3257,-1.900921 3.50514,0.591231 -1.81271,-2.074657 1.53637,0.447332 -2.0516,-2.581818 1.86822,0.875634 -2.38344,-3.010121 z"
       id="rect23137-0-9-3-6-0-6" />
    <path
       style="color:#000000;fill:#110d16;fill-opacity:1;stroke-width:0.0639976;-inkscape-stroke:none"
       d="m 149.05308,60.209996 4.38656,-5.100412 2.5971,4.675609 -1.52078,-0.997157 1.14957,2.559456 -0.97779,-0.428058 1.75672,2.758996 -1.58495,-0.627602 2.55303,2.764101 -3.45501,-1.030886 -0.10542,1.494903 0.1241,2.005063 -2.35908,0.201343 0.29938,-1.993711 0.3257,-1.900921 -3.50514,0.591231 1.81271,-2.074657 -1.53637,0.447332 2.0516,-2.581818 -1.86822,0.875634 2.38344,-3.010121 z"
       id="rect23137-0-9-3-6-0-6-2" />
    <path
       style="color:#000000;opacity:0.314136;fill:#e7dfbf;fill-opacity:1;stroke-width:0.227875;-inkscape-stroke:none"
       d="m -113.60407,32.758876 c 8.14569,-1.609426 17.412769,3.411175 16.427765,9.278253 -0.642718,3.828282 -12.198575,2.757874 -12.198575,2.757874 -2.84053,2.942281 11.838282,14.540708 5.28628,14.540708 -6.55201,0 -21.34219,-5.883091 -21.34219,-11.94749 v -3.682779 c 0,-6.064399 5.41909,-9.680545 11.82672,-10.946566 z"
       id="rect27944" />
    <ellipse
       style="opacity:0.314136;fill:#e7dfbf;fill-opacity:1;stroke-width:0.264583"
       id="path30109"
       cx="-91.815056"
       cy="50.360477"
       rx="2.2340069"
       ry="2.4577413" />
    <ellipse
       style="opacity:0.314136;fill:#e7dfbf;fill-opacity:1;stroke-width:0.264583"
       id="path30111"
       cx="-94.220634"
       cy="37.638378"
       rx="2.1246982"
       ry="0.39177811" />
    <ellipse
       style="opacity:0.314136;fill:#e7dfbf;fill-opacity:1;stroke-width:0.264583"
       id="path30113"
       cx="-99.373291"
       cy="48.550262"
       rx="1.0546676"
       ry="1.1971025" />
    <ellipse
       style="opacity:0.314136;fill:#e7dfbf;fill-opacity:1;stroke-width:0.264583"
       id="path30115"
       cx="-97.589157"
       cy="60.70438"
       rx="1.8055778"
       ry="1.2028636" />
    <ellipse
       style="opacity:0.314136;fill:#e7dfbf;fill-opacity:1;stroke-width:0.264583"
       id="path30117"
       cx="-83.408295"
       cy="47.608894"
       rx="0.71185869"
       ry="3.0609353" />
    <ellipse
       style="opacity:0.314136;fill:#e7dfbf;fill-opacity:1;stroke-width:0.264583"
       id="path30119"
       cx="-101.39045"
       cy="34.141495"
       rx="2.5030339"
       ry="0.01920359" />
    <ellipse
       style="opacity:0.314136;fill:#e7dfbf;fill-opacity:1;stroke-width:0.264583"
       id="path30121"
       cx="-112.64018"
       cy="32.240379"
       rx="0.37689531"
       ry="0.184847" />
    <ellipse
       style="opacity:0.314136;fill:#e7dfbf;fill-opacity:1;stroke-width:0.264583"
       id="path30123"
       cx="-114.71256"
       cy="60.277348"
       rx="1.2355437"
       ry="0.4519833" />
    <ellipse
       style="opacity:0.314136;fill:#e7dfbf;fill-opacity:1;stroke-width:0.264583"
       id="path30125"
       cx="-125.31269"
       cy="57.095119"
       rx="0.61811137"
       ry="0.18174386" />
    <path
       style="color:#000000;opacity:0.862129;fill:#120d17;fill-opacity:1;stroke-width:0.0380059;-inkscape-stroke:none"
       d="m -102.85436,40.94396 33.296317,-0.05306 c 13.186595,-0.02102 2.6968,1.942219 2.77678,3.33471 0.07999,1.39249 -15.240529,0.816941 -16.204018,0.930961 l -3.619196,0.428298 c -0.873557,0.10337 -6.048011,-0.653938 -8.546402,-2.452808 -1.791291,-1.289752 -13.261691,-2.179249 -7.703481,-2.188103 z"
       id="rect26421" />
    <path
       style="color:#000000;opacity:0.888307;fill:#120d17;fill-opacity:1;stroke-width:0.0380059;-inkscape-stroke:none"
       d="m -97.545092,53.621468 -33.296318,0.05306 c -13.1866,0.02102 -2.6968,-1.942219 -2.77678,-3.33471 -0.08,-1.39249 15.24053,-0.816941 16.20402,-0.930961 l 3.61919,-0.428298 c 0.87356,-0.10337 6.04801,0.653938 8.5464,2.452808 1.79129,1.289752 13.261698,2.179249 7.703488,2.188103 z"
       id="rect26421-7" />
    <ellipse
       style="opacity:1;fill:#fff8df;fill-opacity:1;stroke-width:0.13472"
       id="path32531"
       cx="-10.366426"
       cy="48.281815"
       rx="0.83649087"
       ry="0.5873754" />
    <ellipse
       style="fill:#fff8df;fill-opacity:1;stroke-width:0.13472"
       id="path32531-2"
       cx="17.155499"
       cy="47.922058"
       rx="0.83649087"
       ry="0.5873754" />
    <ellipse
       style="fill:#fff8df;fill-opacity:1;stroke-width:0.13472"
       id="path32531-2-0"
       cx="-35.031788"
       cy="44.247143"
       rx="0.83649087"
       ry="0.5873754" />
    <ellipse
       style="fill:#fff8df;fill-opacity:1;stroke-width:0.112592"
       id="path32531-2-8"
       cx="66.739479"
       cy="45.068661"
       rx="0.58618748"
       ry="0.58545506" />
    <ellipse
       style="fill:#fff8df;fill-opacity:1;stroke-width:0.13472"
       id="path32531-2-97"
       cx="75.667824"
       cy="55.900837"
       rx="0.83649087"
       ry="0.5873754" />
    <ellipse
       style="fill:#fff8df;fill-opacity:1;stroke-width:0.0682604"
       id="path32531-2-2"
       cx="-17.534779"
       cy="47.65591"
       rx="0.39604968"
       ry="0.31849384" />
    <ellipse
       style="fill:#fff8df;fill-opacity:1;stroke-width:0.13472"
       id="path32531-2-3"
       cx="-4.8534298"
       cy="44.301674"
       rx="0.83649087"
       ry="0.5873754" />
    <ellipse
       style="fill:#fff8df;fill-opacity:1;stroke-width:0.13472"
       id="path32531-2-7"
       cx="5.3065915"
       cy="46.592144"
       rx="0.83649087"
       ry="0.5873754" />
    <ellipse
       style="fill:#fff8df;fill-opacity:1;stroke-width:0.13472"
       id="path32531-2-5"
       cx="44.590492"
       cy="47.955544"
       rx="0.83649087"
       ry="0.5873754" />
    <ellipse
       style="fill:#fff8df;fill-opacity:1;stroke-width:0.0842664"
       id="path32531-2-9"
       cx="13.225252"
       cy="46.874149"
       rx="0.52845359"
       ry="0.36376005" />
    <ellipse
       style="fill:#fff8df;fill-opacity:1;stroke-width:0.0685928"
       id="path32531-2-22"
       cx="27.253279"
       cy="52.557323"
       rx="0.35146239"
       ry="0.36240217" />
    <ellipse
       style="fill:#fff8df;fill-opacity:1;stroke-width:0.0997703"
       id="path32531-2-361"
       cx="407.78622"
       cy="46.67099"
       rx="0.46103582"
       ry="0.58449489" />
    <ellipse
       style="fill:#fff8df;fill-opacity:1;stroke-width:0.0682604"
       id="path32531-2-06"
       cx="366.56424"
       cy="58.47934"
       rx="0.39604968"
       ry="0.31849384" />
  </g>
</svg>
