<?xml version="1.0" encoding="UTF-8" standalone="no"?>
<!-- Created with Inkscape (http://www.inkscape.org/) -->

<svg
   width="196.11813mm"
   height="167.39384mm"
   viewBox="0 0 196.11813 167.39384"
   version="1.1"
   id="svg5"
   xmlns="http://www.w3.org/2000/svg"
>
  <defs
     id="defs2" />
  <g
     id="layer1"
     transform="translate(172.22363,13.760952)">
    <path
       style="fill:none;stroke:#6f484f;stroke-width:1.165;stroke-linecap:butt;stroke-linejoin:miter;stroke-miterlimit:4;stroke-dasharray:none;stroke-opacity:1"
       d="m -102.10786,30.29685 c 2.252805,-8.760876 14.043049,-5.210527 17.681859,4.263545"
       id="path18779-6" />
    <path
       style="color:#000000;fill:#7b722f;stroke-width:0.268712;-inkscape-stroke:none"
       d="m -36.250895,28.688159 c 16.028084,4.749087 -16.028899,11.745553 -36.110323,11.745553 -20.081424,0 -53.111072,-14.428669 -36.610942,-11.745553 34.642782,5.633328 18.332367,-28.9427527 36.360631,-30.2685457 19.990717,-1.470111 -26.869075,11.5337198 36.360634,30.2685457 z"
       id="path10653" />
    <ellipse
       style="fill:#b74c0a;fill-opacity:1.0;stroke-width:0.174276"
       id="path9362-2-7-0"
       cx="-120.00357"
       cy="86.37426"
       rx="49.382"
       ry="61.94875" />
    <ellipse
       style="fill:#b74c0a;fill-opacity:1.0;stroke-width:0.174276"
       id="path9362-2-7-0-9"
       cx="-25.487488"
       cy="85.666267"
       rx="49.382"
       ry="61.94875" />
    <ellipse
       style="fill:#ff6600;fill-opacity:1.0;stroke-width:0.174276"
       id="path9362-2"
       cx="-95.93206"
       cy="91.330162"
       rx="49.382"
       ry="61.94875" />
    <ellipse
       style="fill:#ff6600;fill-opacity:1.0;stroke-width:0.174276"
       id="path9362-2-7"
       cx="-48.497021"
       cy="90.268173"
       rx="49.382"
       ry="61.94875" />
    <ellipse
       style="fill:#b74c0a;fill-opacity:1.0;stroke-width:0.174276"
       id="path9362"
       cx="-69.559601"
       cy="91.684151"
       rx="49.382"
       ry="61.94875" />
    <ellipse
       style="fill:#ff6600;fill-opacity:1.0;stroke:none;stroke-width:0.264583;stroke-opacity:1"
       id="path8969"
       cx="-67.612633"
       cy="92.038147"
       rx="15.929678"
       ry="61.594753" />
    <path
       style="fill:none;stroke:#7b722f;stroke-width:2.0534;stroke-linecap:butt;stroke-linejoin:miter;stroke-miterlimit:4;stroke-dasharray:none;stroke-opacity:1"
       d="m -61.773492,27.8722 c 0,0 19.734844,-5.311381 21.76199,-11.567002 2.027143,-6.255623 -6.152887,-12.3194374 -10.135723,-10.5047248 -3.756182,1.7114435 -2.563741,6.7277448 2.682984,8.7932818 5.212392,2.05202 18.679797,0.637215 19.079006,-7.1998686 0.35773,-7.02282242 0.08907,-10.1026815 -6.319919,-12.4522318 -3.219584,-1.1803077 -6.021811,1.4163682 -3.756182,6.7277472 2.265632,5.3113785 9.360638,12.2161692 14.011146,5.1343306 4.650508,-7.0818374 6.558408,-20.4192964 6.558408,-20.4192964"
       id="path12685" />
    <g
       id="rect13244"
       style="fill:#6f484f;fill-opacity:1;stroke:none"
       transform="matrix(-0.186723,-0.12938223,0.12455588,-0.16772,-205.55293,-13.139192)">
      <path
         style="color:#000000;fill:#6f484f;fill-opacity:1;stroke:none;stroke-width:8.665;-inkscape-stroke:none"
         d="m -396.29499,83.630806 c -15.45367,22.764034 -36.63997,49.924604 -64.07271,52.036944 -25.20251,1.94061 -47.48915,-20.4844 -65.48868,-38.231224 -19.88787,-19.608659 -34.52813,-45.226125 -43.26089,-71.754711 -7.98141,-24.2461285 -7.14751,-76.243768 -7.14751,-76.243768 33.2758,37.414991 30.43036,24.334403 30.43036,24.334403 l -17.19121,-78.46583 35.12684,26.359437 -21.27772,-41.274037 c -12.72972,-24.69281 71.25925,-88.0392 71.25925,-88.0392 18.41792,0 98.89468,60.42061 87.55769,88.33768 l -13.5905,33.466241 30.39913,-14.071213 c -1.09633,41.990169 -21.27342,98.4021948 -21.27342,98.4021948 14.56408,-12.6230908 34.63664,-29.9045818 34.63664,-29.9045818 0,0 -13.53187,81.792987 -36.10727,115.047665 z"
         id="path13552" />
    </g>
    <g
       id="rect13244-6"
       style="fill:#7b722f;fill-opacity:1;stroke:none"
       transform="matrix(-0.091482,-0.19890932,0.20496508,-0.07283434,-173.05596,-57.18699)">
      <path
         style="color:#000000;fill:#7b722f;fill-opacity:1;stroke:none;stroke-width:8.665;-inkscape-stroke:none"
         d="m -396.29499,83.630806 c -15.45367,22.764034 -36.63997,49.924604 -64.07271,52.036944 -25.20251,1.94061 -47.48915,-20.4844 -65.48868,-38.231224 -19.88787,-19.608659 -34.52813,-45.226125 -43.26089,-71.754711 -7.98141,-24.2461285 -7.14751,-76.243768 -7.14751,-76.243768 33.2758,37.414991 30.43036,24.334403 30.43036,24.334403 l -17.19121,-78.46583 35.12684,26.359437 -21.27772,-41.274037 c -12.72972,-24.69281 71.25925,-88.0392 71.25925,-88.0392 18.41792,0 98.89468,60.42061 87.55769,88.33768 l -13.5905,33.466241 30.39913,-14.071213 c -1.09633,41.990169 -21.27342,98.4021948 -21.27342,98.4021948 14.56408,-12.6230908 34.63664,-29.9045818 34.63664,-29.9045818 0,0 -13.53187,81.792987 -36.10727,115.047665 z"
         id="path13552-0" />
    </g>
    <path
       style="fill:none;stroke:#7b722f;stroke-width:1.165;stroke-linecap:butt;stroke-linejoin:miter;stroke-miterlimit:4;stroke-dasharray:none;stroke-opacity:1"
       d="m -106.08274,24.971641 c 2.25279,-8.760876 14.043043,-5.210527 17.681853,4.263545"
       id="path18779" />
  </g>
</svg>
