<svg viewBox="0 0 32 32" xmlns="http://www.w3.org/2000/svg"><g id="Layer_8" data-name="Layer 8"><path d="m28 20v-13a2 2 0 0 0 -2-2h-20a2 2 0 0 0 -2 2v13a2 2 0 0 0 -2 2 5 5 0 0 0 5 5h18a5 5 0 0 0 5-5 2 2 0 0 0 -2-2zm-22-13h20v13h-5a1 1 0 0 0 -.71.29l-1.7 1.71h-5.18l-1.7-1.71a1 1 0 0 0 -.71-.29h-5zm19 18h-18a3 3 0 0 1 -3-3h6.59l1.7 1.71a1 1 0 0 0 .71.29h6a1 1 0 0 0 .71-.29l1.7-1.71h6.59a3 3 0 0 1 -3 3z"/><path d="m13 18a1 1 0 0 0 -1-1v-1a3 3 0 0 0 -.78-2 3 3 0 0 0 .78-2v-1a1 1 0 0 0 0-2 2 2 0 0 0 -2 2v1a1 1 0 0 1 -1 1 1 1 0 0 0 0 2 1 1 0 0 1 1 1v1a2 2 0 0 0 2 2 1 1 0 0 0 1-1z"/><path d="m20 11v1a3 3 0 0 0 .78 2 3 3 0 0 0 -.78 2v1a1 1 0 0 0 0 2 2 2 0 0 0 2-2v-1a1 1 0 0 1 1-1 1 1 0 0 0 0-2 1 1 0 0 1 -1-1v-1a2 2 0 0 0 -2-2 1 1 0 0 0 0 2z"/><path d="m14 15a1 1 0 0 0 0-2 1 1 0 0 0 0 2z"/><path d="m18 15a1 1 0 0 0 0-2 1 1 0 1 0 0 2z"/></g></svg>