<svg id="Capa_1" enable-background="new 0 0 512.003 512.003" height="512" viewBox="0 0 512.003 512.003" width="512" xmlns="http://www.w3.org/2000/svg"><g><g id="Page-1_41_"><g id="_x30_42---Education" transform="translate(0 -1)"><path id="Shape_162_" d="m497.179 140.535-222.464-101.41c-11.887-5.419-25.54-5.419-37.427 0l-222.456 101.41c-9.001 3.88-14.832 12.743-14.832 22.545s5.831 18.665 14.832 22.545l70.502 32.137v115.985c0 19.627 12.723 37.385 34.133 51.635v26.377c-16.643 4.297-27.494 20.299-25.328 37.35s16.673 29.832 33.861 29.832 31.695-12.781 33.861-29.832-8.685-33.053-25.328-37.35v-16.572c37.583 16.645 78.373 24.803 119.467 23.893 95.701 0 170.667-37.487 170.667-85.333v-115.985l70.502-32.137c9.001-3.88 14.832-12.743 14.832-22.545s-5.831-18.665-14.832-22.545zm-352.111 304.145c0 9.426-7.641 17.067-17.067 17.067s-17.067-7.641-17.067-17.067 7.641-17.067 17.067-17.067 17.067 7.642 17.067 17.067zm-42.667-110.933v-108.203l17.067 7.782v131.029c-9.913-7.196-16.156-18.392-17.067-30.608zm307.2 0c0 37.009-70.34 68.267-153.6 68.267-47.676 0-91.042-10.24-119.467-25.984v-134.921l100.753 45.926c11.886 5.427 25.542 5.427 37.427 0l134.886-61.491v108.203zm80.495-163.661-222.455 101.419c-7.402 3.32-15.869 3.32-23.27 0l-96.666-44.066 75.255-38.101c10.177 5.359 21.541 8.068 33.041 7.876 28.706 0 51.2-14.993 51.2-34.133s-22.494-34.133-51.2-34.133-51.2 14.993-51.2 34.133c.046 5.028 1.591 9.927 4.437 14.071l-81.417 41.216-105.915-48.282c-2.911-1.104-4.837-3.892-4.837-7.006 0-3.113 1.925-5.902 4.837-7.006l222.456-101.418c7.401-3.323 15.869-3.323 23.27 0l222.464 101.419c2.911 1.104 4.837 3.892 4.837 7.006 0 3.113-1.925 5.902-4.837 7.005zm-268.228-7.006c0-8.055 14.592-17.067 34.133-17.067s34.133 9.011 34.133 17.067-14.592 17.067-34.133 17.067-34.133-9.011-34.133-17.067z"/></g></g></g></svg>