<svg height="512" viewBox="0 0 96 96" width="512" xmlns="http://www.w3.org/2000/svg"><g id="Layer_4"><g><path d="m89.941 92c.545 0 1.061-.239 1.413-.652.353-.417.505-.964.418-1.503l-3.78-23.089c-.145-.895-.92-1.554-1.829-1.554h-26.45c-.909 0-1.683.659-1.829 1.554l-3.778 23.089c-.089.54.063 1.087.417 1.503.35.413.868.652 1.412.652zm-28.653-23.089h23.299l3.171 19.379h-29.641z"/><path d="m36.287 65.202h-26.45c-.909 0-1.684.659-1.829 1.554l-3.78 23.089c-.087.54.065 1.087.418 1.503.352.413.868.652 1.413.652h34.006c.543 0 1.061-.239 1.413-.652.353-.417.505-.964.417-1.503l-3.778-23.089c-.147-.894-.92-1.554-1.83-1.554zm-28.045 23.089 3.171-19.379h23.299l3.171 19.379z"/><path d="m54.864 53.216c.475 0 .949-.181 1.311-.543.724-.724.724-1.898 0-2.623l-6.321-6.321v-8.478l7.341 4.238 2.315 8.634c.221.83.971 1.376 1.789 1.376.159 0 .321-.022.482-.062.989-.268 1.576-1.282 1.311-2.271l-1.355-5.056 8.013 4.625c.292.17.61.25.925.25.641 0 1.264-.333 1.606-.927.513-.887.21-2.021-.677-2.532l-8.013-4.626 5.051-1.351c.991-.268 1.578-1.282 1.313-2.271-.264-.989-1.282-1.565-2.271-1.315l-8.639 2.313-7.339-4.236 7.341-4.239 8.636 2.316c.161.04.322.062.482.062.819 0 1.568-.547 1.791-1.373.264-.993-.322-2.007-1.311-2.275l-5.053-1.354 8.013-4.627c.887-.511 1.19-1.645.677-2.532-.511-.887-1.645-1.192-2.532-.677l-8.013 4.626 1.355-5.05c.264-.993-.322-2.007-1.311-2.275-.989-.246-2.007.322-2.271 1.311l-2.315 8.637-7.341 4.238v-8.478l6.321-6.321c.724-.724.724-1.898 0-2.623-.724-.724-1.9-.724-2.623 0l-3.698 3.698v-9.249c.001-1.025-.831-1.855-1.854-1.855s-1.855.83-1.855 1.855v9.251l-3.698-3.698c-.723-.724-1.898-.724-2.623 0-.724.724-.724 1.898 0 2.623l6.321 6.321v8.478l-7.341-4.238-2.315-8.637c-.264-.989-1.282-1.558-2.271-1.311-.989.268-1.576 1.282-1.311 2.275l1.355 5.05-8.013-4.626c-.887-.514-2.021-.21-2.532.677-.513.887-.21 2.021.677 2.532l8.013 4.627-5.053 1.354c-.989.268-1.576 1.282-1.311 2.275.223.826.973 1.373 1.791 1.373.158 0 .321-.022.482-.062l8.636-2.316 7.341 4.239-7.339 4.236-8.639-2.313c-.989-.254-2.007.322-2.271 1.315-.264.989.322 2.003 1.313 2.271l5.051 1.351-8.013 4.626c-.887.511-1.19 1.645-.677 2.532.342.594.965.927 1.606.927.315 0 .634-.08.925-.25l8.013-4.625-1.355 5.056c-.264.989.322 2.003 1.311 2.271.161.04.322.062.482.062.819 0 1.568-.547 1.789-1.376l2.315-8.634 7.341-4.238v8.478l-6.321 6.321c-.724.724-.724 1.898 0 2.623.724.724 1.9.724 2.623 0l3.698-3.698v9.251c0 1.025.831 1.855 1.855 1.855s1.855-.83 1.855-1.855v-9.251l3.698 3.698c.36.36.837.541 1.311.541z"/></g></g></svg>